<?xml version="1.0" encoding="utf-8"?>
<!-- Generator: Adobe Illustrator 18.0.0, SVG Export Plug-In . SVG Version: 6.00 Build 0)  -->
<!DOCTYPE svg PUBLIC "-//W3C//DTD SVG 1.1//EN" "http://www.w3.org/Graphics/SVG/1.1/DTD/svg11.dtd">
<svg version="1.1" xmlns="http://www.w3.org/2000/svg" xmlns:xlink="http://www.w3.org/1999/xlink" x="0px" y="0px" width="54px"
	 height="54px" viewBox="0 0 54 54" enable-background="new 0 0 54 54" xml:space="preserve">
<g id="Layer_40" display="none">
	<rect x="-348.333" y="-304" display="inline" fill="#464445" width="691.333" height="784"/>
</g>
<g id="Layer_6">
	<rect opacity="0.3" fill-rule="evenodd" clip-rule="evenodd" fill="#FF0000" width="54" height="54"/>
</g>
<g id="Dark">
	<g>
		<g>
			<path fill="#1D1D1B" d="M33.742,36.062c0,0.377-0.307,0.682-0.682,0.682H21.053c-0.377,0-0.682-0.306-0.682-0.682V15.898
				c0-0.377,0.305-0.682,0.682-0.682H33.06c0.375,0,0.682,0.305,0.682,0.682v2.25h1.943v-3.873c0-0.929-0.752-1.683-1.682-1.683
				H20.559c-0.93,0-2.18,0.753-2.18,1.683v25.45c0,0.93,0.754,1.683,1.684,1.683h13.941c0.93,0,1.682-0.753,1.682-1.683v-6.14
				h-1.943V36.062z M28.045,39.763c0,0.119-0.098,0.216-0.217,0.216h-1.688c-0.119,0-0.217-0.097-0.217-0.216v-1.734
				c0-0.12,0.098-0.216,0.217-0.216h1.688c0.119,0,0.217,0.097,0.217,0.216V39.763z M35.682,24.928v-4.021h-2.064v4.021h-3.913
				v1.876h3.913v4.021h2.064v-4.021h3.94v-1.876H35.682z"/>
		</g>
	</g>
</g>
<g id="Layer_5" display="none">
	<path display="inline" opacity="0.3" fill-rule="evenodd" clip-rule="evenodd" fill="#E30613" d="M0,0v54h54V0H0z M47,47H7V7h40V47
		z"/>
</g>
<g id="name" display="none">
	<text transform="matrix(1 0 0 1 5.2736 50.4886)" display="inline" fill="#646363" font-family="'UniversLTStd-Cn'" font-size="8">add-device</text>
</g>
<g id="Title" display="none">
</g>
</svg>
