<?xml version="1.0" encoding="utf-8"?>
<!-- Generator: Adobe Illustrator 18.0.0, SVG Export Plug-In . SVG Version: 6.00 Build 0)  -->
<!DOCTYPE svg PUBLIC "-//W3C//DTD SVG 1.1//EN" "http://www.w3.org/Graphics/SVG/1.1/DTD/svg11.dtd">
<svg version="1.1" xmlns="http://www.w3.org/2000/svg" xmlns:xlink="http://www.w3.org/1999/xlink" x="0px" y="0px" width="54px"
	 height="54px" viewBox="0 0 54 54" enable-background="new 0 0 54 54" xml:space="preserve">
<g id="Layer_40" display="none">
	<rect x="-496.333" y="-526" display="inline" fill="#464445" width="691.333" height="784"/>
</g>
<g id="Layer_6">
</g>
<g id="Dark">
	<g>
		<g>
			<path fill-rule="evenodd" clip-rule="evenodd" fill="#1D1D1B" d="M35.922,28.909c-0.003,0.004-0.006,0.008-0.009,0.011
				c-2.39-2.389-6.746-6.745-7.377-7.376c-0.874-0.874-2.292-0.874-3.167,0c-0.282,0.282-1.306,1.311-2.562,2.574l0.008,0.008
				c-0.106,0.106-1.371,1.37-2.915,2.915c-0.667,0.67-1.302,1.309-1.838,1.848c-0.002-0.002-0.003-0.004-0.004-0.005
				c-1.198,1.198-2.354,2.354-3.15,3.15c0.872,0.783,2.206,0.768,3.052-0.057l0.024,0.024c0,0,8.635-8.634,8.919-8.919
				c0.025-0.025,0.038-0.045,0.053-0.066c-0.135-0.193,0.136-0.193,0,0c0.014,0.021,0.027,0.041,0.053,0.066
				c0.286,0.285,8.938,8.938,8.938,8.938l0.025-0.025c0.003,0.004,0.006,0.008,0.009,0.011c0.853,0.852,2.218,0.867,3.097,0.058
				C38.276,31.264,37.119,30.106,35.922,28.909z"/>
		</g>
	</g>
</g>
<g id="Layer_5" display="none">
	<path display="inline" opacity="0.3" fill-rule="evenodd" clip-rule="evenodd" fill="#E30613" d="M0,0v54h54V0H0z M47,47H7V7h40V47
		z"/>
</g>
<g id="name" display="none">
	<text transform="matrix(1 0 0 1 5.2736 51.1551)" display="inline" fill="#646363" font-family="'UniversLTStd-Cn'" font-size="8">arrow-up</text>
</g>
<g id="Title" display="none">
</g>
</svg>
