<?xml version="1.0" encoding="utf-8"?>
<!-- Generator: Adobe Illustrator 18.0.0, SVG Export Plug-In . SVG Version: 6.00 Build 0)  -->
<!DOCTYPE svg PUBLIC "-//W3C//DTD SVG 1.1//EN" "http://www.w3.org/Graphics/SVG/1.1/DTD/svg11.dtd">
<svg version="1.1" xmlns="http://www.w3.org/2000/svg" xmlns:xlink="http://www.w3.org/1999/xlink" x="0px" y="0px" width="54px"
	 height="54px" viewBox="0 0 54 54" enable-background="new 0 0 54 54" xml:space="preserve">
<g id="Layer_40" display="none">
	<rect x="-348.333" y="-526" display="inline" fill="#464445" width="691.333" height="784"/>
</g>
<g id="Layer_6">
</g>
<g id="Dark">
	<g>
		<g>
			<path fill-rule="evenodd" clip-rule="evenodd" fill="#1D1D1B" d="M31.995,35.971l0.025-0.025c0,0-8.652-8.651-8.938-8.938
				c-0.025-0.025-0.045-0.038-0.066-0.053c-0.193,0.136-0.193-0.135,0,0c0.021-0.015,0.041-0.028,0.066-0.053
				c0.286-0.284,8.92-8.919,8.92-8.919l-0.024-0.024c0.826-0.847,0.841-2.18,0.057-3.052c-0.796,0.796-1.952,1.952-3.15,3.15
				c0.002,0.002,0.004,0.003,0.006,0.005c-0.567,0.564-1.243,1.236-1.95,1.94c-1.497,1.497-2.709,2.709-2.813,2.813l-0.008-0.008
				c-1.263,1.257-2.292,2.281-2.573,2.562c-0.875,0.875-0.875,2.293,0,3.167c0.63,0.631,4.986,4.986,7.375,7.376
				c-0.004,0.003-0.008,0.006-0.011,0.009c1.197,1.197,2.354,2.354,3.155,3.154c0.809-0.879,0.794-2.244-0.059-3.096
				C32.002,35.976,31.998,35.974,31.995,35.971z"/>
		</g>
	</g>
</g>
<g id="Layer_5" display="none">
	<path display="inline" opacity="0.3" fill-rule="evenodd" clip-rule="evenodd" fill="#E30613" d="M0,0v54h54V0H0z M47,47H7V7h40V47
		z"/>
</g>
<g id="name" display="none">
	<text transform="matrix(1 0 0 1 5.4294 51.1551)" display="inline" fill="#646363" font-family="'UniversLTStd-Cn'" font-size="8">arrow-left</text>
</g>
<g id="Title" display="none">
</g>
</svg>
