<?xml version="1.0" encoding="utf-8"?>
<!-- Generator: Adobe Illustrator 18.0.0, SVG Export Plug-In . SVG Version: 6.00 Build 0)  -->
<!DOCTYPE svg PUBLIC "-//W3C//DTD SVG 1.1//EN" "http://www.w3.org/Graphics/SVG/1.1/DTD/svg11.dtd">
<svg version="1.1" xmlns="http://www.w3.org/2000/svg" xmlns:xlink="http://www.w3.org/1999/xlink" x="0px" y="0px" width="54px"
	 height="54px" viewBox="0 0 54 54" enable-background="new 0 0 54 54" xml:space="preserve">
<g id="Layer_40" display="none">
	<rect x="-570.333" y="-526" display="inline" fill="#464445" width="691.333" height="784"/>
</g>
<g id="Layer_6">
</g>
<g id="Dark">
	<g>
		<g>
			<path fill-rule="evenodd" clip-rule="evenodd" fill="#1D1D1B" d="M35.979,21.994c-0.004,0.004-0.006,0.008-0.009,0.011
				l-0.025-0.025c0,0-8.651,8.652-8.938,8.938c-0.025,0.025-0.038,0.045-0.053,0.066c0.136,0.193-0.135,0.193,0,0
				c-0.015-0.021-0.028-0.041-0.053-0.066c-0.284-0.285-8.919-8.919-8.919-8.919l-0.024,0.024c-0.847-0.825-2.18-0.841-3.052-0.057
				c0.796,0.796,1.952,1.952,3.15,3.15c0.002-0.002,0.003-0.004,0.005-0.005c0.538,0.541,1.176,1.182,1.845,1.855
				c1.541,1.541,2.802,2.802,2.908,2.908l-0.008,0.008c1.257,1.263,2.281,2.292,2.562,2.574c0.875,0.874,2.293,0.874,3.167,0
				c0.631-0.631,4.987-4.986,7.377-7.376c0.003,0.004,0.006,0.008,0.009,0.011c1.197-1.197,2.354-2.355,3.154-3.155
				C38.197,21.127,36.832,21.142,35.979,21.994z"/>
		</g>
	</g>
</g>
<g id="Layer_5" display="none">
	<path display="inline" opacity="0.3" fill-rule="evenodd" clip-rule="evenodd" fill="#E30613" d="M0,0v54h54V0H0z M47,47H7V7h40V47
		z"/>
</g>
<g id="name" display="none">
	<text transform="matrix(1 0 0 1 4.9801 51.1551)" display="inline" fill="#646363" font-family="'UniversLTStd-Cn'" font-size="8"> arrow-down </text>
</g>
<g id="Title" display="none">
</g>
</svg>
