<?xml version="1.0" encoding="utf-8"?>
<!-- Generator: Adobe Illustrator 18.0.0, SVG Export Plug-In . SVG Version: 6.00 Build 0)  -->
<!DOCTYPE svg PUBLIC "-//W3C//DTD SVG 1.1//EN" "http://www.w3.org/Graphics/SVG/1.1/DTD/svg11.dtd">
<svg version="1.1" xmlns="http://www.w3.org/2000/svg" xmlns:xlink="http://www.w3.org/1999/xlink" x="0px" y="0px" width="54px"
	 height="54px" viewBox="0 0 54 54" enable-background="new 0 0 54 54" xml:space="preserve">
<g id="Layer_40" display="none">
	<rect x="-570.333" y="-156" display="inline" fill="#464445" width="691.333" height="784"/>
</g>
<g id="Layer_6">
</g>
<g id="Dark">
	<g>
		<g>
			<path fill="#1D1D1B" d="M23.552,26.964h7.329v-6.626h-7.329V26.964z M33.519,26.685v6.626h6.967v-6.626H33.519z M13.514,33.312
				h6.969v-6.626h-6.969V33.312z M18.66,12.595h-2.69v11.858h2.69V12.595z M15.971,41.125h2.69V36.52h-2.69V41.125z M25.836,41.405
				h2.691V30.452h-2.691V41.405z M28.527,12.595h-2.691v4.568h2.691V12.595z M38.346,12.595h-2.689v11.858h2.689V12.595z
				 M35.656,41.125h2.689V36.52h-2.689V41.125z"/>
		</g>
	</g>
</g>
<g id="Layer_5" display="none">
	<path display="inline" opacity="0.3" fill-rule="evenodd" clip-rule="evenodd" fill="#E30613" d="M0,0v54h54V0H0z M47,47H7V7h40V47
		z"/>
</g>
<g id="name" display="none">
	<text transform="matrix(1 0 0 1 6.4567 50.4398)" display="inline" fill="#646363" font-family="'UniversLTStd-Cn'" font-size="8">audio-settings</text>
</g>
<g id="Title" display="none">
</g>
</svg>
