<?xml version="1.0" encoding="utf-8"?>
<!-- Generator: Adobe Illustrator 18.0.0, SVG Export Plug-In . SVG Version: 6.00 Build 0)  -->
<!DOCTYPE svg PUBLIC "-//W3C//DTD SVG 1.1//EN" "http://www.w3.org/Graphics/SVG/1.1/DTD/svg11.dtd">
<svg version="1.1" xmlns="http://www.w3.org/2000/svg" xmlns:xlink="http://www.w3.org/1999/xlink" x="0px" y="0px" width="54px"
	 height="54px" viewBox="0 0 54 54" enable-background="new 0 0 54 54" xml:space="preserve">
<g id="Layer_40" display="none">
	<rect x="-126.333" y="-674" display="inline" fill="#464445" width="691.333" height="784"/>
</g>
<g id="Layer_6">
</g>
<g id="Dark">
	<g>
		<g>
			<path fill-rule="evenodd" clip-rule="evenodd" fill="#1D1D1B" d="M20.287,16.438l-5.18,5.258h-3.255
				c-0.84,0-1.521,0.691-1.521,1.544v7.518c0,0.853,0.681,1.544,1.521,1.544h3.251l5.184,5.262c0.785,0.797,1.901,1.034,2.896,0.737
				V15.701C22.188,15.405,21.072,15.642,20.287,16.438z M28.345,23.343c0.229,1.183,0.352,2.405,0.352,3.657
				c0,1.252-0.123,2.474-0.352,3.657l0.782,0.518c0.286-1.346,0.44-2.742,0.44-4.175c0-1.433-0.154-2.829-0.44-4.175L28.345,23.343z
				 M33.746,19.763c0.68,2.291,1.05,4.72,1.05,7.236c0,2.516-0.37,4.945-1.05,7.236l1.258,0.834c0.801-2.545,1.236-5.255,1.236-8.07
				c0-2.815-0.436-5.525-1.236-8.07L33.746,19.763z M41.507,14.621l-1.703,1.129c1.289,3.502,1.997,7.292,1.997,11.25
				c0,3.959-0.708,7.748-1.997,11.25l1.703,1.129c1.47-3.839,2.279-8.013,2.279-12.379C43.786,22.633,42.978,18.459,41.507,14.621z"
				/>
		</g>
	</g>
</g>
<g id="Layer_5" display="none">
	<path display="inline" opacity="0.3" fill-rule="evenodd" clip-rule="evenodd" fill="#E30613" d="M0,0v54h54V0H0z M47,47H7V7h40V47
		z"/>
</g>
<g id="name" display="none">
	<text transform="matrix(1 0 0 1 4.3136 51.1551)" display="inline" fill="#646363" font-family="'UniversLTStd-Cn'" font-size="8">audio-output</text>
</g>
<g id="Title" display="none">
</g>
</svg>
