<?xml version="1.0" encoding="utf-8"?>
<!-- Generator: Adobe Illustrator 18.0.0, SVG Export Plug-In . SVG Version: 6.00 Build 0)  -->
<!DOCTYPE svg PUBLIC "-//W3C//DTD SVG 1.1//EN" "http://www.w3.org/Graphics/SVG/1.1/DTD/svg11.dtd">
<svg version="1.1" xmlns="http://www.w3.org/2000/svg" xmlns:xlink="http://www.w3.org/1999/xlink" x="0px" y="0px" width="54px"
	 height="54px" viewBox="0 0 54 54" enable-background="new 0 0 54 54" xml:space="preserve">
<g id="Layer_40" display="none">
	<rect x="-423.232" y="-378" display="inline" fill="#464445" width="691.333" height="784"/>
</g>
<g id="Layer_6">
</g>
<g id="Dark">
	<g>
		<g>
			<path fill-rule="evenodd" clip-rule="evenodd" fill="#1D1D1B" d="M39.325,24.619H21.352l6.701-6.701
				c-0.38-1.648-0.861-3.185-1.428-4.584L15.46,24.5c-1.385,1.384-1.385,3.628,0,5.012l11.153,11.154
				c0.567-1.396,1.048-2.928,1.431-4.57L21.349,29.4h17.976C39.662,27.764,39.661,26.256,39.325,24.619z"/>
		</g>
	</g>
</g>
<g id="Layer_5" display="none">
	<path display="inline" opacity="0.3" fill-rule="evenodd" clip-rule="evenodd" fill="#E30613" d="M-0.899,0v54h54V0H-0.899z
		 M46.101,47h-40V7h40V47z"/>
</g>
<g id="name" display="none">
	<text transform="matrix(1 0 0 1 4.0808 50.4886)" display="inline" fill="#646363" font-family="'UniversLTStd-Cn'" font-size="8">back</text>
</g>
<g id="Title" display="none">
</g>
</svg>
