<?xml version="1.0" encoding="utf-8"?>
<!-- Generator: Adobe Illustrator 18.0.0, SVG Export Plug-In . SVG Version: 6.00 Build 0)  -->
<!DOCTYPE svg PUBLIC "-//W3C//DTD SVG 1.1//EN" "http://www.w3.org/Graphics/SVG/1.1/DTD/svg11.dtd">
<svg version="1.1" xmlns="http://www.w3.org/2000/svg" xmlns:xlink="http://www.w3.org/1999/xlink" x="0px" y="0px" width="54px"
	 height="54px" viewBox="0 0 54 54" enable-background="new 0 0 54 54" xml:space="preserve">
<g id="Layer_40" display="none">
	<rect x="-570.333" y="-304" display="inline" fill="#464445" width="691.333" height="784"/>
</g>
<g id="Layer_6">
</g>
<g id="Dark">
	<path fill="#1D1D1B" d="M29.519,27l4.639-4.639c1.026-1.027,1.026-2.691,0-3.719l-5.169-5.169l-1.925-1.924l-0.453-0.452v3.81
		v9.186l-6.301-6.3c-0.115-0.115-0.238-0.215-0.368-0.305c-0.324,0.913-0.616,1.873-0.87,2.875l6.641,6.641l-6.633,6.635
		c0.256,0.998,0.549,1.956,0.871,2.867c0.127-0.086,0.248-0.186,0.359-0.297l6.301-6.301v9.195v3.801l2.378-2.378l5.169-5.169
		c1.026-1.027,1.026-2.692,0-3.719L29.519,27z M28.989,17.283l2.577,2.578c0.008,0.007,0.016,0.011,0.021,0.018
		c0.334,0.332,0.342,0.864,0.033,1.211l0.002,0.003l-2.634,2.635V17.283z M31.623,34.087l-2.634,2.636V30.28l2.577,2.577
		c0.008,0.006,0.016,0.012,0.021,0.019c0.334,0.333,0.342,0.864,0.033,1.209L31.623,34.087z"/>
</g>
<g id="Layer_5" display="none">
	<path display="inline" opacity="0.3" fill-rule="evenodd" clip-rule="evenodd" fill="#E30613" d="M0,0v54h54V0H0z M47,47H7V7h40V47
		z"/>
</g>
<g id="name" display="none">
	<text transform="matrix(1 0 0 1 6.4567 50.4886)" display="inline" fill="#646363" font-family="'UniversLTStd-Cn'" font-size="8">bluetooth</text>
</g>
<g id="Title" display="none">
</g>
</svg>
