<?xml version="1.0" encoding="utf-8"?>
<!-- Generator: Adobe Illustrator 18.0.0, SVG Export Plug-In . SVG Version: 6.00 Build 0)  -->
<!DOCTYPE svg PUBLIC "-//W3C//DTD SVG 1.1//EN" "http://www.w3.org/Graphics/SVG/1.1/DTD/svg11.dtd">
<svg version="1.1" xmlns="http://www.w3.org/2000/svg" xmlns:xlink="http://www.w3.org/1999/xlink" x="0px" y="0px" width="54px"
	 height="54px" viewBox="0 0 54 54" enable-background="new 0 0 54 54" xml:space="preserve">
<g id="Layer_40" display="none">
	<rect x="-126.333" y="-452" display="inline" fill="#464445" width="691.333" height="784"/>
</g>
<g id="Layer_6">
</g>
<g id="Dark">
	<g>
		<g>
			<path fill="#1D1D1B" d="M43.116,22.382l-11.238-1.477L27,10.673l-4.878,10.231l-11.238,1.477l8.224,7.801L17.04,41.327l9.96-5.41
				l9.96,5.41l-2.068-11.145L43.116,22.382z M27,32.824l-6.404,3.479l1.33-7.165l-5.287-5.016l7.225-0.949L27,16.594l3.136,6.579
				l7.226,0.949l-5.287,5.016l1.33,7.165L27,32.824z"/>
		</g>
	</g>
</g>
<g id="Layer_5" display="none">
	<path display="inline" opacity="0.3" fill-rule="evenodd" clip-rule="evenodd" fill="#E30613" d="M0,0v54h54V0H0z M47,47H7V7h40V47
		z"/>
</g>
<g id="name" display="none">
	<text transform="matrix(1 0 0 1 4.6667 50.4886)" display="inline" fill="#646363" font-family="'UniversLTStd-Cn'" font-size="8">bookmark-off</text>
</g>
<g id="Title" display="none">
</g>
</svg>
