<?xml version="1.0" encoding="utf-8"?>
<!-- Generator: Adobe Illustrator 18.0.0, SVG Export Plug-In . SVG Version: 6.00 Build 0)  -->
<!DOCTYPE svg PUBLIC "-//W3C//DTD SVG 1.1//EN" "http://www.w3.org/Graphics/SVG/1.1/DTD/svg11.dtd">
<svg version="1.1" xmlns="http://www.w3.org/2000/svg" xmlns:xlink="http://www.w3.org/1999/xlink" x="0px" y="0px" width="54px"
	 height="54px" viewBox="0 0 54 54" enable-background="new 0 0 54 54" xml:space="preserve">
<g id="Layer_40" display="none">
	<rect x="-274.333" y="-452" display="inline" fill="#464445" width="691.333" height="784"/>
</g>
<g id="Layer_6">
</g>
<g id="Dark">
	<g>
		<g>
			<path fill-rule="evenodd" clip-rule="evenodd" fill="#1D1D1B" d="M38.551,18.436h-4.794l-5.571-5.406l-5.581,5.406h-5.156
				c-1.205,0-2.181,0.977-2.181,2.181v18.172c0,1.204,0.976,2.181,2.181,2.181h21.102c1.204,0,2.181-0.977,2.181-2.181V20.617
				C40.731,19.413,39.755,18.436,38.551,18.436z M21.83,38.06h-4.363v-4.363h4.363V38.06z M21.833,31.521h-4.361v-4.361h4.361
				V31.521z M21.833,24.978h-4.361v-4.361h4.361V24.978z M23.991,27.159h14.56v4.361h-14.56V27.159z M38.552,38.06H23.999v-4.363
				h14.553V38.06z M38.542,24.968l-14.538,0.007v-4.356h14.548L38.542,24.968z"/>
		</g>
	</g>
</g>
<g id="Layer_5" display="none">
	<path display="inline" opacity="0.3" fill-rule="evenodd" clip-rule="evenodd" fill="#E30613" d="M0,0v54h54V0H0z M47,47H7V7h40V47
		z"/>
</g>
<g id="name" display="none">
	<text transform="matrix(1 0 0 1 5.4294 50.4886)" display="inline" fill="#646363" font-family="'UniversLTStd-Cn'" font-size="8">bookmark-list</text>
</g>
<g id="Title" display="none">
</g>
</svg>
