<?xml version="1.0" encoding="utf-8"?>
<!-- Generator: Adobe Illustrator 18.0.0, SVG Export Plug-In . SVG Version: 6.00 Build 0)  -->
<!DOCTYPE svg PUBLIC "-//W3C//DTD SVG 1.1//EN" "http://www.w3.org/Graphics/SVG/1.1/DTD/svg11.dtd">
<svg version="1.1" xmlns="http://www.w3.org/2000/svg" xmlns:xlink="http://www.w3.org/1999/xlink" x="0px" y="0px" width="54px"
	 height="54px" viewBox="0 0 54 54" enable-background="new 0 0 54 54" xml:space="preserve">
<g id="Layer_40" display="none">
	<rect x="-274.333" y="-156" display="inline" fill="#464445" width="691.333" height="784"/>
</g>
<g id="Layer_6">
</g>
<g id="Dark">
	<g>
		<g>
			<path fill="#1D1D1B" d="M18.89,28.377l-2.324,5.29H13.6L23.262,12.6h3.639L30.6,33.667h-2.966l-0.826-5.29H18.89z M24.729,15.015
				l-4.831,11.007h6.544L24.729,15.015z"/>
		</g>
		<g>
			<path fill="#1D1D1B" d="M31.953,39.411h6.896L38.309,41.4h-9.506l0.231-1.783l8.189-9.814h-6.199l0.284-2.015H40.4l-0.233,1.807
				L31.953,39.411z"/>
		</g>
	</g>
</g>
<g id="Layer_5" display="none">
	<path display="inline" opacity="0.3" fill-rule="evenodd" clip-rule="evenodd" fill="#E30613" d="M0,0v54h54V0H0z M47,47H7V7h40V47
		z"/>
</g>
<g id="name" display="none">
	<text transform="matrix(1 0 0 1 5.4294 50.4398)" display="inline" fill="#646363" font-family="'UniversLTStd-Cn'" font-size="8">byname</text>
</g>
<g id="Title" display="none">
</g>
</svg>
