<?xml version="1.0" encoding="utf-8"?>
<!-- Generator: Adobe Illustrator 18.0.0, SVG Export Plug-In . SVG Version: 6.00 Build 0)  -->
<!DOCTYPE svg PUBLIC "-//W3C//DTD SVG 1.1//EN" "http://www.w3.org/Graphics/SVG/1.1/DTD/svg11.dtd">
<svg version="1.1" xmlns="http://www.w3.org/2000/svg" xmlns:xlink="http://www.w3.org/1999/xlink" x="0px" y="0px" width="54px"
	 height="54px" viewBox="0 0 54 54" enable-background="new 0 0 54 54" xml:space="preserve">
<g id="Layer_40" display="none">
	<rect x="-348.333" y="-156" display="inline" fill="#464445" width="691.333" height="784"/>
</g>
<g id="Layer_6">
</g>
<g id="Dark">
	<g>
		<path fill="#1D1D1B" d="M27,12.5c-8.008,0-14.5,6.492-14.5,14.5c0,8.008,6.492,14.5,14.5,14.5S41.5,35.008,41.5,27
			C41.5,18.992,35.008,12.5,27,12.5z M27,38.6c-6.406,0-11.6-5.194-11.6-11.6c0-6.406,5.193-11.6,11.6-11.6
			c6.406,0,11.6,5.194,11.6,11.6C38.6,33.406,33.406,38.6,27,38.6z"/>
		<g>
			<circle fill="#1D1D1B" cx="27.001" cy="17.567" r="1.333"/>
			<polygon fill="#1D1D1B" points="28.334,27.201 25.668,26.925 25.668,17.567 28.334,17.567 			"/>
			<circle fill="#1D1D1B" cx="31.199" cy="31.233" r="1.333"/>
			
				<rect x="27.832" y="26.325" transform="matrix(-0.7073 0.7069 -0.7069 -0.7073 70.4364 29.2346)" fill="#1D1D1B" width="2.668" height="5.75"/>
			<path fill="#1D1D1B" d="M25.668,26.925c0,0,0,0.65,0.522,1.185c0.519,0.531,1.424-0.86,1.424-0.86l-0.788-0.538L25.668,26.925z"
				/>
		</g>
	</g>
</g>
<g id="Layer_5" display="none">
	<path display="inline" opacity="0.3" fill-rule="evenodd" clip-rule="evenodd" fill="#E30613" d="M0,0v54h54V0H0z M47,47H7V7h40V47
		z"/>
</g>
<g id="name" display="none">
	<text transform="matrix(1 0 0 1 5.2736 50.4398)" display="inline" fill="#646363" font-family="'UniversLTStd-Cn'" font-size="8">bytime</text>
</g>
<g id="Title" display="none">
</g>
</svg>
