<?xml version="1.0" encoding="utf-8"?>
<!-- Generator: Adobe Illustrator 18.0.0, SVG Export Plug-In . SVG Version: 6.00 Build 0)  -->
<!DOCTYPE svg PUBLIC "-//W3C//DTD SVG 1.1//EN" "http://www.w3.org/Graphics/SVG/1.1/DTD/svg11.dtd">
<svg version="1.1" xmlns="http://www.w3.org/2000/svg" xmlns:xlink="http://www.w3.org/1999/xlink" x="0px" y="0px" width="54px"
	 height="54px" viewBox="0 0 54 54" enable-background="new 0 0 54 54" xml:space="preserve">
<g id="Layer_40" display="none">
	<rect x="-422.333" y="-156" display="inline" fill="#464445" width="691.333" height="784"/>
</g>
<g id="Layer_6">
	<rect opacity="0.3" fill-rule="evenodd" clip-rule="evenodd" fill="#FF0000" width="54" height="54"/>
</g>
<g id="Dark">
	<g>
		<g>
			<path fill-rule="evenodd" clip-rule="evenodd" fill="#1D1D1B" d="M16.489,17.452c-2.192-0.056-4.015,1.678-4.07,3.875
				c-0.056,2.195,1.675,4.021,3.867,4.077c2.192,0.057,4.013-1.678,4.069-3.874C20.41,19.333,18.68,17.508,16.489,17.452z
				 M27.133,17.724c-2.191-0.057-4.012,1.678-4.068,3.874c-0.057,2.196,1.675,4.021,3.866,4.078c2.19,0.056,4.013-1.678,4.068-3.874
				C31.055,19.605,29.324,17.779,27.133,17.724z M37.512,25.946c2.191,0.057,4.014-1.678,4.069-3.874
				c0.056-2.195-1.675-4.021-3.867-4.077c-2.19-0.056-4.013,1.678-4.069,3.874C33.588,24.065,35.32,25.89,37.512,25.946z
				 M16.489,28.054c-2.191-0.056-4.015,1.679-4.07,3.874c-0.056,2.196,1.675,4.022,3.867,4.078c2.192,0.057,4.013-1.677,4.069-3.874
				C20.412,29.936,18.68,28.11,16.489,28.054z M27.133,28.325c-2.191-0.055-4.014,1.679-4.068,3.875
				c-0.057,2.196,1.675,4.021,3.866,4.078c2.19,0.056,4.013-1.678,4.068-3.875C31.055,30.207,29.324,28.382,27.133,28.325z
				 M37.714,28.596c-2.192-0.055-4.015,1.678-4.07,3.875c-0.056,2.196,1.677,4.021,3.866,4.078c2.192,0.056,4.014-1.679,4.071-3.874
				C41.636,30.478,39.906,28.653,37.714,28.596z"/>
		</g>
	</g>
</g>
<g id="Layer_5" display="none">
	<path display="inline" opacity="0.3" fill-rule="evenodd" clip-rule="evenodd" fill="#E30613" d="M0,0v54h54V0H0z M47,47H7V7h40V47
		z"/>
</g>
<g id="name" display="none">
	<text transform="matrix(1 0 0 1 4.9801 50.4398)" display="inline" fill="#646363" font-family="'UniversLTStd-Cn'" font-size="8">category</text>
</g>
<g id="Title" display="none">
</g>
</svg>
