<?xml version="1.0" encoding="utf-8"?>
<!-- Generator: Adobe Illustrator 18.0.0, SVG Export Plug-In . SVG Version: 6.00 Build 0)  -->
<!DOCTYPE svg PUBLIC "-//W3C//DTD SVG 1.1//EN" "http://www.w3.org/Graphics/SVG/1.1/DTD/svg11.dtd">
<svg version="1.1" xmlns="http://www.w3.org/2000/svg" xmlns:xlink="http://www.w3.org/1999/xlink" x="0px" y="0px" width="54px"
	 height="54px" viewBox="0 0 54 54" enable-background="new 0 0 54 54" xml:space="preserve">
<g id="Layer_40" display="none">
	<rect x="-496.333" y="-82" display="inline" fill="#464445" width="691.333" height="784"/>
</g>
<g id="Layer_6">
</g>
<g id="Dark">
	<g>
		<g>
			<path fill-rule="evenodd" clip-rule="evenodd" fill="#1D1D1B" d="M40.738,16.589h-7.465c-0.477,0-0.865,0.388-0.865,0.867v15.805
				c0,0.479,0.389,0.866,0.865,0.866h7.465c0.477,0,0.865-0.388,0.865-0.866V17.456C41.604,16.977,41.215,16.589,40.738,16.589z
				 M29.062,16.571H13.261c-0.477,0-0.864,0.388-0.864,0.867v6.645c0,0.479,0.387,0.867,0.864,0.867h15.802
				c0.475,0,0.864-0.388,0.864-0.867v-6.645C29.927,16.96,29.537,16.571,29.062,16.571z M29.062,27.438H16.586
				c-0.477,0-0.865,0.389-0.865,0.868v8.257c0,0.479,0.388,0.867,0.865,0.867h12.477c0.475,0,0.864-0.387,0.864-0.867v-8.257
				C29.927,27.826,29.537,27.438,29.062,27.438z"/>
		</g>
	</g>
</g>
<g id="Layer_5" display="none">
	<path display="inline" opacity="0.3" fill-rule="evenodd" clip-rule="evenodd" fill="#E30613" d="M0,0v54h54V0H0z M47,47H7V7h40V47
		z"/>
</g>
<g id="name" display="none">
	<text transform="matrix(1 0 0 1 5.4294 50.2874)" display="inline" fill="#646363" font-family="'UniversLTStd-Cn'" font-size="8">dashboard</text>
</g>
<g id="Title" display="none">
</g>
</svg>
