<?xml version="1.0" encoding="utf-8"?>
<!-- Generator: Adobe Illustrator 18.0.0, SVG Export Plug-In . SVG Version: 6.00 Build 0)  -->
<!DOCTYPE svg PUBLIC "-//W3C//DTD SVG 1.1//EN" "http://www.w3.org/Graphics/SVG/1.1/DTD/svg11.dtd">
<svg version="1.1" xmlns="http://www.w3.org/2000/svg" xmlns:xlink="http://www.w3.org/1999/xlink" x="0px" y="0px" width="54px"
	 height="54px" viewBox="0 0 54 54" enable-background="new 0 0 54 54" xml:space="preserve">
<g id="Layer_40" display="none">
	<rect x="-422.333" y="-674" display="inline" fill="#464445" width="691.333" height="784"/>
</g>
<g id="Layer_6">
</g>
<g id="Dark">
	<g>
		<g>
			<path fill-rule="evenodd" clip-rule="evenodd" fill="#1D1D1B" d="M35.435,19.88l-0.423,0.529
				c0.428,0.753,0.792,1.556,1.078,2.407c0.285,0.851,0.479,1.71,0.589,2.566l0.66,0.175c-0.109-0.98-0.32-1.964-0.647-2.939
				C36.364,21.644,35.939,20.73,35.435,19.88z M41.312,21.103c-0.641-1.914-1.561-3.658-2.695-5.207l-0.681,0.853
				c0.993,1.403,1.802,2.97,2.376,4.682c0.574,1.711,0.871,3.446,0.922,5.159l1.061,0.281C42.27,24.959,41.954,23.017,41.312,21.103
				z M29.645,16.351l-17.94,12.021l0.579,2.862h4.774l2.17,6.869h5.209l-2.17-6.869h12.587L29.645,16.351z"/>
		</g>
	</g>
</g>
<g id="Layer_5" display="none">
	<path display="inline" opacity="0.3" fill-rule="evenodd" clip-rule="evenodd" fill="#E30613" d="M0,0v54h54V0H0z M47,47H7V7h40V47
		z"/>
</g>
<g id="name" display="none">
	<text transform="matrix(1 0 0 1 4.3136 51.1551)" display="inline" fill="#646363" font-family="'UniversLTStd-Cn'" font-size="8">volumn-max</text>
</g>
<g id="Title" display="none">
</g>
</svg>
