<?xml version="1.0" encoding="utf-8"?>
<!-- Generator: Adobe Illustrator 18.0.0, SVG Export Plug-In . SVG Version: 6.00 Build 0)  -->
<!DOCTYPE svg PUBLIC "-//W3C//DTD SVG 1.1//EN" "http://www.w3.org/Graphics/SVG/1.1/DTD/svg11.dtd">
<svg version="1.1" xmlns="http://www.w3.org/2000/svg" xmlns:xlink="http://www.w3.org/1999/xlink" x="0px" y="0px" width="54px"
	 height="54px" viewBox="0 0 54 54" enable-background="new 0 0 54 54" xml:space="preserve">
<g id="Layer_40" display="none">
	<rect x="-126.333" y="-82" display="inline" fill="#464445" width="691.333" height="784"/>
</g>
<g id="Layer_6">
</g>
<g id="Dark">
	<g>
		<g>
			<path fill="#1D1D1B" d="M25.436,15.688l3.097,0.013h0.004c0.496,0,0.895-0.325,0.898-0.818c0.002-0.496-0.4-0.799-0.895-0.8
				l-3.098-0.013c-0.549,0.005-0.898,0.297-0.901,0.793C24.538,15.358,24.94,15.685,25.436,15.688z M35.351,17.317l-16.703-0.015
				c-0.743,0-1.346,0.477-1.346,1.219c-0.002,0.744,0.6,1.193,1.343,1.193l16.704,0.015h0.002c0.741,0,1.345-0.45,1.347-1.194
				C36.698,17.793,36.093,17.317,35.351,17.317z M18.635,21.334l0.107,1.876c0,0.052-0.012,0.103-0.008,0.156l0.728,14.533
				c0.056,1.117,1.016,2.032,2.137,2.032h10.76c1.121,0,2.081-0.915,2.137-2.032l0.729-14.533c0.002-0.053-0.007-0.103-0.009-0.155
				l0.109-1.877H18.635z M22.529,37.919c-0.01,0-0.022,0.001-0.033,0.001c-0.49,0-0.894-0.387-0.913-0.879l-0.476-12.562
				c-0.017-0.502,0.374-0.926,0.88-0.945c0.485-0.009,0.927,0.374,0.947,0.879l0.475,12.561
				C23.427,37.474,23.034,37.899,22.529,37.919z M27.8,37.007c0,0.496-0.403,0.896-0.899,0.896
				c-0.496-0.001-0.896-0.403-0.896-0.898l0.017-12.561c0-0.495,0.399-0.897,0.896-0.897h0.002c0.495,0.001,0.896,0.403,0.896,0.899
				L27.8,37.007z M32.222,37.043c-0.017,0.49-0.42,0.876-0.909,0.876c-0.015,0-0.023-0.001-0.038-0.001
				c-0.503-0.021-0.896-0.446-0.878-0.947l0.507-12.561c0.018-0.503,0.436-0.898,0.95-0.877c0.502,0.021,0.894,0.445,0.874,0.947
				L32.222,37.043z"/>
		</g>
	</g>
</g>
<g id="Layer_5" display="none">
	<path display="inline" opacity="0.3" fill-rule="evenodd" clip-rule="evenodd" fill="#E30613" d="M0,0v54h54V0H0z M47,47H7V7h40V47
		z"/>
</g>
<g id="name" display="none">
	<text transform="matrix(1 0 0 1 4.6667 50.2874)" display="inline" fill="#646363" font-family="'UniversLTStd-Cn'" font-size="8">delete</text>
</g>
<g id="Title" display="none">
</g>
</svg>
