<?xml version="1.0" encoding="utf-8"?>
<!-- Generator: Adobe Illustrator 18.0.0, SVG Export Plug-In . SVG Version: 6.00 Build 0)  -->
<!DOCTYPE svg PUBLIC "-//W3C//DTD SVG 1.1//EN" "http://www.w3.org/Graphics/SVG/1.1/DTD/svg11.dtd">
<svg version="1.1" xmlns="http://www.w3.org/2000/svg" xmlns:xlink="http://www.w3.org/1999/xlink" x="0px" y="0px" width="54px"
	 height="54px" viewBox="0 0 54 54" enable-background="new 0 0 54 54" xml:space="preserve">
<g id="Layer_40" display="none">
	<rect x="-570.333" y="-82" display="inline" fill="#464445" width="691.333" height="784"/>
</g>
<g id="Layer_6">
</g>
<g id="Dark">
	<g>
		<g>
			<path fill="#1D1D1B" d="M16.092,14.86h15.362v4.883h2.435v-6.498c0-0.448-0.364-0.812-0.812-0.812H14.443
				c-0.449,0-0.812,0.364-0.812,0.812v22.688c0,0.448,0.362,0.812,0.812,0.812h9.738v-2.444h-8.098L16.092,14.86z M39.334,22.135
				H27.625c-0.57,0-1.032,0.462-1.032,1.033v17.365c0,0.57,0.462,1.033,1.032,1.033h11.709c0.572,0,1.033-0.463,1.033-1.033V23.169
				C40.367,22.598,39.906,22.135,39.334,22.135z M37.935,39.162h-8.912V24.587h8.912V39.162z"/>
		</g>
	</g>
</g>
<g id="Layer_5" display="none">
	<path display="inline" opacity="0.3" fill-rule="evenodd" clip-rule="evenodd" fill="#E30613" d="M0,0v54h54V0H0z M47,47H7V7h40V47
		z"/>
</g>
<g id="name" display="none">
	<text transform="matrix(1 0 0 1 6.4567 50.2874)" display="inline" fill="#646363" font-family="'UniversLTStd-Cn'" font-size="8">device</text>
</g>
<g id="Title" display="none">
</g>
</svg>
