<?xml version="1.0" encoding="utf-8"?>
<!-- Generator: Adobe Illustrator 18.0.0, SVG Export Plug-In . SVG Version: 6.00 Build 0)  -->
<!DOCTYPE svg PUBLIC "-//W3C//DTD SVG 1.1//EN" "http://www.w3.org/Graphics/SVG/1.1/DTD/svg11.dtd">
<svg version="1.1" xmlns="http://www.w3.org/2000/svg" xmlns:xlink="http://www.w3.org/1999/xlink" x="0px" y="0px" width="54px"
	 height="54px" viewBox="0 0 54 54" enable-background="new 0 0 54 54" xml:space="preserve">
<g id="Layer_40" display="none">
	<rect x="-126.333" y="-378" display="inline" fill="#464445" width="691.333" height="784"/>
</g>
<g id="Layer_6">
</g>
<g id="Dark">
	<path fill-rule="evenodd" clip-rule="evenodd" fill="#1D1D1B" d="M43.828,15.933H26.87c-2.116-0.008-2.596-1.042-2.923-2.202
		c-0.329-1.165-0.987-2.199-2.962-2.199c-5.297,0-4.972,0-5.656,0c-1.974,0-2.633,1.034-2.962,2.199
		c-0.287,1.012-0.687,1.978-2.19,2.202h-0.004c-0.838,0-1.517,0.678-1.517,1.517v23.502c0,0.838,0.678,1.517,1.517,1.517h33.656
		c0.837,0,1.516-0.679,1.516-1.517V17.449C45.344,16.611,44.665,15.933,43.828,15.933z"/>
</g>
<g id="Layer_5" display="none">
	<path display="inline" opacity="0.3" fill-rule="evenodd" clip-rule="evenodd" fill="#E30613" d="M0,0v54h54V0H0z M47,47H7V7h40V47
		z"/>
</g>
<g id="name" display="none">
	<text transform="matrix(1 0 0 1 4.6667 50.4886)" display="inline" fill="#646363" font-family="'UniversLTStd-Cn'" font-size="8">folder</text>
</g>
<g id="Title" display="none">
</g>
</svg>
