<?xml version="1.0" encoding="utf-8"?>
<!-- Generator: Adobe Illustrator 18.0.0, SVG Export Plug-In . SVG Version: 6.00 Build 0)  -->
<!DOCTYPE svg PUBLIC "-//W3C//DTD SVG 1.1//EN" "http://www.w3.org/Graphics/SVG/1.1/DTD/svg11.dtd">
<svg version="1.1" xmlns="http://www.w3.org/2000/svg" xmlns:xlink="http://www.w3.org/1999/xlink" x="0px" y="0px" width="54px"
	 height="54px" viewBox="0 0 54 54" enable-background="new 0 0 54 54" xml:space="preserve">
<g id="Layer_40" display="none">
	<rect x="-497.232" y="-378" display="inline" fill="#464445" width="691.333" height="784"/>
</g>
<g id="Layer_6">
</g>
<g id="Dark">
	<g>
		<g>
			<path fill-rule="evenodd" clip-rule="evenodd" fill="#1D1D1B" d="M38.54,24.5L27.375,13.334
				c-0.567,1.399-1.048,2.936-1.429,4.584l6.702,6.701H14.675c-0.338,1.637-0.338,3.145,0,4.781h17.976l-6.695,6.695
				c0.383,1.643,0.863,3.174,1.431,4.57L38.54,29.512C39.925,28.128,39.925,25.883,38.54,24.5z"/>
		</g>
	</g>
</g>
<g id="Layer_5" display="none">
	<path display="inline" opacity="0.3" fill-rule="evenodd" clip-rule="evenodd" fill="#E30613" d="M-0.899,0v54h54V0H-0.899z
		 M46.101,47h-40V7h40V47z"/>
</g>
<g id="name" display="none">
	<text transform="matrix(1 0 0 1 4.53 50.4886)" display="inline" fill="#646363" font-family="'UniversLTStd-Cn'" font-size="8">forward</text>
</g>
<g id="Title" display="none">
</g>
</svg>
