<?xml version="1.0" encoding="utf-8"?>
<!-- Generator: Adobe Illustrator 18.0.0, SVG Export Plug-In . SVG Version: 6.00 Build 0)  -->
<!DOCTYPE svg PUBLIC "-//W3C//DTD SVG 1.1//EN" "http://www.w3.org/Graphics/SVG/1.1/DTD/svg11.dtd">
<svg version="1.1" xmlns="http://www.w3.org/2000/svg" xmlns:xlink="http://www.w3.org/1999/xlink" x="0px" y="0px" width="54px"
	 height="54px" viewBox="0 0 54 54" enable-background="new 0 0 54 54" xml:space="preserve">
<g id="Layer_40" display="none">
	<rect x="-570.333" y="-230" display="inline" fill="#464445" width="691.333" height="784"/>
</g>
<g id="Layer_6">
	<rect opacity="0.3" fill-rule="evenodd" clip-rule="evenodd" fill="#FF0000" width="54" height="54"/>
</g>
<g id="Dark">
	<path fill-rule="evenodd" clip-rule="evenodd" fill="#1D1D1B" d="M41.381,28.588c-0.114-3.12-2.672-5.615-5.818-5.615h-7.156
		v-8.975h-2.752v8.975H18.42c-3.22,0-5.829,2.61-5.829,5.83c0,0.105,0.009,0.208,0.015,0.311v7.989c0,1.602,1.299,2.9,2.9,2.9
		c1.603,0,2.901-1.298,2.901-2.9v-2.47c0.005,0,0.009,0,0.013,0h17.143c0.016,0,0.031-0.003,0.047-0.003v2.473
		c0,1.602,1.299,2.9,2.9,2.9c1.602,0,2.9-1.298,2.9-2.9v-8.122C41.41,28.847,41.398,28.716,41.381,28.588z M18.732,31.717
		c-1.426,0-2.58-1.157-2.58-2.58c0-1.427,1.154-2.581,2.58-2.581c1.424,0,2.58,1.155,2.58,2.581
		C21.312,30.561,20.156,31.717,18.732,31.717z M33.178,30.069c-0.516,0-0.934-0.419-0.934-0.936c0-0.516,0.418-0.935,0.934-0.935
		c0.519,0,0.938,0.419,0.938,0.935C34.115,29.65,33.696,30.069,33.178,30.069z M35.242,32.133c-0.515,0-0.936-0.417-0.936-0.936
		c0-0.515,0.421-0.934,0.936-0.934c0.517,0,0.935,0.419,0.935,0.934C36.177,31.716,35.759,32.133,35.242,32.133z M35.242,28.004
		c-0.515,0-0.936-0.418-0.936-0.935s0.421-0.935,0.936-0.935c0.517,0,0.935,0.419,0.935,0.935S35.759,28.004,35.242,28.004z
		 M37.307,30.069c-0.517,0-0.935-0.419-0.935-0.936c0-0.516,0.419-0.935,0.935-0.935c0.516,0,0.934,0.419,0.934,0.935
		C38.24,29.65,37.822,30.069,37.307,30.069z"/>
</g>
<g id="Layer_5" display="none">
	<path display="inline" opacity="0.3" fill-rule="evenodd" clip-rule="evenodd" fill="#E30613" d="M0,0v54h54V0H0z M47,47H7V7h40V47
		z"/>
</g>
<g id="name" display="none">
	<text transform="matrix(1 0 0 1 6.4567 50.3363)" display="inline" fill="#646363" font-family="'UniversLTStd-Cn'" font-size="8">game</text>
</g>
<g id="Title" display="none">
</g>
</svg>
