<?xml version="1.0" encoding="utf-8"?>
<!-- Generator: Adobe Illustrator 18.0.0, SVG Export Plug-In . SVG Version: 6.00 Build 0)  -->
<!DOCTYPE svg PUBLIC "-//W3C//DTD SVG 1.1//EN" "http://www.w3.org/Graphics/SVG/1.1/DTD/svg11.dtd">
<svg version="1.1" xmlns="http://www.w3.org/2000/svg" xmlns:xlink="http://www.w3.org/1999/xlink" x="0px" y="0px" width="54px"
	 height="54px" viewBox="0 0 54 54" enable-background="new 0 0 54 54" xml:space="preserve">
<g id="Layer_40" display="none">
	<rect x="-274.333" y="-230" display="inline" fill="#464445" width="691.333" height="784"/>
</g>
<g id="Layer_6">
</g>
<g id="Dark">
	<g>
		<g>
			<path fill="#1D1D1B" d="M29.531,21.208c0.499-0.008,0.998-0.013,1.494,0.002c0.224,0.006,0.291-0.065,0.29-0.288
				c-0.013-1.08-0.001-2.161-0.01-3.242c-0.001-0.186,0.054-0.253,0.243-0.247c0.415,0.013,0.828,0.001,1.241,0.004
				c0.443,0.004,0.426-0.08,0.426,0.415c0,1.03,0,2.06-0.002,3.09c0,0.146,0,0.268,0.206,0.265c0.54-0.007,1.08,0.004,1.621-0.01
				c0.062-0.002,0.133-0.105,0.177-0.175c0.025-0.044,0.005-0.116,0.005-0.175c0-1.055-0.001-2.11,0-3.166
				c0.001-0.112-0.032-0.246,0.16-0.246c0.564,0.004,1.128,0.002,1.716,0.002c0.005,0.096,0.013,0.154,0.013,0.212
				c0,1.098,0.005,2.195-0.006,3.292c-0.002,0.217,0.067,0.272,0.273,0.267c0.497-0.013,0.995-0.012,1.495,0
				c0.207,0.005,0.273-0.059,0.272-0.272c-0.011-1.114-0.036-2.229,0.005-3.342c0.028-0.81-0.619-1.452-1.442-1.452
				c-2.729-0.002-5.456,0.001-8.182-0.004c-0.189,0-0.247,0.059-0.244,0.245c0.005,1.528,0.006,3.056-0.002,4.584
				C29.28,21.164,29.353,21.211,29.531,21.208z M22.434,18.214c-0.532,0.004-1.063,0.004-1.596-0.002
				c-0.173-0.003-0.236,0.055-0.234,0.234c0.014,0.844,0.022,1.688,0.02,2.533c0,0.185,0.074,0.228,0.241,0.228
				c2.087-0.004,4.172,0.003,6.258-0.005c0.755-0.003,1.324-0.591,1.327-1.34c0.003-0.76-0.023-1.521,0.008-2.28
				c0.032-0.748-0.547-1.425-1.383-1.433c-2.077-0.019-4.155-0.005-6.231-0.009c-0.149,0-0.217,0.047-0.217,0.202
				c0.001,0.268,0.002,0.541-0.022,0.809c-0.019,0.233,0.075,0.281,0.29,0.28c1.232-0.01,2.466-0.004,3.698-0.004
				c0.534,0,1.064,0,1.597,0c0.124-0.001,0.24-0.003,0.24,0.175c-0.003,0.717,0.004,1.435-0.009,2.153
				c-0.001,0.06-0.114,0.17-0.174,0.171c-1.181,0.01-2.363,0.007-3.596,0.007c0-0.521-0.005-1.007,0.003-1.496
				C22.657,18.27,22.595,18.213,22.434,18.214z M42.193,23.497H11.807c-0.552,0-1,0.447-1,0.999v12.367c0,0.552,0.447,1,1,1h30.386
				c0.554,0,1-0.448,1-1V24.497C43.193,23.944,42.747,23.497,42.193,23.497z M41.267,31.579c0,0.428-0.349,0.778-0.779,0.778H39.53
				c-0.234,0-0.454,0.105-0.602,0.284l-2.049,2.508c-0.148,0.181-0.369,0.287-0.602,0.287H17.684c-0.234,0-0.457-0.107-0.605-0.291
				l-2.011-2.499c-0.147-0.183-0.371-0.289-0.607-0.289h-0.948c-0.43,0-0.779-0.35-0.779-0.778v-5.953
				c0-0.43,0.349-0.778,0.779-0.778h26.975c0.43,0,0.779,0.349,0.779,0.778V31.579z M36.768,28.827H17.232
				c-0.213,0-0.387,0.174-0.387,0.388v1.065c0,0.215,0.173,0.387,0.387,0.387h19.536c0.215,0,0.388-0.171,0.388-0.387v-1.065
				C37.155,29.002,36.983,28.827,36.768,28.827z M12.144,21.207c0.515-0.005,1.03-0.001,1.545-0.003c0.34,0,0.339,0,0.338-0.331
				v-1.449h3.593c0.004,0.102,0.014,0.192,0.014,0.284c0.001,0.414,0.006,0.827-0.003,1.241c-0.003,0.177,0.042,0.262,0.239,0.259
				c0.549-0.009,1.098-0.008,1.646,0c0.178,0.003,0.233-0.059,0.232-0.235c-0.004-1.528-0.004-3.056,0-4.584
				c0.001-0.18-0.044-0.256-0.242-0.252c-0.539,0.012-1.08,0.012-1.62,0c-0.211-0.005-0.258,0.082-0.254,0.271
				c0.007,0.515-0.005,1.03,0.005,1.545c0.003,0.196-0.051,0.267-0.256,0.266c-1.04-0.008-2.078-0.007-3.117,0
				c-0.192,0.001-0.244-0.067-0.242-0.251c0.011-0.524-0.001-1.047,0.006-1.571c0.003-0.177-0.044-0.261-0.242-0.257
				c-0.549,0.01-1.097,0.007-1.646,0.001c-0.164-0.003-0.221,0.049-0.221,0.217c0.004,1.544,0.005,3.089,0,4.635
				C11.921,21.166,11.988,21.209,12.144,21.207z M40.201,21.208c0.549-0.006,1.098-0.007,1.645,0
				c0.175,0.003,0.234-0.055,0.232-0.234c-0.009-0.767-0.003-1.535-0.003-2.302c0-0.76-0.006-1.518,0.004-2.277
				c0.003-0.201-0.058-0.262-0.26-0.256c-0.523,0.013-1.046,0.013-1.568,0c-0.211-0.005-0.282,0.063-0.282,0.273
				c0.005,1.518,0.005,3.037,0,4.556C39.968,21.137,40.023,21.21,40.201,21.208z"/>
		</g>
	</g>
</g>
<g id="Layer_5" display="none">
	<path display="inline" opacity="0.3" fill-rule="evenodd" clip-rule="evenodd" fill="#E30613" d="M0,0v54h54V0H0z M47,47H7V7h40V47
		z"/>
</g>
<g id="name" display="none">
	<text transform="matrix(1 0 0 1 5.4294 50.3363)" display="inline" fill="#646363" font-family="'UniversLTStd-Cn'" font-size="8">hdmi</text>
</g>
<g id="Title" display="none">
</g>
</svg>
