<?xml version="1.0" encoding="utf-8"?>
<!-- Generator: Adobe Illustrator 18.0.0, SVG Export Plug-In . SVG Version: 6.00 Build 0)  -->
<!DOCTYPE svg PUBLIC "-//W3C//DTD SVG 1.1//EN" "http://www.w3.org/Graphics/SVG/1.1/DTD/svg11.dtd">
<svg version="1.1" xmlns="http://www.w3.org/2000/svg" xmlns:xlink="http://www.w3.org/1999/xlink" x="0px" y="0px" width="54px"
	 height="54px" viewBox="0 0 54 54" enable-background="new 0 0 54 54" xml:space="preserve">
<g id="Layer_40" display="none">
	<rect x="-274.333" y="-674" display="inline" fill="#464445" width="691.333" height="784"/>
</g>
<g id="Layer_6">
</g>
<g id="Dark">
	<g>
		<path fill="#1D1D1B" d="M34.425,18.582c0,6.208-7.424,5.396-7.424,11.24v2.23h-2.313v-2.394c0-6.814,7.263-6.005,7.263-10.954
			c0-2.474-1.826-4.017-4.666-4.017c-2.434,0-4.261,0.934-6.086,3.003l-1.624-1.298c2.192-2.516,4.626-3.734,7.832-3.734
			C31.909,12.657,34.425,15.418,34.425,18.582z M27.893,39.396c0,1.095-0.812,1.946-1.947,1.946s-1.947-0.851-1.947-1.946
			c0-1.056,0.812-1.907,1.947-1.907S27.893,38.34,27.893,39.396z"/>
	</g>
</g>
<g id="Layer_5" display="none">
	<path display="inline" opacity="0.3" fill-rule="evenodd" clip-rule="evenodd" fill="#E30613" d="M0,0v54h54V0H0z M47,47H7V7h40V47
		z"/>
</g>
<g id="name" display="none">
	<text transform="matrix(1 0 0 1 4.3136 51.1551)" display="inline" fill="#646363" font-family="'UniversLTStd-Cn'" font-size="8">help</text>
</g>
<g id="Title" display="none">
</g>
</svg>
