<?xml version="1.0" encoding="utf-8"?>
<!-- Generator: Adobe Illustrator 18.0.0, SVG Export Plug-In . SVG Version: 6.00 Build 0)  -->
<!DOCTYPE svg PUBLIC "-//W3C//DTD SVG 1.1//EN" "http://www.w3.org/Graphics/SVG/1.1/DTD/svg11.dtd">
<svg version="1.1" xmlns="http://www.w3.org/2000/svg" xmlns:xlink="http://www.w3.org/1999/xlink" x="0px" y="0px" width="54px"
	 height="54px" viewBox="0 0 54 54" enable-background="new 0 0 54 54" xml:space="preserve">
<g id="Layer_40" display="none">
	<rect x="-348.333" y="-452" display="inline" fill="#464445" width="691.333" height="784"/>
</g>
<g id="Layer_6">
</g>
<g id="Dark">
	<g>
		<g>
			<path fill-rule="evenodd" clip-rule="evenodd" fill="#1D1D1B" d="M27.557,19.535l-9.028,8.469
				c-0.001,0.026-0.007,0.05-0.007,0.076v10.34c0,1.119,0.935,2.071,2.088,2.071h4.028c-0.188-0.238-0.305-0.534-0.305-0.86v-7.936
				c0-0.769,0.623-1.393,1.392-1.393h3.756c0.769,0,1.392,0.624,1.392,1.393v7.936c0,0.326-0.117,0.623-0.305,0.86h4.044
				c1.153,0,2.088-0.952,2.088-2.071v-10.34c0-0.014-0.004-0.027-0.004-0.041L27.557,19.535z M40.929,25.98L29.117,14.352
				c-0.815-0.791-2.137-0.791-2.953,0L14.352,25.98c-0.418,0.406-0.618,0.94-0.608,1.472c0.013,0,0.024-0.003,0.037-0.003h2.553
				l9.863-9.18l-0.035-0.032l0.651-0.541l0.895-0.833l1.373,1.243l-0.033,0.031l9.832,9.312h2.658
				C41.547,26.919,41.347,26.385,40.929,25.98z"/>
		</g>
	</g>
</g>
<g id="Layer_5" display="none">
	<path display="inline" opacity="0.3" fill-rule="evenodd" clip-rule="evenodd" fill="#E30613" d="M0,0v54h54V0H0z M47,47H7V7h40V47
		z"/>
</g>
<g id="name" display="none">
	<text transform="matrix(1 0 0 1 5.4294 50.4886)" display="inline" fill="#646363" font-family="'UniversLTStd-Cn'" font-size="8">home</text>
</g>
<g id="Title" display="none">
</g>
</svg>
