<?xml version="1.0" encoding="utf-8"?>
<!-- Generator: Adobe Illustrator 18.0.0, SVG Export Plug-In . SVG Version: 6.00 Build 0)  -->
<!DOCTYPE svg PUBLIC "-//W3C//DTD SVG 1.1//EN" "http://www.w3.org/Graphics/SVG/1.1/DTD/svg11.dtd">
<svg version="1.1" xmlns="http://www.w3.org/2000/svg" xmlns:xlink="http://www.w3.org/1999/xlink" x="0px" y="0px" width="54px"
	 height="54px" viewBox="0 0 54 54" enable-background="new 0 0 54 54" xml:space="preserve">
<g id="Layer_40" display="none">
	<rect x="-126.333" y="-304" display="inline" fill="#464445" width="691.333" height="784"/>
</g>
<g id="Layer_6">
	<rect opacity="0.3" fill-rule="evenodd" clip-rule="evenodd" fill="#FF0000" width="54" height="54"/>
</g>
<g id="Dark">
	<g>
		<g>
			<path fill-rule="evenodd" clip-rule="evenodd" fill="#1D1D1B" d="M41.097,17.611H12.903c-1.201,0-2.173,0.974-2.173,2.174V34.35
				c0,1.126,0.973,2.039,2.173,2.039h28.194c1.201,0,2.173-0.913,2.173-2.039V19.785C43.27,18.585,42.297,17.611,41.097,17.611z
				 M37.033,20.529c-0.025,0.591-0.089,1.442-0.182,1.929l-0.011,0.009c-0.052,0.226-0.244,0.397-0.485,0.397v0.001h-1.232
				l-0.001-0.001c-0.241,0-0.434-0.172-0.484-0.397l-0.011-0.009c-0.092-0.487-0.158-1.338-0.182-1.929H37.033z M33.773,20.529
				c-0.026,0.591-0.09,1.442-0.183,1.929l-0.011,0.009c-0.051,0.226-0.244,0.397-0.484,0.397l-0.001,0.001h-1.232v-0.001
				c-0.242,0-0.433-0.172-0.485-0.397l-0.011-0.009c-0.093-0.487-0.157-1.338-0.183-1.929H33.773z M27.252,27.155
				c-0.025,0.59-0.089,1.382-0.183,1.869l-0.011,0.009c-0.052,0.225-0.244,0.397-0.484,0.398H25.34
				c-0.241-0.001-0.433-0.173-0.483-0.398l-0.012-0.009c-0.093-0.487-0.158-1.278-0.182-1.869H27.252z M24.254,26.171
				c-0.241-0.001-0.434-0.172-0.485-0.398l-0.011-0.009c-0.093-0.486-0.157-1.036-0.183-1.626h2.59
				c-0.026,0.591-0.09,1.14-0.183,1.626l-0.012,0.009c-0.051,0.226-0.243,0.397-0.483,0.398H24.254z M27.03,25.773l-0.011-0.009
				c-0.094-0.486-0.158-1.036-0.183-1.626h2.59c-0.025,0.591-0.09,1.14-0.183,1.626l-0.01,0.009
				c-0.051,0.226-0.244,0.397-0.484,0.398h-1.234C27.273,26.17,27.081,25.998,27.03,25.773z M30.512,27.155
				c-0.025,0.59-0.089,1.382-0.182,1.869l-0.011,0.009c-0.052,0.225-0.244,0.397-0.485,0.398h-1.234
				c-0.24-0.001-0.433-0.173-0.483-0.398l-0.013-0.009c-0.092-0.487-0.157-1.278-0.183-1.869H30.512z M30.29,25.773l-0.011-0.009
				c-0.093-0.486-0.157-1.036-0.183-1.626h2.591c-0.026,0.591-0.09,1.14-0.184,1.626l-0.012,0.009
				c-0.051,0.226-0.243,0.397-0.483,0.398h-1.233C30.533,26.17,30.341,25.998,30.29,25.773z M33.773,27.155
				c-0.026,0.59-0.09,1.382-0.183,1.869l-0.011,0.009c-0.051,0.225-0.244,0.397-0.484,0.398h-1.233
				c-0.242-0.001-0.433-0.173-0.485-0.398l-0.011-0.009c-0.093-0.487-0.157-1.278-0.183-1.869H33.773z M30.512,20.529
				c-0.025,0.591-0.089,1.442-0.182,1.929l-0.011,0.009c-0.052,0.226-0.244,0.397-0.485,0.397v0.001h-1.233l-0.001-0.001
				c-0.24,0-0.433-0.172-0.483-0.397l-0.013-0.009c-0.092-0.487-0.157-1.338-0.183-1.929H30.512z M27.252,20.529
				c-0.025,0.591-0.089,1.442-0.183,1.929l-0.011,0.009c-0.052,0.226-0.244,0.397-0.484,0.397l-0.001,0.001h-1.233l0-0.001
				c-0.241,0-0.433-0.172-0.483-0.397l-0.012-0.009c-0.093-0.487-0.158-1.338-0.182-1.929H27.252z M23.992,20.529
				c-0.025,0.591-0.089,1.442-0.182,1.929l-0.012,0.009c-0.051,0.226-0.243,0.397-0.483,0.397l-0.001,0.001h-1.233v-0.001
				c-0.241,0-0.433-0.172-0.485-0.397l-0.011-0.009c-0.093-0.487-0.157-1.338-0.182-1.929H23.992z M22.906,24.137
				c-0.025,0.591-0.09,1.14-0.183,1.626l-0.011,0.009c-0.052,0.226-0.244,0.397-0.484,0.398h-1.233
				c-0.242-0.001-0.434-0.172-0.485-0.398l-0.011-0.009c-0.093-0.486-0.157-1.036-0.183-1.626H22.906z M20.732,20.529
				c-0.026,0.591-0.09,1.442-0.183,1.929l-0.011,0.009c-0.052,0.226-0.244,0.397-0.485,0.397v0.001H18.82v-0.001
				c-0.241,0-0.433-0.172-0.484-0.397l-0.012-0.009c-0.093-0.487-0.157-1.338-0.183-1.929H20.732z M17.471,20.529
				c-0.025,0.591-0.089,1.442-0.182,1.929l-0.011,0.009c-0.052,0.226-0.244,0.397-0.485,0.397l0,0.001h-2.32v-0.001
				c-0.241,0-0.433-0.172-0.484-0.397l-0.011-0.009c-0.094-0.487-0.158-1.338-0.183-1.929H17.471z M19.645,24.137
				c-0.025,0.591-0.089,1.14-0.183,1.626l-0.011,0.009c-0.051,0.226-0.244,0.397-0.484,0.398h-4.494
				c-0.241-0.001-0.433-0.172-0.484-0.398l-0.011-0.009c-0.094-0.486-0.158-1.036-0.183-1.626H19.645z M17.471,27.155
				c-0.025,0.59-0.089,1.382-0.182,1.869l-0.011,0.009c-0.052,0.225-0.244,0.397-0.485,0.398h-2.32
				c-0.241-0.001-0.433-0.173-0.484-0.398l-0.011-0.009c-0.094-0.487-0.158-1.278-0.183-1.869H17.471z M18.375,32.284l-0.011,0.009
				c-0.051,0.225-0.244,0.396-0.485,0.396l-0.001,0.001h-3.406V32.69c-0.241,0-0.433-0.171-0.484-0.396l-0.011-0.009
				c-0.094-0.486-0.158-1.037-0.183-1.627h4.763C18.533,31.248,18.468,31.798,18.375,32.284z M18.336,29.033l-0.012-0.009
				c-0.093-0.487-0.157-1.278-0.183-1.869h2.591c-0.026,0.59-0.09,1.382-0.183,1.869l-0.011,0.009
				c-0.052,0.225-0.244,0.397-0.485,0.398H18.82C18.58,29.43,18.388,29.258,18.336,29.033z M21.636,32.284l-0.012,0.009
				c-0.051,0.225-0.243,0.396-0.484,0.396l-0.001,0.001h-1.232l-0.001-0.001c-0.241,0-0.433-0.171-0.484-0.396l-0.011-0.009
				c-0.093-0.486-0.158-1.037-0.183-1.627h2.59C21.794,31.248,21.729,31.798,21.636,32.284z M21.596,29.033l-0.011-0.009
				c-0.093-0.487-0.157-1.278-0.182-1.869h2.589c-0.025,0.59-0.089,1.382-0.182,1.869l-0.012,0.009
				c-0.051,0.225-0.243,0.397-0.483,0.398h-1.234C21.84,29.43,21.648,29.258,21.596,29.033z M35.764,32.284l-0.012,0.009
				c-0.051,0.225-0.243,0.396-0.483,0.396l-0.001,0.001h-12.1l-0.001-0.001c-0.241,0-0.433-0.171-0.484-0.396l-0.011-0.009
				c-0.093-0.486-0.158-1.037-0.183-1.627h13.456C35.922,31.248,35.856,31.798,35.764,32.284z M40.11,32.284l-0.011,0.009
				c-0.051,0.225-0.244,0.396-0.484,0.396l-0.001,0.001h-2.318l-0.001-0.001c-0.241,0-0.432-0.171-0.484-0.396l-0.011-0.009
				c-0.093-0.486-0.156-1.037-0.183-1.627h3.677C40.268,31.248,40.203,31.798,40.11,32.284z M40.11,29.024l-0.011,0.009
				c-0.051,0.225-0.244,0.397-0.484,0.398h-4.494c-0.241-0.001-0.434-0.173-0.484-0.398l-0.011-0.009
				c-0.092-0.487-0.158-1.278-0.182-1.869h5.85C40.268,27.746,40.203,28.537,40.11,29.024z M40.11,25.764l-0.011,0.009
				c-0.051,0.226-0.244,0.397-0.484,0.398h-5.581c-0.24-0.001-0.433-0.172-0.483-0.398l-0.012-0.009
				c-0.092-0.486-0.157-1.036-0.182-1.626h6.938C40.268,24.728,40.203,25.277,40.11,25.764z M40.11,22.458l-0.011,0.009
				c-0.051,0.226-0.244,0.397-0.484,0.397l-0.001,0.001h-1.232l-0.001-0.001c-0.24,0-0.433-0.172-0.484-0.397l-0.01-0.009
				c-0.093-0.487-0.158-1.338-0.183-1.929h2.59C40.268,21.12,40.203,21.972,40.11,22.458z"/>
		</g>
	</g>
</g>
<g id="Layer_5" display="none">
	<path display="inline" opacity="0.3" fill-rule="evenodd" clip-rule="evenodd" fill="#E30613" d="M0,0v54h54V0H0z M47,47H7V7h40V47
		z"/>
</g>
<g id="name" display="none">
	<text transform="matrix(1 0 0 1 4.6667 50.4886)" display="inline" fill="#646363" font-family="'UniversLTStd-Cn'" font-size="8">keyboard</text>
</g>
<g id="Title" display="none">
</g>
</svg>
