<?xml version="1.0" encoding="utf-8"?>
<!-- Generator: Adobe Illustrator 18.0.0, SVG Export Plug-In . SVG Version: 6.00 Build 0)  -->
<!DOCTYPE svg PUBLIC "-//W3C//DTD SVG 1.1//EN" "http://www.w3.org/Graphics/SVG/1.1/DTD/svg11.dtd">
<svg version="1.1" xmlns="http://www.w3.org/2000/svg" xmlns:xlink="http://www.w3.org/1999/xlink" x="0px" y="0px" width="54px"
	 height="54px" viewBox="0 0 54 54" enable-background="new 0 0 54 54" xml:space="preserve">
<g id="Layer_40" display="none">
	<rect x="-200.333" y="-156" display="inline" fill="#464445" width="691.333" height="784"/>
</g>
<g id="Layer_6">
	<rect opacity="0.3" fill-rule="evenodd" clip-rule="evenodd" fill="#FF0000" width="54" height="54"/>
</g>
<g id="Dark">
	<g>
		<g>
			<path fill="#1D1D1B" d="M33.881,22.756C32.614,16.798,28.898,10.791,27,10.791c-1.899,0-5.615,6.007-6.881,11.965l-4.271,4.093
				v10.686h2.977l4.153-3.977c0.424,0.425,0.892,0.785,1.393,1.07h5.254c0.503-0.283,0.975-0.643,1.401-1.07l4.148,3.977h2.979
				V26.849L33.881,22.756z M27.062,20.75c-0.918,0-1.797,0.088-2.618,0.242c0.726-2.141,1.895-3.935,2.561-3.935
				c0.662,0,1.826,1.781,2.551,3.911C28.771,20.828,27.933,20.75,27.062,20.75z M28.088,36.051c0.155,0.371,0.247,0.819,0.247,1.307
				c0,1.255-1.017,2.272-1.357,2.272c-0.338,0-1.355-1.018-1.355-2.272c0-0.488,0.091-0.935,0.246-1.307H24.3
				c-0.185,0.651-0.288,1.379-0.288,2.147c0,2.768,2.241,5.012,2.988,5.012c0.747,0,2.989-2.244,2.988-5.011
				c0-0.77-0.106-1.496-0.288-2.149L28.088,36.051z"/>
		</g>
	</g>
</g>
<g id="Layer_5" display="none">
	<path display="inline" opacity="0.3" fill-rule="evenodd" clip-rule="evenodd" fill="#E30613" d="M0,0v54h54V0H0z M47,47H7V7h40V47
		z"/>
</g>
<g id="name" display="none">
	<text transform="matrix(1 0 0 1 5.4294 50.4398)" display="inline" fill="#646363" font-family="'UniversLTStd-Cn'" font-size="8">launch</text>
</g>
<g id="Title" display="none">
</g>
</svg>
