<?xml version="1.0" encoding="utf-8"?>
<!-- Generator: Adobe Illustrator 18.0.0, SVG Export Plug-In . SVG Version: 6.00 Build 0)  -->
<!DOCTYPE svg PUBLIC "-//W3C//DTD SVG 1.1//EN" "http://www.w3.org/Graphics/SVG/1.1/DTD/svg11.dtd">
<svg version="1.1" xmlns="http://www.w3.org/2000/svg" xmlns:xlink="http://www.w3.org/1999/xlink" x="0px" y="0px" width="54px"
	 height="54px" viewBox="0 0 54 54" enable-background="new 0 0 54 54" xml:space="preserve">
<g id="Layer_40" display="none">
	<rect x="-496.333" y="-304" display="inline" fill="#464445" width="691.333" height="784"/>
</g>
<g id="Layer_6">
</g>
<g id="Dark">
	<g>
		<g>
			<path fill="#1D1D1B" d="M25.225,32.847c-0.205,0.238-0.416,0.521-0.666,0.766c-0.881,0.859-1.7,1.804-2.676,2.536
				c-1.926,1.443-4.369,0.441-4.664-1.855c-0.137-1.062,0.308-1.96,1.033-2.699c1.725-1.757,3.453-3.512,5.224-5.225
				c1.319-1.276,2.983-1.304,4.395-0.16c0.786,0.637,1.628,0.582,2.283-0.15c0.562-0.628,0.487-1.539-0.181-2.202
				c-2.215-2.194-6.065-2.216-8.516,0.07c-2.012,1.879-3.961,3.836-5.834,5.855c-2.307,2.487-2.094,6.452,0.354,8.66
				c2.419,2.186,6.093,2.038,8.598-0.377c1.422-1.37,2.801-2.785,4.195-4.182c0.085-0.084,0.139-0.195,0.236-0.333
				C27.664,33.727,26.465,33.486,25.225,32.847z M38.646,16.193c-2.185-2.674-6.292-2.939-8.942-0.503
				c-1.568,1.438-3.033,2.988-4.543,4.491c-0.062,0.062-0.098,0.148-0.175,0.271c1.343-0.198,2.544,0.055,3.725,0.677
				c0.829-0.833,1.617-1.648,2.43-2.435c0.395-0.378,0.799-0.765,1.262-1.042c1.896-1.136,4.111-0.117,4.385,2.03
				c0.148,1.146-0.376,2.087-1.167,2.885c-0.907,0.917-1.818,1.832-2.739,2.735c-0.904,0.89-1.773,1.83-2.754,2.63
				c-1.188,0.971-2.729,0.888-3.881-0.06c-0.84-0.69-1.785-0.671-2.386,0.045c-0.616,0.734-0.489,1.648,0.334,2.373
				c2.331,2.06,6.062,1.971,8.387-0.258c1.878-1.798,3.722-3.633,5.526-5.503C40.408,22.147,40.611,18.599,38.646,16.193z"/>
		</g>
	</g>
</g>
<g id="Layer_5" display="none">
	<path display="inline" opacity="0.3" fill-rule="evenodd" clip-rule="evenodd" fill="#E30613" d="M0,0v54h54V0H0z M47,47H7V7h40V47
		z"/>
</g>
<g id="name" display="none">
	<text transform="matrix(1 0 0 1 5.4294 50.4886)" display="inline" fill="#646363" font-family="'UniversLTStd-Cn'" font-size="8">link</text>
</g>
<g id="Title" display="none">
</g>
</svg>
