<?xml version="1.0" encoding="utf-8"?>
<!-- Generator: Adobe Illustrator 18.0.0, SVG Export Plug-In . SVG Version: 6.00 Build 0)  -->
<!DOCTYPE svg PUBLIC "-//W3C//DTD SVG 1.1//EN" "http://www.w3.org/Graphics/SVG/1.1/DTD/svg11.dtd">
<svg version="1.1" xmlns="http://www.w3.org/2000/svg" xmlns:xlink="http://www.w3.org/1999/xlink" x="0px" y="0px" width="54px"
	 height="54px" viewBox="0 0 54 54" enable-background="new 0 0 54 54" xml:space="preserve">
<g id="Layer_40" display="none">
	<rect x="-200.333" y="-378" display="inline" fill="#464445" width="691.333" height="784"/>
</g>
<g id="Layer_6">
</g>
<g id="Dark">
	<g>
		<g>
			<path fill-rule="evenodd" clip-rule="evenodd" fill="#1D1D1B" d="M9.253,23.667c-1.841,0-3.333,1.492-3.333,3.333
				c0,1.84,1.492,3.331,3.333,3.331s3.333-1.491,3.333-3.331C12.586,25.159,11.094,23.667,9.253,23.667z M27,23.667
				c-1.841,0-3.333,1.492-3.333,3.333c0,1.84,1.492,3.331,3.333,3.331c1.84,0,3.332-1.491,3.332-3.331
				C30.332,25.159,28.84,23.667,27,23.667z M44.746,23.667c-1.841,0-3.333,1.492-3.333,3.333c0,1.84,1.492,3.331,3.333,3.331
				c1.841,0,3.333-1.491,3.333-3.331C48.079,25.159,46.587,23.667,44.746,23.667z"/>
		</g>
	</g>
</g>
<g id="Layer_5" display="none">
	<path display="inline" opacity="0.3" fill-rule="evenodd" clip-rule="evenodd" fill="#E30613" d="M0,0v54h54V0H0z M47,47H7V7h40V47
		z"/>
</g>
<g id="name" display="none">
	<text transform="matrix(1 0 0 1 5.4294 50.4886)" display="inline" fill="#646363" font-family="'UniversLTStd-Cn'" font-size="8">menu</text>
</g>
<g id="Title" display="none">
</g>
</svg>
