<?xml version="1.0" encoding="utf-8"?>
<!-- Generator: Adobe Illustrator 18.0.0, SVG Export Plug-In . SVG Version: 6.00 Build 0)  -->
<!DOCTYPE svg PUBLIC "-//W3C//DTD SVG 1.1//EN" "http://www.w3.org/Graphics/SVG/1.1/DTD/svg11.dtd">
<svg version="1.1" xmlns="http://www.w3.org/2000/svg" xmlns:xlink="http://www.w3.org/1999/xlink" x="0px" y="0px" width="54px"
	 height="54px" viewBox="0 0 54 54" enable-background="new 0 0 54 54" xml:space="preserve">
<g id="Layer_40" display="none">
	<rect x="-497.232" y="-674" display="inline" fill="#464445" width="691.333" height="784"/>
</g>
<g id="Layer_6">
</g>
<g id="Dark">
	<path fill-rule="evenodd" clip-rule="evenodd" fill="#1D1D1B" d="M28.592,36.769v3.453h2.4v0.8h-2.4h-3.2h-2.4v-0.8h2.4v-3.475
		c-3.319-0.745-5.595-3.713-5.595-7.268v-7.057c0.501-0.344,1.03-0.649,1.58-0.92v7.972h0c0,0.001,0,0.002,0,0.002
		c0,3.164,2.437,5.904,5.66,5.904c3.223,0,5.585-2.74,5.585-5.904c0-0.125-0.027-0.243-0.034-0.366l0.002-7.659
		c0.561,0.27,1.102,0.57,1.612,0.916v7.112C34.202,33.064,31.945,36.057,28.592,36.769z M27.038,33.821
		c-2.372,0-4.045-1.669-4.045-3.999v-12.8c0-2.329,1.673-4.043,4.045-4.043c2.373,0,3.955,1.714,3.955,4.043v12.8
		C30.992,32.151,29.41,33.821,27.038,33.821z"/>
</g>
<g id="Layer_5" display="none">
	<path display="inline" opacity="0.3" fill-rule="evenodd" clip-rule="evenodd" fill="#E30613" d="M0,0v54h54V0H0z M47,47H7V7h40V47
		z"/>
</g>
<g id="name" display="none">
	<text transform="matrix(1 0 0 1 4.3136 51.1551)" display="inline" fill="#646363" font-family="'UniversLTStd-Cn'" font-size="8">mute</text>
</g>
<g id="Title" display="none">
</g>
</svg>
