<?xml version="1.0" encoding="utf-8"?>
<!-- Generator: Adobe Illustrator 18.0.0, SVG Export Plug-In . SVG Version: 6.00 Build 0)  -->
<!DOCTYPE svg PUBLIC "-//W3C//DTD SVG 1.1//EN" "http://www.w3.org/Graphics/SVG/1.1/DTD/svg11.dtd">
<svg version="1.1" xmlns="http://www.w3.org/2000/svg" xmlns:xlink="http://www.w3.org/1999/xlink" x="0px" y="0px" width="54px"
	 height="54px" viewBox="0 0 54 54" enable-background="new 0 0 54 54" xml:space="preserve">
<g id="Layer_40" display="none">
	<rect x="-126.333" y="-526" display="inline" fill="#464445" width="691.333" height="784"/>
</g>
<g id="Layer_6">
</g>
<g id="Dark">
	<g>
		<g>
			<path fill-rule="evenodd" clip-rule="evenodd" fill="#1D1D1B" d="M36.783,16.15H17.217c-0.773,0-1.4,0.626-1.4,1.399v1.422
				c0,0.773,0.627,1.4,1.4,1.4h19.566c0.773,0,1.4-0.627,1.4-1.4V17.55C38.183,16.776,37.557,16.15,36.783,16.15z M36.783,24.594
				H17.217c-0.773,0-1.4,0.627-1.4,1.4v1.378c0,0.773,0.627,1.399,1.4,1.399h19.566c0.773,0,1.4-0.626,1.4-1.399v-1.378
				C38.183,25.221,37.557,24.594,36.783,24.594z M36.783,33.672H17.217c-0.773,0-1.4,0.627-1.4,1.4v1.378
				c0,0.773,0.627,1.399,1.4,1.399h19.566c0.773,0,1.4-0.626,1.4-1.399v-1.378C38.183,34.299,37.557,33.672,36.783,33.672z"/>
		</g>
	</g>
</g>
<g id="Layer_5" display="none">
	<path display="inline" opacity="0.3" fill-rule="evenodd" clip-rule="evenodd" fill="#E30613" d="M0,0v54h54V0H0z M47,47H7V7h40V47
		z"/>
</g>
<g id="name" display="none">
	<text transform="matrix(1 0 0 1 4.6667 51.1551)" display="inline" fill="#646363" font-family="'UniversLTStd-Cn'" font-size="8">more</text>
</g>
<g id="Title" display="none">
</g>
</svg>
