<?xml version="1.0" encoding="utf-8"?>
<!-- Generator: Adobe Illustrator 18.0.0, SVG Export Plug-In . SVG Version: 6.00 Build 0)  -->
<!DOCTYPE svg PUBLIC "-//W3C//DTD SVG 1.1//EN" "http://www.w3.org/Graphics/SVG/1.1/DTD/svg11.dtd">
<svg version="1.1" xmlns="http://www.w3.org/2000/svg" xmlns:xlink="http://www.w3.org/1999/xlink" x="0px" y="0px" width="54px"
	 height="54px" viewBox="0 0 54 54" enable-background="new 0 0 54 54" xml:space="preserve">
<g id="Layer_40" display="none">
	<rect x="-274.333" y="-304" display="inline" fill="#464445" width="691.333" height="784"/>
</g>
<g id="Layer_6">
	<rect opacity="0.3" fill-rule="evenodd" clip-rule="evenodd" fill="#FF0000" width="54" height="54"/>
</g>
<g id="Dark">
	<path fill-rule="evenodd" clip-rule="evenodd" fill="#1D1D1B" d="M28.465,15.78v-5.065h-2.906v5.06
		c-3.714,0.679-6.53,3.929-6.53,7.839v11.7c0,4.402,3.569,7.971,7.971,7.971c4.402,0,7.971-3.569,7.971-7.971v-11.7
		C34.971,19.712,32.167,16.468,28.465,15.78z M28.492,25.745h-2.953v-6.621h0.939v-3.342h1.055v3.342h0.959V25.745z"/>
</g>
<g id="Layer_5" display="none">
	<path display="inline" opacity="0.3" fill-rule="evenodd" clip-rule="evenodd" fill="#E30613" d="M0,0v54h54V0H0z M47,47H7V7h40V47
		z"/>
</g>
<g id="name" display="none">
	<text transform="matrix(1 0 0 1 5.4294 50.4886)" display="inline" fill="#646363" font-family="'UniversLTStd-Cn'" font-size="8">mouse</text>
</g>
<g id="Title" display="none">
</g>
</svg>
