<?xml version="1.0" encoding="utf-8"?>
<!-- Generator: Adobe Illustrator 18.0.0, SVG Export Plug-In . SVG Version: 6.00 Build 0)  -->
<!DOCTYPE svg PUBLIC "-//W3C//DTD SVG 1.1//EN" "http://www.w3.org/Graphics/SVG/1.1/DTD/svg11.dtd">
<svg version="1.1" xmlns="http://www.w3.org/2000/svg" xmlns:xlink="http://www.w3.org/1999/xlink" x="0px" y="0px" width="54px"
	 height="54px" viewBox="0 0 54 54" enable-background="new 0 0 54 54" xml:space="preserve">
<g id="Layer_40" display="none">
	<rect x="-200.333" y="-304" display="inline" fill="#464445" width="691.333" height="784"/>
</g>
<g id="Layer_6">
</g>
<g id="Dark">
	<g>
		<g>
			<path fill="#1D1D1B" d="M40.363,22.568c-0.583-1.193-1.531-1.898-2.867-1.902c-6.984-0.021-13.97-0.009-20.955-0.009
				c-1.363,0-3.075,1.13-3.062,3.072c0.031,4.603,0.016,9.208,0.006,13.812c-0.003,1.176,0.527,2.014,1.492,2.638
				c0.35,0.228,0.743,0.237,1.123,0.326h21.785c0.027-0.026,0.062-0.025,0.097-0.026c0.868-0.026,1.486-0.488,2.006-1.136
				c0.337-0.42,0.479-0.902,0.534-1.423V23.415C40.447,23.135,40.49,22.831,40.363,22.568z M17.146,27.058
				c-0.895-0.006-1.635-0.753-1.616-1.631c0.02-0.885,0.748-1.596,1.629-1.592c0.895,0.003,1.625,0.742,1.616,1.631
				C18.765,26.343,18.028,27.064,17.146,27.058z M38.453,37.086c0,0.148-0.009,0.299-0.032,0.445
				c-0.075,0.488-0.373,0.791-0.856,0.871c-0.129,0.022-0.262,0.034-0.393,0.034c-4.694,0.001-9.389,0-14.082,0.001
				c-0.497,0-0.922-0.122-1.16-0.612c-0.08-0.164-0.092-0.337-0.092-0.514c0-4.448-0.002-8.896,0.001-13.344
				c0.001-0.715,0.432-1.124,1.172-1.125c2.373-0.003,4.746,0,7.12-0.001h7.014c0.913,0,1.31,0.394,1.31,1.296
				C38.455,28.455,38.455,32.771,38.453,37.086z M36.308,23.89c-0.65-0.004-1.3-0.004-1.95,0c-0.669,0.004-1.109,0.432-1.11,1.107
				c-0.004,3.768-0.004,7.538,0,11.306c0.001,0.654,0.453,1.086,1.103,1.089c0.615,0.004,1.23,0.001,1.845,0.001
				c0.811,0,1.213-0.402,1.213-1.214c0.001-1.845,0-3.69,0-5.535c0-1.88,0.002-3.76-0.001-5.64
				C37.407,24.331,36.973,23.893,36.308,23.89z M35.316,27c-0.559-0.005-1.016-0.465-1.018-1.025
				c-0.003-0.573,0.457-1.035,1.032-1.034c0.588,0.001,1.029,0.443,1.026,1.032C36.352,26.547,35.891,27.004,35.316,27z
				 M37.014,19.724c1.261-0.003,2.372,0.329,3.293,1.214c0.033,0.054,0.065,0.106,0.17,0.119c-0.047-0.082-0.076-0.132-0.104-0.183
				l0,0c0,0,0,0,0,0c-0.392-0.873-0.777-1.749-1.179-2.617c-0.504-1.093-0.953-2.212-1.565-3.252
				c-0.527-0.896-1.242-1.509-2.361-1.508c-5.502,0.006-11.004,0.002-16.507,0.002c-0.71,0-1.318,0.231-1.819,0.752
				c-0.378,0.393-0.667,0.839-0.891,1.327c-0.665,1.454-1.32,2.913-1.978,4.37c-0.163,0.36-0.326,0.72-0.488,1.081
				c1.039-1.035,2.302-1.311,3.706-1.307C23.865,19.741,30.44,19.736,37.014,19.724z M31.105,23.889
				c-0.607-0.002-1.213-0.001-1.819,0c-0.834,0.001-1.222,0.389-1.222,1.227c-0.001,1.837,0,3.674,0,5.511v2.928
				c0,0.932-0.007,1.863,0.004,2.794c0.008,0.614,0.447,1.038,1.059,1.043c0.686,0.005,1.371,0.009,2.057,0
				c0.535-0.008,0.949-0.393,1.01-0.924c0.018-0.157,0.031-0.315,0.031-0.473c0.002-3.568,0.002-7.137,0-10.705
				c0-0.141-0.008-0.281-0.026-0.421C32.125,24.248,31.727,23.892,31.105,23.889z M30.129,27c-0.558-0.002-1.019-0.463-1.024-1.023
				c-0.003-0.581,0.448-1.037,1.028-1.037c0.577,0,1.054,0.467,1.044,1.027C31.169,26.537,30.696,27.002,30.129,27z M25.943,23.89
				c-0.588-0.005-1.177-0.001-1.766-0.002c-0.053,0-0.105,0-0.158,0.001c-0.734,0.003-1.162,0.424-1.163,1.164
				c-0.003,3.725-0.001,7.45-0.001,11.174c0,0.044,0,0.088,0.003,0.132c0.048,0.627,0.479,1.03,1.109,1.033
				c0.624,0.004,1.248,0.001,1.872,0.001c0.774-0.001,1.178-0.408,1.178-1.191V30.64c0-1.889,0.002-3.778-0.001-5.667
				C27.016,24.331,26.583,23.896,25.943,23.89z M24.922,27c-0.558-0.007-1.015-0.472-1.015-1.031c0-0.572,0.464-1.031,1.04-1.028
				c0.586,0.003,1.025,0.45,1.021,1.037C25.963,26.552,25.497,27.007,24.922,27z"/>
		</g>
	</g>
</g>
<g id="Layer_5" display="none">
	<path display="inline" opacity="0.3" fill-rule="evenodd" clip-rule="evenodd" fill="#E30613" d="M0,0v54h54V0H0z M47,47H7V7h40V47
		z"/>
</g>
<g id="name" display="none">
	<text transform="matrix(1 0 0 1 5.4294 50.4886)" display="inline" fill="#646363" font-family="'UniversLTStd-Cn'" font-size="8">nas</text>
</g>
<g id="Title" display="none">
</g>
</svg>
