<?xml version="1.0" encoding="utf-8"?>
<!-- Generator: Adobe Illustrator 18.0.0, SVG Export Plug-In . SVG Version: 6.00 Build 0)  -->
<!DOCTYPE svg PUBLIC "-//W3C//DTD SVG 1.1//EN" "http://www.w3.org/Graphics/SVG/1.1/DTD/svg11.dtd">
<svg version="1.1" xmlns="http://www.w3.org/2000/svg" xmlns:xlink="http://www.w3.org/1999/xlink" x="0px" y="0px" width="54px"
	 height="54px" viewBox="0 0 54 54" enable-background="new 0 0 54 54" xml:space="preserve">
<g id="Layer_40" display="none">
	<rect x="-496.333" y="-230" display="inline" fill="#464445" width="691.333" height="784"/>
</g>
<g id="Layer_6">
	<rect opacity="0.3" fill-rule="evenodd" clip-rule="evenodd" fill="#FF0000" width="54" height="54"/>
</g>
<g id="Dark">
	<g>
		<g>
			<path fill-rule="evenodd" clip-rule="evenodd" fill="#1D1D1B" d="M34.844,10.785h-15.13c-1.045,0-2.452,0.848-2.452,1.893v28.642
				c0,1.047,0.846,1.894,1.893,1.894h15.69c1.047,0,1.894-0.847,1.894-1.894V12.679C36.738,11.633,35.891,10.785,34.844,10.785z
				 M28.139,41.362c0,0.136-0.109,0.244-0.243,0.244h-1.899c-0.135,0-0.243-0.108-0.243-0.244v-1.949
				c0-0.135,0.108-0.245,0.243-0.245h1.899c0.134,0,0.243,0.11,0.243,0.245V41.362z M34.551,37.199c0,0.424-0.345,0.768-0.768,0.768
				H20.269c-0.423,0-0.767-0.344-0.767-0.768V14.505c0-0.424,0.345-0.768,0.767-0.768h13.514c0.423,0,0.768,0.344,0.768,0.768
				V37.199z"/>
		</g>
	</g>
</g>
<g id="Layer_5" display="none">
	<path display="inline" opacity="0.3" fill-rule="evenodd" clip-rule="evenodd" fill="#E30613" d="M0,0v54h54V0H0z M47,47H7V7h40V47
		z"/>
</g>
<g id="name" display="none">
	<text transform="matrix(1 0 0 1 5.4294 50.3363)" display="inline" fill="#646363" font-family="'UniversLTStd-Cn'" font-size="8">phone</text>
</g>
<g id="Title" display="none">
</g>
</svg>
