<?xml version="1.0" encoding="utf-8"?>
<!-- Generator: Adobe Illustrator 18.0.0, SVG Export Plug-In . SVG Version: 6.00 Build 0)  -->
<!DOCTYPE svg PUBLIC "-//W3C//DTD SVG 1.1//EN" "http://www.w3.org/Graphics/SVG/1.1/DTD/svg11.dtd">
<svg version="1.1" xmlns="http://www.w3.org/2000/svg" xmlns:xlink="http://www.w3.org/1999/xlink" x="0px" y="0px" width="54px"
	 height="54px" viewBox="0 0 54 54" enable-background="new 0 0 54 54" xml:space="preserve">
<g id="Layer_40" display="none">
	<rect x="-52.333" y="-674" display="inline" fill="#464445" width="691.333" height="784"/>
</g>
<g id="Layer_6">
</g>
<g id="Dark">
	<g>
		<g>
			<path fill-rule="evenodd" clip-rule="evenodd" fill="#1D1D1B" d="M19.806,25.72c1.82,0,3.295-1.48,3.295-3.306
				c0-1.826-1.475-3.306-3.295-3.306c-1.82,0-3.295,1.48-3.295,3.306C16.511,24.24,17.986,25.72,19.806,25.72z M40.735,12.521
				H13.221c-2.403,0-4.219,1.955-4.219,4.366V37.29c0,2.411,1.816,4.189,4.219,4.189h27.513c2.403,0,4.263-1.778,4.263-4.189V16.887
				C44.998,14.475,43.138,12.521,40.735,12.521z M42.165,37.208c0,0.804-0.649,1.455-1.451,1.455H13.241
				c-0.801,0-1.451-0.651-1.451-1.455V16.789c0-0.804,0.649-1.456,1.451-1.456h27.474c0.801,0,1.451,0.652,1.451,1.456V37.208z
				 M23.501,35.527h-1.828l3.475-3.641l-2.806-2.37l-7.192,6.95h24.356l-8.582-8.527L23.501,35.527z"/>
		</g>
	</g>
</g>
<g id="Layer_5" display="none">
	<path display="inline" opacity="0.3" fill-rule="evenodd" clip-rule="evenodd" fill="#E30613" d="M0,0v54h54V0H0z M47,47H7V7h40V47
		z"/>
</g>
<g id="name" display="none">
	<text transform="matrix(1 0 0 1 4.3136 51.1551)" display="inline" fill="#646363" font-family="'UniversLTStd-Cn'" font-size="8">picture</text>
</g>
<g id="Title" display="none">
</g>
</svg>
