<?xml version="1.0" encoding="utf-8"?>
<!-- Generator: Adobe Illustrator 18.0.0, SVG Export Plug-In . SVG Version: 6.00 Build 0)  -->
<!DOCTYPE svg PUBLIC "-//W3C//DTD SVG 1.1//EN" "http://www.w3.org/Graphics/SVG/1.1/DTD/svg11.dtd">
<svg version="1.1" xmlns="http://www.w3.org/2000/svg" xmlns:xlink="http://www.w3.org/1999/xlink" x="0px" y="0px" width="54px"
	 height="54px" viewBox="0 0 54 54" enable-background="new 0 0 54 54" xml:space="preserve">
<g id="Layer_40" display="none">
	<rect x="-126.333" y="-230" display="inline" fill="#464445" width="691.333" height="784"/>
</g>
<g id="Layer_6">
	<rect opacity="0.3" fill-rule="evenodd" clip-rule="evenodd" fill="#FF0000" width="54" height="54"/>
</g>
<g id="Dark">
	<g>
		<g>
			<path fill-rule="evenodd" clip-rule="evenodd" fill="#1D1D1B" d="M39.432,18.852l-6.061,6.062v-5.419
				c0-1.594-1.292-2.886-2.887-2.886H15.476c-1.595,0-2.887,1.293-2.887,2.886v15.009c0,1.594,1.292,2.886,2.887,2.886h15.009
				c1.594,0,2.887-1.292,2.887-2.886v-5.426l6.061,6.061c0.539,0.538,1.284,0.697,1.979,0.554V18.298
				C40.715,18.156,39.971,18.315,39.432,18.852z M23.023,31.248c-2.347,0-4.25-1.903-4.25-4.251c0-2.348,1.903-4.251,4.25-4.251
				c2.348,0,4.251,1.903,4.251,4.251C27.273,29.345,25.37,31.248,23.023,31.248z"/>
		</g>
	</g>
</g>
<g id="Layer_5" display="none">
	<path display="inline" opacity="0.3" fill-rule="evenodd" clip-rule="evenodd" fill="#E30613" d="M0,0v54h54V0H0z M47,47H7V7h40V47
		z"/>
</g>
<g id="name" display="none">
	<text transform="matrix(1 0 0 1 4.6667 50.3363)" display="inline" fill="#646363" font-family="'UniversLTStd-Cn'" font-size="8">record</text>
</g>
<g id="Title" display="none">
</g>
</svg>
