<?xml version="1.0" encoding="utf-8"?>
<!-- Generator: Adobe Illustrator 18.0.0, SVG Export Plug-In . SVG Version: 6.00 Build 0)  -->
<!DOCTYPE svg PUBLIC "-//W3C//DTD SVG 1.1//EN" "http://www.w3.org/Graphics/SVG/1.1/DTD/svg11.dtd">
<svg version="1.1" xmlns="http://www.w3.org/2000/svg" xmlns:xlink="http://www.w3.org/1999/xlink" x="0px" y="0px" width="54px"
	 height="54px" viewBox="0 0 54 54" enable-background="new 0 0 54 54" xml:space="preserve">
<g id="Layer_40" display="none">
	<rect x="-200.333" y="-230" display="inline" fill="#464445" width="691.333" height="784"/>
</g>
<g id="Layer_6">
</g>
<g id="Dark">
	<g>
		<g>
			<path fill-rule="evenodd" clip-rule="evenodd" fill="#1D1D1B" d="M27,38.273c-5.556,0-10.162-4.023-11.091-9.313
				c1.428-0.125,2.733-0.432,3.82-0.872l-4.293-4.293c-0.532-0.533-1.395-0.533-1.927,0l-4.289,4.29
				c1.011,0.411,2.219,0.698,3.533,0.839C13.695,35.96,19.706,41.392,27,41.392c3.976,0,7.574-1.612,10.178-4.218l-2.205-2.205
				C32.933,37.011,30.114,38.273,27,38.273z M41.247,25.079c-0.941-7.037-6.952-12.47-14.247-12.47
				c-3.975,0-7.574,1.612-10.178,4.218l2.205,2.205c2.04-2.042,4.859-3.305,7.974-3.305c5.557,0,10.163,4.024,11.092,9.314
				c-1.428,0.125-2.734,0.432-3.821,0.872l4.294,4.292c0.533,0.533,1.396,0.533,1.927,0l4.289-4.288
				C43.768,25.506,42.561,25.219,41.247,25.079z"/>
		</g>
	</g>
</g>
<g id="Layer_5" display="none">
	<path display="inline" opacity="0.3" fill-rule="evenodd" clip-rule="evenodd" fill="#E30613" d="M0,0v54h54V0H0z M47,47H7V7h40V47
		z"/>
</g>
<g id="name" display="none">
	<text transform="matrix(1 0 0 1 5.4294 50.3363)" display="inline" fill="#646363" font-family="'UniversLTStd-Cn'" font-size="8">refresh</text>
</g>
<g id="Title" display="none">
</g>
</svg>
