<?xml version="1.0" encoding="utf-8"?>
<!-- Generator: Adobe Illustrator 18.0.0, SVG Export Plug-In . SVG Version: 6.00 Build 0)  -->
<!DOCTYPE svg PUBLIC "-//W3C//DTD SVG 1.1//EN" "http://www.w3.org/Graphics/SVG/1.1/DTD/svg11.dtd">
<svg version="1.1" xmlns="http://www.w3.org/2000/svg" xmlns:xlink="http://www.w3.org/1999/xlink" x="0px" y="0px" width="54px"
	 height="54px" viewBox="0 0 54 54" enable-background="new 0 0 54 54" xml:space="preserve">
<g id="Layer_40" display="none">
	<rect x="-200.333" y="-82" display="inline" fill="#464445" width="691.333" height="784"/>
</g>
<g id="Layer_6">
</g>
<g id="Dark">
	<g>
		<g>
			<path fill="#1D1D1B" d="M38.418,24.263c-0.961-0.961-2.136-1.345-2.625-0.855c-0.001,0.001-0.001,0.002-0.002,0.003
				L24.032,35.187l3.467,3.472l-1.305,1.306l-3.283-3.655l0.028-0.029l-0.032,0.032l-0.001,0v3.656h3.284l13.08-13.081
				C39.759,26.399,39.377,25.223,38.418,24.263z M31.314,24.835v-9.752c0-0.58-0.471-1.05-1.052-1.05H15.571
				c-0.58,0-1.054,0.471-1.054,0.828v15.417c0,0.803,0.474,1.275,1.054,1.275h9.037L31.314,24.835z M21.217,18.936
				c-0.717,0-0.744,0.135-1.053,0.402c-0.439,0.376-0.571,0.996-0.684,1.686h-1.468V17.54h9.784v3.507h-1.339
				c-0.153-0.588-0.103-1.115-0.298-1.373c-0.194-0.257-0.322-0.462-0.677-0.613c-0.204-0.083-0.638-0.126-1.135-0.126h-0.444v6.635
				c0,0.479,0.03,0.779,0.09,0.9c0.062,0.118,0.178,0.224,0.354,0.314c0.174,0.091,0.458,0.136,0.761,0.136h0.594v1.125h-5.594
				v-1.125h0.354c0.308,0,0.78-0.049,0.969-0.146c0.134-0.065,0.307-0.176,0.385-0.332c0.06-0.11,0.087-0.402,0.087-0.872v-6.635
				H21.217z"/>
		</g>
	</g>
</g>
<g id="Layer_5" display="none">
	<path display="inline" opacity="0.3" fill-rule="evenodd" clip-rule="evenodd" fill="#E30613" d="M0,0v54h54V0H0z M47,47H7V7h40V47
		z"/>
</g>
<g id="name" display="none">
	<text transform="matrix(1 0 0 1 5.4294 50.2874)" display="inline" fill="#646363" font-family="'UniversLTStd-Cn'" font-size="8">rename</text>
</g>
<g id="Title" display="none">
</g>
</svg>
