<?xml version="1.0" encoding="utf-8"?>
<!-- Generator: Adobe Illustrator 18.0.0, SVG Export Plug-In . SVG Version: 6.00 Build 0)  -->
<!DOCTYPE svg PUBLIC "-//W3C//DTD SVG 1.1//EN" "http://www.w3.org/Graphics/SVG/1.1/DTD/svg11.dtd">
<svg version="1.1" xmlns="http://www.w3.org/2000/svg" xmlns:xlink="http://www.w3.org/1999/xlink" x="0px" y="0px" width="54px"
	 height="54px" viewBox="0 0 54 54" enable-background="new 0 0 54 54" xml:space="preserve">
<g id="Layer_40" display="none">
	<rect x="-274.333" y="-82" display="inline" fill="#464445" width="691.333" height="784"/>
</g>
<g id="Layer_6">
</g>
<g id="Dark">
	<g>
		<g>
			<path fill-rule="evenodd" clip-rule="evenodd" fill="#1D1D1B" d="M39.774,36.538l-5.462-5.461
				c1.128-1.731,1.789-3.793,1.789-6.012c0-6.096-4.943-11.036-11.037-11.036c-6.096,0-11.035,4.94-11.035,11.036
				c0,6.093,4.939,11.036,11.035,11.036c2.218,0,4.278-0.661,6.008-1.787l5.462,5.462c0.455,0.454,1.547,0.098,2.442-0.796
				C39.87,38.085,40.227,36.992,39.774,36.538z M25.065,32.271c-3.98,0-7.206-3.227-7.206-7.207c0-3.981,3.227-7.208,7.206-7.208
				c3.981,0,7.207,3.227,7.207,7.208C32.272,29.045,29.046,32.271,25.065,32.271z"/>
		</g>
	</g>
</g>
<g id="Layer_5" display="none">
	<path display="inline" opacity="0.3" fill-rule="evenodd" clip-rule="evenodd" fill="#E30613" d="M0,0v54h54V0H0z M47,47H7V7h40V47
		z"/>
</g>
<g id="name" display="none">
	<text transform="matrix(1 0 0 1 5.4294 50.2874)" display="inline" fill="#646363" font-family="'UniversLTStd-Cn'" font-size="8">search</text>
</g>
<g id="Title" display="none">
</g>
</svg>
