<?xml version="1.0" encoding="utf-8"?>
<!-- Generator: Adobe Illustrator 18.0.0, SVG Export Plug-In . SVG Version: 6.00 Build 0)  -->
<!DOCTYPE svg PUBLIC "-//W3C//DTD SVG 1.1//EN" "http://www.w3.org/Graphics/SVG/1.1/DTD/svg11.dtd">
<svg version="1.1" xmlns="http://www.w3.org/2000/svg" xmlns:xlink="http://www.w3.org/1999/xlink" x="0px" y="0px" width="54px"
	 height="54px" viewBox="0 0 54 54" enable-background="new 0 0 54 54" xml:space="preserve">
<g id="Layer_40" display="none">
	<rect x="-348.333" y="-82" display="inline" fill="#464445" width="691.333" height="784"/>
</g>
<g id="Layer_6">
</g>
<g id="Dark">
	<g>
		<g>
			<path fill-rule="evenodd" clip-rule="evenodd" fill="#1D1D1B" d="M37.922,27.001c0-1.298,0.422-2.498,1.022-2.708l0.965-0.338
				c-0.335-1.408-0.89-2.73-1.632-3.926l-0.916,0.441c-0.573,0.276-1.719-0.274-2.637-1.191c-0.918-0.918-1.467-2.065-1.19-2.638
				l0.439-0.914c-1.197-0.74-2.517-1.3-3.927-1.632l-0.337,0.962c-0.211,0.6-1.41,1.022-2.707,1.022s-2.496-0.422-2.707-1.022
				l-0.337-0.962c-1.41,0.332-2.729,0.894-3.924,1.635l0.438,0.911c0.276,0.573-0.274,1.72-1.191,2.638
				c-0.918,0.917-2.064,1.467-2.638,1.191l-0.911-0.438c-0.741,1.196-1.304,2.514-1.636,3.924l0.963,0.338
				c0.602,0.211,1.022,1.411,1.022,2.708c0,1.297-0.42,2.495-1.022,2.706l-0.964,0.338c0.335,1.408,0.89,2.731,1.633,3.927
				l0.915-0.44c0.574-0.275,1.72,0.273,2.638,1.19c0.917,0.918,1.468,2.064,1.191,2.638l-0.44,0.914
				c1.197,0.74,2.516,1.3,3.926,1.631l0.337-0.962c0.211-0.599,1.41-1.021,2.707-1.021s2.496,0.423,2.707,1.021l0.339,0.965
				c1.408-0.335,2.731-0.89,3.927-1.632l-0.44-0.916c-0.276-0.573,0.272-1.719,1.19-2.638c0.918-0.917,2.063-1.466,2.637-1.19
				l0.915,0.44c0.74-1.197,1.301-2.517,1.632-3.927l-0.963-0.338C38.344,29.496,37.922,28.298,37.922,27.001z M27,34
				c-3.867,0-7-3.134-7-7C20,23.133,23.133,20,27,20s7.002,3.134,7.002,7.001C34.002,30.867,30.867,34,27,34z"/>
		</g>
	</g>
</g>
<g id="Layer_5" display="none">
	<path display="inline" opacity="0.3" fill-rule="evenodd" clip-rule="evenodd" fill="#E30613" d="M0,0v54h54V0H0z M47,47H7V7h40V47
		z"/>
</g>
<g id="name" display="none">
	<text transform="matrix(1 0 0 1 5.2736 50.2874)" display="inline" fill="#646363" font-family="'UniversLTStd-Cn'" font-size="8">setting</text>
</g>
<g id="Title" display="none">
</g>
</svg>
