<?xml version="1.0" encoding="utf-8"?>
<!-- Generator: Adobe Illustrator 18.0.0, SVG Export Plug-In . SVG Version: 6.00 Build 0)  -->
<!DOCTYPE svg PUBLIC "-//W3C//DTD SVG 1.1//EN" "http://www.w3.org/Graphics/SVG/1.1/DTD/svg11.dtd">
<svg version="1.1" xmlns="http://www.w3.org/2000/svg" xmlns:xlink="http://www.w3.org/1999/xlink" x="0px" y="0px"
	 width="54.899px" height="54px" viewBox="0 0 54.899 54" enable-background="new 0 0 54.899 54" xml:space="preserve">
<g id="Layer_40" display="none">
	<rect x="-348.333" y="-378" display="inline" fill="#464445" width="691.333" height="784"/>
</g>
<g id="Layer_6">
</g>
<g id="Dark">
	<g>
		<g>
			<path fill-rule="evenodd" clip-rule="evenodd" fill="#1D1D1B" d="M41.315,23.636c-1.85,0-3.349,1.507-3.349,3.366
				c0,1.859,1.499,3.367,3.349,3.367c1.849,0,3.348-1.508,3.348-3.367C44.663,25.143,43.164,23.636,41.315,23.636z M27.011,23.632
				c-1.855,0-3.36,1.504-3.36,3.36c0,1.856,1.505,3.36,3.36,3.36c1.857,0,3.36-1.504,3.36-3.36
				C30.371,25.137,28.867,23.632,27.011,23.632z M12.702,23.636c-1.858,0-3.366,1.507-3.366,3.366c0,1.859,1.508,3.367,3.366,3.367
				c1.859,0,3.366-1.508,3.366-3.367C16.068,25.143,14.562,23.636,12.702,23.636z"/>
		</g>
	</g>
</g>
<g id="Layer_5" display="none">
	<path display="inline" opacity="0.3" fill-rule="evenodd" clip-rule="evenodd" fill="#E30613" d="M0,0v54h54V0H0z M47,47H7V7h40V47
		z"/>
</g>
<g id="name" display="none">
	<text transform="matrix(1 0 0 1 5.2736 50.4886)" display="inline" fill="#646363" font-family="'UniversLTStd-Cn'" font-size="8">sidebar-close</text>
</g>
<g id="Title" display="none">
</g>
</svg>
