<?xml version="1.0" encoding="utf-8"?>
<!-- Generator: Adobe Illustrator 18.0.0, SVG Export Plug-In . SVG Version: 6.00 Build 0)  -->
<!DOCTYPE svg PUBLIC "-//W3C//DTD SVG 1.1//EN" "http://www.w3.org/Graphics/SVG/1.1/DTD/svg11.dtd">
<svg version="1.1" xmlns="http://www.w3.org/2000/svg" xmlns:xlink="http://www.w3.org/1999/xlink" x="0px" y="0px" width="54px"
	 height="54px" viewBox="0 0 54 54" enable-background="new 0 0 54 54" xml:space="preserve">
<g id="Layer_40" display="none">
	<rect x="-274.333" y="-378" display="inline" fill="#464445" width="691.333" height="784"/>
</g>
<g id="Layer_6">
</g>
<g id="Dark">
	<g>
		<g>
			<path fill-rule="evenodd" clip-rule="evenodd" fill="#1D1D1B" d="M26.999,37.967c-1.859,0-3.366,1.499-3.366,3.349
				c0,1.849,1.507,3.348,3.366,3.348c1.859,0,3.366-1.499,3.366-3.348C30.365,39.466,28.857,37.967,26.999,37.967z M27.007,23.65
				c-1.856,0-3.36,1.504-3.36,3.36c0,1.857,1.504,3.36,3.36,3.36c1.856,0,3.36-1.504,3.36-3.36
				C30.368,25.155,28.863,23.65,27.007,23.65z M26.999,16.069c1.859,0,3.366-1.507,3.366-3.366c0-1.859-1.507-3.366-3.366-3.366
				c-1.859,0-3.366,1.507-3.366,3.366C23.632,14.561,25.139,16.069,26.999,16.069z"/>
		</g>
	</g>
</g>
<g id="Layer_5" display="none">
	<path display="inline" opacity="0.3" fill-rule="evenodd" clip-rule="evenodd" fill="#E30613" d="M0,0v54h54V0H0z M47,47H7V7h40V47
		z"/>
</g>
<g id="name" display="none">
	<text transform="matrix(1 0 0 1 5.4294 50.4886)" display="inline" fill="#646363" font-family="'UniversLTStd-Cn'" font-size="8">sidebar-open</text>
</g>
<g id="Title" display="none">
</g>
</svg>
