<?xml version="1.0" encoding="utf-8"?>
<!-- Generator: Adobe Illustrator 18.0.0, SVG Export Plug-In . SVG Version: 6.00 Build 0)  -->
<!DOCTYPE svg PUBLIC "-//W3C//DTD SVG 1.1//EN" "http://www.w3.org/Graphics/SVG/1.1/DTD/svg11.dtd">
<svg version="1.1" xmlns="http://www.w3.org/2000/svg" xmlns:xlink="http://www.w3.org/1999/xlink" x="0px" y="0px" width="54px"
	 height="54px" viewBox="0 0 54 54" enable-background="new 0 0 54 54" xml:space="preserve">
<g id="Layer_40" display="none">
	<rect x="-52.333" y="-304" display="inline" fill="#464445" width="691.333" height="784"/>
</g>
<g id="Layer_6">
</g>
<g id="Dark">
	<g>
		<g>
			<path fill="#1D1D1B" d="M33.654,12.648h-13.31c-1.251,0-2.266,1.015-2.266,2.267v24.171c0,1.253,1.015,2.266,2.266,2.266h13.31
				c1.252,0,2.268-1.013,2.268-2.266V14.915C35.922,13.663,34.906,12.648,33.654,12.648z M27.07,14.341
				c2.857,0,5.18,2.325,5.18,5.181c0,2.856-2.323,5.181-5.18,5.181c-2.856,0-5.181-2.324-5.181-5.181
				C21.89,16.667,24.214,14.341,27.07,14.341z M27.118,39.981c-3.636,0-6.593-2.958-6.593-6.592c0-3.636,2.957-6.593,6.593-6.593
				c3.634,0,6.593,2.957,6.593,6.593C33.711,37.023,30.752,39.981,27.118,39.981z M27.118,27.766c-3.101,0-5.625,2.522-5.625,5.624
				c0,3.1,2.523,5.623,5.625,5.623c3.1,0,5.623-2.523,5.623-5.623C32.741,30.288,30.219,27.766,27.118,27.766z M27.118,37.073
				c-2.036,0-3.686-1.65-3.686-3.684c0-2.036,1.65-3.686,3.686-3.686c2.036,0,3.685,1.65,3.685,3.686
				C30.803,35.423,29.154,37.073,27.118,37.073z M27.07,23.734c2.323,0,4.211-1.89,4.211-4.212c0-2.322-1.888-4.212-4.211-4.212
				c-2.323,0-4.212,1.889-4.212,4.212C22.858,21.845,24.748,23.734,27.07,23.734z M27.07,16.762c1.525,0,2.761,1.236,2.761,2.761
				c0,1.524-1.236,2.76-2.761,2.76c-1.524,0-2.76-1.236-2.76-2.76C24.31,17.998,25.546,16.762,27.07,16.762z"/>
		</g>
	</g>
</g>
<g id="Layer_5" display="none">
	<path display="inline" opacity="0.3" fill-rule="evenodd" clip-rule="evenodd" fill="#E30613" d="M0,0v54h54V0H0z M47,47H7V7h40V47
		z"/>
</g>
<g id="name" display="none">
	<text transform="matrix(1 0 0 1 4.1891 50.4886)" display="inline" fill="#646363" font-family="'UniversLTStd-Cn'" font-size="8">speaker</text>
</g>
<g id="Title" display="none">
</g>
</svg>
