<?xml version="1.0" encoding="utf-8"?>
<!-- Generator: Adobe Illustrator 18.0.0, SVG Export Plug-In . SVG Version: 6.00 Build 0)  -->
<!DOCTYPE svg PUBLIC "-//W3C//DTD SVG 1.1//EN" "http://www.w3.org/Graphics/SVG/1.1/DTD/svg11.dtd">
<svg version="1.1" xmlns="http://www.w3.org/2000/svg" xmlns:xlink="http://www.w3.org/1999/xlink" x="0px" y="0px" width="54px"
	 height="54px" viewBox="0 0 54 54" enable-background="new 0 0 54 54" xml:space="preserve">
<g id="Layer_40" display="none">
	<rect x="-52.333" y="-665.5" display="inline" fill="#464445" width="691.333" height="784"/>
</g>
<g id="Layer_6">
</g>
<g id="Dark">
	<g>
		<g>
			<path fill-rule="evenodd" clip-rule="evenodd" fill="#1D1D1B" d="M16.515,20.219c0-1.864,1.533-3.718,3.398-3.718h13.679
				c-0.176-1.671-1.596-2.786-3.341-2.786H16.746c-1.864,0-3.061,1.264-3.061,3.128v13.504c0,1.739,1.162,3.154,2.83,3.339V20.219z"
				/>
		</g>
	</g>
	<g>
		<path fill-rule="evenodd" clip-rule="evenodd" fill="#231815" d="M29.366,29.995l-0.558-0.198
			c-0.972,0.521-1.458,1.296-1.458,2.395c0,1.152,0.829,1.854,2.125,1.854c1.351,0,2.107-0.774,2.107-1.818
			C31.581,31.093,30.986,30.589,29.366,29.995z"/>
		<path fill-rule="evenodd" clip-rule="evenodd" fill="#231815" d="M29.564,28.284l0.342,0.126c0.954-0.594,1.296-1.188,1.296-2.053
			c0-0.954-0.594-1.584-1.729-1.584c-1.044,0-1.729,0.54-1.729,1.603C27.745,27.402,28.394,27.852,29.564,28.284z"/>
		<path fill-rule="evenodd" clip-rule="evenodd" fill="#231815" d="M36.813,18.595H22.328c-1.968,0-3.716,2.094-3.716,4.062v14.297
			c0,1.968,1.748,3.332,3.716,3.332h14.485c1.969,0,3.502-1.364,3.502-3.332V22.656C40.315,20.688,38.782,18.595,36.813,18.595z
			 M29.42,35.757c-2.719,0-4.394-1.531-4.394-3.493c0-1.477,0.864-2.449,2.305-3.062c-1.296-0.702-1.818-1.674-1.818-2.862
			c0-1.98,1.801-3.188,3.961-3.188c2.143,0,3.961,1.081,3.961,3.098c0,1.116-0.63,2.034-1.999,2.736
			c1.656,0.738,2.485,1.801,2.485,3.241C33.921,34.208,32.175,35.757,29.42,35.757z"/>
	</g>
</g>
<g id="Layer_5" display="none">
	<path display="inline" opacity="0.3" fill-rule="evenodd" clip-rule="evenodd" fill="#E30613" d="M0,8.5v54h54v-54H0z M47,55.5H7
		v-40h40V55.5z"/>
</g>
<g id="name" display="none">
	<text transform="matrix(1 0 0 1 6.4567 50.4886)" display="inline" fill="#646363" font-family="'UniversLTStd-Cn'" font-size="8">tab-08</text>
</g>
<g id="Title" display="none">
</g>
</svg>
