<?xml version="1.0" encoding="utf-8"?>
<!-- Generator: Adobe Illustrator 18.0.0, SVG Export Plug-In . SVG Version: 6.00 Build 0)  -->
<!DOCTYPE svg PUBLIC "-//W3C//DTD SVG 1.1//EN" "http://www.w3.org/Graphics/SVG/1.1/DTD/svg11.dtd">
<svg version="1.1" xmlns="http://www.w3.org/2000/svg" xmlns:xlink="http://www.w3.org/1999/xlink" x="0px" y="0px" width="54px"
	 height="54px" viewBox="0 0 54 54" enable-background="new 0 0 54 54" xml:space="preserve">
<g id="Layer_40" display="none">
	<rect x="-497.232" y="-598" display="inline" fill="#464445" width="691.333" height="784"/>
</g>
<g id="Layer_6">
</g>
<g id="Dark">
	<g>
		<g>
			<path fill-rule="evenodd" clip-rule="evenodd" fill="#1D1D1B" d="M16.515,20.219c0-1.864,1.533-3.718,3.397-3.718h13.679
				c-0.176-1.671-1.596-2.786-3.341-2.786H16.746c-1.864,0-3.061,1.264-3.061,3.128v13.504c0,1.739,1.162,3.154,2.83,3.339V20.219z"
				/>
		</g>
	</g>
	<g>
		<path fill-rule="evenodd" clip-rule="evenodd" fill="#231815" d="M29.861,29.095c-0.828,0-1.584,0.485-2.143,1.242
			c0.036,2.593,0.595,3.709,1.98,3.709c1.225,0,1.818-1.062,1.818-2.646C31.518,29.671,30.888,29.095,29.861,29.095z"/>
		<path fill-rule="evenodd" clip-rule="evenodd" fill="#231815" d="M36.813,18.595H22.328c-1.968,0-3.716,2.094-3.716,4.062v14.297
			c0,1.968,1.748,3.332,3.716,3.332h14.485c1.969,0,3.502-1.364,3.502-3.332V22.656C40.315,20.688,38.782,18.595,36.813,18.595z
			 M29.699,35.757c-3.097,0-4.375-2.396-4.375-5.87c0-4.051,1.891-6.734,4.97-6.734c1.062,0,1.944,0.307,2.646,0.774l-0.864,1.423
			c-0.522-0.307-1.099-0.486-1.746-0.486c-1.531,0-2.503,1.458-2.629,3.889c0.773-0.936,1.692-1.332,2.719-1.332
			c1.891,0,3.421,1.368,3.421,3.943C33.841,33.902,32.148,35.757,29.699,35.757z"/>
	</g>
</g>
<g id="Layer_5" display="none">
</g>
<g id="name" display="none">
	<text transform="matrix(1 0 0 1 6.4567 50.4886)" display="inline" fill="#646363" font-family="'UniversLTStd-Cn'" font-size="8">tab-06</text>
</g>
<g id="Title" display="none">
</g>
</svg>
