<?xml version="1.0" encoding="utf-8"?>
<!-- Generator: Adobe Illustrator 18.0.0, SVG Export Plug-In . SVG Version: 6.00 Build 0)  -->
<!DOCTYPE svg PUBLIC "-//W3C//DTD SVG 1.1//EN" "http://www.w3.org/Graphics/SVG/1.1/DTD/svg11.dtd">
<svg version="1.1" xmlns="http://www.w3.org/2000/svg" xmlns:xlink="http://www.w3.org/1999/xlink" x="0px" y="0px" width="54px"
	 height="54px" viewBox="0 0 54 54" enable-background="new 0 0 54 54" xml:space="preserve">
<g id="Layer_40" display="none">
	<rect x="-200.333" y="-674" display="inline" fill="#464445" width="691.333" height="784"/>
</g>
<g id="Layer_6">
</g>
<g id="Dark">
	<g>
		<g>
			<path fill="#1D1D1B" d="M27.014,12.63c-0.172,0-0.338,0.02-0.509,0.025c-0.349,0.723-0.662,1.465-0.958,2.216
				c0.503-0.063,1.011-0.107,1.531-0.107c6.729,0,12.183,5.454,12.183,12.183S33.807,39.13,27.079,39.13
				c-6.728,0-12.183-5.454-12.183-12.183c0-1.027,0.141-2.02,0.381-2.973l-1.66-2.217c-0.641,1.623-0.996,3.39-0.996,5.242
				c0,5.663,3.29,10.54,8.058,12.876c1.772,0.867,3.739,1.397,5.827,1.469c0.171,0.005,0.337,0.025,0.509,0.025
				c7.949,0,14.394-6.433,14.394-14.371C41.408,19.063,34.964,12.63,27.014,12.63z M24.619,28.213l0.111,0.189
				c0.143,0.215,0.318,0.401,0.509,0.567l0,0c0,0,0,0,0,0c0.009,0.008,0.019,0.014,0.028,0.02c0.069,0.059,0.147,0.105,0.221,0.157
				c0.08,0.06,0.157,0.125,0.245,0.174h0c0.019,0.011,0.04,0.017,0.059,0.027c0,0,0,0,0,0h0c0,0,0,0,0,0
				c0.165,0.086,0.339,0.152,0.518,0.204c0,0,0,0,0,0s0,0,0,0s0,0,0,0s0,0,0,0c0.043,0.012,0.085,0.026,0.129,0.036h0
				c0.003,0.001,0.006,0,0.01,0.001c0.204,0.048,0.414,0.08,0.627,0.08c0.08,0,0.16-0.011,0.241-0.018c0,0,0.001,0,0.001,0
				c0.049-0.004,0.098-0.004,0.147-0.011h0c0,0,0,0,0,0s0,0,0,0c0.146-0.021,0.292-0.052,0.438-0.097
				c1.474-0.461,2.293-2.026,1.835-3.497c-0.226-0.717-0.715-1.274-1.326-1.609l-0.13-0.066l-12.216-8.124l-0.151-0.024
				l-0.118,0.197l0.063,0.108L24.619,28.213z"/>
		</g>
	</g>
</g>
<g id="Layer_5" display="none">
	<path display="inline" opacity="0.3" fill-rule="evenodd" clip-rule="evenodd" fill="#E30613" d="M0,0v54h54V0H0z M47,47H7V7h40V47
		z"/>
</g>
<g id="name" display="none">
	<text transform="matrix(1 0 0 1 4.3136 51.1551)" display="inline" fill="#646363" font-family="'UniversLTStd-Cn'" font-size="8">timer</text>
</g>
<g id="Title" display="none">
</g>
</svg>
