<?xml version="1.0" encoding="utf-8"?>
<!-- Generator: Adobe Illustrator 18.0.0, SVG Export Plug-In . SVG Version: 6.00 Build 0)  -->
<!DOCTYPE svg PUBLIC "-//W3C//DTD SVG 1.1//EN" "http://www.w3.org/Graphics/SVG/1.1/DTD/svg11.dtd">
<svg version="1.1" xmlns="http://www.w3.org/2000/svg" xmlns:xlink="http://www.w3.org/1999/xlink" x="0px" y="0px" width="54px"
	 height="54px" viewBox="0 0 54 54" enable-background="new 0 0 54 54" xml:space="preserve">
<g id="Layer_40" display="none">
	<rect x="-126.333" y="-156" display="inline" fill="#464445" width="691.333" height="784"/>
</g>
<g id="Layer_6">
</g>
<g id="Dark">
	<g>
		<g>
			<path fill-rule="evenodd" clip-rule="evenodd" fill="#1D1D1B" d="M40.17,19.997h-8.485l3.036-4.18
				c0.274-0.396,0.177-0.941-0.219-1.216l-0.267-0.186c-0.396-0.276-0.938-0.177-1.214,0.218l-3.897,5.365h-4.512l-3.896-5.365
				c-0.275-0.396-0.819-0.494-1.214-0.218l-0.267,0.186c-0.395,0.275-0.493,0.82-0.218,1.216l3.035,4.18h-8.222
				c-0.791,0-1.433,0.642-1.433,1.434v16.875c0,0.793,0.642,1.436,1.433,1.436h26.34c0.79,0,1.432-0.644,1.432-1.436V21.432
				C41.602,20.639,40.96,19.997,40.17,19.997z M39.241,37.356H14.784V22.382h24.457V37.356z"/>
		</g>
	</g>
</g>
<g id="Layer_5" display="none">
	<path display="inline" opacity="0.3" fill-rule="evenodd" clip-rule="evenodd" fill="#E30613" d="M0,0v54h54V0H0z M47,47H7V7h40V47
		z"/>
</g>
<g id="name" display="none">
	<text transform="matrix(1 0 0 1 4.6667 50.4398)" display="inline" fill="#646363" font-family="'UniversLTStd-Cn'" font-size="8">tv</text>
</g>
<g id="Title" display="none">
</g>
</svg>
