<?xml version="1.0" encoding="utf-8"?>
<!-- Generator: Adobe Illustrator 18.0.0, SVG Export Plug-In . SVG Version: 6.00 Build 0)  -->
<!DOCTYPE svg PUBLIC "-//W3C//DTD SVG 1.1//EN" "http://www.w3.org/Graphics/SVG/1.1/DTD/svg11.dtd">
<svg version="1.1" xmlns="http://www.w3.org/2000/svg" xmlns:xlink="http://www.w3.org/1999/xlink" x="0px" y="0px" width="54px"
	 height="54px" viewBox="0 0 54 54" enable-background="new 0 0 54 54" xml:space="preserve">
<g id="Layer_40" display="none">
	<rect x="-422.333" y="-230" display="inline" fill="#464445" width="691.333" height="784"/>
</g>
<g id="Layer_6">
</g>
<g id="Dark">
	<path fill="#1D1D1B" d="M44.211,27.761c-2.461,1.009-4.924,2.017-7.506,3.074c-0.038-0.743-0.071-1.395-0.111-2.162
		c-3.604,0-7.204,0-11.087,0c1.009,1.437,1.899,2.845,2.958,4.111c0.259,0.309,1.08,0.144,1.715,0.205
		c0.126-0.53,0.225-0.946,0.335-1.411c1.54,0,3.052,0,4.679,0c0,1.566,0,3.098,0,4.724c-1.535,0-3.037,0-4.653,0
		c-0.079-0.37-0.169-0.781-0.254-1.168c-0.12-0.059-0.206-0.142-0.274-0.129c-1.964,0.383-3.195-0.526-4.019-2.22
		c-0.193-0.397-0.59-0.699-0.762-1.1c-1.123-2.584-3.008-3.612-5.822-3.169c-0.826,0.13-1.316,0.244-1.714,1.072
		c-0.835,1.739-2.755,2.558-4.628,2.167c-1.604-0.335-3.054-1.919-3.246-3.546c-0.227-1.926,0.758-3.683,2.504-4.477
		c2.012-0.913,4.401-0.027,5.477,2.033c0.649,1.244,1.094,1.283,1.961,0.142c1.326-1.746,2.59-3.542,3.985-5.23
		c0.384-0.464,1.13-0.834,1.732-0.87c1.206-0.07,2.204-0.08,3.078-1.258c0.948-1.278,3.224-1.033,4.302,0.18
		c1.11,1.25,0.99,3.235-0.264,4.341c-1.25,1.104-3.24,0.958-4.329-0.315c-1.274-1.49-2.624-1.438-3.829,0.157
		c-0.882,1.168-1.758,2.341-2.756,3.672c5.056,0,9.897,0,14.834,0c0.071-0.708,0.141-1.393,0.222-2.191
		c2.554,1.059,5.013,2.08,7.474,3.1C44.211,27.582,44.211,27.671,44.211,27.761z"/>
</g>
<g id="Layer_5" display="none">
	<path display="inline" opacity="0.3" fill-rule="evenodd" clip-rule="evenodd" fill="#E30613" d="M0,0v54h54V0H0z M47,47H7V7h40V47
		z"/>
</g>
<g id="name" display="none">
	<text transform="matrix(1 0 0 1 4.9801 50.3363)" display="inline" fill="#646363" font-family="'UniversLTStd-Cn'" font-size="8">usb</text>
</g>
<g id="Title" display="none">
</g>
</svg>
