<?xml version="1.0" encoding="utf-8"?>
<!-- Generator: Adobe Illustrator 18.0.0, SVG Export Plug-In . SVG Version: 6.00 Build 0)  -->
<!DOCTYPE svg PUBLIC "-//W3C//DTD SVG 1.1//EN" "http://www.w3.org/Graphics/SVG/1.1/DTD/svg11.dtd">
<svg version="1.1" xmlns="http://www.w3.org/2000/svg" xmlns:xlink="http://www.w3.org/1999/xlink" x="0px" y="0px" width="54px"
	 height="54px" viewBox="0 0 54 54" enable-background="new 0 0 54 54" xml:space="preserve">
<g id="Layer_40" display="none">
	<rect x="-348.333" y="-230" display="inline" fill="#464445" width="691.333" height="784"/>
</g>
<g id="Layer_6">
</g>
<g id="Dark">
	<g>
		<g>
			<path fill="#1D1D1B" d="M39.957,14.042H14.043c-2.061,0-3.631,1.843-3.305,3.877l1.647,10.26c0.26,1.622,1.66,2.817,3.304,2.817
				h22.623c1.644,0,3.044-1.194,3.305-2.817l1.646-10.26C43.588,15.885,42.016,14.042,39.957,14.042z M35.69,16.868
				c0.779,0,1.412,0.633,1.412,1.413c0,0.78-0.633,1.413-1.412,1.413c-0.781,0-1.413-0.633-1.413-1.413
				C34.276,17.501,34.908,16.868,35.69,16.868z M31.133,16.868c0.779,0,1.412,0.633,1.412,1.413c0,0.78-0.633,1.413-1.412,1.413
				c-0.781,0-1.414-0.633-1.414-1.413C29.719,17.501,30.352,16.868,31.133,16.868z M26.576,16.868c0.781,0,1.412,0.633,1.412,1.413
				c0,0.78-0.631,1.413-1.412,1.413c-0.78,0-1.412-0.633-1.412-1.413C25.164,17.501,25.796,16.868,26.576,16.868z M22.019,16.868
				c0.781,0,1.413,0.633,1.413,1.413c0,0.78-0.632,1.413-1.413,1.413c-0.779,0-1.412-0.633-1.412-1.413
				C20.607,17.501,21.24,16.868,22.019,16.868z M17.463,16.868c0.781,0,1.414,0.633,1.414,1.413c0,0.78-0.633,1.413-1.414,1.413
				c-0.779,0-1.412-0.633-1.412-1.413C16.051,17.501,16.684,16.868,17.463,16.868z M17.463,28.17c-0.779,0-1.412-0.632-1.412-1.413
				c0-0.78,0.633-1.413,1.412-1.413c0.781,0,1.414,0.633,1.414,1.413C18.877,27.538,18.244,28.17,17.463,28.17z M18.664,22.52
				c0-0.781,0.633-1.413,1.413-1.413c0.78,0,1.412,0.632,1.412,1.413c0,0.78-0.632,1.413-1.412,1.413
				C19.297,23.932,18.664,23.299,18.664,22.52z M22.019,28.17c-0.779,0-1.412-0.632-1.412-1.413c0-0.78,0.633-1.413,1.412-1.413
				c0.781,0,1.413,0.633,1.413,1.413C23.433,27.538,22.801,28.17,22.019,28.17z M23.221,22.52c0-0.781,0.632-1.413,1.412-1.413
				c0.781,0,1.414,0.632,1.414,1.413c0,0.78-0.633,1.413-1.414,1.413C23.852,23.932,23.221,23.299,23.221,22.52z M26.576,28.17
				c-0.78,0-1.412-0.632-1.412-1.413c0-0.78,0.632-1.413,1.412-1.413c0.781,0,1.412,0.633,1.412,1.413
				C27.988,27.538,27.357,28.17,26.576,28.17z M27.777,22.52c0-0.781,0.633-1.413,1.413-1.413c0.779,0,1.412,0.632,1.412,1.413
				c0,0.78-0.633,1.413-1.412,1.413C28.41,23.932,27.777,23.299,27.777,22.52z M31.133,28.17c-0.781,0-1.414-0.632-1.414-1.413
				c0-0.78,0.633-1.413,1.414-1.413c0.779,0,1.412,0.633,1.412,1.413C32.545,27.538,31.912,28.17,31.133,28.17z M32.334,22.52
				c0-0.781,0.633-1.413,1.412-1.413c0.78,0,1.414,0.632,1.414,1.413c0,0.78-0.634,1.413-1.414,1.413
				C32.967,23.932,32.334,23.299,32.334,22.52z M35.69,28.17c-0.781,0-1.413-0.632-1.413-1.413c0-0.78,0.632-1.413,1.413-1.413
				c0.779,0,1.412,0.633,1.412,1.413C37.102,27.538,36.469,28.17,35.69,28.17z M38.303,23.932c-0.781,0-1.413-0.633-1.413-1.413
				c0-0.781,0.632-1.413,1.413-1.413c0.781,0,1.414,0.632,1.414,1.413C39.717,23.299,39.084,23.932,38.303,23.932z M19.708,37.667
				l-1.345-3.746h-1.834l2.4,5.962h1.521l2.402-5.962h-1.802L19.708,37.667z M26.758,37.582h1.168v0.719
				c-0.248,0.164-0.563,0.245-0.947,0.245c-0.236,0-0.452-0.04-0.647-0.122c-0.194-0.082-0.362-0.195-0.507-0.339
				c-0.143-0.144-0.255-0.316-0.333-0.52c-0.079-0.203-0.12-0.422-0.12-0.66v-0.017c0-0.225,0.041-0.436,0.12-0.634
				c0.078-0.197,0.185-0.369,0.321-0.515c0.135-0.147,0.294-0.263,0.477-0.348c0.184-0.084,0.383-0.126,0.597-0.126
				c0.293,0,0.552,0.047,0.773,0.144c0.222,0.097,0.441,0.234,0.655,0.413l0.963-1.158c-0.314-0.27-0.664-0.481-1.043-0.634
				c-0.381-0.152-0.832-0.229-1.357-0.229c-0.456,0-0.88,0.079-1.273,0.236c-0.392,0.158-0.727,0.377-1.01,0.657
				c-0.282,0.278-0.503,0.604-0.663,0.977c-0.162,0.371-0.242,0.774-0.242,1.207v0.018c0,0.446,0.082,0.855,0.245,1.23
				c0.164,0.374,0.39,0.697,0.677,0.968c0.287,0.271,0.627,0.481,1.019,0.634c0.393,0.153,0.819,0.229,1.281,0.229
				c0.54,0,1.026-0.088,1.454-0.262c0.428-0.175,0.801-0.392,1.116-0.651v-2.663h-2.724V37.582z M33.285,33.879l-2.52,5.96h1.725
				l0.424-1.057h2.283l0.432,1.057h1.758l-2.52-5.96H33.285z M33.396,37.506l0.668-1.683l0.658,1.683H33.396z"/>
		</g>
	</g>
</g>
<g id="Layer_5" display="none">
	<path display="inline" opacity="0.3" fill-rule="evenodd" clip-rule="evenodd" fill="#E30613" d="M0,0v54h54V0H0z M47,47H7V7h40V47
		z"/>
</g>
<g id="name" display="none">
	<text transform="matrix(1 0 0 1 5.2736 50.3363)" display="inline" fill="#646363" font-family="'UniversLTStd-Cn'" font-size="8">vga</text>
</g>
<g id="Title" display="none">
</g>
</svg>
