<?xml version="1.0" encoding="utf-8"?>
<!-- Generator: Adobe Illustrator 18.0.0, SVG Export Plug-In . SVG Version: 6.00 Build 0)  -->
<!DOCTYPE svg PUBLIC "-//W3C//DTD SVG 1.1//EN" "http://www.w3.org/Graphics/SVG/1.1/DTD/svg11.dtd">
<svg version="1.1" xmlns="http://www.w3.org/2000/svg" xmlns:xlink="http://www.w3.org/1999/xlink" x="0px" y="0px" width="54px"
	 height="54px" viewBox="0 0 54 54" enable-background="new 0 0 54 54" xml:space="preserve">
<g id="Layer_40" display="none">
	<rect x="-52.333" y="-230" display="inline" fill="#464445" width="691.333" height="784"/>
</g>
<g id="Layer_6">
</g>
<g id="Dark">
	<g>
		<g>
			<path fill-rule="evenodd" clip-rule="evenodd" fill="#1D1D1B" d="M40.32,35.549c-0.281-0.098-0.479-0.66-0.479-1.267
				c0-0.607,0.198-1.168,0.479-1.266l0.44-0.154c-0.157-0.658-0.406-1.281-0.753-1.84l-0.429,0.206
				c-0.269,0.127-0.806-0.128-1.234-0.558c-0.428-0.428-0.685-0.966-0.556-1.234l0.206-0.428c-0.56-0.347-1.182-0.596-1.84-0.753
				L36,28.695c-0.098,0.28-0.661,0.477-1.267,0.477c-0.608,0-1.169-0.197-1.266-0.477l-0.155-0.441
				c-0.658,0.157-1.281,0.406-1.84,0.753l0.206,0.429c0.128,0.268-0.128,0.806-0.558,1.234c-0.428,0.43-0.966,0.685-1.234,0.558
				l-0.427-0.206c-0.346,0.56-0.595,1.182-0.752,1.84l0.439,0.154c0.281,0.098,0.478,0.659,0.478,1.266
				c0,0.607-0.197,1.169-0.478,1.267l-0.43,0.176c0.16,0.648,0.41,1.261,0.754,1.813l0.417-0.2c0.269-0.129,0.806,0.128,1.234,0.556
				c0.43,0.43,0.686,0.967,0.558,1.235l-0.204,0.424c0.56,0.346,1.175,0.611,1.835,0.766l0.158-0.45
				c0.097-0.281,0.658-0.478,1.266-0.478c0.607,0,1.169,0.197,1.267,0.478l0.153,0.437c0.657-0.159,1.277-0.412,1.836-0.76
				l-0.201-0.417c-0.129-0.268,0.128-0.806,0.556-1.235c0.428-0.428,0.966-0.685,1.234-0.556l0.424,0.204
				c0.346-0.56,0.611-1.175,0.766-1.835L40.32,35.549z M34.732,37.557c-1.81,0-3.275-1.466-3.275-3.275
				c0-1.809,1.465-3.275,3.275-3.275c1.81,0,3.275,1.466,3.275,3.275C38.007,36.09,36.542,37.557,34.732,37.557z M20.856,34.029
				v-8.104h11.073v0.228c0.532-0.178,1.087-0.304,1.662-0.368v-2.806h2.503v2.913c0.462,0.093,0.907,0.231,1.337,0.399V13.169
				c0-0.952-0.773-1.723-1.723-1.723H34.84c-0.953,0-1.724,0.771-1.724,1.723v1.046H19.309v-1.046c0-0.952-0.772-1.723-1.723-1.723
				h-0.868c-0.952,0-1.723,0.771-1.723,1.723v25.084c0,0.952,0.771,1.724,1.723,1.724h0.868c0.951,0,1.723-0.773,1.723-1.724v-1.357
				h7.695c-0.364-0.887-0.571-1.854-0.596-2.867H20.856z M33.59,16.108h2.503v3.847H33.59V16.108z M20.856,16.137h11.073v8.105
				H20.856V16.137z M19.041,33.963h-2.503v-3.785h2.503V33.963z M19.041,26.766h-2.503v-3.786h2.503V26.766z M19.041,19.955h-2.503
				v-3.847h2.503V19.955z"/>
		</g>
	</g>
</g>
<g id="Layer_5" display="none">
	<path display="inline" opacity="0.3" fill-rule="evenodd" clip-rule="evenodd" fill="#E30613" d="M0,0v54h54V0H0z M47,47H7V7h40V47
		z"/>
</g>
<g id="name" display="none">
	<text transform="matrix(1 0 0 1 4.1891 50.3363)" display="inline" fill="#646363" font-family="'UniversLTStd-Cn'" font-size="8">video-settings</text>
</g>
<g id="Title" display="none">
</g>
</svg>
