<?xml version="1.0" encoding="utf-8"?>
<!-- Generator: Adobe Illustrator 18.0.0, SVG Export Plug-In . SVG Version: 6.00 Build 0)  -->
<!DOCTYPE svg PUBLIC "-//W3C//DTD SVG 1.1//EN" "http://www.w3.org/Graphics/SVG/1.1/DTD/svg11.dtd">
<svg version="1.1" xmlns="http://www.w3.org/2000/svg" xmlns:xlink="http://www.w3.org/1999/xlink" x="0px" y="0px" width="54px"
	 height="54px" viewBox="0 0 54 54" enable-background="new 0 0 54 54" xml:space="preserve">
<g id="Layer_40" display="none">
	<rect x="-52.333" y="-378" display="inline" fill="#464445" width="691.333" height="784"/>
</g>
<g id="Layer_6">
</g>
<g id="Dark">
	<path fill-rule="evenodd" clip-rule="evenodd" fill="#1D1D1B" d="M42.222,25.289c-3.552-4.504-9.045-7.405-15.226-7.405
		c-6.177,0-11.666,2.896-15.218,7.393l-2.461-2.46c4.189-5.115,10.552-8.381,17.679-8.381c7.133,0,13.498,3.271,17.688,8.393
		L42.222,25.289z M39.791,27.719l-2.457,2.457c-2.264-3.284-6.049-5.44-10.339-5.44c-4.286,0-8.065,2.151-10.33,5.43l-2.458-2.459
		c2.917-3.891,7.552-6.418,12.788-6.418C32.237,21.289,36.875,23.822,39.791,27.719z M26.996,28.143
		c3.353,0,6.277,1.812,7.866,4.506l-2.573,2.572c-0.823-2.127-2.876-3.642-5.294-3.642c-2.413,0-4.461,1.509-5.289,3.626l-2.57-2.57
		C20.727,29.949,23.646,28.143,26.996,28.143z M26.996,34.996c1.262,0,2.285,1.023,2.285,2.283c0,1.262-1.023,2.285-2.285,2.285
		c-1.262,0-2.284-1.023-2.284-2.285C24.712,36.02,25.733,34.996,26.996,34.996z"/>
</g>
<g id="Layer_5" display="none">
	<path display="inline" opacity="0.3" fill-rule="evenodd" clip-rule="evenodd" fill="#E30613" d="M0,0v54h54V0H0z M47,47H7V7h40V47
		z"/>
</g>
<g id="name" display="none">
	<text transform="matrix(1 0 0 1 4.1891 50.4886)" display="inline" fill="#646363" font-family="'UniversLTStd-Cn'" font-size="8">wifi</text>
</g>
<g id="Title" display="none">
</g>
</svg>
