<?xml version="1.0" encoding="utf-8"?>
<!-- Generator: Adobe Illustrator 18.0.0, SVG Export Plug-In . SVG Version: 6.00 Build 0)  -->
<!DOCTYPE svg PUBLIC "-//W3C//DTD SVG 1.1//EN" "http://www.w3.org/Graphics/SVG/1.1/DTD/svg11.dtd">
<svg version="1.1" xmlns="http://www.w3.org/2000/svg" xmlns:xlink="http://www.w3.org/1999/xlink" x="0px" y="0px" width="54px"
	 height="54px" viewBox="0 0 54 54" enable-background="new 0 0 54 54" xml:space="preserve">
<g id="Layer_40" display="none">
	<rect x="-422.333" y="-452" display="inline" fill="#464445" width="691.333" height="784"/>
</g>
<g id="Layer_6">
</g>
<g id="Dark">
	<g>
		<g>
			<path fill-rule="evenodd" clip-rule="evenodd" fill="#1D1D1B" d="M39.982,36.892l-6.505-6.505
				c1.148-1.698,1.818-3.746,1.818-5.95c0-5.876-4.764-10.64-10.64-10.64c-5.876,0-10.639,4.764-10.639,10.64
				c0,5.876,4.763,10.64,10.639,10.64c2.074,0,4.003-0.603,5.639-1.629l6.063,6.063c0.005,0.203,0.06,0.379,0.184,0.502
				c0.438,0.438,1.492,0.095,2.353-0.767c0.755-0.755,1.112-1.657,0.895-2.164L39.982,36.892z M24.656,32.544
				c-4.478,0-8.107-3.63-8.107-8.107c0-4.477,3.63-8.108,8.107-8.108c4.477,0,8.108,3.631,8.108,8.108
				C32.765,28.914,29.134,32.544,24.656,32.544z M25.766,19.229h-2.09v4.21h-4.212v2.089h4.212v4.192h2.09v-4.192h4.189V23.44
				h-4.189V19.229z"/>
		</g>
	</g>
</g>
<g id="Layer_5" display="none">
	<path display="inline" opacity="0.3" fill-rule="evenodd" clip-rule="evenodd" fill="#E30613" d="M0,0v54h54V0H0z M47,47H7V7h40V47
		z"/>
</g>
<g id="name" display="none">
	<text transform="matrix(1 0 0 1 5.2736 50.4886)" display="inline" fill="#646363" font-family="'UniversLTStd-Cn'" font-size="8">zoomin</text>
</g>
<g id="Title" display="none">
</g>
</svg>
