<?xml version="1.0" encoding="UTF-8" standalone="no"?>
<!-- Created with Inkscape (http://www.inkscape.org/) -->

<svg
   xmlns:dc="http://purl.org/dc/elements/1.1/"
   xmlns:cc="http://creativecommons.org/ns#"
   xmlns:rdf="http://www.w3.org/1999/02/22-rdf-syntax-ns#"
   xmlns:svg="http://www.w3.org/2000/svg"
   xmlns="http://www.w3.org/2000/svg"
   xmlns:inkscape="http://www.inkscape.org/namespaces/inkscape"
   version="1.1"
   width="30"
   height="30"
   viewBox="0 0 30 30"
   id="svg2">
  <metadata
     id="metadata10">
    <rdf:RDF>
      <cc:Work
         rdf:about="">
        <dc:format>image/svg+xml</dc:format>
        <dc:type
           rdf:resource="http://purl.org/dc/dcmitype/StillImage" />
      </cc:Work>
    </rdf:RDF>
  </metadata>
  <defs
     id="defs8" />
  <path
     d="m 12.2,11.5 c 0,-2.9 -2.1,-5 -5.5,-5 C 4.3,6.4 2.5,7.4 1.1,9.2 l 1.7,1.3 C 4,9.1 5,8.5 6.5,8.5 c 1.8,0 3,1.1 3,3.1 0,3 -1.6,4.8 -8.1,11.5 v 2 H 12.3 L 12.6,23 H 4.3 c 5.7,-5.7 7.9,-8.1 7.9,-11.5 z m 10.4,3.1 0.3,2.1 h 3.4 v 5.7 c -1.1,0.6 -2.3,0.9 -3.6,0.9 -3.3,0 -5.2,-2.2 -5.2,-7.7 0,-5.6 2.7,-7.6 5.4,-7.6 1.7,0 2.8,0.5 4.2,1.5 L 28.6,7.9 C 27,6.6 25.4,5.8 22.9,5.8 c -4.3,0 -8.2,3.4 -8.2,9.8 0,6.5 3.1,9.8 7.8,9.8 2.7,0 4.6,-0.7 6.4,-1.7 v -9.2 h -6.3 z"
     inkscape:connector-curvature="0"
     id="path4" />
</svg>
