<?xml version="1.0" encoding="UTF-8" standalone="no"?>
<!-- Created with Inkscape (http://www.inkscape.org/) -->

<svg
   xmlns:dc="http://purl.org/dc/elements/1.1/"
   xmlns:cc="http://creativecommons.org/ns#"
   xmlns:rdf="http://www.w3.org/1999/02/22-rdf-syntax-ns#"
   xmlns:svg="http://www.w3.org/2000/svg"
   xmlns="http://www.w3.org/2000/svg"
   xmlns:inkscape="http://www.inkscape.org/namespaces/inkscape"
   version="1.1"
   width="30"
   height="30"
   viewBox="0 0 30 30"
   id="svg2">
  <metadata
     id="metadata10">
    <rdf:RDF>
      <cc:Work
         rdf:about="">
        <dc:format>image/svg+xml</dc:format>
        <dc:type
           rdf:resource="http://purl.org/dc/dcmitype/StillImage" />
      </cc:Work>
    </rdf:RDF>
  </metadata>
  <defs
     id="defs8" />
  <path
     d="m 13.58,11.97 c 0,-2.545 -1.94,-4.578 -5.31,-4.578 -2.255,0 -3.977,0.97 -5.285,2.665 l 1.912,1.503 c 0.995,-1.184 1.843,-1.717 3.13,-1.717 1.404,0 2.35,0.87 2.35,2.373 0,2.302 -1.355,3.83 -6.93,9.503 V 24 h 10.156 l 0.34,-2.45 H 6.96 c 5.04,-4.802 6.62,-6.813 6.62,-9.577 z m 7.426,1.668 0.34,2.373 h 2.517 v 4.367 c -0.8,0.46 -1.72,0.655 -2.667,0.655 -2.62,0 -3.974,-1.72 -3.974,-6.305 0,-4.508 2.038,-6.304 4.412,-6.304 1.43,0 2.375,0.437 3.492,1.358 l 1.74,-1.817 C 25.467,6.75 23.865,6 21.487,6 c -4.12,0 -7.633,3.052 -7.633,8.724 0,5.747 2.62,8.755 7.272,8.755 2.28,0 4.266,-0.632 5.89,-1.65 v -8.195 h -6.01 z"
     inkscape:connector-curvature="0"
     id="path4" />
</svg>
