<?xml version="1.0" encoding="UTF-8" standalone="no"?>
<!-- Created with Inkscape (http://www.inkscape.org/) -->

<svg
   xmlns:dc="http://purl.org/dc/elements/1.1/"
   xmlns:cc="http://creativecommons.org/ns#"
   xmlns:rdf="http://www.w3.org/1999/02/22-rdf-syntax-ns#"
   xmlns:svg="http://www.w3.org/2000/svg"
   xmlns="http://www.w3.org/2000/svg"
   xmlns:inkscape="http://www.inkscape.org/namespaces/inkscape"
   version="1.1"
   width="30"
   height="30"
   viewBox="0 0 30 30"
   id="svg2">
  <metadata
     id="metadata10">
    <rdf:RDF>
      <cc:Work
         rdf:about="">
        <dc:format>image/svg+xml</dc:format>
        <dc:type
           rdf:resource="http://purl.org/dc/dcmitype/StillImage" />
      </cc:Work>
    </rdf:RDF>
  </metadata>
  <defs
     id="defs8" />
  <path
     d="m 10.47,15.18 c 1.876,-0.498 3.11,-1.758 3.11,-3.755 0,-2.213 -1.756,-4.063 -5.06,-4.063 -1.927,0 -3.59,0.687 -5.016,2.042 l 1.543,1.686 c 1,-0.95 1.976,-1.4 3.212,-1.4 1.42,0 2.35,0.782 2.35,2.092 0,1.566 -1.07,2.425 -2.57,2.425 H 7.184 l -0.354,2.16 h 1.26 c 1.804,0 2.873,0.666 2.873,2.57 0,1.662 -1.116,2.683 -2.828,2.683 -1.258,0 -2.304,-0.475 -3.278,-1.57 L 3.124,21.694 C 4.36,23.19 6.12,24 8.304,24 c 3.66,0 5.802,-2.19 5.802,-4.923 0,-2.47 -1.643,-3.707 -3.637,-3.896 z m 10.513,-1.694 0.332,2.33 h 2.472 v 4.28 c -0.784,0.45 -1.69,0.64 -2.616,0.64 -2.567,0 -3.896,-1.685 -3.896,-6.18 0,-4.42 1.997,-6.18 4.323,-6.18 1.405,0 2.33,0.428 3.424,1.33 l 1.716,-1.78 C 25.356,6.735 23.786,6 21.456,6 c -4.04,0 -7.486,2.992 -7.486,8.553 0,5.634 2.568,8.583 7.13,8.583 2.235,0 4.186,-0.618 5.776,-1.616 v -8.035 h -5.893 z"
     inkscape:connector-curvature="0"
     id="path4" />
</svg>
