<?xml version="1.0" encoding="UTF-8" standalone="no"?>
<!-- Created with Inkscape (http://www.inkscape.org/) -->

<svg
   xmlns:dc="http://purl.org/dc/elements/1.1/"
   xmlns:cc="http://creativecommons.org/ns#"
   xmlns:rdf="http://www.w3.org/1999/02/22-rdf-syntax-ns#"
   xmlns:svg="http://www.w3.org/2000/svg"
   xmlns="http://www.w3.org/2000/svg"
   xmlns:inkscape="http://www.inkscape.org/namespaces/inkscape"
   version="1.1"
   width="30"
   height="30"
   viewBox="0 0 30 30"
   id="svg2">
  <metadata
     id="metadata10">
    <rdf:RDF>
      <cc:Work
         rdf:about="">
        <dc:format>image/svg+xml</dc:format>
        <dc:type
           rdf:resource="http://purl.org/dc/dcmitype/StillImage" />
      </cc:Work>
    </rdf:RDF>
  </metadata>
  <defs
     id="defs8" />
  <path
     d="M 11.4,13.5 H 9.2 L 9,18.5 H 3.8 L 8.8,7.3 6.6,6.3 1.1,18.6 v 1.8 H 9 V 25 h 2.4 v -4.5 h 2.4 v -2 h -2.4 v -5 z m 11.3,1 0.3,2.1 h 3.4 v 5.7 c -1.1,0.6 -2.3,0.9 -3.6,0.9 -3.3,0 -5.2,-2.2 -5.2,-7.7 0,-5.6 2.7,-7.6 5.4,-7.6 1.7,0 2.8,0.5 4.2,1.5 L 28.7,7.8 C 27.1,6.5 25.5,5.7 23,5.7 c -4.3,0 -8.2,3.4 -8.2,9.8 0,6.5 3.1,9.8 7.8,9.8 2.7,0 4.6,-0.7 6.4,-1.7 v -9.2 h -6.3 z"
     inkscape:connector-curvature="0"
     id="path4" />
</svg>
