<?xml version="1.0" encoding="UTF-8" standalone="no"?>
<!-- Created with Inkscape (http://www.inkscape.org/) -->

<svg
   xmlns:dc="http://purl.org/dc/elements/1.1/"
   xmlns:cc="http://creativecommons.org/ns#"
   xmlns:rdf="http://www.w3.org/1999/02/22-rdf-syntax-ns#"
   xmlns:svg="http://www.w3.org/2000/svg"
   xmlns="http://www.w3.org/2000/svg"
   xmlns:inkscape="http://www.inkscape.org/namespaces/inkscape"
   version="1.1"
   width="30"
   height="30"
   viewBox="0 0 30 30"
   id="svg2">
  <metadata
     id="metadata10">
    <rdf:RDF>
      <cc:Work
         rdf:about="">
        <dc:format>image/svg+xml</dc:format>
        <dc:type
           rdf:resource="http://purl.org/dc/dcmitype/StillImage" />
      </cc:Work>
    </rdf:RDF>
  </metadata>
  <defs
     id="defs8" />
  <path
     d="M 12.53,13.79 H 9.843 L 9.529,17.887 H 5.794 L 9.964,8.361 7.318,7.366 2.57,18.133 v 2.134 H 9.502 V 24 h 3.03 v -3.737 h 1.964 V 17.885 H 12.53 v -4.097 z m 8.884,-0.154 0.344,2.376 h 2.518 v 4.366 c -0.8,0.46 -1.72,0.655 -2.668,0.655 -2.615,0 -3.97,-1.72 -3.97,-6.306 0,-4.508 2.032,-6.303 4.41,-6.303 1.428,0 2.374,0.436 3.488,1.357 L 27.282,7.964 C 25.877,6.75 24.276,6 21.898,6 c -4.12,0 -7.634,3.052 -7.634,8.725 0,5.747 2.62,8.755 7.274,8.755 2.28,0 4.268,-0.63 5.892,-1.648 v -8.197 h -6.016 z"
     inkscape:connector-curvature="0"
     id="path4" />
</svg>
