<?xml version="1.0" encoding="UTF-8" standalone="no"?>
<!-- Created with Inkscape (http://www.inkscape.org/) -->

<svg
   xmlns:dc="http://purl.org/dc/elements/1.1/"
   xmlns:cc="http://creativecommons.org/ns#"
   xmlns:rdf="http://www.w3.org/1999/02/22-rdf-syntax-ns#"
   xmlns:svg="http://www.w3.org/2000/svg"
   xmlns="http://www.w3.org/2000/svg"
   xmlns:inkscape="http://www.inkscape.org/namespaces/inkscape"
   version="1.1"
   width="30"
   height="30"
   viewBox="0 0 30 30"
   id="svg2">
  <metadata
     id="metadata10">
    <rdf:RDF>
      <cc:Work
         rdf:about="">
        <dc:format>image/svg+xml</dc:format>
        <dc:type
           rdf:resource="http://purl.org/dc/dcmitype/StillImage" />
      </cc:Work>
    </rdf:RDF>
  </metadata>
  <defs
     id="defs8" />
  <path
     d="m 26.968,12.144 c 0,-0.93 -5.188,-1.683 -11.587,-1.683 -6.399,0 -11.581,0.759 -11.581,1.689 0,0.776 3.623,1.43 8.543,1.623 0.27,0.595 0.568,1.216 0.896,1.863 -0.27,0.434 -0.53,0.875 -0.79,1.33 -3.2,5.54 -5.05,10.465 -4.13,10.994 0.88,0.51 3.99,-3.217 7.06,-8.414 3.074,5.196 6.19,8.922 7.07,8.413 0.92,-0.53 -0.93,-5.46 -4.13,-11 -0.268,-0.46 -0.53,-0.9 -0.79,-1.33 0.323,-0.65 0.62,-1.27 0.893,-1.86 4.92,-0.2 8.545,-0.85 8.545,-1.63 z M 15.38,9.334 c 1.863,0 3.373,-1.512 3.373,-3.375 0,-1.863 -1.51,-3.38 -3.373,-3.38 -1.863,0 -3.374,1.51 -3.374,3.37 0,1.86 1.51,3.37 3.374,3.37 z"
     inkscape:connector-curvature="0"
     id="path4" />
</svg>
