<?xml version="1.0" encoding="UTF-8" standalone="no"?>
<!-- Created with Inkscape (http://www.inkscape.org/) -->
<svg xmlns="http://www.w3.org/2000/svg" width="30" height="30" viewBox="0 0 30 30">
  <path d="M25.734 15.065l-2.496 2.238c-.312.26-.655.42-1 .52-.872 2.236-2.526 4.02-4.586 4.863.81.94 1.904 1.622 3.214 1.914V27H9.102v-2.043-.39c1.31-.29 2.37-.94 3.183-1.848-2.153-.844-3.9-2.693-4.775-5.06-.218-.098-.436-.228-.624-.39l-2.59-2.238c-1.154-1.07-1.59-2.82-1.092-4.346.062-.162.094-.29.156-.42.593-1.298 1.748-2.077 3.027-2.11h.593c-.094-1.815-1.404-3.275-3.058-3.34.374-.648.81-1.232 1.248-1.816h19.972c.376.454.72.94 1.03 1.46v.356c-1.684 0-3.057 1.492-3.182 3.373h.718c1.248 0 2.372.81 2.933 2.107.062.13.124.292.155.422.5 1.523.063 3.275-1.06 4.345zm-16.788-.487v-2.173c0-1.167-.81-2.108-1.84-2.108H6.48c-.655 0-1.216.422-1.528 1.038-.032.065-.063.13-.094.227-.25.78 0 1.622.562 2.14l2.09 1.817c.156.13.312.194.53.194.5 0 .875-.455.875-1.006v-.065c.03 0 .03-.032.03-.065zm16.227-3.016c-.032-.065-.063-.162-.094-.227-.282-.65-.844-1.038-1.468-1.038h-.593c-1 0-1.78.94-1.78 2.108v2.336c0 .552.375 1.006.874 1.006.188 0 .375-.065.5-.195l2.028-1.815c.53-.52.78-1.394.53-2.173z"/>
</svg>
