<?xml version="1.0" encoding="utf-8"?>
<!-- Generated by IcoMoon.io -->
<!DOCTYPE svg PUBLIC "-//W3C//DTD SVG 1.1//EN" "http://www.w3.org/Graphics/SVG/1.1/DTD/svg11.dtd">
<svg version="1.1" xmlns="http://www.w3.org/2000/svg" xmlns:xlink="http://www.w3.org/1999/xlink" width="30" height="30" viewBox="0 0 30 30">
<g>
	<line stroke-width="1" x1="" y1="" x2="" y2="" stroke="#449FDB" opacity=""></line>
</g>
	<path d="M24.866 13.291h-2.544v2.543c-0.509 0.124-0.693 0.123-1.202-0.002v-2.542h-2.539c-0.125-0.509-0.124-0.693 0-1.202h2.539v-2.538c0.509-0.125 0.693-0.126 1.202-0.001v2.539h2.542c0.126 0.51 0.126 0.693 0.002 1.203zM12.736 13.867c-2.235 0-4.047-1.812-4.047-4.046 0-2.235 1.812-4.047 4.047-4.047s4.046 1.812 4.046 4.047-1.812 4.046-4.046 4.046zM12.736 18.061l3.093-3.093c2.363 0.803 3.996 2.49 3.996 4.448h0.003c0 1.965-0.391 3.793-1.056 5.35h-12.073c-0.665-1.557-1.054-3.385-1.056-5.35h0.005c0-1.958 1.633-3.646 3.996-4.449l3.092 3.094z" fill="#000000"></path>
</svg>
