<?xml version="1.0" encoding="utf-8"?>
<!-- Generated by IcoMoon.io -->
<!DOCTYPE svg PUBLIC "-//W3C//DTD SVG 1.1//EN" "http://www.w3.org/Graphics/SVG/1.1/DTD/svg11.dtd">
<svg version="1.1" xmlns="http://www.w3.org/2000/svg" xmlns:xlink="http://www.w3.org/1999/xlink" width="30" height="30" viewBox="0 0 30 30">
<g>
	<line stroke-width="1" x1="" y1="" x2="" y2="" stroke="#449FDB" opacity=""></line>
</g>
	<path d="M25.327 21.748l-0.949-0.619c0.718-1.924 1.112-4.003 1.112-6.176s-0.395-4.253-1.112-6.175l0.949-0.62c0.819 2.107 1.27 4.399 1.27 6.795 0 2.397-0.451 4.689-1.27 6.795zM21.003 18.925c0.379-1.259 0.586-2.591 0.586-3.972s-0.207-2.714-0.586-3.972l0.701-0.458c0.447 1.398 0.688 2.885 0.688 4.43s-0.241 3.033-0.688 4.43l-0.701-0.458zM17.994 16.96c0.128-0.649 0.196-1.32 0.196-2.007s-0.068-1.357-0.196-2.007l0.435-0.285c0.159 0.739 0.245 1.505 0.245 2.292s-0.086 1.553-0.245 2.292l-0.435-0.285zM7.912 20.139h-3.227c-0.834 0-1.685-0.677-1.685-1.511v-7.354c0-0.833 0.851-1.509 1.685-1.509h3.23l5.142-5.142c0.522-0.521 1.261-0.792 1.943-0.835v22.331c-0.682-0.044-1.421-0.313-1.943-0.836l-5.145-5.144z" fill="#000000"></path>
</svg>
