<?xml version="1.0" encoding="utf-8"?>
<!-- Generated by IcoMoon.io -->
<!DOCTYPE svg PUBLIC "-//W3C//DTD SVG 1.1//EN" "http://www.w3.org/Graphics/SVG/1.1/DTD/svg11.dtd">
<svg version="1.1" xmlns="http://www.w3.org/2000/svg" xmlns:xlink="http://www.w3.org/1999/xlink" width="30" height="30" viewBox="0 0 30 30">
<g>
	<line stroke-width="1" x1="" y1="" x2="" y2="" stroke="#449FDB" opacity=""></line>
</g>
	<path d="M23.995 14.954l2.457 2.456c0.544 0.545 0.544 1.427 0 1.971l-3.997 3.997v-6.884l-3.338 3.338c-0.060 0.059-0.123 0.111-0.19 0.158-0.173-0.482-0.327-0.99-0.461-1.52l3.513-3.514-3.518-3.519c0.136-0.531 0.29-1.040 0.461-1.523 0.069 0.047 0.135 0.101 0.195 0.161l3.338 3.338v-6.882l3.997 3.997c0.544 0.543 0.544 1.425 0 1.97l-2.457 2.456zM23.713 20.105l1.396-1.396-0.002-0.002c0.165-0.183 0.16-0.465-0.017-0.641-0.003-0.004-0.008-0.005-0.012-0.008l-1.366-1.367v3.414zM25.091 11.183c-0.003-0.004-0.008-0.006-0.012-0.010l-1.366-1.365v3.415l1.396-1.396-0.002-0.001c0.165-0.186 0.161-0.467-0.016-0.643zM8.162 20.139h-3.227c-0.834 0-1.935-0.676-1.935-1.51v-7.354c0-0.833 1.101-1.51 1.935-1.51h3.23l5.142-5.142c0.523-0.52 1.011-0.791 1.693-0.834v22.331c-0.682-0.044-1.17-0.313-1.692-0.836l-5.146-5.145z" fill="#000000"></path>
</svg>
