<?xml version="1.0" encoding="utf-8"?>
<!-- Generated by IcoMoon.io -->
<!DOCTYPE svg PUBLIC "-//W3C//DTD SVG 1.1//EN" "http://www.w3.org/Graphics/SVG/1.1/DTD/svg11.dtd">
<svg version="1.1" xmlns="http://www.w3.org/2000/svg" xmlns:xlink="http://www.w3.org/1999/xlink" width="30" height="30" viewBox="0 0 30 30">
<g>
	<line stroke-width="1" x1="" y1="" x2="" y2="" stroke="#449FDB" opacity=""></line>
</g>
	<path d="M21.503 19.977v0 0.023h-13.036v-0.023c-2.866 0-5.19-2.322-5.19-5.19 0-2.866 2.324-5.191 5.19-5.191 2.868 0 5.192 2.325 5.192 5.191 0 1.423-0.574 2.71-1.5 3.648h5.652c-0.927-0.938-1.501-2.226-1.501-3.648 0-2.866 2.324-5.191 5.192-5.191 2.866 0 5.19 2.325 5.19 5.191s-2.323 5.19-5.189 5.19zM8.467 11.326c-1.911 0-3.46 1.549-3.46 3.46s1.549 3.462 3.46 3.462c1.912 0 3.462-1.551 3.462-3.462s-1.55-3.46-3.462-3.46zM21.503 11.326c-1.911 0-3.46 1.549-3.46 3.46s1.549 3.462 3.46 3.462 3.461-1.551 3.461-3.462-1.55-3.46-3.461-3.46z" fill="#000000"></path>
</svg>
