<?xml version="1.0" encoding="utf-8"?>
<!-- Generated by IcoMoon.io -->
<!DOCTYPE svg PUBLIC "-//W3C//DTD SVG 1.1//EN" "http://www.w3.org/Graphics/SVG/1.1/DTD/svg11.dtd">
<svg version="1.1" xmlns="http://www.w3.org/2000/svg" xmlns:xlink="http://www.w3.org/1999/xlink" width="30" height="30" viewBox="0 0 30 30">
<g>
	<line stroke-width="1" x1="" y1="" x2="" y2="" stroke="#449FDB" opacity=""></line>
</g>
	<path d="M25.145 22.965c-1.019 0.88-2.124 1.603-3.287 2.146-3.093-0.572-7.056-2.871-10.613-6.43-3.556-3.555-5.854-7.513-6.428-10.604 0.544-1.166 1.267-2.272 2.148-3.293l4.282 4.836c-0.367 0.504-0.709 1.014-0.995 1.531l0.019 0.019c-0.501 1.1 0.659 3.495 2.828 5.663 2.17 2.17 4.563 3.328 5.664 2.828l0.019 0.019c0.517-0.285 1.027-0.628 1.532-0.995l4.831 4.28z" fill="#000000"></path>
</svg>
