<?xml version="1.0" encoding="UTF-8" standalone="no"?>
<!-- Created with Inkscape (http://www.inkscape.org/) -->

<svg
   xmlns:dc="http://purl.org/dc/elements/1.1/"
   xmlns:cc="http://creativecommons.org/ns#"
   xmlns:rdf="http://www.w3.org/1999/02/22-rdf-syntax-ns#"
   xmlns:svg="http://www.w3.org/2000/svg"
   xmlns="http://www.w3.org/2000/svg"
   xmlns:inkscape="http://www.inkscape.org/namespaces/inkscape"
   version="1.1"
   width="30"
   height="30"
   viewBox="0 0 30 30"
   id="svg2">
  <metadata
     id="metadata10">
    <rdf:RDF>
      <cc:Work
         rdf:about="">
        <dc:format>image/svg+xml</dc:format>
        <dc:type
           rdf:resource="http://purl.org/dc/dcmitype/StillImage" />
      </cc:Work>
    </rdf:RDF>
  </metadata>
  <defs
     id="defs8" />
  <path
     d="m 24.866,13.29 h -2.544 v 2.544 c -0.51,0.124 -0.693,0.123 -1.202,-0.002 V 13.29 h -2.54 c -0.124,-0.51 -0.123,-0.693 0,-1.202 h 2.54 V 9.55 c 0.51,-0.125 0.693,-0.126 1.202,0 v 2.538 h 2.542 c 0.126,0.51 0.126,0.693 0.002,1.203 z m -12.13,0.577 c -2.235,0 -4.047,-1.812 -4.047,-4.046 0,-2.234 1.81,-4.04 4.04,-4.04 2.23,0 4.05,1.81 4.05,4.05 0,2.24 -1.81,4.05 -4.05,4.05 z m 0,4.194 3.093,-3.09 c 2.36,0.81 3.99,2.49 3.99,4.45 0,1.97 -0.39,3.8 -1.06,5.35 H 6.7 c -0.666,-1.55 -1.055,-3.38 -1.057,-5.35 h 0.005 c 0,-1.96 1.633,-3.64 3.996,-4.45 l 3.092,3.1 z"
     inkscape:connector-curvature="0"
     id="path4" />
</svg>
