<?xml version="1.0" encoding="UTF-8" standalone="no"?>
<!-- Created with Inkscape (http://www.inkscape.org/) -->

<svg
   xmlns:dc="http://purl.org/dc/elements/1.1/"
   xmlns:cc="http://creativecommons.org/ns#"
   xmlns:rdf="http://www.w3.org/1999/02/22-rdf-syntax-ns#"
   xmlns:svg="http://www.w3.org/2000/svg"
   xmlns="http://www.w3.org/2000/svg"
   xmlns:inkscape="http://www.inkscape.org/namespaces/inkscape"
   version="1.1"
   width="30"
   height="30"
   viewBox="0 0 30 30"
   id="svg2">
  <metadata
     id="metadata10">
    <rdf:RDF>
      <cc:Work
         rdf:about="">
        <dc:format>image/svg+xml</dc:format>
        <dc:type
           rdf:resource="http://purl.org/dc/dcmitype/StillImage" />
      </cc:Work>
    </rdf:RDF>
  </metadata>
  <defs
     id="defs8" />
  <path
     d="m 25.82,12.448 c -0.68,0 -1.294,0.324 -1.752,0.843 L 24.06,13.289 c -0.215,0.26 -0.528,0.437 -0.892,0.437 -0.648,0 -1.173,-0.525 -1.173,-1.173 v -4.19 c 0,-0.56 -0.46,-1.02 -1.02,-1.02 h -0.7 c -1.317,0.094 -2.366,0.164 -3.483,0.208 l 0.042,-0.003 c -0.648,0 -1.173,-0.525 -1.173,-1.173 0,-0.372 0.186,-0.69 0.456,-0.905 L 16.113,5.457 H 16.1 c 0.508,-0.456 0.826,-1.062 0.826,-1.734 0,-1.41 -1.372,-2.553 -3.064,-2.553 -1.692,0 -3.064,1.143 -3.064,2.553 0,0.68 0.324,1.293 0.843,1.75 l -0.002,0.008 c 0.26,0.216 0.437,0.53 0.437,0.893 0,0.648 -0.525,1.173 -1.173,1.173 l 0.038,0.005 C 9.398,7.512 7.881,7.447 6.427,7.342 H 6.03 c -0.562,0 -1.02,0.46 -1.02,1.022 v 4.19 c 0,0.647 0.524,1.172 1.172,1.172 0.364,0 0.595,-0.176 0.81,-0.437 L 7,13.29 c 0.458,-0.518 1.07,-0.842 1.75,-0.842 1.41,0 2.553,1.372 2.553,3.064 0,1.692 -1.143,3.064 -2.553,3.064 -0.672,0 -1.278,-0.318 -1.734,-0.827 v 0.012 l -0.012,0.005 c -0.215,-0.27 -0.45,-0.455 -0.822,-0.455 -0.648,0 -1.173,0.525 -1.173,1.173 v 4.176 c 0,0.563 0.46,1.022 1.02,1.022 H 5.842 c 2.61,0.17 5.365,0.262 8.218,0.262 2.854,0 4.502,-0.093 7.113,-0.262 h -0.198 c 0.562,0 1.02,-0.46 1.02,-1.02 v -4.177 c 0,-0.648 0.526,-1.173 1.174,-1.173 0.37,0 0.69,0.184 0.904,0.455 l 0.012,-0.005 v -0.013 c 0.456,0.508 1.062,0.826 1.734,0.826 1.41,0 2.553,-1.372 2.553,-3.064 0,-1.692 -1.144,-3.064 -2.554,-3.064 z"
     inkscape:connector-curvature="0"
     id="path4" />
</svg>
