<?xml version="1.0" encoding="iso-8859-1"?>
<!-- Generator: Adobe Illustrator 18.1.0, SVG Export Plug-In . SVG Version: 6.00 Build 0)  -->
<svg version="1.1" id="&#x5716;&#x5C64;_1" xmlns="http://www.w3.org/2000/svg" xmlns:xlink="http://www.w3.org/1999/xlink" x="0px"
	 y="0px" viewBox="0 0 30 30" style="enable-background:new 0 0 30 30;" xml:space="preserve">
<path d="M25.819,12.448c-0.68,0-1.293,0.324-1.751,0.843l-0.008-0.003c-0.215,0.261-0.528,0.437-0.892,0.437
	c-0.648,0-1.173-0.525-1.173-1.173V8.363c0-0.562-0.46-1.021-1.021-1.021h-0.698c-1.318,0.094-2.367,0.164-3.484,0.208
	c0.013-0.001,0.042-0.003,0.042-0.003c-0.648,0-1.173-0.525-1.173-1.173c0-0.372,0.185-0.69,0.455-0.905l-0.004-0.012h-0.013
	c0.509-0.456,0.827-1.062,0.827-1.734c0-1.41-1.372-2.553-3.064-2.553c-1.692,0-3.064,1.143-3.064,2.553
	c0,0.679,0.324,1.293,0.843,1.75l-0.003,0.008c0.261,0.215,0.437,0.528,0.437,0.892c0,0.648-0.525,1.173-1.173,1.173
	c-0.001,0,0.018,0.003,0.038,0.005c-1.543-0.042-3.06-0.106-4.514-0.21H6.03c-0.562,0-1.021,0.459-1.021,1.021v4.189
	c0,0.648,0.525,1.173,1.173,1.173c0.364,0,0.595-0.176,0.81-0.437L7,13.291c0.458-0.519,1.071-0.843,1.75-0.843
	c1.41,0,2.553,1.372,2.553,3.064c0,1.692-1.143,3.064-2.553,3.064c-0.672,0-1.278-0.318-1.734-0.827v0.013l-0.012,0.005
	c-0.215-0.271-0.45-0.455-0.822-0.455c-0.648,0-1.173,0.525-1.173,1.173v4.176c0,0.562,0.46,1.021,1.021,1.021H5.843
	c2.61,0.169,5.365,0.262,8.218,0.262c2.853,0,4.501-0.093,7.112-0.262h-0.198c0.562,0,1.021-0.46,1.021-1.021v-4.176
	c0-0.648,0.525-1.173,1.173-1.173c0.372,0,0.69,0.184,0.905,0.455l0.012-0.005v-0.013c0.456,0.509,1.062,0.827,1.734,0.827
	c1.41,0,2.553-1.372,2.553-3.064C28.372,13.82,27.229,12.448,25.819,12.448z"/>
</svg>
