<?xml version="1.0" encoding="utf-8"?>
<!-- Generator: Adobe Illustrator 17.1.0, SVG Export Plug-In . SVG Version: 6.00 Build 0)  -->
<!DOCTYPE svg PUBLIC "-//W3C//DTD SVG 1.1//EN" "http://www.w3.org/Graphics/SVG/1.1/DTD/svg11.dtd">
<svg version="1.1" id="Layer_1" xmlns="http://www.w3.org/2000/svg" xmlns:xlink="http://www.w3.org/1999/xlink" x="0px" y="0px"
	 viewBox="0 0 30 30" enable-background="new 0 0 30 30" xml:space="preserve">
<g>
	<g>
		<path fill-rule="evenodd" clip-rule="evenodd" d="M28,15c0-1.1-3.4-2.1-8.1-2.4l-7-8.2c-0.4-0.5-2.4-0.6-2.4-0.6L9,3.9l4.5,8.9
			c-2.4,0.3-5,0.8-6.4,1.3l-2.5-3.4c-0.3-0.6-0.9-0.6-0.9-0.6l-1.6,0l2.1,5l-2.1,5l1.6,0c0,0,0.6,0,0.9-0.6L7.3,16
			c1.4,0.5,3.9,1,6.1,1.2L9,26l3.1,0c0,0,0.5,0,0.9-0.6l6.8-8C24.5,17.1,28,16.2,28,15z"/>
	</g>
</g>
</svg>
