<?xml version="1.0" encoding="UTF-8" standalone="no"?>
<!-- Created with Inkscape (http://www.inkscape.org/) -->

<svg
   xmlns:dc="http://purl.org/dc/elements/1.1/"
   xmlns:cc="http://creativecommons.org/ns#"
   xmlns:rdf="http://www.w3.org/1999/02/22-rdf-syntax-ns#"
   xmlns:svg="http://www.w3.org/2000/svg"
   xmlns="http://www.w3.org/2000/svg"
   xmlns:inkscape="http://www.inkscape.org/namespaces/inkscape"
   version="1.1"
   width="30"
   height="30"
   viewBox="0 0 30 30"
   id="svg2">
  <metadata
     id="metadata10">
    <rdf:RDF>
      <cc:Work
         rdf:about="">
        <dc:format>image/svg+xml</dc:format>
        <dc:type
           rdf:resource="http://purl.org/dc/dcmitype/StillImage" />
      </cc:Work>
    </rdf:RDF>
  </metadata>
  <defs
     id="defs8" />
  <path
     d="m 26.786,15.084 c 0,-1.02 -3.1,-1.876 -7.316,-2.135 l -6.338,-7.44 c -0.36,-0.47 -2.167,-0.51 -2.167,-0.51 H 9.528 l 4.04,8.1 c -2.134,0.25 -4.512,0.68 -5.797,1.21 L 5.53,11.2 C 5.243,10.7 4.716,10.7 4.716,10.7 h -1.5 l 1.947,4.57 -1.946,4.574 H 4.71 c 0,0 0.528,0 0.813,-0.5 L 7.98,15.94 c 1.31,0.485 3.51,0.88 5.51,1.118 L 9.53,25 12.298,24.998 c 0,0 0.477,-0.045 0.835,-0.512 l 6.18,-7.256 c 4.295,-0.248 7.473,-1.113 7.47,-2.146 z"
     inkscape:connector-curvature="0"
     id="path4" />
</svg>
