<svg xmlns="http://www.w3.org/2000/svg" width="30" height="30" viewBox="0 0 30 30"><path stroke="#449FDB" d="M0 0"/><path d="M1.868 11.558c-.675 1.311-1.094 2.776-1.094 4.35 0 1.571.418 3.035 1.091 4.344l1.086-.578c-.581-1.137-.94-2.405-.94-3.766 0-1.364.359-2.635.94-3.769l-1.083-.581zm2.273 2.154c-.276.679-.437 1.418-.437 2.195 0 .775.161 1.515.437 2.194l.901-.42c-.216-.553-.346-1.148-.346-1.774 0-.629.13-1.226.346-1.777l-.901-.418zm23.861-2.154l-1.085.581c.581 1.134.942 2.405.942 3.769 0 1.36-.361 2.629-.942 3.766l1.087.578c.673-1.309 1.093-2.772 1.093-4.344 0-1.575-.42-3.04-1.095-4.35zm-3.173 2.572c.216.551.346 1.148.346 1.777 0 .626-.13 1.222-.346 1.774l.899.42c.277-.68.438-1.419.438-2.194 0-.777-.16-1.516-.438-2.195l-.899.418zm-3.508 7.064c1.366-1.528 2.226-3.524 2.226-5.735 0-4.769-3.87-8.639-8.635-8.639-4.771 0-8.638 3.87-8.638 8.639 0 2.257.888 4.302 2.312 5.84l-2.17 2.171c-.348.349-.348.911 0 1.261.174.171.403.258.63.258s.455-.087.628-.258l2.245-2.248c1.414 1.008 3.128 1.611 4.993 1.611 1.913 0 3.663-.643 5.095-1.697l2.14 2.142c.175.172.402.261.63.261s.456-.089.63-.261c.349-.348.349-.912 0-1.258l-2.086-2.087zm-2.16-8.705l-4.021 3.836c-.113.107-.261.163-.409.163-.136 0-.27-.045-.38-.139l-3.016-2.505c-.251-.208-.283-.583-.076-.833.208-.256.581-.288.835-.08l2.609 2.17 3.636-3.47c.239-.228.617-.216.84.018.227.239.217.614-.018.84zm-7.557-6.474l.112-.09c-1.282-1.539-3.566-1.747-5.104-.469-1.539 1.283-1.747 3.569-.467 5.106l.189-.156c1.223-1.978 3.056-3.523 5.27-4.391zm6.5-.09l.116.09c2.212.868 4.044 2.414 5.27 4.391l.188.156c1.28-1.537 1.07-3.823-.467-5.106-1.542-1.278-3.825-1.07-5.107.469z" visibility="false"/></svg>