<?xml version="1.0" encoding="utf-8"?>
<!-- Generator: Adobe Illustrator 17.1.0, SVG Export Plug-In . SVG Version: 6.00 Build 0)  -->
<!DOCTYPE svg PUBLIC "-//W3C//DTD SVG 1.1//EN" "http://www.w3.org/Graphics/SVG/1.1/DTD/svg11.dtd">
<svg version="1.1" id="Layer_1" xmlns="http://www.w3.org/2000/svg" xmlns:xlink="http://www.w3.org/1999/xlink" x="0px" y="0px"
	 viewBox="0 0 30 30" enable-background="new 0 0 30 30" xml:space="preserve">
<g>
	<g>
		<path fill-rule="evenodd" clip-rule="evenodd" d="M15,27.8c1.6,0,2.9-1.1,3.3-2.6h-6.6C12,26.7,13.4,27.8,15,27.8z M26.2,21.9
			c0-0.6-0.3-1.1-0.8-1.4v0c-1.6-1.1-2.6-2.8-2.6-4.7c0,0,0,0,0,0v-5.2c0-2.5-1.9-4.7-4.5-5.7C18,3.3,16.6,2.2,15,2.2
			c-1.6,0-3,1.2-3.3,2.7C9,5.9,7.1,8,7.1,10.5v5.2c0,0,0,0,0,0c0,1.9-1,3.5-2.6,4.7v0c-0.5,0.3-0.8,0.8-0.8,1.4
			c0,0.9,0.8,1.7,1.7,1.7c0,0,0,0,0,0h19c0,0,0,0,0,0C25.5,23.6,26.2,22.9,26.2,21.9z"/>
	</g>
</g>
</svg>
