<?xml version="1.0" encoding="UTF-8" standalone="no"?>
<!-- Created with Inkscape (http://www.inkscape.org/) -->

<svg
   xmlns:dc="http://purl.org/dc/elements/1.1/"
   xmlns:cc="http://creativecommons.org/ns#"
   xmlns:rdf="http://www.w3.org/1999/02/22-rdf-syntax-ns#"
   xmlns:svg="http://www.w3.org/2000/svg"
   xmlns="http://www.w3.org/2000/svg"
   xmlns:inkscape="http://www.inkscape.org/namespaces/inkscape"
   version="1.1"
   width="960"
   height="960"
   viewBox="0 0 960 960"
   id="svg2">
  <metadata
     id="metadata10">
    <rdf:RDF>
      <cc:Work
         rdf:about="">
        <dc:format>image/svg+xml</dc:format>
        <dc:type
           rdf:resource="http://purl.org/dc/dcmitype/StillImage" />
      </cc:Work>
    </rdf:RDF>
  </metadata>
  <defs
     id="defs8" />
  <path
     d="m 480,828.496 c -47.386,0 -86.865,-36.828 -89.47,-84.214 h 178.936 c -2.65,47.386 -42.128,84.214 -89.47,84.214 z M 732.64,702.153 H 227.36 c -42.13,0 -49.988,-71.053 -34.226,-84.214 l 7.904,-10.51 c 39.48,-28.97 65.8,-68.41 68.404,-115.79 V 352.18 h 2.65 c 5.255,-60.546 52.638,-110.534 118.44,-136.852 0,-5.255 -2.65,-7.903 -2.65,-10.51 0,-52.637 42.128,-92.116 92.118,-92.116 49.99,0 89.47,39.48 89.47,92.118 v 10.51 c 65.8,23.67 113.183,76.31 118.44,136.852 h 2.65 v 139.46 c 2.648,47.385 28.966,86.864 68.403,115.788 l 7.904,7.904 c 15.81,13.16 7.904,86.865 -34.225,86.865 z"
     inkscape:connector-curvature="0"
     id="path4" />
</svg>
