<?xml version="1.0" encoding="utf-8"?>
<!-- Generated by IcoMoon.io -->
<!DOCTYPE svg PUBLIC "-//W3C//DTD SVG 1.1//EN" "http://www.w3.org/Graphics/SVG/1.1/DTD/svg11.dtd">
<svg version="1.1" xmlns="http://www.w3.org/2000/svg" xmlns:xlink="http://www.w3.org/1999/xlink" width="30" height="30" viewBox="0 0 30 30">
<g>
	<line stroke-width="1" x1="" y1="" x2="" y2="" stroke="#449FDB" opacity=""></line>
</g>
	<path d="M23.833 20.268c0-0.503-0.248-0.946-0.625-1.212v-0.019c-1.326-0.971-2.165-2.376-2.165-3.945 0-0.001 0-0.002 0-0.003v-4.428c0-2.127-1.537-3.956-3.75-4.801-0.267-1.306-1.397-2.288-2.754-2.288s-2.492 0.985-2.756 2.295c-2.203 0.849-3.731 2.673-3.731 4.794v4.428c0 0.001 0 0.002 0 0.003 0 1.569-0.839 2.974-2.166 3.945v0.019c-0.376 0.266-0.625 0.709-0.625 1.212 0 0.803 0.629 1.453 1.411 1.469 0 0.001-0.001 0.002-0.001 0.003h15.751c0-0.001 0-0.002-0.001-0.003 0.782-0.016 1.412-0.667 1.412-1.469zM19.104 19.723v0.007l-11.262-0.007c1.32-1.060 2.128-2.403 2.15-3.876v-5.187h0.027c0.001-1.87 2.028-3.384 4.529-3.384 2.5 0 4.527 1.514 4.528 3.384h0.027v5.187c0.021 1.473 0.83 2.816 2.15 3.876h-2.149zM14.539 25.283c1.33 0 2.438-0.947 2.732-2.216h-5.464c0.295 1.269 1.402 2.216 2.732 2.216z" fill="#000000"></path>
</svg>
