<?xml version="1.0" encoding="utf-8"?>
<!-- Generated by IcoMoon.io -->
<!DOCTYPE svg PUBLIC "-//W3C//DTD SVG 1.1//EN" "http://www.w3.org/Graphics/SVG/1.1/DTD/svg11.dtd">
<svg version="1.1" xmlns="http://www.w3.org/2000/svg" xmlns:xlink="http://www.w3.org/1999/xlink" width="30" height="30" viewBox="0 0 30 30">
<g>
	<line stroke-width="1" x1="" y1="" x2="" y2="" stroke="#449FDB" opacity=""></line>
</g>
	<path d="M15 23.438c-1.055 0-1.934-0.82-1.992-1.875h3.984c-0.059 1.055-0.938 1.875-1.992 1.875zM20.625 20.625h-11.25c-0.938 0-1.113-1.582-0.762-1.875l0.176-0.234c0.879-0.645 1.465-1.523 1.523-2.578v0-3.105h0.059c0.117-1.348 1.172-2.461 2.637-3.047 0-0.117-0.059-0.176-0.059-0.234 0-1.172 0.938-2.051 2.051-2.051s1.992 0.879 1.992 2.051v0.234c1.465 0.527 2.52 1.699 2.637 3.047h0.059v3.105c0.059 1.055 0.645 1.934 1.523 2.578l0.176 0.176c0.352 0.293 0.176 1.934-0.762 1.934z" fill="#000000"></path>
</svg>
