<?xml version="1.0" encoding="utf-8"?>
<!-- Generated by IcoMoon.io -->
<!DOCTYPE svg PUBLIC "-//W3C//DTD SVG 1.1//EN" "http://www.w3.org/Graphics/SVG/1.1/DTD/svg11.dtd">
<svg version="1.1" xmlns="http://www.w3.org/2000/svg" xmlns:xlink="http://www.w3.org/1999/xlink" width="960" height="960" viewBox="0 0 960 960">
<g id="icomoon-ignore">
</g>
	<path d="M480 828.496c-47.386 0-86.865-36.828-89.47-84.214h178.936c-2.649 47.386-42.128 84.214-89.47 84.214zM732.641 702.153h-505.282c-42.128 0-49.987-71.053-34.225-84.214l7.904-10.509c39.48-28.967 65.799-68.404 68.404-115.789v0-139.459h2.649c5.256-60.546 52.639-110.534 118.44-136.852 0-5.256-2.649-7.904-2.649-10.509 0-52.639 42.128-92.118 92.118-92.118s89.47 39.48 89.47 92.118v10.509c65.799 23.67 113.183 76.31 118.44 136.852h2.649v139.459c2.649 47.386 28.967 86.865 68.404 115.789l7.904 7.904c15.809 13.161 7.904 86.865-34.225 86.865z"></path>
</svg>
