<?xml version="1.0" encoding="UTF-8" standalone="no"?>
<!-- Created with Inkscape (http://www.inkscape.org/) -->

<svg
   xmlns:dc="http://purl.org/dc/elements/1.1/"
   xmlns:cc="http://creativecommons.org/ns#"
   xmlns:rdf="http://www.w3.org/1999/02/22-rdf-syntax-ns#"
   xmlns:svg="http://www.w3.org/2000/svg"
   xmlns="http://www.w3.org/2000/svg"
   xmlns:inkscape="http://www.inkscape.org/namespaces/inkscape"
   version="1.1"
   width="30"
   height="30"
   viewBox="0 0 30 30"
   id="svg2">
  <metadata
     id="metadata10">
    <rdf:RDF>
      <cc:Work
         rdf:about="">
        <dc:format>image/svg+xml</dc:format>
        <dc:type
           rdf:resource="http://purl.org/dc/dcmitype/StillImage" />
      </cc:Work>
    </rdf:RDF>
  </metadata>
  <defs
     id="defs8" />
  <path
     d="m 17.705,25.514 c -2.8,0.72 -5.622,0.273 -7.964,-1.027 l 3.29,-7.51 V 16.972 L 5.52,20.26 C 5.084,19.47 4.73,18.62 4.493,17.702 2.993,11.899 6.487,5.979 12.295,4.482 c 2.8,-0.72 5.624,-0.27 7.967,1.03 l -3.29,7.51 0.01,0.003 7.506,-3.288 c 0.438,0.79 0.793,1.637 1.027,2.553 1.5,5.81 -1.995,11.73 -7.804,13.22 z M 15,12.624 c -1.31,0 -2.374,1.064 -2.374,2.376 0,1.312 1.064,2.374 2.374,2.374 1.31,0 2.375,-1.062 2.375,-2.374 0,-1.312 -1.065,-2.375 -2.375,-2.375 z"
     inkscape:connector-curvature="0"
     id="path4" />
</svg>
