<?xml version="1.0" encoding="UTF-8" standalone="no"?>
<!-- Created with Inkscape (http://www.inkscape.org/) -->

<svg
   xmlns:dc="http://purl.org/dc/elements/1.1/"
   xmlns:cc="http://creativecommons.org/ns#"
   xmlns:rdf="http://www.w3.org/1999/02/22-rdf-syntax-ns#"
   xmlns:svg="http://www.w3.org/2000/svg"
   xmlns="http://www.w3.org/2000/svg"
   xmlns:inkscape="http://www.inkscape.org/namespaces/inkscape"
   version="1.1"
   width="30"
   height="30"
   viewBox="0 0 30 30"
   id="svg2">
  <metadata
     id="metadata10">
    <rdf:RDF>
      <cc:Work
         rdf:about="">
        <dc:format>image/svg+xml</dc:format>
        <dc:type
           rdf:resource="http://purl.org/dc/dcmitype/StillImage" />
      </cc:Work>
    </rdf:RDF>
  </metadata>
  <defs
     id="defs8" />
  <path
     d="m 14.12,19.277 0.118,-0.996 h -3.81 c 2.58,-2.63 3.634,-3.92 3.634,-5.56 0,-1.46 -0.996,-2.52 -2.578,-2.52 -1.055,0 -1.875,0.47 -2.578,1.35 l 0.82,0.65 c 0.527,-0.646 0.996,-0.997 1.7,-0.997 0.82,0 1.405,0.586 1.405,1.58 0,1.407 -0.76,2.4 -3.75,5.567 v 0.94 h 5.04 z m 4.747,-5.566 -0.117,2.41 h -2.285 l 2.227,-5.51 -0.996,-0.41 -2.46,6.04 v 0.88 h 3.515 v 2.168 h 1.18 v -2.17 h 1.117 V 16.123 H 19.93 v -2.41 h -1.06 z m 6.973,3.87 2.285,-2.99 c -0.586,-0.29 -1.23,-0.47 -1.992,-0.58 C 25.663,8.269 20.8,3.751 14.943,3.751 8.73,3.75 3.693,8.79 3.693,15 c 0,6.21 5.037,11.25 11.25,11.25 3.103,0 5.916,-1.29 7.967,-3.28 l -1.288,-1.29 c -1.7,1.7 -4.043,2.754 -6.62,2.754 -5.216,0 -9.435,-4.22 -9.435,-9.434 0,-5.214 4.22,-9.434 9.433,-9.434 4.864,0 8.907,3.69 9.376,8.438 -0.703,0.117 -1.348,0.293 -1.875,0.586 l 2.29,2.988 c 0.3,0.352 0.76,0.352 1.06,0 z"
     inkscape:connector-curvature="0"
     id="path4" />
</svg>
