<?xml version="1.0" encoding="UTF-8" standalone="no"?>
<!-- Created with Inkscape (http://www.inkscape.org/) -->

<svg
   xmlns:dc="http://purl.org/dc/elements/1.1/"
   xmlns:cc="http://creativecommons.org/ns#"
   xmlns:rdf="http://www.w3.org/1999/02/22-rdf-syntax-ns#"
   xmlns:svg="http://www.w3.org/2000/svg"
   xmlns="http://www.w3.org/2000/svg"
   xmlns:inkscape="http://www.inkscape.org/namespaces/inkscape"
   version="1.1"
   width="30"
   height="30"
   viewBox="0 0 30 30"
   id="svg2">
  <metadata
     id="metadata10">
    <rdf:RDF>
      <cc:Work
         rdf:about="">
        <dc:format>image/svg+xml</dc:format>
        <dc:type
           rdf:resource="http://purl.org/dc/dcmitype/StillImage" />
      </cc:Work>
    </rdf:RDF>
  </metadata>
  <defs
     id="defs8" />
  <path
     d="m 23.882,11.22 2.457,-0.755 0.566,1.795 -2.457,0.756 -0.568,-1.796 z m -2.08,-3.023 1.985,-1.606 1.23,1.418 -1.986,1.606 -1.227,-1.417 z m -3.117,-2.08 1.228,-2.267 1.7,0.85 -1.227,2.27 -1.7,-0.852 z m 0.567,10.49 h 0.945 v 0.85 h -0.945 v 1.89 h -1.04 v -1.89 H 15.094 V 16.7 l 2.174,-5.102 0.85,0.378 -1.984,4.63 h 2.08 l 0.093,-2.078 h 0.945 v 2.078 z m -5.197,2.645 h -4.44 v -0.85 c 0.66,-0.662 1.228,-1.23 1.605,-1.7 0.473,-0.474 0.756,-0.852 1.04,-1.23 0.283,-0.378 0.378,-0.66 0.472,-0.944 0.095,-0.284 0.19,-0.567 0.19,-0.85 0,-0.473 -0.095,-0.757 -0.38,-0.946 -0.282,-0.19 -0.566,-0.378 -0.944,-0.378 -0.283,0 -0.567,0.095 -0.85,0.19 -0.19,0.094 -0.472,0.377 -0.756,0.66 l -0.66,-0.566 c 0.282,-0.378 0.66,-0.662 1.038,-0.85 0.378,-0.19 0.756,-0.284 1.323,-0.284 0.378,0 0.66,0.094 0.945,0.19 0.283,0.093 0.567,0.282 0.756,0.47 0.19,0.19 0.378,0.38 0.472,0.663 0.095,0.283 0.19,0.567 0.19,0.85 0,0.378 -0.095,0.662 -0.19,1.04 -0.094,0.283 -0.283,0.66 -0.567,1.04 -0.284,0.377 -0.568,0.755 -0.946,1.227 -0.378,0.473 -0.85,0.945 -1.51,1.512 h 3.306 l -0.095,0.756 z M 14.905,4.89 C 9.332,4.89 4.796,9.425 4.796,15 c 0,5.575 4.536,10.11 10.11,10.11 4.158,0 7.654,-2.456 9.26,-6.047 l 1.89,0.378 C 24.26,23.883 20.008,27 14.905,27 c -6.614,0 -12,-5.386 -12,-12 0,-6.614 5.386,-12 12,-12 0.85,0 1.7,0.094 2.552,0.283 l -0.284,1.89 C 16.417,4.983 15.661,4.89 14.906,4.89 z m 9.638,10.016 2.55,0.283 -0.187,1.89 -2.457,-0.285 0.093,-1.89 z"
     inkscape:connector-curvature="0"
     id="path4" />
</svg>
