<?xml version="1.0" encoding="utf-8"?>
<!-- Generated by IcoMoon.io -->
<!DOCTYPE svg PUBLIC "-//W3C//DTD SVG 1.1//EN" "http://www.w3.org/Graphics/SVG/1.1/DTD/svg11.dtd">
<svg version="1.1" xmlns="http://www.w3.org/2000/svg" xmlns:xlink="http://www.w3.org/1999/xlink" width="30" height="30" viewBox="0 0 30 30">
<g>
	<line stroke-width="1" x1="" y1="" x2="" y2="" stroke="#449FDB" opacity=""></line>
</g>
	<path d="M14.121 19.277l0.117-0.996h-3.809c2.578-2.637 3.633-3.926 3.633-5.566 0-1.465-0.996-2.52-2.578-2.52-1.055 0-1.875 0.469-2.578 1.348l0.82 0.645c0.527-0.645 0.996-0.996 1.699-0.996 0.82 0 1.406 0.586 1.406 1.582 0 1.406-0.762 2.402-3.75 5.566v0.938h5.039zM18.867 13.711l-0.117 2.402h-2.285l2.227-5.508-0.996-0.41-2.461 6.035v0.879h3.516v2.168h1.172v-2.168h1.113v-0.996h-1.113v-2.402h-1.055zM25.84 17.578l2.285-2.988c-0.586-0.293-1.23-0.469-1.992-0.586-0.469-5.742-5.332-10.254-11.191-10.254-6.211 0-11.25 5.039-11.25 11.25s5.039 11.25 11.25 11.25c3.105 0 5.918-1.289 7.969-3.281l-1.289-1.289c-1.699 1.699-4.043 2.754-6.621 2.754-5.215 0-9.434-4.219-9.434-9.434s4.219-9.434 9.434-9.434c4.863 0 8.906 3.691 9.375 8.438-0.703 0.117-1.348 0.293-1.875 0.586l2.285 2.988c0.293 0.352 0.762 0.352 1.055 0z" fill="#000000"></path>
</svg>
