<?xml version="1.0" encoding="utf-8"?>
<!-- Generated by IcoMoon.io -->
<!DOCTYPE svg PUBLIC "-//W3C//DTD SVG 1.1//EN" "http://www.w3.org/Graphics/SVG/1.1/DTD/svg11.dtd">
<svg version="1.1" xmlns="http://www.w3.org/2000/svg" xmlns:xlink="http://www.w3.org/1999/xlink" width="30" height="30" viewBox="0 0 30 30">
<g>
	<line stroke-width="1" x1="" y1="" x2="" y2="" stroke="#449FDB" opacity=""></line>
</g>
	<path d="M21.826 10.339l1.022 1.024-11.922 11.922c-0.002 0-0.002 0-0.002 0-1.615 1.617-4.235 1.617-5.853 0-1.616-1.615-1.616-4.236 0-5.854 0.002 0 11.921-11.919 11.923-11.924 2.185-2.181 5.722-2.181 7.903 0s2.182 5.719 0.002 7.903v0l-10.027 10.028-1.024-1.023 10.023-10.028c1.616-1.618 1.616-4.235 0-5.851s-4.235-1.618-5.851-0.002l-11.925 11.925c-1.051 1.051-1.051 2.754 0 3.803 1.049 1.053 2.754 1.052 3.804-0.001l11.927-11.922z" fill="#000000"></path>
</svg>
