<?xml version="1.0" encoding="utf-8"?>
<!-- Generated by IcoMoon.io -->
<!DOCTYPE svg PUBLIC "-//W3C//DTD SVG 1.1//EN" "http://www.w3.org/Graphics/SVG/1.1/DTD/svg11.dtd">
<svg version="1.1" xmlns="http://www.w3.org/2000/svg" xmlns:xlink="http://www.w3.org/1999/xlink" width="30" height="30" viewBox="0 0 30 30">
<g>
	<line stroke-width="1" x1="" y1="" x2="" y2="" stroke="#449FDB" opacity=""></line>
</g>
	<path d="M23.061 6.456c-2.215-2.215-5.806-2.215-8.021 0l-10.502 10.502c0 0-0.001 0-0.001 0.001-1.741 1.74-1.741 4.562 0 6.302s4.562 1.74 6.302 0v0l7.639-7.639c1.266-1.266 1.266-3.318 0-4.583s-3.318-1.265-4.584 0c0 0 0 0.001 0 0.001l-6.206 6.207 1.432 1.432 6.207-6.206c0.494-0.495 1.28-0.511 1.755-0.036s0.458 1.26-0.036 1.754v0l-7.639 7.639c-0.989 0.988-2.56 1.021-3.509 0.071s-0.917-2.52 0.072-3.509v0l10.504-10.503c1.424-1.424 3.732-1.424 5.156 0s1.424 3.732 0 5.156l-9.071 9.071 1.432 1.433 9.071-9.072c2.213-2.216 2.213-5.807-0.001-8.021z" fill="#000000"></path>
</svg>
