<?xml version="1.0" encoding="utf-8"?>
<!-- Generator: Adobe Illustrator 18.0.0, SVG Export Plug-In . SVG Version: 6.00 Build 0)  -->
<!DOCTYPE svg PUBLIC "-//W3C//DTD SVG 1.1//EN" "http://www.w3.org/Graphics/SVG/1.1/DTD/svg11.dtd">
<svg version="1.1" id="圖層_1" xmlns="http://www.w3.org/2000/svg" xmlns:xlink="http://www.w3.org/1999/xlink" x="0px" y="0px"
	 width="30px" height="30px" viewBox="0 0 30 30" enable-background="new 0 0 30 30" xml:space="preserve">
<g>
	<g>
		<path fill="#231815" d="M11.6,16.1c0.2,0.2,0.9,0.9,1.7,1.7l0,0c0.3,0.3,0.4,0.4,2.1,2.1c0.4,0.4,0.8,0.8,1.2,1.1c0,0,0,0,0,0
			c0.6,0.6,1.3,1.3,2.1,2.1c0.5-0.6,0.5-1.5,0-2.1c0,0,0,0,0,0l-6-6.1l6-6c0.6-0.6,0.6-1.5,0-2.1c-0.5,0.5-1.3,1.3-2.1,2.1
			c0,0,0,0,0,0c-1.6,1.6-4.5,4.5-5,5C11.1,14.6,11.1,15.5,11.6,16.1z"/>
	</g>
</g>
</svg>
