<?xml version="1.0" encoding="UTF-8" standalone="no"?>
<svg width="30px" height="30px" viewBox="0 0 30 30" version="1.1" xmlns="http://www.w3.org/2000/svg" xmlns:xlink="http://www.w3.org/1999/xlink" xmlns:sketch="http://www.bohemiancoding.com/sketch/ns">
    <!-- Generator: Sketch 3.0.1 (7597) - http://www.bohemiancoding.com/sketch -->
    <title>Artboard 1</title>
    <description>Created with Sketch.</description>
    <defs></defs>
    <g id="Page-1" stroke="none" stroke-width="1" fill="none" fill-rule="evenodd" sketch:type="MSPage">
        <g id="Artboard-1" sketch:type="MSArtboardGroup" fill="#000000">
            <g id="battery-06" sketch:type="MSLayerGroup" transform="translate(3.000000, 10.000000)">
                <path d="M23.76032,2.50004687 L21.84033,2.50004687 C21.6003,1.16666007 21.20036,0.166695486 20.72036,0 L1.440011,0 C0.640002,0 0,2.24998802 0,4.99996875 C0,7.74994948 0.639756,10 1.439766,10 L20.80013,10 C21.28004,9.83343993 21.68017,8.83350659 21.92008,7.50001562 L23.8401,7.50001562 C24,6.7499849 24,5.91686163 24,5.00003125 C24,4.08321129 23.9197,3.2500776 23.75977,2.50004687 L23.76032,2.50004687 Z M21,9 L13,9 L13,1 L21,1 L21,9 L21,9 Z" id="path4" sketch:type="MSShapeGroup"></path>
            </g>
        </g>
    </g>
</svg>