<?xml version="1.0" encoding="UTF-8" standalone="no"?>
<!-- Created with Inkscape (http://www.inkscape.org/) -->

<svg
   xmlns:dc="http://purl.org/dc/elements/1.1/"
   xmlns:cc="http://creativecommons.org/ns#"
   xmlns:rdf="http://www.w3.org/1999/02/22-rdf-syntax-ns#"
   xmlns:svg="http://www.w3.org/2000/svg"
   xmlns="http://www.w3.org/2000/svg"
   xmlns:inkscape="http://www.inkscape.org/namespaces/inkscape"
   version="1.1"
   width="30"
   height="30"
   viewBox="0 0 30 30"
   id="svg2">
  <metadata
     id="metadata10">
    <rdf:RDF>
      <cc:Work
         rdf:about="">
        <dc:format>image/svg+xml</dc:format>
        <dc:type
           rdf:resource="http://purl.org/dc/dcmitype/StillImage" />
      </cc:Work>
    </rdf:RDF>
  </metadata>
  <defs
     id="defs8" />
  <path
     d="M 29.7,12 H 27.3 C 27,10.4 26.5,9.2 25.9,9 H 1.8 C 0.8,9 0,11.7 0,15 c 0,3.3 0.8,6 1.8,6 H 26 c 0.6,-0.2 1.1,-1.4 1.4,-3 h 2.4 C 30,17.1 30,16.1 30,15 30,13.9 29.9,12.9 29.7,12 z M 26,20 H 2 V 10 H 26 V 20 z M 13.9,11.6 c -1,0 -1.8,0.4 -2.3,1.1 l 1,0.8 c 0.4,-0.4 0.8,-0.6 1.2,-0.6 0.4,0 0.7,0.2 0.7,0.6 0,0.8 -1.6,0.7 -1.6,2.4 v 0.3 h 1.4 V 16 c 0,-1.1 1.8,-1 1.8,-2.6 0,-1 -0.8,-1.8 -2.2,-1.8 z M 13.6,17 c -0.5,0 -0.9,0.4 -0.9,0.9 0,0.5 0.4,0.9 0.9,0.9 0.5,0 0.9,-0.4 0.9,-0.9 0,-0.4 -0.4,-0.9 -0.9,-0.9 z"
     inkscape:connector-curvature="0"
     id="path4" />
</svg>
