<?xml version="1.0" encoding="UTF-8" standalone="no"?>
<!-- Created with Inkscape (http://www.inkscape.org/) -->

<svg
   xmlns:dc="http://purl.org/dc/elements/1.1/"
   xmlns:cc="http://creativecommons.org/ns#"
   xmlns:rdf="http://www.w3.org/1999/02/22-rdf-syntax-ns#"
   xmlns:svg="http://www.w3.org/2000/svg"
   xmlns="http://www.w3.org/2000/svg"
   xmlns:inkscape="http://www.inkscape.org/namespaces/inkscape"
   version="1.1"
   width="30"
   height="30"
   viewBox="0 0 30 30"
   id="svg2">
  <metadata
     id="metadata10">
    <rdf:RDF>
      <cc:Work
         rdf:about="">
        <dc:format>image/svg+xml</dc:format>
        <dc:type
           rdf:resource="http://purl.org/dc/dcmitype/StillImage" />
      </cc:Work>
    </rdf:RDF>
  </metadata>
  <defs
     id="defs8" />
  <path
     d="m 24.436,14.482 c 0,-1.75 -0.238,-2.89 -0.613,-3.927 L 23.583,9.541 H 22.69 c -0.062,-0.02 -0.123,-0.033 -0.188,-0.033 -0.062,0 -0.125,0.013 -0.186,0.036 H 5.042 C 4.979,9.524 4.917,9.508 4.854,9.508 c -0.935,0 -1.452,1.865 -1.452,4.978 0,3.116 0.517,4.983 1.45,4.983 0.056,0 0.108,-0.012 0.16,-0.027 v 0.063 H 23.58 l 0.24,-1.088 c 0.375,-1.033 0.616,-2.18 0.616,-3.93 z M 26.252,11.7 h -3.197 c -0.064,0.38 -0.113,0.792 -0.15,1.22 v 3.133 c 0.04,0.453 0.094,0.887 0.164,1.285 h 3.165 c 0.115,-0.492 0.207,-1.264 0.262,-1.838 l -0.03,-2.468 c -0.058,-0.546 -0.11,-0.86 -0.218,-1.333 z"
     inkscape:connector-curvature="0"
     id="path4" />
</svg>
