<?xml version="1.0" encoding="utf-8"?>
<!-- Generator: Adobe Illustrator 17.1.0, SVG Export Plug-In . SVG Version: 6.00 Build 0)  -->
<!DOCTYPE svg PUBLIC "-//W3C//DTD SVG 1.1//EN" "http://www.w3.org/Graphics/SVG/1.1/DTD/svg11.dtd">
<svg version="1.1" id="Layer_1" xmlns="http://www.w3.org/2000/svg" xmlns:xlink="http://www.w3.org/1999/xlink" x="0px" y="0px"
	 viewBox="0 0 30 30" enable-background="new 0 0 30 30" xml:space="preserve">
<g>
	<g>
		<path fill-rule="evenodd" clip-rule="evenodd" d="M29.7,12h-2.4c-0.3-1.6-0.8-2.8-1.4-3v0h-0.1c0,0,0,0,0,0c0,0,0,0,0,0H1.8
			c0,0,0,0,0,0C0.8,9,0,11.7,0,15c0,3.3,0.8,6,1.8,6c0,0,0,0,0,0h24c0,0,0,0,0,0s0,0,0,0H26v0c0.6-0.2,1.1-1.4,1.4-3h2.4
			c0.2-0.9,0.2-1.9,0.2-3C30,13.9,29.9,12.9,29.7,12z M26,20H11.6V10H26V20z"/>
	</g>
</g>
</svg>
