<?xml version="1.0" encoding="UTF-8" standalone="no"?>
<!-- Created with Inkscape (http://www.inkscape.org/) -->

<svg
   xmlns:dc="http://purl.org/dc/elements/1.1/"
   xmlns:cc="http://creativecommons.org/ns#"
   xmlns:rdf="http://www.w3.org/1999/02/22-rdf-syntax-ns#"
   xmlns:svg="http://www.w3.org/2000/svg"
   xmlns="http://www.w3.org/2000/svg"
   xmlns:inkscape="http://www.inkscape.org/namespaces/inkscape"
   version="1.1"
   width="30"
   height="30"
   viewBox="0 0 30 30"
   id="svg2">
  <metadata
     id="metadata10">
    <rdf:RDF>
      <cc:Work
         rdf:about="">
        <dc:format>image/svg+xml</dc:format>
        <dc:type
           rdf:resource="http://purl.org/dc/dcmitype/StillImage" />
      </cc:Work>
    </rdf:RDF>
  </metadata>
  <defs
     id="defs8" />
  <path
     d="m 4.84375,9.5 c -0.935,0 -1.4375,1.887 -1.4375,5 0,3.116 0.5045,4.96875 1.4375,4.96875 0.056,0 0.10425,-0.01625 0.15625,-0.03125 l 0,0.0625 18.59375,0 0.21875,-1.09375 c 0.122718,-0.338046 0.222232,-0.6829 0.3125,-1.0625 l 2.09375,0 C 26.33375,16.85175 26.445,16.074 26.5,15.5 L 26.46875,13.03125 C 26.41075,12.48525 26.358,12.1605 26.25,11.6875 l -2.125,0 c -0.09158,-0.393935 -0.185662,-0.77425 -0.3125,-1.125 l -0.21875,-1.03125 -0.90625,0 C 22.6255,9.51125 22.565,9.5 22.5,9.5 c -0.062,0 -0.1265,0.00825 -0.1875,0.03125 l -17.28125,0 C 4.96825,9.51125 4.90675,9.5 4.84375,9.5 z"
     inkscape:connector-curvature="0"
     id="path4" />
</svg>
