<?xml version="1.0" encoding="utf-8"?>
<!-- Generated by IcoMoon.io -->
<!DOCTYPE svg PUBLIC "-//W3C//DTD SVG 1.1//EN" "http://www.w3.org/Graphics/SVG/1.1/DTD/svg11.dtd">
<svg version="1.1" xmlns="http://www.w3.org/2000/svg" xmlns:xlink="http://www.w3.org/1999/xlink" width="960" height="960" viewBox="0 0 960 960">
<g id="icomoon-ignore">
</g>
	<path d="M863.82 401.669h-62.663c-7.834-41.776-20.888-73.107-36.554-78.331v0h-2.611c0 0 0 0 0 0s0 0 0 0h-626.645c0 0 0 0 0 0-26.11 0-46.998 70.497-46.998 156.661s20.888 156.662 46.998 156.662c0 0 0 0 0 0h626.645c0 0 0 0 0 0s0 0 0 0h5.221c15.666-5.221 28.721-36.554 36.554-78.331h62.663c5.221-23.499 5.221-49.608 5.221-78.331s-2.611-54.832-7.834-78.331zM767.213 610.552h-250.657v-261.101h250.657v261.101z"></path>
</svg>
