<?xml version="1.0" encoding="UTF-8" standalone="no"?>
<svg width="30px" height="30px" viewBox="0 0 30 30" version="1.1" xmlns="http://www.w3.org/2000/svg" xmlns:xlink="http://www.w3.org/1999/xlink" xmlns:sketch="http://www.bohemiancoding.com/sketch/ns">
    <!-- Generator: Sketch 3.0.1 (7597) - http://www.bohemiancoding.com/sketch -->
    <title>Artboard 1</title>
    <description>Created with Sketch.</description>
    <defs></defs>
    <g id="Page-1" stroke="none" stroke-width="1" fill="none" fill-rule="evenodd" sketch:type="MSPage">
        <g id="Artboard-1" sketch:type="MSArtboardGroup" fill="#000000">
            <path d="M24.8403168,12.50008 C24.600288,11.16671 24.2003136,10.16673 23.7203136,10 L14.7845459,10 L4.4400096,10 C3.6400032,10 3,12.25002 3,15.00004 C3,17.75006 3.6397632,20.00014 4.4397696,20.00014 L23.8001568,20.00014 C24.2800704,19.83354 24.6801312,18.83359 24.9200448,17.50012 L26.840064,17.50012 C27,16.75008 27,15.91697 27,15.0001 C27,14.08324 26.920032,13.25012 26.7597792,12.50008 L24.8403168,12.50008 Z M24,19 L20,19 L20,11 L24,11 L24,19 L24,19 Z" id="path4" sketch:type="MSShapeGroup"></path>
        </g>
    </g>
</svg>