<?xml version="1.0" encoding="utf-8"?>
<!-- Generator: Adobe Illustrator 17.1.0, SVG Export Plug-In . SVG Version: 6.00 Build 0)  -->
<!DOCTYPE svg PUBLIC "-//W3C//DTD SVG 1.1//EN" "http://www.w3.org/Graphics/SVG/1.1/DTD/svg11.dtd">
<svg version="1.1" id="Layer_1" xmlns="http://www.w3.org/2000/svg" xmlns:xlink="http://www.w3.org/1999/xlink" x="0px" y="0px"
	 viewBox="0 0 30 30" enable-background="new 0 0 30 30" xml:space="preserve">
<g>
	<g>
		<path fill-rule="evenodd" clip-rule="evenodd" d="M18.5,12l-5-5.7v9.3l-3.7-4.3c0,0-0.1-0.1-0.1-0.1h0v0c0,0-0.1-0.1-0.1-0.1
			c-0.2,0.7-0.4,1.3-0.5,2.1l4.2,4.8L9,22.8c0.2,0.7,0.3,1.4,0.5,2.1c0,0,0.1-0.1,0.1-0.1v0h0c0,0,0.1-0.1,0.1-0.1l3.7-4.3v9.3
			l5-5.7c0.6-0.7,0.6-1.9,0-2.7L15.5,18l2.9-3.3C19.1,13.9,19.1,12.7,18.5,12z M16.8,22.2C16.8,22.2,16.8,22.2,16.8,22.2
			c0.2,0.3,0.2,0.6,0,0.9l0,0L15.2,25v-4.6L16.8,22.2z M16.9,13.7l-1.7,1.9V11l1.6,1.9c0,0,0,0,0,0C17.1,13.1,17.1,13.5,16.9,13.7
			L16.9,13.7z M26.8,17.8l0.3-1.8c0.1-0.7,0.2-1.4,0.2-2.2C27.3,6.7,21.8,1,15.1,1C8.3,1,2.9,6.7,2.9,13.8c0,0.7,0.1,1.5,0.2,2.2
			l0.3,1.8c-1.6,0.3-2.6,2.8-2.2,5.6c0.4,2.8,2.1,5,3.7,4.7c1.7-0.2,2.7-2.7,2.3-5.6c-0.2-1.2-0.6-2.2-1.1-3l-0.6-3.7
			c-0.1-0.6-0.1-1.3-0.1-1.9c0-5.7,4.4-10.3,9.8-10.3c5.4,0,9.8,4.6,9.8,10.3c0,0.7,0,1.3-0.2,1.9l-0.6,3.5c-0.6,0.8-1,1.9-1.2,3.2
			c-0.4,2.8,0.6,5.3,2.3,5.5c1.6,0.2,3.3-1.9,3.7-4.7C29.3,20.6,28.3,18.2,26.8,17.8z"/>
	</g>
</g>
</svg>
