<?xml version="1.0" encoding="UTF-8" standalone="no"?>
<!-- Created with Inkscape (http://www.inkscape.org/) -->

<svg
   xmlns:dc="http://purl.org/dc/elements/1.1/"
   xmlns:cc="http://creativecommons.org/ns#"
   xmlns:rdf="http://www.w3.org/1999/02/22-rdf-syntax-ns#"
   xmlns:svg="http://www.w3.org/2000/svg"
   xmlns="http://www.w3.org/2000/svg"
   xmlns:inkscape="http://www.inkscape.org/namespaces/inkscape"
   version="1.1"
   width="30"
   height="30"
   viewBox="0 0 30 30"
   id="svg2">
  <metadata
     id="metadata10">
    <rdf:RDF>
      <cc:Work
         rdf:about="">
        <dc:format>image/svg+xml</dc:format>
        <dc:type
           rdf:resource="http://purl.org/dc/dcmitype/StillImage" />
      </cc:Work>
    </rdf:RDF>
  </metadata>
  <defs
     id="defs8" />
  <path
     d="m 18.5,12 -5,-5.7 v 9.3 L 9.8,11.3 9.7,11.2 9.6,11.1 C 9.4,11.8 9.2,12.4 9.1,13.2 L 13.3,18 9,22.8 c 0.2,0.7 0.3,1.4 0.5,2.1 l 0.1,-0.1 0.1,-0.1 3.7,-4.3 v 9.3 l 5,-5.7 c 0.6,-0.7 0.6,-1.9 0,-2.7 L 15.5,18 18.4,14.7 c 0.7,-0.8 0.7,-2 0.1,-2.7 z m -1.7,10.2 c 0.2,0.3 0.2,0.6 0,0.9 L 15.2,25 v -4.6 l 1.6,1.8 z m 0.1,-8.5 -1.7,1.9 V 11 l 1.6,1.9 c 0.3,0.2 0.3,0.6 0.1,0.8 z m 9.9,4.1 0.3,-1.8 c 0.1,-0.7 0.2,-1.4 0.2,-2.2 C 27.3,6.7 21.8,1 15.1,1 8.3,1 2.9,6.7 2.9,13.8 2.9,14.5 3,15.3 3.1,16 l 0.3,1.8 c -1.6,0.3 -2.6,2.8 -2.2,5.6 0.4,2.8 2.1,5 3.7,4.7 C 6.6,27.9 7.6,25.4 7.2,22.5 7,21.3 6.6,20.3 6.1,19.5 L 5.5,15.8 C 5.4,15.2 5.4,14.5 5.4,13.9 5.4,8.2 9.8,3.6 15.2,3.6 c 5.4,0 9.8,4.6 9.8,10.3 0,0.7 0,1.3 -0.2,1.9 l -0.6,3.5 c -0.6,0.8 -1,1.9 -1.2,3.2 -0.4,2.8 0.6,5.3 2.3,5.5 1.6,0.2 3.3,-1.9 3.7,-4.7 0.3,-2.7 -0.7,-5.1 -2.2,-5.5 z"
     inkscape:connector-curvature="0"
     id="path4" />
</svg>
