<?xml version="1.0" encoding="utf-8"?>
<!-- Generator: Adobe Illustrator 17.1.0, SVG Export Plug-In . SVG Version: 6.00 Build 0)  -->
<!DOCTYPE svg PUBLIC "-//W3C//DTD SVG 1.1//EN" "http://www.w3.org/Graphics/SVG/1.1/DTD/svg11.dtd">
<svg version="1.1" id="Layer_1" xmlns="http://www.w3.org/2000/svg" xmlns:xlink="http://www.w3.org/1999/xlink" x="0px" y="0px"
	 viewBox="0 0 30 30" enable-background="new 0 0 30 30" xml:space="preserve">
<g>
	<g>
		<path fill-rule="evenodd" clip-rule="evenodd" d="M18,15l4-4c0.9-0.9,0.9-2.3,0-3.2l-6.9-6.9v3.3v2.7v5.3L10,7
			c0,0-0.1-0.1-0.1-0.1h0v0c0,0-0.1-0.1-0.1-0.1C9.4,7.5,9.1,8.4,8.9,9.2l5.8,5.8l-5.8,5.8c0.2,0.9,0.5,1.7,0.8,2.5
			c0,0,0.1-0.1,0.1-0.1v0h0c0,0,0.1-0.1,0.1-0.1l5.2-5.2v5.3v2.7v3.3l6.9-6.9c0.9-0.9,0.9-2.3,0-3.2L18,15z M17.6,6.5l2.2,2.2
			c0,0,0,0,0,0c0.3,0.3,0.3,0.8,0,1.1l0,0l-2.3,2.3V6.5z M19.8,21.2l-2.3,2.3v-5.6l2.2,2.2c0,0,0,0,0,0
			C20.1,20.4,20.1,20.9,19.8,21.2L19.8,21.2z"/>
	</g>
</g>
</svg>
