<?xml version="1.0" encoding="utf-8"?>
<!-- Generated by IcoMoon.io -->
<!DOCTYPE svg PUBLIC "-//W3C//DTD SVG 1.1//EN" "http://www.w3.org/Graphics/SVG/1.1/DTD/svg11.dtd">
<svg version="1.1" xmlns="http://www.w3.org/2000/svg" xmlns:xlink="http://www.w3.org/1999/xlink" width="960" height="960" viewBox="0 0 960 960">
<g id="icomoon-ignore">
</g>
	<path d="M532.956 480.072l126.653-126.69c28.072-28.035 28.072-73.514 0-101.549l-215.707-215.708v354.857l-162.384-162.312c-1.283-1.319-2.748-2.272-4.141-3.444h-1.246v-1.026c-1.539-1.283-3.042-2.711-4.654-3.848-8.832 24.957-16.785 51.159-23.747 78.499l181.331 181.369-181.112 181.148c7 27.265 14.952 53.431 23.784 78.316 1.539-1.063 2.932-2.455 4.433-3.665v-1.209h1.465c1.319-1.1 2.711-2.052 3.957-3.262l162.384-162.384v354.857l215.707-215.707c28.072-28.072 28.072-73.514 0-101.549l-126.727-126.69zM518.48 214.782l70.4 70.363c0.184 0.184 0.402 0.293 0.622 0.513 9.088 9.088 9.308 23.565 0.843 33.019l0.111 0.072-71.976 71.939v-175.907zM590.455 673.645l-71.976 71.976v-175.981l70.4 70.363c0.184 0.22 0.402 0.33 0.622 0.513 9.088 9.088 9.308 23.601 0.843 33.055l0.111 0.072z"></path>
</svg>
