<?xml version="1.0" encoding="utf-8"?>
<!-- Generated by IcoMoon.io -->
<!DOCTYPE svg PUBLIC "-//W3C//DTD SVG 1.1//EN" "http://www.w3.org/Graphics/SVG/1.1/DTD/svg11.dtd">
<svg version="1.1" xmlns="http://www.w3.org/2000/svg" xmlns:xlink="http://www.w3.org/1999/xlink" width="960" height="960" viewBox="0 0 960 960">
<g id="icomoon-ignore">
</g>
	<path d="M857.818 453.088l-104.659-107.648c-8.971-8.971-20.932-11.961-32.892-8.971v284.071c11.961 2.99 23.922 0 32.892-8.971l104.659-107.648c14.951-14.951 14.951-35.883 0-50.834zM633.551 345.44l-104.658 107.648c-14.951 14.951-14.951 35.883 0 50.834l104.658 107.648c8.971 8.971 20.932 11.961 32.892 8.971v-284.071c-11.961-2.99-23.922 0-32.892 8.971zM487.029 255.733l-191.374-215.296v349.856l-161.472-158.482c0 0-2.99-2.99-2.99-2.99v0 0c-2.99 0-2.99-2.99-5.98-2.99-8.971 23.922-14.951 47.843-23.922 74.755l176.423 179.413-176.423 179.413c5.98 26.912 14.951 53.824 23.922 77.746 2.99 0 2.99-2.99 2.99-2.99v0 0c0 0 2.99-2.99 2.99-2.99l158.482-161.472v349.856l194.364-212.306c26.912-26.912 26.912-71.765 0-101.668l-107.648-125.589 110.638-125.589c26.912-26.912 26.912-71.765 0-98.677zM430.216 638.482c0 0 0 0 0 0 8.971 8.971 8.971 23.922 0 32.892v0l-65.784 71.765v-173.433l65.784 68.775zM433.206 321.517l-65.784 71.765v-176.423l65.784 68.775c0 0 0 0 0 0 5.98 11.961 5.98 26.912 0 35.883v0z"></path>
</svg>
