<?xml version="1.0" encoding="utf-8"?>
<!-- Generated by IcoMoon.io -->
<!DOCTYPE svg PUBLIC "-//W3C//DTD SVG 1.1//EN" "http://www.w3.org/Graphics/SVG/1.1/DTD/svg11.dtd">
<svg version="1.1" xmlns="http://www.w3.org/2000/svg" xmlns:xlink="http://www.w3.org/1999/xlink" width="30" height="30" viewBox="0 0 30 30">
<g>
	<line stroke-width="1" x1="" y1="" x2="" y2="" stroke="#449FDB" opacity=""></line>
</g>
	<path d="M25.809 13.096c0.21-0.194 0.304-0.497 0.21-0.787-0.094-0.288-0.346-0.477-0.628-0.512-0.001-0.002-0.001-0.005-0.002-0.007l-6.764-0.889-2.933-6.151c-0.002 0-0.003 0-0.005 0-0.119-0.262-0.379-0.445-0.685-0.445s-0.566 0.184-0.685 0.445c-0.002 0-0.004 0-0.006 0l-2.932 6.151-6.764 0.889c0 0.002-0.001 0.004-0.002 0.006-0.282 0.035-0.534 0.224-0.627 0.512-0.094 0.29 0 0.593 0.209 0.787 0 0.002-0.001 0.004-0.002 0.006l4.946 4.691-1.246 6.716c0.002 0.001 0.004 0.003 0.006 0.004-0.050 0.277 0.050 0.57 0.293 0.747 0.246 0.179 0.562 0.183 0.811 0.044 0.002 0.001 0.004 0.003 0.005 0.004l5.992-3.255 5.993 3.255c0.002-0.001 0.003-0.002 0.005-0.004 0.249 0.14 0.565 0.135 0.811-0.043 0.243-0.177 0.344-0.471 0.294-0.747 0.002-0.002 0.004-0.003 0.007-0.005l-1.246-6.716 4.946-4.691c0-0.001-0.001-0.003-0.001-0.005zM18.974 17.125l1.041 5.608-5.013-2.723-5.012 2.723 1.041-5.608-4.138-3.926 5.655-0.743 2.455-5.149 2.456 5.149 5.655 0.743-4.14 3.926z" fill="#000000"></path>
</svg>
