<?xml version="1.0" encoding="utf-8"?>
<!-- Generated by IcoMoon.io -->
<!DOCTYPE svg PUBLIC "-//W3C//DTD SVG 1.1//EN" "http://www.w3.org/Graphics/SVG/1.1/DTD/svg11.dtd">
<svg version="1.1" xmlns="http://www.w3.org/2000/svg" xmlns:xlink="http://www.w3.org/1999/xlink" width="30" height="30" viewBox="0 0 30 30">
<g>
	<line stroke-width="1" x1="" y1="" x2="" y2="" stroke="#449FDB" opacity=""></line>
</g>
	<path d="M25.821 13.11c0.21-0.194 0.304-0.497 0.21-0.787s-0.346-0.478-0.628-0.513c-0.001-0.002-0.002-0.005-0.003-0.007l-6.771-0.89-2.936-6.157c-0.001 0-0.003 0-0.005 0-0.118-0.262-0.378-0.446-0.685-0.446s-0.566 0.184-0.686 0.446c-0.002 0-0.004 0-0.006 0l-2.936 6.157-6.771 0.89c0 0.002-0.001 0.004-0.002 0.006-0.282 0.035-0.534 0.224-0.628 0.512-0.094 0.291 0 0.594 0.21 0.788 0 0.002-0.001 0.003-0.002 0.006l4.951 4.696-1.247 6.723c0.002 0.001 0.004 0.003 0.006 0.005-0.050 0.276 0.050 0.57 0.293 0.746 0.246 0.18 0.562 0.184 0.812 0.045 0.002 0.001 0.004 0.003 0.006 0.004l5.998-3.258 5.999 3.258c0.001-0.001 0.003-0.003 0.005-0.004 0.249 0.14 0.565 0.135 0.812-0.044 0.243-0.177 0.344-0.47 0.293-0.747 0.003-0.002 0.005-0.003 0.008-0.005l-1.247-6.723 4.95-4.696c0.001-0.002 0-0.003 0-0.005z" fill="#000000"></path>
</svg>
