<?xml version="1.0" encoding="UTF-8" standalone="no"?>
<!-- Created with Inkscape (http://www.inkscape.org/) -->

<svg
   xmlns:dc="http://purl.org/dc/elements/1.1/"
   xmlns:cc="http://creativecommons.org/ns#"
   xmlns:rdf="http://www.w3.org/1999/02/22-rdf-syntax-ns#"
   xmlns:svg="http://www.w3.org/2000/svg"
   xmlns="http://www.w3.org/2000/svg"
   xmlns:inkscape="http://www.inkscape.org/namespaces/inkscape"
   version="1.1"
   width="30"
   height="30"
   viewBox="0 0 30 30"
   id="svg2">
  <metadata
     id="metadata10">
    <rdf:RDF>
      <cc:Work
         rdf:about="">
        <dc:format>image/svg+xml</dc:format>
        <dc:type
           rdf:resource="http://purl.org/dc/dcmitype/StillImage" />
      </cc:Work>
    </rdf:RDF>
  </metadata>
  <defs
     id="defs8" />
  <path
     d="m 18.31,6.95 c 0.37,0.157 0.795,0.1 1.2,-0.106 l 1.61,-3.835 c -0.14,-0.44 -0.395,-0.78 -0.768,-0.94 -0.363,-0.15 -0.773,-0.11 -1.17,0.09 L 17.55,6.05 c 0.14,0.42 0.393,0.746 0.76,0.9 z m -3.336,1.022 c -3.873,0 -7.013,3.14 -7.013,7.013 C 7.96,18.86 11.1,22 14.98,22 c 3.88,0 7.014,-3.142 7.014,-7.015 0,-3.873 -3.14,-7.013 -7.014,-7.013 z m 8.974,4.454 3.85,-1.575 c 0.21,-0.4 0.27,-0.82 0.117,-1.2 -0.146,-0.36 -0.473,-0.62 -0.89,-0.76 l -3.903,1.6 c -0.195,0.4 -0.248,0.81 -0.1,1.17 0.153,0.38 0.493,0.64 0.926,0.78 z m 3.87,6.757 -3.888,-1.63 c -0.42,0.142 -0.746,0.394 -0.898,0.757 -0.156,0.373 -0.102,0.795 0.105,1.2 l 3.836,1.61 c 0.436,-0.14 0.777,-0.395 0.934,-0.766 0.155,-0.365 0.106,-0.775 -0.088,-1.17 z m -9.485,3.84 c -0.375,0.15 -0.635,0.49 -0.775,0.923 l 1.572,3.85 c 0.408,0.21 0.83,0.27 1.205,0.12 0.363,-0.15 0.62,-0.474 0.766,-0.892 l -1.59,-3.904 c -0.39,-0.195 -0.8,-0.246 -1.17,-0.098 z m -6.658,0.01 c -0.373,-0.157 -0.795,-0.1 -1.204,0.104 l -1.6,3.836 c 0.14,0.436 0.4,0.777 0.77,0.934 0.37,0.152 0.78,0.104 1.17,-0.088 l 1.63,-3.89 c -0.14,-0.42 -0.39,-0.75 -0.75,-0.9 z m -5.64,-5.475 -3.85,1.574 c -0.21,0.406 -0.27,0.828 -0.117,1.203 0.148,0.363 0.473,0.62 0.89,0.766 l 3.904,-1.59 c 0.196,-0.39 0.25,-0.8 0.1,-1.17 -0.153,-0.37 -0.493,-0.63 -0.926,-0.77 z M 6.052,12.432 C 6.472,12.29 6.798,12.038 6.95,11.675 7.107,11.302 7.05,10.88 6.844,10.471 L 3.01,8.87 C 2.574,9.008 2.23,9.264 2.075,9.637 1.922,10.001 1.971,10.41 2.163,10.807 l 3.89,1.633 z M 11.65,6.96 c 0.375,-0.153 0.633,-0.49 0.776,-0.926 l -1.575,-3.85 c -0.4,-0.21 -0.82,-0.27 -1.2,-0.118 -0.36,0.15 -0.62,0.472 -0.76,0.89 l 1.59,3.904 c 0.4,0.197 0.81,0.25 1.17,0.1 z"
     inkscape:connector-curvature="0"
     id="path4" />
</svg>
