<?xml version="1.0" encoding="UTF-8" standalone="no"?>
<!-- Created with Inkscape (http://www.inkscape.org/) -->

<svg
   xmlns:dc="http://purl.org/dc/elements/1.1/"
   xmlns:cc="http://creativecommons.org/ns#"
   xmlns:rdf="http://www.w3.org/1999/02/22-rdf-syntax-ns#"
   xmlns:svg="http://www.w3.org/2000/svg"
   xmlns="http://www.w3.org/2000/svg"
   xmlns:inkscape="http://www.inkscape.org/namespaces/inkscape"
   version="1.1"
   width="30"
   height="30"
   viewBox="0 0 30 30"
   id="svg2">
  <metadata
     id="metadata10">
    <rdf:RDF>
      <cc:Work
         rdf:about="">
        <dc:format>image/svg+xml</dc:format>
        <dc:type
           rdf:resource="http://purl.org/dc/dcmitype/StillImage" />
      </cc:Work>
    </rdf:RDF>
  </metadata>
  <defs
     id="defs8" />
  <path
     d="m 18.308,6.95 c 0.374,0.157 0.794,0.102 1.204,-0.105 L 21.118,3.009 C 20.978,2.573 20.724,2.231 20.352,2.074 19.988,1.922 19.579,1.97 19.182,2.162 l -1.632,3.89 c 0.142,0.418 0.395,0.744 0.758,0.898 z M 6.053,12.43 c 0.42,-0.14 0.745,-0.393 0.9,-0.755 0.156,-0.373 0.098,-0.796 -0.108,-1.204 L 3.01,8.864 c -0.436,0.14 -0.778,0.395 -0.935,0.77 -0.152,0.36 -0.104,0.77 0.088,1.167 l 3.89,1.63 z m -0.018,5.125 -3.85,1.576 c -0.21,0.407 -0.27,0.83 -0.118,1.204 0.148,0.363 0.473,0.62 0.89,0.766 L 6.86,19.503 C 7.057,19.107 7.11,18.698 6.962,18.333 6.809,17.96 6.469,17.7 6.035,17.556 z M 11.652,6.96 c 0.373,-0.153 0.63,-0.49 0.774,-0.926 L 10.85,2.184 C 10.446,1.974 10.022,1.914 9.65,2.067 9.284,2.214 9.03,2.539 8.883,2.957 L 10.48,6.86 c 0.398,0.197 0.805,0.25 1.172,0.1 z m 0.023,16.07 c -0.372,-0.155 -0.795,-0.1 -1.204,0.106 l -1.606,3.836 c 0.14,0.436 0.395,0.78 0.766,0.936 0.365,0.152 0.774,0.102 1.173,-0.09 l 1.63,-3.89 c -0.14,-0.416 -0.396,-0.744 -0.758,-0.897 z m 12.272,-10.604 3.85,-1.574 c 0.21,-0.406 0.27,-0.828 0.118,-1.203 -0.147,-0.366 -0.473,-0.62 -0.89,-0.767 l -3.904,1.597 c -0.193,0.396 -0.247,0.806 -0.1,1.17 0.155,0.376 0.493,0.634 0.927,0.776 z m 3.87,6.756 -3.886,-1.63 c -0.42,0.14 -0.747,0.394 -0.898,0.755 -0.157,0.37 -0.102,0.797 0.104,1.205 l 3.836,1.605 c 0.437,-0.14 0.778,-0.393 0.936,-0.764 0.153,-0.363 0.103,-0.775 -0.09,-1.17 z m -9.485,3.838 c -0.376,0.154 -0.633,0.492 -0.776,0.928 l 1.575,3.848 c 0.406,0.21 0.83,0.273 1.203,0.12 0.364,-0.147 0.622,-0.474 0.766,-0.89 l -1.597,-3.902 c -0.397,-0.198 -0.806,-0.25 -1.17,-0.104 z M 15,8 c -3.87,0 -7,3.127 -7,7 0,3.873 3.13,7 7,7 3.874,0 6.99,-3.127 6.99,-7 0,-3.873 -3.116,-7 -6.99,-7 z"
     inkscape:connector-curvature="0"
     id="path4" />
</svg>
