<?xml version="1.0" encoding="utf-8"?>
<!-- Generated by IcoMoon.io -->
<!DOCTYPE svg PUBLIC "-//W3C//DTD SVG 1.1//EN" "http://www.w3.org/Graphics/SVG/1.1/DTD/svg11.dtd">
<svg version="1.1" xmlns="http://www.w3.org/2000/svg" xmlns:xlink="http://www.w3.org/1999/xlink" width="30" height="30" viewBox="0 0 30 30">
<g>
	<line stroke-width="1" x1="" y1="" x2="" y2="" stroke="#449FDB" opacity=""></line>
</g>
	<path d="M18.31 6.95c0.371 0.157 0.795 0.101 1.201-0.106l1.609-3.835c-0.139-0.436-0.395-0.778-0.768-0.935-0.363-0.152-0.773-0.104-1.17 0.088l-1.633 3.889c0.143 0.42 0.395 0.746 0.761 0.899zM14.974 7.972c-3.873 0-7.013 3.14-7.013 7.013 0 3.874 3.14 7.014 7.013 7.014s7.014-3.141 7.014-7.014c-0.001-3.873-3.141-7.013-7.014-7.013zM23.948 12.426l3.85-1.575c0.209-0.406 0.271-0.829 0.117-1.204-0.146-0.364-0.473-0.62-0.889-0.765l-3.904 1.597c-0.195 0.396-0.248 0.806-0.1 1.17 0.153 0.376 0.493 0.635 0.926 0.777zM27.819 19.183l-3.889-1.631c-0.42 0.143-0.746 0.395-0.898 0.758-0.156 0.373-0.102 0.795 0.105 1.201l3.836 1.609c0.436-0.139 0.777-0.395 0.934-0.766 0.155-0.365 0.106-0.775-0.088-1.171zM18.333 23.022c-0.375 0.152-0.635 0.49-0.775 0.924l1.572 3.85c0.408 0.211 0.83 0.271 1.205 0.119 0.363-0.148 0.619-0.473 0.766-0.891l-1.598-3.904c-0.397-0.195-0.807-0.246-1.17-0.098zM11.675 23.032c-0.373-0.156-0.795-0.1-1.204 0.105l-1.608 3.836c0.139 0.436 0.394 0.777 0.767 0.934 0.363 0.152 0.773 0.104 1.17-0.088l1.631-3.889c-0.14-0.419-0.392-0.745-0.756-0.898zM6.036 17.558l-3.85 1.574c-0.21 0.406-0.271 0.828-0.118 1.203 0.148 0.363 0.473 0.619 0.89 0.766l3.904-1.598c0.196-0.396 0.249-0.807 0.1-1.17-0.153-0.375-0.493-0.635-0.926-0.775zM6.052 12.432c0.419-0.142 0.746-0.394 0.898-0.757 0.157-0.373 0.101-0.795-0.106-1.204l-3.835-1.608c-0.435 0.138-0.778 0.394-0.934 0.767-0.153 0.363-0.104 0.772 0.088 1.17l3.889 1.632zM11.65 6.96c0.375-0.153 0.633-0.491 0.776-0.926l-1.575-3.85c-0.406-0.21-0.829-0.271-1.203-0.118-0.364 0.149-0.621 0.472-0.766 0.89l1.598 3.904c0.396 0.197 0.807 0.249 1.17 0.1z" fill="#000000"></path>
</svg>
