<?xml version="1.0" encoding="utf-8"?>
<!-- Generated by IcoMoon.io -->
<!DOCTYPE svg PUBLIC "-//W3C//DTD SVG 1.1//EN" "http://www.w3.org/Graphics/SVG/1.1/DTD/svg11.dtd">
<svg version="1.1" xmlns="http://www.w3.org/2000/svg" xmlns:xlink="http://www.w3.org/1999/xlink" width="30" height="30" viewBox="0 0 30 30">
<g>
	<line stroke-width="1" x1="" y1="" x2="" y2="" stroke="#449FDB" opacity=""></line>
</g>
	<path d="M17.402 14.331l4.023-4.023c-0.308-1.166-0.731-2.232-1.241-3.176l-5.668 5.668-5.685-5.685c-0.512 0.942-0.937 2.007-1.246 3.172l4.044 4.044c0.007 0.007 0.016 0.011 0.022 0.018 0.33 0.33 0.338 0.855 0.032 1.199l0.003 0.004-4.1 4.1c0.309 1.163 0.734 2.225 1.245 3.166l5.685-5.686 5.668 5.668c0.509-0.942 0.933-2.006 1.24-3.169l-4.079-4.079 0.004-0.004c-0.307-0.343-0.299-0.869 0.031-1.199 0.008-0.007 0.016-0.011 0.022-0.018z" fill="#000000"></path>
</svg>
