<?xml version="1.0" encoding="UTF-8" standalone="no"?>
<!-- Created with Inkscape (http://www.inkscape.org/) -->

<svg
   xmlns:dc="http://purl.org/dc/elements/1.1/"
   xmlns:cc="http://creativecommons.org/ns#"
   xmlns:rdf="http://www.w3.org/1999/02/22-rdf-syntax-ns#"
   xmlns:svg="http://www.w3.org/2000/svg"
   xmlns="http://www.w3.org/2000/svg"
   xmlns:inkscape="http://www.inkscape.org/namespaces/inkscape"
   version="1.1"
   width="30"
   height="30"
   viewBox="0 0 30 30"
   id="svg2">
  <metadata
     id="metadata10">
    <rdf:RDF>
      <cc:Work
         rdf:about="">
        <dc:format>image/svg+xml</dc:format>
        <dc:type
           rdf:resource="http://purl.org/dc/dcmitype/StillImage" />
      </cc:Work>
    </rdf:RDF>
  </metadata>
  <defs
     id="defs8" />
  <path
     d="m 21.457,11.04 c -1.153,0 -2.246,0.252 -3.234,0.696 0.03,0.45 0.154,1.222 0.645,0.952 0.32,-0.176 2.35,0.153 1.58,0.418 -0.463,0.16 -0.816,0.562 -0.526,0.562 0.284,-0.003 0.53,0.395 0.958,-0.11 0.43,-0.504 1.357,-1.287 2.153,-0.79 0.793,0.497 -0.502,0.504 -0.502,0.504 0,0 -0.28,0.577 -0.64,0.578 -0.35,0.004 -1.21,0.94 -1.42,1.59 -0.21,0.648 -0.28,0.648 -0.57,0.147 -0.29,-0.5 -0.72,-0.14 -1.214,0.512 -0.5,0.64 0.94,1.28 0.94,1.28 l 0.723,0.64 c 0,0 0.573,-0.15 0.86,-0.3 0.283,-0.144 0.216,0.286 1.227,0.713 1.007,0.423 0.147,0.5 1.08,0.78 0.937,0.28 1.156,0.998 1.156,0.998 l -0.28,0.577 -0.282,0.862 c 0,0 -0.43,0.144 -0.64,0.863 -0.21,0.718 -0.71,0.865 -1.07,1.23 -0.355,0.358 0.08,1.146 0.3,1.574 0.22,0.435 -0.426,-0.07 -0.716,-0.14 -0.29,-0.07 -0.44,-0.93 -0.582,-1.355 -0.143,-0.43 0.065,-1.437 0.06,-1.94 0,-0.5 -0.29,-0.64 -0.65,-1.07 -0.36,-0.43 -0.363,-0.5 -0.58,-1.29 -0.225,-0.786 -0.084,-1.003 0.13,-1.147 0.216,-0.146 -0.575,-0.426 -0.936,-0.57 -0.357,-0.14 -0.72,-0.426 -1.224,-0.78 -0.506,-0.354 -0.652,-0.926 -0.872,-1.212 -0.215,-0.286 -0.296,-1.58 -0.3,-2.01 -0.003,-0.427 0.494,-0.935 0.278,-1.295 -0.04,-0.066 -0.13,-0.11 -0.232,-0.134 -2.11,1.42 -3.502,3.832 -3.502,6.57 0,4.366 3.543,7.91 7.91,7.91 4.368,0 7.91,-3.544 7.91,-7.91 0,-4.366 -3.542,-7.91 -7.91,-7.91 z m 5.412,5.434 c -0.2,0.15 -0.49,0.323 -0.77,0.326 -0.22,0.044 -0.54,0.11 -0.81,0.11 -0.28,0.004 -0.6,0.07 -0.88,0.07 -0.17,-0.02 -0.28,0.003 -0.34,-0.04 l -0.07,-0.042 c -0.043,-0.213 0.166,-0.533 0.295,-0.728 0.21,-0.32 0.53,-0.39 0.68,-0.75 0.042,-0.065 0.313,-0.623 0.313,-0.623 -0.214,-0.233 -0.512,-0.338 -0.236,-0.617 0.193,-0.15 0.483,-0.032 0.685,0.08 0.93,0.532 1.64,1.73 1.62,1.9 -0.064,0.236 -0.345,0.227 -0.496,0.314 z m -14.61,7.073 c -0.71,0 -1.29,-0.577 -1.29,-1.29 0,-0.683 0.54,-1.23 1.21,-1.272 -0.09,-0.39 -0.167,-0.783 -0.207,-1.18 H 8.2 c -0.552,0 -1,-0.448 -1,-1 V 5.175 c 0,-0.552 0.448,-1 1,-1 h 8.6 c 0.554,0 1,0.448 1,1 v 4.916 h 0.017 c 0.707,-0.29 1.436,-0.48 2.172,-0.6 V 3.5 c 0,-0.83 -0.68,-1.5 -1.5,-1.5 H 6.48 C 5.652,2 4.98,2.67 4.98,3.5 v 19.98 c 0,0.83 0.672,1.5 1.5,1.5 h 7.69 c -0.44,-0.52 -0.82,-1.094 -1.14,-1.707 -0.217,0.164 -0.47,0.278 -0.762,0.278 z"
     inkscape:connector-curvature="0"
     id="path4" />
</svg>
