<?xml version="1.0" encoding="utf-8"?>
<!-- Generated by IcoMoon.io -->
<!DOCTYPE svg PUBLIC "-//W3C//DTD SVG 1.1//EN" "http://www.w3.org/Graphics/SVG/1.1/DTD/svg11.dtd">
<svg version="1.1" xmlns="http://www.w3.org/2000/svg" xmlns:xlink="http://www.w3.org/1999/xlink" width="30" height="30" viewBox="0 0 30 30">
<g>
	<line stroke-width="1" x1="" y1="" x2="" y2="" stroke="#449FDB" opacity=""></line>
</g>
	<path d="M24.979 21.794v0l-3.972-4.248c0.788-1.312 1.25-2.847 1.25-4.495 0-4.792-3.836-8.675-8.568-8.675s-8.568 3.884-8.568 8.675c0 4.791 3.836 8.676 8.568 8.676 1.619 0 3.127-0.464 4.418-1.254l4.213 4.013c0.373 0.378 1.271 0.082 2.005-0.661s1.028-1.653 0.654-2.031zM13.69 19.31c-3.414 0-6.182-2.803-6.182-6.259s2.768-6.259 6.182-6.259 6.181 2.802 6.181 6.259c0 3.456-2.767 6.259-6.181 6.259z" fill="#000000"></path>
</svg>
