<?xml version="1.0" encoding="utf-8"?>
<!-- Generated by IcoMoon.io -->
<!DOCTYPE svg PUBLIC "-//W3C//DTD SVG 1.1//EN" "http://www.w3.org/Graphics/SVG/1.1/DTD/svg11.dtd">
<svg version="1.1" xmlns="http://www.w3.org/2000/svg" xmlns:xlink="http://www.w3.org/1999/xlink" width="30" height="30" viewBox="0 0 30 30">
<g>
	<line stroke-width="1" x1="" y1="" x2="" y2="" stroke="#449FDB" opacity=""></line>
</g>
	<path d="M19.366 13.989v-1.494c0-0.002 0.001-0.004 0.001-0.007 0-2.093-1.696-3.79-3.789-3.79s-3.789 1.696-3.789 3.789v0 1.495h-0.224c-0.355 0-0.61 0.288-0.61 0.643v6.574c0 0.080 0.019 0.154 0.045 0.225l8.607-7.373c-0.073-0.035-0.155-0.057-0.241-0.062zM17.996 12.487v1.495h-4.837v-1.495h-0.015c0-1.345 1.091-2.435 2.436-2.435s2.435 1.090 2.436 2.435h-0.020zM12.135 21.841h7.197c0.355 0 0.643-0.288 0.643-0.643v-6.048l-7.84 6.691z" fill="#000000"></path>
</svg>
