<?xml version="1.0" encoding="utf-8"?>
<!-- Generated by IcoMoon.io -->
<!DOCTYPE svg PUBLIC "-//W3C//DTD SVG 1.1//EN" "http://www.w3.org/Graphics/SVG/1.1/DTD/svg11.dtd">
<svg version="1.1" xmlns="http://www.w3.org/2000/svg" xmlns:xlink="http://www.w3.org/1999/xlink" width="30" height="30" viewBox="0 0 30 30">
<g>
	<line stroke-width="1" x1="" y1="" x2="" y2="" stroke="#449FDB" opacity=""></line>
</g>
	<path d="M7 8.973v0.991h0.994v-0.954c0-0.57 0.463-1.033 1.033-1.033h0.954v-0.977h-0.991c-1.1 0-1.99 0.873-1.99 1.973zM7.994 11.964h-0.994v1.985h0.994v-1.985zM7.994 15.949h-0.994v1.985h0.994v-1.985zM11.981 7.977h1.985v-0.977h-1.985v0.977zM15.966 7.977h1.985v-0.977h-1.985v0.977zM7.994 20.967v-1.032h-0.994v1.069c0 1.101 0.89 1.917 1.99 1.917h0.991v-0.921h-0.954c-0.57 0-1.033-0.463-1.033-1.033zM21.004 7h-1.053v0.977h1.016c0.571 0 1.033 0.463 1.033 1.033v0.954h0.938v-0.991c0-1.1-0.834-1.973-1.934-1.973zM22 13.949h0.938v-1.985h-0.938v1.985zM22 17.935h0.938v-1.985h-0.938v1.985zM11.981 22.921h1.985v-0.921h-1.985v0.921zM22 20.967c0 0.57-0.462 1.033-1.033 1.033h-1.016v0.921h1.053c1.101 0 1.935-0.816 1.935-1.917v-1.069h-0.939v1.032zM15.966 22.921h1.985v-0.921h-1.985v0.921z" fill="#000000"></path>
</svg>
