<?xml version="1.0" encoding="windows-1252"?>
<!-- Generator: Adobe Illustrator 16.0.4, SVG Export Plug-In . SVG Version: 6.00 Build 0)  -->
<!DOCTYPE svg PUBLIC "-//W3C//DTD SVG 1.1//EN" "http://www.w3.org/Graphics/SVG/1.1/DTD/svg11.dtd">
<svg version="1.1" id="&#22294;&#23652;_1" xmlns="http://www.w3.org/2000/svg" xmlns:xlink="http://www.w3.org/1999/xlink" x="0px" y="0px" width="30px" height="30px" viewBox="0 0 30 30" style="enable-background:new 0 0 30 30;" xml:space="preserve">
<path style="fill:#657073;" d="M21.457,11.039c-1.153,0-2.246,0.253-3.234,0.697c0.031,0.45,0.154,1.222,0.645,0.952  c0.319-0.176,2.351,0.153,1.579,0.418c-0.462,0.16-0.815,0.562-0.525,0.562c0.284-0.003,0.53,0.395,0.958-0.109  c0.429-0.505,1.357-1.288,2.153-0.79c0.793,0.496-0.502,0.503-0.502,0.503s-0.282,0.577-0.642,0.578  c-0.357,0.004-1.214,0.941-1.424,1.591c-0.211,0.647-0.282,0.647-0.576,0.146c-0.288-0.501-0.721-0.14-1.214,0.512  c-0.499,0.648,0.941,1.284,0.941,1.284l0.722,0.642c0,0,0.574-0.146,0.862-0.293c0.282-0.145,0.215,0.285,1.226,0.712  c1.006,0.424,0.146,0.5,1.081,0.782c0.935,0.28,1.154,0.997,1.154,0.997l-0.282,0.576l-0.282,0.863c0,0-0.429,0.146-0.639,0.865  c-0.213,0.718-0.714,0.865-1.07,1.229c-0.358,0.359,0.079,1.147,0.296,1.575c0.22,0.434-0.427-0.068-0.717-0.138  c-0.289-0.071-0.439-0.932-0.584-1.358c-0.145-0.43,0.063-1.437,0.059-1.939c-0.002-0.502-0.291-0.643-0.651-1.073  c-0.362-0.429-0.364-0.499-0.582-1.288c-0.224-0.787-0.083-1.004,0.133-1.148c0.214-0.146-0.577-0.426-0.938-0.569  c-0.357-0.142-0.72-0.427-1.224-0.78c-0.506-0.355-0.652-0.927-0.872-1.213c-0.215-0.287-0.296-1.58-0.299-2.012  c-0.004-0.427,0.493-0.935,0.277-1.295c-0.043-0.068-0.129-0.109-0.235-0.136c-2.112,1.42-3.503,3.832-3.503,6.568  c0,4.368,3.542,7.909,7.909,7.909c4.368,0,7.91-3.541,7.91-7.909S25.825,11.039,21.457,11.039z M26.869,16.474  c-0.191,0.15-0.487,0.323-0.766,0.326c-0.213,0.044-0.533,0.11-0.811,0.111c-0.279,0.003-0.596,0.069-0.875,0.069  c-0.172-0.021-0.277,0.003-0.342-0.04l-0.064-0.042c-0.043-0.213,0.166-0.533,0.295-0.728c0.211-0.321,0.531-0.389,0.678-0.751  c0.043-0.064,0.314-0.622,0.314-0.622c-0.215-0.233-0.513-0.338-0.237-0.617c0.191-0.151,0.481-0.032,0.683,0.081  c0.932,0.531,1.639,1.729,1.619,1.899C27.301,16.396,27.02,16.387,26.869,16.474z"/>
<path style="fill:#657073;" d="M12.268,23.547c-0.711,0-1.289-0.577-1.289-1.29c0-0.683,0.538-1.229,1.21-1.272  c-0.09-0.391-0.165-0.783-0.205-1.18H8.201c-0.553,0-1-0.448-1-1V5.176c0-0.553,0.447-1,1-1h8.6c0.553,0,1,0.447,1,1v4.915  c0.006-0.002,0.01-0.005,0.016-0.007c0.707-0.292,1.436-0.485,2.172-0.602V3.492c0-0.828-0.672-1.5-1.5-1.5h-5.504H6.482  c-0.828,0-1.5,0.672-1.5,1.5v19.984c0,0.829,0.672,1.5,1.5,1.5h6.502h1.185c-0.438-0.521-0.819-1.093-1.14-1.706  C12.813,23.433,12.559,23.547,12.268,23.547z"/>
</svg>