<?xml version="1.0" encoding="UTF-8" standalone="no"?>
<!-- Created with Inkscape (http://www.inkscape.org/) -->

<svg
   xmlns:dc="http://purl.org/dc/elements/1.1/"
   xmlns:cc="http://creativecommons.org/ns#"
   xmlns:rdf="http://www.w3.org/1999/02/22-rdf-syntax-ns#"
   xmlns:svg="http://www.w3.org/2000/svg"
   xmlns="http://www.w3.org/2000/svg"
   xmlns:inkscape="http://www.inkscape.org/namespaces/inkscape"
   version="1.1"
   width="30"
   height="30"
   viewBox="0 0 30 30"
   id="svg2">
  <metadata
     id="metadata10">
    <rdf:RDF>
      <cc:Work
         rdf:about="">
        <dc:format>image/svg+xml</dc:format>
        <dc:type
           rdf:resource="http://purl.org/dc/dcmitype/StillImage" />
      </cc:Work>
    </rdf:RDF>
  </metadata>
  <defs
     id="defs8" />
  <path
     d="m 22.935,17.117 c -0.072,-0.98 -0.27,-1.92 -0.53,-2.824 h 1.926 v 1.412 h 1.34 v -2.823 h -3.76 c -1.03,-2.547 -2.67,-4.623 -4.24,-5.843 V 4.41 H 19 V 3 h -2.666 v 3.194 c -0.488,-0.232 -0.945,-0.37 -1.333,-0.37 -0.39,0 -0.85,0.13 -1.33,0.357 V 3 H 11 v 1.412 h 1.333 v 2.6 c -1.58,1.217 -3.224,3.305 -4.257,5.87 H 4.334 v 2.823 H 5.667 V 14.293 H 7.59 C 7.33,15.197 7.135,16.136 7.064,17.117 H 3 v 2.825 H 4.334 V 18.53 h 2.7 c 0.03,1.07 0.187,1.98 0.394,2.82 H 4.334 v 2.825 h 1.333 v -1.412 h 2.205 c 1.302,3.08 3.988,4.237 7.13,4.237 3.138,0 5.823,-1.156 7.127,-4.237 h 2.2 v 1.412 h 1.33 V 21.35 h -3.1 c 0.21,-0.84 0.36,-1.75 0.39,-2.82 h 2.7 v 1.412 H 27 v -2.825 h -4.065 z"
     inkscape:connector-curvature="0"
     id="path4" />
</svg>
