<?xml version="1.0" encoding="utf-8"?>
<!-- Generated by IcoMoon.io -->
<!DOCTYPE svg PUBLIC "-//W3C//DTD SVG 1.1//EN" "http://www.w3.org/Graphics/SVG/1.1/DTD/svg11.dtd">
<svg version="1.1" xmlns="http://www.w3.org/2000/svg" xmlns:xlink="http://www.w3.org/1999/xlink" width="30" height="30" viewBox="0 0 30 30">
<g>
	<line stroke-width="1" x1="" y1="" x2="" y2="" stroke="#449FDB" opacity=""></line>
</g>
	<path d="M21.973 3.984v1.523h-1.992v-1.523c0-0.82 0.527-1.465 1.055-1.465s0.938 0.645 0.938 1.465zM10.020 3.984v1.523h-2.051v-1.523c0-0.82 0.527-1.465 1.055-1.465s0.996 0.645 0.996 1.465zM22.969 5.508c2.227 0 4.043 1.758 4.043 3.984v14.004c0 2.227-1.816 3.984-4.043 3.984h-15.996c-2.168 0-3.984-1.758-3.984-3.984v-14.004c0-2.227 1.816-3.984 3.984-3.984h0.996v0.586c0 0.762 0.527 1.406 1.055 1.406s0.996-0.586 0.996-1.406v-0.586h9.961v0.586c0 0.762 0.527 1.406 1.055 1.406s0.938-0.586 0.938-1.406v-0.586h0.996zM25.020 23.496v-13.008c0-1.113-0.938-1.992-2.051-1.992h-15.996c-1.055 0-1.992 0.879-1.992 1.992v13.008c0 1.113 0.938 1.992 1.992 1.992h15.996c1.113 0 2.051-0.879 2.051-1.992z" fill="#000000"></path>
</svg>
