<?xml version="1.0" encoding="UTF-8" standalone="no"?>
<!-- Created with Inkscape (http://www.inkscape.org/) -->

<svg
   xmlns:dc="http://purl.org/dc/elements/1.1/"
   xmlns:cc="http://creativecommons.org/ns#"
   xmlns:rdf="http://www.w3.org/1999/02/22-rdf-syntax-ns#"
   xmlns:svg="http://www.w3.org/2000/svg"
   xmlns="http://www.w3.org/2000/svg"
   xmlns:inkscape="http://www.inkscape.org/namespaces/inkscape"
   version="1.1"
   width="30"
   height="30"
   viewBox="0 0 30 30"
   id="svg2">
  <metadata
     id="metadata10">
    <rdf:RDF>
      <cc:Work
         rdf:about="">
        <dc:format>image/svg+xml</dc:format>
        <dc:type
           rdf:resource="http://purl.org/dc/dcmitype/StillImage" />
      </cc:Work>
    </rdf:RDF>
  </metadata>
  <defs
     id="defs8" />
  <path
     d="M 9.047,2.53 C 8.519,2.53 7.984,3.15 7.984,3.97 V 5.5 h -1 c -2.168,0 -4,1.773 -4,4 v 14 c 0,2.226 1.83,3.97 4,3.97 h 16 c 2.227,0 4.032,-1.743 4.032,-3.97 v -14 c 0,-2.226 -1.806,-4 -4.032,-4 h -1 V 3.97 c 0,-0.82 -0.41,-1.44 -0.937,-1.44 -0.528,0 -1.063,0.62 -1.063,1.44 V 5.5 H 10.047 V 3.97 c 0,-0.82 -0.472,-1.44 -1,-1.44 z M 6.984,8.5 h 16 c 1.112,0 2.063,0.887 2.063,2 v 13 c 0,1.112 -0.95,2 -2.063,2 h -16 c -1.053,0 -2,-0.887 -2,-2 v -13 c 0,-1.112 0.945,-2 2,-2 z"
     inkscape:connector-curvature="0"
     id="path4" />
</svg>
