<?xml version="1.0" encoding="UTF-8" standalone="no"?>
<!-- Created with Inkscape (http://www.inkscape.org/) -->

<svg
   xmlns:dc="http://purl.org/dc/elements/1.1/"
   xmlns:cc="http://creativecommons.org/ns#"
   xmlns:rdf="http://www.w3.org/1999/02/22-rdf-syntax-ns#"
   xmlns:svg="http://www.w3.org/2000/svg"
   xmlns="http://www.w3.org/2000/svg"
   xmlns:inkscape="http://www.inkscape.org/namespaces/inkscape"
   version="1.1"
   width="30"
   height="30"
   viewBox="0 0 30 30"
   id="svg2">
  <metadata
     id="metadata10">
    <rdf:RDF>
      <cc:Work
         rdf:about="">
        <dc:format>image/svg+xml</dc:format>
        <dc:type
           rdf:resource="http://purl.org/dc/dcmitype/StillImage" />
      </cc:Work>
    </rdf:RDF>
  </metadata>
  <defs
     id="defs8" />
  <path
     d="M 21.973,3.984 V 5.507 H 19.98 V 3.984 c 0,-0.82 0.528,-1.465 1.056,-1.465 0.528,0 0.938,0.64 0.938,1.46 z m -11.953,0 V 5.507 H 7.97 V 3.984 c 0,-0.82 0.526,-1.465 1.054,-1.465 0.528,0 0.996,0.64 0.996,1.46 z m 12.95,1.524 c 2.226,0 4.042,1.758 4.042,3.984 v 14.004 c 0,2.227 -1.816,3.984 -4.043,3.984 h -16 c -2.17,0 -3.99,-1.758 -3.99,-3.984 V 9.492 c 0,-2.227 1.812,-3.984 3.98,-3.984 h 0.996 v 0.586 c 0,0.762 0.526,1.406 1.054,1.406 0.528,0 0.998,-0.586 0.998,-1.406 V 5.508 h 9.96 v 0.586 c 0,0.762 0.53,1.406 1.056,1.406 0.526,0 0.94,-0.586 0.94,-1.406 V 5.508 h 0.996 z m 2.05,17.988 V 10.488 c 0,-1.113 -0.938,-1.992 -2.05,-1.992 H 6.972 c -1.055,0 -1.992,0.88 -1.992,1.992 v 13.008 c 0,1.113 0.94,1.992 1.993,1.992 H 22.97 c 1.112,0 2.05,-0.88 2.05,-1.992 z"
     inkscape:connector-curvature="0"
     id="path4" />
</svg>
