<?xml version="1.0" encoding="UTF-8" standalone="no"?>
<!-- Created with Inkscape (http://www.inkscape.org/) -->

<svg
   xmlns:dc="http://purl.org/dc/elements/1.1/"
   xmlns:cc="http://creativecommons.org/ns#"
   xmlns:rdf="http://www.w3.org/1999/02/22-rdf-syntax-ns#"
   xmlns:svg="http://www.w3.org/2000/svg"
   xmlns="http://www.w3.org/2000/svg"
   xmlns:inkscape="http://www.inkscape.org/namespaces/inkscape"
   version="1.1"
   width="30"
   height="30"
   viewBox="0 0 30 30"
   id="svg2">
  <metadata
     id="metadata10">
    <rdf:RDF>
      <cc:Work
         rdf:about="">
        <dc:format>image/svg+xml</dc:format>
        <dc:type
           rdf:resource="http://purl.org/dc/dcmitype/StillImage" />
      </cc:Work>
    </rdf:RDF>
  </metadata>
  <defs
     id="defs8" />
  <path
     d="M 28.3,5.3 24.5,1.5 C 24.2,1.2 23.8,1.1 23.4,1.2 v 3.3 h -2.7 c -4.4,0 -8,3.6 -8,8 0,1.4 0.4,2.8 1.1,4 h 0.4 c -0.4,-0.8 -0.6,-1.6 -0.6,-2.5 0,-3.3 2.7,-6 6,-6 h 3.9 v 3.2 c 0.4,0.1 0.8,0 1.1,-0.3 L 28.4,7.1 C 28.8,6.6 28.8,5.8 28.3,5.3 z M 18.6,22.2 C 17.2,22.8 14.2,21.3 11.4,18.6 8.7,15.9 7.2,12.8 7.8,11.4 8.2,10.7 8.6,10.1 9.1,9.5 L 3.7,3.4 C 2.6,4.7 1.7,6.1 1,7.6 c 0.7,3.9 3.6,8.9 8.1,13.4 4.5,4.5 9.5,7.4 13.4,8.1 1.5,-0.7 2.9,-1.6 4.2,-2.7 L 20.6,21 c -0.7,0.4 -1.3,0.9 -2,1.2 z"
     inkscape:connector-curvature="0"
     id="path4" />
</svg>
