<svg xmlns="http://www.w3.org/2000/svg" width="30" height="30" viewBox="0 0 30 30"><path stroke="#449FDB" d="M0 0"/><path d="M18.197 20.865l-.022-.018c-1.163.529-3.691-.695-5.981-2.986-2.292-2.294-3.517-4.823-2.987-5.984l-.019-.018c.3-.545.666-1.081 1.056-1.612l-4.499-5.081c-.93 1.072-1.728 2.218-2.3 3.444.606 3.265 3.034 7.447 6.789 11.202 3.759 3.758 7.945 6.187 11.209 6.792 1.225-.572 2.368-1.37 3.439-2.299l-5.076-4.495c-.533.389-1.067.757-1.609 1.055zm6.65-6.741l1.655-.469c-.7-2.406-1.927-4.695-3.821-6.587-1.892-1.892-4.175-3.119-6.58-3.816l-.465 1.655c2.128.619 4.151 1.706 5.826 3.381 1.679 1.676 2.767 3.701 3.385 5.836zm-3.857.834l1.368-.419c-.522-1.627-1.381-3.175-2.673-4.466-1.291-1.293-2.84-2.152-4.471-2.677l-.417 1.37c1.41.458 2.749 1.204 3.87 2.325 1.122 1.117 1.866 2.456 2.323 3.867zm-4.003.728l1.084-.396c-.33-.785-.806-1.522-1.444-2.159-.636-.639-1.375-1.117-2.161-1.446l-.397 1.083c.631.276 1.228.659 1.745 1.177.514.515.899 1.109 1.173 1.741z" visibility="false"/></svg>