<?xml version="1.0" encoding="utf-8"?>
<!-- Generated by IcoMoon.io -->
<!DOCTYPE svg PUBLIC "-//W3C//DTD SVG 1.1//EN" "http://www.w3.org/Graphics/SVG/1.1/DTD/svg11.dtd">
<svg version="1.1" xmlns="http://www.w3.org/2000/svg" xmlns:xlink="http://www.w3.org/1999/xlink" width="30" height="30" viewBox="0 0 30 30">
<g>
	<line stroke-width="1" x1="" y1="" x2="" y2="" stroke="#449FDB" opacity=""></line>
</g>
	<path d="M19.849 19.881l-0.959 0.959c-1.939-0.971-3.545-2.506-4.611-4.387-1.065 1.881-2.672 3.416-4.612 4.387l-0.959-0.959c2.458-1.997 4.049-5.005 4.162-8.394v-0.903h-2.235c-0.061-0.291 0.007-0.604 0.231-0.829l2.766-2.766c0.358-0.357 0.938-0.357 1.294 0l2.766 2.766c0.225 0.225 0.292 0.538 0.231 0.829h-2.243c0 0 0.003 0.691 0.001 0.77 0.073 3.443 1.676 6.503 4.168 8.527z" fill="#000000"></path>
</svg>
