<?xml version="1.0" encoding="utf-8"?>
<!-- Generated by IcoMoon.io -->
<!DOCTYPE svg PUBLIC "-//W3C//DTD SVG 1.1//EN" "http://www.w3.org/Graphics/SVG/1.1/DTD/svg11.dtd">
<svg version="1.1" xmlns="http://www.w3.org/2000/svg" xmlns:xlink="http://www.w3.org/1999/xlink" width="30" height="30" viewBox="0 0 30 30">
<g>
	<line stroke-width="1" x1="" y1="" x2="" y2="" stroke="#449FDB" opacity=""></line>
</g>
	<path d="M18.995 19.988c-3.8 3.8-8.031 6.257-11.334 6.868-1.239-0.582-2.417-1.36-3.504-2.301l5.155-4.562c0.537 0.392 1.083 0.757 1.634 1.061l0.022-0.018c1.172 0.534 3.729-0.702 6.046-3.021 2.318-2.316 3.556-4.874 3.021-6.049l0.021-0.020c-0.305-0.55-0.672-1.097-1.063-1.636l4.567-5.158c0.939 1.090 1.721 2.267 2.301 3.511-0.614 3.302-3.069 7.528-6.866 11.325z" fill="#000000"></path>
</svg>
