<?xml version="1.0" encoding="UTF-8" standalone="no"?>
<!-- Created with Inkscape (http://www.inkscape.org/) -->

<svg
   xmlns:dc="http://purl.org/dc/elements/1.1/"
   xmlns:cc="http://creativecommons.org/ns#"
   xmlns:rdf="http://www.w3.org/1999/02/22-rdf-syntax-ns#"
   xmlns:svg="http://www.w3.org/2000/svg"
   xmlns="http://www.w3.org/2000/svg"
   xmlns:inkscape="http://www.inkscape.org/namespaces/inkscape"
   version="1.1"
   width="30"
   height="30"
   viewBox="0 0 30 30"
   id="svg2">
  <metadata
     id="metadata10">
    <rdf:RDF>
      <cc:Work
         rdf:about="">
        <dc:format>image/svg+xml</dc:format>
        <dc:type
           rdf:resource="http://purl.org/dc/dcmitype/StillImage" />
      </cc:Work>
    </rdf:RDF>
  </metadata>
  <defs
     id="defs8" />
  <path
     d="m 21.864,12.237 c -0.246,0.246 -0.586,0.318 -0.903,0.253 V 9.833 h -7.03 c -0.18,-0.868 -0.18,-1.765 0,-2.636 h 7.04 v -2.67 c 0.32,-0.066 0.66,0.008 0.907,0.254 l 3.02,3.03 c 0.393,0.39 0.393,1.02 0,1.417 l -3.02,3.02 z m -3.508,9.41 0.022,0.022 c 0.608,-0.34 1.208,-0.74 1.803,-1.17 l 5.69,5.03 c -1.2,1.03 -2.49,1.88 -3.87,2.52 -3.63,-0.67 -8.29,-3.38 -12.48,-7.56 -4.18,-4.18 -6.89,-8.84 -7.56,-12.48 0.64,-1.372 1.49,-2.674 2.53,-3.875 l 5.04,5.69 c -0.436,0.593 -0.84,1.195 -1.174,1.8 l 0.02,0.023 c -0.59,1.293 0.775,4.11 3.328,6.663 2.55,2.555 5.368,3.92 6.66,3.33 z"
     inkscape:connector-curvature="0"
     id="path4" />
</svg>
