<?xml version="1.0" encoding="utf-8"?>
<!-- Generated by IcoMoon.io -->
<!DOCTYPE svg PUBLIC "-//W3C//DTD SVG 1.1//EN" "http://www.w3.org/Graphics/SVG/1.1/DTD/svg11.dtd">
<svg version="1.1" xmlns="http://www.w3.org/2000/svg" xmlns:xlink="http://www.w3.org/1999/xlink" width="30" height="30" viewBox="0 0 30 30">
<g>
	<line stroke-width="1" x1="" y1="" x2="" y2="" stroke="#449FDB" opacity=""></line>
</g>
	<path d="M22.322 18.362c-0.102-0.647-0.227-1.278-0.395-1.88-0.006-0.035-0.016-0.070-0.027-0.105-0.004-0.019-0.008-0.039-0.012-0.059h-0.012c-0.479-1.295-3.375-2.294-6.887-2.294s-6.406 0.999-6.888 2.294h-0.008c-0.006 0.020-0.009 0.040-0.015 0.061-0.010 0.033-0.019 0.068-0.025 0.104-0.167 0.6-0.291 1.232-0.394 1.88l-7.374 0.446c0.113-1.537 0.423-3.017 0.925-4.4 2.963-2.036 8.024-3.378 13.774-3.378 5.755 0 10.82 1.345 13.783 3.383 0.5 1.381 0.809 2.858 0.924 4.395l-7.369-0.447zM19.609 21.009h-9.251c-1.71 0-3.199-0.93-4-2.312h17.25c-0.799 1.382-2.288 2.312-3.999 2.312z" fill="#000000"></path>
</svg>
