<?xml version="1.0" encoding="utf-8"?>
<!-- Generator: Adobe Illustrator 17.1.0, SVG Export Plug-In . SVG Version: 6.00 Build 0)  -->
<!DOCTYPE svg PUBLIC "-//W3C//DTD SVG 1.1//EN" "http://www.w3.org/Graphics/SVG/1.1/DTD/svg11.dtd">
<svg version="1.1" id="Layer_1" xmlns="http://www.w3.org/2000/svg" xmlns:xlink="http://www.w3.org/1999/xlink" x="0px" y="0px"
	 viewBox="0 0 30 30" enable-background="new 0 0 30 30" xml:space="preserve">
<g>
	<g>
		<path fill-rule="evenodd" clip-rule="evenodd" d="M28.3,5.3l-3.8-3.8c-0.3-0.3-0.7-0.4-1.1-0.3v3.3h-2.7v0c-4.4,0-8,3.6-8,8
			c0,1.4,0.4,2.8,1.1,4h0.4c-0.4-0.8-0.6-1.6-0.6-2.5c0-3.3,2.7-6,6-6c0.4,0,0.8,0,1.2,0h2.7v3.2c0.4,0.1,0.8,0,1.1-0.3l3.8-3.8
			C28.8,6.6,28.8,5.8,28.3,5.3z M18.6,22.2L18.6,22.2c-1.4,0.6-4.4-0.9-7.2-3.6c-2.7-2.7-4.2-5.8-3.6-7.2l0,0
			c0.4-0.7,0.8-1.3,1.3-1.9L3.7,3.4C2.6,4.7,1.7,6.1,1,7.6c0.7,3.9,3.6,8.9,8.1,13.4c4.5,4.5,9.5,7.4,13.4,8.1
			c1.5-0.7,2.9-1.6,4.2-2.7L20.6,21C19.9,21.4,19.3,21.9,18.6,22.2z"/>
	</g>
</g>
</svg>
