<?xml version="1.0" encoding="UTF-8" standalone="no"?>
<!-- Created with Inkscape (http://www.inkscape.org/) -->

<svg
   xmlns:dc="http://purl.org/dc/elements/1.1/"
   xmlns:cc="http://creativecommons.org/ns#"
   xmlns:rdf="http://www.w3.org/1999/02/22-rdf-syntax-ns#"
   xmlns:svg="http://www.w3.org/2000/svg"
   xmlns="http://www.w3.org/2000/svg"
   xmlns:inkscape="http://www.inkscape.org/namespaces/inkscape"
   version="1.1"
   width="30"
   height="30"
   viewBox="0 0 30 30"
   id="svg2">
  <metadata
     id="metadata10">
    <rdf:RDF>
      <cc:Work
         rdf:about="">
        <dc:format>image/svg+xml</dc:format>
        <dc:type
           rdf:resource="http://purl.org/dc/dcmitype/StillImage" />
      </cc:Work>
    </rdf:RDF>
  </metadata>
  <defs
     id="defs8" />
  <path
     d="M 22.322,18.362 C 22.22,17.715 22.095,17.084 21.927,16.482 21.921,16.447 21.911,16.412 21.9,16.377 l -0.012,-0.06 h -0.012 c -0.48,-1.294 -3.375,-2.293 -6.887,-2.293 -3.512,0 -6.41,1 -6.89,2.294 h -0.01 l -0.02,0.06 -0.03,0.105 c -0.167,0.6 -0.29,1.232 -0.394,1.88 l -7.37,0.447 c 0.113,-1.54 0.423,-3.02 0.925,-4.4 2.964,-2.04 8.025,-3.38 13.775,-3.38 5.754,0 10.82,1.344 13.782,3.382 0.5,1.38 0.81,2.858 0.923,4.395 L 22.31,18.359 z M 19.61,21.01 h -9.252 c -1.71,0 -3.2,-0.93 -4,-2.313 h 17.25 c -0.8,1.382 -2.288,2.312 -4,2.312 z"
     inkscape:connector-curvature="0"
     id="path4" />
</svg>
