<?xml version="1.0" encoding="utf-8"?>
<!-- Generated by IcoMoon.io -->
<!DOCTYPE svg PUBLIC "-//W3C//DTD SVG 1.1//EN" "http://www.w3.org/Graphics/SVG/1.1/DTD/svg11.dtd">
<svg version="1.1" xmlns="http://www.w3.org/2000/svg" xmlns:xlink="http://www.w3.org/1999/xlink" width="30" height="30" viewBox="0 0 30 30">
<g>
	<line stroke-width="1" x1="" y1="" x2="" y2="" stroke="#449FDB" opacity=""></line>
</g>
	<path d="M25.145 22.965c-1.019 0.88-2.124 1.603-3.287 2.146-3.093-0.572-7.056-2.871-10.613-6.43-3.555-3.555-5.854-7.513-6.428-10.604 0.543-1.166 1.266-2.272 2.148-3.293l4.283 4.836c-0.368 0.505-0.71 1.015-0.995 1.532l0.019 0.019c-0.5 1.1 0.658 3.495 2.828 5.664s4.563 3.328 5.664 2.828l0.019 0.019c0.517-0.285 1.027-0.63 1.532-0.995l4.83 4.278zM16.863 15.087c0.375 0 0.741-0.025 1.099-0.065v-8.392c-0.357-0.041-0.724-0.065-1.099-0.065s-0.742 0.025-1.1 0.065v8.392c0.358 0.040 0.724 0.065 1.1 0.065zM21.736 15.022v-8.392c-0.357-0.041-0.724-0.065-1.1-0.065s-0.741 0.025-1.099 0.065v8.392c0.357 0.040 0.724 0.065 1.099 0.065 0.377 0 0.743-0.025 1.1-0.065z" fill="#000000"></path>
</svg>
