<?xml version="1.0" encoding="utf-8"?>
<!-- Generator: Adobe Illustrator 17.1.0, SVG Export Plug-In . SVG Version: 6.00 Build 0)  -->
<!DOCTYPE svg PUBLIC "-//W3C//DTD SVG 1.1//EN" "http://www.w3.org/Graphics/SVG/1.1/DTD/svg11.dtd">
<svg version="1.1" id="Layer_1" xmlns="http://www.w3.org/2000/svg" xmlns:xlink="http://www.w3.org/1999/xlink" x="0px" y="0px"
	 viewBox="0 0 30 30" enable-background="new 0 0 30 30" xml:space="preserve">
<g>
	<g>
		<path fill-rule="evenodd" clip-rule="evenodd" d="M26.3,21.3l-8-15c-1.8-3.2-4.8-3.2-6.6,0l-8,15c-1.8,3.2-0.3,5.8,3.4,5.8h15.9
			C26.6,27.1,28.1,24.5,26.3,21.3z M22,24.5c-2.1-0.4-4.8-2-7.3-4.4c-2.4-2.4-4-5.1-4.4-7.3c0.4-0.8,0.9-1.6,1.5-2.3l2.9,3.3
			c-0.3,0.3-0.5,0.7-0.7,1.1l0,0c-0.3,0.8,0.4,2.4,1.9,3.9c1.5,1.5,3.1,2.3,3.9,1.9l0,0c0.4-0.2,0.7-0.4,1.1-0.7l3.3,2.9
			C23.6,23.6,22.8,24.1,22,24.5z"/>
	</g>
</g>
</svg>
