<?xml version="1.0" encoding="utf-8"?>
<!-- Generated by IcoMoon.io -->
<!DOCTYPE svg PUBLIC "-//W3C//DTD SVG 1.1//EN" "http://www.w3.org/Graphics/SVG/1.1/DTD/svg11.dtd">
<svg version="1.1" xmlns="http://www.w3.org/2000/svg" xmlns:xlink="http://www.w3.org/1999/xlink" width="30" height="30" viewBox="0 0 30 30">
<g>
	<line stroke-width="1" x1="" y1="" x2="" y2="" stroke="#449FDB" opacity=""></line>
</g>
	<path d="M22.886 8.548l2.327 2.329c-0.174 0.703-0.432 1.336-0.745 1.889l-2.958-2.958-2.963 2.962c-0.312-0.553-0.57-1.184-0.747-1.884l2.352-2.352-0.002-0.002c0.027-0.029 0.040-0.031 0.059-0.042-0.022-0.007-0.043-0.014-0.074-0.045-0.005-0.004-0.009-0.007-0.014-0.011l-2.318-2.318c0.177-0.698 0.435-1.322 0.745-1.873l2.949 2.949 2.963-2.963c0.312 0.548 0.57 1.173 0.747 1.866l-2.352 2.352 0.003 0.002c-0.025 0.029-0.041 0.034-0.059 0.042 0.022 0.007 0.043 0.014 0.076 0.047 0.002 0.005 0.007 0.007 0.011 0.010zM18.357 21.646l0.022 0.023c0.606-0.336 1.208-0.739 1.801-1.171l5.686 5.034c-1.199 1.036-2.499 1.885-3.868 2.524-3.639-0.671-8.3-3.376-12.484-7.563-4.185-4.181-6.887-8.837-7.563-12.473 0.64-1.372 1.49-2.674 2.528-3.875l5.037 5.69c-0.433 0.593-0.835 1.195-1.171 1.801l0.022 0.022c-0.591 1.293 0.774 4.11 3.325 6.664 2.554 2.551 5.371 3.916 6.665 3.324z" fill="#000000"></path>
</svg>
