<?xml version="1.0" encoding="utf-8"?>
<!-- Generated by IcoMoon.io -->
<!DOCTYPE svg PUBLIC "-//W3C//DTD SVG 1.1//EN" "http://www.w3.org/Graphics/SVG/1.1/DTD/svg11.dtd">
<svg version="1.1" xmlns="http://www.w3.org/2000/svg" xmlns:xlink="http://www.w3.org/1999/xlink" width="30" height="30" viewBox="0 0 30 30">
<g>
	<line stroke-width="1" x1="" y1="" x2="" y2="" stroke="#449FDB" opacity=""></line>
</g>
	<path d="M17.714 9.833v2.656c-0.317 0.065-0.657-0.007-0.906-0.253l-3.021-3.021c-0.389-0.392-0.389-1.025 0-1.414l3.021-3.021c0.249-0.246 0.589-0.32 0.906-0.255v2.671h7.035c0.177 0.871 0.177 1.768-0.003 2.636h-7.032zM18.356 21.647l0.022 0.022c0.608-0.336 1.208-0.738 1.803-1.17l5.684 5.034c-1.199 1.036-2.497 1.884-3.866 2.523-3.639-0.671-8.299-3.376-12.485-7.562-4.182-4.182-6.887-8.838-7.561-12.474 0.64-1.372 1.49-2.674 2.526-3.875l5.039 5.69c-0.433 0.593-0.835 1.195-1.171 1.801l0.021 0.022c-0.589 1.293 0.774 4.11 3.327 6.663s5.367 3.917 6.661 3.326z" fill="#000000"></path>
</svg>
