<?xml version="1.0" encoding="UTF-8" standalone="no"?>
<!-- Created with Inkscape (http://www.inkscape.org/) -->

<svg
   xmlns:dc="http://purl.org/dc/elements/1.1/"
   xmlns:cc="http://creativecommons.org/ns#"
   xmlns:rdf="http://www.w3.org/1999/02/22-rdf-syntax-ns#"
   xmlns:svg="http://www.w3.org/2000/svg"
   xmlns="http://www.w3.org/2000/svg"
   xmlns:inkscape="http://www.inkscape.org/namespaces/inkscape"
   version="1.1"
   width="30"
   height="30"
   viewBox="0 0 30 30"
   id="svg2">
  <metadata
     id="metadata10">
    <rdf:RDF>
      <cc:Work
         rdf:about="">
        <dc:format>image/svg+xml</dc:format>
        <dc:type
           rdf:resource="http://purl.org/dc/dcmitype/StillImage" />
      </cc:Work>
    </rdf:RDF>
  </metadata>
  <defs
     id="defs8" />
  <path
     d="m 26.3,21.3 -8,-15 c -1.8,-3.2 -4.8,-3.2 -6.6,0 l -8,15 c -1.8,3.2 -0.3,5.8 3.4,5.8 H 23 c 3.6,0 5.1,-2.6 3.3,-5.8 z M 22,24.5 c -2.1,-0.4 -4.8,-2 -7.3,-4.4 -2.4,-2.4 -4,-5.1 -4.4,-7.3 0.4,-0.8 0.9,-1.6 1.5,-2.3 l 2.9,3.3 c -0.3,0.3 -0.5,0.7 -0.7,1.1 -0.3,0.8 0.4,2.4 1.9,3.9 1.5,1.5 3.1,2.3 3.9,1.9 0.4,-0.2 0.7,-0.4 1.1,-0.7 l 3.3,2.9 c -0.6,0.7 -1.4,1.2 -2.2,1.6 z"
     inkscape:connector-curvature="0"
     id="path4" />
</svg>
