<?xml version="1.0" encoding="utf-8"?>
<!-- Generated by IcoMoon.io -->
<!DOCTYPE svg PUBLIC "-//W3C//DTD SVG 1.1//EN" "http://www.w3.org/Graphics/SVG/1.1/DTD/svg11.dtd">
<svg version="1.1" xmlns="http://www.w3.org/2000/svg" xmlns:xlink="http://www.w3.org/1999/xlink" width="30" height="30" viewBox="0 0 30 30">
<g>
	<line stroke-width="1" x1="" y1="" x2="" y2="" stroke="#449FDB" opacity=""></line>
</g>
	<path d="M21.864 12.237c-0.246 0.246-0.586 0.318-0.903 0.253v-2.657h-7.035c-0.179-0.868-0.179-1.765 0-2.636h7.035v-2.671c0.317-0.065 0.657 0.009 0.903 0.255l3.021 3.021c0.392 0.389 0.392 1.022 0 1.414l-3.021 3.021zM18.356 21.647l0.022 0.022c0.608-0.336 1.208-0.738 1.803-1.17l5.684 5.034c-1.199 1.036-2.497 1.884-3.869 2.523-3.636-0.671-8.298-3.376-12.482-7.562-4.182-4.182-6.887-8.838-7.562-12.474 0.64-1.372 1.49-2.674 2.528-3.875l5.039 5.69c-0.435 0.593-0.837 1.195-1.173 1.801l0.022 0.022c-0.589 1.293 0.774 4.11 3.327 6.663 2.551 2.552 5.367 3.917 6.661 3.326z" fill="#000000"></path>
</svg>
