<?xml version="1.0" encoding="UTF-8" standalone="no"?>
<!-- Created with Inkscape (http://www.inkscape.org/) -->

<svg
   xmlns:dc="http://purl.org/dc/elements/1.1/"
   xmlns:cc="http://creativecommons.org/ns#"
   xmlns:rdf="http://www.w3.org/1999/02/22-rdf-syntax-ns#"
   xmlns:svg="http://www.w3.org/2000/svg"
   xmlns="http://www.w3.org/2000/svg"
   xmlns:inkscape="http://www.inkscape.org/namespaces/inkscape"
   version="1.1"
   width="32"
   height="32"
   viewBox="0 0 32 32"
   id="svg2">
  <metadata
     id="metadata10">
    <rdf:RDF>
      <cc:Work
         rdf:about="">
        <dc:format>image/svg+xml</dc:format>
        <dc:type
           rdf:resource="http://purl.org/dc/dcmitype/StillImage" />
      </cc:Work>
    </rdf:RDF>
  </metadata>
  <defs
     id="defs8" />
  <path
     d="m 15.983,9.56 c -3.55,0 -6.43,2.88 -6.43,6.43 0,3.55 2.88,6.43 6.43,6.43 3.55,0 6.43,-2.88 6.43,-6.43 0,-3.55 -2.88,-6.43 -6.43,-6.43 z M 26.173,4.98 H 5.826 c -1.844,0 -3.34,1.496 -3.34,3.34 v 15.36 c 0,1.844 1.496,3.34 3.34,3.34 H 26.17 c 1.845,0 3.34,-1.496 3.34,-3.34 V 8.32 c 0,-1.844 -1.495,-3.34 -3.34,-3.34 z M 16.008,24.013 c -4.426,0 -8.013,-3.587 -8.013,-8.012 0,-4.425 3.587,-8.01 8.012,-8.01 4.424,0 8.01,3.59 8.01,8.01 0,4.42 -3.586,8.02 -8.01,8.02 z"
     inkscape:connector-curvature="0"
     id="path4" />
</svg>
