<?xml version="1.0" encoding="utf-8"?>
<!-- Generated by IcoMoon.io -->
<!DOCTYPE svg PUBLIC "-//W3C//DTD SVG 1.1//EN" "http://www.w3.org/Graphics/SVG/1.1/DTD/svg11.dtd">
<svg version="1.1" xmlns="http://www.w3.org/2000/svg" xmlns:xlink="http://www.w3.org/1999/xlink" width="30" height="30" viewBox="0 0 30 30">
<g>
	<line stroke-width="1" x1="" y1="" x2="" y2="" stroke="#449FDB" opacity=""></line>
</g>
	<path d="M25.949 4.77l-20.117 20.117c-0.311-0.204-0.575-0.47-0.781-0.779l9.713-9.714-0.668-0.179c-1.441-0.386-2.301-1.873-1.913-3.314l2.001-7.468 1.492 0.4-2.001 7.468c-0.165 0.618 0.202 1.254 0.819 1.42l1.532 0.41 9.141-9.141c0.312 0.203 0.579 0.469 0.782 0.78zM18.277 16.533c0.128-0.477 0.107-0.956-0.014-1.401l-1.656 1.657-1.315 4.909-2.334-0.626 1.663 5.814 4.348-4.203-2.184-0.585 1.492-5.565z" fill="#000000"></path>
</svg>
