<?xml version="1.0" encoding="utf-8"?>
<!-- Generated by IcoMoon.io -->
<!DOCTYPE svg PUBLIC "-//W3C//DTD SVG 1.1//EN" "http://www.w3.org/Graphics/SVG/1.1/DTD/svg11.dtd">
<svg version="1.1" xmlns="http://www.w3.org/2000/svg" xmlns:xlink="http://www.w3.org/1999/xlink" width="30" height="30" viewBox="0 0 30 30">
<g>
	<line stroke-width="1" x1="" y1="" x2="" y2="" stroke="#449FDB" opacity=""></line>
</g>
	<path d="M20.97 22.687l-4.348 4.203-1.663-5.814 2.334 0.626 1.49-5.563c0.166-0.618-0.201-1.254-0.818-1.42l-1.867-0.5c-1.441-0.386-2.301-1.873-1.913-3.314l2.001-7.468 1.492 0.4-2.001 7.468c-0.165 0.618 0.202 1.254 0.819 1.42l1.869 0.5c1.441 0.386 2.298 1.874 1.913 3.312l-1.492 5.565 2.184 0.585zM10.772 15.949h-2.381l-0.457 1.651h-1.421l2.258-7.125h1.682l2.238 7.125h-1.466l-0.453-1.651zM8.646 14.92h1.867l-0.907-3.312h-0.040l-0.92 3.312z" fill="#000000"></path>
</svg>
