<?xml version="1.0" encoding="utf-8"?>
<!-- Generated by IcoMoon.io -->
<!DOCTYPE svg PUBLIC "-//W3C//DTD SVG 1.1//EN" "http://www.w3.org/Graphics/SVG/1.1/DTD/svg11.dtd">
<svg version="1.1" xmlns="http://www.w3.org/2000/svg" xmlns:xlink="http://www.w3.org/1999/xlink" width="30" height="30" viewBox="0 0 30 30">
<g>
	<line stroke-width="1" x1="" y1="" x2="" y2="" stroke="#449FDB" opacity=""></line>
</g>
	<path d="M28.705 9.769c0 1.857-1.45 3.54-3.8 4.773v-0.327c1.812-1.060 2.906-2.425 2.906-3.917 0-3.374-5.59-6.108-12.484-6.108v-0.002h-0.093l-0.934 1.796-3.093-2.416 5.604-2.417-0.927 1.787c7.128 0.15 12.821 3.146 12.821 6.831zM14.768 25.391h-0.128c-6.879-0.011-12.452-3.287-12.452-7.331 0-1.789 1.094-3.427 2.908-4.7v-0.392c-2.348 1.48-3.802 3.5-3.802 5.728 0 4.422 5.694 8.019 12.822 8.199l-0.927 2.145 5.604-2.9-3.093-2.9-0.932 2.151zM15.002 11.487c-1.676 0-3.034 1.358-3.034 3.036s1.358 3.036 3.034 3.036c1.677 0 3.037-1.358 3.037-3.036s-1.36-3.036-3.037-3.036zM22.604 10.979v7.063c0 1.105-0.896 1.958-1.999 1.958h-11.211c-1.104 0-1.999-0.853-1.999-1.958v-7.063c0-1.104 0.895-1.979 1.999-1.979h11.212c1.103 0 1.998 0.875 1.998 1.979zM18.789 14.523c0-2.090-1.694-3.784-3.787-3.784-2.088 0-3.782 1.694-3.782 3.784s1.694 3.783 3.782 3.783c2.093 0 3.787-1.692 3.787-3.783z" fill="#000000"></path>
</svg>
