<?xml version="1.0" encoding="utf-8"?>
<!-- Generated by IcoMoon.io -->
<!DOCTYPE svg PUBLIC "-//W3C//DTD SVG 1.1//EN" "http://www.w3.org/Graphics/SVG/1.1/DTD/svg11.dtd">
<svg version="1.1" xmlns="http://www.w3.org/2000/svg" xmlns:xlink="http://www.w3.org/1999/xlink" width="30" height="30" viewBox="0 0 30 30">
<g>
	<line stroke-width="1" x1="" y1="" x2="" y2="" stroke="#449FDB" opacity=""></line>
</g>
	<path d="M25.184 21.978l-5.959-5.653c-0.102-0.097-0.15-0.215-0.225-0.322v3.997c0 1.657-1.345 3-3.001 3h-9.999c-1.657 0-3-1.343-3-3.001v-9.999c0-1.656 1.343-2.999 3-2.999h9.999c1.656 0 3.001 1.343 3.001 2.999v3.997c0.074-0.107 0.123-0.227 0.225-0.322l5.959-5.653c0.488-0.461 1.159-0.598 1.788-0.475v14.907c-0.629 0.123-1.3-0.016-1.788-0.476z" fill="#000000"></path>
</svg>
