<?xml version="1.0" encoding="utf-8"?>
<!-- Generated by IcoMoon.io -->
<!DOCTYPE svg PUBLIC "-//W3C//DTD SVG 1.1//EN" "http://www.w3.org/Graphics/SVG/1.1/DTD/svg11.dtd">
<svg version="1.1" xmlns="http://www.w3.org/2000/svg" xmlns:xlink="http://www.w3.org/1999/xlink" width="30" height="30" viewBox="0 0 30 30">
<g>
	<line stroke-width="1" x1="" y1="" x2="" y2="" stroke="#449FDB" opacity=""></line>
</g>
	<path d="M8.75 10.75h12.5v2.945l1.576-1.576v-2.524c0-0.327-0.267-0.595-0.596-0.595h-14.636c-0.328 0-0.594 0.268-0.594 0.595v10.623c0 0.329 0.266 0.595 0.594 0.595h6.54l1.562-1.562h-6.946v-8.501zM16.46 20.709h1.794l-1.794-1.798v1.798zM22.23 20.812c0.328 0 0.596-0.268 0.596-0.597v-1.438l-2.034 2.035h1.438zM25.295 12.094c-0.555-0.557-1.236-0.777-1.52-0.494l-6.811 6.81 2.014 2.012 6.811-6.808c0.285-0.284 0.063-0.964-0.494-1.52z" fill="#000000"></path>
	<path d="M13 13.5c0 0.828-0.672 1.5-1.5 1.5s-1.5-0.672-1.5-1.5c0-0.828 0.672-1.5 1.5-1.5s1.5 0.672 1.5 1.5z" fill="#000000"></path>
</svg>
