<?xml version="1.0" encoding="utf-8"?>
<!-- Generated by IcoMoon.io -->
<!DOCTYPE svg PUBLIC "-//W3C//DTD SVG 1.1//EN" "http://www.w3.org/Graphics/SVG/1.1/DTD/svg11.dtd">
<svg version="1.1" xmlns="http://www.w3.org/2000/svg" xmlns:xlink="http://www.w3.org/1999/xlink" width="30" height="30" viewBox="0 0 30 30">
<g>
	<line stroke-width="1" x1="" y1="" x2="" y2="" stroke="#449FDB" opacity=""></line>
</g>
	<path d="M21.188 5.032h-12.317c-2.114 0-3.828 1.714-3.828 3.831v12.315c0 2.114 1.714 3.822 3.828 3.822h12.317c2.113 0 3.812-1.708 3.812-3.822v-12.315c0-2.117-1.699-3.831-3.812-3.831zM23 20.757c0 1.374-0.858 2.243-2.231 2.243h-11.515c-1.371 0-2.254-0.869-2.254-2.243v-11.512c0-1.371 0.883-2.245 2.254-2.245h11.515c1.373 0 2.231 0.874 2.231 2.245v11.512z" fill="#000000"></path>
</svg>
