<?xml version="1.0" encoding="utf-8"?>
<!-- Generated by IcoMoon.io -->
<!DOCTYPE svg PUBLIC "-//W3C//DTD SVG 1.1//EN" "http://www.w3.org/Graphics/SVG/1.1/DTD/svg11.dtd">
<svg version="1.1" xmlns="http://www.w3.org/2000/svg" xmlns:xlink="http://www.w3.org/1999/xlink" width="30" height="30" viewBox="0 0 30 30">
<g>
	<line stroke-width="1" x1="" y1="" x2="" y2="" stroke="#449FDB" opacity=""></line>
</g>
	<path d="M13.030 14.609l-2.85-2.85c0.218-0.823 0.532-1.555 0.894-2.22l3.991 3.991 3.979-3.979c0.36 0.666 0.674 1.399 0.891 2.222l-2.835 2.836c-0.005 0.004-0.011 0.008-0.016 0.013-0.232 0.232-0.238 0.603-0.022 0.845l-0.002 0.003 2.874 2.875c-0.217 0.821-0.53 1.553-0.89 2.218l-3.979-3.979-3.991 3.992c-0.361-0.664-0.674-1.396-0.892-2.217l2.889-2.889-0.003-0.003c0.216-0.242 0.21-0.612-0.022-0.845-0.005-0.005-0.010-0.008-0.016-0.013z" fill="#000000"></path>
</svg>
