<?xml version="1.0" encoding="UTF-8" standalone="no"?>
<svg
   xmlns:dc="http://purl.org/dc/elements/1.1/"
   xmlns:cc="http://creativecommons.org/ns#"
   xmlns:rdf="http://www.w3.org/1999/02/22-rdf-syntax-ns#"
   xmlns:svg="http://www.w3.org/2000/svg"
   xmlns="http://www.w3.org/2000/svg"
   version="1.1"
   id="svg2"
   viewBox="0 0 30 30"
   height="30"
   width="30">
  <metadata
     id="metadata10">
    <rdf:RDF>
      <cc:Work
         rdf:about="">
        <dc:format>image/svg+xml</dc:format>
        <dc:type
           rdf:resource="http://purl.org/dc/dcmitype/StillImage" />
      </cc:Work>
    </rdf:RDF>
  </metadata>
  <defs
     id="defs8" />
  <path
     id="path4"
     d="M8.24 22.507h11.25c1.19 0 2.238-.567 2.925-1.43l.01.01.11-.154c.032-.045.066-.09.097-.138l4.1-5.795-4.307-6.087-.018.017c-.687-.86-1.73-1.42-2.918-1.42H8.24c-2.07 0-3.752 1.68-3.752 3.75v7.498c0 2.07 1.68 3.75 3.75 3.75zm4.284-7.476c.025-.02.04-.03.056-.04-.02 0-.04-.01-.072-.04l-.012-.01-2.294-2.29c.175-.69.425-1.31.73-1.86l2.923 2.92 2.934-2.93c.307.54.557 1.167.732 1.85l-2.326 2.328h.002c-.023.03-.04.033-.054.043.02.006.04.013.072.045l.01.01 2.304 2.304c-.17.696-.42 1.325-.73 1.87l-2.93-2.93-2.93 2.936c-.31-.543-.56-1.173-.732-1.865l2.33-2.324-.002-.003z" />
</svg>
