<?xml version="1.0" encoding="utf-8"?>
<!-- Generated by IcoMoon.io -->
<!DOCTYPE svg PUBLIC "-//W3C//DTD SVG 1.1//EN" "http://www.w3.org/Graphics/SVG/1.1/DTD/svg11.dtd">
<svg version="1.1" xmlns="http://www.w3.org/2000/svg" xmlns:xlink="http://www.w3.org/1999/xlink" width="30" height="30" viewBox="0 0 30 30">
<g>
	<line stroke-width="1" x1="" y1="" x2="" y2="" stroke="#449FDB" opacity=""></line>
</g>
	<path d="M21.757 22.507h-11.248c-1.19 0-2.237-0.567-2.924-1.43l-0.010 0.011-0.108-0.155c-0.033-0.045-0.067-0.091-0.097-0.138l-4.102-5.796 4.307-6.086 0.018 0.017c0.687-0.859 1.731-1.42 2.917-1.42h11.248c2.070 0 3.75 1.679 3.75 3.75v7.498c-0.001 2.069-1.681 3.749-3.751 3.749zM17.474 15.031c-0.025-0.027-0.040-0.031-0.057-0.041 0.020-0.007 0.042-0.013 0.073-0.046 0.004-0.003 0.007-0.006 0.012-0.009l2.293-2.292c-0.175-0.689-0.425-1.314-0.73-1.857l-2.922 2.922-2.933-2.934c-0.308 0.541-0.558 1.163-0.733 1.85l2.325 2.324-0.003 0.002c0.026 0.028 0.040 0.032 0.057 0.042-0.020 0.006-0.040 0.013-0.073 0.045-0.004 0.004-0.007 0.007-0.011 0.010l-2.302 2.303c0.173 0.695 0.423 1.324 0.731 1.871l2.93-2.93 2.934 2.934c0.309-0.544 0.558-1.174 0.732-1.866l-2.325-2.324 0.002-0.004z" fill="#000000"></path>
</svg>
