<?xml version="1.0" encoding="UTF-8" standalone="no"?>
<!-- Created with Inkscape (http://www.inkscape.org/) -->

<svg
   xmlns:dc="http://purl.org/dc/elements/1.1/"
   xmlns:cc="http://creativecommons.org/ns#"
   xmlns:rdf="http://www.w3.org/1999/02/22-rdf-syntax-ns#"
   xmlns:svg="http://www.w3.org/2000/svg"
   xmlns="http://www.w3.org/2000/svg"
   xmlns:inkscape="http://www.inkscape.org/namespaces/inkscape"
   version="1.1"
   width="30"
   height="30"
   viewBox="0 0 30 30"
   id="svg2">
  <metadata
     id="metadata10">
    <rdf:RDF>
      <cc:Work
         rdf:about="">
        <dc:format>image/svg+xml</dc:format>
        <dc:type
           rdf:resource="http://purl.org/dc/dcmitype/StillImage" />
      </cc:Work>
    </rdf:RDF>
  </metadata>
  <defs
     id="defs8" />
  <path
     d="m 27.15,24.424 c 0.24,0.24 0.053,0.814 -0.417,1.287 -0.473,0.48 -1.047,0.66 -1.287,0.42 l -3.64,-3.64 c -0.91,0.6 -1.994,0.95 -3.162,0.95 -0.85,0 -1.65,-0.19 -2.378,-0.52 H 4.42 C 3.75,21.351 3.356,19.511 3.356,17.529 H 3.36 v -0.002 c 0,-1.975 1.656,-3.666 4.04,-4.475 l 3.11,3.11 3.11,-3.11 c 0.346,0.118 0.67,0.26 0.983,0.41 1.047,-1.013 2.468,-1.644 4.04,-1.644 3.212,0 5.814,2.603 5.814,5.813 0,1.167 -0.354,2.25 -0.946,3.163 l 3.64,3.645 z M 18.646,13.19 c -2.445,0 -4.43,1.982 -4.43,4.43 0,2.446 1.984,4.43 4.43,4.43 2.446,0 4.43,-1.983 4.43,-4.43 0,-2.448 -1.984,-4.43 -4.43,-4.43 z M 10.51,11.92 c -2.254,0 -4.082,-1.827 -4.082,-4.082 0,-2.253 1.828,-4.082 4.08,-4.082 2.252,0 4.082,1.828 4.082,4.082 0,2.256 -1.827,4.08 -4.08,4.08 z"
     inkscape:connector-curvature="0"
     id="path4" />
</svg>
