<?xml version="1.0" encoding="utf-8"?>
<!-- Generated by IcoMoon.io -->
<!DOCTYPE svg PUBLIC "-//W3C//DTD SVG 1.1//EN" "http://www.w3.org/Graphics/SVG/1.1/DTD/svg11.dtd">
<svg version="1.1" xmlns="http://www.w3.org/2000/svg" xmlns:xlink="http://www.w3.org/1999/xlink" width="30" height="30" viewBox="0 0 30 30">
<g>
	<line stroke-width="1" x1="" y1="" x2="" y2="" stroke="#449FDB" opacity=""></line>
</g>
	<path d="M27.151 24.424c0.239 0.24 0.052 0.814-0.418 1.287-0.473 0.471-1.047 0.658-1.287 0.418v0l-3.64-3.643c-0.911 0.594-1.994 0.947-3.162 0.947-0.85 0-1.651-0.193-2.378-0.521h-11.845c-0.671-1.57-1.065-3.414-1.065-5.395h0.004c0-0.002 0-0.002 0-0.002 0-1.976 1.656-3.667 4.041-4.476l3.108 3.108 3.11-3.108c0.347 0.119 0.671 0.26 0.984 0.412 1.047-1.014 2.468-1.645 4.041-1.645 3.211 0 5.813 2.602 5.813 5.812 0 1.168-0.354 2.251-0.946 3.164l3.64 3.642zM18.645 13.19c-2.445 0-4.43 1.982-4.43 4.43 0 2.446 1.984 4.429 4.43 4.429s4.431-1.982 4.431-4.429c-0.001-2.448-1.985-4.43-4.431-4.43zM10.509 11.919c-2.253 0-4.081-1.826-4.081-4.081 0-2.253 1.828-4.082 4.081-4.082s4.081 1.828 4.081 4.082c0 2.256-1.827 4.081-4.081 4.081z" fill="#000000"></path>
</svg>
