<?xml version="1.0" encoding="utf-8"?>
<!-- Generated by IcoMoon.io -->
<!DOCTYPE svg PUBLIC "-//W3C//DTD SVG 1.1//EN" "http://www.w3.org/Graphics/SVG/1.1/DTD/svg11.dtd">
<svg version="1.1" xmlns="http://www.w3.org/2000/svg" xmlns:xlink="http://www.w3.org/1999/xlink" width="30" height="30" viewBox="0 0 30 30">
<g>
	<line stroke-width="1" x1="" y1="" x2="" y2="" stroke="#449FDB" opacity=""></line>
</g>
	<path d="M25.013 8.792c-0.736 0.327-1.528 0.548-2.358 0.646 0.848-0.508 1.499-1.313 1.806-2.271-0.794 0.47-1.671 0.812-2.606 0.996-0.75-0.797-1.817-1.296-2.996-1.296-2.267 0-4.106 1.837-4.106 4.104 0 0.322 0.036 0.636 0.108 0.936-3.413-0.17-6.438-1.804-8.462-4.287-0.356 0.607-0.557 1.311-0.557 2.063 0 1.423 0.725 2.681 1.826 3.417-0.674-0.022-1.307-0.206-1.859-0.515 0 0.018 0 0.036 0 0.052 0 1.989 1.414 3.648 3.293 4.025-0.345 0.094-0.709 0.145-1.083 0.145-0.264 0-0.521-0.026-0.772-0.073 0.523 1.631 2.039 2.817 3.835 2.851-1.405 1.101-3.175 1.756-5.099 1.756-0.331 0-0.658-0.018-0.978-0.058 1.817 1.165 3.974 1.846 6.292 1.846 7.55 0 11.68-6.256 11.68-11.68 0-0.179-0.005-0.355-0.014-0.53 0.804-0.58 1.499-1.303 2.050-2.127z" fill="#000000"></path>
</svg>
