<?xml version="1.0" encoding="utf-8"?>
<!-- Generated by IcoMoon.io -->
<!DOCTYPE svg PUBLIC "-//W3C//DTD SVG 1.1//EN" "http://www.w3.org/Graphics/SVG/1.1/DTD/svg11.dtd">
<svg version="1.1" xmlns="http://www.w3.org/2000/svg" xmlns:xlink="http://www.w3.org/1999/xlink" width="30" height="30" viewBox="0 0 30 30">
<g>
	<line stroke-width="1" x1="" y1="" x2="" y2="" stroke="#449FDB" opacity=""></line>
</g>
	<path d="M14.997 22.714c-4.261 0-7.716-3.454-7.716-7.714 0-2.134 0.866-4.065 2.264-5.461l1.191 1.192c-1.090 1.090-1.766 2.598-1.766 4.262 0 3.328 2.698 6.025 6.026 6.025s6.026-2.697 6.026-6.025c0-3.32-2.686-6.012-6.002-6.025-0.050 0.843-0.192 1.631-0.447 2.26l-2.256-2.255c-0.281-0.28-0.281-0.734 0-1.014l2.254-2.255c0.235 0.58 0.367 1.298 0.431 2.059v-0.48c4.26 0.004 7.71 3.457 7.71 7.717s-3.454 7.714-7.715 7.714z" fill="#000000"></path>
</svg>
