<?xml version="1.0" encoding="utf-8"?>
<!-- Generated by IcoMoon.io -->
<!DOCTYPE svg PUBLIC "-//W3C//DTD SVG 1.1//EN" "http://www.w3.org/Graphics/SVG/1.1/DTD/svg11.dtd">
<svg version="1.1" xmlns="http://www.w3.org/2000/svg" xmlns:xlink="http://www.w3.org/1999/xlink" width="30" height="30" viewBox="0 0 30 30">
<g>
	<line stroke-width="1" x1="" y1="" x2="" y2="" stroke="#449FDB" opacity=""></line>
</g>
	<path d="M15.864 17.131c-0.475 0.479-1.249 0.479-1.728 0l-8.841-8.84c0.183-0.184 0.433-0.291 0.71-0.291h18.002c0.277 0 0.528 0.105 0.703 0.284l-8.846 8.847zM13.707 19.463c0.716 0.716 1.875 0.716 2.591 0 0 0 8.702-8.692 8.702-8.684l-0.004 12.196c0 0.553-0.434 1-0.988 1h-18.003c-0.55 0-0.998-0.447-0.998-1v-12.196c0-0.004 0.002-0.006 0.002-0.011l8.698 8.695z" fill="#000000"></path>
</svg>
