<?xml version="1.0" encoding="utf-8"?>
<!-- Generated by IcoMoon.io -->
<!DOCTYPE svg PUBLIC "-//W3C//DTD SVG 1.1//EN" "http://www.w3.org/Graphics/SVG/1.1/DTD/svg11.dtd">
<svg version="1.1" xmlns="http://www.w3.org/2000/svg" xmlns:xlink="http://www.w3.org/1999/xlink" width="30" height="30" viewBox="0 0 30 30">
<g>
	<line stroke-width="1" x1="" y1="" x2="" y2="" stroke="#449FDB" opacity=""></line>
</g>
	<path d="M19.331 13.894c0.002 0.009 0.005 0.018 0.007 0.027l-1.977 1.875 0.497 2.671c-0.009 0.005-0.016 0.012-0.022 0.016 0.025 0.115 0.007 0.235-0.094 0.309-0.099 0.072-0.215 0.055-0.312 0-0.010 0.006-0.014 0.012-0.021 0.016l-2.4-1.302-2.399 1.302c-0.006-0.004-0.013-0.010-0.020-0.016-0.101 0.055-0.215 0.070-0.313 0-0.101-0.073-0.121-0.193-0.094-0.309-0.007-0.006-0.016-0.011-0.022-0.016l0.497-2.671-1.978-1.875c0.002-0.009 0.006-0.018 0.009-0.027-0.085-0.076-0.139-0.184-0.101-0.3 0.038-0.114 0.141-0.17 0.25-0.186 0.004-0.006 0.004-0.016 0.009-0.022l2.708-0.358 1.17-2.455c0.011 0 0.020-0.002 0.029-0.002 0.047-0.105 0.132-0.19 0.255-0.19 0.125 0 0.21 0.085 0.257 0.19 0.009 0 0.018 0.002 0.027 0.002l1.171 2.455 2.709 0.358c0.002 0.006 0.005 0.016 0.010 0.022 0.109 0.016 0.212 0.072 0.25 0.186 0.037 0.116-0.017 0.223-0.102 0.3z" fill="#000000"></path>
</svg>
