<?xml version="1.0" encoding="utf-8"?>
<!-- Generated by IcoMoon.io -->
<!DOCTYPE svg PUBLIC "-//W3C//DTD SVG 1.1//EN" "http://www.w3.org/Graphics/SVG/1.1/DTD/svg11.dtd">
<svg version="1.1" xmlns="http://www.w3.org/2000/svg" xmlns:xlink="http://www.w3.org/1999/xlink" width="30" height="30" viewBox="0 0 30 30">
<g>
	<line stroke-width="1" x1="" y1="" x2="" y2="" stroke="#449FDB" opacity=""></line>
</g>
	<path d="M25.805 13.156c0 0.002 0.002 0.005 0.002 0.005l-4.944 4.691 1.246 6.715c-0.004 0.003-0.007 0.003-0.009 0.005 0.052 0.277-0.049 0.57-0.293 0.745-0.244 0.179-0.562 0.184-0.811 0.045-0.002 0.002-0.002 0.002-0.004 0.004l-5.992-3.257-5.99 3.256c-0.002-0.002-0.003-0.002-0.006-0.004-0.249 0.139-0.565 0.134-0.811-0.045-0.243-0.176-0.343-0.469-0.293-0.745-0.002-0.002-0.004-0.005-0.007-0.005l1.247-6.715-4.945-4.691c0-0.002 0.001-0.002 0.002-0.005-0.211-0.194-0.305-0.497-0.21-0.787s0.346-0.477 0.627-0.513c0-0.002 0.001-0.002 0.001-0.004l6.762-0.891 2.932-6.148c0.002 0 0.004 0 0.007-0.002 0.119-0.26 0.378-0.443 0.685-0.443 0.305 0 0.565 0.183 0.685 0.443 0.001 0.002 0.003 0.002 0.004 0.002l2.933 6.148 6.764 0.891c0 0.002 0 0.004 0.002 0.007 0.282 0.034 0.532 0.224 0.626 0.51 0.094 0.291 0 0.593-0.21 0.788z" fill="#000000"></path>
</svg>
