<?xml version="1.0" encoding="utf-8"?>
<!-- Generated by IcoMoon.io -->
<!DOCTYPE svg PUBLIC "-//W3C//DTD SVG 1.1//EN" "http://www.w3.org/Graphics/SVG/1.1/DTD/svg11.dtd">
<svg version="1.1" xmlns="http://www.w3.org/2000/svg" xmlns:xlink="http://www.w3.org/1999/xlink" width="30" height="30" viewBox="0 0 30 30">
<g>
	<line stroke-width="1" x1="" y1="" x2="" y2="" stroke="#449FDB" opacity=""></line>
</g>
	<path d="M22.182 5.563h-14.299c-1.007 0-1.819 0.813-1.819 1.818v0.127c0.399 0.143 0.814 0.268 1.23 0.391v-0.149c0-0.547 0.443-0.991 0.988-0.991h13.497c0.549 0 0.992 0.443 0.992 0.991v0.15c0.416-0.123 0.83-0.247 1.228-0.389v-0.13c0-1.004-0.811-1.818-1.817-1.818zM15.918 8.95c-0.49-0.488-1.283-0.488-1.773 0l-3.788 3.787c-0.308 0.309-0.399 0.737-0.316 1.135h1.991v4.128c1.97 0.242 3.999 0.242 5.968 0v-4.128h2.021c0.082-0.398-0.008-0.826-0.318-1.135l-3.785-3.787z" fill="#000000"></path>
	<path d="M6.069 18.238l0.289 2.598-2.576-0.732-0.275 1.765 2.385 0.183-1.559 2.1 1.667 0.834 0.967-2.195 1.1 2.209 1.603-0.852-1.576-2.098 2.401-0.169-0.232-1.777-2.633 0.732 0.289-2.598h-1.85z" fill="#000000"></path>
	<path d="M14.069 18.238l0.289 2.598-2.576-0.732-0.277 1.765 2.387 0.183-1.559 2.1 1.664 0.839 0.967-2.196 1.102 2.205 1.604-0.852-1.576-2.1 2.402-0.169-0.232-1.778-2.636 0.733 0.29-2.599h-1.849v0.003z" fill="#000000"></path>
	<path d="M22.064 18.238l0.291 2.598-2.578-0.732-0.273 1.765 2.387 0.183-1.561 2.1 1.668 0.839 0.965-2.196 1.101 2.205 1.603-0.852-1.571-2.1 2.397-0.169-0.233-1.778-2.631 0.733 0.288-2.599h-1.853v0.003z" fill="#000000"></path>
</svg>
