<?xml version="1.0" encoding="utf-8"?>
<!-- Generated by IcoMoon.io -->
<!DOCTYPE svg PUBLIC "-//W3C//DTD SVG 1.1//EN" "http://www.w3.org/Graphics/SVG/1.1/DTD/svg11.dtd">
<svg version="1.1" xmlns="http://www.w3.org/2000/svg" xmlns:xlink="http://www.w3.org/1999/xlink" width="30" height="30" viewBox="0 0 30 30">
<g>
	<line stroke-width="1" x1="" y1="" x2="" y2="" stroke="#449FDB" opacity=""></line>
</g>
	<path d="M22.182 5.313h-14.299c-1.007 0-1.819 0.9-1.819 2.012v0.141c0.399 0.158 0.814 0.297 1.23 0.433v-0.165c0-0.605 0.443-1.097 0.988-1.097h13.497c0.549 0 0.992 0.491 0.992 1.097v0.166c0.416-0.136 0.83-0.273 1.229-0.431v-0.144c0-1.111-0.812-2.012-1.818-2.012zM15.918 8.95c-0.49-0.488-1.283-0.488-1.773 0l-3.788 3.787c-0.308 0.309-0.399 0.737-0.316 1.135h1.991v11.128c1.97 0.242 3.999 0.242 5.967 0v-11.128h2c0.082-0.398 0.014-0.826-0.297-1.135l-3.784-3.787z" fill="#000000"></path>
</svg>
