<?xml version="1.0" encoding="utf-8"?>
<!-- Generated by IcoMoon.io -->
<!DOCTYPE svg PUBLIC "-//W3C//DTD SVG 1.1//EN" "http://www.w3.org/Graphics/SVG/1.1/DTD/svg11.dtd">
<svg version="1.1" xmlns="http://www.w3.org/2000/svg" xmlns:xlink="http://www.w3.org/1999/xlink" width="30" height="30" viewBox="0 0 30 30">
<g>
	<line stroke-width="1" x1="" y1="" x2="" y2="" stroke="#449FDB" opacity=""></line>
</g>
	<path d="M24.531 8.528h-9.536c-1.137-0.004-1.394-0.173-1.57-0.795-0.176-0.626-0.529-0.733-1.589-0.733-2.842 0-2.668 0-3.035 0-1.060 0-1.413 0.107-1.59 0.732s-0.063 0.796-1.211 0.796h0.466c-0.257 0.003-0.465 0.213-0.465 0.472v13.527c0 0.261 0.21 0.473 0.469 0.473h18.061c0.259 0 0.469-0.212 0.469-0.473v-13.527c0-0.261-0.21-0.472-0.469-0.472zM9.784 13.977c0-1.043 0.839-1.889 1.875-1.889s1.875 0.846 1.875 1.889c0 1.043-0.839 1.889-1.875 1.889s-1.875-0.845-1.875-1.889zM18.781 20.818c-0.751 0-0.751-1.135-3.379-1.135s-2.628 1.135-3.379 1.135c-0.415 0-0.75-0.252-0.75-0.757s0.625-1.891 4.13-1.891 4.129 1.38 4.129 1.891c-0.001 0.512-0.337 0.757-0.751 0.757zM19.158 15.866c-1.035 0-1.874-0.845-1.874-1.889s0.839-1.889 1.874-1.889c1.036 0 1.875 0.846 1.875 1.889s-0.839 1.889-1.875 1.889z" fill="#000000"></path>
</svg>
