<?xml version="1.0" encoding="UTF-8" standalone="no"?>
<!-- Created with Inkscape (http://www.inkscape.org/) -->

<svg
   xmlns:dc="http://purl.org/dc/elements/1.1/"
   xmlns:cc="http://creativecommons.org/ns#"
   xmlns:rdf="http://www.w3.org/1999/02/22-rdf-syntax-ns#"
   xmlns:svg="http://www.w3.org/2000/svg"
   xmlns="http://www.w3.org/2000/svg"
   xmlns:inkscape="http://www.inkscape.org/namespaces/inkscape"
   version="1.1"
   width="30"
   height="30"
   viewBox="0 0 30 30"
   id="svg2">
  <metadata
     id="metadata10">
    <rdf:RDF>
      <cc:Work
         rdf:about="">
        <dc:format>image/svg+xml</dc:format>
        <dc:type
           rdf:resource="http://purl.org/dc/dcmitype/StillImage" />
      </cc:Work>
    </rdf:RDF>
  </metadata>
  <defs
     id="defs8" />
  <path
     d="m 21.872,8.908 c 0.043,0.125 0.078,0.255 0.078,0.394 V 20.34 h 3.09 c 0.053,0.527 0.08,1.06 0.082,1.602 H 21.95 v 3.18 c -0.54,0 -1.074,-0.03 -1.602,-0.08 v -3.1 H 9.313 C 8.625,21.942 8.069,21.384 8.069,20.7 V 9.664 H 5 C 4.948,9.136 4.92,8.601 4.918,8.06 h 3.15 V 4.88 C 8.61,4.882 9.146,4.91 9.673,4.96 v 3.1 H 20.71 c 0.13,0 0.254,0.036 0.375,0.076 L 24.47,4.75 c 0.312,0.204 0.576,0.47 0.78,0.78 l -3.377,3.38 z m -12.2,0.756 v 9.883 L 19.555,9.664 H 9.673 z m 0.77,10.675 h 9.907 v -9.91 l -9.91,9.9 z"
     inkscape:connector-curvature="0"
     id="path4" />
</svg>
