<?xml version="1.0" encoding="utf-8"?>
<!-- Generated by IcoMoon.io -->
<!DOCTYPE svg PUBLIC "-//W3C//DTD SVG 1.1//EN" "http://www.w3.org/Graphics/SVG/1.1/DTD/svg11.dtd">
<svg version="1.1" xmlns="http://www.w3.org/2000/svg" xmlns:xlink="http://www.w3.org/1999/xlink" width="30" height="30" viewBox="0 0 30 30">
<g>
	<line stroke-width="1" x1="" y1="" x2="" y2="" stroke="#449FDB" opacity=""></line>
</g>
	<path d="M21.872 8.908c0.043 0.125 0.078 0.255 0.078 0.394v11.037h3.091c0.052 0.528 0.078 1.061 0.081 1.603h-3.172v3.18c-0.539 0-1.074-0.029-1.602-0.080v-3.1h-11.035c-0.688 0-1.244-0.558-1.244-1.242v-11.036h-3.069c-0.052-0.528-0.080-1.063-0.082-1.604h3.15v-3.18c0.542 0.002 1.078 0.029 1.605 0.080v3.1h11.036c0.132 0 0.255 0.036 0.376 0.076l3.386-3.386c0.311 0.204 0.575 0.47 0.78 0.781l-3.379 3.377zM9.673 9.664v9.883l9.882-9.883h-9.882zM10.441 20.339h9.908v-9.907l-9.908 9.907z" fill="#000000"></path>
</svg>
