<?xml version="1.0" encoding="utf-8"?>
<!-- Generated by IcoMoon.io -->
<!DOCTYPE svg PUBLIC "-//W3C//DTD SVG 1.1//EN" "http://www.w3.org/Graphics/SVG/1.1/DTD/svg11.dtd">
<svg version="1.1" xmlns="http://www.w3.org/2000/svg" xmlns:xlink="http://www.w3.org/1999/xlink" width="30" height="30" viewBox="0 0 30 30">
<g>
	<line stroke-width="1" x1="" y1="" x2="" y2="" stroke="#449FDB" opacity=""></line>
</g>
	<path d="M22.717 27.657h-3.717v-1.645h3.001v-2.981h1.656c0 1.696 0 3.039 0 3.751 0 0.75-0.94 0.875-0.94 0.875zM22.001 17h1.656c0 1.188 0 2.895 0 4h-1.656v-4zM22.001 10.033h1.656c0 1.112 0 2.765 0 3.967h-1.656v-3.967zM22.001 4h-3.001v-1.653h3.748c0 0 0.005 0 0.007 0 0.072 0.014 0.902 0.173 0.902 0.905 0 0.651 0 1.998 0 3.748h-1.656v-3zM13 26.013h3.999v1.645h-3.999v-1.645zM15.999 16.033h-0.998v-1h0.998v1zM15.001 13.032h0.998v1h-0.998v-1zM13 2.347h3.999v1.653h-3.999v-1.653zM6.343 26.782c0-0.695 0-2.043 0-3.751h1.656v2.981h3v1.645h-3.781c0 0-0.875-0.114-0.875-0.875zM7.999 7h-1.656c0-1.737 0-3.079 0-3.748 0-0.754 0.875-0.905 0.875-0.905h3.781v1.653h-3v3zM7.999 14h-1.656c0-1.199 0-2.854 0-3.967h1.656v3.967zM7.999 21h-1.656c0-1.105 0-2.812 0-4h1.656v4z" fill="#000000"></path>
	<path d="M13.989 17.307h-2.945v-0.038l1.253-1.473c0.557-0.653 0.94-1.193 1.141-1.62 0.206-0.428 0.307-0.859 0.307-1.296 0-0.56-0.152-1.005-0.459-1.336-0.304-0.332-0.725-0.497-1.264-0.497-0.62 0-1.491 0.546-2.018 1.072l0.345 0.533c0.261-0.247 0.793-0.701 1.003-0.795 0.215-0.094 0.439-0.141 0.676-0.141 0.331 0 0.586 0.107 0.774 0.322 0.184 0.215 0.277 0.506 0.277 0.875 0 0.26-0.036 0.503-0.111 0.729-0.072 0.226-0.182 0.459-0.327 0.696-0.147 0.24-0.45 0.638-0.908 1.198l-1.509 1.822v0.674h3.765v-0.725z" fill="#000000"></path>
	<path d="M20.318 11.501c-0.331-0.302-0.795-0.455-1.39-0.455-0.365 0-0.71 0.063-1.039 0.19-0.329 0.125-0.62 0.297-0.87 0.519l0.352 0.521c0.307-0.217 0.574-0.367 0.814-0.448 0.237-0.081 0.49-0.121 0.759-0.121 0.354 0 0.631 0.094 0.837 0.284s0.309 0.45 0.309 0.783c0 0.417-0.139 0.741-0.421 0.976-0.277 0.235-0.658 0.351-1.137 0.351h-0.611v0.667h0.604c1.171 0 1.752 0.412 1.752 1.24 0 0.922-0.527 1.383-1.589 1.383-0.269 0-0.553-0.037-0.854-0.113s-0.582-0.188-0.851-0.334v0.736c0.255 0.137 0.52 0.232 0.788 0.287 0.271 0.053 0.568 0.080 0.891 0.080 0.747 0 1.325-0.175 1.732-0.523 0.402-0.35 0.608-0.849 0.608-1.497 0-0.455-0.121-0.822-0.358-1.102-0.237-0.277-0.604-0.452-1.097-0.521v-0.036c0.403-0.094 0.717-0.28 0.936-0.555 0.22-0.277 0.329-0.633 0.329-1.067 0-0.526-0.165-0.94-0.494-1.245z" fill="#000000"></path>
</svg>
