<?xml version="1.0" encoding="utf-8"?>
<!-- Generated by IcoMoon.io -->
<!DOCTYPE svg PUBLIC "-//W3C//DTD SVG 1.1//EN" "http://www.w3.org/Graphics/SVG/1.1/DTD/svg11.dtd">
<svg version="1.1" xmlns="http://www.w3.org/2000/svg" xmlns:xlink="http://www.w3.org/1999/xlink" width="30" height="30" viewBox="0 0 30 30">
<g>
	<line stroke-width="1" x1="" y1="" x2="" y2="" stroke="#449FDB" opacity=""></line>
</g>
	<path d="M25.752 27.657c-0.711 0-2.061 0-3.75 0v-1.645h2.998v-3.012h1.625v3.751c0 0-0.125 0.906-0.873 0.906zM25 16.002h1.625v4.968h-1.625v-4.968zM25 9.002h1.625v4.998h-1.625v-4.998zM25 4h-2.998v-1.653c1.651 0 2.992 0 3.75 0 0.703 0 0.873 0.874 0.873 0.874v3.779h-1.625v-3zM16 4v-1.653c1.383 0 2.738 0 4 0v1.653h-4zM16 14.001h-0.998v-1h0.998v1zM10.002 26.013h3.998v1.645c-1.378 0-2.74 0-3.998 0v-1.645zM10.002 2.347c1.258 0 2.617 0 3.998 0v1.653h-3.998v-1.653zM3.346 26.751v-3.751h1.654v3.013h3v1.645c-1.668 0-3.030 0-3.779 0-0.684-0.001-0.875-0.907-0.875-0.907zM5 7h-1.654v-3.779c0 0 0.199-0.874 0.875-0.874 0.725 0 2.090 0 3.779 0v1.653h-3v3zM5 14h-1.654v-4.998h1.654v4.998zM5 20.97h-1.654v-4.968h1.654v4.968zM16 16.002h-0.998v-1h0.998v1zM20 27.657c-1.26 0-2.613 0-4 0v-1.645h4v1.645zM12.996 11.014h-0.936l-2.054 1.616 0.563 0.712c0.609-0.495 0.967-0.788 1.072-0.88 0.107-0.092 0.197-0.177 0.271-0.253-0.026 0.316-0.040 0.743-0.040 1.28v4.511h1.123v-6.986zM19.996 11.014h-0.935l-2.055 1.616 0.563 0.712c0.609-0.495 0.965-0.788 1.072-0.88 0.105-0.092 0.197-0.177 0.271-0.253-0.026 0.316-0.040 0.743-0.040 1.28v4.511h1.123v-6.986z" fill="#000000"></path>
</svg>
