<?xml version="1.0" encoding="utf-8"?>
<!-- Generated by IcoMoon.io -->
<!DOCTYPE svg PUBLIC "-//W3C//DTD SVG 1.1//EN" "http://www.w3.org/Graphics/SVG/1.1/DTD/svg11.dtd">
<svg version="1.1" xmlns="http://www.w3.org/2000/svg" xmlns:xlink="http://www.w3.org/1999/xlink" width="30" height="30" viewBox="0 0 30 30">
<g>
	<line stroke-width="1" x1="" y1="" x2="" y2="" stroke="#449FDB" opacity=""></line>
</g>
	<path d="M28.749 24.627c-0.714 0-2.044 0-3.749 0v-1.627h3v-2.999h1.624v3.751c0 0-0.168 0.875-0.875 0.875zM28 13.001h1.624v3.999h-1.624v-3.999zM28 7h-3v-1.686c1.687 0 3.011 0 3.749 0 0.717 0 0.875 0.906 0.875 0.906v3.78h-1.624v-3zM17 23h3.999v1.627c-1.271 0-2.627 0-3.999 0v-1.627zM17 5.314c1.372 0 2.727 0 3.999 0v1.686h-3.999v-1.686zM14 16.002h1v1h-1v-1zM14 14.001h1v1.001h-1v-1.001zM9 23h4v1.627c-1.372 0-2.727 0-4 0v-1.627zM9 5.314c1.271 0 2.627 0 4 0v1.686h-4v-1.686zM0.344 23.752v-3.751h1.656v2.999h3v1.627c-1.696 0-3.041 0-3.781 0-0.685 0-0.875-0.875-0.875-0.875zM2 10h-1.656v-3.78c0 0 0.176-0.906 0.875-0.906 0.691 0 2.043 0 3.781 0v1.686h-3v3zM2 17h-1.656v-3.999h1.656v3.999zM19.988 18.275h-2.945v-0.038l1.253-1.473c0.56-0.653 0.94-1.194 1.144-1.62s0.307-0.859 0.307-1.296c0-0.559-0.152-1.004-0.459-1.336s-0.727-0.496-1.264-0.496c-0.622 0-1.491 0.546-2.019 1.071l0.345 0.533c0.262-0.249 0.792-0.701 1.004-0.795s0.439-0.141 0.677-0.141c0.328 0 0.586 0.107 0.771 0.322s0.277 0.506 0.277 0.873c0 0.262-0.035 0.505-0.109 0.731-0.071 0.226-0.182 0.459-0.329 0.696-0.146 0.239-0.447 0.638-0.908 1.197l-1.509 1.821v0.674h3.765v-0.723zM12.317 12.471c-0.33-0.303-0.793-0.454-1.388-0.454-0.364 0-0.711 0.062-1.040 0.188-0.328 0.128-0.619 0.3-0.871 0.521l0.353 0.521c0.305-0.217 0.576-0.367 0.814-0.447s0.491-0.121 0.76-0.121c0.353 0 0.631 0.094 0.837 0.284 0.206 0.188 0.308 0.45 0.308 0.781 0 0.416-0.139 0.743-0.419 0.978-0.28 0.233-0.658 0.352-1.137 0.352h-0.612v0.667h0.604c1.169 0 1.753 0.412 1.753 1.237 0 0.925-0.53 1.386-1.59 1.386-0.269 0-0.554-0.038-0.854-0.114s-0.584-0.188-0.851-0.334v0.736c0.255 0.137 0.517 0.233 0.787 0.287s0.567 0.080 0.892 0.080c0.748 0 1.324-0.175 1.73-0.523 0.405-0.35 0.608-0.849 0.608-1.497 0-0.454-0.119-0.821-0.357-1.102-0.237-0.279-0.602-0.452-1.095-0.521v-0.038c0.403-0.092 0.714-0.277 0.934-0.553 0.219-0.277 0.33-0.633 0.33-1.067 0-0.53-0.166-0.946-0.496-1.247z" fill="#000000"></path>
</svg>
