<?xml version="1.0" encoding="utf-8"?>
<!-- Generated by IcoMoon.io -->
<!DOCTYPE svg PUBLIC "-//W3C//DTD SVG 1.1//EN" "http://www.w3.org/Graphics/SVG/1.1/DTD/svg11.dtd">
<svg version="1.1" xmlns="http://www.w3.org/2000/svg" xmlns:xlink="http://www.w3.org/1999/xlink" width="30" height="30" viewBox="0 0 30 30">
<g>
	<line stroke-width="1" x1="" y1="" x2="" y2="" stroke="#449FDB" opacity=""></line>
</g>
	<path d="M28.002 17.002v0.998h-1v-6h1v1c0.551 0 1.998 1.428 1.998 1.97 0 0.51-1.447 2.032-1.998 2.032zM27.002 5h-3.002v-1.688c0 0 2.48 0 3.75 0 0.756 0 0.906 0.907 0.906 0.907v3.781h-1.654v-3zM14.997 28.002c-0.542 0-2-1.449-2-2.002h-0.997v-1h5.996v1h-1c0 0.553-1.552 2.002-1.999 2.002zM12 4.001h0.974c0-0.553 1.551-1.75 2-1.75 0.383 0 1.999 1.197 1.999 1.75h1v0.999h-5.973v-0.999zM1.345 25.752v-3.75h1.655v2.998h3v1.656c0 0-2.498 0-3.78 0-0.709 0-0.875-0.904-0.875-0.904zM3 8h-1.655v-3.781c0 0 0.188-0.907 0.875-0.907 1.237 0 3.78 0 3.78 0v1.688h-3v3zM2.001 12h0.999v6h-0.999v-0.998c-0.553 0-1.97-1.491-1.97-2 0-0.542 1.417-2.001 1.97-2.001v-1.001zM27.002 22.002h1.654v3.75c0 0-0.201 0.904-0.906 0.904-1.254 0-3.75 0-3.75 0v-1.656h3.002v-2.998z" fill="#000000"></path>
</svg>
