<?xml version="1.0" encoding="utf-8"?>
<!-- Generated by IcoMoon.io -->
<!DOCTYPE svg PUBLIC "-//W3C//DTD SVG 1.1//EN" "http://www.w3.org/Graphics/SVG/1.1/DTD/svg11.dtd">
<svg version="1.1" xmlns="http://www.w3.org/2000/svg" xmlns:xlink="http://www.w3.org/1999/xlink" width="30" height="30" viewBox="0 0 30 30">
<g>
	<line stroke-width="1" x1="" y1="" x2="" y2="" stroke="#449FDB" opacity=""></line>
</g>
	<path d="M8.74 25.1c0.095 0.975 0.95 1.743 1.914 1.743h8.721c0.963 0 1.819-0.769 1.914-1.743l1.314-13.48h-15.172l1.309 13.48zM21.257 6.331h-1.301v-0.647c0-1.421-1.152-2.573-2.574-2.573h-4.757c-1.421 0-2.574 1.152-2.574 2.573v0.647h-1.301c-1.48 0-2.68 1.2-2.68 2.681v1.79h17.868v-1.79c0-1.481-1.201-2.681-2.681-2.681zM18.56 6.331h-7.114v-0.56c0-0.747 0.606-1.353 1.353-1.353h4.409c0.747 0 1.353 0.606 1.353 1.353v0.56z" fill="#000000"></path>
</svg>
