<?xml version="1.0" encoding="UTF-8" standalone="no"?>
<!-- Created with Inkscape (http://www.inkscape.org/) -->

<svg
   xmlns:dc="http://purl.org/dc/elements/1.1/"
   xmlns:cc="http://creativecommons.org/ns#"
   xmlns:rdf="http://www.w3.org/1999/02/22-rdf-syntax-ns#"
   xmlns:svg="http://www.w3.org/2000/svg"
   xmlns="http://www.w3.org/2000/svg"
   xmlns:inkscape="http://www.inkscape.org/namespaces/inkscape"
   version="1.1"
   width="30"
   height="30"
   viewBox="0 0 30 30"
   id="svg2">
  <metadata
     id="metadata10">
    <rdf:RDF>
      <cc:Work
         rdf:about="">
        <dc:format>image/svg+xml</dc:format>
        <dc:type
           rdf:resource="http://purl.org/dc/dcmitype/StillImage" />
      </cc:Work>
    </rdf:RDF>
  </metadata>
  <defs
     id="defs8" />
  <path
     d="m 15.25,18 c -1.61,0 -2.918,1.306 -2.918,2.917 0,1.611 1.307,2.918 2.918,2.918 1.612,0 2.918,-1.307 2.918,-2.918 C 18.168,19.306 16.86,18 15.25,18 z m 0,-4.994 c 3.047,0 5.516,-2.47 5.516,-5.516 0,-3.046 -2.47,-5.516 -5.516,-5.516 -3.047,0 -5.516,2.47 -5.516,5.516 0,3.046 2.47,5.516 5.516,5.516 z m 9.664,7.565 c 0,-3.72 -4.58,-6.49 -9.92,-6.49 -5.335,0 -9.406,2.77 -9.406,6.49 v 0.01 H 5.582 c 0,2.68 0.532,5.17 1.44,7.296 H 23.48 c 0.904,-2.123 1.437,-4.615 1.437,-7.293 h -0.004 z m -4.964,3.26 -0.387,-0.18 c -0.238,-0.114 -0.717,0.114 -1.1,0.497 -0.383,0.383 -0.61,0.86 -0.496,1.1 l 0.184,0.382 c -0.49,0.31 -1.05,0.53 -1.64,0.67 l -0.13,-0.394 c -0.09,-0.25 -0.59,-0.427 -1.13,-0.427 -0.54,0 -1.04,0.174 -1.13,0.424 l -0.14,0.4 c -0.588,-0.136 -1.138,-0.37 -1.638,-0.68 l 0.184,-0.382 c 0.117,-0.233 -0.112,-0.714 -0.494,-1.095 -0.388,-0.384 -0.866,-0.61 -1.1,-0.5 l -0.387,0.185 c -0.31,-0.498 -0.53,-1.055 -0.67,-1.64 l 0.393,-0.14 c 0.25,-0.088 0.425,-0.588 0.425,-1.13 0,-0.538 -0.173,-1.038 -0.423,-1.126 l -0.4,-0.14 c 0.14,-0.59 0.38,-1.134 0.69,-1.634 l 0.37,0.18 c 0.24,0.115 0.72,-0.113 1.1,-0.496 0.38,-0.383 0.61,-0.86 0.498,-1.1 l -0.18,-0.373 c 0.5,-0.31 1.045,-0.55 1.633,-0.69 l 0.14,0.4 c 0.09,0.25 0.59,0.427 1.13,0.427 0.54,0 1.04,-0.176 1.13,-0.428 l 0.14,-0.4 c 0.59,0.14 1.14,0.37 1.64,0.68 l -0.184,0.38 c -0.115,0.24 0.113,0.717 0.496,1.1 0.38,0.385 0.86,0.61 1.1,0.496 l 0.38,-0.182 c 0.31,0.5 0.53,1.055 0.67,1.64 l -0.39,0.14 c -0.25,0.088 -0.43,0.588 -0.43,1.13 0,0.542 0.177,1.04 0.427,1.13 l 0.4,0.14 c -0.14,0.584 -0.37,1.137 -0.68,1.635 z"
     inkscape:connector-curvature="0"
     id="path4" />
</svg>
