<?xml version="1.0" encoding="utf-8"?>
<!-- Generated by IcoMoon.io -->
<!DOCTYPE svg PUBLIC "-//W3C//DTD SVG 1.1//EN" "http://www.w3.org/Graphics/SVG/1.1/DTD/svg11.dtd">
<svg version="1.1" xmlns="http://www.w3.org/2000/svg" xmlns:xlink="http://www.w3.org/1999/xlink" width="30" height="30" viewBox="0 0 30 30">
<g>
	<line stroke-width="1" x1="" y1="" x2="" y2="" stroke="#449FDB" opacity=""></line>
</g>
	<path d="M15.25 17.999c-1.611 0-2.918 1.307-2.918 2.918s1.307 2.918 2.918 2.918c1.612 0 2.918-1.307 2.918-2.918s-1.307-2.918-2.918-2.918zM15.25 13.006c3.047 0 5.516-2.47 5.516-5.516s-2.469-5.516-5.516-5.516c-3.047 0-5.516 2.47-5.516 5.516s2.469 5.516 5.516 5.516zM24.914 20.571c0-0.002 0-0.002 0-0.002 0-3.727-4.581-6.491-9.919-6.491-5.336 0-9.407 2.766-9.407 6.491 0 0 0 0 0 0.002h-0.006c0 2.678 0.532 5.17 1.439 7.293h16.458c0.906-2.123 1.439-4.615 1.439-7.293h-0.004zM19.949 23.823l-0.381-0.184c-0.238-0.115-0.717 0.113-1.1 0.496s-0.611 0.861-0.496 1.1l0.184 0.383c-0.498 0.309-1.053 0.531-1.641 0.672l-0.137-0.395c-0.088-0.25-0.588-0.426-1.13-0.426-0.541 0-1.041 0.176-1.129 0.426l-0.141 0.4c-0.587-0.137-1.137-0.371-1.637-0.68l0.184-0.383c0.115-0.236-0.114-0.717-0.496-1.098-0.383-0.383-0.861-0.611-1.1-0.498l-0.382 0.184c-0.31-0.496-0.532-1.053-0.671-1.639l0.393-0.139c0.25-0.088 0.426-0.588 0.426-1.129 0-0.539-0.176-1.039-0.426-1.127l-0.401-0.14c0.139-0.588 0.381-1.133 0.689-1.633l0.373 0.18c0.238 0.115 0.717-0.113 1.1-0.496s0.611-0.859 0.496-1.1l-0.179-0.373c0.499-0.31 1.044-0.552 1.632-0.688l0.141 0.399c0.088 0.252 0.588 0.428 1.129 0.428s1.042-0.176 1.13-0.428l0.141-0.399c0.588 0.138 1.137 0.371 1.637 0.68l-0.184 0.381c-0.115 0.24 0.113 0.717 0.496 1.1 0.383 0.385 0.861 0.611 1.1 0.496l0.383-0.182c0.309 0.498 0.531 1.053 0.67 1.639l-0.393 0.139c-0.25 0.088-0.426 0.588-0.426 1.129s0.176 1.041 0.426 1.129l0.4 0.141c-0.137 0.584-0.371 1.137-0.68 1.635z" fill="#000000"></path>
</svg>
