<?xml version="1.0" encoding="UTF-8" standalone="no"?>
<!-- Created with Inkscape (http://www.inkscape.org/) -->

<svg
   xmlns:dc="http://purl.org/dc/elements/1.1/"
   xmlns:cc="http://creativecommons.org/ns#"
   xmlns:rdf="http://www.w3.org/1999/02/22-rdf-syntax-ns#"
   xmlns:svg="http://www.w3.org/2000/svg"
   xmlns="http://www.w3.org/2000/svg"
   xmlns:inkscape="http://www.inkscape.org/namespaces/inkscape"
   version="1.1"
   width="30"
   height="30"
   viewBox="0 0 30 30"
   id="svg2">
  <metadata
     id="metadata10">
    <rdf:RDF>
      <cc:Work
         rdf:about="">
        <dc:format>image/svg+xml</dc:format>
        <dc:type
           rdf:resource="http://purl.org/dc/dcmitype/StillImage" />
      </cc:Work>
    </rdf:RDF>
  </metadata>
  <defs
     id="defs8" />
  <path
     d="m 18.908,11.95 -0.066,0.003 V 4.47 C 18.842,3.613 18.147,3 17.288,3 H 5.626 C 4.77,3 4,3.613 4,4.47 V 24.377 C 4,25.23 4.77,26 5.626,26 h 8.006 c 1.41,1.234 3.253,1.918 5.275,1.918 4.418,0 8,-3.573 8,-7.984 0,-4.41 -3.58,-7.983 -8,-7.983 z m -6.87,12.775 c 0,0.11 -0.09,0.2 -0.2,0.2 h -1.6 c -0.11,0 -0.2,-0.09 -0.2,-0.2 v -1.598 c 0,-0.11 0.09,-0.197 0.2,-0.197 h 1.257 c 0.153,0.377 0.337,0.734 0.543,1.08 v 0.715 z m 5.134,-12.58 C 13.59,12.935 11.05,16.12 11.05,19.935 11.05,21 11,22 11.18,22 H 6.71 C 6.36,22 6,21.68 6,21.334 V 5.548 C 6,5.201 6.36,4.918 6.708,4.918 h 9.834 c 0.347,0 0.63,0.283 0.63,0.63 v 6.596 z m 1.065,3.12 C 18.43,15.075 18.697,15 19,15 c 0.3,0 0.53,0.074 0.728,0.265 C 19.925,15.455 20,15.728 20,16 20,16.28 19.925,16.477 19.728,16.668 19.53,16.86 19.3,17 19,17 18.696,17 18.43,16.86 18.237,16.668 18.045,16.478 18,16.281 18,16 c 0,-0.272 0.045,-0.544 0.237,-0.735 z m 1.818,9.72 h -2.138 v -7.04 h 2.138 v 7.04 z"
     inkscape:connector-curvature="0"
     id="path4" />
</svg>
