<?xml version="1.0" encoding="utf-8"?>
<!-- Generated by IcoMoon.io -->
<!DOCTYPE svg PUBLIC "-//W3C//DTD SVG 1.1//EN" "http://www.w3.org/Graphics/SVG/1.1/DTD/svg11.dtd">
<svg version="1.1" xmlns="http://www.w3.org/2000/svg" xmlns:xlink="http://www.w3.org/1999/xlink" width="30" height="30" viewBox="0 0 30 30">
<g>
	<line stroke-width="1" x1="" y1="" x2="" y2="" stroke="#449FDB" opacity=""></line>
</g>
	<path d="M24.459 19.955c0 2.619-0.521 4.967-1.408 7.045h-16.1c-0.888-2.078-1.408-4.426-1.408-7.045h0.004c0 0 0 0 0-0.002 0-2.611 2.177-4.861 5.329-5.932l4.125 4.125 4.125-4.125c3.148 1.072 5.328 3.32 5.328 5.932 0 0.002 0 0.002 0 0.002h0.005zM15.001 12.557c-2.979 0-5.396-2.418-5.396-5.396 0-2.981 2.416-5.398 5.396-5.398s5.396 2.417 5.396 5.398c-0.001 2.977-2.417 5.396-5.396 5.396z" fill="#000000"></path>
</svg>
