<?xml version="1.0" encoding="UTF-8" standalone="no"?>
<!-- Created with Inkscape (http://www.inkscape.org/) -->

<svg
   xmlns:dc="http://purl.org/dc/elements/1.1/"
   xmlns:cc="http://creativecommons.org/ns#"
   xmlns:rdf="http://www.w3.org/1999/02/22-rdf-syntax-ns#"
   xmlns:svg="http://www.w3.org/2000/svg"
   xmlns="http://www.w3.org/2000/svg"
   xmlns:inkscape="http://www.inkscape.org/namespaces/inkscape"
   version="1.1"
   width="30"
   height="30"
   viewBox="0 0 30 30"
   id="svg2">
  <metadata
     id="metadata10">
    <rdf:RDF>
      <cc:Work
         rdf:about="">
        <dc:format>image/svg+xml</dc:format>
        <dc:type
           rdf:resource="http://purl.org/dc/dcmitype/StillImage" />
      </cc:Work>
    </rdf:RDF>
  </metadata>
  <defs
     id="defs8" />
  <path
     d="m 9.493,8.206 -0.022,0.02 c -0.1,0.44 -0.48,0.782 -0.95,0.782 H 6.09 C 5.616,9.008 5.236,8.668 5.135,8.225 L 5.111,8.205 C 4.928,7.25 4.8,6.165 4.75,5 h 5.1 C 9.8,6.165 9.675,7.25 9.49,8.206 z m 7.7,0 -0.022,0.02 c -0.1,0.44 -0.48,0.782 -0.95,0.782 h -2.43 c -0.47,0 -0.85,-0.34 -0.95,-0.783 l -0.02,-0.02 C 12.637,7.249 12.511,6.165 12.461,5 h 5.105 c -0.05,1.165 -0.177,2.25 -0.36,3.206 z m 7.7,0 -0.023,0.02 c -0.102,0.44 -0.48,0.782 -0.954,0.782 h -2.433 c -0.474,0 -0.853,-0.34 -0.953,-0.783 L 20.508,8.205 C 20.323,7.249 20.196,6.165 20.146,5 h 5.104 c -0.048,1.165 -0.176,2.25 -0.358,3.206 z m -15.4,8 -0.022,0.02 c -0.1,0.444 -0.48,0.78 -0.95,0.782 H 6.09 C 5.614,17.006 5.234,16.67 5.133,16.225 L 5.113,16.207 C 4.928,15.247 4.803,14.164 4.753,13 h 5.104 c -0.05,1.164 -0.176,2.247 -0.36,3.207 z m 7.7,0 -0.022,0.02 c -0.1,0.444 -0.48,0.78 -0.95,0.782 h -2.43 c -0.47,-0.002 -0.85,-0.338 -0.95,-0.783 l -0.02,-0.018 C 12.637,15.247 12.511,14.164 12.461,13 h 5.105 c -0.05,1.164 -0.177,2.247 -0.36,3.207 z m 7.7,0 -0.023,0.02 c -0.102,0.444 -0.48,0.78 -0.954,0.782 H 21.483 C 21.009,17.006 20.63,16.67 20.53,16.225 L 20.508,16.207 C 20.324,15.247 20.198,14.164 20.148,13 h 5.104 c -0.05,1.164 -0.178,2.247 -0.36,3.207 z m -15.4,8 -0.022,0.02 c -0.1,0.442 -0.48,0.78 -0.95,0.783 H 6.09 c -0.476,-0.01 -0.856,-0.35 -0.957,-0.79 l -0.02,-0.02 c -0.185,-0.96 -0.31,-2.04 -0.36,-3.21 h 5.104 c -0.05,1.164 -0.176,2.245 -0.36,3.205 z m 7.7,0 -0.022,0.02 c -0.1,0.442 -0.48,0.78 -0.95,0.783 h -2.43 c -0.47,-0.01 -0.85,-0.35 -0.95,-0.79 l -0.02,-0.02 c -0.184,-0.96 -0.31,-2.04 -0.36,-3.21 h 5.105 c -0.05,1.164 -0.177,2.245 -0.36,3.205 z m 7.7,0 -0.023,0.02 c -0.102,0.442 -0.48,0.78 -0.954,0.783 h -2.433 c -0.474,-0.01 -0.853,-0.35 -0.953,-0.79 l -0.022,-0.02 c -0.184,-0.96 -0.31,-2.04 -0.36,-3.21 h 5.104 c -0.05,1.164 -0.178,2.245 -0.36,3.205 z"
     inkscape:connector-curvature="0"
     id="path4" />
</svg>
