<?xml version="1.0" encoding="iso-8859-1"?>
<!-- Generator: Adobe Illustrator 16.0.4, SVG Export Plug-In . SVG Version: 6.00 Build 0)  -->
<!DOCTYPE svg PUBLIC "-//W3C//DTD SVG 1.1//EN" "http://www.w3.org/Graphics/SVG/1.1/DTD/svg11.dtd">
<svg version="1.1" xmlns="http://www.w3.org/2000/svg" xmlns:xlink="http://www.w3.org/1999/xlink" x="0px" y="0px" width="30px"
	 height="30px" viewBox="0 0 30 30" style="enable-background:new 0 0 30 30;" xml:space="preserve">
<g id="Dialer_x5F_Contacts">
	<path style="fill-rule:evenodd;clip-rule:evenodd;" d="M24.459,19.955c0,2.619-0.521,4.967-1.408,7.045h-16.1
		c-0.888-2.078-1.408-4.426-1.408-7.045h0.004c0,0,0,0,0-0.002c0-2.611,2.177-4.861,5.329-5.932l4.125,4.125l4.125-4.125
		c3.148,1.072,5.328,3.32,5.328,5.932c0,0.002,0,0.002,0,0.002H24.459z M15.001,12.557c-2.979,0-5.396-2.418-5.396-5.396
		c0-2.981,2.416-5.398,5.396-5.398s5.396,2.417,5.396,5.398C20.396,10.138,17.98,12.557,15.001,12.557z"/>
</g>
<g id="&#x5716;&#x5C64;_1">
</g>
</svg>
