<?xml version="1.0" encoding="utf-8"?>
<!-- Generated by IcoMoon.io -->
<!DOCTYPE svg PUBLIC "-//W3C//DTD SVG 1.1//EN" "http://www.w3.org/Graphics/SVG/1.1/DTD/svg11.dtd">
<svg version="1.1" xmlns="http://www.w3.org/2000/svg" xmlns:xlink="http://www.w3.org/1999/xlink" width="30" height="30" viewBox="0 0 30 30">
<g>
	<line stroke-width="1" x1="" y1="" x2="" y2="" stroke="#449FDB" opacity=""></line>
</g>
	<path d="M29.583 16.785h-5.524v2.649c-0.316 0.067-0.656-0.005-0.904-0.253l-3.016-3.016c-0.389-0.388-0.389-1.020 0-1.41l3.016-3.015c0.248-0.247 0.588-0.318 0.904-0.253v2.667h5.524c0.179 0.867 0.179 1.763 0 2.631zM17.885 11.198c-0.245 0.246-0.587 0.318-0.904 0.253v-2.65h-5.523c-0.179-0.868-0.179-1.764 0-2.632h5.523v-2.666c0.317-0.065 0.659 0.008 0.904 0.253l3.015 3.016c0.389 0.39 0.389 1.021 0 1.411l-3.015 3.015zM16.378 21.607l0.021 0.021c0.605-0.333 1.207-0.737 1.799-1.166l5.676 5.025c-1.197 1.032-2.495 1.881-3.862 2.52-3.632-0.67-8.282-3.372-12.464-7.55-4.172-4.174-6.873-8.824-7.548-12.453 0.642-1.368 1.49-2.668 2.524-3.868l5.028 5.679c-0.432 0.593-0.833 1.191-1.169 1.799l0.022 0.022c-0.587 1.291 0.773 4.103 3.321 6.649 2.548 2.55 5.361 3.91 6.652 3.322z" fill="#000000"></path>
</svg>
