<?xml version="1.0" encoding="utf-8"?>
<!-- Generated by IcoMoon.io -->
<!DOCTYPE svg PUBLIC "-//W3C//DTD SVG 1.1//EN" "http://www.w3.org/Graphics/SVG/1.1/DTD/svg11.dtd">
<svg version="1.1" xmlns="http://www.w3.org/2000/svg" xmlns:xlink="http://www.w3.org/1999/xlink" width="30" height="30" viewBox="0 0 30 30">
<g>
	<line stroke-width="1" x1="" y1="" x2="" y2="" stroke="#449FDB" opacity=""></line>
</g>
	<path d="M9.493 8.206l-0.022 0.019c-0.101 0.442-0.48 0.783-0.954 0.783h-2.432c-0.474 0-0.854-0.341-0.955-0.783l-0.022-0.019c-0.183-0.957-0.31-2.041-0.36-3.206h5.105c-0.050 1.165-0.176 2.249-0.36 3.206zM17.192 8.206l-0.021 0.019c-0.102 0.442-0.481 0.783-0.956 0.783v0h-2.43c-0.475 0-0.854-0.341-0.955-0.783l-0.022-0.019c-0.184-0.957-0.31-2.041-0.36-3.206h5.105c-0.051 1.165-0.177 2.249-0.361 3.206zM24.892 8.206l-0.022 0.019c-0.102 0.442-0.479 0.783-0.954 0.783h-2.433c-0.474 0-0.853-0.341-0.953-0.783l-0.022-0.019c-0.185-0.957-0.312-2.041-0.362-3.206h5.104c-0.048 1.165-0.176 2.249-0.358 3.206zM9.493 16.207l-0.022 0.018c-0.101 0.445-0.48 0.781-0.955 0.783v0h-2.431c-0.474-0.002-0.854-0.338-0.955-0.783l-0.022-0.018c-0.184-0.96-0.31-2.043-0.36-3.207h5.105c-0.050 1.164-0.176 2.247-0.36 3.207zM17.192 16.207l-0.021 0.018c-0.102 0.445-0.481 0.781-0.956 0.783v0h-2.43c-0.475-0.002-0.854-0.338-0.955-0.783l-0.022-0.018c-0.184-0.96-0.31-2.043-0.36-3.207h5.105c-0.051 1.164-0.177 2.247-0.361 3.207zM24.892 16.207l-0.022 0.018c-0.102 0.445-0.479 0.781-0.954 0.783h-2.433c-0.474-0.002-0.853-0.338-0.953-0.783l-0.022-0.018c-0.184-0.96-0.311-2.043-0.36-3.207h5.104c-0.050 1.164-0.178 2.247-0.36 3.207zM9.493 24.207l-0.022 0.019c-0.101 0.442-0.48 0.78-0.955 0.783v0h-2.431c-0.474-0.003-0.854-0.341-0.955-0.783l-0.022-0.019c-0.184-0.96-0.31-2.041-0.36-3.207h5.105c-0.050 1.166-0.176 2.247-0.36 3.207zM17.192 24.207l-0.021 0.019c-0.102 0.442-0.481 0.78-0.956 0.783v0h-2.43c-0.475-0.003-0.854-0.341-0.955-0.783l-0.022-0.019c-0.184-0.96-0.31-2.041-0.36-3.207h5.105c-0.051 1.166-0.177 2.247-0.361 3.207zM24.892 24.207l-0.022 0.019c-0.102 0.442-0.479 0.78-0.954 0.783h-2.433c-0.474-0.003-0.853-0.341-0.953-0.783l-0.022-0.019c-0.184-0.96-0.311-2.041-0.36-3.207h5.104c-0.050 1.166-0.178 2.247-0.36 3.207z" fill="#000000"></path>
</svg>
