<?xml version="1.0" encoding="utf-8"?>
<!-- Generated by IcoMoon.io -->
<!DOCTYPE svg PUBLIC "-//W3C//DTD SVG 1.1//EN" "http://www.w3.org/Graphics/SVG/1.1/DTD/svg11.dtd">
<svg version="1.1" xmlns="http://www.w3.org/2000/svg" xmlns:xlink="http://www.w3.org/1999/xlink" width="30" height="30" viewBox="0 0 30 30">
<g>
	<line stroke-width="1" x1="" y1="" x2="" y2="" stroke="#449FDB" opacity=""></line>
</g>
	<path d="M8.037 4.204c0.071 0.313 0.339 0.552 0.674 0.553l0.001 0.001 1.716-0.001c0.335 0 0.603-0.239 0.674-0.553l0.016-0.013c0.13-0.677 0.219-1.368 0.254-2.191h-3.605c0.036 0.823 0.125 1.514 0.254 2.191l0.016 0.013z" fill="#000000"></path>
	<path d="M13.475 4.204c0.071 0.313 0.339 0.552 0.674 0.553l0.001 0.001 1.716-0.001c0.335 0 0.603-0.239 0.674-0.553l0.017-0.013c0.129-0.677 0.218-1.368 0.254-2.191h-3.605c0.035 0.823 0.125 1.514 0.254 2.191l0.015 0.013z" fill="#000000"></path>
	<path d="M18.913 4.204c0.071 0.313 0.339 0.552 0.674 0.553l0.001 0.001 1.717-0.001c0.335 0 0.603-0.239 0.674-0.553l0.016-0.013c0.13-0.677 0.219-1.368 0.254-2.191h-3.605c0.035 0.823 0.125 1.514 0.255 2.191l0.014 0.013z" fill="#000000"></path>
	<path d="M8.037 10.186c0.071 0.313 0.339 0.553 0.674 0.553l0.001 0.001 1.716-0.001c0.335 0 0.603-0.239 0.674-0.553l0.016-0.013c0.13-0.677 0.219-1.351 0.254-2.173h-3.605c0.036 0.822 0.125 1.496 0.254 2.173l0.016 0.013z" fill="#000000"></path>
	<path d="M13.475 10.186c0.071 0.313 0.339 0.553 0.674 0.553l0.001 0.001 1.716-0.001c0.335 0 0.603-0.239 0.674-0.553l0.017-0.013c0.129-0.677 0.218-1.351 0.254-2.173h-3.605c0.035 0.822 0.125 1.496 0.254 2.173l0.015 0.013z" fill="#000000"></path>
	<path d="M18.913 10.186c0.071 0.313 0.339 0.553 0.674 0.553l0.001 0.001 1.717-0.001c0.335 0 0.603-0.239 0.674-0.553l0.016-0.013c0.13-0.677 0.219-1.351 0.254-2.173h-3.605c0.035 0.822 0.125 1.496 0.255 2.173l0.014 0.013z" fill="#000000"></path>
	<path d="M8.037 16.167c0.071 0.314 0.339 0.553 0.674 0.553l0.001 0.002h1.715l0.001-0.002c0.335 0 0.603-0.238 0.674-0.553l0.016-0.013c0.13-0.677 0.219-1.332 0.254-2.154h-3.605c0.036 0.823 0.125 1.478 0.254 2.154l0.016 0.013z" fill="#000000"></path>
	<path d="M13.475 16.167c0.071 0.314 0.339 0.553 0.674 0.553l0.001 0.002h1.716v-0.002c0.335 0 0.603-0.238 0.674-0.553l0.017-0.013c0.129-0.677 0.219-1.332 0.254-2.154h-3.605c0.035 0.823 0.125 1.478 0.254 2.154l0.015 0.013z" fill="#000000"></path>
	<path d="M18.913 16.167c0.071 0.314 0.339 0.553 0.674 0.553l0.001 0.002h1.716l0.001-0.002c0.335 0 0.603-0.238 0.674-0.553l0.016-0.013c0.13-0.677 0.219-1.332 0.254-2.154h-3.605c0.035 0.823 0.125 1.478 0.255 2.154l0.014 0.013z" fill="#000000"></path>
	<path d="M7.297 21.896v0.025l6.292 6.292c0.781 0.781 2.048 0.781 2.829 0l6.3-6.301v-0.017h-15.421z" fill="#000000"></path>
</svg>
