<?xml version="1.0" encoding="utf-8"?>
<!-- Generated by IcoMoon.io -->
<!DOCTYPE svg PUBLIC "-//W3C//DTD SVG 1.1//EN" "http://www.w3.org/Graphics/SVG/1.1/DTD/svg11.dtd">
<svg version="1.1" xmlns="http://www.w3.org/2000/svg" xmlns:xlink="http://www.w3.org/1999/xlink" width="30" height="30" viewBox="0 0 30 30">
<g>
	<line stroke-width="1" x1="" y1="" x2="" y2="" stroke="#449FDB" opacity=""></line>
</g>
	<path d="M10.167 14.397c0.406 2.208 1.464 3.789 2.71 3.789s2.304-1.58 2.71-3.789c-0.839-0.201-1.751-0.315-2.71-0.315s-1.871 0.114-2.71 0.315zM12.877 1.415c-1.933 0-3.5 2.835-3.5 6.333 0 1.535 0.302 2.941 0.803 4.037 0.797 0.477 1.716 0.751 2.697 0.751s1.899-0.275 2.696-0.751c0.501-1.096 0.804-2.502 0.804-4.037 0.001-3.498-1.566-6.333-3.5-6.333zM24.255 18.025c-0.004-0.004-0.008-0.006-0.012-0.010-0.033-0.031-0.055-0.039-0.074-0.045 0.016-0.012 0.031-0.015 0.057-0.044l-0.002-0.002 2.353-2.352c-0.179-0.696-0.437-1.319-0.748-1.867l-2.961 2.963-2.951-2.95c-0.312 0.55-0.567 1.176-0.744 1.874l2.318 2.319c0.004 0.003 0.008 0.006 0.012 0.009 0.033 0.033 0.054 0.039 0.074 0.047-0.019 0.011-0.031 0.015-0.060 0.042l0.002 0.002-2.35 2.353c0.176 0.702 0.434 1.331 0.746 1.885l2.963-2.963 2.959 2.959c0.312-0.556 0.57-1.187 0.746-1.89l-2.328-2.33zM7.587 24.589c-0.787 0.211-1.511 0.505-2.155 0.854 0.819 1.725 2.035 2.787 3.058 2.514s1.544-1.803 1.392-3.706c-0.734 0.020-1.508 0.127-2.295 0.338zM7.013 22.849c0.806-0.215 1.5-0.644 2.049-1.209 0.171-1.012 0.344-1.762 0.005-3.022-0.77-2.871-2.68-4.854-4.267-4.429s-2.25 3.098-1.48 5.97c0.337 1.26 0.661 1.878 1.314 2.668 0.758 0.215 1.573 0.238 2.379 0.022z" fill="#000000"></path>
</svg>
