<?xml version="1.0" encoding="UTF-8" standalone="no"?>
<!-- Created with Inkscape (http://www.inkscape.org/) -->

<svg
   xmlns:dc="http://purl.org/dc/elements/1.1/"
   xmlns:cc="http://creativecommons.org/ns#"
   xmlns:rdf="http://www.w3.org/1999/02/22-rdf-syntax-ns#"
   xmlns:svg="http://www.w3.org/2000/svg"
   xmlns="http://www.w3.org/2000/svg"
   xmlns:inkscape="http://www.inkscape.org/namespaces/inkscape"
   version="1.1"
   width="30"
   height="30"
   viewBox="0 0 30 30"
   id="svg2">
  <metadata
     id="metadata10">
    <rdf:RDF>
      <cc:Work
         rdf:about="">
        <dc:format>image/svg+xml</dc:format>
        <dc:type
           rdf:resource="http://purl.org/dc/dcmitype/StillImage" />
      </cc:Work>
    </rdf:RDF>
  </metadata>
  <defs
     id="defs8" />
  <path
     d="m 9.605,13.897 c 0.406,2.208 1.464,3.79 2.71,3.79 1.245,0 2.304,-1.58 2.71,-3.79 -0.84,-0.2 -1.75,-0.315 -2.71,-0.315 -0.96,0 -1.87,0.114 -2.71,0.315 z m 2.71,-12.982 c -1.933,0 -3.5,2.835 -3.5,6.333 0,1.535 0.302,2.94 0.803,4.037 0.797,0.477 1.716,0.75 2.697,0.75 0.981,0 1.9,-0.274 2.696,-0.75 0.502,-1.096 0.805,-2.502 0.805,-4.037 0,-3.498 -1.566,-6.333 -3.5,-6.333 z m 11.378,16.61 -0.012,-0.01 c -0.032,-0.03 -0.054,-0.04 -0.073,-0.045 0.016,-0.012 0.03,-0.015 0.057,-0.044 l -0.002,-0.002 2.353,-2.352 c -0.18,-0.696 -0.437,-1.32 -0.748,-1.867 l -2.96,2.963 -2.952,-2.95 c -0.312,0.55 -0.567,1.176 -0.744,1.874 l 2.32,2.32 0.01,0.008 c 0.034,0.033 0.055,0.04 0.075,0.047 -0.02,0.01 -0.03,0.015 -0.06,0.042 h 0.002 l -2.35,2.354 c 0.176,0.702 0.434,1.33 0.746,1.885 l 2.963,-2.964 2.96,2.96 c 0.31,-0.557 0.57,-1.188 0.745,-1.89 l -2.327,-2.33 z M 7.025,24.09 c -0.787,0.21 -1.51,0.504 -2.155,0.853 0.82,1.725 2.035,2.787 3.058,2.514 1.023,-0.273 1.544,-1.803 1.392,-3.706 -0.734,0.02 -1.508,0.128 -2.295,0.34 z M 6.451,22.35 c 0.807,-0.216 1.5,-0.645 2.05,-1.21 0.17,-1.012 0.344,-1.762 0.005,-3.022 -0.77,-2.87 -2.68,-4.854 -4.267,-4.43 -1.587,0.426 -2.25,3.1 -1.48,5.97 0.337,1.26 0.66,1.88 1.314,2.67 0.758,0.214 1.573,0.237 2.38,0.02 z"
     inkscape:connector-curvature="0"
     id="path4" />
</svg>
