<?xml version="1.0" encoding="UTF-8" standalone="no"?>
<!-- Created with Inkscape (http://www.inkscape.org/) -->

<svg
   xmlns:dc="http://purl.org/dc/elements/1.1/"
   xmlns:cc="http://creativecommons.org/ns#"
   xmlns:rdf="http://www.w3.org/1999/02/22-rdf-syntax-ns#"
   xmlns:svg="http://www.w3.org/2000/svg"
   xmlns="http://www.w3.org/2000/svg"
   xmlns:inkscape="http://www.inkscape.org/namespaces/inkscape"
   version="1.1"
   width="30"
   height="30"
   viewBox="0 0 30 30"
   id="svg2">
  <metadata
     id="metadata10">
    <rdf:RDF>
      <cc:Work
         rdf:about="">
        <dc:format>image/svg+xml</dc:format>
        <dc:type
           rdf:resource="http://purl.org/dc/dcmitype/StillImage" />
      </cc:Work>
    </rdf:RDF>
  </metadata>
  <defs
     id="defs8" />
  <path
     d="m 24.074,9.75 -7.326,7.328 c -0.946,0.946 -2.483,0.946 -3.43,0 L 5.99,9.75 C 5.717,9.477 5.54,9.15 5.435,8.808 6.385,8.608 7.365,8.434 8.389,8.296 l 0.75,0.75 c 0.01,0.014 5.57,5.595 5.57,5.595 0.17,0.18 0.45,0.18 0.63,0 l 5.55,-5.54 c 0.02,-0.04 0.78,-0.792 0.78,-0.792 1.02,0.14 2.01,0.313 2.95,0.51 -0.105,0.34 -0.28,0.67 -0.555,0.94 z M 22.27,22 H 7.745 C 6.583,22 5.592,21.188 5.195,20 H 24.82 c -0.4,1.188 -1.388,2 -2.55,2 z"
     inkscape:connector-curvature="0"
     id="path4" />
</svg>
