<?xml version="1.0" encoding="UTF-8" standalone="no"?>
<!-- Created with Inkscape (http://www.inkscape.org/) -->

<svg
   xmlns:dc="http://purl.org/dc/elements/1.1/"
   xmlns:cc="http://creativecommons.org/ns#"
   xmlns:rdf="http://www.w3.org/1999/02/22-rdf-syntax-ns#"
   xmlns:svg="http://www.w3.org/2000/svg"
   xmlns="http://www.w3.org/2000/svg"
   xmlns:inkscape="http://www.inkscape.org/namespaces/inkscape"
   version="1.1"
   width="30"
   height="30"
   viewBox="0 0 30 30"
   id="svg2">
  <metadata
     id="metadata10">
    <rdf:RDF>
      <cc:Work
         rdf:about="">
        <dc:format>image/svg+xml</dc:format>
        <dc:type
           rdf:resource="http://purl.org/dc/dcmitype/StillImage" />
      </cc:Work>
    </rdf:RDF>
  </metadata>
  <defs
     id="defs8" />
  <path
     d="m 4.304,20.5 c 0.438,1.264 1.553,1.98 2.82,1.98 H 23 c 1.27,0 2.318,-0.72 2.754,-1.98 H 4.304 z m 8.91,-3.71 c 1.036,1.005 2.714,1.005 3.75,0 l 8.007,-7.777 c 0.303,-0.294 0.497,-0.642 0.61,-1.01 -1.037,-0.21 -2.115,-0.39 -3.232,-0.537 l -0.826,0.803 c -0.012,0.013 -0.014,0.03 -0.028,0.044 l -6.063,5.89 c -0.19,0.185 -0.497,0.185 -0.687,0 L 8.68,8.314 C 8.664,8.298 8.662,8.279 8.65,8.264 L 7.827,7.464 C 6.71,7.612 5.632,7.792 4.597,8.002 c 0.115,0.367 0.31,0.715 0.61,1.01 l 8.008,7.777 z"
     inkscape:connector-curvature="0"
     id="path4" />
</svg>
