<?xml version="1.0" encoding="utf-8"?>
<!-- Generated by IcoMoon.io -->
<!DOCTYPE svg PUBLIC "-//W3C//DTD SVG 1.1//EN" "http://www.w3.org/Graphics/SVG/1.1/DTD/svg11.dtd">
<svg version="1.1" xmlns="http://www.w3.org/2000/svg" xmlns:xlink="http://www.w3.org/1999/xlink" width="30" height="30" viewBox="0 0 30 30">
<g>
	<line stroke-width="1" x1="" y1="" x2="" y2="" stroke="#449FDB" opacity=""></line>
</g>
	<path d="M5.116 13.685c-1.002 0-1.813 0.812-1.813 1.813s0.812 1.813 1.813 1.813 1.813-0.812 1.813-1.813c0.001-1.001-0.811-1.813-1.813-1.813zM17.346 18.989l-0.003-0.003c-0.269 0.239-0.68 0.233-0.938-0.024-0.006-0.006-0.009-0.013-0.015-0.018l-3.039-4.131-1.422 1.67 3.92 5.276c0.782 0.465 1.806 0.368 2.479-0.305l8.672-10.324v-3.471l-9.654 11.33zM5.116 21.66c-1.002 0-1.813 0.812-1.813 1.813s0.812 1.813 1.813 1.813c1.001 0 1.813-0.812 1.813-1.813s-0.811-1.813-1.813-1.813zM5.116 5.694c-1.002 0-1.813 0.812-1.813 1.813s0.812 1.813 1.813 1.813c1.001 0 1.813-0.812 1.813-1.813s-0.811-1.813-1.813-1.813z" fill="#000000"></path>
</svg>
