<?xml version="1.0" encoding="utf-8"?>
<!-- Generated by IcoMoon.io -->
<!DOCTYPE svg PUBLIC "-//W3C//DTD SVG 1.1//EN" "http://www.w3.org/Graphics/SVG/1.1/DTD/svg11.dtd">
<svg version="1.1" xmlns="http://www.w3.org/2000/svg" xmlns:xlink="http://www.w3.org/1999/xlink" width="30" height="30" viewBox="0 0 30 30">
<g>
	<line stroke-width="1" x1="" y1="" x2="" y2="" stroke="#449FDB" opacity=""></line>
</g>
	<path d="M11.968 12.156c2.414 0 4.37-1.956 4.37-4.37s-1.957-4.37-4.37-4.37-4.37 1.956-4.37 4.37c0 2.414 1.956 4.37 4.37 4.37zM26.184 13.686c-0.833-0.833-1.851-1.165-2.273-0.742h-0.001l-10.198 10.198 3.015 3.016-0.754 0.754-3.015-3.016-0.003 0.003v3.016h3.016l10.955-10.955c0.422-0.425 0.090-1.443-0.742-2.274zM15.309 13.345l-3.339 3.34-3.34-3.34c-2.553 0.866-4.317 2.689-4.317 4.803 0 0.001 0 0.001 0 0.001h-0.005c0 2.121 0.422 4.096 1.141 5.778h5.901l7.728-7.729c-0.706-1.247-2.051-2.27-3.769-2.853z" fill="#000000"></path>
</svg>
