<?xml version="1.0" encoding="utf-8"?>
<!-- Generated by IcoMoon.io -->
<!DOCTYPE svg PUBLIC "-//W3C//DTD SVG 1.1//EN" "http://www.w3.org/Graphics/SVG/1.1/DTD/svg11.dtd">
<svg version="1.1" xmlns="http://www.w3.org/2000/svg" xmlns:xlink="http://www.w3.org/1999/xlink" width="30" height="30" viewBox="0 0 30 30">
<g>
	<line stroke-width="1" x1="" y1="" x2="" y2="" stroke="#449FDB" opacity=""></line>
</g>
	<path d="M21.116 26.028l3.896-3.896v0.896c0 1.658-1.342 3-2.997 3h-0.899zM14.013 25.977h3.39l-3.39-3.393v3.393zM28.894 11.097c-0.938-0.938-2.080-1.311-2.557-0.834l-1.324 1.322v-2.598c0-1.655-1.342-2.987-2.997-2.987h-19.018c-1.656 0-2.998 1.332-2.998 2.987v14.041c0 1.659 1.342 2.972 2.998 2.972h10.002v-2h-9.989c-0.55 0-1.011-0.475-1.011-1.027v-13.993c0-0.55 0.461-0.998 1.011-0.998h18.991c0.551 0.001 0.998 0.448 0.998 0.998v4.62l-8.137 8.134 3.393 3.391 11.472-11.472c0.474-0.476 0.102-1.622-0.834-2.556zM5.171 14.777c0 1.551 1.257 2.808 2.81 2.808 1.55 0 2.807-1.257 2.807-2.808 0-1.552-1.257-2.809-2.807-2.809-1.552 0.001-2.81 1.258-2.81 2.809z" fill="#000000"></path>
</svg>
