<?xml version="1.0" encoding="UTF-8" standalone="no"?>
<svg
   xmlns:dc="http://purl.org/dc/elements/1.1/"
   xmlns:cc="http://creativecommons.org/ns#"
   xmlns:rdf="http://www.w3.org/1999/02/22-rdf-syntax-ns#"
   xmlns:svg="http://www.w3.org/2000/svg"
   xmlns="http://www.w3.org/2000/svg"
   version="1.1"
   id="svg2"
   viewBox="0 0 30 30"
   height="30"
   width="30">
  <metadata
     id="metadata10">
    <rdf:RDF>
      <cc:Work
         rdf:about="">
        <dc:format>image/svg+xml</dc:format>
        <dc:type
           rdf:resource="http://purl.org/dc/dcmitype/StillImage" />
      </cc:Work>
    </rdf:RDF>
  </metadata>
  <defs
     id="defs8" />
  <path
     id="path4"
     d="M25.826 13.685c-1.002 0-1.813.812-1.813 1.813 0 1 .812 1.813 1.813 1.813 1 0 1.814-.81 1.814-1.81s-.812-1.813-1.814-1.813zM8.72 18.99l-.004-.01c-.27.24-.68.23-.938-.03l-.015-.018-3.04-4.13-1.42 1.67 3.92 5.274c.78.464 1.805.367 2.478-.306l8.673-10.31V7.66L8.72 18.99zm17.106 2.67c-1.002 0-1.813.81-1.813 1.81s.812 1.81 1.813 1.81c1 0 1.813-.81 1.813-1.82 0-1.007-.82-1.812-1.82-1.812zm0-15.97c-1.002 0-1.813.81-1.813 1.81s.812 1.82 1.813 1.82c1 0 1.813-.818 1.813-1.82 0-1-.82-1.81-1.82-1.81z" />
</svg>
