<?xml version="1.0" encoding="UTF-8" standalone="no"?>
<!-- Created with Inkscape (http://www.inkscape.org/) -->

<svg
   xmlns:dc="http://purl.org/dc/elements/1.1/"
   xmlns:cc="http://creativecommons.org/ns#"
   xmlns:rdf="http://www.w3.org/1999/02/22-rdf-syntax-ns#"
   xmlns:svg="http://www.w3.org/2000/svg"
   xmlns="http://www.w3.org/2000/svg"
   xmlns:inkscape="http://www.inkscape.org/namespaces/inkscape"
   version="1.1"
   width="30"
   height="30"
   viewBox="0 0 30 30"
   id="svg2">
  <metadata
     id="metadata10">
    <rdf:RDF>
      <cc:Work
         rdf:about="">
        <dc:format>image/svg+xml</dc:format>
        <dc:type
           rdf:resource="http://purl.org/dc/dcmitype/StillImage" />
      </cc:Work>
    </rdf:RDF>
  </metadata>
  <defs
     id="defs8" />
  <path
     d="m 11.968,12.156 c 2.414,0 4.37,-1.956 4.37,-4.37 0,-2.414 -1.957,-4.37 -4.37,-4.37 -2.413,0 -4.37,1.956 -4.37,4.37 0,2.414 1.956,4.37 4.37,4.37 z m 14.216,1.53 c -0.833,-0.833 -1.85,-1.165 -2.273,-0.742 l -10.191,10.198 3.015,3.016 -0.754,0.754 -3.012,-3.016 -0.003,0.003 v 3.01 h 3.017 l 10.95,-10.95 c 0.42,-0.43 0.09,-1.447 -0.742,-2.278 z m -10.875,-0.34 -3.34,3.34 -3.34,-3.34 c -2.56,0.865 -4.32,2.688 -4.32,4.802 H 4.3 c 0,2.122 0.422,4.097 1.14,5.78 h 5.902 l 7.727,-7.73 c -0.71,-1.247 -2.05,-2.27 -3.77,-2.853 z"
     inkscape:connector-curvature="0"
     id="path4" />
</svg>
