<?xml version="1.0" encoding="UTF-8" standalone="no"?>
<!-- Created with Inkscape (http://www.inkscape.org/) -->

<svg
   xmlns:dc="http://purl.org/dc/elements/1.1/"
   xmlns:cc="http://creativecommons.org/ns#"
   xmlns:rdf="http://www.w3.org/1999/02/22-rdf-syntax-ns#"
   xmlns:svg="http://www.w3.org/2000/svg"
   xmlns="http://www.w3.org/2000/svg"
   xmlns:inkscape="http://www.inkscape.org/namespaces/inkscape"
   version="1.1"
   width="30"
   height="30"
   viewBox="0 0 30 30"
   id="svg2">
  <metadata
     id="metadata10">
    <rdf:RDF>
      <cc:Work
         rdf:about="">
        <dc:format>image/svg+xml</dc:format>
        <dc:type
           rdf:resource="http://purl.org/dc/dcmitype/StillImage" />
      </cc:Work>
    </rdf:RDF>
  </metadata>
  <defs
     id="defs8" />
  <path
     d="m 5.116,13.685 c -1.002,0 -1.813,0.812 -1.813,1.813 0,1.001 0.812,1.813 1.813,1.813 1.001,0 1.814,-0.811 1.814,-1.811 0,-1 -0.812,-1.813 -1.814,-1.813 z m 12.23,5.304 -0.003,-0.01 c -0.27,0.24 -0.68,0.23 -0.938,-0.03 l -0.015,-0.017 -3.04,-4.13 -1.42,1.67 3.92,5.274 c 0.78,0.464 1.805,0.367 2.478,-0.306 L 27,11.13 V 7.66 l -9.654,11.33 z m -12.23,2.67 c -1.002,0 -1.813,0.81 -1.813,1.81 0,1 0.812,1.81 1.813,1.81 1,0 1.813,-0.81 1.813,-1.818 0,-1.008 -0.82,-1.813 -1.82,-1.813 z m 0,-15.97 c -1.002,0 -1.813,0.81 -1.813,1.81 0,1 0.812,1.82 1.813,1.82 1,0 1.813,-0.817 1.813,-1.818 C 6.929,6.5 6.11,5.69 5.11,5.69 z"
     inkscape:connector-curvature="0"
     id="path4" />
</svg>
