<?xml version="1.0" encoding="utf-8"?>
<!-- Generator: Adobe Illustrator 18.1.0, SVG Export Plug-In . SVG Version: 6.00 Build 0)  -->
<svg version="1.1" xmlns="http://www.w3.org/2000/svg" xmlns:xlink="http://www.w3.org/1999/xlink" x="0px" y="0px"
	 viewBox="0 0 30 30" enable-background="new 0 0 30 30" xml:space="preserve">
<g id="圖層_2">
</g>
<g id="圖層_1">
	<path fill-rule="evenodd" clip-rule="evenodd" d="M24.7,7.9c0,1.3,0.5,2.4,1.3,3.3c0,0,0,0,0,0c-0.8-0.8-2-1.4-3.3-1.4
		c-1.3,0-2.4,0.5-3.3,1.3c0,0,0,0,0,0c0.9-0.8,1.4-2,1.4-3.3c0-1.2-0.4-2.2-1.1-3c0.8,0.7,1.9,1.1,3,1.1C24,6,25.2,5.5,26,4.6
		c0,0,0,0,0,0C25.2,5.5,24.7,6.7,24.7,7.9z M5.5,26.8c-0.2,0-0.5-0.1-0.7-0.2l-0.6-0.6C4,25.7,3.9,25.5,4,25.2c0.3-0.3,0.6-0.7,1-1
		c5.1-5.1,9.9-9.5,14.1-12.8l0.2,0.2c-3.3,4.2-7.7,9-12.8,14.1C6.1,26.1,5.8,26.4,5.5,26.8z M12.8,9.5c-0.6,1.7-0.4,3.4,0.3,4.9
		c0,0,0,0,0,0c-0.7-1.5-2-2.7-3.6-3.3c-1.7-0.6-3.4-0.4-4.9,0.3c0,0,0,0,0,0c1.5-0.7,2.8-2,3.4-3.7c0.5-1.5,0.5-3.1-0.1-4.5
		c0.7,1.3,1.9,2.3,3.4,2.8c1.7,0.6,3.4,0.4,4.9-0.3c0,0,0,0,0,0.1C14.6,6.6,13.3,7.8,12.8,9.5z M21.1,15.2c0.9-0.4,1.6-1.2,1.9-2.1
		c0,0,0,0,0,0c-0.3,0.9-0.3,1.9,0.2,2.8c0.4,0.9,1.2,1.6,2.1,1.9c0,0,0,0,0,0c-0.9-0.3-1.9-0.3-2.8,0.2c-0.9,0.4-1.6,1.2-1.9,2.1
		c0,0,0,0,0,0c0.3-0.9,0.3-1.9-0.2-2.9c-0.4-0.9-1.2-1.5-2-1.8C19.3,15.6,20.2,15.6,21.1,15.2z"/>
</g>
</svg>
