<?xml version="1.0" encoding="utf-8"?>
<!-- Generated by IcoMoon.io -->
<!DOCTYPE svg PUBLIC "-//W3C//DTD SVG 1.1//EN" "http://www.w3.org/Graphics/SVG/1.1/DTD/svg11.dtd">
<svg version="1.1" xmlns="http://www.w3.org/2000/svg" xmlns:xlink="http://www.w3.org/1999/xlink" width="30" height="30" viewBox="0 0 30 30">
<g>
	<line stroke-width="1" x1="" y1="" x2="" y2="" stroke="#449FDB" opacity=""></line>
</g>
	<path d="M25.666 22.915h-18.336c-0.733 0-1.324-0.596-1.324-1.327v-1.093l4.543-4.545c0.804-0.804 0.804-2.104 0-2.907l-4.543-4.545v-1.339c0-0.734 0.591-1.159 1.324-1.159h3.384l3.018 3h13.26v12.588c-0.001 0.731-0.594 1.327-1.326 1.327zM6.035 10.716c0.302-0.063 0.624 0.006 0.859 0.239l2.866 2.866c0.369 0.372 0.369 0.972 0 1.343l-2.866 2.865c-0.235 0.234-0.558 0.304-0.859 0.241v-1.998h-4.022v-3.525h4.022v-2.031z" fill="#000000"></path>
</svg>
