<?xml version="1.0" encoding="utf-8"?>
<!-- Generated by IcoMoon.io -->
<!DOCTYPE svg PUBLIC "-//W3C//DTD SVG 1.1//EN" "http://www.w3.org/Graphics/SVG/1.1/DTD/svg11.dtd">
<svg version="1.1" xmlns="http://www.w3.org/2000/svg" xmlns:xlink="http://www.w3.org/1999/xlink" width="30" height="30" viewBox="0 0 30 30">
<g>
	<line stroke-width="1" x1="" y1="" x2="" y2="" stroke="#449FDB" opacity=""></line>
</g>
	<path d="M18.714 22.635c0.022-0.142 0.043-0.287 0.043-0.436 0-1.516-1.229-2.775-2.749-2.775-0.004 0-6.978 0-6.978 0v2.397c-0.328 0.069-0.681-0.007-0.935-0.263l-3.124-3.122c-0.403-0.403-0.403-1.058 0-1.461l3.124-3.123c0.254-0.255 0.607-0.332 0.935-0.264v2.375c0 0 4.922 0 4.981 0 2.772 0 5.017 2.229 5.017 5-0.001 0.594-0.117 1.156-0.314 1.672zM24.718 15.627c0.024-0.141 0.045-0.285 0.045-0.435 0-1.517-1.23-2.773-2.746-2.773-0.005 0-6.979 0-6.979 0v2.397c-0.33 0.067-0.682-0.009-0.937-0.265l-3.123-3.123c-0.405-0.403-0.405-1.057 0-1.46l3.123-3.123c0.254-0.255 0.607-0.332 0.937-0.264v2.377c0 0 4.918 0 4.98 0 2.77 0 5.019 2.227 5.019 4.998-0.001 0.594-0.12 1.156-0.319 1.671z" fill="#000000"></path>
</svg>
