<?xml version="1.0" encoding="utf-8"?>
<!-- Generated by IcoMoon.io -->
<!DOCTYPE svg PUBLIC "-//W3C//DTD SVG 1.1//EN" "http://www.w3.org/Graphics/SVG/1.1/DTD/svg11.dtd">
<svg version="1.1" xmlns="http://www.w3.org/2000/svg" xmlns:xlink="http://www.w3.org/1999/xlink" width="30" height="30" viewBox="0 0 30 30">
<g>
	<line stroke-width="1" x1="" y1="" x2="" y2="" stroke="#449FDB" opacity=""></line>
</g>
	<path d="M19.186 26.703h-14.374c-0.441 0-0.799-0.354-0.799-0.789v-5.199h5.601l1.193 1.178c0.645 0.64 1.694 0.64 2.341 0l1.186-1.178h2.243c0.733 0 1.329-0.591 1.329-1.32v-2.223l2.076-2.058v10.8c-0.001 0.436-0.356 0.789-0.796 0.789zM17.905 14.051h1.28c0.271 0 0.496 0.141 0.642 0.347l-1.922 1.904v-2.251zM11.193 21.404l-0.698-0.689h2.961l-0.696 0.689c-0.432 0.43-1.134 0.43-1.567 0zM16.187 19.703h-14.376c-0.439 0-0.797-0.354-0.797-0.789v-10.736l6.794 6.714c0.645 0.642 1.692 0.642 2.341 0l6.835-6.779v10.801c-0.001 0.436-0.359 0.789-0.797 0.789zM14.040 10.161v-0.875c0-0.168-0.137-0.304-0.307-0.304h-9.486c-0.168 0-0.307 0.136-0.307 0.304v0.917l-2.783-2.752h-0.025c0.007-0.014 0.025-0.021 0.034-0.034h-0.090l0.233-0.147c0.067-0.061 0.139-0.105 0.224-0.141l6.637-4.174c0.45-0.282 1.178-0.282 1.627 0l6.604 4.151c0.139 0.045 0.255 0.116 0.349 0.222l0.144 0.089h-0.085l-2.769 2.744zM29.184 10.792v2.708c0-0.011-0.004-0.020-0.004-0.031l-0.002 1.313-5.217 5.718 0.009-3.992 4.498-4.93c-0.551-0.653-1.365-1.079-2.285-1.079h-4.157v2.29c-0.303 0.062-0.625-0.007-0.859-0.24l-2.048-2.050h-0.071v-0.069l-0.748-0.748c-0.371-0.372-0.371-0.971 0-1.343l2.867-2.864c0.233-0.235 0.556-0.305 0.858-0.242v2.767h4.157c1.594 0 2.885 1.246 2.981 2.815l0.021-0.023z" fill="#000000"></path>
</svg>
