<?xml version="1.0" encoding="utf-8"?>
<!-- Generated by IcoMoon.io -->
<!DOCTYPE svg PUBLIC "-//W3C//DTD SVG 1.1//EN" "http://www.w3.org/Graphics/SVG/1.1/DTD/svg11.dtd">
<svg version="1.1" xmlns="http://www.w3.org/2000/svg" xmlns:xlink="http://www.w3.org/1999/xlink" width="704" height="1024" viewBox="0 0 704 1024">
<g id="icomoon-ignore">
</g>
	<path d="M381.491 547.405c-16.213 16.35-42.633 16.35-58.982 0l-301.773-301.739c6.246-6.281 14.78-9.933 24.235-9.933h614.468c9.455 0 18.022 3.584 23.996 9.694l-301.943 301.978zM307.866 627.004c24.439 24.439 64 24.439 88.439 0 0 0 297.028-296.687 297.028-296.414l-0.137 416.29c0 18.876-14.814 34.133-33.724 34.133h-614.502c-18.773 0-34.065-15.258-34.065-34.133v-416.29c0-0.137 0.068-0.205 0.068-0.375l296.892 296.789z"></path>
</svg>
