<?xml version="1.0" encoding="UTF-8" standalone="no"?>
<!-- Created with Inkscape (http://www.inkscape.org/) -->

<svg
   xmlns:dc="http://purl.org/dc/elements/1.1/"
   xmlns:cc="http://creativecommons.org/ns#"
   xmlns:rdf="http://www.w3.org/1999/02/22-rdf-syntax-ns#"
   xmlns:svg="http://www.w3.org/2000/svg"
   xmlns="http://www.w3.org/2000/svg"
   xmlns:inkscape="http://www.inkscape.org/namespaces/inkscape"
   version="1.1"
   width="30"
   height="30"
   viewBox="0 0 30 30"
   id="svg2">
  <metadata
     id="metadata10">
    <rdf:RDF>
      <cc:Work
         rdf:about="">
        <dc:format>image/svg+xml</dc:format>
        <dc:type
           rdf:resource="http://purl.org/dc/dcmitype/StillImage" />
      </cc:Work>
    </rdf:RDF>
  </metadata>
  <defs
     id="defs8" />
  <path
     d="m 26.036,17.96 c 0,0.593 -0.118,1.154 -0.307,1.68 0.01,-0.15 0.03,-0.294 0.03,-0.444 0,-1.518 -1.23,-2.773 -2.75,-2.773 h -6.98 v 2.396 c -0.33,0.06 -0.69,-0.01 -0.94,-0.27 l -3.125,-3.12 c -0.403,-0.41 -0.403,-1.06 0,-1.467 l 3.126,-3.12 c 0.254,-0.256 0.608,-0.33 0.938,-0.263 v 2.376 c 0,0 5.206,-0.007 5.323,0 V 7.12 c 0,-0.278 -0.226,-0.504 -0.504,-0.504 H 6.75 L 8.356,5.01 H 21.72 c 0.688,0 1.245,0.558 1.245,1.246 v 7.08 c 1.804,0.758 3.07,2.543 3.07,4.625 z m -4.675,4.845 v -3.89 h 1.61 v 4.754 c 0,0.68 -0.56,1.24 -1.24,1.24 H 4.31 c -0.69,0 -1.248,-0.56 -1.248,-1.25 V 10.3 l 1.6,-1.6 v 14.105 c 0,0.28 0.227,0.506 0.504,0.506 H 20.85 c 0.28,0 0.505,-0.22 0.505,-0.5 z"
     inkscape:connector-curvature="0"
     id="path4" />
</svg>
