<?xml version="1.0" encoding="utf-8"?>
<!-- Generated by IcoMoon.io -->
<!DOCTYPE svg PUBLIC "-//W3C//DTD SVG 1.1//EN" "http://www.w3.org/Graphics/SVG/1.1/DTD/svg11.dtd">
<svg version="1.1" xmlns="http://www.w3.org/2000/svg" xmlns:xlink="http://www.w3.org/1999/xlink" width="30" height="30" viewBox="0 0 30 30">
<g>
	<line stroke-width="1" x1="" y1="" x2="" y2="" stroke="#449FDB" opacity=""></line>
</g>
	<path d="M24.074 9.75l-7.326 7.328c-0.946 0.946-2.483 0.946-3.43 0l-7.328-7.328c-0.273-0.273-0.45-0.6-0.555-0.942 0.949-0.199 1.931-0.374 2.954-0.512l0.751 0.751c0.011 0.013 5.574 5.594 5.574 5.594 0.174 0.175 0.457 0.175 0.628 0l5.55-5.549c0.024-0.042 0.778-0.796 0.778-0.796 1.025 0.139 2.010 0.313 2.958 0.512-0.104 0.342-0.278 0.669-0.554 0.942zM22.271 22h-14.527c-1.162 0-2.153-0.812-2.551-2h19.628c-0.4 1.188-1.389 2-2.55 2z" fill="#000000"></path>
</svg>
