<?xml version="1.0" encoding="utf-8"?>
<!-- Generated by IcoMoon.io -->
<!DOCTYPE svg PUBLIC "-//W3C//DTD SVG 1.1//EN" "http://www.w3.org/Graphics/SVG/1.1/DTD/svg11.dtd">
<svg version="1.1" xmlns="http://www.w3.org/2000/svg" xmlns:xlink="http://www.w3.org/1999/xlink" width="30" height="30" viewBox="0 0 30 30">
<g>
	<line stroke-width="1" x1="" y1="" x2="" y2="" stroke="#449FDB" opacity=""></line>
</g>
	<path d="M29.202 10.742l-0.009 3.994-2.872 3.32 1.466 1.468c-0.171 0.257-0.448 0.436-0.78 0.436h-4.055c-0.523 0-0.949-0.425-0.949-0.949v-4.057c0-0.332 0.179-0.609 0.437-0.78l1.897 1.9 4.865-5.332z" fill="#000000"></path>
	<path d="M12.762 21.698c-0.433 0.43-1.136 0.43-1.57 0l-7.043-6.96h-0.025c0.138-0.235 0.385-0.401 0.68-0.401h14.389c0.271 0 0.497 0.141 0.644 0.347l-7.075 7.014zM16.989 8.394v4.995h-5.036l5.036-4.995zM14.041 10.443v-0.873c0-0.17-0.134-0.307-0.305-0.307h-9.497c-0.169 0-0.306 0.136-0.306 0.307v0.917l-2.87-2.789 7.104-4.468c0.45-0.282 1.178-0.282 1.629 0l7.103 4.467-2.858 2.746zM4.406 13.389c-0.736 0-1.406 0.592-1.406 1.32v5.287h-1.199c-0.44 0-0.799-0.354-0.799-0.791v-10.746l4.988 4.93h-1.584zM10.807 22.187c0.645 0.641 1.693 0.641 2.343 0l6.842-6.786v10.811c0 0.437-0.356 0.788-0.798 0.788h-14.39c-0.44 0-0.799-0.352-0.799-0.788v-10.746l6.802 6.721z" fill="#000000"></path>
	<path d="M26.196 10.448h-7.142v-2.502h7.142c1.66 0 3.004 1.346 3.004 3.004v2.502c0-1.658-1.344-3.004-3.004-3.004z" fill="#000000"></path>
</svg>
