<?xml version="1.0" encoding="utf-8"?>
<!-- Generated by IcoMoon.io -->
<!DOCTYPE svg PUBLIC "-//W3C//DTD SVG 1.1//EN" "http://www.w3.org/Graphics/SVG/1.1/DTD/svg11.dtd">
<svg version="1.1" xmlns="http://www.w3.org/2000/svg" xmlns:xlink="http://www.w3.org/1999/xlink" width="30" height="30" viewBox="0 0 30 30">
<g>
	<line stroke-width="1" x1="" y1="" x2="" y2="" stroke="#449FDB" opacity=""></line>
</g>
	<path d="M26.036 17.961c0 0.592-0.118 1.153-0.307 1.68 0.016-0.152 0.036-0.295 0.036-0.445 0-1.518-1.232-2.773-2.749-2.773-0.005 0-6.979 0-6.979 0v2.396c-0.329 0.067-0.684-0.006-0.937-0.262l-3.125-3.123c-0.403-0.406-0.403-1.060 0-1.463l3.125-3.123c0.253-0.255 0.607-0.33 0.937-0.262v2.375c0 0 5.206-0.007 5.323 0v-5.841c0-0.278-0.227-0.504-0.505-0.504h-14.105l1.606-1.606h13.364c0.688 0 1.245 0.558 1.245 1.246v7.080c1.804 0.758 3.071 2.543 3.071 4.625zM21.361 22.805v-3.89h1.604v4.754c0 0.688-0.558 1.243-1.245 1.243h-17.415c-0.688 0-1.246-0.556-1.246-1.243v-13.363l1.606-1.606v14.105c0 0.279 0.227 0.506 0.504 0.506h15.687c0.279 0 0.505-0.227 0.505-0.506z" fill="#000000"></path>
</svg>
