<?xml version="1.0" encoding="utf-8"?>
<!-- Generated by IcoMoon.io -->
<!DOCTYPE svg PUBLIC "-//W3C//DTD SVG 1.1//EN" "http://www.w3.org/Graphics/SVG/1.1/DTD/svg11.dtd">
<svg version="1.1" xmlns="http://www.w3.org/2000/svg" xmlns:xlink="http://www.w3.org/1999/xlink" width="30" height="30" viewBox="0 0 30 30">
<g>
	<line stroke-width="1" x1="" y1="" x2="" y2="" stroke="#449FDB" opacity=""></line>
</g>
	<path d="M13.272 14.606l-2.416-2.414c0.186-0.696 0.452-1.318 0.758-1.879l3.381 3.381 3.37-3.372c0.307 0.566 0.57 1.186 0.756 1.884l-2.402 2.401c-0.005 0.004-0.010 0.009-0.014 0.011-0.197 0.197-0.201 0.512-0.018 0.716l-0.003 0.002 2.435 2.437c-0.184 0.696-0.447 1.315-0.754 1.88l-3.37-3.372-3.383 3.381c-0.304-0.562-0.57-1.182-0.754-1.878l2.448-2.447-0.002-0.002c0.183-0.204 0.177-0.519-0.021-0.716-0.001-0.003-0.008-0.008-0.011-0.013z" fill="#000000"></path>
</svg>
