<?xml version="1.0" encoding="UTF-8" standalone="no"?>
<!-- Created with Inkscape (http://www.inkscape.org/) -->

<svg
   xmlns:dc="http://purl.org/dc/elements/1.1/"
   xmlns:cc="http://creativecommons.org/ns#"
   xmlns:rdf="http://www.w3.org/1999/02/22-rdf-syntax-ns#"
   xmlns:svg="http://www.w3.org/2000/svg"
   xmlns="http://www.w3.org/2000/svg"
   xmlns:inkscape="http://www.inkscape.org/namespaces/inkscape"
   version="1.1"
   width="30"
   height="30"
   viewBox="0 0 30 30"
   id="svg2">
  <metadata
     id="metadata10">
    <rdf:RDF>
      <cc:Work
         rdf:about="">
        <dc:format>image/svg+xml</dc:format>
        <dc:type
           rdf:resource="http://purl.org/dc/dcmitype/StillImage" />
      </cc:Work>
    </rdf:RDF>
  </metadata>
  <defs
     id="defs8" />
  <path
     d="M 17.985,11.18 C 20.628,2.755 17.401,3.27 17.401,3.27 v 0.048 c -0.01,-0.008 -0.01,-0.02 -0.02,-0.026 -1.23,5.654 -3.71,9.384 -7.29,9.89 v 10.9 c 1.92,0.718 3.85,1.425 6.3,1.425 1.38,0 2.71,-0.14 3.95,-0.383 1.693,-2.172 3.04,-5.73 3.523,-9.912 0.104,-0.882 0.148,-1.74 0.166,-2.585 -1.7,-0.786 -3.78,-1.276 -6.034,-1.446 z M 5.083,27.084 c 0.138,-0.006 0.284,-0.037 0.44,-0.102 0.983,-0.403 1.67,-0.64 2.18,-1.095 0.73,-3.285 1.188,-7.918 1.2,-13.062 l -3.82,0.282 v 13.978 z"
     inkscape:connector-curvature="0"
     id="path4" />
</svg>
