<?xml version="1.0" encoding="UTF-8" standalone="no"?>
<!-- Created with Inkscape (http://www.inkscape.org/) -->

<svg
   xmlns:dc="http://purl.org/dc/elements/1.1/"
   xmlns:cc="http://creativecommons.org/ns#"
   xmlns:rdf="http://www.w3.org/1999/02/22-rdf-syntax-ns#"
   xmlns:svg="http://www.w3.org/2000/svg"
   xmlns="http://www.w3.org/2000/svg"
   xmlns:inkscape="http://www.inkscape.org/namespaces/inkscape"
   version="1.1"
   width="30"
   height="30"
   viewBox="0 0 30 30"
   id="svg2">
  <metadata
     id="metadata10">
    <rdf:RDF>
      <cc:Work
         rdf:about="">
        <dc:format>image/svg+xml</dc:format>
        <dc:type
           rdf:resource="http://purl.org/dc/dcmitype/StillImage" />
      </cc:Work>
    </rdf:RDF>
  </metadata>
  <defs
     id="defs8" />
  <path
     d="m 23.23,9.572 c -0.197,-0.34 -0.398,-0.58 -0.797,-0.58 h -1.44 V 5.828 c 0,-0.3 -0.534,-0.838 -0.83,-0.838 h -3.33 c -0.296,0 -0.83,0.54 -0.83,0.837 v 3.16 c -1.09,0 -2.016,-0.04 -2.016,-0.04 v 0.004 c -0.04,0 0.043,0 0,0 V 5.96 c 0,-0.298 -0.517,-0.966 -0.813,-0.966 H 9.846 c -0.296,0 -0.833,0.54 -0.833,0.837 v 3.16 H 7.567 c -0.4,0 -0.6,0.24 -0.8,0.58 -2.794,4.77 -3.12,9.26 -2.495,14.75 0.07,0.61 0.603,0.64 0.728,0.64 h 6.025 c 0.3,0 0.972,-0.32 0.972,-0.78 L 12,19 h 6.004 l 0.002,5.17 c 0,0.462 0.723,0.788 1.023,0.788 h 6.02 c 0.12,0 0.6,-0.033 0.67,-0.64 0.62,-5.493 0.3,-9.98 -2.5,-14.746 z m -7.226,7.68 -2.017,-0.043 v -6.54 l 1.01,0.043 v -0.02 l 0.007,0.015 h 1 v 6.53 z"
     inkscape:connector-curvature="0"
     id="path4" />
</svg>
