<?xml version="1.0" encoding="UTF-8" standalone="no"?>
<!-- Created with Inkscape (http://www.inkscape.org/) -->

<svg
   xmlns:dc="http://purl.org/dc/elements/1.1/"
   xmlns:cc="http://creativecommons.org/ns#"
   xmlns:rdf="http://www.w3.org/1999/02/22-rdf-syntax-ns#"
   xmlns:svg="http://www.w3.org/2000/svg"
   xmlns="http://www.w3.org/2000/svg"
   xmlns:inkscape="http://www.inkscape.org/namespaces/inkscape"
   version="1.1"
   width="30"
   height="30"
   viewBox="0 0 30 30"
   id="svg2">
  <metadata
     id="metadata10">
    <rdf:RDF>
      <cc:Work
         rdf:about="">
        <dc:format>image/svg+xml</dc:format>
        <dc:type
           rdf:resource="http://purl.org/dc/dcmitype/StillImage" />
      </cc:Work>
    </rdf:RDF>
  </metadata>
  <defs
     id="defs8" />
  <path
     d="m 26.07,18.438 c 0.687,-1.367 1.726,-4.44 0.837,-6.955 l 0.018,0.073 -0.016,-0.045 c 0,0 -0.17,0.51 -0.4,1.28 -0.02,-0.1 -0.04,-0.2 -0.06,-0.31 0.06,-0.94 0.04,-1.95 -0.15,-2.92 -0.3,-1.52 -1.48,-2.85 -2.1,-3.28 l 0.09,0.08 -0.12,-0.08 0.07,0.39 c -0.67,-1.07 -1.7,-1.57 -1.7,-1.57 0,0 0.03,0.18 0.08,0.55 -2.11,-1.88 -4.89,-3.02 -7.94,-3.02 -3.1,0 -5.93,1.18 -8.05,3.12 0.12,0.14 0.24,0.31 0.36,0.49 0,0 0.8,-0.14 1.79,-0.05 1.72,-1.21 3.76,-1.86 5.9,-1.86 2.74,0 5.31,1.07 7.25,3.01 0.1,0.1 0.2,0.21 0.3,0.31 -0.58,-0.44 -1.29,-0.8 -1.81,-0.84 1.06,0.79 2.65,2.78 2.48,6.26 -0.28,-0.57 -0.6,-1.02 -0.96,-1.34 0.39,3.5 0.05,4.25 -0.18,5.18 -0.05,-0.43 -0.21,-0.75 -0.29,-0.94 0,0 -0.04,1.1 -0.75,2.65 -0.54,1.18 -1.09,1.55 -1.34,1.51 -0.22,-0.03 -0.07,-0.24 -0.11,-0.45 0,0 -0.37,0.18 -0.74,0.56 -0.35,0.36 -0.66,0.76 -0.82,0.65 0.12,-0.1 0.21,-0.27 0.31,-0.43 -0.14,0.1 -0.49,0.36 -1.27,0.47 -0.32,0.05 -1.67,0.3 -3.48,-0.6 0.26,-0.03 0.65,-0.12 0.96,0.06 -0.3,-0.33 -1.03,-0.26 -1.55,-0.42 -0.46,-0.14 -1.05,-0.78 -1.39,-1.1 1.38,0.34 2.86,0.1 3.71,-0.48 0.86,-0.59 1.37,-1.02 1.82,-0.92 0.45,0.1 0.76,-0.36 0.41,-0.77 -0.35,-0.41 -1.22,-0.97 -2.39,-0.66 -0.82,0.22 -1.85,1.13 -3.4,0.21 -1.33,-0.78 -1.32,-1.42 -1.32,-1.83 0,-0.28 0.17,-0.66 0.49,-0.83 0.17,0.06 0.28,0.12 0.28,0.12 0,0 -0.08,-0.12 -0.13,-0.18 l 0.03,-0.01 c 0.14,0.05 0.45,0.17 0.61,0.25 0.21,0.11 0.29,0.22 0.29,0.22 0,0 0.05,-0.03 0,-0.14 -0.03,-0.05 -0.1,-0.18 -0.32,-0.32 h 0.01 c 0.11,0.05 0.23,0.1 0.36,0.18 0.04,-0.19 0.12,-0.39 0.07,-0.74 -0.04,-0.24 -0.04,-0.3 -0.1,-0.39 -0.05,-0.07 0.02,-0.11 0.1,-0.04 -0.02,-0.06 -0.05,-0.12 -0.08,-0.18 v -0.01 c 0,-0.02 0.02,-0.04 0.03,-0.06 0.25,-0.35 1.84,-1.18 1.96,-1.27 0.15,-0.11 0.31,-0.28 0.43,-0.48 0.16,-0.1 0.27,-0.51 0.3,-0.83 0.02,-0.12 -0.26,-0.27 -0.4,-0.3 -0.08,-0.02 -0.37,-0.07 -0.58,-0.03 l 0.03,0.02 c -0.29,-0.02 -0.69,-0.02 -1.22,-0.02 -0.52,0 -0.87,-0.3 -1.07,-0.59 -0.04,-0.06 -0.08,-0.12 -0.11,-0.17 -0.05,-0.08 -0.08,-0.16 -0.11,-0.22 0.23,-0.83 0.69,-1.55 1.41,-2.14 0.05,-0.03 -0.17,0.03 -0.13,-0.01 0.05,-0.04 0.35,-0.19 0.41,-0.22 0.07,-0.04 -0.33,-0.15 -0.67,-0.08 -0.35,0.07 -0.41,0.11 -0.59,0.21 0.07,-0.07 0.3,-0.19 0.25,-0.18 -0.38,0.09 -0.82,0.33 -1.2,0.6 0,-0.03 0,-0.06 0.01,-0.11 -0.18,0.09 -0.61,0.42 -0.72,0.68 0,-0.05 0,-0.08 -0.01,-0.14 -0.12,0.11 -0.24,0.24 -0.35,0.39 -0.01,0 -0.01,0 -0.01,0.01 -1.12,-0.28 -2.07,-0.21 -2.86,0.05 -0.27,-0.21 -0.67,-0.6 -0.98,-1.09 -0.03,-0.05 -0.03,0.1 -0.06,0.05 -0.17,-0.31 -0.32,-0.82 -0.36,-1.22 0,-0.05 -0.01,-0.08 -0.01,-0.12 0,0 -0.14,0.08 -0.3,0.35 -0.07,0.11 -0.14,0.27 -0.21,0.46 -0.04,0.11 -0.06,0.18 -0.09,0.24 -0.01,0.02 0.02,-0.2 0.01,-0.19 -0.04,0.08 -0.15,0.21 -0.19,0.35 -0.03,0.11 -0.07,0.17 -0.09,0.31 -0.01,0 -0.01,0 -0.01,0.01 -0.01,-0.03 -0.01,-0.16 -0.02,-0.13 -0.09,0.24 -0.18,0.52 -0.25,0.83 -0.06,0.23 -0.1,0.49 -0.13,0.79 -0.03,0.34 -0.03,0.73 0,1.17 0,0.07 0,0.13 -0.01,0.19 -0.3,0.41 -0.48,0.77 -0.56,0.95 -0.37,0.71 -0.74,1.82 -1.05,3.53 0,0 0.2,-0.64 0.6,-1.36 v 0.03 c -0.29,0.92 -0.52,2.34 -0.38,4.45 0,-0.07 0.07,-0.61 0.23,-1.34 0.08,1.43 0.48,3.16 1.6,5.07 0.82,1.4 1.78,2.44 2.85,3.23 0.2,0.16 0.4,0.31 0.61,0.46 1.33,0.97 3.39,2.16 5.16,2.41 -0.61,-0.18 -1,-0.53 -1,-0.53 0,0 2.09,0.67 3.62,0.62 -0.48,-0.08 -0.57,-0.31 -0.57,-0.31 0,0 4.35,0.25 6.61,-1.54 0.51,-0.38 0.84,-0.82 0.94,-1.22 0.66,-0.36 1.38,-0.84 2.12,-1.57 1.23,-1.21 1.36,-2.13 1.49,-2.99 -0.01,0.03 -0.01,0.06 -0.02,0.08 0.06,-0.34 0.02,-0.65 -0.12,-0.87 z"
     inkscape:connector-curvature="0"
     id="path4" />
</svg>
