<?xml version="1.0" encoding="utf-8"?>
<!-- Generated by IcoMoon.io -->
<!DOCTYPE svg PUBLIC "-//W3C//DTD SVG 1.1//EN" "http://www.w3.org/Graphics/SVG/1.1/DTD/svg11.dtd">
<svg version="1.1" xmlns="http://www.w3.org/2000/svg" xmlns:xlink="http://www.w3.org/1999/xlink" width="32" height="32" viewBox="0 0 32 32">
<g>
</g>
	<path d="M12.053 8.533v0c-0.213-0.213-0.213-0.427 0-0.64 0 0 0 0 0 0l2.24-2.24c-0.213-0.64-0.427-1.173-0.64-1.707l-3.2 3.093-3.093-3.093c-0.32 0.533-0.533 1.067-0.64 1.707l2.24 2.24c0 0 0 0 0 0 0.213 0.213 0.213 0.427 0 0.64v0l-2.24 2.24c0.213 0.64 0.427 1.173 0.64 1.707l3.093-3.093 3.093 3.093c0.32-0.533 0.533-1.067 0.64-1.707l-2.133-2.24z" fill="#000000"></path>
	<path d="M23.253 14.4c-0.32-0.107-2.027-0.107-2.667 0l4.8-11.093-9.6 12.48c-0.32 0.64-0.213 1.493 0.427 1.813 0.32 0.107 2.027 0.107 2.667 0l-4.8 11.093 9.6-12.48c0.32-0.64 0.213-1.493-0.427-1.813z" fill="#000000"></path>
</svg>
