<?xml version="1.0" encoding="UTF-8" standalone="no"?>
<!-- Created with Inkscape (http://www.inkscape.org/) -->

<svg
   xmlns:dc="http://purl.org/dc/elements/1.1/"
   xmlns:cc="http://creativecommons.org/ns#"
   xmlns:rdf="http://www.w3.org/1999/02/22-rdf-syntax-ns#"
   xmlns:svg="http://www.w3.org/2000/svg"
   xmlns="http://www.w3.org/2000/svg"
   xmlns:inkscape="http://www.inkscape.org/namespaces/inkscape"
   version="1.1"
   width="32"
   height="32"
   viewBox="0 0 32 32"
   id="svg2">
  <metadata
     id="metadata10">
    <rdf:RDF>
      <cc:Work
         rdf:about="">
        <dc:format>image/svg+xml</dc:format>
        <dc:type
           rdf:resource="http://purl.org/dc/dcmitype/StillImage" />
      </cc:Work>
    </rdf:RDF>
  </metadata>
  <defs
     id="defs8" />
  <path
     d="m 12.053,8.533 c -0.213,-0.213 -0.213,-0.427 0,-0.64 l 2.24,-2.24 C 14.08,5.013 13.866,4.48 13.653,3.946 l -3.2,3.093 -3.093,-3.1 c -0.32,0.53 -0.533,1.06 -0.64,1.7 l 2.24,2.24 c 0.213,0.213 0.213,0.427 0,0.64 l -2.24,2.24 c 0.213,0.64 0.427,1.173 0.64,1.707 l 3.093,-3.094 3.093,3.092 c 0.32,-0.536 0.533,-1.07 0.64,-1.71 l -2.133,-2.24 z m 11.2,5.867 c -0.32,-0.107 -2.027,-0.107 -2.667,0 l 4.8,-11.093 -9.6,12.48 c -0.32,0.64 -0.213,1.493 0.427,1.813 0.32,0.107 2.027,0.107 2.667,0 l -4.8,11.093 9.6,-12.48 C 24,15.573 23.893,14.72 23.253,14.4 z"
     inkscape:connector-curvature="0"
     id="path4" />
</svg>
