<?xml version="1.0" encoding="utf-8"?>
<!-- Generated by IcoMoon.io -->
<!DOCTYPE svg PUBLIC "-//W3C//DTD SVG 1.1//EN" "http://www.w3.org/Graphics/SVG/1.1/DTD/svg11.dtd">
<svg version="1.1" xmlns="http://www.w3.org/2000/svg" xmlns:xlink="http://www.w3.org/1999/xlink" width="30" height="30" viewBox="0 0 30 30">
<g>
	<line stroke-width="1" x1="" y1="" x2="" y2="" stroke="#449FDB" opacity=""></line>
</g>
	<path d="M21.908 13.192c-0.061-0.184-0.223-0.305-0.403-0.323 0-0.001-0.001-0.002-0.001-0.003l-4.234-0.555-1.826-3.833c-0.001 0-0.002 0-0.003 0-0.069-0.176-0.238-0.302-0.439-0.302s-0.372 0.124-0.44 0.301c-0.001 0-0.002 0-0.003 0l-1.828 3.833-4.232 0.555c0 0.001 0 0.002-0.001 0.003-0.18 0.019-0.342 0.14-0.402 0.323-0.061 0.188 0.003 0.385 0.145 0.505 0 0.001-0.001 0.003-0.001 0.005l3.088 2.927-0.774 4.174c0.001 0.001 0.002 0.002 0.003 0.003-0.049 0.183 0.013 0.386 0.175 0.503 0.159 0.115 0.366 0.118 0.523 0.023 0 0.001 0.001 0.001 0.001 0.001l3.747-2.034 3.747 2.034c0 0 0 0 0.001 0 0.156 0.094 0.361 0.091 0.521-0.024 0.164-0.117 0.225-0.318 0.177-0.502 0.001-0.001 0.003-0.003 0.005-0.004l-0.775-4.174 3.086-2.927c0-0.001-0.001-0.001-0.001-0.002 0.14-0.12 0.205-0.318 0.144-0.507z" fill="#000000"></path>
</svg>
