<?xml version="1.0" encoding="utf-8"?>
<!-- Generated by IcoMoon.io -->
<!DOCTYPE svg PUBLIC "-//W3C//DTD SVG 1.1//EN" "http://www.w3.org/Graphics/SVG/1.1/DTD/svg11.dtd">
<svg version="1.1" xmlns="http://www.w3.org/2000/svg" xmlns:xlink="http://www.w3.org/1999/xlink" width="30" height="30" viewBox="0 0 30 30">
<g>
	<line stroke-width="1" x1="" y1="" x2="" y2="" stroke="#449FDB" opacity=""></line>
</g>
	<path d="M24.097 22.441l-1.038-0.678c0.785-2.105 1.217-4.384 1.217-6.763 0-2.381-0.432-4.657-1.217-6.763l1.038-0.678c0.897 2.307 1.39 4.816 1.39 7.441-0.001 2.623-0.493 5.135-1.39 7.441zM19.361 19.349c0.416-1.376 0.643-2.835 0.643-4.348s-0.227-2.972-0.643-4.351l0.768-0.501c0.49 1.531 0.754 3.16 0.754 4.852s-0.264 3.322-0.754 4.85l-0.768-0.502zM16.066 17.198c0.14-0.712 0.215-1.446 0.215-2.198s-0.075-1.488-0.215-2.2l0.478-0.311c0.174 0.81 0.269 1.649 0.269 2.511s-0.095 1.701-0.269 2.509l-0.478-0.311zM11.15 21.352l-3.162-3.164h-1.985c-0.513 0-0.927-0.416-0.927-0.929v-4.519c0-0.512 0.414-0.929 0.927-0.929h1.987l3.16-3.16c0.479-0.479 1.16-0.604 1.768-0.425v13.551c-0.608 0.179-1.289 0.054-1.768-0.425z" fill="#000000"></path>
</svg>
