<?xml version="1.0" encoding="utf-8"?>
<!-- Generated by IcoMoon.io -->
<!DOCTYPE svg PUBLIC "-//W3C//DTD SVG 1.1//EN" "http://www.w3.org/Graphics/SVG/1.1/DTD/svg11.dtd">
<svg version="1.1" xmlns="http://www.w3.org/2000/svg" xmlns:xlink="http://www.w3.org/1999/xlink" width="32" height="32" viewBox="0 0 32 32">
<g>
</g>
	<path d="M11.069 3.023c-3.699 1.406-6.639 4.348-8.046 8.046h1.023c0.631-1.532 1.567-2.968 2.812-4.212s2.68-2.181 4.211-2.811v-1.022zM20.93 3.023l0 1.022c1.531 0.631 2.967 1.567 4.211 2.812s2.181 2.68 2.812 4.212h1.023c-1.407-3.698-4.348-6.639-8.046-8.046zM6.858 25.141c-1.245-1.244-2.181-2.68-2.812-4.211h-1.022c1.407 3.697 4.348 6.639 8.046 8.046v-1.023c-1.531-0.631-2.967-1.567-4.211-2.812zM28.977 20.931l-1.022 0c-0.631 1.531-1.567 2.967-2.812 4.212s-2.681 2.181-4.213 2.812v1.022c3.698-1.407 6.639-4.348 8.046-8.046z" fill="#000000"></path>
</svg>
