<?xml version="1.0" encoding="utf-8"?>
<!-- Generated by IcoMoon.io -->
<!DOCTYPE svg PUBLIC "-//W3C//DTD SVG 1.1//EN" "http://www.w3.org/Graphics/SVG/1.1/DTD/svg11.dtd">
<svg version="1.1" xmlns="http://www.w3.org/2000/svg" xmlns:xlink="http://www.w3.org/1999/xlink" width="32" height="32" viewBox="0 0 32 32">
<g>
</g>
	<path d="M25.578 25.579c-1.367 1.367-2.954 2.378-4.647 3.038v0.36c3.698-1.407 6.639-4.347 8.045-8.047h-0.36c-0.661 1.693-1.671 3.281-3.038 4.648zM3.022 11.069h0.36c0.661-1.693 1.671-3.281 3.038-4.648s2.955-2.378 4.648-3.038v-0.36c-3.698 1.407-6.64 4.347-8.046 8.046zM28.617 11.069h0.36c-1.406-3.699-4.347-6.639-8.046-8.046v0.36c1.692 0.661 3.28 1.671 4.647 3.038s2.378 2.955 3.038 4.648zM3.383 20.931h-0.36c1.406 3.699 4.348 6.64 8.046 8.047v-0.361c-1.693-0.661-3.281-1.671-4.648-3.038s-2.378-2.955-3.038-4.648z" fill="#000000"></path>
</svg>
