<?xml version="1.0" encoding="utf-8"?>
<!-- Generated by IcoMoon.io -->
<!DOCTYPE svg PUBLIC "-//W3C//DTD SVG 1.1//EN" "http://www.w3.org/Graphics/SVG/1.1/DTD/svg11.dtd">
<svg version="1.1" xmlns="http://www.w3.org/2000/svg" xmlns:xlink="http://www.w3.org/1999/xlink" width="30" height="30" viewBox="0 0 30 30">
<g>
	<line stroke-width="1" x1="" y1="" x2="" y2="" stroke="#449FDB" opacity=""></line>
</g>
	<path d="M18.977 2.003h-11.275c-0.912 0-1.651 0.799-1.651 1.786v21.429c-0.001 0.984 0.738 1.782 1.651 1.782h13.537c0.972 0 1.761-0.798 1.761-1.782v-18.816l-4.023-4.399zM14.826 12.996h2.292v3.070h-2.292v-3.070zM11.861 12.996h2.168v3.070h-2.168v-3.070zM9.132 14.382c0-0.766 0.613-1.386 1.368-1.386h0.527v3.070h-1.895v-1.684zM11.027 24.040h-0.527c-0.755 0-1.368-0.622-1.368-1.388v-1.816h1.896v3.204zM14.029 24.040h-2.168v-3.204h2.168v3.204zM17.117 24.040h-2.292v-3.204h2.292v3.204zM18.621 24.040h-0.67v-4.051l-8.896-0.007v-0.137l-0.007-0.011v-2.794l0.007-0.015v-0.15h10.935v5.777c0 0.766-0.613 1.388-1.369 1.388zM19.99 16.066h-2.039v-3.070h0.67c0.756 0 1.369 0.62 1.369 1.386v1.684z" fill="#000000"></path>
</svg>
