<?xml version="1.0" encoding="utf-8"?>
<!-- Generated by IcoMoon.io -->
<!DOCTYPE svg PUBLIC "-//W3C//DTD SVG 1.1//EN" "http://www.w3.org/Graphics/SVG/1.1/DTD/svg11.dtd">
<svg version="1.1" xmlns="http://www.w3.org/2000/svg" xmlns:xlink="http://www.w3.org/1999/xlink" width="30" height="30" viewBox="0 0 30 30">
<g>
	<line stroke-width="1" x1="" y1="" x2="" y2="" stroke="#449FDB" opacity=""></line>
</g>
	<path d="M20.939 2.167h-10.876c-0.988 0-2 0.938-2 2.001 0 0 0 1.857 0 7.833 0 0.354-1.938 1.656-1.938 2.001 0 3.87 0 10.997 0 10.997 0.001 1.063 0.825 2.001 1.813 2.001h13.001c1.053 0 1.998-0.938 1.998-2.001v-20.831c0.001-1.063-0.945-2.001-1.998-2.001zM15.999 4.18h2.001v4.581h-2.001v-4.581zM13 4.18v0h2.001v4.581h-2.001v-4.581zM10 4.18h2.001v4.581h-2.001v-4.581zM15.001 21.002h-4.001l4.001-5.001 4.001 5.001h-4.001zM21.002 8.761h-2.002v-4.581h2.002v4.581z" fill="#000000"></path>
</svg>
