<?xml version="1.0" encoding="utf-8"?>
<!-- Generated by IcoMoon.io -->
<!DOCTYPE svg PUBLIC "-//W3C//DTD SVG 1.1//EN" "http://www.w3.org/Graphics/SVG/1.1/DTD/svg11.dtd">
<svg version="1.1" xmlns="http://www.w3.org/2000/svg" xmlns:xlink="http://www.w3.org/1999/xlink" width="30" height="30" viewBox="0 0 30 30">
<g>
	<line stroke-width="1" x1="" y1="" x2="" y2="" stroke="#449FDB" opacity=""></line>
</g>
	<path d="M19.934 13.486l7.424-5.056c0-0.598-0.561-1.027-0.875-1.027h-8.483v4.986l1.744 1.097c0.044 0.014 0.147 0.014 0.19 0zM19.592 15.341l-1.592-1.092v6.751h8c0.719 0 1.355-0.418 1.355-1.416v-9.14c0 0-7.541 5.060-7.271 4.897 0 0-0.27 0.163-0.492 0zM9.614 17.488c0.534 0 0.957-0.24 1.269-0.721s0.469-1.149 0.469-2.001c0-0.889-0.151-1.58-0.456-2.075-0.303-0.495-0.717-0.741-1.243-0.741-0.543 0-0.974 0.253-1.293 0.761-0.318 0.51-0.478 1.182-0.478 2.021 0 0.848 0.16 1.521 0.478 2.014 0.319 0.498 0.738 0.742 1.254 0.742zM2.109 24.373l14.836 2.627v-25l-14.836 2.872v19.501zM7.195 11.543c0.629-0.839 1.462-1.258 2.499-1.258 0.979 0 1.772 0.4 2.375 1.202 0.605 0.803 0.908 1.86 0.908 3.171 0.001 1.349-0.313 2.438-0.94 3.261-0.627 0.826-1.445 1.24-2.453 1.24-0.983 0-1.784-0.402-2.402-1.201-0.619-0.801-0.929-1.842-0.929-3.126 0-1.355 0.314-2.452 0.942-3.289z" fill="#000000"></path>
</svg>
