<?xml version="1.0" encoding="utf-8"?>
<!-- Generated by IcoMoon.io -->
<!DOCTYPE svg PUBLIC "-//W3C//DTD SVG 1.1//EN" "http://www.w3.org/Graphics/SVG/1.1/DTD/svg11.dtd">
<svg version="1.1" xmlns="http://www.w3.org/2000/svg" xmlns:xlink="http://www.w3.org/1999/xlink" width="30" height="30" viewBox="0 0 30 30">
<g>
	<line stroke-width="1" x1="" y1="" x2="" y2="" stroke="#449FDB" opacity=""></line>
</g>
	<path d="M25.54 13.867c0-0.755-0.613-1.367-1.367-1.367 0.754 0 1.367-0.611 1.367-1.368 0 0.757 0.611 1.368 1.367 1.368-0.756 0-1.367 0.612-1.367 1.367zM22.539 8.735c0-1.235-1-2.236-2.233-2.236 1.233 0 2.233-1 2.233-2.233 0 1.233 1 2.233 2.233 2.233-1.233 0.001-2.233 1.001-2.233 2.236zM15.539 7.625c0-1.726-1.399-3.125-3.125-3.125 1.726 0 3.125-1.401 3.125-3.126 0 1.726 1.398 3.126 3.126 3.126-1.727 0.001-3.126 1.4-3.126 3.125zM9.539 16.020c0-3.048-2.471-5.519-5.521-5.519 3.050 0 5.521-2.473 5.521-5.521 0 3.048 2.473 5.521 5.521 5.521-3.048 0-5.521 2.471-5.521 5.519z" fill="#000000"></path>
</svg>
