<?xml version="1.0" encoding="utf-8"?>
<!-- Generated by IcoMoon.io -->
<!DOCTYPE svg PUBLIC "-//W3C//DTD SVG 1.1//EN" "http://www.w3.org/Graphics/SVG/1.1/DTD/svg11.dtd">
<svg version="1.1" xmlns="http://www.w3.org/2000/svg" xmlns:xlink="http://www.w3.org/1999/xlink" width="30" height="30" viewBox="0 0 30 30">
<g>
	<line stroke-width="1" x1="" y1="" x2="" y2="" stroke="#449FDB" opacity=""></line>
</g>
	<path d="M23.34 8.031l-1.688 1.689c-0.405-0.508-0.864-0.967-1.372-1.37l1.689-1.689c0.498 0.414 0.957 0.873 1.371 1.37zM15.968 4.177v2.386c-0.317-0.036-0.64-0.058-0.967-0.058-0.326 0-0.651 0.022-0.969 0.058v-2.386c0.32-0.027 0.643-0.049 0.969-0.049 0.327 0 0.649 0.022 0.967 0.049zM8.031 6.661l1.689 1.69c-0.506 0.402-0.966 0.861-1.368 1.369l-1.69-1.689c0.415-0.497 0.873-0.956 1.369-1.37zM6.661 21.971l1.691-1.689c0.403 0.505 0.863 0.966 1.368 1.369l-1.689 1.689c-0.496-0.416-0.955-0.873-1.37-1.369zM14.032 25.824v-2.386c0.317 0.036 0.643 0.059 0.969 0.059 0.327 0 0.649-0.022 0.967-0.059v2.386c-0.317 0.026-0.64 0.047-0.967 0.047-0.326 0-0.648-0.020-0.969-0.047zM15.001 21.436c-3.553 0-6.434-2.883-6.434-6.434 0-3.554 2.88-6.437 6.434-6.437s6.435 2.882 6.435 6.437c0 3.551-2.881 6.434-6.435 6.434zM23.34 21.971c-0.414 0.496-0.873 0.955-1.37 1.369l-1.69-1.69c0.508-0.403 0.967-0.864 1.372-1.369l1.688 1.69zM6.504 15.002c0 0.326 0.023 0.648 0.060 0.967h-2.385c-0.029-0.32-0.049-0.641-0.049-0.967 0-0.329 0.021-0.651 0.049-0.97h2.385c-0.037 0.319-0.060 0.641-0.060 0.97zM23.496 15.002c0-0.329-0.022-0.651-0.058-0.97h2.385c0.027 0.318 0.050 0.641 0.050 0.97 0 0.326-0.022 0.646-0.050 0.967h-2.385c0.036-0.319 0.058-0.641 0.058-0.967z" fill="#000000"></path>
</svg>
