<?xml version="1.0" encoding="utf-8"?>
<!-- Generator: Adobe Illustrator 16.0.0, SVG Export Plug-In . SVG Version: 6.00 Build 0)  -->
<!DOCTYPE svg PUBLIC "-//W3C//DTD SVG 1.1//EN" "http://www.w3.org/Graphics/SVG/1.1/DTD/svg11.dtd">
<svg version="1.1" id="Layer_1" xmlns="http://www.w3.org/2000/svg" xmlns:xlink="http://www.w3.org/1999/xlink" x="0px" y="0px"
	 width="30px" height="30px" viewBox="0 0 30 30" enable-background="new 0 0 30 30" xml:space="preserve">
<g>
	<path d="M9.779,17.624L7.39,14.867c-0.396-0.353-0.396-0.924,0-1.276l2.389-2.696c0.25-0.223,0.399-0.269,0.721-0.21V4.556
		c-0.001-0.566-0.386-1.025-1.169-1.025L4.605,3.5C3.822,3.5,3.5,3.959,3.5,4.524v19.921c0,0.564,0.385,1.022,1.168,1.022
		l4.57,0.031c0.783,0,1.262-0.459,1.262-1.022v-6.604C10.179,17.932,10.029,17.848,9.779,17.624z"/>
	<path d="M24.182,3.5H14.167c-0.553,0-1.25,0.448-1.25,1v8.595h-0.796c0,0-2.469,0.245-2.468,1.121c0,0.901,2.326,1.198,2.326,1.198
		h0.938v9.09c0,0.553,0.795,0.996,1.349,0.996h10.016c0.553,0,1.219-0.443,1.219-0.996V4.5C25.5,3.949,24.734,3.5,24.182,3.5z
		 M23.113,24.156h-7.712c-0.553,0-1-0.447-1-1l-0.009-7.742h2.788v2.352c0.281,0.057,0.447-0.007,0.668-0.227l2.672-2.671
		c0.345-0.346,0.345-0.905,0-1.251l-2.672-2.672c-0.221-0.219-0.387-0.283-0.668-0.225v2.375h-2.791l-0.008-7.22
		c0-0.553,0.447-1,1-1h7.712c0.554,0,1,0.447,1,1l0.021,17.281C24.113,23.709,23.666,24.156,23.113,24.156z"/>
</g>
</svg>
