<?xml version="1.0" encoding="utf-8"?>
<!-- Generated by IcoMoon.io -->
<!DOCTYPE svg PUBLIC "-//W3C//DTD SVG 1.1//EN" "http://www.w3.org/Graphics/SVG/1.1/DTD/svg11.dtd">
<svg version="1.1" xmlns="http://www.w3.org/2000/svg" xmlns:xlink="http://www.w3.org/1999/xlink" width="30" height="30" viewBox="0 0 30 30">
<g>
	<line stroke-width="1" x1="" y1="" x2="" y2="" stroke="#449FDB" opacity=""></line>
</g>
	<path d="M11 18h-5.999v-6h5.999v6zM11 5.001h-5c-0.552 0-0.999 0.448-0.999 0.999v5h5.999v-5.999zM18 11v-5.999h-6v5.999h6zM12 18h6v-6h-6v6zM5.001 19v5c0 0.555 0.447 1 0.999 1h5v-6h-5.999zM24.001 5.001h-5.001v5.999h6v-5c0-0.551-0.447-0.999-0.999-0.999zM19 18h6v-6h-6v6zM12 19v6h6v-6h-6zM19 25h5.001c0.552 0 0.999-0.445 0.999-1v-5h-6v6z" fill="#000000"></path>
</svg>
