<?xml version="1.0" encoding="UTF-8" standalone="no"?>
<!-- Created with Inkscape (http://www.inkscape.org/) -->

<svg
   xmlns:dc="http://purl.org/dc/elements/1.1/"
   xmlns:cc="http://creativecommons.org/ns#"
   xmlns:rdf="http://www.w3.org/1999/02/22-rdf-syntax-ns#"
   xmlns:svg="http://www.w3.org/2000/svg"
   xmlns="http://www.w3.org/2000/svg"
   xmlns:inkscape="http://www.inkscape.org/namespaces/inkscape"
   version="1.1"
   width="30"
   height="30"
   viewBox="0 0 30 30"
   id="svg2">
  <metadata
     id="metadata10">
    <rdf:RDF>
      <cc:Work
         rdf:about="">
        <dc:format>image/svg+xml</dc:format>
        <dc:type
           rdf:resource="http://purl.org/dc/dcmitype/StillImage" />
      </cc:Work>
    </rdf:RDF>
  </metadata>
  <defs
     id="defs8" />
  <path
     d="m 9.1,14.5 0.3,2.1 h 3.4 v 5.7 C 11.7,22.9 10.5,23.2 9.2,23.2 5.9,23.2 4,21 4,15.5 4,9.9 6.7,7.9 9.4,7.9 c 1.7,0 2.8,0.5 4.2,1.5 L 15.1,7.8 C 13.5,6.5 11.9,5.7 9.4,5.7 c -4.3,0 -8.2,3.4 -8.2,9.8 0,6.5 3.1,9.8 7.8,9.8 2.7,0 4.6,-0.7 6.4,-1.7 V 14.4 H 9.1 z"
     inkscape:connector-curvature="0"
     id="path4" />
</svg>
