<?xml version="1.0" encoding="utf-8"?>
<!-- Generator: Adobe Illustrator 17.1.0, SVG Export Plug-In . SVG Version: 6.00 Build 0)  -->
<!DOCTYPE svg PUBLIC "-//W3C//DTD SVG 1.1//EN" "http://www.w3.org/Graphics/SVG/1.1/DTD/svg11.dtd">
<svg version="1.1" id="Layer_1" xmlns="http://www.w3.org/2000/svg" xmlns:xlink="http://www.w3.org/1999/xlink" x="0px" y="0px"
	 viewBox="0 0 30 30" enable-background="new 0 0 30 30" xml:space="preserve">
<g>
	<g>
		<path fill-rule="evenodd" clip-rule="evenodd" d="M9.1,14.5l0.3,2.1h3.4v5.7c-1.1,0.6-2.3,0.9-3.6,0.9c-3.3,0-5.2-2.2-5.2-7.7
			c0-5.6,2.7-7.6,5.4-7.6c1.7,0,2.8,0.5,4.2,1.5l1.5-1.6c-1.6-1.3-3.2-2.1-5.7-2.1c-4.3,0-8.2,3.4-8.2,9.8c0,6.5,3.1,9.8,7.8,9.8
			c2.7,0,4.6-0.7,6.4-1.7v-9.2H9.1z"/>
	</g>
</g>
</svg>
