<?xml version="1.0" encoding="UTF-8" standalone="no"?>
<!-- Created with Inkscape (http://www.inkscape.org/) -->

<svg
   xmlns:dc="http://purl.org/dc/elements/1.1/"
   xmlns:cc="http://creativecommons.org/ns#"
   xmlns:rdf="http://www.w3.org/1999/02/22-rdf-syntax-ns#"
   xmlns:svg="http://www.w3.org/2000/svg"
   xmlns="http://www.w3.org/2000/svg"
   xmlns:inkscape="http://www.inkscape.org/namespaces/inkscape"
   version="1.1"
   width="32"
   height="32"
   viewBox="0 0 32 32"
   id="svg2">
  <metadata
     id="metadata10">
    <rdf:RDF>
      <cc:Work
         rdf:about="">
        <dc:format>image/svg+xml</dc:format>
        <dc:type
           rdf:resource="http://purl.org/dc/dcmitype/StillImage" />
      </cc:Work>
    </rdf:RDF>
  </metadata>
  <defs
     id="defs8" />
  <path
     d="m 15.86,13.794 h -0.513 l -0.55,4.446 h 0.623 c 0.29,0 0.557,-0.058 0.804,-0.17 0.246,-0.115 0.46,-0.29 0.64,-0.524 0.18,-0.234 0.322,-0.53 0.424,-0.884 0.102,-0.354 0.154,-0.775 0.154,-1.263 0,-0.58 -0.14,-0.99 -0.412,-1.23 -0.274,-0.25 -0.664,-0.38 -1.17,-0.38 z m 5.702,-8.92 H 10.438 c -3.072,0 -5.562,2.49 -5.562,5.563 v 11.125 c 0,3.07 2.49,5.562 5.562,5.562 h 11.125 c 3.072,0 5.562,-2.49 5.562,-5.562 V 10.438 c 0,-3.073 -2.49,-5.563 -5.563,-5.563 z m -8.84,14.26 h -1.2 l 0.34,-2.787 H 9.708 l -0.343,2.786 h -1.19 l 0.757,-6.23 h 1.2 L 9.825,15.4 h 2.156 l 0.31,-2.498 h 1.19 l -0.75,6.23 z m 5.74,-2.175 c -0.15,0.46 -0.372,0.85 -0.66,1.17 -0.29,0.32 -0.644,0.57 -1.062,0.74 -0.418,0.17 -0.89,0.252 -1.42,0.252 h -1.823 l 0.757,-6.23 h 1.624 c 0.434,0 0.823,0.052 1.168,0.156 0.348,0.104 0.64,0.26 0.885,0.47 0.245,0.21 0.43,0.465 0.56,0.774 0.13,0.31 0.2,0.67 0.2,1.08 0,0.59 -0.07,1.115 -0.22,1.58 z m 5.173,2.17 h -1.29 l -1.173,-2.5 h -0.74 l -0.307,2.5 h -1.19 l 0.76,-6.23 h 1.76 c 0.804,0 1.4,0.14 1.79,0.43 0.39,0.29 0.582,0.69 0.582,1.21 0,0.47 -0.14,0.87 -0.42,1.21 -0.28,0.34 -0.656,0.573 -1.133,0.71 l 1.36,2.67 z m -1.35,-5.16 c -0.19,-0.14 -0.49,-0.21 -0.906,-0.21 h -0.6 l -0.26,2.01 h 0.77 c 0.406,0 0.72,-0.1 0.94,-0.305 0.22,-0.2 0.33,-0.498 0.33,-0.89 0,-0.27 -0.094,-0.475 -0.286,-0.61 z"
     inkscape:connector-curvature="0"
     id="path4" />
</svg>
