<?xml version="1.0" encoding="utf-8"?>
<!-- Generator: Adobe Illustrator 17.1.0, SVG Export Plug-In . SVG Version: 6.00 Build 0)  -->
<!DOCTYPE svg PUBLIC "-//W3C//DTD SVG 1.1//EN" "http://www.w3.org/Graphics/SVG/1.1/DTD/svg11.dtd">
<svg version="1.1" id="Layer_1" xmlns="http://www.w3.org/2000/svg" xmlns:xlink="http://www.w3.org/1999/xlink" x="0px" y="0px"
	 viewBox="0 0 30 30" enable-background="new 0 0 30 30" xml:space="preserve">
<g>
	<g>
		<path fill-rule="evenodd" clip-rule="evenodd" d="M8.7,17c-1.6,0.2-2.6,2.7-2.2,5.4c0.4,2.8,2,4.8,3.6,4.6
			c1.6-0.2,2.6-2.7,2.2-5.4C11.9,18.8,10.3,16.8,8.7,17z M27.1,15c0-6.8-5.4-12.4-12.1-12.4C8.3,2.6,2.9,8.1,2.9,15
			c0,0.7,0.1,1.4,0.2,2.1h0l1.1,5.8c0.8,1,1.8,1.9,2.9,2.7l-1.6-8.7h0c-0.1-0.6-0.2-1.2-0.2-1.9C5.3,9.5,9.6,5,15,5
			c5.4,0,9.7,4.5,9.7,10c0,0.6-0.1,1.3-0.2,1.9h0L23,25.5c1.1-0.8,2.1-1.7,2.9-2.7l1.1-5.8h0C27.1,16.4,27.1,15.7,27.1,15z
			 M21.4,17.1c-1.6-0.2-3.2,1.8-3.6,4.5c-0.4,2.7,0.6,5.1,2.2,5.4c1.6,0.2,3.2-1.8,3.6-4.5C24,19.7,23,17.3,21.4,17.1z"/>
	</g>
</g>
</svg>
