<?xml version="1.0" encoding="UTF-8" standalone="no"?>
<!-- Created with Inkscape (http://www.inkscape.org/) -->

<svg
   xmlns:dc="http://purl.org/dc/elements/1.1/"
   xmlns:cc="http://creativecommons.org/ns#"
   xmlns:rdf="http://www.w3.org/1999/02/22-rdf-syntax-ns#"
   xmlns:svg="http://www.w3.org/2000/svg"
   xmlns="http://www.w3.org/2000/svg"
   xmlns:inkscape="http://www.inkscape.org/namespaces/inkscape"
   version="1.1"
   width="30"
   height="30"
   viewBox="0 0 30 30"
   id="svg2">
  <metadata
     id="metadata10">
    <rdf:RDF>
      <cc:Work
         rdf:about="">
        <dc:format>image/svg+xml</dc:format>
        <dc:type
           rdf:resource="http://purl.org/dc/dcmitype/StillImage" />
      </cc:Work>
    </rdf:RDF>
  </metadata>
  <defs
     id="defs8" />
  <path
     d="M 15.004,3 C 8.374,3 3,8.373 3,15 3,21.627 8.375,27 15.004,27 21.634,27 27,21.63 27,15 27,8.37 21.635,3 15.004,3 z m 0.427,18.48 c -0.21,0.214 -0.47,0.32 -0.79,0.32 -0.3,0 -0.56,-0.106 -0.77,-0.32 -0.21,-0.214 -0.31,-0.476 -0.31,-0.782 0,-0.305 0.108,-0.562 0.318,-0.77 0.21,-0.212 0.468,-0.317 0.773,-0.317 0.316,0 0.58,0.11 0.79,0.32 0.21,0.21 0.317,0.47 0.317,0.77 0,0.31 -0.108,0.57 -0.317,0.78 z m 2.99,-8.318 c -0.16,0.315 -0.36,0.59 -0.6,0.823 -0.24,0.233 -0.496,0.443 -0.78,0.627 -0.276,0.186 -0.536,0.385 -0.776,0.6 -0.24,0.215 -0.44,0.464 -0.6,0.743 -0.165,0.282 -0.245,0.637 -0.245,1.067 v 0.527 h -1.63 v -0.62 c 0,-0.49 0.077,-0.9 0.233,-1.24 0.155,-0.33 0.35,-0.63 0.584,-0.88 0.233,-0.25 0.49,-0.478 0.76,-0.67 0.278,-0.2 0.53,-0.398 0.764,-0.59 0.237,-0.2 0.43,-0.41 0.585,-0.64 0.154,-0.23 0.398,-0.96 0.398,-1.29 0,-0.5 -0.327,-0.86 -0.657,-1.127 -0.33,-0.267 -0.787,-0.396 -1.373,-0.396 -0.42,0 -0.836,0.102 -1.255,0.306 -0.42,0.204 -0.955,0.676 -1.324,1.13 l -1.15,-0.86 c 0.526,-0.61 1.237,-1.4 1.848,-1.693 0.61,-0.292 1.29,-0.44 2.044,-0.44 0.56,0 1.06,0.08 1.49,0.234 0.43,0.154 0.953,0.492 1.24,0.754 0.285,0.266 0.477,0.636 0.62,0.97 0.143,0.334 0.205,1.108 0.205,1.467 0,0.473 -0.213,0.87 -0.373,1.19 z"
     inkscape:connector-curvature="0"
     id="path4" />
</svg>
