<?xml version="1.0" encoding="utf-8"?>
<!-- Generated by IcoMoon.io -->
<!DOCTYPE svg PUBLIC "-//W3C//DTD SVG 1.1//EN" "http://www.w3.org/Graphics/SVG/1.1/DTD/svg11.dtd">
<svg version="1.1" xmlns="http://www.w3.org/2000/svg" xmlns:xlink="http://www.w3.org/1999/xlink" width="30" height="30" viewBox="0 0 30 30">
<g>
	<line stroke-width="1" x1="" y1="" x2="" y2="" stroke="#449FDB" opacity=""></line>
</g>
	<path d="M8.719 7.583c-0.983 0-1.781 0.798-1.781 1.781s0.798 1.781 1.781 1.781 1.781-0.796 1.781-1.781c0-0.983-0.798-1.781-1.781-1.781zM14.719 7.583c-0.983 0-1.781 0.798-1.781 1.781s0.798 1.781 1.781 1.781 1.781-0.796 1.781-1.781c0-0.983-0.798-1.781-1.781-1.781zM20.719 7.583c-0.982 0-1.781 0.798-1.781 1.781s0.799 1.781 1.781 1.781c0.983 0 1.781-0.796 1.781-1.781 0-0.983-0.798-1.781-1.781-1.781zM8.719 12.583c-0.983 0-1.781 0.798-1.781 1.781s0.798 1.78 1.781 1.78 1.781-0.796 1.781-1.78c0-0.983-0.798-1.781-1.781-1.781zM14.719 12.583c-0.983 0-1.781 0.798-1.781 1.781s0.798 1.78 1.781 1.78 1.781-0.796 1.781-1.78c0-0.983-0.798-1.781-1.781-1.781zM20.719 12.583c-0.982 0-1.781 0.798-1.781 1.781s0.799 1.78 1.781 1.78c0.983 0 1.781-0.796 1.781-1.78s-0.798-1.781-1.781-1.781zM8.719 17.583c-0.983 0-1.781 0.798-1.781 1.781s0.798 1.78 1.781 1.78c0.983 0 1.781-0.797 1.781-1.78s-0.798-1.781-1.781-1.781zM14.719 17.583c-0.983 0-1.781 0.798-1.781 1.781s0.798 1.78 1.781 1.78c0.983 0 1.781-0.797 1.781-1.78s-0.798-1.781-1.781-1.781zM20.719 17.583c-0.982 0-1.781 0.798-1.781 1.781s0.799 1.78 1.781 1.78c0.983 0 1.781-0.797 1.781-1.78s-0.798-1.781-1.781-1.781zM8.719 22.583c-0.983 0-1.781 0.798-1.781 1.781s0.798 1.78 1.781 1.78c0.983 0 1.781-0.797 1.781-1.78s-0.798-1.781-1.781-1.781zM14.719 22.583c-0.983 0-1.781 0.798-1.781 1.781s0.798 1.78 1.781 1.78c0.983 0 1.781-0.797 1.781-1.78s-0.798-1.781-1.781-1.781zM20.719 22.583c-0.982 0-1.781 0.798-1.781 1.781s0.799 1.78 1.781 1.78c0.983 0 1.781-0.797 1.781-1.78s-0.798-1.781-1.781-1.781zM22.547 3.463h-15.406c-0.354 0-0.641 0.451-0.641 1.005s0.287 1.007 0.641 1.007h15.406c0.354 0 0.641-0.451 0.641-1.007s-0.288-1.005-0.641-1.005z" fill="#000000"></path>
</svg>
