<?xml version="1.0" encoding="UTF-8" standalone="no"?>
<!-- Created with Inkscape (http://www.inkscape.org/) -->

<svg
   xmlns:dc="http://purl.org/dc/elements/1.1/"
   xmlns:cc="http://creativecommons.org/ns#"
   xmlns:rdf="http://www.w3.org/1999/02/22-rdf-syntax-ns#"
   xmlns:svg="http://www.w3.org/2000/svg"
   xmlns="http://www.w3.org/2000/svg"
   xmlns:inkscape="http://www.inkscape.org/namespaces/inkscape"
   version="1.1"
   width="30"
   height="30"
   viewBox="0 0 30 30"
   id="svg2">
  <metadata
     id="metadata10">
    <rdf:RDF>
      <cc:Work
         rdf:about="">
        <dc:format>image/svg+xml</dc:format>
        <dc:type
           rdf:resource="http://purl.org/dc/dcmitype/StillImage" />
      </cc:Work>
    </rdf:RDF>
  </metadata>
  <defs
     id="defs8" />
  <path
     d="m 8.72,7.583 c -0.984,0 -1.782,0.798 -1.782,1.78 0,0.982 0.798,1.782 1.78,1.782 0.982,0 1.782,-0.796 1.782,-1.78 0,-0.984 -0.798,-1.782 -1.78,-1.782 z m 6,0 c -0.984,0 -1.782,0.798 -1.782,1.78 0,0.982 0.798,1.782 1.78,1.782 0.982,0 1.782,-0.796 1.782,-1.78 0,-0.984 -0.798,-1.782 -1.78,-1.782 z m 6,0 c -0.983,0 -1.782,0.798 -1.782,1.78 0,0.982 0.8,1.782 1.78,1.782 0.984,0 1.782,-0.796 1.782,-1.78 0,-0.984 -0.798,-1.782 -1.78,-1.782 z m -12,5 c -0.984,0 -1.782,0.798 -1.782,1.78 0,0.982 0.798,1.78 1.78,1.78 0.982,0 1.782,-0.795 1.782,-1.78 0,-0.982 -0.798,-1.78 -1.78,-1.78 z m 6,0 c -0.984,0 -1.782,0.798 -1.782,1.78 0,0.982 0.798,1.78 1.78,1.78 0.982,0 1.782,-0.795 1.782,-1.78 0,-0.982 -0.798,-1.78 -1.78,-1.78 z m 6,0 c -0.983,0 -1.782,0.798 -1.782,1.78 0,0.982 0.8,1.78 1.78,1.78 0.984,0 1.782,-0.795 1.782,-1.78 0,-0.985 -0.798,-1.78 -1.78,-1.78 z m -12,5 c -0.984,0 -1.782,0.798 -1.782,1.78 0,0.982 0.798,1.78 1.78,1.78 0.984,0 1.782,-0.796 1.782,-1.78 0,-0.984 -0.798,-1.78 -1.78,-1.78 z m 6,0 c -0.984,0 -1.782,0.798 -1.782,1.78 0,0.982 0.798,1.78 1.78,1.78 0.984,0 1.782,-0.796 1.782,-1.78 0,-0.984 -0.798,-1.78 -1.78,-1.78 z m 6,0 c -0.983,0 -1.782,0.798 -1.782,1.78 0,0.982 0.8,1.78 1.78,1.78 0.984,0 1.782,-0.796 1.782,-1.78 0,-0.984 -0.798,-1.78 -1.78,-1.78 z m -12,5 c -0.984,0 -1.782,0.798 -1.782,1.78 0,0.982 0.798,1.78 1.78,1.78 0.984,0 1.782,-0.796 1.782,-1.78 0,-0.984 -0.798,-1.78 -1.78,-1.78 z m 6,0 c -0.984,0 -1.782,0.798 -1.782,1.78 0,0.982 0.798,1.78 1.78,1.78 0.984,0 1.782,-0.796 1.782,-1.78 0,-0.984 -0.798,-1.78 -1.78,-1.78 z m 6,0 c -0.983,0 -1.782,0.798 -1.782,1.78 0,0.982 0.8,1.78 1.78,1.78 0.984,0 1.782,-0.796 1.782,-1.78 0,-0.984 -0.798,-1.78 -1.78,-1.78 z M 22.547,3.463 H 7.14 c -0.353,0 -0.64,0.45 -0.64,1.005 0,0.555 0.287,1.007 0.64,1.007 h 15.407 c 0.354,0 0.64,-0.45 0.64,-1.007 0,-0.557 -0.287,-1.005 -0.64,-1.005 z"
     inkscape:connector-curvature="0"
     id="path4" />
</svg>
