<?xml version="1.0" encoding="utf-8"?>
<!-- Generator: Adobe Illustrator 18.0.0, SVG Export Plug-In . SVG Version: 6.00 Build 0)  -->
<!DOCTYPE svg PUBLIC "-//W3C//DTD SVG 1.1//EN" "http://www.w3.org/Graphics/SVG/1.1/DTD/svg11.dtd">
<svg version="1.1" id="Layer_1" xmlns="http://www.w3.org/2000/svg" xmlns:xlink="http://www.w3.org/1999/xlink" x="0px" y="0px"
	 viewBox="5 5 30 30" enable-background="new 5 5 30 30" xml:space="preserve">
<g>
	<g>
		<path d="M11,21.5H9.3v6H11V21.5z M11,12.5H9.3v6H11V12.5z M11,30.5H9.3v3.8c0,0.8,0.9,0.9,0.9,0.9H14v-1.6h-3V30.5z M23,4.8h-6
			v1.7h6V4.8z M20.7,21.8c-0.4,0-0.7,0.3-0.7,0.7c0,0.4,0.3,0.7,0.7,0.7c0.4,0,0.7-0.3,0.7-0.7C21.4,22.1,21.1,21.8,20.7,21.8z
			 M9.3,5.7v3.8H11v-3h3V4.8h-3.8C10.2,4.8,9.3,5,9.3,5.7z M20.7,18.1c-0.4,0-0.7,0.3-0.7,0.7c0,0.4,0.3,0.7,0.7,0.7
			c0.4,0,0.7-0.3,0.7-0.7C21.4,18.5,21.1,18.1,20.7,18.1z M17,35.2h6v-1.6h-6V35.2z M29,18.5h1.7v-6H29V18.5z M29.8,4.8L29.8,4.8H26
			v1.7h3v3h1.7V5.7C30.7,5,29.8,4.9,29.8,4.8z M15,23.1h3.9l0.1-0.8h-3c2-2,2.8-2.9,2.8-4.2c0-1-0.8-1.8-2-1.8c-0.8,0-1.5,0.3-2,1
			l0.6,0.5c0.4-0.5,0.8-0.7,1.4-0.7s1.1,0.4,1.1,1.1c0,1.1-0.6,1.7-2.9,4.2V23.1z M29,27.5h1.7v-6H29V27.5z M29,33.5h-3v1.6h3.7
			c0,0,0.9-0.1,0.9-0.9v-3.8H29V33.5z M24.9,19.5c0.7-0.2,1.3-0.7,1.3-1.5c0-0.9-0.7-1.7-2-1.7c-0.7,0-1.3,0.3-1.9,0.8l0.5,0.5
			c0.4-0.4,0.8-0.6,1.4-0.6c0.7,0,1.1,0.4,1.1,1c0,0.8-0.5,1.2-1.2,1.2h-0.3L23.6,20h0.5c0.8,0,1.3,0.3,1.3,1.2
			c0,0.8-0.5,1.3-1.3,1.3c-0.5,0-1-0.2-1.4-0.7l-0.6,0.5c0.5,0.6,1.2,0.9,2,0.9c1.4,0,2.3-0.9,2.3-2C26.4,20.2,25.7,19.6,24.9,19.5z
			"/>
	</g>
</g>
</svg>
