<?xml version="1.0" encoding="utf-8"?>
<!-- Generator: Adobe Illustrator 18.0.0, SVG Export Plug-In . SVG Version: 6.00 Build 0)  -->
<!DOCTYPE svg PUBLIC "-//W3C//DTD SVG 1.1//EN" "http://www.w3.org/Graphics/SVG/1.1/DTD/svg11.dtd">
<svg version="1.1" id="Layer_1" xmlns="http://www.w3.org/2000/svg" xmlns:xlink="http://www.w3.org/1999/xlink" x="0px" y="0px"
	 viewBox="5 5 30 30" enable-background="new 5 5 30 30" xml:space="preserve">
<g>
	<g>
		<path d="M18,23v-7h-0.8L15,17.3l0.4,0.7l1.6-1v6H18z M14,8h4V6.3h-4V8z M19.5,21.6c-0.3,0-0.5,0.3-0.5,0.7c0,0.4,0.2,0.7,0.5,0.7
			s0.5-0.3,0.5-0.7S19.8,21.6,19.5,21.6z M14,32.7h4V31h-4V32.7z M8,14H6.3v4H8V14z M8,21H6.3v4H8V21z M6.3,7.2V11H8V8h3V6.3H7.2
			C6.5,6.3,6.3,7.2,6.3,7.2z M8,28H6.3v3.7c0,0,0.2,0.9,0.9,0.9H11V31H8V28z M24,23v-7h-0.8L21,17.3l0.4,0.7l1.6-1v6H24z M31,18h1.6
			v-4H31V18z M31.8,6.3H28V8h3v3h1.6V7.2C32.6,7.2,32.5,6.3,31.8,6.3z M31,25h1.6v-4H31V25z M31,31h-3v1.7h3.8
			c0.7,0,0.9-0.9,0.9-0.9V28H31V31z M21,32.7h4V31h-4V32.7z M21,8h4V6.3h-4V8z M19.5,18c-0.3,0-0.5,0.3-0.5,0.7
			c0,0.4,0.2,0.7,0.5,0.7s0.5-0.3,0.5-0.7S19.8,18,19.5,18z"/>
	</g>
</g>
</svg>
