<?xml version="1.0" encoding="utf-8"?>
<!-- Generator: Adobe Illustrator 18.0.0, SVG Export Plug-In . SVG Version: 6.00 Build 0)  -->
<!DOCTYPE svg PUBLIC "-//W3C//DTD SVG 1.1//EN" "http://www.w3.org/Graphics/SVG/1.1/DTD/svg11.dtd">
<svg version="1.1" id="Layer_1" xmlns="http://www.w3.org/2000/svg" xmlns:xlink="http://www.w3.org/1999/xlink" x="0px" y="0px"
	 viewBox="5 5 30 30" enable-background="new 5 5 30 30" xml:space="preserve">
<g>
	<g>
		<path d="M12.5,30.7h6V29h-6V30.7z M12.5,11h6V9.3h-6V11z M4.8,10.2V14h1.6v-3h3V9.3H5.7C5,9.3,4.8,10.2,4.8,10.2z M6.5,17H4.8v6
			h1.6L6.5,17L6.5,17z M6.5,26H4.8v3.7c0,0,0.1,0.9,0.9,0.9h3.8V29h-3V26z M21.5,30.7h6V29h-6V30.7z M33.5,23h1.7v-6h-1.7V23z
			 M34.3,9.3h-3.8V11h3v3h1.7v-3.8C35.2,10.2,35,9.3,34.3,9.3z M21.5,11h6V9.3h-6V11z M33.5,29h-3v1.7h3.8c0.7,0,0.9-0.8,0.9-0.9
			l0,0V26h-1.7V29z"/>
	</g>
</g>
<g>
	<g>
		<path d="M16.9,19.8c0.7-0.2,1.3-0.7,1.3-1.5c0-0.9-0.7-1.7-2-1.7c-0.7,0-1.3,0.3-1.9,0.8l0.5,0.5c0.4-0.4,0.8-0.6,1.4-0.6
			c0.7,0,1.1,0.4,1.1,1c0,0.8-0.5,1.2-1.2,1.2h-0.3l-0.1,0.7h0.5c0.8,0,1.3,0.3,1.3,1.2c0,0.8-0.5,1.3-1.3,1.3c-0.5,0-1-0.2-1.4-0.7
			l-0.6,0.5c0.5,0.6,1.2,0.9,2,0.9c1.4,0,2.3-0.9,2.3-2C18.4,20.4,17.8,19.9,16.9,19.8z M20.2,22.1c-0.4,0-0.7,0.3-0.7,0.7
			c0,0.4,0.3,0.7,0.7,0.7c0.4,0,0.7-0.3,0.7-0.7C20.9,22.4,20.6,22.1,20.2,22.1z M20.2,18.4c-0.4,0-0.7,0.3-0.7,0.7
			c0,0.4,0.3,0.7,0.7,0.7c0.4,0,0.7-0.3,0.7-0.7C20.9,18.7,20.6,18.4,20.2,18.4z M22.8,22.6c2-2,2.8-2.9,2.8-4.2c0-1-0.8-1.8-2-1.8
			c-0.8,0-1.5,0.3-2,1l0.6,0.5c0.4-0.5,0.8-0.7,1.4-0.7s1.1,0.4,1.1,1.1c0,1.1-0.6,1.7-2.9,4.2v0.7h3.9l0.1-0.8
			C25.8,22.6,22.8,22.6,22.8,22.6z"/>
	</g>
</g>
</svg>
