<?xml version="1.0" encoding="UTF-8" standalone="no"?>
<!-- Created with Inkscape (http://www.inkscape.org/) -->

<svg
   xmlns:dc="http://purl.org/dc/elements/1.1/"
   xmlns:cc="http://creativecommons.org/ns#"
   xmlns:rdf="http://www.w3.org/1999/02/22-rdf-syntax-ns#"
   xmlns:svg="http://www.w3.org/2000/svg"
   xmlns="http://www.w3.org/2000/svg"
   xmlns:inkscape="http://www.inkscape.org/namespaces/inkscape"
   version="1.1"
   width="30"
   height="30"
   viewBox="0 0 30 30"
   id="svg2">
  <metadata
     id="metadata10">
    <rdf:RDF>
      <cc:Work
         rdf:about="">
        <dc:format>image/svg+xml</dc:format>
        <dc:type
           rdf:resource="http://purl.org/dc/dcmitype/StillImage" />
      </cc:Work>
    </rdf:RDF>
  </metadata>
  <defs
     id="defs8" />
  <path
     d="m 12.955,7.58 v 3.754 h 0.904 V 7.58 h -0.91 z m -1.31,14.158 h 6.78 l -3.387,-4.374 -3.39,4.368 z M 15.84,7.58 h -0.904 v 3.754 H 15.84 V 7.58 z m 3.12,3.754 h 0.908 V 7.58 h -0.91 v 3.754 z m -2,-3.756 v 3.75 h 0.91 V 7.578 H 16.962 z M 15,2.712 c -6.63,0 -12,5.365 -12,11.982 0,3.527 1.54,6.692 3.97,8.885 v -7.35 c 0,-0.3 2.108,-1.44 2.108,-1.75 V 7.37 c 0,-0.93 0.862,-1.75 1.704,-1.75 h 9.516 c 0.9,0 1.704,0.82 1.704,1.75 V 24.403 C 25.032,22.23 27,18.695 27,14.693 27,8.075 21.622,2.713 14.994,2.713 z M 11.862,7.58 h -0.904 v 3.754 h 0.904 V 7.58 z"
     inkscape:connector-curvature="0"
     id="path4" />
</svg>
