<?xml version="1.0" encoding="UTF-8" standalone="no"?>
<!-- Created with Inkscape (http://www.inkscape.org/) -->

<svg
   xmlns:dc="http://purl.org/dc/elements/1.1/"
   xmlns:cc="http://creativecommons.org/ns#"
   xmlns:rdf="http://www.w3.org/1999/02/22-rdf-syntax-ns#"
   xmlns:svg="http://www.w3.org/2000/svg"
   xmlns="http://www.w3.org/2000/svg"
   xmlns:inkscape="http://www.inkscape.org/namespaces/inkscape"
   version="1.1"
   width="30"
   height="30"
   viewBox="0 0 30 30"
   id="svg2">
  <metadata
     id="metadata10">
    <rdf:RDF>
      <cc:Work
         rdf:about="">
        <dc:format>image/svg+xml</dc:format>
        <dc:type
           rdf:resource="http://purl.org/dc/dcmitype/StillImage" />
      </cc:Work>
    </rdf:RDF>
  </metadata>
  <defs
     id="defs8" />
  <path
     d="M 27.948,8.832 H 20.88 v 2.656 c -0.317,0.065 -0.658,-0.01 -0.904,-0.255 l -3.02,-3.02 c -0.393,-0.39 -0.393,-1.023 0,-1.413 l 3.02,-3.02 C 20.222,3.533 20.563,3.46 20.88,3.524 v 2.67 h 7.068 c 0.18,0.872 0.18,1.77 0,2.638 z m -7.465,4.245 c 0.365,0.365 0.868,0.472 1.34,0.376 v -1.07 c 0.6,1.247 0.947,2.64 0.947,4.118 0,5.25 -4.254,9.51 -9.503,9.51 -1.958,0 -3.777,-0.59 -5.288,-1.61 l -4.25,1.63 1.63,-4.25 c -1.01,-1.51 -1.6,-3.32 -1.6,-5.27 C 3.76,11.257 8.02,7 13.27,7 c 0.818,0 1.608,0.115 2.365,0.31 -0.08,0.458 0.03,0.947 0.387,1.302 l 4.466,4.465 z"
     inkscape:connector-curvature="0"
     id="path4" />
</svg>
