<?xml version="1.0" encoding="utf-8"?>
<!-- Generated by IcoMoon.io -->
<!DOCTYPE svg PUBLIC "-//W3C//DTD SVG 1.1//EN" "http://www.w3.org/Graphics/SVG/1.1/DTD/svg11.dtd">
<svg version="1.1" xmlns="http://www.w3.org/2000/svg" xmlns:xlink="http://www.w3.org/1999/xlink" width="30" height="30" viewBox="0 0 30 30">
<g>
	<line stroke-width="1" x1="" y1="" x2="" y2="" stroke="#449FDB" opacity=""></line>
</g>
	<path d="M27.948 8.832h-7.068v2.656c-0.317 0.065-0.658-0.009-0.904-0.255l-3.021-3.021c-0.392-0.389-0.392-1.022 0-1.412l3.021-3.021c0.246-0.246 0.587-0.32 0.904-0.255v2.671h7.068c0.18 0.871 0.18 1.769 0 2.637zM20.483 13.077c0.365 0.365 0.868 0.472 1.339 0.376v-1.069c0.602 1.246 0.948 2.64 0.948 4.117 0 5.25-4.254 9.504-9.503 9.504-1.958 0-3.777-0.594-5.288-1.609l-4.247 1.634 1.633-4.249c-1.011-1.511-1.602-3.325-1.602-5.279 0-5.247 4.256-9.503 9.503-9.503 0.818 0 1.608 0.116 2.365 0.311-0.081 0.458 0.029 0.947 0.385 1.302l4.467 4.465z" fill="#000000"></path>
</svg>
