<?xml version="1.0" encoding="UTF-8" standalone="no"?>
<!-- Created with Inkscape (http://www.inkscape.org/) -->

<svg
   xmlns:dc="http://purl.org/dc/elements/1.1/"
   xmlns:cc="http://creativecommons.org/ns#"
   xmlns:rdf="http://www.w3.org/1999/02/22-rdf-syntax-ns#"
   xmlns:svg="http://www.w3.org/2000/svg"
   xmlns="http://www.w3.org/2000/svg"
   xmlns:inkscape="http://www.inkscape.org/namespaces/inkscape"
   version="1.1"
   width="30"
   height="30"
   viewBox="0 0 30 30"
   id="svg2">
  <metadata
     id="metadata10">
    <rdf:RDF>
      <cc:Work
         rdf:about="">
        <dc:format>image/svg+xml</dc:format>
        <dc:type
           rdf:resource="http://purl.org/dc/dcmitype/StillImage" />
      </cc:Work>
    </rdf:RDF>
  </metadata>
  <defs
     id="defs8" />
  <path
     d="M 24.946,6.998 H 4.958 c -1.11,0 -2.007,0.903 -1.997,1.872 v 11.94 c -0.01,1.25 0.89,2.148 2,2.148 h 19.99 c 1.11,0 2.02,-0.898 2.02,-2.008 V 9.01 C 26.96,7.9 26.06,7 24.95,7 z m -5.02,2.908 h 2.05 L 21.978,12 h -2.062 l 0.01,-2.094 z m 2.048,4.02 -0.01,2.062 h -2.006 v -2.062 h 2.016 z m -5.016,-4.02 h 2.03 L 18.98,12 h -2.05 l 0.028,-2.094 z m 2.03,4.02 v 2.062 h -2.03 v -2.062 h 2.03 z m -5.046,-4.02 h 2.047 L 15.96,12 h -2.046 l 0.028,-2.094 z m 2.02,4.05 v 2.032 l -2.007,-0.03 0.003,-2.03 2.004,0.03 z m -5.004,-4.05 h 2.016 L 12.962,12 h -2.03 l 0.026,-2.094 z m -0.016,4.02 h 2.02 l 0.012,2.062 h -2.03 L 10.942,13.926 z M 9.989,9.906 9.97,12 H 7.94 V 9.907 h 2.05 z m 0,4.02 v 2.062 H 7.93 L 7.92,13.926 h 2.07 z m -5.08,-4.02 h 2.06 L 6.96,12 H 4.9 L 4.91,9.906 z m 0,4.02 h 2.08 v 2.062 H 4.91 v -2.062 z m 4.04,6.032 -4.03,0.056 -0.004,-2.087 4.034,0.03 -0.002,2 z m 0.993,0.056 0.004,-2.087 10.004,0.03 0.01,2.057 H 9.95 z m 15.004,-0.016 -4.004,0.016 -0.01,-2.087 4.02,0.03 -0.003,2.04 z m 0.004,-4.01 -2.004,-0.03 v -2.032 l 2.004,0.03 v 2.032 z M 22.915,12 22.95,9.905 h 2.01 V 12 h -2.05 z"
     inkscape:connector-curvature="0"
     id="path4" />
</svg>
