<?xml version="1.0" encoding="iso-8859-1"?>
<!-- Generator: Adobe Illustrator 16.0.0, SVG Export Plug-In . SVG Version: 6.00 Build 0)  -->
<!DOCTYPE svg PUBLIC "-//W3C//DTD SVG 1.1//EN" "http://www.w3.org/Graphics/SVG/1.1/DTD/svg11.dtd">
<svg version="1.1" id="Layer_1" xmlns="http://www.w3.org/2000/svg" xmlns:xlink="http://www.w3.org/1999/xlink" x="0px" y="0px"
	 width="30px" height="30px" viewBox="0 0 30 30" style="enable-background:new 0 0 30 30;" xml:space="preserve">
<g>
	<g>
		<path d="M17.787,12.729l-2.145,6.129h4.347l-2.122-6.129H17.787z M17.858,7.077c-5.899,0-10.685,4.784-10.685,10.686
			c0,5.898,4.786,10.685,10.685,10.685c5.901,0,10.685-4.786,10.685-10.685C28.543,11.861,23.76,7.077,17.858,7.077z M21.502,23.2
			l-1.054-3.002h-5.262L14.135,23.2h-1.904l4.445-11.968h2.383L23.486,23.2H21.502z M1.954,8.71c0-3.174,2.581-5.757,5.754-5.757
			c2.659,0,4.864,1.828,5.514,4.285c0.285-0.127,0.585-0.214,0.882-0.319C13.318,4.096,10.779,2,7.708,2C4.009,2,1,5.009,1,8.71
			c0,3.327,2.445,6.077,5.63,6.596c0.071-0.318,0.191-0.614,0.287-0.924C4.121,13.992,1.954,11.609,1.954,8.71z M11.133,7.06V6.322
			H8.156V5.145H7.243v1.178H4.149V7.06h1.207c0.296,1.236,0.846,2.267,1.652,3.094c-0.806,0.529-1.768,0.933-2.888,1.206
			c0.213,0.314,0.383,0.582,0.501,0.798c1.314-0.473,2.316-0.953,3.004-1.445c0.238,0.162,0.539,0.31,0.827,0.459
			c0.163-0.229,0.358-0.43,0.534-0.648c-0.238-0.118-0.49-0.229-0.684-0.369C9.086,9.326,9.628,8.296,9.924,7.06H11.133z
			 M7.625,9.623C6.938,8.955,6.468,8.102,6.212,7.06h2.83C8.824,8.12,8.352,8.975,7.625,9.623z"/>
	</g>
</g>
</svg>
