<?xml version="1.0" encoding="UTF-8" standalone="no"?>
<!-- Created with Inkscape (http://www.inkscape.org/) -->

<svg
   xmlns:dc="http://purl.org/dc/elements/1.1/"
   xmlns:cc="http://creativecommons.org/ns#"
   xmlns:rdf="http://www.w3.org/1999/02/22-rdf-syntax-ns#"
   xmlns:svg="http://www.w3.org/2000/svg"
   xmlns="http://www.w3.org/2000/svg"
   xmlns:inkscape="http://www.inkscape.org/namespaces/inkscape"
   version="1.1"
   width="30"
   height="30"
   viewBox="0 0 30 30"
   id="svg2">
  <metadata
     id="metadata10">
    <rdf:RDF>
      <cc:Work
         rdf:about="">
        <dc:format>image/svg+xml</dc:format>
        <dc:type
           rdf:resource="http://purl.org/dc/dcmitype/StillImage" />
      </cc:Work>
    </rdf:RDF>
  </metadata>
  <defs
     id="defs8" />
  <path
     d="m 17.787,12.73 -2.145,6.128 h 4.347 l -2.13,-6.13 h -0.08 z m 0.07,-5.653 c -5.898,0 -10.684,4.784 -10.684,10.686 0,5.898 4.786,10.685 10.685,10.685 5.9,0 10.685,-4.786 10.685,-10.685 0,-5.902 -4.783,-10.686 -10.685,-10.686 z M 21.503,23.2 20.449,20.198 h -5.27 L 14.13,23.2 h -1.9 l 4.446,-11.968 h 2.383 L 23.48,23.2 H 21.5 z M 1.953,8.71 c 0,-3.174 2.58,-5.757 5.755,-5.757 2.66,0 4.864,1.828 5.514,4.285 0.285,-0.127 0.585,-0.214 0.882,-0.32 C 13.318,4.098 10.78,2 7.708,2 4.008,2 1,5.01 1,8.71 1,12.037 3.445,14.787 6.63,15.306 6.7,14.988 6.82,14.692 6.917,14.382 4.121,13.992 1.954,11.609 1.954,8.71 z m 9.18,-1.65 V 6.322 H 8.156 V 5.145 H 7.243 V 6.323 H 4.15 V 7.06 h 1.206 c 0.296,1.236 0.846,2.267 1.652,3.094 -0.806,0.53 -1.768,0.933 -2.888,1.206 0.213,0.314 0.383,0.582 0.5,0.798 1.315,-0.473 2.317,-0.953 3.005,-1.445 0.238,0.162 0.54,0.31 0.827,0.46 0.163,-0.23 0.358,-0.43 0.534,-0.65 C 8.748,10.406 8.496,10.295 8.302,10.155 9.086,9.325 9.628,8.295 9.924,7.06 h 1.21 z M 7.623,9.623 C 6.94,8.955 6.47,8.103 6.213,7.06 h 2.83 C 8.825,8.12 8.353,8.975 7.626,9.623 z"
     inkscape:connector-curvature="0"
     id="path4" />
</svg>
