<?xml version="1.0" encoding="UTF-8" standalone="no"?>
<!-- Created with Inkscape (http://www.inkscape.org/) -->

<svg
   xmlns:dc="http://purl.org/dc/elements/1.1/"
   xmlns:cc="http://creativecommons.org/ns#"
   xmlns:rdf="http://www.w3.org/1999/02/22-rdf-syntax-ns#"
   xmlns:svg="http://www.w3.org/2000/svg"
   xmlns="http://www.w3.org/2000/svg"
   xmlns:inkscape="http://www.inkscape.org/namespaces/inkscape"
   version="1.1"
   width="30"
   height="30"
   viewBox="0 0 30 30"
   id="svg2">
  <metadata
     id="metadata10">
    <rdf:RDF>
      <cc:Work
         rdf:about="">
        <dc:format>image/svg+xml</dc:format>
        <dc:type
           rdf:resource="http://purl.org/dc/dcmitype/StillImage" />
      </cc:Work>
    </rdf:RDF>
  </metadata>
  <defs
     id="defs8" />
  <path
     d="M 14.344,8.444 V 7.42 H 10.212 V 5.787 H 8.944 V 7.423 H 4.65 v 1.022 h 1.675 c 0.41,1.718 1.173,3.148 2.29,4.296 -1.117,0.734 -2.453,1.295 -4.007,1.676 0.3,0.438 0.53,0.804 0.695,1.104 1.826,-0.654 3.217,-1.32 4.172,-2.003 0.45,0.313 1,0.597 1.58,0.876 0.175,-0.34 0.334,-0.694 0.548,-1.01 -0.418,-0.205 -0.853,-0.4 -1.188,-0.644 1.09,-1.148 1.84,-2.58 2.25,-4.297 h 1.68 z m -4.868,3.56 C 8.521,11.074 7.866,9.89 7.513,8.444 h 3.927 c -0.3,1.473 -0.956,2.658 -1.964,3.56 z M 9.41,18.17 c -4.243,0 -7.694,-3.45 -7.694,-7.692 0,-4.24 3.45,-7.693 7.693,-7.693 3.895,0 7.09,2.922 7.593,6.683 0.406,-0.12 0.816,-0.227 1.244,-0.293 -0.637,-4.323 -4.34,-7.664 -8.838,-7.664 -4.946,0 -8.97,4.022 -8.97,8.968 0,4.946 4.023,8.97 8.97,8.97 0.194,0 0.376,-0.048 0.568,-0.06 -0.01,-0.176 -0.053,-0.342 -0.053,-0.518 0,-0.26 0.058,-0.506 0.077,-0.76 -0.198,0.017 -0.39,0.06 -0.593,0.06 z m 10.308,-3.435 -1.762,5.037 h 3.572 l -1.744,-5.037 h -0.066 z m 0.058,-4.648 c -4.85,0 -8.783,3.93 -8.783,8.783 0,4.848 3.934,8.78 8.783,8.78 4.852,0 8.783,-3.933 8.783,-8.78 0,-4.853 -3.932,-8.784 -8.784,-8.784 z M 22.77,23.34 21.906,20.87 h -4.322 l -0.865,2.47 h -1.567 l 3.652,-9.835 h 1.957 l 3.64,9.835 h -1.63 z"
     inkscape:connector-curvature="0"
     id="path4" />
</svg>
