<?xml version="1.0" encoding="utf-8"?>
<!-- Generated by IcoMoon.io -->
<!DOCTYPE svg PUBLIC "-//W3C//DTD SVG 1.1//EN" "http://www.w3.org/Graphics/SVG/1.1/DTD/svg11.dtd">
<svg version="1.1" xmlns="http://www.w3.org/2000/svg" xmlns:xlink="http://www.w3.org/1999/xlink" width="30" height="30" viewBox="0 0 30 30">
<g>
	<line stroke-width="1" x1="" y1="" x2="" y2="" stroke="#449FDB" opacity=""></line>
</g>
	<path d="M24.807 13.967l-5.741 5.74c-1.291 1.291-3.227 1.513-4.76 0.703l-3.358 3.355c-1.587 1.587-4.155 1.587-5.742 0-1.584-1.584-1.584-4.154 0-5.739l5.742-5.742c1.289-1.291 3.227-1.51 4.759-0.7l3.359-3.359c1.586-1.584 4.155-1.584 5.741 0s1.585 4.156 0 5.742zM12.381 13.719l-5.739 5.742c-0.794 0.792-0.794 2.078 0 2.871 0.792 0.792 2.077 0.792 2.869 0l3.282-3.283c-1.024-1.572-0.851-3.701 0.53-5.082l0.811-0.81c-0.618-0.098-1.274 0.085-1.753 0.562zM23.37 9.662c-0.792-0.794-2.076-0.794-2.871 0l-3.28 3.28c0 0.002 0.003 0.004 0.003 0.007l-1.511 1.51c0-0.002 0-0.004-0.002-0.006l-0.949 0.949c-0.014 0.011-0.018 0.026-0.029 0.039l-0.127 0.128 0.018 0.019c-0.445 0.565-0.56 1.302-0.32 1.953l0.951-0.951c0.065-0.064 0.104-0.143 0.159-0.213l0.026 0.027 2.294-2.292c0.36 1.352 0.018 2.853-1.045 3.914l-0.81 0.81c0.619 0.097 1.275-0.087 1.754-0.563l5.739-5.742c0.792-0.792 0.792-2.077 0-2.869z" fill="#000000"></path>
</svg>
