<?xml version="1.0" encoding="UTF-8" standalone="no"?>
<!-- Created with Inkscape (http://www.inkscape.org/) -->

<svg
   xmlns:dc="http://purl.org/dc/elements/1.1/"
   xmlns:cc="http://creativecommons.org/ns#"
   xmlns:rdf="http://www.w3.org/1999/02/22-rdf-syntax-ns#"
   xmlns:svg="http://www.w3.org/2000/svg"
   xmlns="http://www.w3.org/2000/svg"
   xmlns:inkscape="http://www.inkscape.org/namespaces/inkscape"
   version="1.1"
   width="960"
   height="960"
   viewBox="0 0 960 960"
   id="svg2">
  <metadata
     id="metadata10">
    <rdf:RDF>
      <cc:Work
         rdf:about="">
        <dc:format>image/svg+xml</dc:format>
        <dc:type
           rdf:resource="http://purl.org/dc/dcmitype/StillImage" />
      </cc:Work>
    </rdf:RDF>
  </metadata>
  <defs
     id="defs8" />
  <path
     d="m 776.063,402.18 c 0,-163.514 -132.55,-296.063 -296.063,-296.063 -163.513,0 -296.063,132.55 -296.063,296.063 0,65.115 21.282,125.156 56.917,174.03 l -1.145,1.455 240.291,308.22 240.29,-308.25 -1.113,-1.455 c 35.603,-48.844 56.887,-108.885 56.887,-174 z M 480,550.196 c -81.757,0 -148.016,-66.26 -148.016,-148.016 0,-81.756 66.29,-148.016 148.016,-148.016 81.788,0 148.016,66.29 148.016,148.016 0,81.726 -66.228,148.016 -148.016,148.016 z"
     inkscape:connector-curvature="0"
     id="path4" />
</svg>
