<?xml version="1.0" encoding="UTF-8" standalone="no"?>
<!-- Created with Inkscape (http://www.inkscape.org/) -->

<svg
   xmlns:dc="http://purl.org/dc/elements/1.1/"
   xmlns:cc="http://creativecommons.org/ns#"
   xmlns:rdf="http://www.w3.org/1999/02/22-rdf-syntax-ns#"
   xmlns:svg="http://www.w3.org/2000/svg"
   xmlns="http://www.w3.org/2000/svg"
   xmlns:inkscape="http://www.inkscape.org/namespaces/inkscape"
   version="1.1"
   width="30"
   height="30"
   viewBox="0 0 30 30"
   id="svg2">
  <metadata
     id="metadata10">
    <rdf:RDF>
      <cc:Work
         rdf:about="">
        <dc:format>image/svg+xml</dc:format>
        <dc:type
           rdf:resource="http://purl.org/dc/dcmitype/StillImage" />
      </cc:Work>
    </rdf:RDF>
  </metadata>
  <defs
     id="defs8" />
  <path
     d="M 22.686,12.998 H 21.988 V 9.468 L 21.99,9.44 c 0,-3.866 -3.135,-7 -7,-7 -3.865,0 -7,3.133 -7,7 H 7.988 v 3.558 h -0.7 c -0.686,0 -1.242,0.556 -1.242,1.243 v 12.4 c 0,0.69 0.556,1.25 1.243,1.25 h 15.39 c 0.68,0 1.24,-0.556 1.24,-1.242 v -12.4 c 0,-0.685 -0.56,-1.24 -1.24,-1.24 z M 10.49,9.438 c 0.002,-2.484 2.016,-4.498 4.5,-4.498 2.484,0 4.5,2.013 4.5,4.498 h -0.033 v 3.56 H 10.52 v -3.56 h -0.03 z"
     inkscape:connector-curvature="0"
     id="path4" />
</svg>
