<?xml version="1.0" encoding="utf-8"?>
<!-- Generated by IcoMoon.io -->
<!DOCTYPE svg PUBLIC "-//W3C//DTD SVG 1.1//EN" "http://www.w3.org/Graphics/SVG/1.1/DTD/svg11.dtd">
<svg version="1.1" xmlns="http://www.w3.org/2000/svg" xmlns:xlink="http://www.w3.org/1999/xlink" width="30" height="30" viewBox="0 0 30 30">
<g>
	<line stroke-width="1" x1="" y1="" x2="" y2="" stroke="#449FDB" opacity=""></line>
</g>
	<path d="M22.686 12.998h-0.698v-3.53c0-0.009 0.002-0.018 0.002-0.028 0-3.866-3.135-7-7-7s-6.999 3.133-7 6.999h-0.002v3.559h-0.699c-0.687 0-1.243 0.556-1.243 1.243v12.396c0 0.687 0.556 1.242 1.243 1.242h15.396c0.687 0 1.242-0.556 1.242-1.242v-12.396c0.001-0.687-0.555-1.243-1.241-1.243zM10.491 9.438c0.001-2.484 2.015-4.498 4.5-4.498s4.498 2.013 4.499 4.498h-0.033v3.559h-8.937v-3.559h-0.029z" fill="#000000"></path>
</svg>
