<?xml version="1.0" encoding="utf-8"?>
<!-- Generated by IcoMoon.io -->
<!DOCTYPE svg PUBLIC "-//W3C//DTD SVG 1.1//EN" "http://www.w3.org/Graphics/SVG/1.1/DTD/svg11.dtd">
<svg version="1.1" xmlns="http://www.w3.org/2000/svg" xmlns:xlink="http://www.w3.org/1999/xlink" width="30" height="30" viewBox="0 0 30 30">
<g>
	<line stroke-width="1" x1="" y1="" x2="" y2="" stroke="#449FDB" opacity=""></line>
</g>
	<path d="M14.769 15.246c0-0.567 0.014-1.018 0.040-1.35-0.078 0.081-0.175 0.17-0.286 0.268s-0.488 0.406-1.128 0.926l-0.596-0.75 2.164-1.702h0.987v7.361h-1.182v-4.753zM23.643 9.172l-1.738 1.036c1.314 1.566 2.109 3.585 2.109 5.792 0 4.978-4.035 9.015-9.014 9.015s-9.015-4.037-9.015-9.015c0-4.977 4.035-9.013 9.010-9.015v0h0.021v3.026l5.61-3.35c0.216-0.134 0.362-0.379 0.362-0.661s-0.146-0.527-0.363-0.663l-5.61-3.348v2.979l-0.125 0.014c-6.036 0.059-10.912 4.966-10.912 11.018 0 6.087 4.935 11.021 11.021 11.021s11.022-4.935 11.022-11.021c0-2.582-0.892-4.949-2.378-6.828z" fill="#000000"></path>
</svg>
