<?xml version="1.0" encoding="utf-8"?>
<!-- Generated by IcoMoon.io -->
<!DOCTYPE svg PUBLIC "-//W3C//DTD SVG 1.1//EN" "http://www.w3.org/Graphics/SVG/1.1/DTD/svg11.dtd">
<svg version="1.1" xmlns="http://www.w3.org/2000/svg" xmlns:xlink="http://www.w3.org/1999/xlink" width="30" height="30" viewBox="0 0 30 30">
<g>
	<line stroke-width="1" x1="" y1="" x2="" y2="" stroke="#449FDB" opacity=""></line>
</g>
	<path d="M24.136 24.899h-18.28c-1.657 0-2.856-1.342-2.856-2.998v-13.799c0-1.658 1.199-3.003 2.856-3.003h18.279c1.657 0 2.865 1.345 2.865 3.003v13.799c0 1.656-1.208 2.998-2.864 2.998zM15.003 7.802c-3.976 0-7.198 3.222-7.198 7.197 0 3.978 3.223 7.199 7.198 7.199 3.977 0 7.199-3.222 7.199-7.199 0-3.975-3.223-7.197-7.199-7.197zM15.001 20.777c-3.19 0-5.776-2.587-5.776-5.778 0-3.188 2.586-5.773 5.776-5.773 3.188 0 5.773 2.585 5.773 5.773 0 3.191-2.585 5.778-5.773 5.778z" fill="#000000"></path>
</svg>
