<?xml version="1.0" encoding="utf-8"?>
<!-- Generated by IcoMoon.io -->
<!DOCTYPE svg PUBLIC "-//W3C//DTD SVG 1.1//EN" "http://www.w3.org/Graphics/SVG/1.1/DTD/svg11.dtd">
<svg version="1.1" xmlns="http://www.w3.org/2000/svg" xmlns:xlink="http://www.w3.org/1999/xlink" width="30" height="30" viewBox="0 0 30 30">
<g>
	<line stroke-width="1" x1="" y1="" x2="" y2="" stroke="#449FDB" opacity=""></line>
</g>
	<path d="M14.999 30c-8.285 0-14.999-6.717-14.999-15.001s6.714-14.999 14.999-14.999 15.001 6.716 15.001 14.999c0 8.284-6.717 15.001-15.001 15.001zM14.974 1.404c-7.508 0-13.595 6.087-13.595 13.594 0 7.511 6.087 13.599 13.595 13.599s13.596-6.087 13.596-13.598c0-7.507-6.088-13.595-13.596-13.595zM21.926 16.217v0.031l-10.899 6.293v-15.079l10.899 6.293v0.031c0.416 0.255 0.707 0.691 0.707 1.215s-0.291 0.96-0.707 1.216z" fill="#000000"></path>
</svg>
