<?xml version="1.0" encoding="utf-8"?>
<!-- Generated by IcoMoon.io -->
<!DOCTYPE svg PUBLIC "-//W3C//DTD SVG 1.1//EN" "http://www.w3.org/Graphics/SVG/1.1/DTD/svg11.dtd">
<svg version="1.1" xmlns="http://www.w3.org/2000/svg" xmlns:xlink="http://www.w3.org/1999/xlink" width="30" height="30" viewBox="0 0 30 30">
<g>
	<line stroke-width="1" x1="" y1="" x2="" y2="" stroke="#449FDB" opacity=""></line>
</g>
	<path d="M15 26.334c-0.021 0-0.041-0.002-0.062-0.002l1.504-10.454h-3.017l-1.449 10.067c-5.16-1.304-8.976-5.852-8.976-11.278 0-6.443 5.374-11.666 12-11.666s11.999 5.223 11.999 11.666c0 6.444-5.373 11.667-11.999 11.667zM16.899 10.297c-0.354-0.343-0.812-0.516-1.378-0.516-0.55 0-1.002 0.172-1.355 0.516s-0.53 0.76-0.53 1.249c0 0.504 0.177 0.929 0.53 1.272s0.806 0.516 1.355 0.516c0.566 0 1.024-0.172 1.378-0.516s0.531-0.768 0.531-1.272c0.001-0.489-0.176-0.905-0.531-1.249z" fill="#000000"></path>
</svg>
