<?xml version="1.0" encoding="UTF-8" standalone="no"?>
<!-- Created with Inkscape (http://www.inkscape.org/) -->

<svg
   xmlns:dc="http://purl.org/dc/elements/1.1/"
   xmlns:cc="http://creativecommons.org/ns#"
   xmlns:rdf="http://www.w3.org/1999/02/22-rdf-syntax-ns#"
   xmlns:svg="http://www.w3.org/2000/svg"
   xmlns="http://www.w3.org/2000/svg"
   xmlns:inkscape="http://www.inkscape.org/namespaces/inkscape"
   version="1.1"
   width="30"
   height="30"
   viewBox="0 0 30 30"
   id="svg2">
  <metadata
     id="metadata10">
    <rdf:RDF>
      <cc:Work
         rdf:about="">
        <dc:format>image/svg+xml</dc:format>
        <dc:type
           rdf:resource="http://purl.org/dc/dcmitype/StillImage" />
      </cc:Work>
    </rdf:RDF>
  </metadata>
  <defs
     id="defs8" />
  <path
     d="m 19,11.09 c -0.945,-0.947 -2.252,-1.533 -3.695,-1.533 -2.885,0 -5.224,2.34 -5.224,5.223 0,2.885 2.34,5.223 5.23,5.223 2.88,0 5.24,-2.088 5.24,-4.972 L 14.861,15.021 19,11.09 z M 19.71,4.127 H 7.58 C 6.706,4.127 6,4.88 6,5.812 v 18.536 c 0,0.93 0.707,1.685 1.58,1.685 h 14.735 c 0.932,0 1.686,-0.755 1.686,-1.685 V 8.284 L 19.711,4.127 z M 15.31,21.2 c -3.537,0 -6.405,-2.874 -6.405,-6.42 0,-3.546 2.868,-6.422 6.406,-6.422 3.538,0 6.41,2.875 6.41,6.42 0,3.545 -2.87,6.422 -6.41,6.422 z"
     inkscape:connector-curvature="0"
     id="path4" />
</svg>
