<?xml version="1.0" encoding="utf-8"?>
<!-- Generated by IcoMoon.io -->
<!DOCTYPE svg PUBLIC "-//W3C//DTD SVG 1.1//EN" "http://www.w3.org/Graphics/SVG/1.1/DTD/svg11.dtd">
<svg version="1.1" xmlns="http://www.w3.org/2000/svg" xmlns:xlink="http://www.w3.org/1999/xlink" width="30" height="30" viewBox="0 0 30 30">
<g>
	<line stroke-width="1" x1="" y1="" x2="" y2="" stroke="#449FDB" opacity=""></line>
</g>
	<path d="M10.993 9h8.007c0.415 0 0.758-0.725 0.758-1.554s-0.343-1.446-0.758-1.446h-8.007c-0.415 0-0.744 0.617-0.744 1.446s0.329 1.554 0.744 1.554zM19 14h-8.007c-0.415 0-0.744 0.625-0.744 1.454s0.336 1.501 0.751 1.501h8.007c0.415 0 0.751-0.672 0.751-1.501s-0.343-1.454-0.758-1.454zM19 22h-8.007c-0.415 0-0.744 0.633-0.744 1.462s0.329 1.538 0.744 1.538h8.007c0.415 0 0.758-0.709 0.758-1.538s-0.343-1.462-0.758-1.462z" fill="#000000"></path>
</svg>
