<?xml version="1.0" encoding="utf-8"?>
<!-- Generated by IcoMoon.io -->
<!DOCTYPE svg PUBLIC "-//W3C//DTD SVG 1.1//EN" "http://www.w3.org/Graphics/SVG/1.1/DTD/svg11.dtd">
<svg version="1.1" xmlns="http://www.w3.org/2000/svg" xmlns:xlink="http://www.w3.org/1999/xlink" width="30" height="30" viewBox="0 0 30 30">
<g>
	<line stroke-width="1" x1="" y1="" x2="" y2="" stroke="#449FDB" opacity=""></line>
</g>
	<path d="M13.42 29.75h0.007v0.055h-0.007v-0.055z" fill="#000000"></path>
	<path d="M16.744 29.769v-0.052c-0.582 0.069-1.171 0.115-1.772 0.115-0.521 0-1.036-0.028-1.544-0.080v0.053c0.505 0.052 1.017 0.080 1.536 0.080 0.603 0 1.195-0.047 1.78-0.116z" fill="#000000"></path>
	<path d="M10.9 19.926v-12.381c0-2.311 1.874-4.185 4.185-4.185 0.288 0 0.568 0.029 0.839 0.085-0.274-0.057-0.558-0.087-0.848-0.087-2.31 0-4.182 1.873-4.182 4.182v12.373c0 0.582 0.12 1.135 0.334 1.639-0.21-0.499-0.328-1.049-0.328-1.626z" fill="#000000"></path>
	<path d="M15.085 25.62c3.153 0 5.709-2.556 5.709-5.709 0-0.001 0-0.001 0-0.002v0-7.333c-0.004-0.002-0.008-0.005-0.012-0.007v7.331c0 3.152-2.555 5.707-5.706 5.707-2.36 0-4.386-1.434-5.254-3.478 0.866 2.052 2.896 3.491 5.263 3.491z" fill="#000000"></path>
	<path d="M21.359 12.919c0.038 0.025 0.079 0.046 0.117 0.071-0.038-0.024-0.079-0.046-0.117-0.071z" fill="#000000"></path>
	<path d="M8.020 13.467c0.43-0.324 0.877-0.625 1.35-0.888v-0.010c-0.475 0.264-0.923 0.566-1.355 0.891v6.442c0 0.835 0.146 1.634 0.413 2.376-0.264-0.738-0.408-1.534-0.408-2.364v-6.447z" fill="#000000"></path>
	<path d="M13.42 26.761h0.008v2.99h-0.008v-2.99z" fill="#000000"></path>
	<path d="M22.15 19.913v-6.446c-0.22-0.166-0.444-0.325-0.674-0.476 0.226 0.149 0.445 0.306 0.661 0.468v6.442c0 3.322-2.303 6.089-5.394 6.842v2.974c0.004-0.001 0.007-0.001 0.010-0.002v-2.956c3.094-0.753 5.397-3.522 5.397-6.846z" fill="#000000"></path>
	<path d="M9.37 19.898v0c0 0.792 0.161 1.546 0.452 2.23-0.288-0.682-0.447-1.431-0.447-2.218 0-0.001 0-0.001 0-0.002v0-7.333c-0.002 0.001-0.003 0.002-0.005 0.003v7.32z" fill="#000000"></path>
	<path d="M20.794 12.576v0c0.193 0.107 0.38 0.225 0.565 0.344-0.185-0.12-0.372-0.237-0.565-0.344z" fill="#000000"></path>
	<path d="M8.427 22.277c0.793 2.219 2.671 3.919 4.993 4.482v-0.013c-2.319-0.559-4.196-2.255-4.993-4.469z" fill="#000000"></path>
	<path d="M19.258 7.541v12.373c0 2.31-1.872 4.182-4.182 4.182-1.728 0-3.209-1.049-3.847-2.543 0.635 1.502 2.122 2.557 3.856 2.557 2.311 0 4.184-1.873 4.184-4.184v-12.381c0-2.023-1.436-3.711-3.344-4.1 1.902 0.393 3.333 2.077 3.333 4.096z" fill="#000000"></path>
	<path d="M10.9 7.545v12.38c0 0.577 0.117 1.127 0.329 1.627 0.638 1.494 2.12 2.543 3.847 2.543 2.31 0 4.182-1.872 4.182-4.182v-12.372c0-2.019-1.431-3.703-3.333-4.095-0.271-0.056-0.552-0.085-0.839-0.085-2.312 0-4.186 1.873-4.186 4.184z" fill="#000000"></path>
	<path d="M22.138 19.901v-6.442c-0.216-0.163-0.436-0.319-0.661-0.468-0.038-0.025-0.079-0.046-0.117-0.071-0.186-0.119-0.372-0.236-0.565-0.344v7.333c0 0.001 0 0.001 0 0.002 0 3.153-2.556 5.709-5.709 5.709-2.367 0-4.397-1.439-5.263-3.491-0.292-0.685-0.453-1.439-0.453-2.23v-7.321c-0.473 0.263-0.92 0.564-1.35 0.888v6.446c0 0.83 0.144 1.626 0.408 2.364 0.796 2.214 2.673 3.909 4.993 4.47v0.013c0.002 0.001 0.005 0.002 0.007 0.002v2.99c0.508 0.052 1.022 0.080 1.544 0.080 0.601 0 1.19-0.046 1.772-0.115v-2.974c3.091-0.752 5.394-3.518 5.394-6.841z" fill="#000000"></path>
</svg>
