<?xml version="1.0" encoding="utf-8"?>
<!-- Generated by IcoMoon.io -->
<!DOCTYPE svg PUBLIC "-//W3C//DTD SVG 1.1//EN" "http://www.w3.org/Graphics/SVG/1.1/DTD/svg11.dtd">
<svg version="1.1" xmlns="http://www.w3.org/2000/svg" xmlns:xlink="http://www.w3.org/1999/xlink" width="30" height="30" viewBox="0 0 30 30">
<g>
	<line stroke-width="1" x1="" y1="" x2="" y2="" stroke="#449FDB" opacity=""></line>
</g>
	<path d="M18.001 24h-9.001c-0.030 0-0.061-0.004-0.091-0.004-0.575-0.606-1.082-1.276-1.516-1.997h10.608c3.311 0 5.999-2.685 5.999-5.999 0-3.312-2.688-6-5.999-6h-5.252c-0.092 1.305-0.354 2.5-0.752 3.482l-3.652-3.65c-0.452-0.454-0.452-1.188 0-1.641l3.649-3.647c0.396 0.976 0.66 2.162 0.754 3.458h5.254c4.417 0 7.998 3.58 7.998 7.998-0.001 4.42-3.582 8-7.999 8z" fill="#000000"></path>
</svg>
