<?xml version="1.0" encoding="UTF-8" standalone="no"?>
<!-- Created with Inkscape (http://www.inkscape.org/) -->

<svg
   xmlns:dc="http://purl.org/dc/elements/1.1/"
   xmlns:cc="http://creativecommons.org/ns#"
   xmlns:rdf="http://www.w3.org/1999/02/22-rdf-syntax-ns#"
   xmlns:svg="http://www.w3.org/2000/svg"
   xmlns="http://www.w3.org/2000/svg"
   xmlns:inkscape="http://www.inkscape.org/namespaces/inkscape"
   version="1.1"
   width="32"
   height="32"
   viewBox="0 0 32 32"
   id="svg2">
  <metadata
     id="metadata10">
    <rdf:RDF>
      <cc:Work
         rdf:about="">
        <dc:format>image/svg+xml</dc:format>
        <dc:type
           rdf:resource="http://purl.org/dc/dcmitype/StillImage" />
      </cc:Work>
    </rdf:RDF>
  </metadata>
  <defs
     id="defs8" />
  <path
     d="m 7.467,14.062 c -1.07,0 -1.938,0.868 -1.938,1.94 0,1.07 0.86,1.937 1.93,1.937 C 8.529,17.939 9.4,17.07 9.4,16 9.4,14.93 8.534,14.06 7.463,14.06 z m 8.524,0 c -1.07,0 -1.93,0.868 -1.93,1.94 0,1.07 0.87,1.937 1.94,1.937 1.07,0 1.94,-0.87 1.94,-1.94 0,-1.07 -0.87,-1.94 -1.94,-1.94 z m 8.55,0 c -1.07,0 -1.94,0.868 -1.94,1.94 0,1.07 0.87,1.937 1.94,1.937 1.07,0 1.94,-0.87 1.94,-1.94 0,-1.07 -0.866,-1.94 -1.936,-1.94 z"
     inkscape:connector-curvature="0"
     id="path4" />
</svg>
