<?xml version="1.0" encoding="utf-8"?>
<!-- Generated by IcoMoon.io -->
<!DOCTYPE svg PUBLIC "-//W3C//DTD SVG 1.1//EN" "http://www.w3.org/Graphics/SVG/1.1/DTD/svg11.dtd">
<svg version="1.1" xmlns="http://www.w3.org/2000/svg" xmlns:xlink="http://www.w3.org/1999/xlink" width="30" height="30" viewBox="0 0 30 30">
<g>
	<line stroke-width="1" x1="" y1="" x2="" y2="" stroke="#449FDB" opacity=""></line>
</g>
	<path d="M17.705 25.514c-2.799 0.721-5.622 0.273-7.964-1.027l3.288-7.51-0.006-0.005-7.509 3.287c-0.436-0.79-0.792-1.636-1.027-2.551-1.496-5.805 1.997-11.726 7.805-13.221 2.801-0.722 5.624-0.273 7.967 1.027l-3.289 7.51 0.008 0.004 7.506-3.288c0.438 0.79 0.793 1.638 1.027 2.554 1.499 5.806-1.997 11.725-7.806 13.22zM15 12.625c-1.311 0-2.374 1.063-2.374 2.375s1.063 2.374 2.374 2.374c1.311 0 2.375-1.062 2.375-2.374s-1.064-2.375-2.375-2.375z" fill="#000000"></path>
</svg>
