<?xml version="1.0" encoding="utf-8"?>
<!-- Generated by IcoMoon.io -->
<!DOCTYPE svg PUBLIC "-//W3C//DTD SVG 1.1//EN" "http://www.w3.org/Graphics/SVG/1.1/DTD/svg11.dtd">
<svg version="1.1" xmlns="http://www.w3.org/2000/svg" xmlns:xlink="http://www.w3.org/1999/xlink" width="30" height="30" viewBox="0 0 30 30">
<g>
	<line stroke-width="1" x1="" y1="" x2="" y2="" stroke="#449FDB" opacity=""></line>
</g>
	<path d="M25.998 6.187c-1.064-1.976-3.532-2.713-5.51-1.647-1.113 0.601-1.815 1.651-2.041 2.804l-15.369 8.294c0.030 0.134 0.081 0.265 0.117 0.397-0.621 0.707-0.777 1.748-0.305 2.624 0.474 0.876 1.429 1.317 2.361 1.188 0.090 0.101 0.171 0.215 0.266 0.312l8.409-4.538v9.354c0.334 0.118 0.674 0.181 1.021 0.181s0.688-0.062 1.021-0.181l-0.001-10.455 4.918-2.654c1.087 0.444 2.352 0.433 3.465-0.168 1.977-1.068 2.716-3.535 1.648-5.511zM13.782 13.603c-0.146-0.189-0.278-0.392-0.396-0.609-0.116-0.216-0.214-0.438-0.291-0.665l3.019-1.629c0.146 0.189 0.279 0.392 0.396 0.609 0.116 0.216 0.214 0.438 0.292 0.665l-3.020 1.629z" fill="#000000"></path>
</svg>
