<?xml version="1.0" encoding="utf-8"?>
<!-- Generated by IcoMoon.io -->
<!DOCTYPE svg PUBLIC "-//W3C//DTD SVG 1.1//EN" "http://www.w3.org/Graphics/SVG/1.1/DTD/svg11.dtd">
<svg version="1.1" xmlns="http://www.w3.org/2000/svg" xmlns:xlink="http://www.w3.org/1999/xlink" width="30" height="30" viewBox="0 0 30 30">
<g>
	<line stroke-width="1" x1="" y1="" x2="" y2="" stroke="#449FDB" opacity=""></line>
</g>
	<path d="M25.686 4.217l-19.040 19.039c-0.649-0.427-1.203-0.981-1.629-1.629l3.88-3.881c-0.002-0.041-0.007-0.085-0.007-0.127v-5.926c0.473-0.357 0.973-0.678 1.503-0.954v5.511l1.315-1.317v-8.302c0-2.030 1.648-3.676 3.679-3.676s3.675 1.646 3.675 3.676v0.949l4.994-4.992c0.648 0.426 1.202 0.981 1.63 1.629zM11.979 18.876l7.083-7.083v5.717c0 2.031-1.645 3.676-3.675 3.676-1.546 0-2.864-0.957-3.408-2.31zM15.388 22.611c2.757 0 4.994-2.235 4.994-4.994 0 0-0.002 0-0.002-0.002h0.002v-6.876c0.526 0.276 1.026 0.597 1.5 0.954v5.926c0 3.189-2.303 5.838-5.336 6.387v2.994h2.454v1h-7v-1h2.238v-2.992c-1.856-0.333-3.437-1.453-4.388-3l1.113-1.117c0.83 1.609 2.49 2.72 4.425 2.72z" fill="#000000"></path>
</svg>
