<?xml version="1.0" encoding="UTF-8" standalone="no"?>
<!-- Created with Inkscape (http://www.inkscape.org/) -->

<svg
   xmlns:dc="http://purl.org/dc/elements/1.1/"
   xmlns:cc="http://creativecommons.org/ns#"
   xmlns:rdf="http://www.w3.org/1999/02/22-rdf-syntax-ns#"
   xmlns:svg="http://www.w3.org/2000/svg"
   xmlns="http://www.w3.org/2000/svg"
   xmlns:inkscape="http://www.inkscape.org/namespaces/inkscape"
   version="1.1"
   width="30"
   height="30"
   viewBox="0 0 30 30"
   id="svg2">
  <metadata
     id="metadata10">
    <rdf:RDF>
      <cc:Work
         rdf:about="">
        <dc:format>image/svg+xml</dc:format>
        <dc:type
           rdf:resource="http://purl.org/dc/dcmitype/StillImage" />
      </cc:Work>
    </rdf:RDF>
  </metadata>
  <defs
     id="defs8" />
  <path
     d="m 26,16.5 c -0.2,-0.2 -0.2,-0.6 0,-0.9 l 2.9,-2.9 C 28.7,11.9 28.4,11.1 28,10.4 l -4,4.1 -4.1,-4.1 c -0.4,0.7 -0.7,1.4 -0.9,2.3 l 2.9,2.9 c 0.2,0.2 0.2,0.6 0,0.9 l -3,3 c 0.2,0.8 0.5,1.6 0.9,2.3 l 4.1,-4.1 4.1,4.1 c 0.4,-0.7 0.7,-1.4 0.9,-2.3 l -2.9,-3 z m -11.4,11 h -0.2 0.2 z m 0,-25.1 c -1.1,0 -2.1,1 -2.8,1.6 L 7,8.9 H 3.9 C 2.6,8.9 1.5,10 1.5,11.3 v 7.2 c 0,1.3 1.1,2.6 2.4,2.6 H 7 l 4.9,4.6 c 0.6,0.6 1.6,1.8 2.6,1.9 0.4,-0.1 1.6,-0.3 1.6,-1.1 V 3.6 C 16,3.1 15.6,2.4 14.6,2.4 z m -1.1,21.3 c -0.1,0.4 -0.5,0.2 -0.7,0 L 8,18.8 C 7.8,18.6 7.6,18.4 7.4,18.4 H 4.5 c -0.3,0 -0.6,-0.3 -0.6,-0.6 v -5.6 c 0,-0.3 0.3,-0.6 0.6,-0.6 h 2.9 c 0.2,0 0.5,-0.1 0.6,-0.3 L 12.9,6.4 C 13.1,6.2 13.4,6 13.6,6.5 v 17.2 z"
     inkscape:connector-curvature="0"
     id="path4" />
</svg>
