<?xml version="1.0" encoding="UTF-8" standalone="no"?>
<!-- Created with Inkscape (http://www.inkscape.org/) -->

<svg
   xmlns:dc="http://purl.org/dc/elements/1.1/"
   xmlns:cc="http://creativecommons.org/ns#"
   xmlns:rdf="http://www.w3.org/1999/02/22-rdf-syntax-ns#"
   xmlns:svg="http://www.w3.org/2000/svg"
   xmlns="http://www.w3.org/2000/svg"
   xmlns:inkscape="http://www.inkscape.org/namespaces/inkscape"
   version="1.1"
   width="30"
   height="30"
   viewBox="0 0 30 30"
   id="svg2">
  <metadata
     id="metadata10">
    <rdf:RDF>
      <cc:Work
         rdf:about="">
        <dc:format>image/svg+xml</dc:format>
        <dc:type
           rdf:resource="http://purl.org/dc/dcmitype/StillImage" />
      </cc:Work>
    </rdf:RDF>
  </metadata>
  <defs
     id="defs8" />
  <path
     d="m 22.705,5.802 -1.768,1.413 v 15.94 c 0.816,0.165 1.657,0.165 2.475,-0.003 V 6.142 c -0.23,-0.12 -0.47,-0.23 -0.707,-0.34 z m -5.787,4.627 v 12.724 c 0.816,0.168 1.658,0.166 2.476,0 V 8.66 C 19.321,8.646 19.247,8.64 19.172,8.627 l -2.254,1.802 z M 4.844,20.084 v 3.07 c 0.816,0.165 1.658,0.165 2.475,-0.003 v -4.24 c -0.29,-0.06 -0.582,-0.09 -0.876,-0.105 l -1.6,1.278 z m 4.074,-3.26 v 6.33 c 0.816,0.165 1.658,0.165 2.475,-0.003 v -7.657 c -0.228,-0.046 -0.458,-0.077 -0.688,-0.097 l -1.787,1.428 z m 3.99,-3.19 v 9.52 c 0.817,0.166 1.658,0.166 2.475,-0.002 V 12.078 c -0.146,-0.03 -0.293,-0.048 -0.44,-0.067 l -2.034,1.626 z"
     inkscape:connector-curvature="0"
     id="path4" />
</svg>
