<?xml version="1.0" encoding="UTF-8" standalone="no"?>
<!-- Created with Inkscape (http://www.inkscape.org/) -->

<svg
   xmlns:dc="http://purl.org/dc/elements/1.1/"
   xmlns:cc="http://creativecommons.org/ns#"
   xmlns:rdf="http://www.w3.org/1999/02/22-rdf-syntax-ns#"
   xmlns:svg="http://www.w3.org/2000/svg"
   xmlns="http://www.w3.org/2000/svg"
   xmlns:inkscape="http://www.inkscape.org/namespaces/inkscape"
   version="1.1"
   width="30"
   height="30"
   viewBox="0 0 30 30"
   id="svg2">
  <metadata
     id="metadata10">
    <rdf:RDF>
      <cc:Work
         rdf:about="">
        <dc:format>image/svg+xml</dc:format>
        <dc:type
           rdf:resource="http://purl.org/dc/dcmitype/StillImage" />
      </cc:Work>
    </rdf:RDF>
  </metadata>
  <defs
     id="defs8" />
  <path
     d="M 20.222,4.223 V 21.9 l -8.336,-8.545 v 3.656 l 7.88,8.08 h 0.013 c 0.31,0.29 0.73,0.47 1.18,0.47 h 0.06 c 0.96,-0.02 1.74,-0.8 1.74,-1.76 V 8.94 c 0,-3.04 -2.55,-4.71 -2.55,-4.71 z m -1.768,8.714 -8.02,-8.244 -0.013,-0.004 c -0.31,-0.29 -0.72,-0.47 -1.18,-0.47 h -0.07 c -0.95,0.01 -1.95,0.94 -1.95,1.91 v 14.86 c 0,3.032 2.51,4.72 2.51,4.72 V 8.043 l 8.73,8.545 v -3.65 z"
     inkscape:connector-curvature="0"
     id="path4" />
</svg>
