<?xml version="1.0" encoding="utf-8"?>
<!-- Generated by IcoMoon.io -->
<!DOCTYPE svg PUBLIC "-//W3C//DTD SVG 1.1//EN" "http://www.w3.org/Graphics/SVG/1.1/DTD/svg11.dtd">
<svg version="1.1" xmlns="http://www.w3.org/2000/svg" xmlns:xlink="http://www.w3.org/1999/xlink" width="30" height="30" viewBox="0 0 30 30">
<g>
	<line stroke-width="1" x1="" y1="" x2="" y2="" stroke="#449FDB" opacity=""></line>
</g>
	<path d="M20.222 4.223v17.678l-8.336-8.546v3.656l7.881 8.072 0.012 0.002c0.312 0.291 0.73 0.467 1.186 0.467h0.062c0.961-0.018 1.74-0.799 1.74-1.76 0 0 0-13.179 0-14.858-0.002-3.035-2.545-4.711-2.545-4.711zM18.454 12.937l-8.021-8.244-0.012-0.004c-0.311-0.287-0.727-0.466-1.184-0.466h-0.068c0 0 0 0 0 0.004-0.953 0.013-1.95 0.942-1.95 1.909 0 0 0 13.179 0 14.856 0 3.037 2.51 4.726 2.51 4.726v-17.676l8.727 8.545v-3.65h-0.002z" fill="#000000"></path>
</svg>
