<?xml version="1.0" encoding="utf-8"?>
<!-- Generator: Adobe Illustrator 17.1.0, SVG Export Plug-In . SVG Version: 6.00 Build 0)  -->
<!DOCTYPE svg PUBLIC "-//W3C//DTD SVG 1.1//EN" "http://www.w3.org/Graphics/SVG/1.1/DTD/svg11.dtd">
<svg version="1.1" id="Layer_1" xmlns="http://www.w3.org/2000/svg" xmlns:xlink="http://www.w3.org/1999/xlink" x="0px" y="0px"
	 viewBox="0 0 30 30" enable-background="new 0 0 30 30" xml:space="preserve">
<g>
	<g>
		<path fill-rule="evenodd" clip-rule="evenodd" d="M18.8,13L9.7,3.7l0,0C9.4,3.4,8.9,3.2,8.4,3.2H8.3c0,0,0,0,0,0c-1.1,0-2,0.9-2,2
			c0,0,0,14.9,0,16.8c0,3.4,2.9,5.3,2.9,5.3v-20l9.6,9.8V13z M21,3.2v20l-9.6-9.8v4.1l9.1,9.3l0,0c0.4,0.3,0.8,0.5,1.3,0.5h0.1
			c1.1,0,2-0.9,2-2c0,0,0-14.9,0-16.8C23.8,5.1,21,3.2,21,3.2z"/>
	</g>
</g>
</svg>
