<?xml version="1.0" encoding="utf-8"?>
<!-- Generator: Adobe Illustrator 17.1.0, SVG Export Plug-In . SVG Version: 6.00 Build 0)  -->
<!DOCTYPE svg PUBLIC "-//W3C//DTD SVG 1.1//EN" "http://www.w3.org/Graphics/SVG/1.1/DTD/svg11.dtd">
<svg version="1.1" id="Layer_1" xmlns="http://www.w3.org/2000/svg" xmlns:xlink="http://www.w3.org/1999/xlink" x="0px" y="0px"
	 viewBox="0 0 30 30" enable-background="new 0 0 30 30" xml:space="preserve">
<g>
	<g>
		<path fill-rule="evenodd" clip-rule="evenodd" d="M26,20.9c-1.1,0-2,0.9-2,2c0,1.1,0.9,2,2,2c1.1,0,2-0.9,2-2
			C28,21.9,27.1,20.9,26,20.9z M27.4,18.3l0.4-10.7h-3.4l0.4,10.7H27.4z M3.9,1C2.8,1,2,1.9,2,3v23.9c0,1.1,0.9,2,1.9,2h14
			c1.1,0,2-0.9,2-2V5.8L15.1,1H3.9z M6,27H5.5c-0.9,0-1.6-0.7-1.6-1.6V14.6c0-0.9,0.7-1.6,1.6-1.6H6V27z M10,19.1h-2V21h2v6H7.1V13
			H10V19.1z M14,27h-2.9v-6H14V27z M14,19.1h-2.9V13H14V19.1z M17.9,14.6v10.8c0,0.9-0.7,1.6-1.6,1.6h-1.3V13h1.3
			C17.2,13,17.9,13.7,17.9,14.6z"/>
	</g>
</g>
</svg>
