<?xml version="1.0" encoding="utf-8"?>
<!-- Generated by IcoMoon.io -->
<!DOCTYPE svg PUBLIC "-//W3C//DTD SVG 1.1//EN" "http://www.w3.org/Graphics/SVG/1.1/DTD/svg11.dtd">
<svg version="1.1" xmlns="http://www.w3.org/2000/svg" xmlns:xlink="http://www.w3.org/1999/xlink" width="30" height="30" viewBox="0 0 30 30">
<g>
	<line stroke-width="1" x1="" y1="" x2="" y2="" stroke="#449FDB" opacity=""></line>
</g>
	<path d="M14.972 0.15c-8.185 0-14.821 6.645-14.821 14.841s6.636 14.841 14.821 14.841c8.186 0 14.82-6.645 14.82-14.841s-6.635-14.841-14.82-14.841zM19.877 18.659c0.818 0.808 0.818 2.119 0 2.927l-5.757 6.22v-10.232l-4.735 4.682c-0.036 0.035-0.077 0.062-0.115 0.095h-0.043v0.034c-0.043 0.035-0.084 0.075-0.129 0.106-0.258-0.718-0.49-1.472-0.694-2.259l5.282-5.222-5.289-5.228c0.204-0.789 0.435-1.545 0.693-2.263 0.047 0.032 0.090 0.074 0.136 0.111v0.030h0.036c0.040 0.034 0.083 0.061 0.122 0.099l4.735 4.682v-10.233l5.757 6.219c0.818 0.808 0.818 2.12 0 2.928l-3.32 3.651 3.321 3.653zM18.204 9.401c-0.006-0.005-0.012-0.009-0.018-0.014l-1.945-2.029v5.074l1.991-2.074-0.003-0.003c0.247-0.273 0.241-0.692-0.025-0.954zM16.241 22.663l1.991-2.075-0.003-0.003c0.246-0.272 0.24-0.69-0.025-0.952-0.006-0.006-0.012-0.009-0.018-0.015l-1.945-2.029v5.074z" fill="#000000"></path>
</svg>
