<?xml version="1.0" encoding="UTF-8" standalone="no"?>
<!-- Created with Inkscape (http://www.inkscape.org/) -->

<svg
   xmlns:dc="http://purl.org/dc/elements/1.1/"
   xmlns:cc="http://creativecommons.org/ns#"
   xmlns:rdf="http://www.w3.org/1999/02/22-rdf-syntax-ns#"
   xmlns:svg="http://www.w3.org/2000/svg"
   xmlns="http://www.w3.org/2000/svg"
   xmlns:inkscape="http://www.inkscape.org/namespaces/inkscape"
   version="1.1"
   width="30"
   height="30"
   viewBox="0 0 30 30"
   id="svg2">
  <metadata
     id="metadata10">
    <rdf:RDF>
      <cc:Work
         rdf:about="">
        <dc:format>image/svg+xml</dc:format>
        <dc:type
           rdf:resource="http://purl.org/dc/dcmitype/StillImage" />
      </cc:Work>
    </rdf:RDF>
  </metadata>
  <defs
     id="defs8" />
  <path
     d="M 15.047,4.083 C 9.25,4.083 4.55,8.783 4.55,14.58 c 0,5.797 4.7,10.497 10.497,10.497 5.798,0 10.498,-4.7 10.498,-10.497 0,-5.797 -4.7,-10.497 -10.498,-10.497 z m 5.533,15.54 H 9.65 C 9.547,19.13 9.522,18.933 9.624,18.437 h 10.93 c 0.102,0.495 0.128,0.693 0.026,1.187 z m 0,-4.058 H 9.65 c -0.103,-0.494 -0.103,-0.698 0,-1.19 h 10.93 c 0.102,0.494 0.102,0.696 0,1.19 z m 0,-3.914 H 9.65 c -0.103,-0.493 -0.103,-0.803 0,-1.296 h 10.93 c 0.102,0.494 0.102,0.804 0,1.297 z"
     inkscape:connector-curvature="0"
     id="path4" />
</svg>
