<?xml version="1.0" encoding="utf-8"?>
<!-- Generated by IcoMoon.io -->
<!DOCTYPE svg PUBLIC "-//W3C//DTD SVG 1.1//EN" "http://www.w3.org/Graphics/SVG/1.1/DTD/svg11.dtd">
<svg version="1.1" xmlns="http://www.w3.org/2000/svg" xmlns:xlink="http://www.w3.org/1999/xlink" width="30" height="30" viewBox="0 0 30 30">
<g>
	<line stroke-width="1" x1="" y1="" x2="" y2="" stroke="#449FDB" opacity=""></line>
</g>
	<path d="M15.182 14.957l6.218-6.211c-1.589-1.596-3.787-2.584-6.216-2.584-4.85 0-8.78 3.937-8.78 8.793s3.931 8.793 8.78 8.793c4.848 0 8.778-3.935 8.78-8.79h-8.782zM14.972 0.15c-8.185 0-14.821 6.645-14.821 14.841s6.636 14.841 14.821 14.841c8.186 0 14.82-6.645 14.82-14.841s-6.635-14.841-14.82-14.841zM15.183 25.937c-6.057 0-10.967-4.917-10.967-10.982s4.91-10.983 10.967-10.983c6.056 0 10.966 4.917 10.966 10.982s-4.91 10.983-10.966 10.983z" fill="#000000"></path>
</svg>
