<?xml version="1.0" encoding="utf-8"?>
<!-- Generated by IcoMoon.io -->
<!DOCTYPE svg PUBLIC "-//W3C//DTD SVG 1.1//EN" "http://www.w3.org/Graphics/SVG/1.1/DTD/svg11.dtd">
<svg version="1.1" xmlns="http://www.w3.org/2000/svg" xmlns:xlink="http://www.w3.org/1999/xlink" width="30" height="30" viewBox="0 0 30 30">
<g>
	<line stroke-width="1" x1="" y1="" x2="" y2="" stroke="#449FDB" opacity=""></line>
</g>
	<path d="M14.972 0.15c-8.185 0-14.821 6.645-14.821 14.841s6.636 14.841 14.821 14.841c8.186 0 14.82-6.645 14.82-14.841s-6.635-14.841-14.82-14.841zM9.030 8.616l0.698 0.698c0.010 0.014 0.012 0.030 0.024 0.042l5.155 5.161c0.161 0.162 0.423 0.162 0.584 0l5.155-5.161c0.012-0.011 0.013-0.027 0.023-0.040l0.7-0.701c0.951 0.129 1.864 0.292 2.748 0.478-0.098 0.319-0.261 0.621-0.516 0.876l-6.807 6.814c-0.88 0.881-2.306 0.881-3.186 0l-6.805-6.814c-0.255-0.255-0.418-0.557-0.516-0.876 0.882-0.185 1.794-0.347 2.743-0.477zM21.926 21.852h-13.495c-1.079 0-1.998-0.784-2.369-1.89h18.233c-0.371 1.105-1.291 1.89-2.369 1.89z" fill="#000000"></path>
</svg>
