<?xml version="1.0" encoding="utf-8"?>
<!-- Generated by IcoMoon.io -->
<!DOCTYPE svg PUBLIC "-//W3C//DTD SVG 1.1//EN" "http://www.w3.org/Graphics/SVG/1.1/DTD/svg11.dtd">
<svg version="1.1" xmlns="http://www.w3.org/2000/svg" xmlns:xlink="http://www.w3.org/1999/xlink" width="30" height="30" viewBox="0 0 30 30">
<g>
	<line stroke-width="1" x1="" y1="" x2="" y2="" stroke="#449FDB" opacity=""></line>
</g>
	<path d="M19 19.053c1.69 0 3.062-1.37 3.062-3.061v-9.060c0-1.69-1.371-3.062-3.062-3.062s-3.062 1.371-3.062 3.062v9.060c0 1.691 1.371 3.061 3.062 3.061zM23.178 10.613v5.367c0 2.307-1.87 4.178-4.178 4.178s-4.178-1.871-4.178-4.178v0-5.366c-0.348 0.193-0.676 0.414-0.992 0.652v4.717c0 2.436 1.69 4.465 3.958 5.012v2.354h-1.813v0.579h6.052v-0.579h-1.804v-2.356c2.263-0.552 3.948-2.577 3.948-5.010v-4.717c-0.317-0.239-0.646-0.459-0.993-0.653z" fill="#000000"></path>
	<path d="M4.403 15.265l5.040 5.040c0.412 0.411 0.98 0.532 1.511 0.424v-13.288c-0.531-0.109-1.1 0.013-1.511 0.424l-5.040 5.040c-0.156 0.156-0.272 0.336-0.354 0.528v1.303c0.081 0.192 0.198 0.372 0.354 0.529z" fill="#000000"></path>
	<path d="M4.049 19.082v-4.345c-0.177-0.416-0.177-0.887 0-1.303v-4.34c0-0.979-0.705-1.79-1.633-1.961-1.427 2.281-2.265 4.968-2.265 7.858 0 2.172 0.477 4.229 1.314 6.089h0.586c1.104 0 1.998-0.894 1.998-1.998z" fill="#000000"></path>
	<path d="M4.049 14.737v-1.303c-0.177 0.416-0.177 0.887 0 1.303z" fill="#000000"></path>
</svg>
