<?xml version="1.0" encoding="utf-8"?>
<!-- Generated by IcoMoon.io -->
<!DOCTYPE svg PUBLIC "-//W3C//DTD SVG 1.1//EN" "http://www.w3.org/Graphics/SVG/1.1/DTD/svg11.dtd">
<svg version="1.1" xmlns="http://www.w3.org/2000/svg" xmlns:xlink="http://www.w3.org/1999/xlink" width="30" height="30" viewBox="0 0 30 30">
<g>
	<line stroke-width="1" x1="" y1="" x2="" y2="" stroke="#449FDB" opacity=""></line>
</g>
	<path d="M14.024 29.784v0.216h4.175v-0.531c-1.040 0.231-2.118 0.363-3.228 0.363-0.319 0-0.632-0.027-0.947-0.048z" fill="#000000"></path>
	<path d="M21.68 18.882l0.52-4.231h-4v-2.7c0-1.225 0.324-2.061 2.002-2.061h1.979v-3.785c-0.37-0.050-1.48-0.166-2.958-0.166-3.087 0-5.199 1.971-5.199 5.592v3.119h-3.822v4.231h3.822v10.902c0.315 0.021 0.628 0.048 0.948 0.048 1.109 0 2.188-0.132 3.228-0.363v-10.586h3.48z" fill="#000000"></path>
</svg>
