<?xml version="1.0" encoding="utf-8"?>
<!-- Generated by IcoMoon.io -->
<!DOCTYPE svg PUBLIC "-//W3C//DTD SVG 1.1//EN" "http://www.w3.org/Graphics/SVG/1.1/DTD/svg11.dtd">
<svg version="1.1" xmlns="http://www.w3.org/2000/svg" xmlns:xlink="http://www.w3.org/1999/xlink" width="30" height="30" viewBox="0 0 30 30">
<g>
	<line stroke-width="1" x1="" y1="" x2="" y2="" stroke="#449FDB" opacity=""></line>
</g>
	<path d="M15.505 4.562c-5.796 0-10.496 4.699-10.496 10.497s4.7 10.497 10.496 10.497c5.798 0 10.498-4.699 10.498-10.497s-4.699-10.497-10.498-10.497zM21.038 20.103h-10.931c-0.102-0.494-0.127-0.692-0.025-1.187h10.931c0.101 0.495 0.127 0.693 0.025 1.187zM21.038 16.044h-10.931c-0.102-0.494-0.102-0.698 0-1.19h10.931c0.102 0.494 0.102 0.696 0 1.19zM21.038 12.13h-10.931c-0.102-0.494-0.102-0.804 0-1.297h10.931c0.102 0.494 0.102 0.804 0 1.297z" fill="#000000"></path>
</svg>
