<?xml version="1.0" encoding="utf-8"?>
<!-- Generated by IcoMoon.io -->
<!DOCTYPE svg PUBLIC "-//W3C//DTD SVG 1.1//EN" "http://www.w3.org/Graphics/SVG/1.1/DTD/svg11.dtd">
<svg version="1.1" xmlns="http://www.w3.org/2000/svg" xmlns:xlink="http://www.w3.org/1999/xlink" width="30" height="30" viewBox="0 0 30 30">
<g>
	<line stroke-width="1" x1="" y1="" x2="" y2="" stroke="#449FDB" opacity=""></line>
</g>
	<path d="M14.221 9.378c-0.006-0.005-0.012-0.009-0.018-0.014l-1.948-2.032v5.080l1.994-2.077-0.003-0.002c0.247-0.274 0.24-0.692-0.025-0.955zM12.255 22.653l1.994-2.076-0.003-0.003c0.247-0.273 0.24-0.692-0.025-0.953-0.006-0.006-0.012-0.010-0.018-0.015l-1.948-2.031v5.078zM14.972 0.15c-8.185 0-14.821 6.645-14.821 14.841s6.636 14.841 14.821 14.841c8.186 0 14.82-6.645 14.82-14.841s-6.635-14.841-14.82-14.841zM15.896 18.646c0.818 0.81 0.818 2.122 0 2.931l-5.764 6.226v-10.243l-4.741 4.687c-0.036 0.036-0.077 0.062-0.115 0.095h-0.042v0.035c-0.044 0.034-0.084 0.073-0.13 0.104-0.258-0.718-0.49-1.473-0.695-2.261l5.288-5.228-5.293-5.232c0.204-0.79 0.436-1.547 0.694-2.266 0.048 0.032 0.090 0.074 0.136 0.111v0.030h0.036c0.040 0.034 0.083 0.061 0.121 0.099l4.741 4.687v-10.243l5.764 6.225c0.818 0.809 0.818 2.122 0 2.931l-3.324 3.655 3.324 3.657zM20.983 18.714c-0.297 0.062-0.615-0.007-0.846-0.237l-2.821-2.824c-0.364-0.365-0.364-0.957 0-1.322l2.821-2.825c0.23-0.23 0.549-0.298 0.846-0.237v7.445zM23.821 18.477c-0.23 0.23-0.549 0.299-0.846 0.237v-7.445c0.297-0.061 0.615 0.007 0.846 0.237l2.821 2.825c0.365 0.365 0.365 0.957 0 1.322l-2.821 2.824z" fill="#000000"></path>
</svg>
