<?xml version="1.0" encoding="utf-8"?>
<!-- Generated by IcoMoon.io -->
<!DOCTYPE svg PUBLIC "-//W3C//DTD SVG 1.1//EN" "http://www.w3.org/Graphics/SVG/1.1/DTD/svg11.dtd">
<svg version="1.1" xmlns="http://www.w3.org/2000/svg" xmlns:xlink="http://www.w3.org/1999/xlink" width="30" height="30" viewBox="0 0 30 30">
<g>
	<line stroke-width="1" x1="" y1="" x2="" y2="" stroke="#449FDB" opacity=""></line>
</g>
	<path d="M13.721 6.129v4.683h1.125v-4.683h-1.125zM11.914 6.129h-1.125v4.683h1.125v-4.683zM14.972 0.15c-8.185 0-14.821 6.645-14.821 14.841 0 4.804 2.29 9.062 5.825 11.775v-9.527c0-0.374 1.912-1.795 1.912-2.18 0-6.515 0-8.874 0-8.874 0-1.158 1.067-2.182 2.111-2.182h11.78c1.113 0 2.111 1.023 2.111 2.182v20.639c3.578-2.709 5.901-6.994 5.901-11.833 0.001-8.196-6.634-14.841-14.819-14.841zM16.788 6.129v4.683h1.135v-4.683h-1.135zM19.742 10.812h1.136v-4.683h-1.136v4.683zM10.79 23.784h8.447l-4.224-5.452-4.223 5.452z" fill="#000000"></path>
</svg>
