<?xml version="1.0" encoding="utf-8"?>
<!-- Generated by IcoMoon.io -->
<!DOCTYPE svg PUBLIC "-//W3C//DTD SVG 1.1//EN" "http://www.w3.org/Graphics/SVG/1.1/DTD/svg11.dtd">
<svg version="1.1" xmlns="http://www.w3.org/2000/svg" xmlns:xlink="http://www.w3.org/1999/xlink" width="30" height="30" viewBox="0 0 30 30">
<g>
	<line stroke-width="1" x1="" y1="" x2="" y2="" stroke="#449FDB" opacity=""></line>
</g>
	<path d="M7.040 13.635c-1.004 0-1.819 0.814-1.819 1.819s0.814 1.819 1.819 1.819 1.819-0.814 1.819-1.819c0-1.004-0.815-1.819-1.819-1.819zM15.039 13.635c-1.004 0-1.819 0.814-1.819 1.819s0.814 1.819 1.819 1.819 1.819-0.814 1.819-1.819c0-1.004-0.814-1.819-1.819-1.819zM23.055 13.635c-1.005 0-1.819 0.814-1.819 1.819s0.814 1.819 1.819 1.819 1.819-0.814 1.819-1.819c0-1.004-0.814-1.819-1.819-1.819z" fill="#000000"></path>
</svg>
