<?xml version="1.0" encoding="UTF-8" standalone="no"?>
<!-- Created with Inkscape (http://www.inkscape.org/) -->

<svg
   xmlns:dc="http://purl.org/dc/elements/1.1/"
   xmlns:cc="http://creativecommons.org/ns#"
   xmlns:rdf="http://www.w3.org/1999/02/22-rdf-syntax-ns#"
   xmlns:svg="http://www.w3.org/2000/svg"
   xmlns="http://www.w3.org/2000/svg"
   xmlns:inkscape="http://www.inkscape.org/namespaces/inkscape"
   version="1.1"
   width="30"
   height="30"
   viewBox="0 0 30 30"
   id="svg2">
  <metadata
     id="metadata10">
    <rdf:RDF>
      <cc:Work
         rdf:about="">
        <dc:format>image/svg+xml</dc:format>
        <dc:type
           rdf:resource="http://purl.org/dc/dcmitype/StillImage" />
      </cc:Work>
    </rdf:RDF>
  </metadata>
  <defs
     id="defs8" />
  <path
     d="m 27.602,8.214 -3.02,3.02 c -0.247,0.247 -0.59,0.32 -0.907,0.256 V 8.833 h -7.233 c -0.18,-0.868 -0.18,-1.765 0,-2.636 h 7.233 v -2.67 c 0.317,-0.066 0.66,0.008 0.906,0.254 l 3.03,3.03 c 0.39,0.39 0.39,1.026 0,1.416 z M 15.147,9.91 H 20.1 c 1.65,1.708 2.67,4.03 2.67,6.592 0,5.248 -4.256,9.502 -9.502,9.502 -1.958,0 -3.777,-0.593 -5.29,-1.608 L 3.734,26.03 5.367,21.78 C 4.357,20.27 3.765,18.456 3.765,16.503 3.765,11.255 8.02,7 13.268,7 c 0.768,0 1.51,0.103 2.226,0.275 h -0.347 c -0.178,0.867 -0.178,1.765 0,2.635 z"
     inkscape:connector-curvature="0"
     id="path4" />
</svg>
