<?xml version="1.0" encoding="utf-8"?>
<!-- Generated by IcoMoon.io -->
<!DOCTYPE svg PUBLIC "-//W3C//DTD SVG 1.1//EN" "http://www.w3.org/Graphics/SVG/1.1/DTD/svg11.dtd">
<svg version="1.1" xmlns="http://www.w3.org/2000/svg" xmlns:xlink="http://www.w3.org/1999/xlink" width="30" height="30" viewBox="0 0 30 30">
<g>
	<line stroke-width="1" x1="" y1="" x2="" y2="" stroke="#449FDB" opacity=""></line>
</g>
	<path d="M27.602 8.214l-3.021 3.021c-0.246 0.246-0.589 0.32-0.906 0.255v-2.657h-7.233c-0.18-0.868-0.18-1.765 0-2.636h7.233v-2.671c0.317-0.065 0.66 0.009 0.906 0.255l3.021 3.021c0.389 0.389 0.389 1.022 0 1.412zM15.147 9.91h4.954c1.648 1.708 2.669 4.030 2.669 6.592 0 5.248-4.256 9.502-9.502 9.502-1.958 0-3.777-0.593-5.29-1.608l-4.244 1.633 1.633-4.249c-1.011-1.51-1.602-3.324-1.602-5.277 0-5.248 4.254-9.503 9.503-9.503 0.768 0 1.51 0.103 2.226 0.275h-0.347c-0.178 0.867-0.178 1.765 0 2.635z" fill="#000000"></path>
</svg>
