<svg xmlns="http://www.w3.org/2000/svg" xmlns:xlink="http://www.w3.org/1999/xlink" preserveAspectRatio="xMidYMid" width="22" height="22" viewBox="0 0 22 22">
  <defs>
    <style>

      .cls-2 {
        fill: #848484;
      }
    </style>
  </defs>
  <path d="M17.482,9.007 C17.799,9.323 17.962,9.627 18.121,10.041 C18.121,10.041 14.779,13.384 14.779,13.384 C14.806,13.411 14.833,13.437 14.860,13.464 C18.490,17.094 21.438,20.827 21.124,21.141 C20.810,21.455 17.077,18.507 13.447,14.877 C13.420,14.850 13.394,14.823 13.367,14.796 C13.367,14.796 10.025,18.138 10.025,18.138 C9.610,17.979 9.307,17.816 8.990,17.499 C8.100,16.609 8.021,15.442 8.333,14.026 C6.575,12.201 4.920,10.415 3.399,8.707 C2.050,9.068 0.924,9.091 -0.003,8.368 C-0.003,8.368 8.351,0.014 8.351,0.014 C9.075,0.942 9.052,2.070 8.689,3.420 C10.396,4.940 12.181,6.594 14.005,8.351 C15.423,8.037 16.591,8.116 17.482,9.007 Z" id="path-1" class="cls-2" fill-rule="evenodd"/>
</svg>
