<?xml version="1.0" encoding="utf-8"?>
<!-- Generated by IcoMoon.io -->
<!DOCTYPE svg PUBLIC "-//W3C//DTD SVG 1.1//EN" "http://www.w3.org/Graphics/SVG/1.1/DTD/svg11.dtd">
<svg version="1.1" xmlns="http://www.w3.org/2000/svg" xmlns:xlink="http://www.w3.org/1999/xlink" width="960" height="960" viewBox="0 0 960 960">
<g id="icomoon-ignore">
</g>
	<path d="M479.97 928.533c-247.74 0-448.503-200.854-448.503-448.563s200.764-448.503 448.503-448.503 448.563 200.823 448.563 448.503c0 247.711-200.854 448.563-448.563 448.563zM479.224 73.449c-224.506 0-406.522 182.015-406.522 406.492 0 224.595 182.015 406.64 406.522 406.64s406.551-182.015 406.551-406.61c0-224.476-182.045-406.522-406.551-406.522zM687.102 516.391v0.927l-325.904 188.175v-450.895l325.904 188.175v0.927c12.439 7.626 21.141 20.663 21.141 36.332s-8.702 28.706-21.141 36.361z"></path>
</svg>
