<?xml version="1.0" encoding="utf-8"?>
<!-- Generated by IcoMoon.io -->
<!DOCTYPE svg PUBLIC "-//W3C//DTD SVG 1.1//EN" "http://www.w3.org/Graphics/SVG/1.1/DTD/svg11.dtd">
<svg version="1.1" xmlns="http://www.w3.org/2000/svg" xmlns:xlink="http://www.w3.org/1999/xlink" width="30" height="30" viewBox="0 0 30 30">
<g>
	<line stroke-width="1" x1="" y1="" x2="" y2="" stroke="#449FDB" opacity=""></line>
</g>
	<path d="M22 16.214v7.493c0 0.685-0.552 1.242-1.238 1.242h-17.524c-0.684 0-1.238-0.557-1.238-1.242v-13.289l1.99-1.992v14.113c0 0.266 0.217 0.483 0.483 0.483h15.060c0.267 0 0.483-0.218 0.483-0.483v-6.287c-3.205-0.404-5.691-3.108-5.691-6.42 0-1.023 0.255-1.976 0.676-2.836h-9.581l1.99-1.991h9.097c1.15-1.031 2.654-1.675 4.319-1.675 3.593 0 6.504 2.911 6.504 6.502 0 3.187-2.303 5.827-5.33 6.382zM24.428 9.138v-0.005l-5.643-3.491v8.363l5.643-3.493c0.234-0.141 0.392-0.394 0.392-0.687s-0.158-0.549-0.392-0.687z" fill="#000000"></path>
</svg>
