<?xml version="1.0" encoding="UTF-8" standalone="no"?>
<!-- Created with Inkscape (http://www.inkscape.org/) -->

<svg
   xmlns:dc="http://purl.org/dc/elements/1.1/"
   xmlns:cc="http://creativecommons.org/ns#"
   xmlns:rdf="http://www.w3.org/1999/02/22-rdf-syntax-ns#"
   xmlns:svg="http://www.w3.org/2000/svg"
   xmlns="http://www.w3.org/2000/svg"
   xmlns:inkscape="http://www.inkscape.org/namespaces/inkscape"
   version="1.1"
   width="960"
   height="960"
   viewBox="0 0 960 960"
   id="svg2">
  <metadata
     id="metadata10">
    <rdf:RDF>
      <cc:Work
         rdf:about="">
        <dc:format>image/svg+xml</dc:format>
        <dc:type
           rdf:resource="http://purl.org/dc/dcmitype/StillImage" />
      </cc:Work>
    </rdf:RDF>
  </metadata>
  <defs
     id="defs8" />
  <path
     d="M 479.97,928.533 C 232.23,928.533 31.467,727.679 31.467,479.97 31.467,232.261 232.23,31.467 479.97,31.467 c 247.74,0 448.563,200.823 448.563,448.503 0,247.71 -200.854,448.563 -448.563,448.563 z M 479.224,73.449 c -224.506,0 -406.522,182.01 -406.522,406.49 0,224.59 182.015,406.64 406.522,406.64 224.507,0 406.55,-182.02 406.55,-406.61 0,-224.48 -182.044,-406.52 -406.55,-406.52 z m 207.878,442.94 v 0.92 L 361.198,705.49 V 254.598 l 325.904,188.175 v 0.927 c 12.44,7.623 21.14,20.66 21.14,36.33 0,15.67 -8.7,28.705 -21.14,36.36 z"
     inkscape:connector-curvature="0"
     id="path4" />
</svg>
