<?xml version="1.0" encoding="utf-8"?>
<!-- Generated by IcoMoon.io -->
<!DOCTYPE svg PUBLIC "-//W3C//DTD SVG 1.1//EN" "http://www.w3.org/Graphics/SVG/1.1/DTD/svg11.dtd">
<svg version="1.1" xmlns="http://www.w3.org/2000/svg" xmlns:xlink="http://www.w3.org/1999/xlink" width="32" height="32" viewBox="0 0 32 32">
<g>
</g>
	<path d="M7.467 14.062c-1.071 0-1.938 0.868-1.938 1.939 0 1.070 0.867 1.938 1.938 1.938s1.938-0.868 1.938-1.939c0-1.070-0.867-1.938-1.938-1.938zM15.991 14.062c-1.071 0-1.938 0.868-1.938 1.939 0 1.070 0.867 1.938 1.938 1.938s1.939-0.868 1.939-1.939c0-1.070-0.868-1.938-1.939-1.938zM24.533 14.062c-1.071 0-1.938 0.868-1.938 1.939 0 1.070 0.867 1.938 1.938 1.938 1.070 0 1.938-0.867 1.938-1.938s-0.868-1.939-1.938-1.939z" fill="#000000"></path>
</svg>
