<?xml version="1.0" encoding="utf-8"?>
<!-- Generated by IcoMoon.io -->
<!DOCTYPE svg PUBLIC "-//W3C//DTD SVG 1.1//EN" "http://www.w3.org/Graphics/SVG/1.1/DTD/svg11.dtd">
<svg version="1.1" xmlns="http://www.w3.org/2000/svg" xmlns:xlink="http://www.w3.org/1999/xlink" width="32" height="32" viewBox="0 0 32 32">
<g>
</g>
	<path d="M24.561 20.88c-1.234-0.711-2.723-0.578-3.799 0.219l-8.161-4.713c0.015-0.129 0.039-0.254 0.039-0.386s-0.025-0.258-0.039-0.387l8.161-4.711c1.077 0.797 2.564 0.931 3.799 0.219 1.659-0.958 2.227-3.079 1.268-4.738-0.957-1.66-3.079-2.228-4.737-1.27-1.234 0.713-1.862 2.069-1.711 3.401l-8.154 4.707c-0.577-0.428-1.283-0.689-2.057-0.689-1.916 0-3.469 1.553-3.469 3.469 0 1.917 1.553 3.469 3.469 3.469 0.772 0 1.479-0.261 2.055-0.689l8.155 4.708c-0.151 1.33 0.476 2.687 1.711 3.399 1.659 0.958 3.78 0.389 4.737-1.268 0.959-1.659 0.39-3.78-1.268-4.738z" fill="#000000"></path>
</svg>
