<?xml version="1.0" encoding="UTF-8" standalone="no"?>
<!-- Created with Inkscape (http://www.inkscape.org/) -->

<svg
   xmlns:dc="http://purl.org/dc/elements/1.1/"
   xmlns:cc="http://creativecommons.org/ns#"
   xmlns:rdf="http://www.w3.org/1999/02/22-rdf-syntax-ns#"
   xmlns:svg="http://www.w3.org/2000/svg"
   xmlns="http://www.w3.org/2000/svg"
   xmlns:inkscape="http://www.inkscape.org/namespaces/inkscape"
   version="1.1"
   width="30"
   height="30"
   viewBox="0 0 30 30"
   id="svg2">
  <metadata
     id="metadata10">
    <rdf:RDF>
      <cc:Work
         rdf:about="">
        <dc:format>image/svg+xml</dc:format>
        <dc:type
           rdf:resource="http://purl.org/dc/dcmitype/StillImage" />
      </cc:Work>
    </rdf:RDF>
  </metadata>
  <defs
     id="defs8" />
  <path
     d="m 25.18,5.983 c -1.428,0.1 -2.04,-0.504 -5.058,-1.41 -3.015,-0.907 -5.21,0.25 -5.21,0.25 h -0.04 c 0,0 -2.198,-1.158 -5.213,-0.25 -3.015,0.906 -3.63,1.51 -5.06,1.41 -1.43,-0.1 -2.196,-1.26 -2.196,-1.26 0,0 0.358,1.966 0.46,3.78 0.053,0.925 -0.024,1.94 0.188,3.128 l 0.14,5.365 c -0.048,-0.194 -0.05,-1.294 -0.05,-1.294 0,0 -0.32,0.4 -0.32,1.193 0,0.657 0.25,1.016 0.398,1.172 l 0.058,2.205 c -0.092,0.163 -0.337,0.674 -0.337,1.577 0,0.806 0.244,1.308 0.42,1.562 l 0.084,3.128 c 0,0 0.215,0.152 0.55,0.152 0.34,0 0.524,-0.152 0.524,-0.152 l -0.05,-0.868 c 0,0 0.267,-0.524 0.267,-1.285 0,-0.76 -0.208,-0.95 -0.357,-1.157 C 4.361,23.205 4.342,23.191 4.326,23.173 L 4.122,19.637 c 0.03,-0.05 0.218,-0.4 0.218,-0.908 0,-0.55 -0.177,-0.688 -0.305,-0.837 L 4.021,17.879 3.791,13.837 c 0.27,0.56 0.6,1.142 1.066,1.772 2.453,3.335 4.957,3.028 5.416,3.075 3.314,0.345 2.233,-0.396 4.59,-0.396 2.357,0 1.177,0.757 4.646,0.396 0.46,-0.047 2.963,0.26 5.415,-3.075 2.3,-3.123 1.892,-5.29 1.994,-7.104 0.1,-1.813 0.46,-3.78 0.46,-3.78 0,0 -0.766,1.16 -2.197,1.26 z M 4.467,25.665 4.405,24.573 c 0.067,0.376 0.062,1.07 0.062,1.092 z m 8.35,-12.39 c 0,0 -3.67,0.47 -5.457,-0.438 -1.79,-0.907 -1.89,-1.966 -1.89,-1.966 0,0 0.52,-0.03 1.273,-0.337 0.76,-0.308 1.513,-0.99 3.3,-0.584 3.163,0.72 2.773,3.325 2.773,3.325 z m 9.605,-0.438 c -1.79,0.91 -5.458,0.438 -5.458,0.438 0,0 -0.39,-2.605 2.777,-3.326 1.784,-0.408 2.534,0.286 3.298,0.583 0.67,0.258 1.273,0.338 1.273,0.338 0,0 -0.1,1.06 -1.888,1.967 z"
     inkscape:connector-curvature="0"
     id="path4" />
</svg>
