<?xml version="1.0" encoding="UTF-8" standalone="no"?>
<!-- Created with Inkscape (http://www.inkscape.org/) -->

<svg
   xmlns:dc="http://purl.org/dc/elements/1.1/"
   xmlns:cc="http://creativecommons.org/ns#"
   xmlns:rdf="http://www.w3.org/1999/02/22-rdf-syntax-ns#"
   xmlns:svg="http://www.w3.org/2000/svg"
   xmlns="http://www.w3.org/2000/svg"
   xmlns:inkscape="http://www.inkscape.org/namespaces/inkscape"
   version="1.1"
   width="30"
   height="30"
   viewBox="0 0 30 30"
   id="svg2">
  <metadata
     id="metadata10">
    <rdf:RDF>
      <cc:Work
         rdf:about="">
        <dc:format>image/svg+xml</dc:format>
        <dc:type
           rdf:resource="http://purl.org/dc/dcmitype/StillImage" />
      </cc:Work>
    </rdf:RDF>
  </metadata>
  <defs
     id="defs8" />
  <path
     d="m 25.18,5.983 c -1.428,0.1 -2.04,-0.504 -5.058,-1.41 -3.015,-0.907 -5.21,0.25 -5.21,0.25 h -0.04 c 0,0 -2.198,-1.158 -5.213,-0.25 -3.015,0.908 -3.63,1.51 -5.06,1.41 -1.43,-0.1 -2.2,-1.26 -2.2,-1.26 0,0 0.36,1.966 0.46,3.78 0.05,0.925 -0.03,1.94 0.19,3.128 L 3.19,17 C 3.142,16.806 3.14,15.706 3.14,15.706 c 0,0 -0.32,0.4 -0.32,1.193 0,0.65 0.25,1.01 0.4,1.17 l 0.056,2.2 c -0.092,0.16 -0.337,0.672 -0.337,1.575 0,0.806 0.24,1.31 0.42,1.56 l 0.08,3.13 c 0,0 0.21,0.15 0.55,0.15 0.34,0 0.52,-0.15 0.52,-0.15 l -0.05,-0.87 c 0,0 0.266,-0.52 0.266,-1.283 0,-0.763 -0.208,-0.95 -0.357,-1.158 -0.017,-0.027 -0.036,-0.04 -0.05,-0.06 L 4.113,19.628 c 0.03,-0.05 0.22,-0.4 0.22,-0.908 0,-0.55 -0.18,-0.69 -0.307,-0.838 L 4.012,17.868 3.782,13.826 c 0.27,0.56 0.6,1.142 1.067,1.772 2.454,3.333 4.958,3.026 5.417,3.073 3.315,0.343 2.234,-0.398 4.59,-0.398 2.356,0 1.18,0.757 4.647,0.396 0.46,-0.045 2.96,0.26 5.413,-3.073 2.3,-3.124 1.89,-5.29 1.995,-7.105 0.1,-1.812 0.46,-3.78 0.46,-3.78 0,0 -0.766,1.16 -2.197,1.26 z M 4.467,25.665 4.405,24.573 c 0.067,0.376 0.062,1.07 0.062,1.092 z m 8.35,-12.39 c 0,0 -3.67,0.47 -5.457,-0.438 -1.79,-0.907 -1.89,-1.966 -1.89,-1.966 0,0 0.52,-0.03 1.273,-0.33 0.76,-0.31 1.513,-0.99 3.3,-0.58 3.163,0.72 2.773,3.326 2.773,3.326 z m 9.605,-0.438 c -1.79,0.91 -5.458,0.438 -5.458,0.438 0,0 -0.39,-2.605 2.777,-3.326 1.79,-0.41 2.54,0.28 3.3,0.58 0.67,0.26 1.28,0.34 1.28,0.34 0,0 -0.1,1.06 -1.89,1.96 z"
     inkscape:connector-curvature="0"
     id="path4" />
</svg>
