<?xml version="1.0" encoding="utf-8"?>
<!-- Generated by IcoMoon.io -->
<!DOCTYPE svg PUBLIC "-//W3C//DTD SVG 1.1//EN" "http://www.w3.org/Graphics/SVG/1.1/DTD/svg11.dtd">
<svg version="1.1" xmlns="http://www.w3.org/2000/svg" xmlns:xlink="http://www.w3.org/1999/xlink" width="30" height="30" viewBox="0 0 30 30">
<g>
	<line stroke-width="1" x1="" y1="" x2="" y2="" stroke="#449FDB" opacity=""></line>
</g>
	<path d="M18.638 6.076h-7.274c-0.384 0.157-0.753 0.338-1.111 0.541h9.498c-0.359-0.203-0.73-0.384-1.113-0.541zM23.277 10.075h-16.553c-0.106 0.178-0.208 0.357-0.302 0.542h17.159c-0.096-0.185-0.196-0.364-0.304-0.542zM21.699 8.076h-13.396c-0.179 0.172-0.348 0.355-0.512 0.54h14.421c-0.166-0.185-0.336-0.368-0.513-0.54zM24.186 12.076h-18.372c-0.056 0.177-0.1 0.359-0.146 0.54h18.664c-0.046-0.18-0.088-0.363-0.146-0.54zM7.995 16.359c-1.451 0-2.627 1.178-2.627 2.628 0 1.452 1.176 2.628 2.627 2.628 1.452 0 2.629-1.176 2.629-2.628 0-1.45-1.177-2.628-2.629-2.628zM22.006 16.359c-1.45 0-2.627 1.178-2.627 2.628 0 1.452 1.177 2.628 2.627 2.628s2.628-1.176 2.628-2.628c0-1.45-1.178-2.628-2.628-2.628zM15.001 1.5c-7.456 0-13.5 6.045-13.5 13.5s6.044 13.501 13.5 13.501c7.455 0 13.5-6.045 13.5-13.501s-6.045-13.5-13.5-13.5zM15.001 25.797c-5.963 0-10.797-4.834-10.797-10.797s4.834-10.797 10.797-10.797c5.962 0 10.796 4.834 10.796 10.797s-4.834 10.797-10.796 10.797zM18.734 17.073h-7.499c-0.119 0-0.217 0.098-0.217 0.219v3.392c0 0.119 0.098 0.217 0.217 0.217h3.271v-2.592h0.99v2.591h3.238c0.12 0 0.219-0.098 0.219-0.217v-3.392c0-0.12-0.099-0.218-0.219-0.218z" fill="#000000"></path>
</svg>
