<?xml version="1.0" encoding="iso-8859-1"?>
<!-- Generator: Adobe Illustrator 16.0.4, SVG Export Plug-In . SVG Version: 6.00 Build 0)  -->
<!DOCTYPE svg PUBLIC "-//W3C//DTD SVG 1.1//EN" "http://www.w3.org/Graphics/SVG/1.1/DTD/svg11.dtd">
<svg version="1.1" xmlns="http://www.w3.org/2000/svg" xmlns:xlink="http://www.w3.org/1999/xlink" x="0px" y="0px" width="30px"
	 height="30px" viewBox="0 0 30 30" style="enable-background:new 0 0 30 30;" xml:space="preserve">
<g id="Dialer_x5F_RecentCalls">
	<path style="fill-rule:evenodd;clip-rule:evenodd;" d="M29.583,16.785h-5.524v2.649c-0.316,0.067-0.656-0.005-0.904-0.253
		l-3.016-3.016c-0.389-0.388-0.389-1.02,0-1.41l3.016-3.015c0.248-0.247,0.588-0.318,0.904-0.253v2.667h5.524
		C29.762,15.021,29.762,15.917,29.583,16.785z M17.885,11.198c-0.245,0.246-0.587,0.318-0.904,0.253v-2.65h-5.523
		c-0.179-0.868-0.179-1.764,0-2.632h5.523V3.503c0.317-0.065,0.659,0.008,0.904,0.253L20.9,6.772c0.389,0.39,0.389,1.021,0,1.411
		L17.885,11.198z M16.378,21.607l0.021,0.021c0.605-0.333,1.207-0.737,1.799-1.166l5.676,5.025c-1.197,1.032-2.495,1.881-3.862,2.52
		c-3.632-0.67-8.282-3.372-12.464-7.55C3.376,16.283,0.675,11.633,0,8.004c0.642-1.368,1.49-2.668,2.524-3.868l5.028,5.679
		c-0.432,0.593-0.833,1.191-1.169,1.799l0.022,0.022c-0.587,1.291,0.773,4.103,3.321,6.649
		C12.274,20.835,15.087,22.195,16.378,21.607z"/>
</g>
<g id="&#x5716;&#x5C64;_1">
</g>
</svg>
