<?xml version="1.0" encoding="utf-8"?>
<!-- Generated by IcoMoon.io -->
<!DOCTYPE svg PUBLIC "-//W3C//DTD SVG 1.1//EN" "http://www.w3.org/Graphics/SVG/1.1/DTD/svg11.dtd">
<svg version="1.1" xmlns="http://www.w3.org/2000/svg" xmlns:xlink="http://www.w3.org/1999/xlink" width="30" height="30" viewBox="0 0 30 30">
<g>
	<line stroke-width="1" x1="" y1="" x2="" y2="" stroke="#449FDB" opacity=""></line>
</g>
	<path d="M24.771 13.501c-0.712-5.319-5.256-9.425-10.769-9.425-6.008 0-10.877 4.87-10.877 10.877s4.87 10.877 10.877 10.877c3.004 0 5.724-1.218 7.693-3.188l-1.666-1.666c-1.543 1.542-3.673 2.497-6.027 2.497-4.706 0-8.521-3.815-8.521-8.521s3.815-8.521 8.521-8.521c4.2 0 7.681 3.041 8.383 7.040-1.079 0.094-2.066 0.326-2.888 0.659l3.244 3.245c0.402 0.402 1.056 0.402 1.458 0l3.241-3.241c-0.763-0.309-1.676-0.527-2.669-0.633z" fill="#000000"></path>
</svg>
