<?xml version="1.0" encoding="utf-8"?>
<!-- Generated by IcoMoon.io -->
<!DOCTYPE svg PUBLIC "-//W3C//DTD SVG 1.1//EN" "http://www.w3.org/Graphics/SVG/1.1/DTD/svg11.dtd">
<svg version="1.1" xmlns="http://www.w3.org/2000/svg" xmlns:xlink="http://www.w3.org/1999/xlink" width="30" height="30" viewBox="0 0 30 30">
<g>
	<line stroke-width="1" x1="" y1="" x2="" y2="" stroke="#449FDB" opacity=""></line>
</g>
	<path d="M23.461 13.657c-0.694-4.759-4.727-8.414-9.611-8.414-5.373 0-9.728 4.417-9.728 9.866s4.355 9.866 9.728 9.866c2.688 0 5.12-1.104 6.881-2.892l-1.643-1.665c-1.34 1.36-3.192 2.201-5.238 2.201-4.090 0-7.406-3.362-7.406-7.511 0-4.147 3.315-7.511 7.406-7.511 3.591 0 6.582 2.593 7.26 6.032-1.059 0.095-2.026 0.327-2.833 0.658l3.196 3.242c0.396 0.401 1.039 0.401 1.436 0l3.192-3.238c-0.756-0.311-1.659-0.528-2.64-0.634z" fill="#000000"></path>
</svg>
