<?xml version="1.0" encoding="utf-8"?>
<!-- Generated by IcoMoon.io -->
<!DOCTYPE svg PUBLIC "-//W3C//DTD SVG 1.1//EN" "http://www.w3.org/Graphics/SVG/1.1/DTD/svg11.dtd">
<svg version="1.1" xmlns="http://www.w3.org/2000/svg" xmlns:xlink="http://www.w3.org/1999/xlink" width="30" height="30" viewBox="0 0 30 30">
<g>
	<line stroke-width="1" x1="" y1="" x2="" y2="" stroke="#449FDB" opacity=""></line>
</g>
	<path d="M12.618 9.308l6.835 6.837c0.196 0.196 0.196 0.515 0 0.711l-6.835 6.838c-0.197 0.196-0.517 0.196-0.714 0l-6.837-6.838c-0.197-0.196-0.197-0.514 0.002-0.71l6.835-6.837c0.198-0.198 0.517-0.198 0.714-0.001zM25.516 13.914c-0.284 0.284-0.747 0.284-1.031 0l-2.297-2.299c0.6-0.241 1.346-0.378 2.138-0.442-0.142-3.503-3.006-6.305-6.544-6.305-2.493 0-4.64 1.408-5.749 3.456-0.041-0.018-0.079-0.034-0.117-0.047 1.18-2.453 3.682-4.151 6.587-4.151 3.952 0 7.164 3.138 7.3 7.059 0.743 0.069 1.443 0.201 2.015 0.43l-2.302 2.299z" fill="#000000"></path>
</svg>
