<?xml version="1.0" encoding="UTF-8" standalone="no"?>
<!-- Created with Inkscape (http://www.inkscape.org/) -->

<svg
   xmlns:dc="http://purl.org/dc/elements/1.1/"
   xmlns:cc="http://creativecommons.org/ns#"
   xmlns:rdf="http://www.w3.org/1999/02/22-rdf-syntax-ns#"
   xmlns:svg="http://www.w3.org/2000/svg"
   xmlns="http://www.w3.org/2000/svg"
   xmlns:inkscape="http://www.inkscape.org/namespaces/inkscape"
   version="1.1"
   width="30"
   height="30"
   viewBox="0 0 30 30"
   id="svg2">
  <metadata
     id="metadata10">
    <rdf:RDF>
      <cc:Work
         rdf:about="">
        <dc:format>image/svg+xml</dc:format>
        <dc:type
           rdf:resource="http://purl.org/dc/dcmitype/StillImage" />
      </cc:Work>
    </rdf:RDF>
  </metadata>
  <defs
     id="defs8" />
  <path
     d="M 20.94,2.167 H 10.062 c -0.988,0 -2,0.938 -2,2 V 12 c 0,0.356 -1.938,1.658 -1.938,2.003 V 25 c 0,1.062 0.825,2 1.813,2 h 13 c 1.054,0 2,-0.938 2,-2 V 4.167 c 0,-1.063 -0.946,-2 -2,-2 z M 16,4.18 h 2 V 8.76 H 16 V 4.18 z m -3,0 h 2 V 8.76 H 13 V 4.18 z m -3,0 h 2 V 8.76 H 10 V 4.18 z m 5,16.822 h -4 l 4,-5 4.002,5 h -4 z M 21.002,8.762 H 19 V 4.18 h 2.002 v 4.58 z"
     inkscape:connector-curvature="0"
     id="path4" />
</svg>
