<?xml version="1.0" encoding="utf-8"?>
<!-- Generated by IcoMoon.io -->
<!DOCTYPE svg PUBLIC "-//W3C//DTD SVG 1.1//EN" "http://www.w3.org/Graphics/SVG/1.1/DTD/svg11.dtd">
<svg version="1.1" xmlns="http://www.w3.org/2000/svg" xmlns:xlink="http://www.w3.org/1999/xlink" width="30" height="30" viewBox="0 0 30 30">
<g>
	<line stroke-width="1" x1="" y1="" x2="" y2="" stroke="#449FDB" opacity=""></line>
</g>
	<path d="M26.228 23.474v0l-5.745-5.746c0.938-1.439 1.488-3.155 1.488-5.001 0-5.070-4.11-9.18-9.18-9.18s-9.18 4.11-9.18 9.18c0 5.070 4.11 9.18 9.18 9.18 1.845 0 3.559-0.55 4.998-1.486l5.747 5.746c0.378 0.378 1.287 0.081 2.030-0.662s1.039-1.653 0.662-2.031zM12.791 19.722c-3.863 0-6.996-3.132-6.996-6.996s3.132-6.996 6.996-6.996c3.864 0 6.996 3.132 6.996 6.996s-3.133 6.996-6.996 6.996z" fill="#000000"></path>
</svg>
