<?xml version="1.0" encoding="utf-8"?>
<!-- Generated by IcoMoon.io -->
<!DOCTYPE svg PUBLIC "-//W3C//DTD SVG 1.1//EN" "http://www.w3.org/Graphics/SVG/1.1/DTD/svg11.dtd">
<svg version="1.1" xmlns="http://www.w3.org/2000/svg" xmlns:xlink="http://www.w3.org/1999/xlink" width="30" height="30" viewBox="0 0 30 30">
<g>
	<line stroke-width="1" x1="" y1="" x2="" y2="" stroke="#449FDB" opacity=""></line>
</g>
	<path d="M17.733 16.342v-0.002c-0.44-0.273-0.736-0.771-0.736-1.34s0.296-1.067 0.736-1.339v-0.002l11.267-6.891v16.232l-11.267-6.658zM4.644 16.34c-0.44-0.273-0.738-0.771-0.738-1.34s0.298-1.067 0.738-1.339v-0.002l11.354-6.775v16.232l-11.354-6.776zM1 22.928v-15.857c0.232-0.022 0.459-0.037 0.696-0.037 0.501 0 0.832 0.054 1.304 0.146v15.638c-0.472 0.094-0.803 0.145-1.304 0.145-0.237 0-0.464-0.012-0.696-0.035z" fill="#000000"></path>
</svg>
