<?xml version="1.0" encoding="UTF-8" standalone="no"?>
<!-- Created with Inkscape (http://www.inkscape.org/) -->

<svg
   xmlns:dc="http://purl.org/dc/elements/1.1/"
   xmlns:cc="http://creativecommons.org/ns#"
   xmlns:rdf="http://www.w3.org/1999/02/22-rdf-syntax-ns#"
   xmlns:svg="http://www.w3.org/2000/svg"
   xmlns="http://www.w3.org/2000/svg"
   xmlns:inkscape="http://www.inkscape.org/namespaces/inkscape"
   version="1.1"
   width="30"
   height="30"
   viewBox="0 0 30 30"
   id="svg2">
  <metadata
     id="metadata10">
    <rdf:RDF>
      <cc:Work
         rdf:about="">
        <dc:format>image/svg+xml</dc:format>
        <dc:type
           rdf:resource="http://purl.org/dc/dcmitype/StillImage" />
      </cc:Work>
    </rdf:RDF>
  </metadata>
  <defs
     id="defs8" />
  <path
     d="M 17.733,16.342 V 16.34 c -0.44,-0.273 -0.736,-0.77 -0.736,-1.34 0,-0.57 0.296,-1.067 0.736,-1.34 L 29,6.767 V 23 L 17.733,16.342 z M 4.643,16.34 C 4.203,16.067 3.906,15.57 3.906,15 c 0,-0.57 0.298,-1.067 0.738,-1.34 L 15.998,6.884 V 23.116 L 4.644,16.34 z M 1,22.928 V 7.07 C 1.232,7.05 1.46,7.034 1.696,7.034 2.196,7.034 2.528,7.088 3,7.18 V 22.818 C 2.528,22.912 2.197,22.963 1.696,22.963 1.459,22.963 1.232,22.951 1,22.928 z"
     inkscape:connector-curvature="0"
     id="path4" />
</svg>
