<?xml version="1.0" encoding="utf-8"?>
<!-- Generated by IcoMoon.io -->
<!DOCTYPE svg PUBLIC "-//W3C//DTD SVG 1.1//EN" "http://www.w3.org/Graphics/SVG/1.1/DTD/svg11.dtd">
<svg version="1.1" xmlns="http://www.w3.org/2000/svg" xmlns:xlink="http://www.w3.org/1999/xlink" width="30" height="30" viewBox="0 0 30 30">
<g>
	<line stroke-width="1" x1="" y1="" x2="" y2="" stroke="#449FDB" opacity=""></line>
</g>
	<path d="M25.402 18v-6h1.538v6h-1.538zM25.402 5.078c0-0.266-0.217-0.483-0.483-0.483h-2.919v-1.54h3.747c0.658 0 1.193 0.535 1.193 1.193v3.752h-1.538v-2.922zM12 3.055h6v1.54h-6v-1.54zM4.598 5.078v2.922h-1.54v-3.752c0-0.658 0.534-1.193 1.193-1.193h3.749v1.54h-2.919c-0.268-0.001-0.483 0.217-0.483 0.483zM4.598 18h-1.54v-6h1.54v6zM4.598 22v2.915c0 0.269 0.216 0.483 0.483 0.483h2.919v1.54h-3.75c-0.659 0-1.193-0.535-1.193-1.193v-3.745h1.541zM18 26.938h-6v-1.54h6v1.54zM25.402 24.915v-2.915h1.538v3.745c0 0.658-0.535 1.193-1.193 1.193h-3.747v-1.54h2.919c0.267 0 0.483-0.214 0.483-0.483z" fill="#000000"></path>
</svg>
