<?xml version="1.0" encoding="utf-8"?>
<!-- Generated by IcoMoon.io -->
<!DOCTYPE svg PUBLIC "-//W3C//DTD SVG 1.1//EN" "http://www.w3.org/Graphics/SVG/1.1/DTD/svg11.dtd">
<svg version="1.1" xmlns="http://www.w3.org/2000/svg" xmlns:xlink="http://www.w3.org/1999/xlink" width="30" height="30" viewBox="0 0 30 30">
<g>
	<line stroke-width="1" x1="" y1="" x2="" y2="" stroke="#449FDB" opacity=""></line>
</g>
	<path d="M23.128 21.897v0l-4.417-4.664c0.721-1.169 1.145-2.562 1.145-4.061 0-4.116-3.16-7.452-7.059-7.452-3.897 0-7.058 3.336-7.058 7.452s3.16 7.452 7.058 7.452c1.418 0 2.736-0.446 3.843-1.206l4.418 4.664c0.291 0.307 0.989 0.065 1.562-0.537 0.57-0.604 0.798-1.341 0.508-1.648zM12.797 18.851c-2.97 0-5.378-2.541-5.378-5.678s2.408-5.679 5.378-5.679c2.971 0 5.379 2.542 5.379 5.679s-2.408 5.678-5.379 5.678z" fill="#000000"></path>
</svg>
