<?xml version="1.0" encoding="utf-8"?>
<!-- Generated by IcoMoon.io -->
<!DOCTYPE svg PUBLIC "-//W3C//DTD SVG 1.1//EN" "http://www.w3.org/Graphics/SVG/1.1/DTD/svg11.dtd">
<svg version="1.1" xmlns="http://www.w3.org/2000/svg" xmlns:xlink="http://www.w3.org/1999/xlink" width="30" height="30" viewBox="0 0 30 30">
<g>
	<line stroke-width="1" x1="" y1="" x2="" y2="" stroke="#449FDB" opacity=""></line>
</g>
	<path d="M26.786 15.084c0-1.020-3.1-1.876-7.316-2.135l-6.338-7.437c-0.359-0.468-2.167-0.512-2.167-0.512h-1.437l4.039 8.102c-2.133 0.25-4.511 0.685-5.796 1.215l-2.249-3.11c-0.286-0.5-0.813-0.5-0.813-0.5h-1.495l1.946 4.571-1.945 4.572h1.495c0 0 0.528 0 0.813-0.5l2.458-3.402c1.307 0.484 3.507 0.878 5.503 1.117l-3.952 7.935 2.768-0.002c0 0 0.477-0.045 0.835-0.512l6.179-7.256c4.296-0.248 7.474-1.113 7.472-2.146z" fill="#000000"></path>
</svg>
