<?xml version="1.0" encoding="iso-8859-1"?>
<!-- Generator: Adobe Illustrator 16.0.0, SVG Export Plug-In . SVG Version: 6.00 Build 0)  -->
<!DOCTYPE svg PUBLIC "-//W3C//DTD SVG 1.1//EN" "http://www.w3.org/Graphics/SVG/1.1/DTD/svg11.dtd">
<svg version="1.1" id="Layer_1" xmlns="http://www.w3.org/2000/svg" xmlns:xlink="http://www.w3.org/1999/xlink" x="0px" y="0px"
	 width="30px" height="30px" viewBox="0 0 30 30" style="enable-background:new 0 0 30 30;" xml:space="preserve">
<g>
	<g>
		<path style="fill-rule:evenodd;clip-rule:evenodd;" d="M15.25,17.998c-1.611,0-2.918,1.307-2.918,2.918
			c0,1.612,1.307,2.918,2.918,2.918s2.918-1.306,2.918-2.918C18.167,19.305,16.861,17.998,15.25,17.998z M15.25,13.006
			c3.047,0,5.516-2.47,5.516-5.516s-2.469-5.516-5.516-5.516S9.734,4.444,9.734,7.49S12.203,13.006,15.25,13.006z M24.913,20.57
			c0-0.001,0-0.001,0-0.002c0-3.726-4.326-6.745-9.663-6.745c-5.336,0-9.662,3.02-9.662,6.745c0,0.001,0,0.001,0,0.002H5.582
			c0,2.678,0.532,5.169,1.439,7.293h16.457c0.907-2.124,1.439-4.615,1.439-7.293H24.913z M19.949,23.822l-0.381-0.184
			c-0.238-0.114-0.717,0.114-1.1,0.497c-0.382,0.382-0.611,0.86-0.496,1.099l0.184,0.382c-0.498,0.31-1.053,0.532-1.641,0.672
			l-0.137-0.394c-0.088-0.25-0.588-0.426-1.129-0.426s-1.041,0.176-1.129,0.426l-0.141,0.401c-0.587-0.138-1.137-0.372-1.637-0.681
			l0.184-0.381c0.115-0.238-0.114-0.717-0.496-1.099c-0.383-0.383-0.861-0.611-1.1-0.497l-0.382,0.184
			c-0.31-0.498-0.532-1.053-0.671-1.64l0.393-0.138c0.25-0.088,0.426-0.588,0.426-1.129c0-0.54-0.176-1.04-0.426-1.128l-0.402-0.141
			c0.139-0.589,0.381-1.134,0.689-1.633l0.373,0.179c0.238,0.115,0.717-0.113,1.1-0.496c0.382-0.383,0.611-0.86,0.496-1.1
			l-0.179-0.372c0.499-0.31,1.044-0.551,1.632-0.688l0.141,0.4c0.088,0.25,0.588,0.426,1.129,0.426s1.041-0.176,1.129-0.426
			l0.141-0.4c0.588,0.138,1.137,0.371,1.637,0.68l-0.184,0.381c-0.115,0.239,0.114,0.717,0.496,1.1
			c0.383,0.383,0.861,0.611,1.1,0.496l0.382-0.183c0.31,0.498,0.532,1.053,0.671,1.64l-0.393,0.138
			c-0.25,0.088-0.426,0.588-0.426,1.128c0,0.541,0.176,1.041,0.426,1.129l0.401,0.141C20.492,22.772,20.257,23.323,19.949,23.822z"
			/>
	</g>
</g>
</svg>
