<?xml version="1.0" encoding="utf-8"?>
<!-- Generated by IcoMoon.io -->
<!DOCTYPE svg PUBLIC "-//W3C//DTD SVG 1.1//EN" "http://www.w3.org/Graphics/SVG/1.1/DTD/svg11.dtd">
<svg version="1.1" xmlns="http://www.w3.org/2000/svg" xmlns:xlink="http://www.w3.org/1999/xlink" width="30" height="30" viewBox="0 0 30 30">
<g>
	<line stroke-width="1" x1="" y1="" x2="" y2="" stroke="#449FDB" opacity=""></line>
</g>
	<path d="M17.12 14.734l4.184-4.057c0.928-0.897 0.928-2.354 0-3.252l-7.096-6.342-0.030 10.798-5.364-5.2c-0.043-0.041-0.092-0.072-0.137-0.109h-0.042v-0.033c-0.052-0.041-0.1-0.087-0.153-0.123-0.293 0.798-0.556 1.638-0.787 2.514l5.991 5.808-5.983 5.8c0.23 0.875 0.493 1.713 0.786 2.51 0.051-0.035 0.097-0.080 0.146-0.117v-0.039h0.048c0.044-0.037 0.090-0.064 0.131-0.105l5.364-5.199v11.365l7.125-6.91c0.928-0.898 0.928-2.354 0-3.25l-4.183-4.059zM15.927 5.769l3.039 2.723c0.008 0.006 0.014 0.010 0.021 0.015 0.301 0.292 0.309 0.756 0.027 1.059l0.004 0.003-3.092 2.745v-6.545zM19.019 20.933l-3.092 2.724v-6.543l3.039 2.741c0.008 0.006 0.014 0.012 0.021 0.018 0.301 0.291 0.309 0.754 0.027 1.057l0.005 0.003z" fill="#000000"></path>
</svg>
