<?xml version="1.0" encoding="utf-8"?>
<!-- Generated by IcoMoon.io -->
<!DOCTYPE svg PUBLIC "-//W3C//DTD SVG 1.1//EN" "http://www.w3.org/Graphics/SVG/1.1/DTD/svg11.dtd">
<svg version="1.1" xmlns="http://www.w3.org/2000/svg" xmlns:xlink="http://www.w3.org/1999/xlink" width="30" height="30" viewBox="0 0 30 30">
<g>
	<line stroke-width="1" x1="" y1="" x2="" y2="" stroke="#449FDB" opacity=""></line>
</g>
	<path d="M20.424 19.792c0.59-0.326 1.172-0.717 1.748-1.135l5.516 4.883c-1.164 1.006-2.424 1.83-3.752 2.451-3.529-0.652-8.053-3.277-12.112-7.34-4.059-4.056-6.683-8.575-7.338-12.101 0.621-1.331 1.446-2.594 2.453-3.76l4.887 5.52c-0.419 0.576-0.81 1.159-1.135 1.748l0.021 0.022c-0.572 1.255 0.751 3.987 3.227 6.464 2.475 2.475 5.209 3.799 6.463 3.227l0.022 0.021z" fill="#000000"></path>
</svg>
