<?xml version="1.0" encoding="iso-8859-1"?>
<!-- Generator: Adobe Illustrator 16.0.0, SVG Export Plug-In . SVG Version: 6.00 Build 0)  -->
<!DOCTYPE svg PUBLIC "-//W3C//DTD SVG 1.1//EN" "http://www.w3.org/Graphics/SVG/1.1/DTD/svg11.dtd">
<svg version="1.1" id="Layer_1" xmlns="http://www.w3.org/2000/svg" xmlns:xlink="http://www.w3.org/1999/xlink" x="0px" y="0px"
	 width="30px" height="30px" viewBox="0 0 30 30" style="enable-background:new 0 0 30 30;" xml:space="preserve">
<g>
	<g>
		<path style="fill-rule:evenodd;clip-rule:evenodd;" d="M17.12,14.734l4.185-4.057c0.927-0.897,0.927-2.354,0-3.252l-7.127-6.908
			v11.365l-5.364-5.2c-0.043-0.042-0.092-0.073-0.137-0.11H8.635V6.539c-0.052-0.041-0.1-0.087-0.153-0.123
			C8.189,7.214,7.926,8.054,7.695,8.93l5.991,5.808l-5.983,5.801c0.23,0.875,0.493,1.713,0.786,2.509
			c0.051-0.035,0.097-0.079,0.146-0.117v-0.039h0.048c0.044-0.036,0.09-0.065,0.131-0.105l5.364-5.2v11.366l7.127-6.91
			c0.927-0.898,0.927-2.354,0-3.251L17.12,14.734z M16.173,5.783l2.794,2.708c0.007,0.006,0.014,0.01,0.021,0.015
			c0.3,0.292,0.308,0.756,0.028,1.059l0.003,0.003l-2.846,2.759V5.783z M19.019,20.934l-2.846,2.758v-6.544l2.794,2.708
			c0.007,0.006,0.014,0.01,0.021,0.016c0.3,0.291,0.308,0.755,0.028,1.058L19.019,20.934z"/>
	</g>
</g>
</svg>
