<?xml version="1.0" encoding="utf-8"?>
<!-- Generated by IcoMoon.io -->
<!DOCTYPE svg PUBLIC "-//W3C//DTD SVG 1.1//EN" "http://www.w3.org/Graphics/SVG/1.1/DTD/svg11.dtd">
<svg version="1.1" xmlns="http://www.w3.org/2000/svg" xmlns:xlink="http://www.w3.org/1999/xlink" width="30" height="30" viewBox="0 0 30 30">
<g>
	<line stroke-width="1" x1="" y1="" x2="" y2="" stroke="#449FDB" opacity=""></line>
</g>
	<path d="M9.831 4.031l-4.726-0.031c-0.783 0-1.105 0.459-1.105 1.024v19.921c0 0.565 0.385 1.023 1.168 1.023l4.57 0.031c0.783 0 1.262-0.459 1.262-1.023v-6.604c-0.321 0.059-0.471-0.025-0.721-0.248l-2.389-2.757c-0.396-0.353-0.396-0.924 0-1.276l2.389-2.696c0.25-0.223 0.399-0.269 0.721-0.21v-6.129c-0.001-0.566-0.386-1.025-1.169-1.025z" fill="#000000"></path>
	<path d="M24.682 4h-10.015c-0.553 0-1.25 0.448-1.25 1v20.004c0 0.553 0.795 0.996 1.349 0.996h10.016c0.553 0 1.219-0.443 1.219-0.996v-20.004c-0.001-0.551-0.767-1-1.319-1zM24.613 23.656c0 0.553-0.447 1-1 1h-7.712c-0.553 0-1-0.447-1-1l-0.020-17.281c0-0.553 0.447-1 1-1h7.712c0.553 0 1 0.447 1 1l0.020 17.281z" fill="#000000"></path>
	<path d="M17.68 11.22c0.281-0.058 0.447 0.006 0.667 0.225l2.672 2.672c0.345 0.346 0.345 0.905 0 1.251l-2.672 2.671c-0.22 0.22-0.386 0.283-0.667 0.226v-7.045z" fill="#000000"></path>
	<path d="M12.621 13.595h6.788v2.319h-6.93c0 0-2.326-0.297-2.326-1.198-0.001-0.876 2.468-1.121 2.468-1.121z" fill="#000000"></path>
</svg>
