<?xml version="1.0" encoding="utf-8"?>
<!-- Generated by IcoMoon.io -->
<!DOCTYPE svg PUBLIC "-//W3C//DTD SVG 1.1//EN" "http://www.w3.org/Graphics/SVG/1.1/DTD/svg11.dtd">
<svg version="1.1" xmlns="http://www.w3.org/2000/svg" xmlns:xlink="http://www.w3.org/1999/xlink" width="30" height="30" viewBox="0 0 30 30">
<g>
	<line stroke-width="1" x1="" y1="" x2="" y2="" stroke="#449FDB" opacity=""></line>
</g>
	<path d="M23.143 6.302l-1.768 1.413v15.939c0.816 0.166 1.657 0.166 2.475-0.002v-17.009c-0.231-0.122-0.47-0.231-0.707-0.341zM17.356 10.929v12.725c0.816 0.168 1.658 0.166 2.476 0v-14.493c-0.073-0.015-0.147-0.021-0.222-0.034l-2.254 1.802zM5.282 20.585v3.069c0.816 0.166 1.658 0.166 2.475-0.002v-4.24c-0.289-0.059-0.581-0.089-0.875-0.105l-1.6 1.278zM9.356 17.326v6.328c0.816 0.166 1.658 0.166 2.475-0.002v-7.657c-0.228-0.046-0.458-0.077-0.688-0.097l-1.787 1.428zM13.347 14.136v9.519c0.816 0.166 1.657 0.166 2.474-0.002v-11.075c-0.146-0.030-0.293-0.048-0.44-0.067l-2.034 1.625z" fill="#000000"></path>
</svg>
