<?xml version="1.0" encoding="utf-8"?>
<!-- Generated by IcoMoon.io -->
<!DOCTYPE svg PUBLIC "-//W3C//DTD SVG 1.1//EN" "http://www.w3.org/Graphics/SVG/1.1/DTD/svg11.dtd">
<svg version="1.1" xmlns="http://www.w3.org/2000/svg" xmlns:xlink="http://www.w3.org/1999/xlink" width="30" height="30" viewBox="0 0 30 30">
<g>
	<line stroke-width="1" x1="" y1="" x2="" y2="" stroke="#449FDB" opacity=""></line>
</g>
	<path d="M21.599 27.016l-14.364 0.004c-0.659 0-1.193-0.535-1.193-1.193v-11.283c0-0.66 0.534-1.193 1.193-1.193h0.613v-3.627h0.001c0.001-3.713 2.886-6.65 6.599-6.65s6.567 2.655 6.567 6.369c0 0.008-0.002 0.016-0.002 0.025v3.603l0.303-0.003c0.66 0 1.476 0.816 1.476 1.475v11.28c0 0.657-0.533 1.193-1.193 1.193zM18.896 9.724c0-2.386-1.936-4.32-4.321-4.32s-4.321 1.934-4.322 4.32h0.028v3.628h8.584v-3.628h0.031z" fill="#000000"></path>
</svg>
