<?xml version="1.0" encoding="utf-8"?>
<!-- Generated by IcoMoon.io -->
<!DOCTYPE svg PUBLIC "-//W3C//DTD SVG 1.1//EN" "http://www.w3.org/Graphics/SVG/1.1/DTD/svg11.dtd">
<svg version="1.1" xmlns="http://www.w3.org/2000/svg" xmlns:xlink="http://www.w3.org/1999/xlink" width="30" height="30" viewBox="0 0 30 30">
<g>
	<line stroke-width="1" x1="" y1="" x2="" y2="" stroke="#449FDB" opacity=""></line>
</g>
	<path d="M4.742 20.938c0.438 1.264 1.553 1.979 2.821 1.979h15.875c1.27 0 2.318-0.718 2.754-1.979h-21.45zM13.653 17.227c1.035 1.006 2.713 1.006 3.748 0l8.008-7.776c0.302-0.294 0.496-0.642 0.609-1.009-1.037-0.21-2.115-0.391-3.232-0.538l-0.826 0.803c-0.012 0.014-0.014 0.031-0.028 0.045l-6.063 5.89c-0.19 0.185-0.498 0.185-0.688 0l-6.064-5.89c-0.015-0.016-0.017-0.035-0.030-0.050l-0.822-0.8c-1.117 0.148-2.195 0.328-3.229 0.538 0.114 0.367 0.309 0.715 0.61 1.009l8.007 7.778z" fill="#000000"></path>
</svg>
