<?xml version="1.0" encoding="utf-8"?>
<!-- Generated by IcoMoon.io -->
<!DOCTYPE svg PUBLIC "-//W3C//DTD SVG 1.1//EN" "http://www.w3.org/Graphics/SVG/1.1/DTD/svg11.dtd">
<svg version="1.1" xmlns="http://www.w3.org/2000/svg" xmlns:xlink="http://www.w3.org/1999/xlink" width="30" height="30" viewBox="0 0 30 30">
<g>
	<line stroke-width="1" x1="" y1="" x2="" y2="" stroke="#449FDB" opacity=""></line>
</g>
	<path d="M17.985 11.181c2.643-8.426-0.584-7.912-0.584-7.912l-0.004 0.049c-0.008-0.008-0.014-0.019-0.021-0.026-1.234 5.654-3.713 9.384-7.293 9.891v10.9c1.919 0.717 3.85 1.424 6.299 1.424 1.381 0 2.707-0.139 3.947-0.383 1.693-2.172 3.039-5.73 3.523-9.912 0.104-0.882 0.148-1.741 0.166-2.585-1.701-0.786-3.779-1.276-6.033-1.446zM5.083 27.083c0.138-0.006 0.284-0.037 0.441-0.102 0.982-0.404 1.67-0.641 2.179-1.096 0.73-3.285 1.188-7.918 1.199-13.062l-3.819 0.282v13.978z" fill="#000000"></path>
</svg>
