<?xml version="1.0" encoding="utf-8"?>
<!-- Generated by IcoMoon.io -->
<!DOCTYPE svg PUBLIC "-//W3C//DTD SVG 1.1//EN" "http://www.w3.org/Graphics/SVG/1.1/DTD/svg11.dtd">
<svg version="1.1" xmlns="http://www.w3.org/2000/svg" xmlns:xlink="http://www.w3.org/1999/xlink" width="30" height="30" viewBox="0 0 30 30">
<g>
	<line stroke-width="1" x1="" y1="" x2="" y2="" stroke="#449FDB" opacity=""></line>
</g>
	<path d="M19.77 2.192l0.157-0.161h-11.275c-0.912 0-1.652 0.799-1.652 1.786v21.429c0 0.986 0.676 1.738 1.587 1.738h13.538c0.973 0 1.826-0.752 1.826-1.738v-18.815l-4.181-4.239zM15.979 12.984h2.027v3.036h-2.027v-3.036zM13 12.984h2.047v3.029l-2.047 0.008v-3.037zM9.992 14.383c0-0.766 0.641-1.398 1.397-1.398h0.626v3.043l-2.023-0.035v-1.61zM12.031 24.029h-0.605c-0.756 0-1.457-0.582-1.457-1.348l0.010-1.692h2.062l-0.010 3.040zM15.031 24.029h-2.047v-3.040h2.047v3.040zM18.006 24.029h-2.027v-3.040h2.027v3.040zM21.016 22.703c0 0.766-0.74 1.326-1.496 1.326h-0.555l0.015-3.056v-0.958l-8.981 0.006-0.002-3.029h0.021v-0.023h8.945l2.050 0.021 0.003 5.713zM21 16.016l-2.035 0.004v-3.035h0.639c0.756 0 1.396 0.656 1.396 1.422v1.609z" fill="#000000"></path>
</svg>
