<?xml version="1.0" encoding="utf-8"?>
<!-- Generated by IcoMoon.io -->
<!DOCTYPE svg PUBLIC "-//W3C//DTD SVG 1.1//EN" "http://www.w3.org/Graphics/SVG/1.1/DTD/svg11.dtd">
<svg version="1.1" xmlns="http://www.w3.org/2000/svg" xmlns:xlink="http://www.w3.org/1999/xlink" width="30" height="30" viewBox="0 0 30 30">
<g>
	<line stroke-width="1" x1="" y1="" x2="" y2="" stroke="#449FDB" opacity=""></line>
</g>
	<path d="M24.946 6.998h-19.988c-1.109 0-2.007 0.903-1.997 1.872v11.939c-0.010 1.251 0.888 2.149 1.997 2.149h19.988c1.107 0 2.012-0.898 2.012-2.008v-11.939c0-1.11-0.902-2.013-2.012-2.013zM19.927 9.906h2.049l0.002 2.095h-2.062l0.011-2.095zM21.974 13.926l-0.010 2.062h-2.006v-2.062h2.016zM16.958 9.906h2.031l-0.012 2.095h-2.047l0.028-2.095zM18.989 13.926v2.062h-2.031v-2.062h2.031zM13.942 9.906h2.047l-0.029 2.095h-2.046l0.028-2.095zM15.962 13.957v2.031l-2.007-0.030 0.003-2.031 2.004 0.030zM10.958 9.906h2.016l-0.012 2.095h-2.031l0.027-2.095zM10.942 13.926h2.021l0.011 2.062h-2.031l-0.001-2.062zM9.989 9.906l-0.012 2.095h-2.031l-0.004-2.095h2.047zM9.989 13.926v2.062h-2.052l-0.010-2.062h2.062zM4.911 9.906h2.062l-0.012 2.095h-2.062l0.012-2.095zM4.911 13.926h2.078v2.062h-2.078v-2.062zM8.958 19.958l-4.026 0.056-0.005-2.087 4.034 0.031-0.003 2zM9.954 20.014l0.004-2.087 10.004 0.031 0.008 2.056h-10.016zM24.958 19.998l-4.004 0.016-0.012-2.087 4.020 0.031-0.004 2.040zM24.962 15.988l-2.004-0.030v-2.032l2.004 0.031v2.031zM22.915 12.001l0.035-2.096h2.014l-0.002 2.096h-2.047z" fill="#000000"></path>
</svg>
