<?xml version="1.0" encoding="utf-8"?>
<!-- Generated by IcoMoon.io -->
<!DOCTYPE svg PUBLIC "-//W3C//DTD SVG 1.1//EN" "http://www.w3.org/Graphics/SVG/1.1/DTD/svg11.dtd">
<svg version="1.1" xmlns="http://www.w3.org/2000/svg" xmlns:xlink="http://www.w3.org/1999/xlink" width="30" height="30" viewBox="0 0 30 30">
<g>
	<line stroke-width="1" x1="" y1="" x2="" y2="" stroke="#449FDB" opacity=""></line>
</g>
	<path d="M15.001 9.224c-3.191 0-5.776 2.586-5.776 5.776s2.584 5.775 5.776 5.775c3.189 0 5.776-2.585 5.776-5.775s-2.587-5.776-5.776-5.776zM24.135 5h-18.278c-1.656 0-2.857 1.293-2.857 2.95v14.101c0 1.656 1.201 2.949 2.857 2.949h19.143c1.658 0 2-1.293 2-2.949v-14.101c0-1.657-1.207-2.95-2.865-2.95zM15.003 22.198c-3.975 0-7.197-3.223-7.197-7.198s3.223-7.198 7.197-7.198c3.974 0 7.2 3.223 7.2 7.198s-3.225 7.198-7.2 7.198z" fill="#000000"></path>
</svg>
