<?xml version="1.0" encoding="utf-8"?>
<!-- Generated by IcoMoon.io -->
<!DOCTYPE svg PUBLIC "-//W3C//DTD SVG 1.1//EN" "http://www.w3.org/Graphics/SVG/1.1/DTD/svg11.dtd">
<svg version="1.1" xmlns="http://www.w3.org/2000/svg" xmlns:xlink="http://www.w3.org/1999/xlink" width="30" height="30" viewBox="0 0 30 30">
<g>
	<line stroke-width="1" x1="" y1="" x2="" y2="" stroke="#449FDB" opacity=""></line>
</g>
	<path d="M14.844 8.861v-1.023h-4.132v-1.635h-1.268v1.636h-4.295v1.022h1.676c0.41 1.718 1.173 3.148 2.291 4.296-1.118 0.734-2.454 1.295-4.008 1.676 0.3 0.438 0.531 0.804 0.695 1.104 1.826-0.654 3.217-1.321 4.172-2.003 0.451 0.313 1 0.597 1.579 0.876 0.176-0.341 0.335-0.694 0.549-1.011-0.418-0.204-0.853-0.4-1.188-0.643 1.091-1.147 1.841-2.578 2.25-4.296l1.679 0.001zM9.976 12.42c-0.955-0.929-1.609-2.113-1.963-3.56h3.927c-0.301 1.474-0.956 2.659-1.964 3.56zM9.909 18.589c-4.242 0-7.693-3.451-7.693-7.692s3.451-7.693 7.693-7.693c3.896 0 7.092 2.922 7.594 6.683 0.406-0.121 0.816-0.227 1.244-0.293-0.637-4.323-4.339-7.664-8.838-7.664-4.945 0-8.968 4.022-8.968 8.968 0 4.945 4.022 8.968 8.968 8.968 0.195 0 0.377-0.047 0.569-0.059-0.011-0.176-0.053-0.342-0.053-0.518 0-0.26 0.058-0.506 0.077-0.76-0.198 0.017-0.39 0.060-0.593 0.060zM20.218 15.154l-1.762 5.037h3.572l-1.744-5.037h-0.066zM20.276 10.506c-4.851 0-8.783 3.931-8.783 8.784 0 4.848 3.934 8.779 8.783 8.779 4.852 0 8.783-3.932 8.783-8.779 0.001-4.853-3.931-8.784-8.783-8.784zM23.271 23.759l-0.865-2.469h-4.322l-0.865 2.469h-1.566l3.652-9.835h1.957l3.641 9.835h-1.632z" fill="#000000"></path>
</svg>
