<?xml version="1.0" encoding="utf-8"?>
<!-- Generated by IcoMoon.io -->
<!DOCTYPE svg PUBLIC "-//W3C//DTD SVG 1.1//EN" "http://www.w3.org/Graphics/SVG/1.1/DTD/svg11.dtd">
<svg version="1.1" xmlns="http://www.w3.org/2000/svg" xmlns:xlink="http://www.w3.org/1999/xlink" width="30" height="30" viewBox="0 0 30 30">
<g>
	<line stroke-width="1" x1="" y1="" x2="" y2="" stroke="#449FDB" opacity=""></line>
</g>
	<path d="M15 4.067c-5.797 0-10.497 4.699-10.497 10.495 0 5.079 3.608 9.313 8.401 10.286l1.311-9.371 2.285-0.019-1.167 9.458c5.78-0.020 10.165-4.569 10.165-10.354 0-5.795-4.699-10.495-10.498-10.495zM16.926 12.335c-0.286 0.285-0.657 0.428-1.111 0.428-0.445 0-0.809-0.144-1.094-0.428-0.287-0.286-0.429-0.637-0.429-1.056 0-0.404 0.142-0.75 0.429-1.035 0.285-0.285 0.649-0.427 1.094-0.427 0.454 0 0.825 0.143 1.111 0.427 0.286 0.287 0.427 0.631 0.427 1.035 0 0.419-0.141 0.771-0.427 1.056z" fill="#000000"></path>
</svg>
