<?xml version="1.0" encoding="utf-8"?>
<!-- Generated by IcoMoon.io -->
<!DOCTYPE svg PUBLIC "-//W3C//DTD SVG 1.1//EN" "http://www.w3.org/Graphics/SVG/1.1/DTD/svg11.dtd">
<svg version="1.1" xmlns="http://www.w3.org/2000/svg" xmlns:xlink="http://www.w3.org/1999/xlink" width="30" height="30" viewBox="0 0 30 30">
<g>
	<line stroke-width="1" x1="" y1="" x2="" y2="" stroke="#449FDB" opacity=""></line>
</g>
	<path d="M23.23 9.572c-0.197-0.339-0.398-0.581-0.797-0.581h-1.439v-3.162c0-0.298-0.535-0.837-0.832-0.837h-3.328c-0.297 0-0.832 0.539-0.832 0.837v3.162c-1.089 0-2.015-0.042-2.015-0.042v0.005c-0.041 0 0.043 0 0 0v-2.996c0-0.298-0.517-0.966-0.813-0.966h-3.328c-0.296 0-0.833 0.539-0.833 0.837v3.163c-0.773 0-1.341-0.001-1.446-0.001-0.399 0-0.6 0.242-0.799 0.581-2.795 4.767-3.12 9.253-2.496 14.748 0.069 0.603 0.603 0.638 0.728 0.638s5.726 0 6.025 0c0.3 0 0.972-0.326 0.972-0.787 0-0.459 0.003-5.17 0.003-5.17h6.004c0 0 0.002 4.711 0.002 5.17 0 0.461 0.723 0.787 1.023 0.787s5.904 0 6.027 0c0.125 0 0.602-0.033 0.67-0.639 0.626-5.494 0.301-9.98-2.496-14.747zM16.004 17.251l-2.017-0.042v-6.532l1.011 0.048v-0.019l0.006 0.013h1v6.532z" fill="#000000"></path>
</svg>
