<?xml version="1.0" encoding="iso-8859-1"?>
<!-- Generator: Adobe Illustrator 16.0.0, SVG Export Plug-In . SVG Version: 6.00 Build 0)  -->
<!DOCTYPE svg PUBLIC "-//W3C//DTD SVG 1.1//EN" "http://www.w3.org/Graphics/SVG/1.1/DTD/svg11.dtd">
<svg version="1.1" id="Layer_1" xmlns="http://www.w3.org/2000/svg" xmlns:xlink="http://www.w3.org/1999/xlink" x="0px" y="0px"
	 width="30px" height="30px" viewBox="0 0 30 30" style="enable-background:new 0 0 30 30;" xml:space="preserve">
<g>
	<g>
		<path style="fill-rule:evenodd;clip-rule:evenodd;" d="M26.786,15.084c0-1.02-3.1-1.876-7.317-2.135l-6.337-7.437
			C12.773,5.044,10.965,5,10.965,5H9.528l4.039,8.102c-2.133,0.25-4.511,0.685-5.796,1.215l-2.249-3.11
			c-0.286-0.5-0.813-0.5-0.813-0.5H3.214l1.946,4.571L3.215,19.85H4.71c0,0,0.528,0,0.813-0.5l2.458-3.402
			c1.307,0.484,3.507,0.879,5.503,1.116L9.532,25l2.768-0.001c0,0,0.477-0.045,0.835-0.513l6.178-7.255
			C23.61,16.982,26.787,16.117,26.786,15.084z"/>
	</g>
</g>
</svg>
