<?xml version="1.0" encoding="utf-8"?>
<!-- Generated by IcoMoon.io -->
<!DOCTYPE svg PUBLIC "-//W3C//DTD SVG 1.1//EN" "http://www.w3.org/Graphics/SVG/1.1/DTD/svg11.dtd">
<svg version="1.1" xmlns="http://www.w3.org/2000/svg" xmlns:xlink="http://www.w3.org/1999/xlink" width="30" height="30" viewBox="0 0 30 30">
<g>
	<line stroke-width="1" x1="" y1="" x2="" y2="" stroke="#449FDB" opacity=""></line>
</g>
	<path d="M15.004 3c-6.629 0-12.004 5.373-12.004 12.001s5.375 11.999 12.004 11.999c6.631 0 11.996-5.371 11.996-11.999s-5.365-12.001-11.996-12.001zM15.431 21.479c-0.211 0.215-0.475 0.322-0.791 0.322-0.305 0-0.562-0.107-0.773-0.322s-0.315-0.475-0.315-0.781c0-0.305 0.105-0.562 0.315-0.771 0.211-0.211 0.468-0.316 0.773-0.316 0.315 0 0.58 0.105 0.791 0.316 0.209 0.209 0.315 0.467 0.315 0.771 0 0.306-0.106 0.566-0.315 0.781zM18.412 13.162c-0.162 0.315-0.363 0.591-0.602 0.823s-0.498 0.443-0.779 0.627c-0.279 0.186-0.539 0.385-0.779 0.6s-0.438 0.464-0.6 0.743c-0.165 0.282-0.245 0.637-0.245 1.067v0.527h-1.629v-0.615c0-0.49 0.076-0.902 0.232-1.239 0.154-0.333 0.349-0.626 0.583-0.877 0.232-0.251 0.488-0.475 0.761-0.672 0.276-0.196 0.53-0.394 0.762-0.591 0.235-0.196 0.429-0.409 0.583-0.638 0.154-0.226 0.398-0.958 0.398-1.291 0-0.501-0.328-0.86-0.658-1.123s-0.786-0.396-1.372-0.396c-0.418 0-0.835 0.102-1.254 0.306-0.418 0.202-0.956 0.674-1.325 1.128l-1.149-0.86c0.525-0.61 1.236-1.402 1.847-1.694 0.609-0.293 1.29-0.439 2.042-0.439 0.561 0 1.060 0.078 1.489 0.232s0.955 0.493 1.24 0.755c0.287 0.264 0.479 0.634 0.621 0.969 0.144 0.333 0.206 1.107 0.206 1.466 0.002 0.476-0.212 0.874-0.372 1.192z" fill="#000000"></path>
</svg>
