<?xml version="1.0" encoding="utf-8"?>
<!-- Generated by IcoMoon.io -->
<!DOCTYPE svg PUBLIC "-//W3C//DTD SVG 1.1//EN" "http://www.w3.org/Graphics/SVG/1.1/DTD/svg11.dtd">
<svg version="1.1" xmlns="http://www.w3.org/2000/svg" xmlns:xlink="http://www.w3.org/1999/xlink" width="30" height="30" viewBox="0 0 30 30">
<g>
	<line stroke-width="1" x1="" y1="" x2="" y2="" stroke="#449FDB" opacity=""></line>
</g>
	<path d="M22.268 11.236c-0.815-0.465-1.686-0.753-2.564-0.89-0.485-1.846-1.686-3.509-3.487-4.536-3.566-2.034-8.141-0.823-10.199 2.7s-0.833 8.043 2.733 10.077c3.565 2.034 8.141 0.823 10.199-2.7 0.627-1.073 0.945-2.239 0.99-3.399 0.444 0.118 0.884 0.273 1.301 0.511 2.58 1.472 3.469 4.745 1.979 7.295s-4.802 3.427-7.383 1.955c-0.626-0.356-1.148-0.824-1.566-1.358-0.787 0.142-1.596 0.157-2.4 0.043 0.632 1.246 1.623 2.332 2.934 3.080 3.565 2.033 8.141 0.822 10.199-2.701 2.057-3.521 0.829-8.042-2.736-10.077zM17.516 14.106c0.005-0.004 0.010-0.008 0.016-0.012-0.014 0.040-0.035 0.075-0.050 0.114-0.021 0.051-0.046 0.102-0.067 0.153-0.815 1.965-2.708 3.358-4.969 3.358-2.999 0-5.43-2.431-5.43-5.43 0-2.873 2.232-5.218 5.056-5.411 0.029-0.002 0.059-0.003 0.088-0.004 0.095-0.005 0.189-0.015 0.286-0.015 0.21 0 0.418 0.014 0.622 0.038 0.102 0.011 0.201 0.034 0.302 0.051 0.184 0.032 0.364 0.071 0.541 0.121 0.436 0.118 0.865 0.271 1.274 0.505 1.126 0.643 1.907 1.636 2.332 2.754-2.204 0.303-4.25 1.562-5.447 3.609-0.331 0.567-0.569 1.159-0.731 1.763 0.707 0.16 1.422 0.197 2.127 0.119 0.105-0.293 0.228-0.584 0.392-0.864 0.876-1.499 2.385-2.4 4-2.605-0.016 0.591-0.128 1.184-0.342 1.756z" fill="#000000"></path>
</svg>
