<?xml version="1.0" encoding="utf-8"?>
<!-- Generated by IcoMoon.io -->
<!DOCTYPE svg PUBLIC "-//W3C//DTD SVG 1.1//EN" "http://www.w3.org/Graphics/SVG/1.1/DTD/svg11.dtd">
<svg version="1.1" xmlns="http://www.w3.org/2000/svg" xmlns:xlink="http://www.w3.org/1999/xlink" width="30" height="30" viewBox="0 0 30 30">
<g>
	<line stroke-width="1" x1="" y1="" x2="" y2="" stroke="#449FDB" opacity=""></line>
</g>
	<path d="M19 11.090c-0.945-0.947-2.252-1.533-3.695-1.533-2.885 0-5.224 2.339-5.224 5.223 0 2.885 2.338 5.223 5.224 5.223 2.882 0 5.24-2.088 5.242-4.972l-5.688-0.016 4.141-3.925zM19.709 4.127h-12.13c-0.872 0-1.579 0.754-1.579 1.685v18.536c0 0.93 0.707 1.685 1.579 1.685h14.736c0.932 0 1.686-0.755 1.686-1.685v-16.064l-4.292-4.157zM15.311 21.201c-3.538 0-6.406-2.875-6.406-6.422s2.868-6.421 6.406-6.421c3.537 0 6.405 2.875 6.405 6.421s-2.868 6.422-6.405 6.422z" fill="#000000"></path>
</svg>
