<?xml version="1.0" encoding="utf-8"?>
<!-- Generated by IcoMoon.io -->
<!DOCTYPE svg PUBLIC "-//W3C//DTD SVG 1.1//EN" "http://www.w3.org/Graphics/SVG/1.1/DTD/svg11.dtd">
<svg version="1.1" xmlns="http://www.w3.org/2000/svg" xmlns:xlink="http://www.w3.org/1999/xlink" width="30" height="30" viewBox="0 0 30 30">
<g>
	<line stroke-width="1" x1="" y1="" x2="" y2="" stroke="#449FDB" opacity=""></line>
</g>
	<path d="M18.308 6.951c0.374 0.156 0.794 0.101 1.204-0.106l1.606-3.836c-0.139-0.435-0.394-0.777-0.766-0.934-0.364-0.152-0.773-0.104-1.17 0.088l-1.632 3.89c0.142 0.418 0.395 0.744 0.758 0.898zM6.053 12.431c0.419-0.141 0.745-0.394 0.899-0.756 0.157-0.373 0.099-0.796-0.107-1.204l-3.835-1.608c-0.436 0.14-0.778 0.395-0.935 0.769-0.152 0.362-0.104 0.771 0.088 1.168l3.89 1.631zM6.035 17.555l-3.85 1.576c-0.21 0.406-0.271 0.828-0.118 1.203 0.148 0.363 0.473 0.619 0.891 0.766l3.902-1.598c0.197-0.396 0.249-0.805 0.102-1.17-0.153-0.373-0.493-0.633-0.927-0.777zM11.652 6.96c0.373-0.153 0.631-0.491 0.774-0.926l-1.576-3.85c-0.404-0.21-0.828-0.271-1.201-0.117-0.365 0.147-0.62 0.472-0.766 0.89l1.596 3.902c0.399 0.198 0.806 0.251 1.173 0.101zM11.675 23.031c-0.372-0.156-0.795-0.102-1.204 0.105l-1.607 3.836c0.139 0.436 0.395 0.779 0.766 0.936 0.365 0.152 0.774 0.102 1.173-0.090l1.629-3.889c-0.14-0.417-0.395-0.745-0.757-0.898zM23.947 12.426l3.849-1.574c0.211-0.406 0.271-0.828 0.119-1.203-0.147-0.365-0.473-0.62-0.889-0.766l-3.905 1.597c-0.194 0.396-0.248 0.806-0.101 1.171 0.155 0.375 0.493 0.633 0.927 0.775zM27.818 19.182l-3.887-1.631c-0.421 0.141-0.748 0.395-0.899 0.756-0.157 0.371-0.102 0.797 0.104 1.205l3.836 1.605c0.437-0.139 0.778-0.393 0.936-0.764 0.153-0.363 0.103-0.775-0.090-1.171zM18.332 23.020c-0.376 0.154-0.633 0.492-0.776 0.928l1.575 3.848c0.405 0.211 0.828 0.273 1.202 0.119 0.364-0.146 0.622-0.473 0.766-0.889l-1.596-3.902c-0.397-0.198-0.806-0.251-1.171-0.104zM15 8c-3.871 0-7 3.127-7 7s3.129 7 7 7c3.874 0 6.99-3.127 6.99-7s-3.116-7-6.99-7z" fill="#000000"></path>
</svg>
