<?xml version="1.0" encoding="iso-8859-1"?>
<!-- Generator: Adobe Illustrator 16.0.0, SVG Export Plug-In . SVG Version: 6.00 Build 0)  -->
<!DOCTYPE svg PUBLIC "-//W3C//DTD SVG 1.1//EN" "http://www.w3.org/Graphics/SVG/1.1/DTD/svg11.dtd">
<svg version="1.1" id="Layer_1" xmlns="http://www.w3.org/2000/svg" xmlns:xlink="http://www.w3.org/1999/xlink" x="0px" y="0px"
	 width="30px" height="30px" viewBox="0 0 30 30" style="enable-background:new 0 0 30 30;" xml:space="preserve">
<g>
	<g>
		<path style="fill-rule:evenodd;clip-rule:evenodd;" d="M26.968,11.138c0-0.93-5.188-1.683-11.587-1.683
			c-6.4,0-11.588,0.753-11.588,1.683c0,0.776,3.623,1.429,8.543,1.623c0.271,0.595,0.568,1.216,0.896,1.863
			c-0.263,0.433-0.526,0.874-0.79,1.329c-3.199,5.542-5.049,10.465-4.131,10.994c0.882,0.509,3.991-3.216,7.068-8.414
			c3.077,5.198,6.187,8.923,7.068,8.414c0.918-0.529-0.932-5.452-4.131-10.994c-0.263-0.455-0.526-0.896-0.789-1.33
			c0.326-0.646,0.624-1.268,0.896-1.862C23.344,12.566,26.968,11.914,26.968,11.138z M15.38,8.327c1.863,0,3.373-1.511,3.373-3.374
			c0-1.862-1.51-3.373-3.373-3.373s-3.374,1.511-3.374,3.373C12.006,6.816,13.517,8.327,15.38,8.327z"/>
	</g>
</g>
</svg>
