<?xml version="1.0" encoding="utf-8"?>
<!-- Generated by IcoMoon.io -->
<!DOCTYPE svg PUBLIC "-//W3C//DTD SVG 1.1//EN" "http://www.w3.org/Graphics/SVG/1.1/DTD/svg11.dtd">
<svg version="1.1" xmlns="http://www.w3.org/2000/svg" xmlns:xlink="http://www.w3.org/1999/xlink" width="30" height="30" viewBox="0 0 30 30">
<g>
	<line stroke-width="1" x1="" y1="" x2="" y2="" stroke="#449FDB" opacity=""></line>
</g>
	<path d="M18.908 11.951c-0.021 0-0.044 0.002-0.066 0.002v-7.484c0-0.856-0.695-1.469-1.554-1.469h-11.662c-0.857 0-1.626 0.613-1.626 1.469v19.908c0 0.854 0.769 1.623 1.626 1.623h8.006c1.41 1.234 3.253 1.918 5.275 1.918 4.418 0 7.999-3.573 7.999-7.984 0.001-4.409-3.58-7.983-7.998-7.983zM12.038 24.828c0 0.109-0.090 0.199-0.2 0.199l-1.65-0.018c-0.11 0-0.2-0.090-0.2-0.199v-1.701c0-0.109 0.090-0.197 0.2-0.197l1.308 0.018c0.153 0.377 0.337 0.734 0.543 1.080v0.818zM17.172 12.144c-3.582 0.792-6.122 3.976-6.122 7.79 0 1.066-0.050 2.066 0.129 2.066h-4.47c-0.349 0-0.709-0.32-0.709-0.666v-15.786c0-0.347 0.36-0.629 0.708-0.629h9.834c0.347 0 0.629 0.282 0.629 0.629v6.596zM20.055 25.062h-2.138v-7.116h2.138v7.116zM19.887 16.814c-0.239 0.234-0.521 0.404-0.887 0.404-0.37 0-0.695-0.17-0.93-0.404s-0.289-0.472-0.289-0.814c0-0.332 0.055-0.663 0.289-0.896s0.56-0.323 0.93-0.323c0.365 0 0.647 0.090 0.887 0.323s0.332 0.564 0.332 0.896c0 0.343-0.092 0.581-0.332 0.814z" fill="#000000"></path>
</svg>
