<?xml version="1.0" encoding="utf-8"?>
<!-- Generated by IcoMoon.io -->
<!DOCTYPE svg PUBLIC "-//W3C//DTD SVG 1.1//EN" "http://www.w3.org/Graphics/SVG/1.1/DTD/svg11.dtd">
<svg version="1.1" xmlns="http://www.w3.org/2000/svg" xmlns:xlink="http://www.w3.org/1999/xlink" width="30" height="30" viewBox="0 0 30 30">
<g>
	<line stroke-width="1" x1="" y1="" x2="" y2="" stroke="#449FDB" opacity=""></line>
</g>
	<path d="M24.437 14.938c0-1.121 0.364-2.158 0.883-2.339l0.833-0.292c-0.289-1.216-0.769-2.359-1.41-3.392l-0.791 0.38c-0.495 0.238-1.486-0.237-2.278-1.029s-1.268-1.784-1.029-2.279l0.379-0.79c-1.034-0.639-2.174-1.123-3.392-1.41l-0.292 0.831c-0.183 0.518-1.219 0.883-2.34 0.883s-2.157-0.365-2.339-0.883l-0.291-0.831c-1.22 0.287-2.35 0.787-3.384 1.428l0.371 0.771c0.238 0.495-0.237 1.486-1.030 2.279s-1.783 1.267-2.278 1.029l-0.772-0.371c-0.641 1.034-1.142 2.165-1.429 3.383l0.833 0.292c0.519 0.182 0.883 1.218 0.883 2.339 0 1.12-0.365 2.157-0.883 2.339l-0.833 0.292c0.289 1.217 0.769 2.359 1.41 3.393l0.792-0.38c0.495-0.239 1.486 0.236 2.278 1.028s1.268 1.783 1.030 2.279l-0.38 0.789c1.034 0.64 2.174 1.124 3.392 1.41l0.292-0.831c0.182-0.519 1.218-0.883 2.339-0.883s2.157 0.364 2.339 0.883l0.292 0.833c1.217-0.289 2.359-0.769 3.393-1.41l-0.38-0.791c-0.238-0.496 0.236-1.486 1.029-2.279s1.783-1.268 2.278-1.028l0.79 0.379c0.639-1.034 1.123-2.175 1.409-3.393l-0.831-0.291c-0.519-0.181-0.883-1.218-0.883-2.338zM15 20.986c-3.34 0-6.048-2.709-6.048-6.049s2.708-6.049 6.048-6.049c3.341 0 6.049 2.708 6.049 6.049 0 3.34-2.708 6.049-6.049 6.049z" fill="#000000"></path>
</svg>
