<?xml version="1.0" encoding="utf-8"?>
<!-- Generated by IcoMoon.io -->
<!DOCTYPE svg PUBLIC "-//W3C//DTD SVG 1.1//EN" "http://www.w3.org/Graphics/SVG/1.1/DTD/svg11.dtd">
<svg version="1.1" xmlns="http://www.w3.org/2000/svg" xmlns:xlink="http://www.w3.org/1999/xlink" width="30" height="30" viewBox="0 0 30 30">
<g>
	<line stroke-width="1" x1="" y1="" x2="" y2="" stroke="#449FDB" opacity=""></line>
</g>
	<path d="M13.3 4.338c-5.797 0-10.497 4.698-10.497 10.496s4.7 10.496 10.497 10.496c5.798 0 10.497-4.699 10.497-10.496 0-5.798-4.699-10.496-10.497-10.496zM13.657 20.757c-0.199 0.203-0.447 0.306-0.745 0.306-0.288 0-0.532-0.103-0.73-0.306-0.199-0.203-0.298-0.449-0.298-0.737s0.099-0.532 0.298-0.73c0.198-0.199 0.442-0.298 0.73-0.298 0.298 0 0.546 0.099 0.745 0.298 0.198 0.198 0.298 0.442 0.298 0.73s-0.1 0.534-0.298 0.737zM16.475 13.040c-0.152 0.299-0.342 0.559-0.567 0.778-0.227 0.221-0.472 0.418-0.737 0.593s-0.511 0.364-0.736 0.567-0.415 0.438-0.567 0.703-0.229 0.601-0.229 1.008v0.496h-1.541v-0.581c0-0.463 0.073-0.853 0.22-1.168s0.331-0.593 0.551-0.83 0.46-0.449 0.72-0.636c0.26-0.186 0.5-0.372 0.72-0.559s0.403-0.387 0.551-0.602c0.146-0.214 0.377-0.904 0.377-1.221 0-0.475-0.312-0.813-0.623-1.062s-0.742-0.373-1.296-0.373c-0.395 0-0.79 0.097-1.185 0.288-0.396 0.192-0.902 0.637-1.253 1.065l-1.083-0.812c0.496-0.575 1.167-1.324 1.743-1.601s1.219-0.415 1.931-0.415c0.53 0 0.999 0.073 1.405 0.22s0.902 0.466 1.173 0.714 0.452 0.598 0.587 0.914c0.136 0.316 0.194 1.047 0.194 1.385-0.002 0.454-0.203 0.83-0.355 1.129z" fill="#000000"></path>
</svg>
