<?xml version="1.0" encoding="iso-8859-1"?>
<!-- Generator: Adobe Illustrator 16.0.0, SVG Export Plug-In . SVG Version: 6.00 Build 0)  -->
<!DOCTYPE svg PUBLIC "-//W3C//DTD SVG 1.1//EN" "http://www.w3.org/Graphics/SVG/1.1/DTD/svg11.dtd">
<svg version="1.1" id="Layer_1" xmlns="http://www.w3.org/2000/svg" xmlns:xlink="http://www.w3.org/1999/xlink" x="0px" y="0px"
	 width="30px" height="30px" viewBox="0 0 30 30" style="enable-background:new 0 0 30 30;" xml:space="preserve">
<g>
	<g>
		<g>
			<path style="fill-rule:evenodd;clip-rule:evenodd;" d="M25.437,14.982c0-1.749-0.239-3.312-0.614-4.348V9.38h-0.891
				c-0.062-0.022-0.123-0.036-0.187-0.036S23.62,9.357,23.559,9.38H5.421C5.359,9.357,5.297,9.344,5.234,9.344
				c-0.935,0-1.691,2.525-1.691,5.639c0,3.114,0.757,5.639,1.691,5.639c0.055,0,0.107-0.011,0.16-0.027v0.062h19.428V19.33
				C25.197,18.296,25.437,16.732,25.437,14.982z"/>
		</g>
	</g>
	<g>
		<g>
			<path style="fill-rule:evenodd;clip-rule:evenodd;" d="M27.254,12.199h-3.197c-0.065,0.381-0.114,0.793-0.151,1.222v3.132
				c0.04,0.452,0.094,0.886,0.164,1.284h3.168c0.116-0.492,0.208-1.03,0.263-1.604v-2.501
				C27.447,13.187,27.363,12.672,27.254,12.199z"/>
		</g>
	</g>
</g>
</svg>
