<?xml version="1.0" encoding="utf-8"?>
<!-- Generated by IcoMoon.io -->
<!DOCTYPE svg PUBLIC "-//W3C//DTD SVG 1.1//EN" "http://www.w3.org/Graphics/SVG/1.1/DTD/svg11.dtd">
<svg version="1.1" xmlns="http://www.w3.org/2000/svg" xmlns:xlink="http://www.w3.org/1999/xlink" width="30" height="30" viewBox="0 0 30 30">
<g>
	<line stroke-width="1" x1="" y1="" x2="" y2="" stroke="#449FDB" opacity=""></line>
</g>
	<path d="M6.051 26c-2.429 0-3.421-1.721-2.204-3.822l8.628-15.893c1.217-2.103 3.246-2.125 4.507-0.050l9.133 15.992c1.264 2.075 0.309 3.773-2.119 3.773h-17.945z" fill="#000000"></path>
	<path d="M35.621-39.945l-10.434-18.113c-0.54-0.896-1.794-1.942-2.916-1.942-1.295 0-2.306 1.114-2.884 1.933l-10.486 18.155 0.007 0.012c-0.506 0.916-0.545 2.061 0.016 3.033s1.573 1.824 2.619 1.844l21.43-0.021c1.046-0.018 2.060-0.871 2.62-1.844 0.561-0.971 0.523-2.119 0.016-3.031l0.012-0.026zM33.836-37.602c-0.472 0.816-1.697 0.957-2.575 0.973l-0.018 0.029-17.985-0.012c-0.877-0.016-1.946-0.188-2.418-1.002-0.47-0.816-0.219-2.061 0.207-2.83l-0.006-0.010 8.743-15.158c0.385-0.95 1.405-2.249 2.494-2.249 0.943 0 2.041 1.513 2.494 2.267l8.712 15.111-0.009 0.021c0.423 0.771 0.832 2.046 0.361 2.86zM73.475-89.461l0.009-0.021-8.712-15.111c-0.453-0.754-1.551-2.267-2.494-2.267-1.089 0-2.109 1.299-2.494 2.249l-8.744 15.158 0.006 0.010c-0.425 0.77-0.677 2.014-0.206 2.83 0.473 0.814 1.541 0.986 2.418 1.002l0.007 0.012h17.979l0.018-0.029c0.878-0.016 2.104-0.156 2.575-0.973 0.47-0.815 0.061-2.090-0.362-2.86z" fill="#000000"></path>
</svg>
