<?xml version="1.0" encoding="utf-8"?>
<!-- Generated by IcoMoon.io -->
<!DOCTYPE svg PUBLIC "-//W3C//DTD SVG 1.1//EN" "http://www.w3.org/Graphics/SVG/1.1/DTD/svg11.dtd">
<svg version="1.1" xmlns="http://www.w3.org/2000/svg" xmlns:xlink="http://www.w3.org/1999/xlink" width="30" height="30" viewBox="0 0 30 30">
<g>
	<line stroke-width="1" x1="" y1="" x2="" y2="" stroke="#449FDB" opacity=""></line>
</g>
	<path d="M14.726 12.196v-3.872h-10.13v4.989h9.713l0.417-1.117zM13.539 12.222h-7.956v-2.803h7.956v2.803zM12.857 17.21h-2.784c0.097-0.548 0.178-1.24 0.226-1.869h3.255l0.431-1.157h-10.475v1.157h5.264c-0.048 0.645-0.129 1.337-0.242 1.869h-6.087v1.079h5.812c-0.709 1.953-2.321 2.779-6.257 3.343 0.193 0.226 0.746 0.957 0.843 1.231 4.486-0.605 6.019-1.699 6.546-4.554l1.078-0.021h1.988l0.402-1.078zM21.708 6.226h-3.192l-6.715 18.024h3.094l1.756-4.985h6.862l1.792 4.985h3.119l-6.716-18.024zM17.51 16.736l1.62-4.678c0.426-1.195 0.749-2.296 0.97-3.303 0.082 0.328 0.231 0.843 0.448 1.547s0.387 1.22 0.51 1.547l1.682 4.887h-5.23z" fill="#000000"></path>
</svg>
