<?xml version="1.0" encoding="utf-8"?>
<!-- Generated by IcoMoon.io -->
<!DOCTYPE svg PUBLIC "-//W3C//DTD SVG 1.1//EN" "http://www.w3.org/Graphics/SVG/1.1/DTD/svg11.dtd">
<svg version="1.1" xmlns="http://www.w3.org/2000/svg" xmlns:xlink="http://www.w3.org/1999/xlink" width="30" height="30" viewBox="0 0 30 30">
<g>
	<line stroke-width="1" x1="" y1="" x2="" y2="" stroke="#449FDB" opacity=""></line>
</g>
	<path d="M15 13c3.046 0 5.517-2.325 5.517-5.372s-2.471-5.628-5.517-5.628-5.516 2.582-5.516 5.628c0 3.047 2.47 5.372 5.516 5.372zM24.663 20.709c0 0 0 0 0-0.002 0-2.668-2.225-4.969-5.447-6.063l-4.214 4.217-4.217-4.217c-3.222 1.093-5.447 3.394-5.447 6.063 0 0.002 0 0.002 0 0.002h-0.006c0 2.677 0.533 5.17 1.439 7.291h16.457c0.906-2.121 1.439-4.614 1.439-7.291h-0.004z" fill="#000000"></path>
</svg>
