<?xml version="1.0" encoding="utf-8"?>
<!-- Generated by IcoMoon.io -->
<!DOCTYPE svg PUBLIC "-//W3C//DTD SVG 1.1//EN" "http://www.w3.org/Graphics/SVG/1.1/DTD/svg11.dtd">
<svg version="1.1" xmlns="http://www.w3.org/2000/svg" xmlns:xlink="http://www.w3.org/1999/xlink" width="30" height="30" viewBox="0 0 30 30">
<g>
	<line stroke-width="1" x1="" y1="" x2="" y2="" stroke="#449FDB" opacity=""></line>
</g>
	<path d="M26.968 12.144c0-0.93-5.188-1.683-11.587-1.683s-11.588 0.753-11.588 1.683c0 0.776 3.623 1.429 8.543 1.623 0.271 0.595 0.568 1.216 0.896 1.863-0.263 0.433-0.526 0.874-0.79 1.329-3.199 5.542-5.049 10.465-4.131 10.994 0.882 0.509 3.991-3.217 7.068-8.414 3.077 5.197 6.188 8.923 7.068 8.414 0.918-0.529-0.932-5.452-4.131-10.994-0.264-0.455-0.526-0.896-0.789-1.33 0.326-0.646 0.623-1.268 0.896-1.862 4.921-0.195 8.545-0.847 8.545-1.623zM15.38 9.333c1.863 0 3.373-1.511 3.373-3.374 0-1.862-1.51-3.373-3.373-3.373s-3.374 1.511-3.374 3.373c0 1.863 1.511 3.374 3.374 3.374z" fill="#000000"></path>
</svg>
