<?xml version="1.0" encoding="utf-8"?>
<!-- Generated by IcoMoon.io -->
<!DOCTYPE svg PUBLIC "-//W3C//DTD SVG 1.1//EN" "http://www.w3.org/Graphics/SVG/1.1/DTD/svg11.dtd">
<svg version="1.1" xmlns="http://www.w3.org/2000/svg" xmlns:xlink="http://www.w3.org/1999/xlink" width="30" height="30" viewBox="0 0 30 30">
<g>
	<line stroke-width="1" x1="" y1="" x2="" y2="" stroke="#449FDB" opacity=""></line>
</g>
	<path d="M26.069 18.438c0.688-1.367 1.727-4.441 0.838-6.955 0.006 0.024 0.012 0.049 0.018 0.073-0.010-0.029-0.016-0.045-0.016-0.045s-0.167 0.503-0.4 1.28c-0.016-0.104-0.032-0.207-0.051-0.31 0.065-0.944 0.039-1.959-0.152-2.924-0.302-1.527-1.479-2.852-2.104-3.279 0.031 0.023 0.063 0.051 0.096 0.080-0.070-0.055-0.113-0.083-0.113-0.083s0.026 0.14 0.070 0.386c-0.676-1.064-1.706-1.564-1.706-1.564s0.031 0.177 0.083 0.55c-2.111-1.879-4.891-3.021-7.938-3.021-3.101 0-5.925 1.182-8.049 3.12 0.117 0.141 0.238 0.304 0.364 0.493 0 0 0.808-0.145 1.792-0.051 1.713-1.21 3.753-1.862 5.893-1.862 2.737 0 5.311 1.067 7.247 3.004 0.101 0.101 0.199 0.205 0.296 0.309-0.581-0.438-1.284-0.801-1.806-0.841 1.066 0.792 2.651 2.773 2.487 6.257-0.273-0.574-0.602-1.025-0.957-1.339 0.383 3.498 0.048 4.249-0.184 5.178-0.052-0.427-0.205-0.748-0.294-0.943 0 0-0.041 1.093-0.752 2.65-0.538 1.179-1.093 1.544-1.339 1.503-0.217-0.036-0.068-0.246-0.109-0.451 0 0-0.368 0.177-0.737 0.56-0.349 0.362-0.663 0.763-0.827 0.649 0.123-0.103 0.212-0.273 0.308-0.431-0.137 0.096-0.484 0.355-1.264 0.472-0.318 0.047-1.674 0.293-3.477-0.608 0.263-0.030 0.656-0.123 0.957 0.055-0.301-0.328-1.025-0.259-1.544-0.423-0.452-0.143-1.043-0.778-1.382-1.099 1.387 0.339 2.86 0.094 3.713-0.488 0.86-0.589 1.37-1.019 1.827-0.917s0.762-0.356 0.406-0.764-1.219-0.968-2.386-0.663c-0.823 0.216-1.844 1.126-3.401 0.205-1.329-0.787-1.32-1.427-1.32-1.834 0-0.28 0.17-0.658 0.489-0.836 0.172 0.062 0.279 0.118 0.279 0.118s-0.079-0.123-0.13-0.182c0.012-0.003 0.024-0.007 0.037-0.010 0.14 0.047 0.457 0.165 0.617 0.245 0.217 0.109 0.291 0.22 0.291 0.22s0.051-0.031-0.002-0.143c-0.022-0.046-0.1-0.181-0.314-0.312 0.004 0 0.008 0 0.011 0 0.112 0.044 0.232 0.102 0.364 0.176 0.041-0.191 0.124-0.39 0.068-0.738-0.039-0.245-0.034-0.307-0.096-0.396-0.052-0.076 0.014-0.109 0.096-0.041-0.020-0.061-0.047-0.121-0.080-0.181 0-0.001 0.001-0.002 0.001-0.003 0.004-0.019 0.016-0.040 0.032-0.064 0.254-0.352 1.84-1.185 1.966-1.278 0.156-0.116 0.314-0.285 0.432-0.48 0.161-0.1 0.276-0.516 0.306-0.828 0.012-0.125-0.259-0.273-0.403-0.301-0.082-0.021-0.371-0.070-0.581-0.034 0.009 0.004 0.020 0.009 0.032 0.016-0.293-0.019-0.69-0.027-1.226-0.022-0.524 0.004-0.865-0.301-1.071-0.592-0.041-0.062-0.078-0.122-0.11-0.175-0.045-0.081-0.080-0.155-0.104-0.213 0.229-0.831 0.692-1.551 1.407-2.135 0.044-0.036-0.17 0.025-0.129-0.013 0.048-0.046 0.352-0.19 0.408-0.222 0.073-0.042-0.33-0.15-0.675-0.079-0.345 0.072-0.414 0.113-0.591 0.205 0.071-0.075 0.306-0.194 0.249-0.181-0.376 0.084-0.819 0.331-1.195 0.598-0.003-0.034 0-0.062 0.007-0.116-0.178 0.093-0.608 0.424-0.717 0.676 0-0.055 0-0.082-0.007-0.144-0.124 0.11-0.241 0.242-0.348 0.39-0.001 0.001-0.003 0.003-0.004 0.005-1.12-0.278-2.071-0.211-2.865 0.044-0.266-0.215-0.669-0.597-0.975-1.092-0.029-0.045-0.032 0.102-0.059 0.055-0.172-0.309-0.32-0.814-0.357-1.215-0.003-0.041-0.007-0.080-0.008-0.118 0 0-0.147 0.086-0.305 0.35-0.071 0.117-0.143 0.269-0.206 0.465-0.036 0.113-0.061 0.179-0.087 0.241-0.008 0.019 0.016-0.204 0.007-0.186-0.039 0.079-0.149 0.205-0.184 0.348-0.027 0.108-0.071 0.173-0.087 0.31-0.002 0.002-0.004 0.004-0.005 0.007-0.002-0.032-0.004-0.158-0.014-0.133-0.091 0.241-0.176 0.517-0.244 0.83-0.059 0.23-0.104 0.491-0.13 0.788-0.030 0.341-0.035 0.728-0.003 1.168-0.001 0.069-0.003 0.132-0.005 0.194-0.301 0.415-0.485 0.773-0.562 0.95-0.367 0.717-0.744 1.819-1.048 3.531 0 0 0.2-0.635 0.602-1.359-0.001 0.009-0.003 0.019-0.005 0.028-0.293 0.922-0.52 2.342-0.383 4.455 0.005-0.071 0.069-0.613 0.229-1.345 0.078 1.428 0.486 3.167 1.597 5.070 0.816 1.398 1.777 2.447 2.851 3.228 0.198 0.159 0.401 0.312 0.608 0.458 1.329 0.969 3.395 2.164 5.157 2.417-0.615-0.178-0.998-0.533-0.998-0.533s2.093 0.672 3.621 0.615c-0.478-0.082-0.574-0.314-0.574-0.314s4.351 0.246 6.611-1.54c0.506-0.381 0.839-0.823 0.938-1.226 0.667-0.354 1.386-0.839 2.124-1.566 1.229-1.21 1.363-2.131 1.496-2.992-0.005 0.027-0.011 0.054-0.017 0.081 0.058-0.346 0.020-0.65-0.116-0.873z" fill="#000000"></path>
</svg>
