<?xml version="1.0" encoding="utf-8"?>
<!-- Generated by IcoMoon.io -->
<!DOCTYPE svg PUBLIC "-//W3C//DTD SVG 1.1//EN" "http://www.w3.org/Graphics/SVG/1.1/DTD/svg11.dtd">
<svg version="1.1" xmlns="http://www.w3.org/2000/svg" xmlns:xlink="http://www.w3.org/1999/xlink" width="30" height="30" viewBox="0 0 30 30">
<g>
	<line stroke-width="1" x1="" y1="" x2="" y2="" stroke="#449FDB" opacity=""></line>
</g>
	<path d="M24.312 16.15l1.542-1.542c-2.474-3.306-6.406-5.454-10.853-5.454-4.441 0-8.371 2.145-10.844 5.445l2.084 2.083c1.92-2.781 5.125-4.604 8.759-4.604 3.406 0 6.421 1.611 8.369 4.103-1.064 0.114-2.040 0.499-2.858 1.104-1.402-1.428-3.35-2.318-5.511-2.318-2.84 0-5.315 1.532-6.665 3.811l2.18 2.18c0.701-1.797 2.439-3.074 4.484-3.074 1.466 0 2.766 0.662 3.646 1.696-0.338 0.74-0.538 1.56-0.538 2.428 0 3.254 2.638 5.893 5.891 5.893 3.254 0 5.893-2.639 5.893-5.893 0.002-3.146-2.474-5.695-5.579-5.858zM24.859 27.158h-1.781v-6.53h1.781v6.53zM24.941 19.923c-0.211 0.224-0.522 0.332-0.943 0.332-0.835 0-1.253-0.416-1.253-1.258 0-0.837 0.418-1.252 1.253-1.252 0.841 0 1.257 0.415 1.257 1.252 0 0.399-0.105 0.709-0.314 0.926zM27.914 12.547l2.086-2.088c-3.552-4.343-8.949-7.116-14.999-7.116-6.044 0-11.439 2.77-14.993 7.107l2.088 2.086c3.013-3.813 7.667-6.269 12.905-6.269 5.242 0.001 9.901 2.461 12.913 6.28zM15.001 20.78c-1.069 0-1.937 0.866-1.937 1.936s0.867 1.937 1.937 1.937c1.070 0 1.938-0.866 1.938-1.937s-0.868-1.936-1.938-1.936z" fill="#000000"></path>
</svg>
