<?xml version="1.0" encoding="utf-8"?>
<!-- Generated by IcoMoon.io -->
<!DOCTYPE svg PUBLIC "-//W3C//DTD SVG 1.1//EN" "http://www.w3.org/Graphics/SVG/1.1/DTD/svg11.dtd">
<svg version="1.1" xmlns="http://www.w3.org/2000/svg" xmlns:xlink="http://www.w3.org/1999/xlink" width="30" height="30" viewBox="0 0 30 30">
<g>
	<line stroke-width="1" x1="" y1="" x2="" y2="" stroke="#449FDB" opacity=""></line>
</g>
	<path d="M15.001 6c-4.746 0-9.006 2.028-12.011 5.244 0.318 0.865 0.695 1.694 1.134 2.469 2.562-3.181 6.477-5.228 10.877-5.228 4.401 0 8.314 2.048 10.876 5.228 0.439-0.776 0.816-1.606 1.135-2.473-3.007-3.215-7.263-5.24-12.011-5.24z" fill="#000000"></path>
	<path d="M16.647 22.462c0 0.909-0.737 1.646-1.646 1.646s-1.646-0.737-1.646-1.646c0-0.909 0.737-1.646 1.646-1.646s1.646 0.737 1.646 1.646z" fill="#000000"></path>
	<path d="M10.582 19.675c0.359 0.153 0.725 0.293 1.099 0.409 0.741-1.043 1.945-1.73 3.321-1.73s2.583 0.688 3.322 1.73c0.805-0.252 1.578-0.59 2.314-1.008-1.153-1.914-3.241-3.197-5.637-3.197-1.823 0-3.466 0.747-4.655 1.946 0.135 0.467 0.23 0.951 0.23 1.462 0 0.131 0.003 0.259 0.006 0.388z" fill="#000000"></path>
	<path d="M15.001 10.939c-3.158 0-6 1.287-8.079 3.345 0.833 0.272 1.58 0.729 2.173 1.348 1.585-1.373 3.644-2.209 5.905-2.209 3.093 0 5.818 1.554 7.45 3.92l1.771-1.771c-2.099-2.806-5.442-4.633-9.22-4.633z" fill="#000000"></path>
</svg>
