<?xml version="1.0" encoding="utf-8"?>
<!-- Generated by IcoMoon.io -->
<!DOCTYPE svg PUBLIC "-//W3C//DTD SVG 1.1//EN" "http://www.w3.org/Graphics/SVG/1.1/DTD/svg11.dtd">
<svg version="1.1" xmlns="http://www.w3.org/2000/svg" xmlns:xlink="http://www.w3.org/1999/xlink" width="30" height="30" viewBox="0 0 30 30">
<g>
	<line stroke-width="1" x1="" y1="" x2="" y2="" stroke="#449FDB" opacity=""></line>
</g>
	<path d="M4.84 3.042c-0.955 0-1.729 0.825-1.729 1.844l0.014 21.261c0 1.021 0.901 1.873 1.138 1.873h13.258c1.736 0 2.479-0.875 2.479-1.895v-19.173l-4.042-3.91h-11.118zM11.984 13.508h2.067v3.563h-2.067v-3.563zM8.967 13.465l2.033 0.043v3.563l-2.016-0.014-0.017-3.592zM6.026 14.928c0-0.79 0.742-1.421 1.533-1.421l0.483 0.004-0.016 3.548h-2v-2.131zM8.042 25.087l-0.797-0.021c-0.791 0-1.229-0.354-1.229-1.146l-0.016-1.896h2.016l0.026 3.063zM11.042 25.044h-2.052l-0.006-3.020h2.031l0.027 3.020zM14.052 25.044l-2.052-0.002-0.021-3.018h2.052l0.021 3.020zM17.041 24.036c0 0.791-0.771 1.027-1.562 1.027l-0.51-0.053 0.016-3.938-9.016-0.030v-3l11.031-0.031 0.041 6.025zM16.854 14.939v2.132h-1.928v-3.564h0.494c0.791 0.001 1.434 0.642 1.434 1.432zM25.373 7.101l0.559 2.464-1.369 1.644-1.645-1.097-0.234-2.492c-0.83 0.617-1.371 1.635-1.369 2.787 0.002 1.007 0.418 1.912 1.080 2.539 0.070 0.079 0.799 0.999 0.799 0.999v9.036c0 0 0 3.324 0 4.107s0.559 1.369 1.369 1.369c0.809 0 1.369-0.586 1.369-1.369s-0.041-12.209-0.041-12.209l0.041-0.936c0 0 0.785-0.939 0.871-1.033 0.637-0.623 1.031-1.509 1.029-2.494-0.004-1.594-1.049-2.937-2.459-3.315z" fill="#000000"></path>
</svg>
