<?xml version="1.0" encoding="utf-8"?>
<!-- Generated by IcoMoon.io -->
<!DOCTYPE svg PUBLIC "-//W3C//DTD SVG 1.1//EN" "http://www.w3.org/Graphics/SVG/1.1/DTD/svg11.dtd">
<svg version="1.1" xmlns="http://www.w3.org/2000/svg" xmlns:xlink="http://www.w3.org/1999/xlink" width="30" height="30" viewBox="0 0 30 30">
<g>
	<line stroke-width="1" x1="" y1="" x2="" y2="" stroke="#449FDB" opacity=""></line>
</g>
	<path d="M25.18 5.983c-1.428 0.101-2.041-0.504-5.058-1.411-3.015-0.906-5.211 0.251-5.211 0.251h-0.040c0 0-2.197-1.158-5.212-0.251s-3.628 1.512-5.060 1.411c-1.429-0.101-2.195-1.26-2.195-1.26s0.358 1.966 0.46 3.78c0.053 0.925-0.024 1.941 0.188 3.128l0.141 5.364c-0.049-0.194-0.050-1.294-0.050-1.294s-0.322 0.399-0.322 1.192c0 0.657 0.25 1.016 0.399 1.172l0.058 2.205c-0.092 0.163-0.337 0.674-0.337 1.577 0 0.806 0.243 1.308 0.42 1.562l0.083 3.129c0 0 0.215 0.152 0.551 0.152 0.34 0 0.523-0.152 0.523-0.152l-0.050-0.868c0 0 0.267-0.524 0.267-1.285s-0.208-0.949-0.357-1.157c-0.017-0.024-0.036-0.038-0.052-0.056l-0.204-3.536c0.029-0.051 0.218-0.4 0.218-0.908 0-0.551-0.177-0.688-0.305-0.837l-0.014-0.014-0.232-4.042c0.271 0.56 0.602 1.142 1.067 1.772 2.453 3.335 4.957 3.028 5.416 3.075 3.314 0.345 2.233-0.396 4.59-0.396s1.177 0.757 4.646 0.396c0.461-0.047 2.963 0.26 5.415-3.075 2.301-3.123 1.892-5.29 1.994-7.104 0.101-1.813 0.459-3.78 0.459-3.78s-0.765 1.16-2.196 1.26zM4.467 25.665l-0.062-1.092c0.067 0.376 0.062 1.070 0.062 1.092zM12.816 13.275c0 0-3.67 0.471-5.456-0.438-1.79-0.907-1.89-1.966-1.89-1.966s0.521-0.032 1.273-0.338c0.761-0.308 1.513-0.991 3.299-0.584 3.164 0.721 2.774 3.326 2.774 3.326zM22.422 12.837c-1.79 0.909-5.458 0.438-5.458 0.438s-0.39-2.605 2.777-3.326c1.783-0.407 2.533 0.287 3.297 0.584 0.669 0.258 1.273 0.338 1.273 0.338s-0.101 1.059-1.889 1.966z" fill="#000000"></path>
</svg>
