<?xml version="1.0" encoding="iso-8859-1"?>
<!-- Generator: Adobe Illustrator 16.0.0, SVG Export Plug-In . SVG Version: 6.00 Build 0)  -->
<!DOCTYPE svg PUBLIC "-//W3C//DTD SVG 1.1//EN" "http://www.w3.org/Graphics/SVG/1.1/DTD/svg11.dtd">
<svg version="1.1" id="Layer_1" xmlns="http://www.w3.org/2000/svg" xmlns:xlink="http://www.w3.org/1999/xlink" x="0px" y="0px"
	 width="30px" height="30px" viewBox="0 0 30 30" style="enable-background:new 0 0 30 30;" xml:space="preserve">
<path style="fill-rule:evenodd;clip-rule:evenodd;" d="M20.424,19.792c0.59-0.325,1.172-0.716,1.749-1.135l5.515,4.884
	c-1.164,1.005-2.425,1.829-3.753,2.45c-3.529-0.652-8.051-3.277-12.112-7.339C7.765,14.595,5.141,10.076,4.486,6.55
	c0.621-1.331,1.446-2.594,2.453-3.76l4.887,5.52c-0.419,0.576-0.81,1.159-1.135,1.748l0.021,0.022
	c-0.572,1.255,0.751,3.987,3.227,6.464c2.476,2.476,5.209,3.8,6.464,3.227L20.424,19.792z"/>
</svg>
