<?xml version="1.0" encoding="utf-8"?>
<!-- Generated by IcoMoon.io -->
<!DOCTYPE svg PUBLIC "-//W3C//DTD SVG 1.1//EN" "http://www.w3.org/Graphics/SVG/1.1/DTD/svg11.dtd">
<svg version="1.1" xmlns="http://www.w3.org/2000/svg" xmlns:xlink="http://www.w3.org/1999/xlink" width="30" height="30" viewBox="0 0 30 30">
<g>
	<line stroke-width="1" x1="" y1="" x2="" y2="" stroke="#449FDB" opacity=""></line>
</g>
	<path d="M15.511 7.27c-4.974 0-9.415 2.279-12.338 5.849l1.718 1.718c2.479-3.139 6.311-5.16 10.621-5.16 4.313 0 8.147 2.025 10.626 5.168l1.719-1.718c-2.925-3.574-7.369-5.857-12.346-5.857zM15.511 16.836c-2.337 0-4.375 1.261-5.485 3.136l1.794 1.794c0.577-1.479 2.008-2.531 3.691-2.531 1.688 0 3.12 1.057 3.694 2.542l1.796-1.796c-1.109-1.88-3.149-3.145-5.49-3.145zM15.511 12.053c-3.655 0-6.889 1.765-8.924 4.479l1.715 1.715c1.58-2.288 4.218-3.789 7.209-3.789 2.994 0 5.636 1.505 7.215 3.797l1.716-1.715c-2.036-2.719-5.274-4.487-8.931-4.487zM15.511 21.62c-0.88 0-1.594 0.714-1.594 1.594s0.714 1.594 1.594 1.594c0.88 0 1.594-0.713 1.594-1.594s-0.714-1.594-1.594-1.594z" fill="#000000"></path>
</svg>
