<?xml version="1.0" encoding="utf-8"?>
<!-- Generated by IcoMoon.io -->
<!DOCTYPE svg PUBLIC "-//W3C//DTD SVG 1.1//EN" "http://www.w3.org/Graphics/SVG/1.1/DTD/svg11.dtd">
<svg version="1.1" xmlns="http://www.w3.org/2000/svg" xmlns:xlink="http://www.w3.org/1999/xlink" width="30" height="30" viewBox="0 0 30 30">
<g>
	<line stroke-width="1" x1="" y1="" x2="" y2="" stroke="#449FDB" opacity=""></line>
</g>
	<path d="M24.978 14.982c0-1.749-0.238-2.891-0.613-3.927l-0.24-1.014h-0.893c-0.062-0.022-0.123-0.036-0.188-0.036-0.062 0-0.125 0.013-0.186 0.036h-17.274c-0.063-0.022-0.125-0.037-0.188-0.037-0.935 0-1.452 1.865-1.452 4.978 0 3.116 0.517 4.983 1.451 4.983 0.055 0 0.107-0.012 0.16-0.027v0.062h18.567l0.24-1.088c0.375-1.033 0.616-2.18 0.616-3.93z" fill="#000000"></path>
	<path d="M26.794 12.199h-3.197c-0.064 0.381-0.113 0.793-0.15 1.222v3.132c0.039 0.453 0.094 0.887 0.164 1.285h3.168c0.115-0.492 0.207-1.264 0.262-1.838l-0.029-2.468c-0.058-0.546-0.109-0.86-0.218-1.333z" fill="#000000"></path>
</svg>
