<?xml version="1.0" encoding="utf-8"?>
<!-- Generated by IcoMoon.io -->
<!DOCTYPE svg PUBLIC "-//W3C//DTD SVG 1.1//EN" "http://www.w3.org/Graphics/SVG/1.1/DTD/svg11.dtd">
<svg version="1.1" xmlns="http://www.w3.org/2000/svg" xmlns:xlink="http://www.w3.org/1999/xlink" width="30" height="30" viewBox="0 0 30 30">
<g>
	<line stroke-width="1" x1="" y1="" x2="" y2="" stroke="#449FDB" opacity=""></line>
</g>
	<path d="M23.040 19.529c-1.158-0.669-2.555-0.543-3.564 0.205l-7.658-4.421c0.014-0.121 0.037-0.239 0.037-0.363s-0.023-0.242-0.037-0.363l7.658-4.421c1.010 0.748 2.406 0.874 3.564 0.206 1.557-0.899 2.090-2.89 1.191-4.447s-2.89-2.090-4.446-1.191c-1.158 0.668-1.748 1.942-1.604 3.191l-7.651 4.417c-0.542-0.401-1.205-0.647-1.93-0.647-1.798 0-3.255 1.458-3.255 3.255s1.458 3.255 3.255 3.255c0.725 0 1.388-0.245 1.929-0.646l7.652 4.418c-0.143 1.249 0.446 2.522 1.604 3.19 1.557 0.898 3.547 0.365 4.446-1.191s0.366-3.548-1.191-4.447z" fill="#000000"></path>
</svg>
