<?xml version="1.0" encoding="utf-8"?>
<!-- Generated by IcoMoon.io -->
<!DOCTYPE svg PUBLIC "-//W3C//DTD SVG 1.1//EN" "http://www.w3.org/Graphics/SVG/1.1/DTD/svg11.dtd">
<svg version="1.1" xmlns="http://www.w3.org/2000/svg" xmlns:xlink="http://www.w3.org/1999/xlink" width="30" height="30" viewBox="0 0 30 30">
<g>
	<line stroke-width="1" x1="" y1="" x2="" y2="" stroke="#449FDB" opacity=""></line>
</g>
	<path d="M21.634 22.095c-2.12 0-4.019-0.934-5.312-2.41l-2.052-2.055 1.42-1.419 2.309 2.332c0.918 0.953 2.205 1.547 3.636 1.547l0.35-0.003v-3.097l5.61 3.348c0.218 0.135 0.365 0.381 0.365 0.662 0 0.282-0.147 0.526-0.365 0.663v0l-5.61 3.348v-2.918l-0.351 0.002zM21.634 9.906c-1.431 0.001-2.718 0.595-3.636 1.55l-8.169 8.19c-1.293 1.461-3.178 2.383-5.281 2.383l-1.288-0.002c-0.113-0.66-0.219-1.324-0.302-2.005l1.589 0.001c1.429 0 2.716-0.594 3.635-1.548l3.454-3.478-3.454-3.476c-0.918-0.955-2.206-1.548-3.635-1.55l-1.598 0.003c0.081-0.679 0.184-1.344 0.296-2.004l1.303-0.002c2.103 0.001 3.988 0.922 5.281 2.382l3.228 3.229 3.264-3.264c1.294-1.478 3.193-2.411 5.313-2.413l0.35 0.003v-2.916l5.61 3.349c0.218 0.134 0.365 0.38 0.365 0.663 0 0.281-0.147 0.526-0.365 0.661v0.001l-5.61 3.347v-3.102l-0.35-0.002z" fill="#000000"></path>
</svg>
