<?xml version="1.0" encoding="utf-8"?>
<!-- Generator: Adobe Illustrator 17.1.0, SVG Export Plug-In . SVG Version: 6.00 Build 0)  -->
<!DOCTYPE svg PUBLIC "-//W3C//DTD SVG 1.1//EN" "http://www.w3.org/Graphics/SVG/1.1/DTD/svg11.dtd">
<svg version="1.1" id="Layer_1" xmlns="http://www.w3.org/2000/svg" xmlns:xlink="http://www.w3.org/1999/xlink" x="0px" y="0px"
	 viewBox="0 0 30 30" enable-background="new 0 0 30 30" xml:space="preserve">
<g>
	<g>
		<path fill-rule="evenodd" clip-rule="evenodd" d="M7,19.2V25h4V15C8.8,15,7,16.9,7,19.2z M1,22.9L1,22.9l0,0.3c0,0,0,0,0,0V25h0v0
			h4v-4.2l0,0c0,0,0,0,0-0.1V19C2.9,19,1.2,20.7,1,22.9z M17,19v-8c-2.2,0-4,1.9-4,4.2V21h0v4h4L17,19L17,19z"/>
	</g>
</g>
</svg>
