<?xml version="1.0" encoding="UTF-8" standalone="no"?>
<!-- Created with Inkscape (http://www.inkscape.org/) -->

<svg
   xmlns:dc="http://purl.org/dc/elements/1.1/"
   xmlns:cc="http://creativecommons.org/ns#"
   xmlns:rdf="http://www.w3.org/1999/02/22-rdf-syntax-ns#"
   xmlns:svg="http://www.w3.org/2000/svg"
   xmlns="http://www.w3.org/2000/svg"
   xmlns:inkscape="http://www.inkscape.org/namespaces/inkscape"
   version="1.1"
   width="30"
   height="30"
   viewBox="0 0 30 30"
   id="svg2">
  <metadata
     id="metadata10">
    <rdf:RDF>
      <cc:Work
         rdf:about="">
        <dc:format>image/svg+xml</dc:format>
        <dc:type
           rdf:resource="http://purl.org/dc/dcmitype/StillImage" />
      </cc:Work>
    </rdf:RDF>
  </metadata>
  <defs
     id="defs8" />
  <path
     d="m 4.84,3.042 c -0.955,0 -1.73,0.825 -1.73,1.844 l 0.015,21.26 c 0,1.022 0.9,1.874 1.138,1.874 H 17.52 c 1.737,0 2.48,-0.875 2.48,-1.895 V 6.952 L 15.958,3.042 H 4.84 z m 7.144,10.466 h 2.067 v 3.563 h -2.06 v -3.56 z M 8.967,13.465 11,13.508 v 3.563 l -2.016,-0.01 -0.017,-3.59 z m -2.94,1.463 c 0,-0.79 0.74,-1.42 1.532,-1.42 l 0.48,0.003 -0.02,3.55 h -2 v -2.13 z m 2.015,10.16 -0.797,-0.022 c -0.79,0 -1.23,-0.354 -1.23,-1.146 L 6,22.024 h 2.016 l 0.026,3.063 z m 3,-0.044 H 8.99 l -0.006,-3.02 h 2.03 l 0.028,3.02 z m 3.01,0 L 12,25.042 11.98,22.024 h 2.05 l 0.022,3.02 z m 2.99,-1.008 c 0,0.79 -0.772,1.027 -1.563,1.027 l -0.51,-0.053 0.01,-3.938 -9.02,-0.03 v -3 l 11.03,-0.03 0.04,6.024 z m -0.188,-9.097 v 2.13 H 14.926 V 13.5 h 0.494 c 0.79,0 1.434,0.642 1.434,1.432 z m 8.52,-7.84 0.558,2.46 -1.37,1.64 -1.644,-1.1 -0.234,-2.493 c -0.83,0.617 -1.37,1.635 -1.37,2.787 0.003,1.007 0.42,1.912 1.08,2.54 0.07,0.08 0.8,1 0.8,1 v 13.15 c 0,0 0.56,1.37 1.37,1.37 0.808,0 1.368,-0.59 1.368,-1.37 0,-0.78 -0.04,-12.21 -0.04,-12.21 l 0.04,-0.937 c 0,0 0.785,-0.94 0.87,-1.03 0.638,-0.62 1.032,-1.51 1.03,-2.493 -0.004,-1.594 -1.05,-2.937 -2.46,-3.315 z"
     inkscape:connector-curvature="0"
     id="path4" />
</svg>
