<?xml version="1.0" encoding="UTF-8" standalone="no"?>
<!-- Created with Inkscape (http://www.inkscape.org/) -->

<svg
   xmlns:dc="http://purl.org/dc/elements/1.1/"
   xmlns:cc="http://creativecommons.org/ns#"
   xmlns:rdf="http://www.w3.org/1999/02/22-rdf-syntax-ns#"
   xmlns:svg="http://www.w3.org/2000/svg"
   xmlns="http://www.w3.org/2000/svg"
   xmlns:inkscape="http://www.inkscape.org/namespaces/inkscape"
   version="1.1"
   width="30"
   height="30"
   viewBox="0 0 30 30"
   id="svg2">
  <metadata
     id="metadata10">
    <rdf:RDF>
      <cc:Work
         rdf:about="">
        <dc:format>image/svg+xml</dc:format>
        <dc:type
           rdf:resource="http://purl.org/dc/dcmitype/StillImage" />
      </cc:Work>
    </rdf:RDF>
  </metadata>
  <defs
     id="defs8" />
  <path
     d="M 18.977,2.003 H 7.702 c -0.912,0 -1.65,0.8 -1.65,1.786 v 21.42 C 6.05,26.2 6.788,27 7.7,27 H 21.24 C 22.21,27 23,26.202 23,25.218 V 6.402 l -4.023,-4.4 z m -4.15,10.993 h 2.29 v 3.07 h -2.29 v -3.07 z m -2.966,0 h 2.17 v 3.07 h -2.17 v -3.07 z m -2.72,1.386 c 0,-0.766 0.617,-1.386 1.37,-1.386 h 0.53 v 3.07 h -1.9 v -1.684 z m 1.9,9.658 h -0.53 c -0.755,0 -1.368,-0.622 -1.368,-1.388 v -1.816 h 1.896 v 3.204 z m 3,0 h -2.17 v -3.204 h 2.17 v 3.204 z m 3.09,0 h -2.3 v -3.204 h 2.29 v 3.204 z m 1.502,0 h -0.67 V 19.99 L 9.069,19.982 V 19.845 L 9.062,19.835 V 17.04 L 9.07,17.025 v -0.15 H 20 v 5.777 c 0,0.766 -0.612,1.388 -1.37,1.388 z M 20,16.066 h -2.04 v -3.07 h 0.67 c 0.757,0 1.37,0.62 1.37,1.386 v 1.684 z"
     inkscape:connector-curvature="0"
     id="path4" />
</svg>
