<?xml version="1.0" encoding="UTF-8" standalone="no"?>
<!-- Created with Inkscape (http://www.inkscape.org/) -->

<svg
   xmlns:dc="http://purl.org/dc/elements/1.1/"
   xmlns:cc="http://creativecommons.org/ns#"
   xmlns:rdf="http://www.w3.org/1999/02/22-rdf-syntax-ns#"
   xmlns:svg="http://www.w3.org/2000/svg"
   xmlns="http://www.w3.org/2000/svg"
   xmlns:inkscape="http://www.inkscape.org/namespaces/inkscape"
   version="1.1"
   width="30"
   height="30"
   viewBox="0 0 30 30"
   id="svg2">
  <metadata
     id="metadata10">
    <rdf:RDF>
      <cc:Work
         rdf:about="">
        <dc:format>image/svg+xml</dc:format>
        <dc:type
           rdf:resource="http://purl.org/dc/dcmitype/StillImage" />
      </cc:Work>
    </rdf:RDF>
  </metadata>
  <defs
     id="defs8" />
  <path
     d="m 19.27,1.692 0.157,-0.16 H 8.152 C 7.24,1.53 6.5,2.33 6.5,3.316 v 21.43 c 0,0.985 0.676,1.737 1.587,1.737 h 13.538 c 0.973,0 1.826,-0.752 1.826,-1.738 V 5.93 l -4.18,-4.238 z m -3.79,10.792 h 2.026 V 15.52 H 15.48 v -3.036 z m -2.98,0 h 2.047 v 3.03 L 12.5,15.521 v -3.036 z m -3.008,1.4 c 0,-0.767 0.64,-1.4 1.397,-1.4 h 0.625 v 3.044 L 9.491,15.493 v -1.61 z m 2.04,9.645 h -0.606 c -0.756,0 -1.457,-0.583 -1.457,-1.35 l 0.01,-1.69 h 2.06 l -0.01,3.04 z m 3,0 h -2.048 v -3.04 h 2.047 v 3.04 z m 2.974,0 H 15.48 v -3.04 h 2.026 v 3.04 z m 3.01,-1.327 c 0,0.766 -0.74,1.326 -1.496,1.326 H 18.465 L 18.48,20.471 V 19.513 L 9.5,19.519 9.497,16.491 h 0.02 v -0.023 h 8.946 l 2.05,0.02 0.002,5.713 z M 20.5,15.515 18.465,15.519 v -3.035 h 0.64 c 0.755,0 1.395,0.656 1.395,1.422 v 1.61 z"
     inkscape:connector-curvature="0"
     id="path4" />
</svg>
