<?xml version="1.0" encoding="utf-8"?>
<!-- Generated by IcoMoon.io -->
<!DOCTYPE svg PUBLIC "-//W3C//DTD SVG 1.1//EN" "http://www.w3.org/Graphics/SVG/1.1/DTD/svg11.dtd">
<svg version="1.1" xmlns="http://www.w3.org/2000/svg" xmlns:xlink="http://www.w3.org/1999/xlink" width="30" height="30" viewBox="0 0 30 30">
<g>
	<line stroke-width="1" x1="" y1="" x2="" y2="" stroke="#449FDB" opacity=""></line>
</g>
	<path d="M15.31 25.015c-2.162 0-4.171-0.655-5.841-1.776l-4.689 1.803 1.806-4.691c-1.117-1.667-1.77-3.672-1.77-5.829 0-5.795 4.699-10.494 10.495-10.494 5.797 0 10.494 4.699 10.494 10.494s-4.699 10.493-10.495 10.493zM10.422 10.634l-1.23 2.669c-0.232 0.508-0.295 0.741-0.295 0.996 0 0.528 0.36 0.931 0.953 0.931s0.995-0.403 0.995-0.931c0-0.318-0.149-0.593-0.382-0.743l0.763-2.922h-0.804zM13.705 10.634l-1.229 2.669c-0.233 0.508-0.296 0.741-0.296 0.996 0 0.528 0.358 0.931 0.953 0.931 0.591 0 0.994-0.403 0.994-0.931 0-0.318-0.147-0.593-0.381-0.743l0.761-2.922h-0.802zM17.39 13.753c-0.593 0-0.993 0.403-0.993 0.933 0 0.318 0.147 0.593 0.381 0.741l-0.764 2.925h0.804l1.23-2.669c0.232-0.508 0.295-0.743 0.295-0.996 0-0.531-0.358-0.934-0.953-0.934zM20.675 13.753c-0.596 0-0.996 0.403-0.996 0.933 0 0.318 0.148 0.593 0.381 0.741l-0.763 2.925h0.805l1.229-2.669c0.235-0.508 0.298-0.743 0.298-0.996-0.001-0.531-0.361-0.934-0.954-0.934z" fill="#000000"></path>
</svg>
