<?xml version="1.0" encoding="utf-8"?>
<!-- Generated by IcoMoon.io -->
<!DOCTYPE svg PUBLIC "-//W3C//DTD SVG 1.1//EN" "http://www.w3.org/Graphics/SVG/1.1/DTD/svg11.dtd">
<svg version="1.1" xmlns="http://www.w3.org/2000/svg" xmlns:xlink="http://www.w3.org/1999/xlink" width="30" height="30" viewBox="0 0 30 30">
<g>
	<line stroke-width="1" x1="" y1="" x2="" y2="" stroke="#449FDB" opacity=""></line>
</g>
	<path d="M16.971 3.558l-0.927-0.253v18.1c-0.643-0.322-1.412-0.562-2.276-0.668-2.534-0.307-4.727 0.617-4.901 2.062-0.177 1.447 1.734 2.869 4.266 3.174 0.98 0.119 1.888 0.050 2.647-0.159 1.33-0.321 2.22-1.131 2.22-2.087v-17.274c2.069 1.106 3.543 3.277 3.543 5.788 0 2.188-1.074 4.126-2.722 5.318v0.529c2.457-1.33 4.141-3.902 4.141-6.894 0-3.698-2.554-6.792-5.991-7.636z" fill="#000000"></path>
</svg>
