<?xml version="1.0" encoding="utf-8"?>
<!-- Generated by IcoMoon.io -->
<!DOCTYPE svg PUBLIC "-//W3C//DTD SVG 1.1//EN" "http://www.w3.org/Graphics/SVG/1.1/DTD/svg11.dtd">
<svg version="1.1" xmlns="http://www.w3.org/2000/svg" xmlns:xlink="http://www.w3.org/1999/xlink" width="30" height="30" viewBox="0 0 30 30">
<g>
	<line stroke-width="1" x1="" y1="" x2="" y2="" stroke="#449FDB" opacity=""></line>
</g>
	<path d="M17.163 11.847l-0.849 0.335c0.249 0.765 0.383 1.555 0.383 2.363s-0.134 1.596-0.383 2.361l0.849 0.335c0.309-0.87 0.475-1.772 0.475-2.696 0-0.927-0.166-1.828-0.475-2.698zM7.473 9.631h-3.049c-0.786 0-1.424 0.638-1.424 1.425v6.944c0 0.788 0.638 1.426 1.424 1.426h3.043l4.856 4.86c0.452 0.454 1.023 0.703 1.611 0.774v-21.060c-0.588 0.071-1.159 0.321-1.611 0.774l-4.85 4.857z" fill="#000000"></path>
</svg>
