<?xml version="1.0" encoding="utf-8"?>
<!-- Generated by IcoMoon.io -->
<!DOCTYPE svg PUBLIC "-//W3C//DTD SVG 1.1//EN" "http://www.w3.org/Graphics/SVG/1.1/DTD/svg11.dtd">
<svg version="1.1" xmlns="http://www.w3.org/2000/svg" xmlns:xlink="http://www.w3.org/1999/xlink" width="30" height="30" viewBox="0 0 30 30">
<g>
	<line stroke-width="1" x1="" y1="" x2="" y2="" stroke="#449FDB" opacity=""></line>
</g>
	<path d="M6.248 10.146h-2.714c-0.787 0-1.425 0.638-1.425 1.426v6.278c0 0.788 0.638 1.426 1.425 1.426h2.71l5.188 5.194c0.452 0.452 1.022 0.702 1.611 0.773v-21.061c-0.589 0.071-1.16 0.321-1.611 0.773l-5.184 5.191zM23.822 6.729l-1.315 0.729c0.995 2.263 1.542 4.71 1.542 7.268s-0.547 5.005-1.542 7.268l1.315 0.729c1.135-2.479 1.759-5.176 1.759-7.997s-0.624-5.517-1.759-7.997zM18.924 10.052c0.604 1.48 0.932 3.049 0.932 4.674s-0.328 3.194-0.932 4.674l1.118 0.539c0.71-1.645 1.098-3.396 1.098-5.213s-0.387-3.569-1.098-5.213l-1.118 0.539zM15.423 12.363c0.249 0.765 0.382 1.554 0.382 2.363s-0.133 1.598-0.382 2.362l0.847 0.334c0.31-0.87 0.477-1.771 0.477-2.697 0-0.925-0.167-1.828-0.477-2.697l-0.847 0.335z" fill="#000000"></path>
</svg>
