<?xml version="1.0" encoding="UTF-8" standalone="no"?>
<!-- Created with Inkscape (http://www.inkscape.org/) -->

<svg
   xmlns:dc="http://purl.org/dc/elements/1.1/"
   xmlns:cc="http://creativecommons.org/ns#"
   xmlns:rdf="http://www.w3.org/1999/02/22-rdf-syntax-ns#"
   xmlns:svg="http://www.w3.org/2000/svg"
   xmlns="http://www.w3.org/2000/svg"
   xmlns:inkscape="http://www.inkscape.org/namespaces/inkscape"
   version="1.1"
   width="30"
   height="30"
   viewBox="0 0 30 30"
   id="svg2">
  <metadata
     id="metadata10">
    <rdf:RDF>
      <cc:Work
         rdf:about="">
        <dc:format>image/svg+xml</dc:format>
        <dc:type
           rdf:resource="http://purl.org/dc/dcmitype/StillImage" />
      </cc:Work>
    </rdf:RDF>
  </metadata>
  <defs
     id="defs8" />
  <path
     d="m 17.163,11.847 -0.85,0.335 c 0.25,0.765 0.384,1.555 0.384,2.363 0,0.808 -0.134,1.596 -0.383,2.36 l 0.85,0.336 c 0.308,-0.87 0.474,-1.77 0.474,-2.695 0,-0.927 -0.166,-1.828 -0.475,-2.698 z M 7.473,9.63 H 4.423 C 3.64,9.63 3,10.27 3,11.057 V 18 c 0,0.788 0.638,1.426 1.424,1.426 h 3.043 l 4.856,4.86 c 0.452,0.454 1.023,0.703 1.61,0.774 V 4 c -0.587,0.07 -1.158,0.32 -1.61,0.774 L 7.473,9.63 z"
     inkscape:connector-curvature="0"
     id="path4" />
</svg>
