<?xml version="1.0" encoding="utf-8"?>
<!-- Generated by IcoMoon.io -->
<!DOCTYPE svg PUBLIC "-//W3C//DTD SVG 1.1//EN" "http://www.w3.org/Graphics/SVG/1.1/DTD/svg11.dtd">
<svg version="1.1" xmlns="http://www.w3.org/2000/svg" xmlns:xlink="http://www.w3.org/1999/xlink" width="30" height="30" viewBox="0 0 30 30">
<g>
	<line stroke-width="1" x1="" y1="" x2="" y2="" stroke="#449FDB" opacity=""></line>
</g>
	<path d="M24.265 13.299c0 0.002 0 0.002 0 0.004l-4.199 3.985 1.057 5.705-0.005 0.002c0.043 0.236-0.044 0.486-0.25 0.637-0.206 0.149-0.475 0.154-0.688 0.035-0.002 0.002-0.002 0.002-0.005 0.005l-5.090-2.767-5.089 2.767c-0.002-0.003-0.003-0.003-0.005-0.005-0.211 0.119-0.48 0.114-0.689-0.037-0.206-0.15-0.291-0.398-0.249-0.635-0.002 0-0.004-0.002-0.005-0.004l1.059-5.703-4.202-3.985c0-0.002 0.001-0.002 0.002-0.004-0.179-0.166-0.259-0.423-0.179-0.669 0.080-0.244 0.293-0.405 0.533-0.434 0.001-0.002 0.001-0.002 0.002-0.004l5.745-0.757 2.49-5.225c0.002 0 0.003 0 0.006 0 0.101-0.222 0.322-0.378 0.582-0.378s0.481 0.157 0.582 0.378c0.001 0 0.002 0 0.004 0l2.491 5.225 5.744 0.757c0.002 0.002 0.002 0.002 0.004 0.004 0.237 0.031 0.452 0.19 0.533 0.437 0.078 0.245 0 0.503-0.179 0.666zM17.171 12.755l-2.086-4.374-2.085 4.374-4.805 0.631 3.516 3.336-0.884 4.764 4.258-2.312 4.26 2.312-0.886-4.764 3.516-3.336-4.804-0.631z" fill="#000000"></path>
</svg>
