<?xml version="1.0" encoding="UTF-8" standalone="no"?>
<!-- Created with Inkscape (http://www.inkscape.org/) -->

<svg
   xmlns:dc="http://purl.org/dc/elements/1.1/"
   xmlns:cc="http://creativecommons.org/ns#"
   xmlns:rdf="http://www.w3.org/1999/02/22-rdf-syntax-ns#"
   xmlns:svg="http://www.w3.org/2000/svg"
   xmlns="http://www.w3.org/2000/svg"
   xmlns:inkscape="http://www.inkscape.org/namespaces/inkscape"
   version="1.1"
   width="30"
   height="30"
   viewBox="0 0 30 30"
   id="svg2">
  <metadata
     id="metadata10">
    <rdf:RDF>
      <cc:Work
         rdf:about="">
        <dc:format>image/svg+xml</dc:format>
        <dc:type
           rdf:resource="http://purl.org/dc/dcmitype/StillImage" />
      </cc:Work>
    </rdf:RDF>
  </metadata>
  <defs
     id="defs8" />
  <path
     d="m 14.948,23.433 c -4.206,0 -7.693,-3.046 -8.396,-7.05 1.08,-0.095 2.07,-0.327 2.893,-0.66 l -3.25,-3.25 c -0.403,-0.404 -1.057,-0.404 -1.46,0 L 1.49,15.718 c 0.765,0.31 1.68,0.528 2.673,0.634 0.713,5.327 5.264,9.44 10.786,9.44 3.01,0 5.73,-1.222 7.7,-3.194 l -1.67,-1.67 c -1.55,1.547 -3.68,2.503 -6.04,2.503 z m 10.786,-9.99 C 25.021,8.117 20.47,4.005 14.948,4.005 c -3.01,0 -5.733,1.22 -7.705,3.192 l 1.67,1.67 c 1.543,-1.546 3.678,-2.502 6.035,-2.502 4.206,0 7.693,3.046 8.396,7.05 -1.08,0.095 -2.07,0.327 -2.893,0.66 l 3.25,3.25 c 0.41,0.404 1.06,0.404 1.46,0 l 3.25,-3.246 c -0.76,-0.32 -1.68,-0.53 -2.67,-0.64 z"
     inkscape:connector-curvature="0"
     id="path4" />
</svg>
