<svg xmlns="http://www.w3.org/2000/svg" width="30" height="30" viewBox="0 0 30 30"><path d="M14.775 22.985c-3.68 0-6.73-2.665-7.345-6.168.946-.083 1.81-.286 2.53-.578l-2.843-2.844a.902.902 0 0 0-1.277 0L3 16.236c.67.273 1.47.463 2.34.556.622 4.66 4.604 8.258 9.435 8.258a9.5 9.5 0 0 0 6.74-2.793l-1.46-1.46a7.442 7.442 0 0 1-5.28 2.188zm9.436-8.738c-.623-4.66-4.604-8.258-9.435-8.258a9.504 9.504 0 0 0-6.74 2.792l1.46 1.46a7.442 7.442 0 0 1 5.28-2.188c3.68 0 6.73 2.665 7.345 6.168-.946.083-1.81.286-2.53.577l2.843 2.842a.902.902 0 0 0 1.277 0l2.84-2.84c-.67-.272-1.47-.462-2.34-.555z" fill-rule="evenodd" clip-rule="evenodd" fill="#040000"/></svg>