<?xml version="1.0" encoding="utf-8"?>
<!-- Generated by IcoMoon.io -->
<!DOCTYPE svg PUBLIC "-//W3C//DTD SVG 1.1//EN" "http://www.w3.org/Graphics/SVG/1.1/DTD/svg11.dtd">
<svg version="1.1" xmlns="http://www.w3.org/2000/svg" xmlns:xlink="http://www.w3.org/1999/xlink" width="30" height="30" viewBox="0 0 30 30">
<g>
	<line stroke-width="1" x1="" y1="" x2="" y2="" stroke="#449FDB" opacity=""></line>
</g>
	<path d="M14.948 23.433c-4.206 0-7.693-3.046-8.396-7.050 1.081-0.095 2.069-0.327 2.893-0.661l-3.25-3.25c-0.403-0.403-1.057-0.403-1.459 0l-3.247 3.247c0.766 0.311 1.68 0.529 2.674 0.635 0.713 5.327 5.264 9.439 10.786 9.439 3.010 0 5.733-1.221 7.705-3.193l-1.669-1.669c-1.545 1.546-3.679 2.502-6.037 2.502zM25.734 13.444c-0.713-5.327-5.264-9.439-10.786-9.439-3.009 0-5.733 1.22-7.705 3.192l1.669 1.669c1.544-1.545 3.679-2.501 6.036-2.501 4.206 0 7.693 3.046 8.396 7.050-1.081 0.095-2.069 0.327-2.893 0.661l3.25 3.25c0.403 0.403 1.057 0.403 1.46 0l3.247-3.247c-0.765-0.311-1.679-0.529-2.674-0.635z" fill="#000000"></path>
</svg>
