<?xml version="1.0" encoding="utf-8"?>
<!-- Generated by IcoMoon.io -->
<!DOCTYPE svg PUBLIC "-//W3C//DTD SVG 1.1//EN" "http://www.w3.org/Graphics/SVG/1.1/DTD/svg11.dtd">
<svg version="1.1" xmlns="http://www.w3.org/2000/svg" xmlns:xlink="http://www.w3.org/1999/xlink" width="30" height="30" viewBox="0 0 30 30">
<g>
	<line stroke-width="1" x1="" y1="" x2="" y2="" stroke="#449FDB" opacity=""></line>
</g>
	<path d="M16.43 15.013l2.705-2.706c-0.207-0.784-0.491-1.501-0.835-2.136l-3.812 3.812-3.823-3.824c-0.344 0.634-0.63 1.35-0.838 2.133l2.72 2.72c0.005 0.004 0.010 0.007 0.015 0.012 0.222 0.222 0.227 0.575 0.021 0.806l0.002 0.003-2.757 2.757c0.208 0.782 0.493 1.496 0.836 2.129l3.824-3.824 3.812 3.812c0.343-0.634 0.628-1.349 0.834-2.132l-2.743-2.743 0.003-0.003c-0.206-0.231-0.201-0.584 0.021-0.806 0.004-0.003 0.010-0.006 0.015-0.010z" fill="#000000"></path>
</svg>
