<?xml version="1.0" encoding="UTF-8" standalone="no"?>
<!-- Created with Inkscape (http://www.inkscape.org/) -->

<svg
   xmlns:dc="http://purl.org/dc/elements/1.1/"
   xmlns:cc="http://creativecommons.org/ns#"
   xmlns:rdf="http://www.w3.org/1999/02/22-rdf-syntax-ns#"
   xmlns:svg="http://www.w3.org/2000/svg"
   xmlns="http://www.w3.org/2000/svg"
   xmlns:inkscape="http://www.inkscape.org/namespaces/inkscape"
   version="1.1"
   width="30"
   height="30"
   viewBox="0 0 30 30"
   id="svg2">
  <metadata
     id="metadata10">
    <rdf:RDF>
      <cc:Work
         rdf:about="">
        <dc:format>image/svg+xml</dc:format>
        <dc:type
           rdf:resource="http://purl.org/dc/dcmitype/StillImage" />
      </cc:Work>
    </rdf:RDF>
  </metadata>
  <defs
     id="defs8" />
  <path
     d="M 22.268,11.236 C 21.453,10.771 20.582,10.483 19.704,10.346 19.219,8.5 18.018,6.836 16.217,5.81 12.651,3.776 8.077,4.987 6.017,8.51 c -2.06,3.523 -0.832,8.043 2.734,10.077 3.57,2.034 8.15,0.823 10.2,-2.7 0.63,-1.073 0.95,-2.24 0.99,-3.4 0.45,0.12 0.89,0.274 1.3,0.512 2.58,1.47 3.47,4.74 1.98,7.29 -1.49,2.55 -4.8,3.42 -7.38,1.95 -0.62,-0.36 -1.15,-0.827 -1.56,-1.36 -0.784,0.14 -1.593,0.16 -2.4,0.042 0.635,1.246 1.626,2.332 2.937,3.08 3.565,2.033 8.14,0.822 10.2,-2.7 2.056,-3.52 0.828,-8.043 -2.737,-10.078 z m -4.752,2.87 0.016,-0.012 c -0.014,0.04 -0.035,0.075 -0.05,0.114 -0.02,0.05 -0.046,0.102 -0.067,0.153 -0.815,1.97 -2.708,3.36 -4.97,3.36 -2.998,0 -5.43,-2.43 -5.43,-5.43 0,-2.87 2.233,-5.22 5.057,-5.41 h 0.088 c 0.095,0 0.19,-0.01 0.286,-0.01 0.21,0 0.418,0.014 0.622,0.038 0.102,0.01 0.2,0.035 0.302,0.05 0.184,0.034 0.364,0.073 0.54,0.123 0.437,0.116 0.866,0.27 1.275,0.503 1.126,0.643 1.907,1.636 2.332,2.754 -2.204,0.302 -4.25,1.56 -5.447,3.61 -0.33,0.565 -0.57,1.157 -0.73,1.76 0.706,0.16 1.42,0.196 2.126,0.12 0.105,-0.295 0.228,-0.586 0.392,-0.866 0.876,-1.5 2.385,-2.4 4,-2.604 -0.016,0.59 -0.128,1.18 -0.342,1.754 z"
     inkscape:connector-curvature="0"
     id="path4" />
</svg>
