<?xml version="1.0" encoding="UTF-8" standalone="no"?>
<!-- Created with Inkscape (http://www.inkscape.org/) -->

<svg
   xmlns:dc="http://purl.org/dc/elements/1.1/"
   xmlns:cc="http://creativecommons.org/ns#"
   xmlns:rdf="http://www.w3.org/1999/02/22-rdf-syntax-ns#"
   xmlns:svg="http://www.w3.org/2000/svg"
   xmlns="http://www.w3.org/2000/svg"
   xmlns:inkscape="http://www.inkscape.org/namespaces/inkscape"
   version="1.1"
   width="30"
   height="30"
   viewBox="0 0 30 30"
   id="svg2">
  <metadata
     id="metadata10">
    <rdf:RDF>
      <cc:Work
         rdf:about="">
        <dc:format>image/svg+xml</dc:format>
        <dc:type
           rdf:resource="http://purl.org/dc/dcmitype/StillImage" />
      </cc:Work>
    </rdf:RDF>
  </metadata>
  <defs
     id="defs8" />
  <path
     d="M 21.768,10.798 C 20.953,10.333 20.082,10.045 19.204,9.908 18.719,8.062 17.518,6.398 15.717,5.372 12.151,3.338 7.577,4.549 5.517,8.072 3.46,11.594 4.685,16.115 8.251,18.149 c 3.566,2.033 8.142,0.822 10.2,-2.7 0.627,-1.074 0.945,-2.24 0.99,-3.4 0.444,0.118 0.884,0.273 1.3,0.51 2.58,1.473 3.47,4.746 1.98,7.296 -1.49,2.55 -4.802,3.427 -7.383,1.955 -0.626,-0.355 -1.148,-0.823 -1.566,-1.357 -0.786,0.142 -1.595,0.157 -2.4,0.043 0.633,1.246 1.624,2.332 2.935,3.08 3.565,2.033 8.14,0.822 10.2,-2.7 2.056,-3.522 0.828,-8.043 -2.737,-10.078 z m -4.752,2.87 0.016,-0.012 c -0.014,0.04 -0.035,0.075 -0.05,0.114 -0.02,0.05 -0.046,0.102 -0.067,0.153 -0.815,1.965 -2.708,3.358 -4.97,3.358 -2.998,0 -5.43,-2.43 -5.43,-5.43 0,-2.872 2.233,-5.217 5.057,-5.41 L 11.66,6.437 c 0.095,-0.005 0.19,-0.015 0.286,-0.015 0.21,0 0.418,0.015 0.622,0.04 0.102,0.01 0.2,0.033 0.302,0.05 0.184,0.032 0.364,0.07 0.54,0.12 0.437,0.12 0.866,0.272 1.275,0.506 1.126,0.643 1.907,1.636 2.332,2.754 -2.204,0.303 -4.25,1.562 -5.447,3.61 -0.33,0.566 -0.57,1.158 -0.73,1.762 0.706,0.16 1.42,0.197 2.126,0.12 0.105,-0.294 0.228,-0.585 0.392,-0.865 0.876,-1.5 2.385,-2.4 4,-2.605 -0.016,0.59 -0.128,1.184 -0.342,1.756 z"
     inkscape:connector-curvature="0"
     id="path4" />
</svg>
