<?xml version="1.0" encoding="utf-8"?>
<!-- Generator: Adobe Illustrator 17.1.0, SVG Export Plug-In . SVG Version: 6.00 Build 0)  -->
<!DOCTYPE svg PUBLIC "-//W3C//DTD SVG 1.1//EN" "http://www.w3.org/Graphics/SVG/1.1/DTD/svg11.dtd">
<svg version="1.1" id="Layer_1" xmlns="http://www.w3.org/2000/svg" xmlns:xlink="http://www.w3.org/1999/xlink" x="0px" y="0px"
	 viewBox="0 0 30 30" enable-background="new 0 0 30 30" xml:space="preserve">
<g>
	<g>
		<path fill-rule="evenodd" clip-rule="evenodd" d="M24,10.2c-1.1-0.6-2.3-1-3.5-1.2c-0.7-2.5-2.3-4.7-4.7-6.1
			C11,0.2,4.9,1.8,2.1,6.5C-0.7,11.3,1,17.4,5.8,20.2c4.8,2.7,11,1.1,13.8-3.6c0.9-1.5,1.3-3,1.3-4.6c0.6,0.2,1.2,0.4,1.8,0.7
			c3.5,2,4.7,6.4,2.7,9.9c-2,3.4-6.5,4.6-10,2.6c-0.7-0.4-1.3-0.9-1.8-1.5c-1,0.3-2.1,0.4-3.1,0.4c0.8,1.4,2,2.6,3.6,3.4
			c4.8,2.7,11,1.1,13.8-3.6C30.5,19.1,28.9,13,24,10.2z M17.1,15.1c-0.9,1.5-2.2,2.5-3.7,3.1l0,0c0,0-0.1,0-0.1,0c0,0,0,0,0,0
			c-1.3,0.5-2.9,0.6-4.4,0.2c0,0,0,0,0,0c-0.1,0-0.2-0.1-0.3-0.1c-0.1,0-0.3-0.1-0.4-0.1C8,18.2,7.8,18.1,7.6,18
			c-0.1,0-0.1-0.1-0.2-0.1c-0.1,0-0.2-0.1-0.3-0.1c-0.2-0.1-0.3-0.2-0.5-0.3c0,0,0,0-0.1,0l0,0c-3.1-2.1-4-6.2-2.1-9.5
			c2-3.4,6.5-4.6,10-2.6C16,6.1,17.1,7.5,17.6,9c-3,0.4-5.8,2.1-7.4,4.9c-0.4,0.8-0.8,1.5-1,2.3c0.9,0.3,1.9,0.4,2.8,0.3
			c0.1-0.4,0.3-0.9,0.6-1.3c1.2-2,3.2-3.3,5.4-3.5C18.1,12.9,17.8,14.1,17.1,15.1z"/>
	</g>
</g>
</svg>
