<?xml version="1.0" encoding="utf-8"?>
<!-- Generator: Adobe Illustrator 16.0.4, SVG Export Plug-In . SVG Version: 6.00 Build 0)  -->
<!DOCTYPE svg PUBLIC "-//W3C//DTD SVG 1.1//EN" "http://www.w3.org/Graphics/SVG/1.1/DTD/svg11.dtd">
<svg version="1.1" id="圖層_1" xmlns="http://www.w3.org/2000/svg" xmlns:xlink="http://www.w3.org/1999/xlink" x="0px" y="0px"
	 width="30px" height="30px" viewBox="0 0 30 30" enable-background="new 0 0 30 30" xml:space="preserve">
<g>
	<g>
		<path fill-rule="evenodd" clip-rule="evenodd" fill="#231815" d="M15.194,13.543c1.068-0.895,2.251-1.979,3.462-3.19
			c3.717-3.717,6.268-7.195,5.694-7.767c-0.054-0.054-0.134-0.08-0.237-0.08c-0.992,0-4.162,2.408-7.528,5.776
			c-1.211,1.211-2.295,2.395-3.191,3.462C14.139,12.178,14.758,12.798,15.194,13.543z M27.524,12.814
			c-0.95-1.9-2.606-3.465-4.703-4.561c-1.244,1.436-2.479,2.704-3.126,3.351c-0.989,0.99-2.002,1.942-2.977,2.801
			c0.001,0.028,0.008,0.058,0.008,0.086c0,1.11-0.432,2.155-1.217,2.94c-1.429,1.428-3.497,1.728-4.981,1.728
			c-0.733,0-1.248-0.074-1.304-0.083l-1.082-0.163l-0.163-1.082c-0.062-0.413-0.544-4.094,1.645-6.283
			c0.752-0.753,1.746-1.172,2.807-1.207c0.885-1.01,1.872-2.064,2.904-3.096c0.18-0.18,0.415-0.412,0.681-0.671
			c-0.124-0.002-0.249-0.013-0.373-0.013c-3.465,0-6.704,1.058-9.119,2.981c-2.985,2.375-4.224,5.986-3.154,9.2
			c1.048,3.153,4.064,5.681,8.07,6.764c1.369,0.369,2.793,0.558,4.234,0.558c1.42,0,2.823-0.183,4.171-0.542
			c1.097-0.291,4.733-1.397,5.497-3.431c0.191-0.511,0.293-1.312-0.318-2.216c-0.387-0.572-0.794-1.136-1.201-1.699
			c-0.297-0.413-0.594-0.826-0.884-1.24c-0.122-0.176-0.073-0.312-0.048-0.362c0.04-0.075,0.088-0.109,0.256-0.106
			c0.29,0.053,0.601,0.19,0.931,0.335c0.218,0.097,0.435,0.191,0.7,0.285c0.227,0.067,0.461,0.102,0.694,0.102
			c0.649,0,1.266-0.252,1.735-0.707c0.475-0.459,0.741-1.068,0.754-1.721C27.984,14.512,27.99,13.803,27.524,12.814z M13.132,12.471
			c-0.244-0.085-0.502-0.142-0.774-0.142c-0.654,0-1.247,0.266-1.674,0.693h-0.001c-1.523,1.524-1.084,4.434-1.084,4.434
			s0.73,0.05,1.673,0.047c1.119-0.003,1.794-0.164,2.761-1.131c0.428-0.429,0.693-1.02,0.693-1.674c0-0.286-0.059-0.557-0.151-0.811
			C14.212,13.308,13.719,12.824,13.132,12.471z"/>
	</g>
</g>
</svg>
