<?xml version="1.0" encoding="utf-8"?>
<!-- Generated by IcoMoon.io -->
<!DOCTYPE svg PUBLIC "-//W3C//DTD SVG 1.1//EN" "http://www.w3.org/Graphics/SVG/1.1/DTD/svg11.dtd">
<svg version="1.1" xmlns="http://www.w3.org/2000/svg" xmlns:xlink="http://www.w3.org/1999/xlink" width="30" height="30" viewBox="0 0 30 30">
<g>
	<line stroke-width="1" x1="" y1="" x2="" y2="" stroke="#449FDB" opacity=""></line>
</g>
	<path d="M7.371 0.688c0-0.38-0.309-0.688-0.688-0.688-0.381 0-0.689 0.308-0.689 0.688v2.319l1.377 0.062v-2.381z" fill="#000000"></path>
	<path d="M21 11.74v-7.419c0-0.726-0.588-1.283-1.312-1.283l-1.818 0.032v-2.382h-0.002c0-0.38-0.309-0.688-0.688-0.688-0.381 0-0.689 0.308-0.689 0.688v2.381h1.379v0.851c0 0.38-0.309 0.688-0.689 0.688s-0.688-0.309-0.688-0.688v-0.851h-9.122v0.851c0 0.38-0.309 0.688-0.688 0.688-0.381 0-0.689-0.309-0.689-0.688v-0.882h-1.665c-0.725 0-1.312 0.557-1.312 1.28v16.407c0 0.727 0.588 1.312 1.312 1.312h7.242c1.175 3.287 3.304 6.49 7.999 6.49 4.688 0 8.5-3.814 8.5-8.5-0.001-4.364-3.275-7.436-7.070-8.287zM9.371 11.296l-0.74-0.934 2.695-2.324h1.403v7.201c-0.345 0.502-0.809 1.045-1.040 1.617h-0.609v-5.365c0-0.706 0.018-1.266 0.051-1.679-0.096 0.1-0.213 0.211-0.354 0.332s-0.609 0.505-1.406 1.152zM19.569 27.528c-4.137 0-7.501-3.363-7.501-7.5 0-4.135 3.365-7.5 7.501-7.5s7.5 3.365 7.5 7.5c0 4.137-3.365 7.5-7.5 7.5z" fill="#000000"></path>
	<path d="M19.901 20.382c-0.186 0.186-0.482 0.186-0.666 0l-1.961-1.961c-0.191 0.201-0.354 0.686-0.482 0.916l1.961 1.961c0.449 0.449 1.18 0.449 1.631 0l1.961-1.963c-0.129-0.23-0.289-0.715-0.482-0.914l-1.962 1.961z" fill="#000000"></path>
</svg>
