<?xml version="1.0" encoding="UTF-8" standalone="no"?>
<!-- Created with Inkscape (http://www.inkscape.org/) -->

<svg
   xmlns:dc="http://purl.org/dc/elements/1.1/"
   xmlns:cc="http://creativecommons.org/ns#"
   xmlns:rdf="http://www.w3.org/1999/02/22-rdf-syntax-ns#"
   xmlns:svg="http://www.w3.org/2000/svg"
   xmlns="http://www.w3.org/2000/svg"
   xmlns:inkscape="http://www.inkscape.org/namespaces/inkscape"
   version="1.1"
   width="30"
   height="30"
   viewBox="0 0 30 30"
   id="svg2">
  <metadata
     id="metadata10">
    <rdf:RDF>
      <cc:Work
         rdf:about="">
        <dc:format>image/svg+xml</dc:format>
        <dc:type
           rdf:resource="http://purl.org/dc/dcmitype/StillImage" />
      </cc:Work>
    </rdf:RDF>
  </metadata>
  <defs
     id="defs8" />
  <path
     d="M 6.14,0 C 5.76,0 5.453,0.307 5.453,0.688 V 3.063 H 3.797 c -0.726,0 -1.313,0.558 -1.313,1.28 V 20.75 c 0,0.727 0.59,1.313 1.313,1.313 h 7.22 c 1.175,3.286 3.304,6.468 8,6.468 4.687,0 8.5,-3.814 8.5,-8.5 0,-4.364 -3.27,-7.43 -7.064,-8.28 V 4.344 c 0,-0.725 -0.588,-1.282 -1.312,-1.282 L 17.329,3.094 V 0.688 C 17.329,0.308 17.019,0 16.642,0 16.262,0 15.955,0.307 15.955,0.688 V 3.094 H 6.828 V 0.688 C 6.828,0.307 6.52,0 6.14,0 z m 4.626,8.063 h 1.406 v 7.187 c -0.346,0.503 -0.8,1.053 -1.03,1.625 H 10.547 V 11.5 c 0,-0.706 0,-1.274 0.03,-1.688 -0.094,0.1 -0.202,0.223 -0.343,0.344 -0.14,0.12 -0.61,0.51 -1.406,1.156 l -0.75,-0.937 z m 8.25,4.468 c 4.136,0 7.5,3.366 7.5,7.5 0,4.138 -3.364,7.5 -7.5,7.5 -4.138,0 -7.5,-3.362 -7.5,-7.5 0,-4.134 3.365,-7.5 7.5,-7.5 z m -2.282,5.908 c -0.192,0.2 -0.372,0.676 -0.5,0.906 l 1.97,1.968 c 0.45,0.45 1.172,0.45 1.624,0 l 1.97,-1.968 c -0.13,-0.23 -0.278,-0.708 -0.47,-0.907 l -1.97,1.97 c -0.184,0.185 -0.47,0.185 -0.655,0 z"
     inkscape:connector-curvature="0"
     id="path4" />
</svg>
