<?xml version="1.0" encoding="UTF-8" standalone="no"?>
<!-- Created with Inkscape (http://www.inkscape.org/) -->

<svg
   xmlns:dc="http://purl.org/dc/elements/1.1/"
   xmlns:cc="http://creativecommons.org/ns#"
   xmlns:rdf="http://www.w3.org/1999/02/22-rdf-syntax-ns#"
   xmlns:svg="http://www.w3.org/2000/svg"
   xmlns="http://www.w3.org/2000/svg"
   xmlns:inkscape="http://www.inkscape.org/namespaces/inkscape"
   version="1.1"
   width="30"
   height="30"
   viewBox="0 0 30 30"
   id="svg2">
  <metadata
     id="metadata10">
    <rdf:RDF>
      <cc:Work
         rdf:about="">
        <dc:format>image/svg+xml</dc:format>
        <dc:type
           rdf:resource="http://purl.org/dc/dcmitype/StillImage" />
      </cc:Work>
    </rdf:RDF>
  </metadata>
  <defs
     id="defs8" />
  <path
     d="m 6.87,0.23 c 0,-0.38 -0.308,-0.688 -0.687,-0.688 -0.38,0 -0.69,0.308 -0.69,0.688 V 2.55 L 6.871,2.61 V 0.23 z M 20.5,11.282 V 3.862 C 20.5,3.137 19.912,2.58 19.188,2.58 L 17.37,2.612 V 0.23 h -0.002 c 0,-0.38 -0.31,-0.688 -0.688,-0.688 -0.38,0 -0.69,0.308 -0.69,0.688 v 2.38 h 1.38 v 0.852 c 0,0.38 -0.31,0.688 -0.69,0.688 -0.38,0 -0.687,-0.31 -0.687,-0.688 V 2.612 H 6.87 v 0.85 c 0,0.38 -0.308,0.688 -0.687,0.688 -0.38,0 -0.69,-0.31 -0.69,-0.688 V 2.58 H 3.83 c -0.726,0 -1.313,0.557 -1.313,1.28 v 16.407 c 0,0.727 0.588,1.312 1.312,1.312 h 7.24 c 1.176,3.286 3.305,6.49 8,6.49 4.688,0 8.5,-3.815 8.5,-8.5 0,-4.365 -3.275,-7.437 -7.07,-8.288 z M 8.87,10.838 8.13,9.904 10.826,7.58 h 1.403 v 7.2 c -0.346,0.503 -0.81,1.046 -1.04,1.618 h -0.61 v -5.365 c 0,-0.706 0.018,-1.266 0.05,-1.68 -0.095,0.1 -0.212,0.212 -0.353,0.333 -0.141,0.121 -0.61,0.505 -1.406,1.152 z m 10.2,16.232 c -4.138,0 -7.502,-3.363 -7.502,-7.5 0,-4.135 3.365,-7.5 7.5,-7.5 4.136,0 7.5,3.365 7.5,7.5 0,4.137 -3.364,7.5 -7.5,7.5 z m 0.33,-7.146 c -0.185,0.186 -0.48,0.186 -0.665,0 l -1.96,-1.96 c -0.192,0.2 -0.355,0.685 -0.483,0.915 l 1.96,1.96 c 0.45,0.45 1.18,0.45 1.632,0 l 1.96,-1.963 c -0.128,-0.23 -0.288,-0.715 -0.48,-0.914 l -1.963,1.96 z"
     inkscape:connector-curvature="0"
     id="path4" />
</svg>
