<?xml version="1.0" encoding="utf-8"?>
<!-- Generated by IcoMoon.io -->
<!DOCTYPE svg PUBLIC "-//W3C//DTD SVG 1.1//EN" "http://www.w3.org/Graphics/SVG/1.1/DTD/svg11.dtd">
<svg version="1.1" xmlns="http://www.w3.org/2000/svg" xmlns:xlink="http://www.w3.org/1999/xlink" width="32" height="32" viewBox="0 0 32 32">
<g>
</g>
	<path d="M16.539 28.658l-0.067-0.003c-5.881 0-10.646-2.847-10.646-6.355 0-1.551 0.933-2.969 2.48-4.073v-0.341c-2.004 1.283-3.242 3.037-3.242 4.969 0 3.829 4.854 6.948 10.933 7.105l-0.791 1.856 4.78-2.513-2.64-2.512-0.806 1.868z" fill="#000000"></path>
	<path d="M16.005 1.732l0.791-1.548-4.779 2.093 2.637 2.096 0.767-1.539 0.613-0.002c5.644 0.131 10.144 2.443 10.144 5.282 0 1.293-0.937 2.476-2.481 3.395v0.283c2.004-1.069 3.239-2.527 3.239-4.138 0-3.196-4.853-5.791-10.932-5.922z" fill="#000000"></path>
	<path d="M15.682 7.069c-2.982 0-5.399 0.806-5.399 1.801l0.009 13.603c0.048 0.981 2.439 1.771 5.391 1.771 2.956 0 5.345-0.789 5.393-1.771 0 0 0.011-13.602 0.011-13.603 0-0.994-2.419-1.801-5.404-1.801zM13.554 12.517c-0.663 0-1.202-0.532-1.202-1.19s0.539-1.19 1.202-1.19c0.665 0 1.203 0.532 1.203 1.19s-0.539 1.19-1.203 1.19z" fill="#000000"></path>
</svg>
