<?xml version="1.0" encoding="UTF-8" standalone="no"?>
<!-- Created with Inkscape (http://www.inkscape.org/) -->

<svg
   xmlns:dc="http://purl.org/dc/elements/1.1/"
   xmlns:cc="http://creativecommons.org/ns#"
   xmlns:rdf="http://www.w3.org/1999/02/22-rdf-syntax-ns#"
   xmlns:svg="http://www.w3.org/2000/svg"
   xmlns="http://www.w3.org/2000/svg"
   xmlns:inkscape="http://www.inkscape.org/namespaces/inkscape"
   version="1.1"
   width="30"
   height="30"
   viewBox="0 0 30 30"
   id="svg2">
  <metadata
     id="metadata10">
    <rdf:RDF>
      <cc:Work
         rdf:about="">
        <dc:format>image/svg+xml</dc:format>
        <dc:type
           rdf:resource="http://purl.org/dc/dcmitype/StillImage" />
      </cc:Work>
    </rdf:RDF>
  </metadata>
  <defs
     id="defs8" />
  <path
     d="m 22.182,5.396 h -14.3 c -1.006,0 -1.818,0.87 -1.818,1.947 V 7.48 c 0.4,0.153 0.814,0.287 1.23,0.42 V 7.74 c 0,-0.587 0.443,-1.063 0.988,-1.063 H 21.78 c 0.548,0 0.99,0.475 0.99,1.062 v 0.16 C 23.187,7.759 23.6,7.629 24,7.479 v -0.14 c 0,-1.08 -0.812,-1.95 -1.818,-1.95 z M 15.918,8.95 c -0.49,-0.488 -1.283,-0.488 -1.773,0 l -3.788,3.787 c -0.308,0.31 -0.4,0.737 -0.316,1.135 h 2 V 25 c 1.97,0.242 4,0.242 5.97,0 V 13.872 h 2 c 0.08,-0.398 0.014,-0.826 -0.297,-1.135 L 15.92,8.95 z"
     inkscape:connector-curvature="0"
     id="path4" />
</svg>
