<?xml version="1.0" encoding="UTF-8" standalone="no"?>
<!-- Created with Inkscape (http://www.inkscape.org/) -->

<svg
   xmlns:dc="http://purl.org/dc/elements/1.1/"
   xmlns:cc="http://creativecommons.org/ns#"
   xmlns:rdf="http://www.w3.org/1999/02/22-rdf-syntax-ns#"
   xmlns:svg="http://www.w3.org/2000/svg"
   xmlns="http://www.w3.org/2000/svg"
   xmlns:inkscape="http://www.inkscape.org/namespaces/inkscape"
   version="1.1"
   width="30"
   height="30"
   viewBox="0 0 30 30"
   id="svg2">
  <metadata
     id="metadata10">
    <rdf:RDF>
      <cc:Work
         rdf:about="">
        <dc:format>image/svg+xml</dc:format>
        <dc:type
           rdf:resource="http://purl.org/dc/dcmitype/StillImage" />
      </cc:Work>
    </rdf:RDF>
  </metadata>
  <defs
     id="defs8" />
  <path
     d="m 22.182,5.563 h -14.3 c -1.006,0 -1.818,0.813 -1.818,1.818 v 0.13 c 0.4,0.15 0.814,0.27 1.23,0.39 v -0.15 c 0,-0.54 0.443,-0.99 0.988,-0.99 H 21.78 c 0.548,0 0.99,0.45 0.99,0.99 v 0.15 C 23.187,7.781 23.6,7.661 24,7.511 v -0.13 c 0,-1 -0.812,-1.81 -1.818,-1.81 z M 15.918,8.95 c -0.49,-0.488 -1.283,-0.488 -1.773,0 l -3.788,3.787 c -0.308,0.31 -0.4,0.737 -0.316,1.135 h 2 V 18 c 1.97,0.242 4,0.242 5.97,0 v -4.128 h 2.02 c 0.085,-0.398 -0.005,-0.826 -0.315,-1.135 L 15.92,8.95 z m -9.848,9.288 0.288,2.598 -2.576,-0.732 -0.275,1.765 2.385,0.18 -1.56,2.1 1.668,0.831 0.967,-2.195 1.1,2.21 1.603,-0.85 -1.576,-2.1 2.4,-0.17 -0.23,-1.775 -2.634,0.732 0.29,-2.6 H 6.07 z m 8,0 0.288,2.598 -2.576,-0.732 -0.277,1.765 2.387,0.18 -1.56,2.1 1.665,0.84 0.967,-2.2 1.102,2.211 1.604,-0.852 -1.576,-2.1 2.402,-0.17 -0.232,-1.777 -2.636,0.74 0.29,-2.6 h -1.85 v 0.01 z m 7.994,0 0.29,2.598 -2.577,-0.732 -0.273,1.765 2.387,0.18 -1.56,2.1 1.67,0.84 0.97,-2.2 1.1,2.2 1.608,-0.854 -1.57,-2.1 2.396,-0.17 -0.233,-1.777 -2.63,0.734 0.288,-2.6 h -1.86 v 0.004 z"
     inkscape:connector-curvature="0"
     id="path4" />
</svg>
