<?xml version="1.0" encoding="UTF-8" standalone="no"?>
<!-- Created with Inkscape (http://www.inkscape.org/) -->

<svg
   xmlns:dc="http://purl.org/dc/elements/1.1/"
   xmlns:cc="http://creativecommons.org/ns#"
   xmlns:rdf="http://www.w3.org/1999/02/22-rdf-syntax-ns#"
   xmlns:svg="http://www.w3.org/2000/svg"
   xmlns="http://www.w3.org/2000/svg"
   xmlns:inkscape="http://www.inkscape.org/namespaces/inkscape"
   version="1.1"
   width="30"
   height="30"
   viewBox="0 0 30 30"
   id="svg2">
  <metadata
     id="metadata10">
    <rdf:RDF>
      <cc:Work
         rdf:about="">
        <dc:format>image/svg+xml</dc:format>
        <dc:type
           rdf:resource="http://purl.org/dc/dcmitype/StillImage" />
      </cc:Work>
    </rdf:RDF>
  </metadata>
  <defs
     id="defs8" />
  <path
     d="M 18,24 H 9 C 8.97,24 8.94,23.996 8.91,23.996 8.333,23.39 7.826,22.72 7.392,22 H 18 c 3.312,0 6,-2.686 6,-6 0,-3.312 -2.688,-6 -6,-6 h -5.25 c -0.093,1.305 -0.355,2.5 -0.753,3.482 L 8.345,9.832 c -0.452,-0.454 -0.452,-1.188 0,-1.64 l 3.65,-3.648 c 0.395,0.976 0.66,2.162 0.753,3.458 h 5.254 C 22.42,8.002 26,11.582 26,16 c 0,4.42 -3.582,8 -8,8 z"
     inkscape:connector-curvature="0"
     id="path4" />
</svg>
