<?xml version="1.0" encoding="UTF-8" standalone="no"?>
<!-- Created with Inkscape (http://www.inkscape.org/) -->

<svg
   xmlns:dc="http://purl.org/dc/elements/1.1/"
   xmlns:cc="http://creativecommons.org/ns#"
   xmlns:rdf="http://www.w3.org/1999/02/22-rdf-syntax-ns#"
   xmlns:svg="http://www.w3.org/2000/svg"
   xmlns="http://www.w3.org/2000/svg"
   xmlns:inkscape="http://www.inkscape.org/namespaces/inkscape"
   version="1.1"
   width="30"
   height="30"
   viewBox="0 0 30 30"
   id="svg2">
  <metadata
     id="metadata10">
    <rdf:RDF>
      <cc:Work
         rdf:about="">
        <dc:format>image/svg+xml</dc:format>
        <dc:type
           rdf:resource="http://purl.org/dc/dcmitype/StillImage" />
      </cc:Work>
    </rdf:RDF>
  </metadata>
  <defs
     id="defs8" />
  <path
     d="m 14.997,22.714 c -4.26,0 -7.716,-3.454 -7.716,-7.714 0,-2.134 0.87,-4.065 2.27,-5.46 l 1.19,1.19 c -1.09,1.09 -1.76,2.6 -1.76,4.263 0,3.328 2.7,6.025 6.028,6.025 3.328,0 6.026,-2.697 6.026,-6.025 0,-3.32 -2.686,-6.012 -6.002,-6.025 -0.05,0.843 -0.19,1.63 -0.445,2.26 l -2.26,-2.255 c -0.28,-0.28 -0.28,-0.734 0,-1.014 L 14.58,5.7 c 0.236,0.58 0.368,1.294 0.432,2.06 V 7.28 c 4.26,0 7.71,3.452 7.71,7.712 0,4.26 -3.46,7.72 -7.72,7.72 z"
     inkscape:connector-curvature="0"
     id="path4" />
</svg>
