<?xml version="1.0" encoding="utf-8"?>
<!-- Generated by IcoMoon.io -->
<!DOCTYPE svg PUBLIC "-//W3C//DTD SVG 1.1//EN" "http://www.w3.org/Graphics/SVG/1.1/DTD/svg11.dtd">
<svg version="1.1" xmlns="http://www.w3.org/2000/svg" xmlns:xlink="http://www.w3.org/1999/xlink" width="30" height="30" viewBox="0 0 30 30">
<g>
	<line stroke-width="1" x1="" y1="" x2="" y2="" stroke="#449FDB" opacity=""></line>
</g>
	<path d="M27.714 13.011h-12.21v-3.534c0-0.009 0.001-0.018 0.001-0.027 0-3.87-3.137-7.007-7.007-7.007s-7.006 3.136-7.007 7.005h-0.001v4.088h2.534v-4.088h-0.029c0.001-2.487 2.018-4.502 4.504-4.502s4.502 2.015 4.504 4.502h-0.033v3.563h-0.669c-0.687 0-1.244 0.556-1.244 1.244v12.409c0 0.688 0.557 1.244 1.244 1.244h15.413c0.687 0 1.244-0.557 1.244-1.244v-12.409c0-0.688-0.558-1.244-1.244-1.244z" fill="#000000"></path>
</svg>
