<svg xmlns="http://www.w3.org/2000/svg" xmlns:xlink="http://www.w3.org/1999/xlink" preserveAspectRatio="xMidYMid" width="22" height="22" viewBox="0 0 22 22">
  <defs>
    <style>

      .cls-2 {
        fill: #848484;
      }
    </style>
  </defs>
  <path d="M18.515,1.837 C18.515,1.837 1.337,19.015 1.337,19.015 C1.337,19.015 0.009,17.686 0.009,17.686 C0.009,17.686 6.352,11.343 6.352,11.343 C5.616,10.546 4.896,9.757 4.212,8.988 C2.863,9.349 1.736,9.372 0.810,8.649 C0.810,8.649 9.164,0.295 9.164,0.295 C9.887,1.223 9.864,2.351 9.501,3.702 C10.270,4.385 11.058,5.105 11.854,5.840 C11.854,5.840 17.686,0.009 17.686,0.009 C17.686,0.009 19.100,1.423 19.100,1.423 C19.100,1.423 18.600,1.923 18.600,1.923 C18.600,1.923 18.515,1.837 18.515,1.837 ZM9.013,14.167 C9.013,14.167 14.679,8.501 14.679,8.501 C14.726,8.546 14.771,8.587 14.818,8.632 C16.235,8.318 17.404,8.397 18.295,9.288 C18.611,9.605 18.775,9.908 18.934,10.322 C18.934,10.322 15.592,13.665 15.592,13.665 C15.619,13.692 15.645,13.718 15.672,13.745 C19.302,17.375 22.250,21.108 21.936,21.422 C21.623,21.736 17.890,18.788 14.260,15.158 C14.233,15.131 14.206,15.104 14.179,15.077 C14.179,15.077 10.837,18.419 10.837,18.419 C10.423,18.260 10.119,18.097 9.802,17.780 C8.913,16.890 8.833,15.723 9.146,14.308 C9.100,14.260 9.058,14.214 9.013,14.167 Z" id="path-1" class="cls-2" fill-rule="evenodd"/>
</svg>
