<?xml version="1.0" encoding="UTF-8" standalone="no"?>
<!-- Created with Inkscape (http://www.inkscape.org/) -->

<svg
   xmlns:dc="http://purl.org/dc/elements/1.1/"
   xmlns:cc="http://creativecommons.org/ns#"
   xmlns:rdf="http://www.w3.org/1999/02/22-rdf-syntax-ns#"
   xmlns:svg="http://www.w3.org/2000/svg"
   xmlns="http://www.w3.org/2000/svg"
   xmlns:inkscape="http://www.inkscape.org/namespaces/inkscape"
   version="1.1"
   width="30"
   height="30"
   viewBox="0 0 30 30"
   id="svg2">
  <metadata
     id="metadata10">
    <rdf:RDF>
      <cc:Work
         rdf:about="">
        <dc:format>image/svg+xml</dc:format>
        <dc:type
           rdf:resource="http://purl.org/dc/dcmitype/StillImage" />
      </cc:Work>
    </rdf:RDF>
  </metadata>
  <defs
     id="defs8" />
  <path
     d="M 24,14.398 C 23.684,9.705 19.784,5.994 15.01,5.994 c -4.98,0 -9.02,4.038 -9.02,9.02 0,4.982 4.04,9.02 9.02,9.02 v -2.49 c -3.606,0 -6.53,-2.923 -6.53,-6.53 0,-3.607 2.924,-6.532 6.53,-6.532 3.393,0 6.178,2.585 6.5,5.892 -1.052,0.1 -2.015,0.327 -2.82,0.653 l 3.25,3.25 c 0.405,0.404 1.06,0.404 1.46,0 l 3.25,-3.248 c -0.76,-0.31 -1.665,-0.53 -2.65,-0.64 z"
     inkscape:connector-curvature="0"
     id="path4" />
</svg>
