<?xml version="1.0" encoding="UTF-8" standalone="no"?>
<!-- Created with Inkscape (http://www.inkscape.org/) -->

<svg
   xmlns:dc="http://purl.org/dc/elements/1.1/"
   xmlns:cc="http://creativecommons.org/ns#"
   xmlns:rdf="http://www.w3.org/1999/02/22-rdf-syntax-ns#"
   xmlns:svg="http://www.w3.org/2000/svg"
   xmlns="http://www.w3.org/2000/svg"
   xmlns:inkscape="http://www.inkscape.org/namespaces/inkscape"
   version="1.1"
   width="30"
   height="30"
   viewBox="0 0 30 30"
   id="svg2">
  <metadata
     id="metadata10">
    <rdf:RDF>
      <cc:Work
         rdf:about="">
        <dc:format>image/svg+xml</dc:format>
        <dc:type
           rdf:resource="http://purl.org/dc/dcmitype/StillImage" />
      </cc:Work>
    </rdf:RDF>
  </metadata>
  <defs
     id="defs8" />
  <path
     d="M 19.97,11.5 H 9.16 c -0.27,0 -0.49,0.22 -0.49,0.492 v 5.635 c 0,0.27 0.22,0.492 0.49,0.492 h 0.043 c 0.646,0.56 1.795,1.59 2.75,2.628 l 1.87,2.037 -0.03,4.63 c 0.255,0.08 0.52,0.134 0.803,0.134 0.292,0 0.566,-0.058 0.832,-0.144 l 0.03,-4.52 c 0.5,-0.484 1.147,-1.135 1.815,-1.86 0.99,-1.08 2.1,-2.292 2.736,-2.915 0.25,-0.02 0.45,-0.226 0.45,-0.483 v -5.635 c 0,-0.272 -0.22,-0.492 -0.49,-0.492 z m 0.468,-10 H 8.655 v 9 h 11.783 v -9 z m -6.922,4.625 c 0,0.226 -0.183,0.41 -0.41,0.41 l -1.215,0.004 c -0.225,0 -0.408,-0.185 -0.408,-0.41 V 4.896 c 0,-0.227 0.183,-0.41 0.41,-0.41 l 1.215,-0.004 c 0.226,0 0.41,0.183 0.41,0.41 V 6.125 z M 17.5,6.102 c 0,0.226 -0.19,0.43 -0.416,0.43 h -1.158 c -0.227,0 -0.452,-0.264 -0.452,-0.49 V 4.88 c 0,-0.227 0.228,-0.41 0.452,-0.41 h 1.158 c 0.227,0 0.416,0.244 0.416,0.47 v 1.164 z"
     inkscape:connector-curvature="0"
     id="path4" />
</svg>
