<?xml version="1.0" encoding="UTF-8" standalone="no"?>
<!-- Created with Inkscape (http://www.inkscape.org/) -->

<svg
   xmlns:dc="http://purl.org/dc/elements/1.1/"
   xmlns:cc="http://creativecommons.org/ns#"
   xmlns:rdf="http://www.w3.org/1999/02/22-rdf-syntax-ns#"
   xmlns:svg="http://www.w3.org/2000/svg"
   xmlns="http://www.w3.org/2000/svg"
   xmlns:inkscape="http://www.inkscape.org/namespaces/inkscape"
   version="1.1"
   width="30"
   height="30"
   viewBox="0 0 30 30"
   id="svg2">
  <metadata
     id="metadata10">
    <rdf:RDF>
      <cc:Work
         rdf:about="">
        <dc:format>image/svg+xml</dc:format>
        <dc:type
           rdf:resource="http://purl.org/dc/dcmitype/StillImage" />
      </cc:Work>
    </rdf:RDF>
  </metadata>
  <defs
     id="defs8" />
  <path
     d="m 23.9,7 h -4 v 4 h 2.6 c -0.2,3.5 -3,6.3 -6.5,6.4 V 7 h 3.3 L 15,1 10.8,7 H 14 v 14.1 c -2.2,-0.7 -3.9,-2.4 -4.5,-4.7 1.2,-0.2 2,-1.2 2,-2.5 0,-1.4 -1.1,-2.5 -2.5,-2.5 -1.4,0 -2.5,1.1 -2.5,2.5 0,1 0.6,1.9 1.5,2.3 0.5,2.5 2.1,4.6 4.4,5.7 -0.8,0.7 -1.4,1.8 -1.4,3 0,2.2 1.8,4 4,4 2.2,0 4,-1.8 4,-4 C 19,23 17.7,21.5 16,21 v -2.3 c 4.3,-0.1 7.8,-3.5 7.9,-7.8 V 7 z"
     inkscape:connector-curvature="0"
     id="path4" />
</svg>
