<?xml version="1.0" encoding="utf-8"?>
<!-- Generated by IcoMoon.io -->
<!DOCTYPE svg PUBLIC "-//W3C//DTD SVG 1.1//EN" "http://www.w3.org/Graphics/SVG/1.1/DTD/svg11.dtd">
<svg version="1.1" xmlns="http://www.w3.org/2000/svg" xmlns:xlink="http://www.w3.org/1999/xlink" width="30" height="30" viewBox="0 0 30 30">
<g>
	<line stroke-width="1" x1="" y1="" x2="" y2="" stroke="#449FDB" opacity=""></line>
</g>
	<path d="M20.469 11.958h-10.808c-0.272 0-0.492 0.22-0.492 0.492v5.635c0 0.271 0.22 0.492 0.492 0.492h0.042c0.646 0.561 1.795 1.592 2.749 2.629 0.686 0.746 1.36 1.48 1.872 2.037l-0.031 4.629c0.255 0.080 0.521 0.135 0.803 0.135 0.292 0 0.566-0.057 0.832-0.143l0.031-4.52c0.5-0.484 1.146-1.135 1.814-1.859 0.99-1.080 2.1-2.293 2.736-2.916 0.252-0.021 0.451-0.227 0.451-0.484v-5.635c0.001-0.272-0.22-0.492-0.491-0.492zM20.938 1.958h-11.783v9h11.783v-9zM14.016 6.583c0 0.226-0.183 0.409-0.409 0.409l-1.216 0.005c-0.226 0-0.409-0.184-0.409-0.409v-1.234c0-0.227 0.183-0.409 0.409-0.409l1.216-0.005c0.226 0 0.409 0.183 0.409 0.409v1.234zM18 6.56c0 0.226-0.191 0.43-0.416 0.43h-1.158c-0.227 0-0.452-0.264-0.452-0.489v-1.165c0-0.227 0.228-0.409 0.452-0.409h1.158c0.227 0 0.416 0.243 0.416 0.469v1.164z" fill="#000000"></path>
</svg>
