<?xml version="1.0" encoding="UTF-8" standalone="no"?>
<!-- Created with Inkscape (http://www.inkscape.org/) -->

<svg
   xmlns:dc="http://purl.org/dc/elements/1.1/"
   xmlns:cc="http://creativecommons.org/ns#"
   xmlns:rdf="http://www.w3.org/1999/02/22-rdf-syntax-ns#"
   xmlns:svg="http://www.w3.org/2000/svg"
   xmlns="http://www.w3.org/2000/svg"
   xmlns:inkscape="http://www.inkscape.org/namespaces/inkscape"
   version="1.1"
   width="30"
   height="30"
   viewBox="0 0 30 30"
   id="svg2">
  <metadata
     id="metadata10">
    <rdf:RDF>
      <cc:Work
         rdf:about="">
        <dc:format>image/svg+xml</dc:format>
        <dc:type
           rdf:resource="http://purl.org/dc/dcmitype/StillImage" />
      </cc:Work>
    </rdf:RDF>
  </metadata>
  <defs
     id="defs8" />
  <path
     d="m 21.997,19.597 c 0,-1.978 -1.648,-3.682 -4.035,-4.492 l -3.123,3.123 -3.13,-3.124 c -2.39,0.81 -4.04,2.514 -4.04,4.492 0,1.984 0.393,3.83 1.064,5.404 h 12.19 c 0.676,-1.574 1.07,-3.42 1.07,-5.403 H 21.99 z m -7.16,-5.603 c 2.257,0 4.087,-1.83 4.087,-4.086 0,-2.256 -1.83,-4.086 -4.086,-4.086 -2.257,0 -4.086,1.83 -4.086,4.086 0,2.256 1.83,4.086 4.086,4.086 z"
     inkscape:connector-curvature="0"
     id="path4" />
</svg>
