<?xml version="1.0" encoding="utf-8"?>
<!-- Generated by IcoMoon.io -->
<!DOCTYPE svg PUBLIC "-//W3C//DTD SVG 1.1//EN" "http://www.w3.org/Graphics/SVG/1.1/DTD/svg11.dtd">
<svg version="1.1" xmlns="http://www.w3.org/2000/svg" xmlns:xlink="http://www.w3.org/1999/xlink" width="30" height="30" viewBox="0 0 30 30">
<g>
	<line stroke-width="1" x1="" y1="" x2="" y2="" stroke="#449FDB" opacity=""></line>
</g>
	<path d="M7.584 11.763h-1.655c-0.513 0-0.929 0.416-0.929 0.929v4.524c0 0.513 0.416 0.93 0.929 0.93h1.652l3.167 3.166c0.35 0.351 0.793 0.524 1.252 0.523v-13.76c-0.459-0.001-0.902 0.174-1.252 0.524l-3.164 3.164zM23.708 7.505l-1.040 0.679c0.787 2.107 1.22 4.387 1.22 6.77s-0.433 4.662-1.22 6.77l1.040 0.679c0.897-2.31 1.392-4.821 1.392-7.448s-0.495-5.14-1.392-7.45zM15.254 12.753c0.14 0.712 0.215 1.448 0.215 2.201s-0.075 1.488-0.215 2.2l0.477 0.312c0.176-0.81 0.27-1.649 0.27-2.512s-0.094-1.702-0.27-2.512l-0.477 0.311zM18.968 10.6c0.416 1.378 0.642 2.839 0.642 4.354s-0.226 2.976-0.642 4.354l0.769 0.502c0.489-1.531 0.755-3.162 0.755-4.855 0-1.694-0.266-3.325-0.755-4.856l-0.769 0.501z" fill="#000000"></path>
</svg>
