<?xml version="1.0" encoding="utf-8"?>
<!-- Generated by IcoMoon.io -->
<!DOCTYPE svg PUBLIC "-//W3C//DTD SVG 1.1//EN" "http://www.w3.org/Graphics/SVG/1.1/DTD/svg11.dtd">
<svg version="1.1" xmlns="http://www.w3.org/2000/svg" xmlns:xlink="http://www.w3.org/1999/xlink" width="30" height="30" viewBox="0 0 30 30">
<g>
	<line stroke-width="1" x1="" y1="" x2="" y2="" stroke="#449FDB" opacity=""></line>
</g>
	<path d="M16.445 15.002l3.456-3.457c0.766-0.765 0.766-2.006 0-2.771l-5.886-5.886v9.683l-4.431-4.429c-0.035-0.036-0.075-0.062-0.113-0.094h-0.034v-0.028c-0.042-0.035-0.083-0.074-0.127-0.105-0.241 0.681-0.458 1.396-0.648 2.142l4.948 4.949-4.942 4.943c0.191 0.744 0.408 1.458 0.649 2.137 0.042-0.029 0.080-0.067 0.121-0.1v-0.033h0.040c0.036-0.030 0.074-0.056 0.108-0.089l4.431-4.431v9.683l5.886-5.886c0.766-0.766 0.766-2.006 0-2.771l-3.458-3.457zM16.050 7.763l1.921 1.92c0.005 0.005 0.011 0.008 0.017 0.014 0.248 0.248 0.254 0.643 0.023 0.901l0.003 0.002-1.964 1.963v-4.8zM18.014 20.284l-1.964 1.964v-4.802l1.921 1.92c0.005 0.006 0.011 0.009 0.017 0.014 0.248 0.248 0.254 0.644 0.023 0.902l0.003 0.002z" fill="#000000"></path>
</svg>
