<?xml version="1.0" encoding="utf-8"?>
<!-- Generated by IcoMoon.io -->
<!DOCTYPE svg PUBLIC "-//W3C//DTD SVG 1.1//EN" "http://www.w3.org/Graphics/SVG/1.1/DTD/svg11.dtd">
<svg version="1.1" xmlns="http://www.w3.org/2000/svg" xmlns:xlink="http://www.w3.org/1999/xlink" width="30" height="30" viewBox="0 0 30 30">
<g>
	<line stroke-width="1" x1="" y1="" x2="" y2="" stroke="#449FDB" opacity=""></line>
</g>
	<path d="M2.603 20.111c-0.837 0-1.515-0.689-1.515-1.538v-7.241c0-0.849 0.678-1.538 1.515-1.538h4.137c0.215-0.302 0.45-0.588 0.701-0.86h-4.941c-1.248 0-2.259 1.027-2.259 2.293v7.452c0 1.267 1.011 2.293 2.259 2.293h4.94c-0.251-0.272-0.487-0.559-0.703-0.861h-4.134zM28.937 12.492c-0.422-0.425-0.975-0.71-1.59-0.808v-0.456c0-1.267-1.011-2.293-2.259-2.293h-4.525c0.251 0.272 0.486 0.559 0.701 0.86h3.717c0.837 0 1.516 0.688 1.516 1.538v7.241c0 0.849-0.679 1.538-1.516 1.538h-3.715c-0.216 0.303-0.451 0.589-0.703 0.861h4.525c1.248 0 2.259-1.026 2.259-2.293v-0.456c0.615-0.097 1.168-0.382 1.59-0.807 0.22-1.015 0.345-1.263 0.345-2.448s-0.126-1.463-0.345-2.477zM24.523 18.967c0.468 0 0.847-0.385 0.847-0.86v-6.306c0-0.475-0.379-0.859-0.847-0.859h-3.679c-1.377-2.356-3.923-3.944-6.843-3.944s-5.466 1.587-6.843 3.944h-4.094c-0.468 0-0.847 0.385-0.847 0.859v6.306c0 0.476 0.379 0.86 0.847 0.86h4.095c1.377 2.356 3.922 3.943 6.843 3.943s5.465-1.587 6.843-3.943h3.678zM14.366 19.89v2.067h-1.103v-2.054c-1.071-0.084-2.049-0.503-2.709-1.158l0.729-0.825c0.633 0.63 1.39 0.979 2.421 0.979 1.102 0 2.009-0.572 2.009-1.718 0-0.908-0.427-1.48-1.994-1.968-1.803-0.559-2.779-1.396-2.779-2.752 0-1.27 0.934-2.191 2.339-2.387v-2.123h1.087v2.109c0.989 0.083 1.761 0.446 2.421 1.061l-0.743 0.782c-0.633-0.601-1.335-0.852-2.118-0.852-0.936 0-1.665 0.447-1.665 1.369 0 0.782 0.384 1.201 2.049 1.718 1.485 0.475 2.736 1.242 2.736 3.001 0.001 1.507-0.948 2.554-2.68 2.751z" fill="#000000"></path>
</svg>
