<?xml version="1.0" encoding="utf-8"?>
<!-- Generated by IcoMoon.io -->
<!DOCTYPE svg PUBLIC "-//W3C//DTD SVG 1.1//EN" "http://www.w3.org/Graphics/SVG/1.1/DTD/svg11.dtd">
<svg version="1.1" xmlns="http://www.w3.org/2000/svg" xmlns:xlink="http://www.w3.org/1999/xlink" width="30" height="30" viewBox="0 0 30 30">
<g>
	<line stroke-width="1" x1="" y1="" x2="" y2="" stroke="#449FDB" opacity=""></line>
</g>
	<path d="M26.113 14.96c0-1.021-3.029-1.878-7.15-2.137l-6.192-7.444c-0.35-0.469-2.117-0.513-2.117-0.513h-1.404l3.946 8.109c-2.085 0.25-4.408 0.686-5.664 1.217l-2.197-3.114c-0.279-0.5-0.794-0.5-0.794-0.5h-1.461l1.902 4.576-1.9 4.576h1.46c0 0 0.516 0 0.794-0.501l2.401-3.405c1.277 0.485 3.427 0.88 5.378 1.117l-3.862 7.944 2.705-0.001c0 0 0.466-0.045 0.816-0.514l6.037-7.263c4.198-0.247 7.302-1.113 7.302-2.147z" fill="#000000"></path>
</svg>
