<?xml version="1.0" encoding="utf-8"?>
<!-- Generated by IcoMoon.io -->
<!DOCTYPE svg PUBLIC "-//W3C//DTD SVG 1.1//EN" "http://www.w3.org/Graphics/SVG/1.1/DTD/svg11.dtd">
<svg version="1.1" xmlns="http://www.w3.org/2000/svg" xmlns:xlink="http://www.w3.org/1999/xlink" width="30" height="30" viewBox="0 0 30 30">
<g>
	<line stroke-width="1" x1="" y1="" x2="" y2="" stroke="#449FDB" opacity=""></line>
</g>
	<path d="M14.952 10.114c-3.764 0-7.095 1.817-9.191 4.614l1.767 1.767c1.627-2.356 4.344-3.902 7.424-3.902 3.083 0 5.804 1.549 7.431 3.91l1.767-1.767c-2.097-2.801-5.431-4.622-9.198-4.622zM14.952 15.041c-2.407 0-4.505 1.298-5.649 3.229l0.457 0.457c0.559 0.289 1.142 0.521 1.738 0.716 0.721-1.156 1.991-1.932 3.454-1.932 1.462 0 2.731 0.775 3.452 1.932 0.611-0.199 1.206-0.44 1.777-0.738l0.426-0.425c-1.143-1.937-3.245-3.239-5.655-3.239zM14.952 5.188c-4.772 0-9.050 2.053-12.050 5.305 0.31 0.871 0.689 1.697 1.12 2.479 2.553-3.227 6.496-5.305 10.93-5.305s8.375 2.078 10.928 5.304c0.432-0.782 0.811-1.608 1.12-2.479-3-3.251-7.276-5.304-12.048-5.304zM14.952 19.966c-0.907 0-1.642 0.735-1.642 1.643 0 0.906 0.735 1.642 1.642 1.642s1.642-0.735 1.642-1.642c0-0.908-0.736-1.643-1.642-1.643z" fill="#000000"></path>
</svg>
