<?xml version="1.0" encoding="utf-8"?>
<!-- Generated by IcoMoon.io -->
<!DOCTYPE svg PUBLIC "-//W3C//DTD SVG 1.1//EN" "http://www.w3.org/Graphics/SVG/1.1/DTD/svg11.dtd">
<svg version="1.1" xmlns="http://www.w3.org/2000/svg" xmlns:xlink="http://www.w3.org/1999/xlink" width="30" height="30" viewBox="0 0 30 30">
<g>
	<line stroke-width="1" x1="" y1="" x2="" y2="" stroke="#449FDB" opacity=""></line>
</g>
	<path d="M23.985 5.004h-18.066c-1.653 0-2.919 1.34-2.919 2.993v13.931c0 1.653 1.266 2.993 2.919 2.993h18.066c1.652 0 2.992-1.34 2.992-2.993v-13.931c0.001-1.653-1.339-2.993-2.992-2.993zM14.876 22.226c-3.965 0-7.18-3.214-7.18-7.18s3.215-7.18 7.18-7.18 7.18 3.214 7.18 7.18-3.214 7.18-7.18 7.18zM14.874 9.284c-3.182 0-5.762 2.58-5.762 5.762s2.58 5.762 5.762 5.762 5.761-2.58 5.761-5.762c0-3.182-2.579-5.762-5.761-5.762z" fill="#000000"></path>
</svg>
