<?xml version="1.0" encoding="utf-8"?>
<!-- Generated by IcoMoon.io -->
<!DOCTYPE svg PUBLIC "-//W3C//DTD SVG 1.1//EN" "http://www.w3.org/Graphics/SVG/1.1/DTD/svg11.dtd">
<svg version="1.1" xmlns="http://www.w3.org/2000/svg" xmlns:xlink="http://www.w3.org/1999/xlink" width="30" height="30" viewBox="0 0 30 30">
<g>
	<line stroke-width="1" x1="" y1="" x2="" y2="" stroke="#449FDB" opacity=""></line>
</g>
	<path d="M17.976 16.269v0l0.977-1.055c0.135-0.146 0.135-0.382 0-0.527l-3.115-3.358v0.006l-0.098-0.105c-0.048-0.052-0.048-0.136 0-0.188l3.071-3.311v-1.117l-3.95 4.258c-0.136 0.146-0.136 0.382 0 0.528l3.115 3.358v-0.006l0.098 0.105c0.048 0.051 0.048 0.135 0 0.187l-3.213 3.465c-0.136 0.146-0.136 0.382 0 0.527l3.95 4.259v-1.118l-3.071-3.311c-0.048-0.052-0.048-0.136 0-0.188l2.236-2.409zM12.026 18.679l3.212-3.465c0.135-0.146 0.135-0.382 0-0.527l-3.115-3.358v0.006l-0.098-0.105c-0.048-0.052-0.048-0.136 0-0.188l3.071-3.311v-1.117l-3.95 4.258c-0.136 0.146-0.136 0.382 0 0.528l3.115 3.358v-0.006l0.098 0.105c0.048 0.051 0.048 0.135 0 0.187l-3.212 3.465c-0.135 0.146-0.135 0.382 0 0.527l3.95 4.259v-1.118l-3.071-3.311c-0.048-0.052-0.048-0.136 0-0.187z" fill="#000000"></path>
</svg>
