<?xml version="1.0" encoding="utf-8"?>
<!-- Generator: Adobe Illustrator 17.1.0, SVG Export Plug-In . SVG Version: 6.00 Build 0)  -->
<!DOCTYPE svg PUBLIC "-//W3C//DTD SVG 1.1//EN" "http://www.w3.org/Graphics/SVG/1.1/DTD/svg11.dtd">
<svg version="1.1" id="Layer_1" xmlns="http://www.w3.org/2000/svg" xmlns:xlink="http://www.w3.org/1999/xlink" x="0px" y="0px"
	 viewBox="0 0 30 30" enable-background="new 0 0 30 30" xml:space="preserve">
<g>
	<g>
		<path fill-rule="evenodd" clip-rule="evenodd" d="M11.8,21.3c-0.3-0.3-0.3-0.8,0-1c0,0,0,0,0,0l2.9-2.9c0,0,0,0,0,0l1-1
			c0.6-0.6,0.6-1.6,0-2.2l-1-1v0l-3-3l0,0c-0.3-0.3-0.3-0.8,0-1c0,0,0,0,0,0l4.6-4.6V1.1L9.6,7.9c-0.9,0.9-0.9,2.3,0,3.2l4,4l-4,4
			c-0.9,0.9-0.9,2.3,0,3.2l6.8,6.8v-3.3L11.8,21.3L11.8,21.3z M17.5,9.4L21.8,5V2l-6.4,6.4c-0.8,0.8-0.8,2.2,0,3l3.8,3.8l-3.8,3.8
			c-0.8,0.8-0.8,2.2,0,3l6.4,6.4v-3.1l-4.3-4.4l0,0c-0.3-0.3-0.2-0.7,0-1c0,0,0,0,0,0l2.7-2.7c0,0,0,0,0,0l1-1
			c0.6-0.6,0.6-1.5,0-2.1l-1-1v0l-2.8-2.8l0,0C17.2,10.1,17.2,9.6,17.5,9.4C17.5,9.4,17.5,9.4,17.5,9.4z"/>
	</g>
</g>
</svg>
