<?xml version="1.0" encoding="UTF-8" standalone="no"?>
<!-- Created with Inkscape (http://www.inkscape.org/) -->

<svg
   xmlns:dc="http://purl.org/dc/elements/1.1/"
   xmlns:cc="http://creativecommons.org/ns#"
   xmlns:rdf="http://www.w3.org/1999/02/22-rdf-syntax-ns#"
   xmlns:svg="http://www.w3.org/2000/svg"
   xmlns="http://www.w3.org/2000/svg"
   xmlns:inkscape="http://www.inkscape.org/namespaces/inkscape"
   version="1.1"
   width="30"
   height="30"
   viewBox="0 0 30 30"
   id="svg2">
  <metadata
     id="metadata10">
    <rdf:RDF>
      <cc:Work
         rdf:about="">
        <dc:format>image/svg+xml</dc:format>
        <dc:type
           rdf:resource="http://purl.org/dc/dcmitype/StillImage" />
      </cc:Work>
    </rdf:RDF>
  </metadata>
  <defs
     id="defs8" />
  <path
     d="M 17.95,6.11 C 16.517,6.107 15.355,7.27 15.355,8.702 v 7.688 c 0,1.433 1.16,2.593 2.594,2.593 1.42,0 2.59,-1.16 2.59,-2.592 V 8.71 c 0,-1.43 -1.16,-2.594 -2.6,-2.594 z M 2.48,8.917 v 11.22 h 1.376 c 0.885,0 1.624,-0.708 1.624,-1.594 V 10.52 C 5.48,9.637 4.77,8.928 3.886,8.928 H 2.48 z m 3,5.595 c 0,0.342 0.13,0.707 0.406,0.968 l 4.28,4.033 c 0.352,0.33 0.832,0.43 1.283,0.344 V 9.202 c -0.45,-0.088 -0.93,0.014 -1.28,0.344 l -4.29,4.03 c -0.28,0.262 -0.41,0.596 -0.41,0.938 z m 8.906,-2.688 c -0.292,0.166 -0.542,0.362 -0.812,0.563 v 4 c 0,2.062 1.424,3.756 3.344,4.218 v 2 h -1.532 v 0.496 h 5.125 v -0.5 h -1.53 v -2 c 1.92,-0.47 3.35,-2.16 3.35,-4.22 v -4 c -0.27,-0.21 -0.55,-0.4 -0.85,-0.57 v 4.56 c 0,1.95 -1.58,3.53 -3.53,3.53 -1.96,0 -3.56,-1.58 -3.56,-3.53 V 11.8 z"
     inkscape:connector-curvature="0"
     id="path4" />
</svg>
