<?xml version="1.0" encoding="utf-8"?>
<!-- Generated by IcoMoon.io -->
<!DOCTYPE svg PUBLIC "-//W3C//DTD SVG 1.1//EN" "http://www.w3.org/Graphics/SVG/1.1/DTD/svg11.dtd">
<svg version="1.1" xmlns="http://www.w3.org/2000/svg" xmlns:xlink="http://www.w3.org/1999/xlink" width="30" height="30" viewBox="0 0 30 30">
<g>
	<line stroke-width="1" x1="" y1="" x2="" y2="" stroke="#449FDB" opacity=""></line>
</g>
	<path d="M5 21.998h20v-13.998h-20v13.998zM10.512 10.741c1.52 0 2.752 1.232 2.752 2.752s-1.232 2.751-2.752 2.751-2.751-1.231-2.751-2.751 1.232-2.752 2.751-2.752zM27.041 5h-24.052c-0.543 0-0.989 0.624-0.989 1.167v17.667c0 0.54 0.446 1.166 0.989 1.166h24.052c0.543 0 0.959-0.626 0.959-1.167v-17.666c0-0.543-0.416-1.167-0.959-1.167zM3.963 23l0.037-16h22l0.053 16h-22.090z" fill="#000000"></path>
</svg>
