<?xml version="1.0" encoding="UTF-8" standalone="no"?>
<!-- Created with Inkscape (http://www.inkscape.org/) -->

<svg
   xmlns:dc="http://purl.org/dc/elements/1.1/"
   xmlns:cc="http://creativecommons.org/ns#"
   xmlns:rdf="http://www.w3.org/1999/02/22-rdf-syntax-ns#"
   xmlns:svg="http://www.w3.org/2000/svg"
   xmlns="http://www.w3.org/2000/svg"
   xmlns:inkscape="http://www.inkscape.org/namespaces/inkscape"
   version="1.1"
   width="30"
   height="30"
   viewBox="0 0 30 30"
   id="svg2">
  <metadata
     id="metadata10">
    <rdf:RDF>
      <cc:Work
         rdf:about="">
        <dc:format>image/svg+xml</dc:format>
        <dc:type
           rdf:resource="http://purl.org/dc/dcmitype/StillImage" />
      </cc:Work>
    </rdf:RDF>
  </metadata>
  <defs
     id="defs8" />
  <path
     d="m 24.312,16.15 1.542,-1.542 C 23.38,11.302 19.448,9.154 15,9.154 c -4.44,0 -8.37,2.145 -10.843,5.445 l 2.083,2.08 c 1.92,-2.78 5.126,-4.61 8.76,-4.61 3.406,0 6.42,1.61 8.37,4.1 -1.065,0.112 -2.04,0.5 -2.86,1.102 -1.4,-1.428 -3.35,-2.318 -5.51,-2.318 -2.84,0 -5.315,1.53 -6.665,3.81 l 2.18,2.18 c 0.7,-1.797 2.44,-3.074 4.484,-3.074 1.46,0 2.76,0.663 3.64,1.697 -0.34,0.74 -0.54,1.56 -0.54,2.426 0,3.253 2.64,5.892 5.89,5.892 3.25,0 5.89,-2.64 5.89,-5.893 0.002,-3.146 -2.474,-5.695 -5.58,-5.858 z m 0.547,11.008 h -1.79 v -6.53 h 1.78 v 6.53 z m 0.08,-7.235 c -0.21,0.224 -0.52,0.332 -0.95,0.332 -0.838,0 -1.256,-0.416 -1.256,-1.258 0,-0.837 0.42,-1.252 1.253,-1.252 0.84,0 1.257,0.415 1.257,1.252 0,0.4 -0.103,0.71 -0.312,0.926 z M 27.909,12.547 30,10.46 C 26.448,6.116 21.05,3.343 15,3.343 8.957,3.343 3.562,6.113 0.008,10.45 l 2.088,2.086 C 5.11,8.723 9.763,6.266 15,6.266 c 5.243,0.002 9.902,2.462 12.914,6.28 z M 15,20.78 c -1.068,0 -1.936,0.866 -1.936,1.936 0,1.07 0.867,1.937 1.937,1.937 1.07,0 1.94,-0.866 1.94,-1.937 0,-1.071 -0.87,-1.936 -1.94,-1.936 z"
     inkscape:connector-curvature="0"
     id="path4" />
</svg>
