<?xml version="1.0" encoding="utf-8"?>
<!-- Generated by IcoMoon.io -->
<!DOCTYPE svg PUBLIC "-//W3C//DTD SVG 1.1//EN" "http://www.w3.org/Graphics/SVG/1.1/DTD/svg11.dtd">
<svg version="1.1" xmlns="http://www.w3.org/2000/svg" xmlns:xlink="http://www.w3.org/1999/xlink" width="30" height="30" viewBox="0 0 30 30">
<g>
	<line stroke-width="1" x1="" y1="" x2="" y2="" stroke="#449FDB" opacity=""></line>
</g>
	<path d="M15.001 15.879c-2.396 0-4.484 1.285-5.636 3.197 0.737 0.42 1.51 0.758 2.315 1.008 0.741-1.043 1.945-1.73 3.321-1.73s2.583 0.688 3.322 1.73c0.805-0.252 1.578-0.59 2.314-1.008-1.153-1.914-3.241-3.197-5.636-3.197zM15.001 20.816c-0.908 0-1.645 0.738-1.645 1.646s0.737 1.645 1.645 1.645c0.909 0 1.646-0.736 1.646-1.645s-0.737-1.646-1.646-1.646z" fill="#000000"></path>
</svg>
