<?xml version="1.0" encoding="UTF-8" standalone="no"?>
<svg width="30px" height="30px" viewBox="0 0 30 30" version="1.1" xmlns="http://www.w3.org/2000/svg" xmlns:xlink="http://www.w3.org/1999/xlink" xmlns:sketch="http://www.bohemiancoding.com/sketch/ns">
    <!-- Generator: Sketch 3.0.1 (7597) - http://www.bohemiancoding.com/sketch -->
    <title>Artboard 1</title>
    <description>Created with Sketch.</description>
    <defs></defs>
    <g id="Page-1" stroke="none" stroke-width="1" fill="none" fill-rule="evenodd" sketch:type="MSPage">
        <g id="Artboard-1" sketch:type="MSArtboardGroup" fill="#000000">
            <g id="wifi-4" sketch:type="MSLayerGroup" transform="translate(3.000000, 7.000000)">
                <path d="M12,4.45238095 C8.48,4.45238095 5.36,6.15238095 3.44,8.82380952 L5.12,10.5238095 C6.64,8.33809524 9.2,6.88095238 12,6.88095238 C14.88,6.88095238 17.44,8.33809524 18.96,10.6047619 L20.64,8.9047619 C18.64,6.15238095 15.52,4.45238095 12,4.45238095 L12,4.45238095 Z M12,9.06666667 C9.76,9.06666667 7.84,10.2809524 6.72,12.1428571 L8.48,13.9238095 C9.04,12.4666667 10.4,11.4952381 12,11.4952381 C13.6,11.4952381 14.96,12.547619 15.52,13.9238095 L17.28,12.1428571 C16.24,10.2809524 14.24,9.06666667 12,9.06666667 L12,9.06666667 Z M12,-0.242857143 C7.2,-0.242857143 2.96,1.94285714 0.16,5.42380952 L1.84,7.12380952 C4.24,4.04761905 7.92,2.1047619 12,2.1047619 C16.16,2.1047619 19.84,4.04761905 22.16,7.12380952 L23.84,5.42380952 C21.04,2.02380952 16.8,-0.242857143 12,-0.242857143 L12,-0.242857143 Z M12,13.7619048 C11.12,13.7619048 10.48,14.4904762 10.48,15.3 C10.48,16.1904762 11.2,16.8380952 12,16.8380952 C12.88,16.8380952 13.52,16.1095238 13.52,15.3 C13.52,14.4095238 12.88,13.7619048 12,13.7619048 L12,13.7619048 Z" id="path4" sketch:type="MSShapeGroup"></path>
            </g>
        </g>
    </g>
</svg>