<?xml version="1.0" encoding="UTF-8" standalone="no"?>
<!-- Created with Inkscape (http://www.inkscape.org/) -->

<svg
   xmlns:dc="http://purl.org/dc/elements/1.1/"
   xmlns:cc="http://creativecommons.org/ns#"
   xmlns:rdf="http://www.w3.org/1999/02/22-rdf-syntax-ns#"
   xmlns:svg="http://www.w3.org/2000/svg"
   xmlns="http://www.w3.org/2000/svg"
   xmlns:inkscape="http://www.inkscape.org/namespaces/inkscape"
   version="1.1"
   width="30"
   height="30"
   viewBox="0 0 30 30"
   id="svg2">
  <metadata
     id="metadata10">
    <rdf:RDF>
      <cc:Work
         rdf:about="">
        <dc:format>image/svg+xml</dc:format>
        <dc:type
           rdf:resource="http://purl.org/dc/dcmitype/StillImage" />
      </cc:Work>
    </rdf:RDF>
  </metadata>
  <defs
     id="defs8" />
  <path
     d="m 15,9.5 c -4.4,0 -8.3,2.1 -10.7,5.4 L 6.4,17 c 1.9,-2.7 5.1,-4.5 8.6,-4.5 3.6,0 6.8,1.8 8.7,4.6 L 25.8,15 C 23.3,11.6 19.4,9.5 15,9.5 z m 0,5.7 c -2.8,0 -5.2,1.5 -6.6,3.8 l 2.2,2.2 c 0.7,-1.8 2.4,-3 4.4,-3 2,0 3.7,1.3 4.4,3 L 21.6,19 C 20.3,16.7 17.8,15.2 15,15.2 z M 15,3.7 c -6,0 -11.3,2.7 -14.8,7 l 2.1,2.1 C 5.3,9 9.9,6.6 15,6.6 c 5.2,0 9.8,2.4 12.7,6.2 l 2.1,-2.1 C 26.3,6.5 21,3.7 15,3.7 z M 15,21 c -1.1,0 -1.9,0.9 -1.9,1.9 0,1.1 0.9,1.9 1.9,1.9 1.1,0 1.9,-0.9 1.9,-1.9 C 16.9,21.8 16.1,21 15,21 z"
     inkscape:connector-curvature="0"
     id="path4" />
</svg>
