<?xml version="1.0" encoding="utf-8"?>
<!-- Generator: Adobe Illustrator 17.1.0, SVG Export Plug-In . SVG Version: 6.00 Build 0)  -->
<!DOCTYPE svg PUBLIC "-//W3C//DTD SVG 1.1//EN" "http://www.w3.org/Graphics/SVG/1.1/DTD/svg11.dtd">
<svg version="1.1" id="Layer_1" xmlns="http://www.w3.org/2000/svg" xmlns:xlink="http://www.w3.org/1999/xlink" x="0px" y="0px"
	 viewBox="0 0 30 30" enable-background="new 0 0 30 30" xml:space="preserve">
<g>
	<g>
		<path fill-rule="evenodd" clip-rule="evenodd" d="M15,9.5c-4.4,0-8.3,2.1-10.7,5.4l2.1,2.1c1.9-2.7,5.1-4.5,8.6-4.5
			c3.6,0,6.8,1.8,8.7,4.6l2.1-2.1C23.3,11.6,19.4,9.5,15,9.5z M15,15.2c-2.8,0-5.2,1.5-6.6,3.8l2.2,2.2c0.7-1.8,2.4-3,4.4-3
			c2,0,3.7,1.3,4.4,3l2.2-2.2C20.3,16.7,17.8,15.2,15,15.2z M15,3.7c-6,0-11.3,2.7-14.8,7l2.1,2.1c3-3.8,7.6-6.2,12.7-6.2
			c5.2,0,9.8,2.4,12.7,6.2l2.1-2.1C26.3,6.5,21,3.7,15,3.7z M15,21c-1.1,0-1.9,0.9-1.9,1.9c0,1.1,0.9,1.9,1.9,1.9
			c1.1,0,1.9-0.9,1.9-1.9C16.9,21.8,16.1,21,15,21z"/>
	</g>
</g>
</svg>
