<?xml version="1.0" encoding="UTF-8" standalone="no"?>
<!-- Created with Inkscape (http://www.inkscape.org/) -->

<svg
   xmlns:dc="http://purl.org/dc/elements/1.1/"
   xmlns:cc="http://creativecommons.org/ns#"
   xmlns:rdf="http://www.w3.org/1999/02/22-rdf-syntax-ns#"
   xmlns:svg="http://www.w3.org/2000/svg"
   xmlns="http://www.w3.org/2000/svg"
   xmlns:inkscape="http://www.inkscape.org/namespaces/inkscape"
   version="1.1"
   width="30"
   height="30"
   viewBox="0 0 30 30"
   id="svg2">
  <metadata
     id="metadata10">
    <rdf:RDF>
      <cc:Work
         rdf:about="">
        <dc:format>image/svg+xml</dc:format>
        <dc:type
           rdf:resource="http://purl.org/dc/dcmitype/StillImage" />
      </cc:Work>
    </rdf:RDF>
  </metadata>
  <defs
     id="defs8" />
  <path
     d="m 15,10.94 c -3.772,0 -7.11,1.82 -9.213,4.623 l 1.77,1.773 c 1.635,-2.363 4.356,-3.913 7.444,-3.913 3.094,0 5.82,1.554 7.45,3.92 l 1.772,-1.77 c -2.1,-2.807 -5.443,-4.634 -9.22,-4.634 z m 0,4.94 c -2.395,0 -4.483,1.284 -5.635,3.196 0.737,0.42 1.51,0.758 2.315,1.008 0.74,-1.043 1.945,-1.73 3.32,-1.73 1.378,0 2.584,0.688 3.323,1.73 0.805,-0.252 1.578,-0.59 2.314,-1.008 -1.153,-1.914 -3.24,-3.197 -5.636,-3.197 z M 15,6 C 10.255,6 5.995,8.028 2.99,11.244 3.308,12.109 3.685,12.938 4.124,13.714 6.686,10.53 10.6,8.483 15,8.483 c 4.402,0 8.315,2.05 10.877,5.23 0.44,-0.777 0.816,-1.607 1.135,-2.474 C 24.005,8.025 19.75,6 15.002,6 z m 0,14.816 c -0.907,0 -1.644,0.738 -1.644,1.646 0,0.908 0.737,1.645 1.645,1.645 0.91,0 1.647,-0.736 1.647,-1.645 0,-0.91 -0.737,-1.646 -1.646,-1.646 z"
     inkscape:connector-curvature="0"
     id="path4" />
</svg>
