<?xml version="1.0" encoding="UTF-8" standalone="no"?>
<!-- Created with Inkscape (http://www.inkscape.org/) -->

<svg
   xmlns:dc="http://purl.org/dc/elements/1.1/"
   xmlns:cc="http://creativecommons.org/ns#"
   xmlns:rdf="http://www.w3.org/1999/02/22-rdf-syntax-ns#"
   xmlns:svg="http://www.w3.org/2000/svg"
   xmlns="http://www.w3.org/2000/svg"
   xmlns:inkscape="http://www.inkscape.org/namespaces/inkscape"
   version="1.1"
   width="30"
   height="30"
   viewBox="0 0 30 30"
   id="svg2">
  <metadata
     id="metadata10">
    <rdf:RDF>
      <cc:Work
         rdf:about="">
        <dc:format>image/svg+xml</dc:format>
        <dc:type
           rdf:resource="http://purl.org/dc/dcmitype/StillImage" />
      </cc:Work>
    </rdf:RDF>
  </metadata>
  <defs
     id="defs8" />
  <path
     d="m 13.58,11.97 c 0,-2.545 -1.94,-4.578 -5.31,-4.578 -2.254,0 -3.976,0.97 -5.284,2.665 l 1.912,1.503 c 0.995,-1.184 1.843,-1.717 3.13,-1.717 1.404,0 2.35,0.87 2.35,2.373 0,2.302 -1.355,3.83 -6.93,9.503 V 24 h 10.156 l 0.34,-2.45 H 6.96 C 12,16.748 13.58,14.737 13.58,11.973 V 11.97 z m 7.693,2.626 0.324,2.268 h 2.406 v 4.174 c -0.766,0.438 -1.645,0.625 -2.55,0.625 -2.502,0 -3.796,-1.645 -3.796,-6.025 0,-4.308 1.946,-6.024 4.215,-6.024 1.367,0 2.27,0.417 3.338,1.298 l 1.663,-1.736 c -1.338,-1.16 -2.868,-1.878 -5.142,-1.878 -3.936,0 -7.293,2.917 -7.293,8.337 0,5.493 2.505,8.366 6.95,8.366 2.179,0 4.077,-0.602 5.627,-1.574 V 14.595 H 21.27 v 0.002 z"
     inkscape:connector-curvature="0"
     id="path4" />
</svg>
