<?xml version="1.0" encoding="UTF-8" standalone="no"?>
<!-- Created with Inkscape (http://www.inkscape.org/) -->

<svg
   xmlns:dc="http://purl.org/dc/elements/1.1/"
   xmlns:cc="http://creativecommons.org/ns#"
   xmlns:rdf="http://www.w3.org/1999/02/22-rdf-syntax-ns#"
   xmlns:svg="http://www.w3.org/2000/svg"
   xmlns="http://www.w3.org/2000/svg"
   xmlns:inkscape="http://www.inkscape.org/namespaces/inkscape"
   version="1.1"
   width="30"
   height="30"
   viewBox="0 0 30 30"
   id="svg2">
  <metadata
     id="metadata10">
    <rdf:RDF>
      <cc:Work
         rdf:about="">
        <dc:format>image/svg+xml</dc:format>
        <dc:type
           rdf:resource="http://purl.org/dc/dcmitype/StillImage" />
      </cc:Work>
    </rdf:RDF>
  </metadata>
  <defs
     id="defs8" />
  <path
     d="m 26.328,14.584 c 0,-1.02 -3.1,-1.876 -7.316,-2.135 L 12.674,5.009 C 12.314,4.539 10.507,4.496 10.507,4.496 H 9.07 l 4.04,8.102 c -2.134,0.25 -4.512,0.684 -5.797,1.214 l -2.25,-3.11 c -0.285,-0.5 -0.812,-0.5 -0.812,-0.5 H 2.76 l 1.946,4.57 -1.945,4.573 h 1.494 c 0,0 0.528,0 0.813,-0.5 l 2.458,-3.402 c 1.307,0.484 3.507,0.878 5.503,1.117 l -3.955,7.94 2.768,-0.002 c 0,0 0.477,-0.045 0.835,-0.512 l 6.18,-7.256 c 4.295,-0.248 7.473,-1.113 7.47,-2.146 z"
     inkscape:connector-curvature="0"
     id="path4" />
</svg>
