<?xml version="1.0" encoding="UTF-8" standalone="no"?>
<!-- Created with Inkscape (http://www.inkscape.org/) -->

<svg
   xmlns:dc="http://purl.org/dc/elements/1.1/"
   xmlns:cc="http://creativecommons.org/ns#"
   xmlns:rdf="http://www.w3.org/1999/02/22-rdf-syntax-ns#"
   xmlns:svg="http://www.w3.org/2000/svg"
   xmlns="http://www.w3.org/2000/svg"
   xmlns:inkscape="http://www.inkscape.org/namespaces/inkscape"
   version="1.1"
   width="30"
   height="30"
   viewBox="0 0 30 30"
   id="svg2">
  <metadata
     id="metadata10">
    <rdf:RDF>
      <cc:Work
         rdf:about="">
        <dc:format>image/svg+xml</dc:format>
        <dc:type
           rdf:resource="http://purl.org/dc/dcmitype/StillImage" />
      </cc:Work>
    </rdf:RDF>
  </metadata>
  <defs
     id="defs8" />
  <path
     d="m 23.86,19.193 v -0.02 c -1.356,-0.97 -2.215,-2.375 -2.215,-3.944 v -1.34 l -1.985,1.98 v 0.1 c 0.027,1.474 0.85,2.82 2.2,3.878 h -2.2 v 0.006 h -3.99 l -2.01,2.01 h 9.4 v -0.004 c 0.8,-0.014 1.44,-0.664 1.44,-1.47 0,-0.5 -0.25,-0.943 -0.64,-1.21 z m -11.625,4.11 c 0.333,1.217 1.43,2.117 2.756,2.117 1.48,0 2.68,-1.115 2.85,-2.548 h -5.17 l -0.43,0.43 z M 23.333,5.745 20.82,8.258 C 20.145,7.273 19.09,6.478 17.81,6 17.537,4.694 16.38,3.712 14.992,3.712 c -1.39,0 -2.55,0.985 -2.82,2.295 C 9.918,6.855 8.354,8.68 8.354,10.8 v 4.43 c 0,1.568 -0.86,2.973 -2.215,3.944 v 0.02 c -0.39,0.265 -0.64,0.708 -0.64,1.21 0,0.804 0.64,1.454 1.44,1.47 v 0.002 h 0.26 l -1.81,1.812 c 0.4,0.61 0.92,1.134 1.53,1.536 L 24.87,7.28 C 24.467,6.67 23.943,6.147 23.333,5.746 z M 9.22,19.86 H 8.14 c 1.35,-1.06 2.178,-2.404 2.2,-3.877 V 10.8 h 0.026 C 10.368,8.93 12.442,7.415 15,7.415 c 2.035,0 3.744,0.964 4.367,2.297 L 9.22,19.86 z"
     inkscape:connector-curvature="0"
     id="path4" />
</svg>
