<?xml version="1.0" encoding="UTF-8" standalone="no"?>
<!-- Created with Inkscape (http://www.inkscape.org/) -->

<svg
   xmlns:dc="http://purl.org/dc/elements/1.1/"
   xmlns:cc="http://creativecommons.org/ns#"
   xmlns:rdf="http://www.w3.org/1999/02/22-rdf-syntax-ns#"
   xmlns:svg="http://www.w3.org/2000/svg"
   xmlns="http://www.w3.org/2000/svg"
   xmlns:inkscape="http://www.inkscape.org/namespaces/inkscape"
   version="1.1"
   width="30"
   height="30"
   viewBox="0 0 30 30"
   id="svg2">
  <metadata
     id="metadata10">
    <rdf:RDF>
      <cc:Work
         rdf:about="">
        <dc:format>image/svg+xml</dc:format>
        <dc:type
           rdf:resource="http://purl.org/dc/dcmitype/StillImage" />
      </cc:Work>
    </rdf:RDF>
  </metadata>
  <defs
     id="defs8" />
  <path
     d="M 25.998,6.187 C 24.934,4.211 22.466,3.474 20.488,4.54 c -1.113,0.6 -1.815,1.65 -2.04,2.804 l -15.37,8.294 c 0.03,0.134 0.08,0.265 0.117,0.397 -0.62,0.707 -0.777,1.748 -0.305,2.624 0.474,0.87 1.43,1.31 2.36,1.18 0.09,0.1 0.172,0.21 0.267,0.31 l 8.41,-4.54 v 9.353 c 0.333,0.12 0.673,0.18 1.02,0.18 0.347,0 0.688,-0.06 1.02,-0.18 V 14.52 l 4.918,-2.654 c 1.087,0.444 2.352,0.433 3.465,-0.168 1.977,-1.068 2.716,-3.535 1.648,-5.51 z m -12.216,7.416 c -0.146,-0.19 -0.278,-0.392 -0.396,-0.61 -0.116,-0.215 -0.214,-0.437 -0.29,-0.664 l 3.018,-1.63 c 0.146,0.19 0.28,0.39 0.396,0.61 0.116,0.21 0.214,0.43 0.292,0.66 l -3.02,1.63 z"
     inkscape:connector-curvature="0"
     id="path4" />
</svg>
