<?xml version="1.0" encoding="UTF-8" standalone="no"?>
<!-- Created with Inkscape (http://www.inkscape.org/) -->

<svg
   xmlns:dc="http://purl.org/dc/elements/1.1/"
   xmlns:cc="http://creativecommons.org/ns#"
   xmlns:rdf="http://www.w3.org/1999/02/22-rdf-syntax-ns#"
   xmlns:svg="http://www.w3.org/2000/svg"
   xmlns="http://www.w3.org/2000/svg"
   xmlns:inkscape="http://www.inkscape.org/namespaces/inkscape"
   version="1.1"
   width="30"
   height="30"
   viewBox="0 0 30 30"
   id="svg2">
  <metadata
     id="metadata10">
    <rdf:RDF>
      <cc:Work
         rdf:about="">
        <dc:format>image/svg+xml</dc:format>
        <dc:type
           rdf:resource="http://purl.org/dc/dcmitype/StillImage" />
      </cc:Work>
    </rdf:RDF>
  </metadata>
  <defs
     id="defs8" />
  <path
     d="m 17.15,15 3.957,-3.96 c 0.877,-0.875 0.877,-2.296 0,-3.172 l -6.74,-6.74 V 12.216 L 9.29,7.144 C 9.25,7.102 9.205,7.074 9.16,7.036 H 9.123 V 7.004 C 9.073,6.964 9.027,6.919 8.977,6.884 8.701,7.664 8.453,8.482 8.235,9.336 l 5.667,5.668 -5.66,5.66 c 0.218,0.853 0.466,1.67 0.742,2.448 0.048,-0.033 0.092,-0.077 0.14,-0.114 V 22.96 H 9.168 C 9.21,22.926 9.253,22.896 9.292,22.857 l 5.075,-5.075 v 11.09 l 6.74,-6.74 c 0.878,-0.878 0.878,-2.3 0,-3.175 L 17.147,15 z m -0.454,-8.29 2.2,2.2 c 0.006,0.005 0.013,0.008 0.02,0.015 0.284,0.284 0.29,0.736 0.026,1.032 h 0.004 l -2.25,2.25 V 6.71 z m 2.25,14.34 -2.25,2.25 v -5.5 l 2.2,2.198 c 0.006,0.007 0.013,0.01 0.02,0.016 0.284,0.284 0.29,0.738 0.026,1.033 l 0.004,0.002 z"
     inkscape:connector-curvature="0"
     id="path4" />
</svg>
