<?xml version="1.0" encoding="UTF-8" standalone="no"?>
<!-- Created with Inkscape (http://www.inkscape.org/) -->

<svg
   xmlns:dc="http://purl.org/dc/elements/1.1/"
   xmlns:cc="http://creativecommons.org/ns#"
   xmlns:rdf="http://www.w3.org/1999/02/22-rdf-syntax-ns#"
   xmlns:svg="http://www.w3.org/2000/svg"
   xmlns="http://www.w3.org/2000/svg"
   xmlns:inkscape="http://www.inkscape.org/namespaces/inkscape"
   version="1.1"
   width="960"
   height="960"
   viewBox="0 0 960 960"
   id="svg2">
  <metadata
     id="metadata10">
    <rdf:RDF>
      <cc:Work
         rdf:about="">
        <dc:format>image/svg+xml</dc:format>
        <dc:type
           rdf:resource="http://purl.org/dc/dcmitype/StillImage" />
      </cc:Work>
    </rdf:RDF>
  </metadata>
  <defs
     id="defs8" />
  <path
     d="M 857.818,453.088 753.158,345.44 c -8.97,-8.97 -20.93,-11.96 -32.89,-8.97 v 284.07 c 11.96,2.99 23.92,0 32.89,-8.97 l 104.66,-107.65 c 14.95,-14.95 14.95,-35.882 0,-50.833 z M 633.55,345.44 528.894,453.088 c -14.95,14.95 -14.95,35.883 0,50.834 L 633.55,611.57 c 8.972,8.97 20.933,11.96 32.893,8.97 V 336.47 c -11.96,-2.99 -23.922,0 -32.892,8.97 z M 487.03,255.733 295.654,40.437 v 349.856 l -161.47,-158.483 -2.99,-2.99 c -2.99,0 -2.99,-2.99 -5.98,-2.99 -8.97,23.923 -14.95,47.844 -23.923,74.756 L 277.72,480 101.29,659.41 c 5.98,26.912 14.952,53.824 23.923,77.746 2.99,0 2.99,-2.99 2.99,-2.99 l 2.99,-2.99 158.482,-161.472 V 919.56 L 484.04,707.256 c 26.91,-26.912 26.91,-71.765 0,-101.668 L 376.39,479.998 487.03,354.41 c 26.91,-26.912 26.91,-71.765 0,-98.677 z m -56.814,382.75 c 8.97,8.97 8.97,23.92 0,32.89 l -65.784,71.766 V 569.7 l 65.784,68.775 z m 2.99,-316.966 -65.784,71.765 V 216.86 l 65.784,68.774 c 5.98,11.96 5.98,26.912 0,35.883 z"
     inkscape:connector-curvature="0"
     id="path4" />
</svg>
