<?xml version="1.0" encoding="UTF-8" standalone="no"?>
<!-- Created with Inkscape (http://www.inkscape.org/) -->

<svg
   xmlns:dc="http://purl.org/dc/elements/1.1/"
   xmlns:cc="http://creativecommons.org/ns#"
   xmlns:rdf="http://www.w3.org/1999/02/22-rdf-syntax-ns#"
   xmlns:svg="http://www.w3.org/2000/svg"
   xmlns="http://www.w3.org/2000/svg"
   xmlns:inkscape="http://www.inkscape.org/namespaces/inkscape"
   version="1.1"
   width="30"
   height="30"
   viewBox="0 0 30 30"
   id="svg2">
  <metadata
     id="metadata10">
    <rdf:RDF>
      <cc:Work
         rdf:about="">
        <dc:format>image/svg+xml</dc:format>
        <dc:type
           rdf:resource="http://purl.org/dc/dcmitype/StillImage" />
      </cc:Work>
    </rdf:RDF>
  </metadata>
  <defs
     id="defs8" />
  <path
     d="m 21.916,11.498 c -1.152,0 -2.246,0.253 -3.234,0.697 0.03,0.45 0.154,1.222 0.646,0.952 0.318,-0.176 2.352,0.153 1.578,0.418 -0.463,0.16 -0.814,0.562 -0.525,0.562 0.286,-0.003 0.532,0.395 0.96,-0.11 0.43,-0.504 1.355,-1.287 2.152,-0.79 0.793,0.497 -0.502,0.504 -0.502,0.504 0,0 -0.28,0.578 -0.643,0.58 -0.355,0.003 -1.215,0.94 -1.424,1.59 -0.21,0.646 -0.28,0.646 -0.576,0.146 -0.287,-0.5 -0.72,-0.14 -1.215,0.513 -0.498,0.646 0.94,1.282 0.94,1.282 l 0.724,0.643 c 0,0 0.574,-0.146 0.86,-0.293 0.284,-0.146 0.216,0.285 1.228,0.71 1.006,0.427 0.146,0.5 1.08,0.784 0.936,0.28 1.154,0.996 1.154,0.996 l -0.28,0.576 -0.282,0.863 c 0,0 -0.43,0.147 -0.64,0.866 -0.214,0.718 -0.714,0.865 -1.07,1.23 -0.358,0.358 0.08,1.145 0.296,1.574 0.22,0.435 -0.428,-0.067 -0.717,-0.138 -0.29,-0.07 -0.44,-0.934 -0.584,-1.358 -0.144,-0.43 0.063,-1.437 0.06,-1.938 -0.002,-0.502 -0.29,-0.644 -0.65,-1.072 -0.36,-0.43 -0.363,-0.5 -0.582,-1.288 -0.225,-0.787 -0.082,-1.004 0.133,-1.147 0.218,-0.147 -0.573,-0.428 -0.937,-0.57 -0.357,-0.143 -0.72,-0.427 -1.225,-0.78 -0.506,-0.353 -0.652,-0.926 -0.87,-1.212 -0.218,-0.287 -0.298,-1.58 -0.302,-2.012 -0.004,-0.427 0.494,-0.935 0.277,-1.295 -0.043,-0.067 -0.13,-0.108 -0.234,-0.135 -2.113,1.42 -3.504,3.832 -3.504,6.568 0,4.368 3.542,7.91 7.91,7.91 4.368,0 7.91,-3.542 7.91,-7.91 0,-4.368 -3.543,-7.915 -7.91,-7.915 z m 5.412,5.436 c -0.19,0.15 -0.488,0.322 -0.766,0.325 -0.213,0.043 -0.533,0.11 -0.812,0.11 -0.277,0.003 -0.598,0.07 -0.875,0.07 -0.172,-0.022 -0.275,0 -0.342,-0.042 l -0.064,-0.04 c -0.044,-0.214 0.165,-0.534 0.296,-0.73 0.21,-0.32 0.53,-0.39 0.678,-0.75 0.043,-0.064 0.312,-0.623 0.312,-0.623 -0.215,-0.233 -0.514,-0.338 -0.236,-0.617 0.19,-0.15 0.48,-0.032 0.684,0.08 0.932,0.532 1.64,1.73 1.62,1.9 -0.064,0.237 -0.345,0.228 -0.496,0.316 z m -14.601,7.072 c -0.71,0 -1.29,-0.576 -1.29,-1.29 0,-0.683 0.54,-1.23 1.21,-1.272 -0.09,-0.39 -0.164,-0.78 -0.204,-1.18 H 8.66 c -0.553,0 -1,-0.447 -1,-1 V 5.634 c 0,-0.552 0.447,-1 1,-1 h 8.6 c 0.553,0 1,0.448 1,1 v 4.916 l 0.016,-0.007 c 0.707,-0.292 1.438,-0.485 2.174,-0.602 V 4.043 c 0,-0.828 -0.674,-1.5 -1.5,-1.5 H 7 c -0.828,0 -1.5,0.672 -1.5,1.5 v 19.894 c 0,0.828 0.672,1.5 1.5,1.5 h 7.627 c -0.438,-0.52 -0.82,-1.095 -1.14,-1.707 -0.216,0.163 -0.47,0.276 -0.76,0.276 z"
     inkscape:connector-curvature="0"
     id="path4" />
</svg>
