<?xml version="1.0" encoding="UTF-8" standalone="no"?>
<!-- Created with Inkscape (http://www.inkscape.org/) -->

<svg
   xmlns:dc="http://purl.org/dc/elements/1.1/"
   xmlns:cc="http://creativecommons.org/ns#"
   xmlns:rdf="http://www.w3.org/1999/02/22-rdf-syntax-ns#"
   xmlns:svg="http://www.w3.org/2000/svg"
   xmlns="http://www.w3.org/2000/svg"
   xmlns:inkscape="http://www.inkscape.org/namespaces/inkscape"
   version="1.1"
   width="30"
   height="30"
   viewBox="0 0 30 30"
   id="svg2">
  <metadata
     id="metadata10">
    <rdf:RDF>
      <cc:Work
         rdf:about="">
        <dc:format>image/svg+xml</dc:format>
        <dc:type
           rdf:resource="http://purl.org/dc/dcmitype/StillImage" />
      </cc:Work>
    </rdf:RDF>
  </metadata>
  <defs
     id="defs8" />
  <path
     d="m 9,3 v 2 h 3 V 6.656 C 10.53,7.294 9.14,8.408 8.062,10 H 3 v 4 H 5 V 12 H 7 C 6.524,13.165 6.19,14.49 6.062,16 H 2 v 4 h 2 v -2 h 2.03 c 0.047,1.442 0.242,2.8 0.69,4 H 3 v 4 h 2 v -2 h 2.813 c 1.387,1.845 3.664,3 7.187,3 3.476,0 5.757,-1.155 7.156,-3 H 25 v 2 h 2 v -4 h -3.75 c 0.455,-1.2 0.67,-2.558 0.72,-4 H 26 v 2 h 2 V 16 H 23.937 C 23.805,14.49 23.46,13.164 22.969,12 H 25 v 2 h 2 V 10 H 21.875 C 20.797,8.44 19.423,7.332 18,6.687 V 5 h 3 V 3 H 16 V 6.094 C 15.66,6.04 15.326,6 15,6 14.67,6 14.336,6.045 14,6.094 V 3 H 9 z"
     inkscape:connector-curvature="0"
     id="path4" />
</svg>
