<?xml version="1.0" encoding="UTF-8" standalone="no"?>
<!-- Created with Inkscape (http://www.inkscape.org/) -->

<svg
   xmlns:dc="http://purl.org/dc/elements/1.1/"
   xmlns:cc="http://creativecommons.org/ns#"
   xmlns:rdf="http://www.w3.org/1999/02/22-rdf-syntax-ns#"
   xmlns:svg="http://www.w3.org/2000/svg"
   xmlns="http://www.w3.org/2000/svg"
   xmlns:inkscape="http://www.inkscape.org/namespaces/inkscape"
   version="1.1"
   width="30"
   height="30"
   viewBox="0 0 30 30"
   id="svg2">
  <metadata
     id="metadata10">
    <rdf:RDF>
      <cc:Work
         rdf:about="">
        <dc:format>image/svg+xml</dc:format>
        <dc:type
           rdf:resource="http://purl.org/dc/dcmitype/StillImage" />
      </cc:Work>
    </rdf:RDF>
  </metadata>
  <defs
     id="defs8" />
  <path
     d="m 18.995,19.988 c -3.8,3.8 -8.03,6.257 -11.334,6.868 -1.23,-0.582 -2.41,-1.36 -3.5,-2.3 l 5.16,-4.563 c 0.54,0.392 1.086,0.757 1.637,1.06 l 0.02,-0.017 c 1.17,0.534 3.73,-0.702 6.047,-3.02 2.318,-2.317 3.556,-4.875 3.02,-6.05 l 0.02,-0.02 c -0.304,-0.55 -0.67,-1.097 -1.062,-1.636 l 4.568,-5.158 c 0.94,1.09 1.72,2.267 2.3,3.51 -0.61,3.303 -3.066,7.53 -6.863,11.326 z"
     inkscape:connector-curvature="0"
     id="path4" />
</svg>
