<?xml version="1.0" encoding="UTF-8" standalone="no"?>
<!-- Created with Inkscape (http://www.inkscape.org/) -->

<svg
   xmlns:dc="http://purl.org/dc/elements/1.1/"
   xmlns:cc="http://creativecommons.org/ns#"
   xmlns:rdf="http://www.w3.org/1999/02/22-rdf-syntax-ns#"
   xmlns:svg="http://www.w3.org/2000/svg"
   xmlns="http://www.w3.org/2000/svg"
   xmlns:inkscape="http://www.inkscape.org/namespaces/inkscape"
   version="1.1"
   width="30"
   height="30"
   viewBox="0 0 30 30"
   id="svg2">
  <metadata
     id="metadata10">
    <rdf:RDF>
      <cc:Work
         rdf:about="">
        <dc:format>image/svg+xml</dc:format>
        <dc:type
           rdf:resource="http://purl.org/dc/dcmitype/StillImage" />
      </cc:Work>
    </rdf:RDF>
  </metadata>
  <defs
     id="defs8" />
  <path
     d="m 23.995,14.954 2.457,2.456 c 0.544,0.545 0.544,1.427 0,1.97 l -3.997,3.998 v -6.884 l -3.338,3.338 c -0.06,0.06 -0.123,0.11 -0.19,0.158 C 18.754,19.508 18.6,19 18.467,18.47 l 3.512,-3.514 -3.52,-3.52 c 0.13,-0.53 0.29,-1.04 0.46,-1.522 0.07,0.047 0.13,0.1 0.19,0.16 l 3.34,3.34 V 6.53 l 3.992,3.998 c 0.544,0.543 0.544,1.425 0,1.97 l -2.457,2.456 z m -0.282,5.15 1.396,-1.395 -0.01,-0.01 c 0.16,-0.187 0.16,-0.47 -0.02,-0.64 -0.005,-0.01 -0.01,-0.01 -0.014,-0.01 l -1.36,-1.36 v 3.41 z m 1.378,-8.92 c 0,-0.005 0,-0.007 -0.01,-0.01 l -1.36,-1.366 v 3.415 l 1.4,-1.396 c 0.165,-0.187 0.16,-0.468 -0.016,-0.644 z M 8.17,20.138 H 4.94 C 4.1,20.14 3,19.462 3,18.63 v -7.355 c 0,-0.833 1.1,-1.51 1.935,-1.51 h 3.23 L 13.307,4.623 C 13.83,4.103 14.317,3.833 15,3.789 v 22.33 c -0.682,-0.05 -1.17,-0.32 -1.692,-0.84 l -5.146,-5.14 z"
     inkscape:connector-curvature="0"
     id="path4" />
</svg>
