<?xml version="1.0" encoding="UTF-8" standalone="no"?>
<!-- Created with Inkscape (http://www.inkscape.org/) -->

<svg
   xmlns:dc="http://purl.org/dc/elements/1.1/"
   xmlns:cc="http://creativecommons.org/ns#"
   xmlns:rdf="http://www.w3.org/1999/02/22-rdf-syntax-ns#"
   xmlns:svg="http://www.w3.org/2000/svg"
   xmlns="http://www.w3.org/2000/svg"
   xmlns:inkscape="http://www.inkscape.org/namespaces/inkscape"
   version="1.1"
   width="30"
   height="30"
   viewBox="0 0 30 30"
   id="svg2">
  <metadata
     id="metadata10">
    <rdf:RDF>
      <cc:Work
         rdf:about="">
        <dc:format>image/svg+xml</dc:format>
        <dc:type
           rdf:resource="http://purl.org/dc/dcmitype/StillImage" />
      </cc:Work>
    </rdf:RDF>
  </metadata>
  <defs
     id="defs8" />
  <path
     d="m 19.85,19.88 -0.96,0.96 c -1.94,-0.97 -3.545,-2.506 -4.61,-4.387 -1.066,1.88 -2.673,3.416 -4.613,4.387 l -0.96,-0.96 c 2.46,-1.996 4.05,-5.004 4.163,-8.393 v -0.903 h -2.235 c -0.06,-0.29 0.007,-0.604 0.23,-0.83 l 2.767,-2.765 c 0.358,-0.36 0.938,-0.36 1.294,0 l 2.766,2.76 c 0.225,0.22 0.292,0.54 0.23,0.83 H 15.68 c 0,0 0.003,0.69 0,0.77 0.074,3.44 1.677,6.5 4.17,8.52 z"
     inkscape:connector-curvature="0"
     id="path4" />
</svg>
