<?xml version="1.0" encoding="UTF-8" standalone="no"?>
<!-- Created with Inkscape (http://www.inkscape.org/) -->

<svg
   xmlns:dc="http://purl.org/dc/elements/1.1/"
   xmlns:cc="http://creativecommons.org/ns#"
   xmlns:rdf="http://www.w3.org/1999/02/22-rdf-syntax-ns#"
   xmlns:svg="http://www.w3.org/2000/svg"
   xmlns="http://www.w3.org/2000/svg"
   xmlns:inkscape="http://www.inkscape.org/namespaces/inkscape"
   version="1.1"
   width="30"
   height="30"
   viewBox="0 0 30 30"
   id="svg2">
  <metadata
     id="metadata10">
    <rdf:RDF>
      <cc:Work
         rdf:about="">
        <dc:format>image/svg+xml</dc:format>
        <dc:type
           rdf:resource="http://purl.org/dc/dcmitype/StillImage" />
      </cc:Work>
    </rdf:RDF>
  </metadata>
  <defs
     id="defs8" />
  <path
     d="m 17.714,9.833 v 2.656 c -0.317,0.06 -0.657,-0.01 -0.906,-0.26 l -3.02,-3.02 c -0.39,-0.398 -0.39,-1.03 0,-1.42 l 3.02,-3.02 c 0.25,-0.247 0.59,-0.32 0.906,-0.256 v 2.67 h 7.035 c 0.17,0.872 0.17,1.77 -0.01,2.637 h -7.03 z m 0.642,11.814 0.022,0.022 c 0.608,-0.34 1.208,-0.74 1.803,-1.17 l 5.69,5.03 c -1.2,1.03 -2.49,1.88 -3.86,2.52 -3.64,-0.67 -8.3,-3.38 -12.485,-7.56 -4.183,-4.18 -6.89,-8.84 -7.56,-12.48 0.64,-1.37 1.49,-2.674 2.523,-3.874 L 9.52,9.83 c -0.434,0.594 -0.836,1.196 -1.17,1.8 l 0.02,0.024 c -0.59,1.293 0.773,4.11 3.326,6.663 2.553,2.553 5.367,3.918 6.66,3.327 z"
     inkscape:connector-curvature="0"
     id="path4" />
</svg>
