<?xml version="1.0" encoding="UTF-8" standalone="no"?>
<!-- Created with Inkscape (http://www.inkscape.org/) -->

<svg
   xmlns:dc="http://purl.org/dc/elements/1.1/"
   xmlns:cc="http://creativecommons.org/ns#"
   xmlns:rdf="http://www.w3.org/1999/02/22-rdf-syntax-ns#"
   xmlns:svg="http://www.w3.org/2000/svg"
   xmlns="http://www.w3.org/2000/svg"
   xmlns:inkscape="http://www.inkscape.org/namespaces/inkscape"
   version="1.1"
   width="30"
   height="30"
   viewBox="0 0 30 30"
   id="svg2">
  <metadata
     id="metadata10">
    <rdf:RDF>
      <cc:Work
         rdf:about="">
        <dc:format>image/svg+xml</dc:format>
        <dc:type
           rdf:resource="http://purl.org/dc/dcmitype/StillImage" />
      </cc:Work>
    </rdf:RDF>
  </metadata>
  <defs
     id="defs8" />
  <path
     d="m 22.886,8.548 2.327,2.33 c -0.174,0.702 -0.432,1.335 -0.745,1.888 L 21.51,9.808 18.547,12.77 C 18.235,12.217 17.977,11.586 17.8,10.886 L 20.152,8.534 20.15,8.532 C 20.177,8.502 20.19,8.502 20.21,8.49 20.187,8.483 20.166,8.476 20.135,8.445 l -0.014,-0.01 -2.31,-2.32 c 0.18,-0.697 0.44,-1.32 0.75,-1.872 l 2.95,2.95 2.96,-2.964 c 0.313,0.54 0.57,1.17 0.75,1.86 l -2.36,2.35 0.002,0.002 c -0.027,0.028 -0.04,0.033 -0.06,0.04 0.02,0.008 0.042,0.015 0.075,0.048 0.002,0.005 0.007,0.007 0.01,0.01 z m -4.53,13.098 0.023,0.023 c 0.6,-0.34 1.2,-0.74 1.8,-1.18 l 5.68,5.03 c -1.2,1.037 -2.5,1.886 -3.87,2.525 -3.64,-0.67 -8.3,-3.376 -12.487,-7.563 -4.18,-4.18 -6.884,-8.835 -7.56,-12.47 0.64,-1.373 1.49,-2.675 2.53,-3.876 L 9.51,9.83 c -0.432,0.593 -0.834,1.195 -1.17,1.8 l 0.02,0.023 c -0.59,1.293 0.776,4.11 3.327,6.664 2.554,2.55 5.37,3.915 6.665,3.323 z"
     inkscape:connector-curvature="0"
     id="path4" />
</svg>
