<?xml version="1.0" encoding="UTF-8" standalone="no"?>
<!-- Created with Inkscape (http://www.inkscape.org/) -->

<svg
   xmlns:dc="http://purl.org/dc/elements/1.1/"
   xmlns:cc="http://creativecommons.org/ns#"
   xmlns:rdf="http://www.w3.org/1999/02/22-rdf-syntax-ns#"
   xmlns:svg="http://www.w3.org/2000/svg"
   xmlns="http://www.w3.org/2000/svg"
   xmlns:inkscape="http://www.inkscape.org/namespaces/inkscape"
   version="1.1"
   width="30"
   height="30"
   viewBox="0 0 30 30"
   id="svg2">
  <metadata
     id="metadata10">
    <rdf:RDF>
      <cc:Work
         rdf:about="">
        <dc:format>image/svg+xml</dc:format>
        <dc:type
           rdf:resource="http://purl.org/dc/dcmitype/StillImage" />
      </cc:Work>
    </rdf:RDF>
  </metadata>
  <defs
     id="defs8" />
  <path
     d="m 8.75,10.75 h 12.5 v 2.945 l 1.576,-1.576 V 9.592 c 0,-0.327 -0.267,-0.595 -0.596,-0.595 H 7.594 C 7.266,9 7,9.268 7,9.594 v 10.623 c 0,0.33 0.266,0.595 0.594,0.595 h 6.54 L 15.696,19.25 H 8.75 v -8.5 z m 7.71,9.96 h 1.794 l -1.794,-1.8 v 1.8 z m 5.77,0.102 c 0.328,0 0.596,-0.268 0.596,-0.597 v -1.438 l -2.034,2.035 h 1.438 z m 3.065,-8.718 C 24.74,11.537 24.059,11.317 23.775,11.6 l -6.81,6.81 2.013,2.012 6.81,-6.808 c 0.286,-0.284 0.064,-0.964 -0.493,-1.52 z M 13,13.5 C 13,14.328 12.328,15 11.5,15 10.672,15 10,14.328 10,13.5 10,12.672 10.672,12 11.5,12 c 0.828,0 1.5,0.672 1.5,1.5 z"
     inkscape:connector-curvature="0"
     id="path4" />
</svg>
