<?xml version="1.0" encoding="UTF-8" standalone="no"?>
<!-- Created with Inkscape (http://www.inkscape.org/) -->

<svg
   xmlns:dc="http://purl.org/dc/elements/1.1/"
   xmlns:cc="http://creativecommons.org/ns#"
   xmlns:rdf="http://www.w3.org/1999/02/22-rdf-syntax-ns#"
   xmlns:svg="http://www.w3.org/2000/svg"
   xmlns="http://www.w3.org/2000/svg"
   xmlns:inkscape="http://www.inkscape.org/namespaces/inkscape"
   version="1.1"
   width="30"
   height="30"
   viewBox="0 0 30 30"
   id="svg2">
  <metadata
     id="metadata10">
    <rdf:RDF>
      <cc:Work
         rdf:about="">
        <dc:format>image/svg+xml</dc:format>
        <dc:type
           rdf:resource="http://purl.org/dc/dcmitype/StillImage" />
      </cc:Work>
    </rdf:RDF>
  </metadata>
  <defs
     id="defs8" />
  <path
     d="m 24.407,20.863 c 0,-2.608 -2.174,-4.855 -5.32,-5.924 l -4.117,4.11 -4.12,-4.12 C 7.7,16 5.523,18.242 5.523,20.85 H 5.52 c 0,2.616 0.52,5.05 1.407,7.126 h 16.076 c 0.886,-2.074 1.406,-4.51 1.406,-7.124 h -0.01 z m -9.44,-7.39 c 2.976,0 5.388,-2.412 5.388,-5.388 0,-2.976 -2.412,-5.39 -5.388,-5.39 -2.976,0 -5.387,2.415 -5.387,5.39 0,2.975 2.41,5.39 5.387,5.39 z"
     inkscape:connector-curvature="0"
     id="path4" />
</svg>
