<?xml version="1.0" encoding="UTF-8" standalone="no"?>
<!-- Created with Inkscape (http://www.inkscape.org/) -->

<svg
   xmlns:dc="http://purl.org/dc/elements/1.1/"
   xmlns:cc="http://creativecommons.org/ns#"
   xmlns:rdf="http://www.w3.org/1999/02/22-rdf-syntax-ns#"
   xmlns:svg="http://www.w3.org/2000/svg"
   xmlns="http://www.w3.org/2000/svg"
   xmlns:inkscape="http://www.inkscape.org/namespaces/inkscape"
   version="1.1"
   width="30"
   height="30"
   viewBox="0 0 30 30"
   id="svg2">
  <metadata
     id="metadata10">
    <rdf:RDF>
      <cc:Work
         rdf:about="">
        <dc:format>image/svg+xml</dc:format>
        <dc:type
           rdf:resource="http://purl.org/dc/dcmitype/StillImage" />
      </cc:Work>
    </rdf:RDF>
  </metadata>
  <defs
     id="defs8" />
  <path
     d="m 8.74,25.1 c 0.095,0.975 0.95,1.743 1.914,1.743 h 8.72 c 0.964,0 1.82,-0.77 1.915,-1.743 l 1.31,-13.48 H 7.43 L 8.74,25.1 z M 21.257,6.33 h -1.3 V 5.684 c 0,-1.42 -1.153,-2.573 -2.575,-2.573 h -4.757 c -1.42,0 -2.574,1.16 -2.574,2.58 v 0.65 h -1.3 c -1.48,0 -2.68,1.2 -2.68,2.68 v 1.79 h 17.87 V 9.02 c 0,-1.48 -1.2,-2.68 -2.68,-2.68 z m -2.697,0 H 11.446 V 5.77 c 0,-0.746 0.606,-1.352 1.353,-1.352 h 4.4 c 0.743,0 1.35,0.606 1.35,1.353 v 0.56 z"
     inkscape:connector-curvature="0"
     id="path4" />
</svg>
