<?xml version="1.0" encoding="UTF-8" standalone="no"?>
<!-- Created with Inkscape (http://www.inkscape.org/) -->

<svg
   xmlns:dc="http://purl.org/dc/elements/1.1/"
   xmlns:cc="http://creativecommons.org/ns#"
   xmlns:rdf="http://www.w3.org/1999/02/22-rdf-syntax-ns#"
   xmlns:svg="http://www.w3.org/2000/svg"
   xmlns="http://www.w3.org/2000/svg"
   xmlns:inkscape="http://www.inkscape.org/namespaces/inkscape"
   version="1.1"
   width="30"
   height="30"
   viewBox="0 0 30 30"
   id="svg2">
  <metadata
     id="metadata10">
    <rdf:RDF>
      <cc:Work
         rdf:about="">
        <dc:format>image/svg+xml</dc:format>
        <dc:type
           rdf:resource="http://purl.org/dc/dcmitype/StillImage" />
      </cc:Work>
    </rdf:RDF>
  </metadata>
  <defs
     id="defs8" />
  <path
     d="m 14.792,17.457 c -1.61,0 -2.918,1.307 -2.918,2.918 0,1.611 1.307,2.918 2.918,2.918 1.612,0 2.918,-1.307 2.918,-2.918 0,-1.611 -1.307,-2.918 -2.918,-2.918 z m 0,-4.993 c 3.047,0 5.516,-2.47 5.516,-5.516 0,-3.046 -2.47,-5.516 -5.516,-5.516 -3.047,0 -5.516,2.47 -5.516,5.516 0,3.047 2.47,5.516 5.516,5.516 z m 9.664,7.565 v -0.003 c 0,-3.727 -4.58,-6.49 -9.92,-6.49 -5.335,0 -9.406,2.765 -9.406,6.49 v 0.002 H 5.124 c 0,2.677 0.532,5.17 1.44,7.292 H 23.02 c 0.907,-2.123 1.44,-4.615 1.44,-7.293 h -0.004 z m -4.965,3.25 -0.38,-0.183 c -0.238,-0.115 -0.717,0.113 -1.1,0.496 -0.383,0.383 -0.61,0.86 -0.496,1.1 l 0.184,0.383 c -0.498,0.31 -1.053,0.53 -1.64,0.672 l -0.138,-0.395 c -0.088,-0.25 -0.588,-0.426 -1.13,-0.426 -0.54,0 -1.04,0.176 -1.13,0.426 l -0.14,0.4 c -0.587,-0.137 -1.137,-0.37 -1.637,-0.68 l 0.184,-0.383 c 0.115,-0.236 -0.114,-0.717 -0.496,-1.098 -0.382,-0.383 -0.86,-0.61 -1.1,-0.498 l -0.38,0.184 C 9.782,22.781 9.559,22.224 9.42,21.637 l 0.393,-0.138 c 0.25,-0.088 0.427,-0.588 0.427,-1.13 0,-0.538 -0.176,-1.038 -0.426,-1.126 l -0.4,-0.14 c 0.14,-0.588 0.38,-1.133 0.69,-1.633 l 0.372,0.18 c 0.238,0.116 0.717,-0.112 1.1,-0.495 0.382,-0.383 0.61,-0.86 0.496,-1.1 l -0.18,-0.373 c 0.5,-0.31 1.045,-0.552 1.633,-0.688 l 0.142,0.4 c 0.088,0.25 0.588,0.427 1.13,0.427 0.54,0 1.04,-0.175 1.13,-0.427 l 0.14,-0.4 c 0.588,0.14 1.137,0.372 1.637,0.68 l -0.185,0.382 c -0.115,0.24 0.113,0.717 0.496,1.1 0.384,0.385 0.862,0.61 1.1,0.496 l 0.384,-0.18 c 0.31,0.497 0.53,1.052 0.67,1.638 l -0.393,0.14 c -0.25,0.087 -0.425,0.587 -0.425,1.128 0,0.541 0.176,1.04 0.426,1.13 l 0.4,0.14 c -0.136,0.584 -0.37,1.137 -0.68,1.635 z"
     inkscape:connector-curvature="0"
     id="path4" />
</svg>
