<?xml version="1.0" encoding="UTF-8" standalone="no"?>
<!-- Created with Inkscape (http://www.inkscape.org/) -->

<svg
   xmlns:dc="http://purl.org/dc/elements/1.1/"
   xmlns:cc="http://creativecommons.org/ns#"
   xmlns:rdf="http://www.w3.org/1999/02/22-rdf-syntax-ns#"
   xmlns:svg="http://www.w3.org/2000/svg"
   xmlns="http://www.w3.org/2000/svg"
   xmlns:inkscape="http://www.inkscape.org/namespaces/inkscape"
   version="1.1"
   width="30"
   height="30"
   viewBox="0 0 30 30"
   id="svg2">
  <metadata
     id="metadata10">
    <rdf:RDF>
      <cc:Work
         rdf:about="">
        <dc:format>image/svg+xml</dc:format>
        <dc:type
           rdf:resource="http://purl.org/dc/dcmitype/StillImage" />
      </cc:Work>
    </rdf:RDF>
  </metadata>
  <defs
     id="defs8" />
  <path
     d="m 8.037,4.204 c 0.07,0.313 0.34,0.552 0.674,0.553 h 1.72 c 0.34,0 0.61,-0.24 0.68,-0.553 l 0.02,-0.013 c 0.13,-0.67 0.22,-1.36 0.253,-2.19 H 7.77 c 0.036,0.83 0.125,1.52 0.254,2.19 l 0.02,0.02 z m 5.438,0 c 0.07,0.313 0.34,0.552 0.674,0.553 h 1.71 c 0.33,0 0.6,-0.24 0.67,-0.553 l 0.015,-0.013 c 0.13,-0.67 0.22,-1.36 0.254,-2.19 h -3.6 c 0.035,0.83 0.125,1.52 0.254,2.19 l 0.015,0.02 z m 5.438,0 c 0.07,0.313 0.34,0.552 0.674,0.553 h 1.718 c 0.335,0 0.603,-0.24 0.674,-0.553 l 0.01,-0.013 c 0.13,-0.67 0.22,-1.36 0.25,-2.19 h -3.6 c 0.033,0.83 0.123,1.52 0.253,2.19 l 0.013,0.02 z M 8.037,10.186 c 0.07,0.313 0.34,0.553 0.674,0.553 h 1.72 c 0.34,0 0.61,-0.24 0.68,-0.56 l 0.02,-0.018 c 0.13,-0.677 0.22,-1.35 0.253,-2.173 H 7.77 c 0.036,0.82 0.125,1.495 0.254,2.172 l 0.02,0.012 z m 5.438,0 c 0.07,0.313 0.34,0.553 0.674,0.553 h 1.71 c 0.33,0 0.6,-0.24 0.67,-0.56 l 0.015,-0.018 c 0.13,-0.677 0.22,-1.35 0.254,-2.173 h -3.6 c 0.035,0.82 0.125,1.495 0.254,2.172 l 0.015,0.012 z m 5.438,0 c 0.07,0.313 0.34,0.553 0.674,0.553 h 1.718 c 0.335,0 0.603,-0.24 0.674,-0.56 l 0.01,-0.018 c 0.13,-0.677 0.22,-1.35 0.25,-2.173 h -3.6 c 0.033,0.82 0.123,1.495 0.253,2.172 l 0.013,0.012 z m -10.876,5.98 c 0.07,0.315 0.34,0.554 0.674,0.554 l 0.01,0.002 h 1.718 V 16.72 c 0.336,0 0.604,-0.238 0.675,-0.553 L 11.13,16.154 C 11.26,15.477 11.35,14.822 11.383,14 H 7.77 c 0.035,0.823 0.124,1.478 0.253,2.154 l 0.02,0.013 z m 5.438,0 c 0.07,0.315 0.34,0.554 0.674,0.554 v 0.002 h 1.71 V 16.72 c 0.33,0 0.6,-0.238 0.67,-0.553 l 0.015,-0.013 c 0.13,-0.677 0.22,-1.332 0.254,-2.154 h -3.6 c 0.035,0.823 0.125,1.478 0.254,2.154 l 0.015,0.013 z m 5.438,0 c 0.07,0.315 0.34,0.554 0.674,0.554 v 0.002 h 1.717 V 16.72 c 0.336,0 0.604,-0.238 0.675,-0.553 l 0.01,-0.013 c 0.13,-0.677 0.22,-1.332 0.25,-2.154 h -3.6 c 0.033,0.823 0.123,1.478 0.253,2.154 l 0.013,0.013 z m -11.616,5.73 v 0.025 l 6.292,6.3 c 0.78,0.78 2.04,0.78 2.82,0 l 6.3,-6.3 v -0.02 H 7.29 z"
     inkscape:connector-curvature="0"
     id="path4" />
</svg>
