<?xml version="1.0" encoding="UTF-8" standalone="no"?>
<!-- Created with Inkscape (http://www.inkscape.org/) -->

<svg
   xmlns:dc="http://purl.org/dc/elements/1.1/"
   xmlns:cc="http://creativecommons.org/ns#"
   xmlns:rdf="http://www.w3.org/1999/02/22-rdf-syntax-ns#"
   xmlns:svg="http://www.w3.org/2000/svg"
   xmlns="http://www.w3.org/2000/svg"
   xmlns:inkscape="http://www.inkscape.org/namespaces/inkscape"
   version="1.1"
   width="30"
   height="30"
   viewBox="0 0 30 30"
   id="svg2">
  <metadata
     id="metadata10">
    <rdf:RDF>
      <cc:Work
         rdf:about="">
        <dc:format>image/svg+xml</dc:format>
        <dc:type
           rdf:resource="http://purl.org/dc/dcmitype/StillImage" />
      </cc:Work>
    </rdf:RDF>
  </metadata>
  <defs
     id="defs8" />
  <path
     d="M 19.186,26.703 H 4.812 c -0.44,0 -0.8,-0.354 -0.8,-0.79 v -5.198 h 5.602 l 1.193,1.178 c 0.645,0.64 1.694,0.64 2.34,0 l 1.187,-1.178 h 2.243 c 0.733,0 1.33,-0.59 1.33,-1.32 v -2.223 l 2.075,-2.058 v 10.8 c 0,0.436 -0.356,0.79 -0.796,0.79 z m -1.28,-12.652 h 1.28 c 0.27,0 0.495,0.15 0.64,0.35 l -1.92,1.91 v -2.25 z m -6.713,7.36 -0.698,-0.69 h 2.96 l -0.695,0.69 c -0.432,0.43 -1.134,0.43 -1.567,0 z m 4.994,-1.7 H 1.81 c -0.438,0 -0.796,-0.35 -0.796,-0.79 V 8.18 l 6.794,6.714 c 0.645,0.643 1.692,0.643 2.34,0 l 6.836,-6.78 v 10.803 c 0,0.436 -0.36,0.79 -0.797,0.79 z m -2.147,-9.55 v -0.87 c 0,-0.165 -0.137,-0.3 -0.307,-0.3 H 4.247 C 4.079,8.991 3.94,9.126 3.94,9.294 v 0.918 L 1.157,7.45 H 1.132 C 1.139,7.437 1.157,7.43 1.166,7.417 H 1.076 L 1.309,7.27 c 0.06,-0.06 0.13,-0.105 0.22,-0.14 l 6.64,-4.176 c 0.45,-0.282 1.17,-0.282 1.62,0 l 6.602,4.15 c 0.14,0.046 0.257,0.117 0.35,0.223 l 0.145,0.09 h -0.085 l -2.77,2.743 z m 15.144,0.638 V 13.5 c 0,-0.01 -0.004,-0.02 -0.004,-0.03 l -0.002,1.312 -5.218,5.718 0.01,-3.992 4.498,-4.93 c -0.55,-0.653 -1.365,-1.08 -2.285,-1.08 h -4.157 v 2.29 c -0.303,0.063 -0.625,-0.006 -0.86,-0.24 L 19.12,10.5 H 19.048 V 10.432 L 18.3,9.684 c -0.37,-0.372 -0.37,-0.97 0,-1.343 l 2.867,-2.86 c 0.233,-0.23 0.556,-0.3 0.858,-0.24 V 8 h 4.157 c 1.594,0 2.885,1.246 2.98,2.815 l 0.022,-0.023 z"
     inkscape:connector-curvature="0"
     id="path4" />
</svg>
