<?xml version="1.0" encoding="UTF-8" standalone="no"?>
<!-- Created with Inkscape (http://www.inkscape.org/) -->

<svg
   xmlns:dc="http://purl.org/dc/elements/1.1/"
   xmlns:cc="http://creativecommons.org/ns#"
   xmlns:rdf="http://www.w3.org/1999/02/22-rdf-syntax-ns#"
   xmlns:svg="http://www.w3.org/2000/svg"
   xmlns="http://www.w3.org/2000/svg"
   xmlns:inkscape="http://www.inkscape.org/namespaces/inkscape"
   version="1.1"
   width="704"
   height="1024"
   viewBox="0 0 704 1024"
   id="svg2">
  <metadata
     id="metadata10">
    <rdf:RDF>
      <cc:Work
         rdf:about="">
        <dc:format>image/svg+xml</dc:format>
        <dc:type
           rdf:resource="http://purl.org/dc/dcmitype/StillImage" />
      </cc:Work>
    </rdf:RDF>
  </metadata>
  <defs
     id="defs8" />
  <path
     d="m 381.49,547.405 c -16.212,16.35 -42.632,16.35 -58.98,0 L 20.735,245.665 c 6.246,-6.28 14.78,-9.932 24.235,-9.932 h 614.47 c 9.454,0 18.02,3.584 23.995,9.694 L 381.492,547.405 z m -73.624,79.6 c 24.44,24.438 64,24.438 88.44,0 0,0 297.027,-296.688 297.027,-296.415 l -0.137,416.29 c 0,18.876 -14.814,34.133 -33.724,34.133 H 44.97 c -18.773,0 -34.065,-15.258 -34.065,-34.133 V 330.59 c 0,-0.137 0.068,-0.205 0.068,-0.375 l 296.892,296.79 z"
     inkscape:connector-curvature="0"
     id="path4" />
</svg>
