<?xml version="1.0" encoding="UTF-8" standalone="no"?>
<!-- Created with Inkscape (http://www.inkscape.org/) -->

<svg
   xmlns:dc="http://purl.org/dc/elements/1.1/"
   xmlns:cc="http://creativecommons.org/ns#"
   xmlns:rdf="http://www.w3.org/1999/02/22-rdf-syntax-ns#"
   xmlns:svg="http://www.w3.org/2000/svg"
   xmlns="http://www.w3.org/2000/svg"
   xmlns:inkscape="http://www.inkscape.org/namespaces/inkscape"
   version="1.1"
   width="30"
   height="30"
   viewBox="0 0 30 30"
   id="svg2">
  <metadata
     id="metadata10">
    <rdf:RDF>
      <cc:Work
         rdf:about="">
        <dc:format>image/svg+xml</dc:format>
        <dc:type
           rdf:resource="http://purl.org/dc/dcmitype/StillImage" />
      </cc:Work>
    </rdf:RDF>
  </metadata>
  <defs
     id="defs8" />
  <path
     d="M 17.402,10.598 C 20.045,2.172 16.818,2.686 16.818,2.686 l -0.004,0.05 -0.02,-0.027 C 15.558,8.362 13.08,12.092 9.5,12.6 v 10.9 c 1.92,0.717 3.85,1.424 6.3,1.424 1.38,0 2.706,-0.14 3.946,-0.383 1.693,-2.17 3.04,-5.73 3.523,-9.91 0.103,-0.883 0.147,-1.742 0.165,-2.586 -1.7,-0.786 -3.78,-1.276 -6.033,-1.446 z M 4.5,26.5 C 4.638,26.494 4.784,26.463 4.94,26.398 5.923,25.994 6.61,25.758 7.12,25.302 7.85,22.017 8.308,17.384 8.32,12.24 L 4.5,12.522 V 26.5 z"
     inkscape:connector-curvature="0"
     id="path4" />
</svg>
