<?xml version="1.0" encoding="UTF-8" standalone="no"?>
<!-- Created with Inkscape (http://www.inkscape.org/) -->

<svg
   xmlns:dc="http://purl.org/dc/elements/1.1/"
   xmlns:cc="http://creativecommons.org/ns#"
   xmlns:rdf="http://www.w3.org/1999/02/22-rdf-syntax-ns#"
   xmlns:svg="http://www.w3.org/2000/svg"
   xmlns="http://www.w3.org/2000/svg"
   xmlns:inkscape="http://www.inkscape.org/namespaces/inkscape"
   version="1.1"
   width="30"
   height="30"
   viewBox="0 0 30 30"
   id="svg2">
  <metadata
     id="metadata10">
    <rdf:RDF>
      <cc:Work
         rdf:about="">
        <dc:format>image/svg+xml</dc:format>
        <dc:type
           rdf:resource="http://purl.org/dc/dcmitype/StillImage" />
      </cc:Work>
    </rdf:RDF>
  </metadata>
  <defs
     id="defs8" />
  <path
     d="m 22.73,9.114 c -0.197,-0.34 -0.398,-0.58 -0.797,-0.58 h -1.44 V 5.37 c 0,-0.297 -0.534,-0.836 -0.83,-0.836 h -3.33 c -0.296,0 -0.83,0.54 -0.83,0.837 v 3.163 c -1.09,0 -2.016,-0.042 -2.016,-0.042 v 0.006 c -0.04,0 0.043,0 0,0 V 5.5 c 0,-0.298 -0.517,-0.966 -0.813,-0.966 H 9.346 c -0.296,0 -0.833,0.54 -0.833,0.837 V 8.535 H 7.067 c -0.4,0 -0.6,0.24 -0.8,0.58 -2.794,4.767 -3.12,9.253 -2.495,14.748 0.07,0.603 0.603,0.638 0.728,0.638 h 6.025 c 0.3,0 0.972,-0.326 0.972,-0.787 l 0.003,-5.17 h 6.004 l 0.002,5.17 c 0,0.46 0.723,0.787 1.023,0.787 h 6.026 c 0.125,0 0.602,-0.033 0.67,-0.64 0.626,-5.493 0.3,-9.98 -2.496,-14.746 z m -7.226,7.68 -2.017,-0.043 v -6.53 l 1.01,0.047 v -0.02 l 0.007,0.014 h 1 v 6.533 z"
     inkscape:connector-curvature="0"
     id="path4" />
</svg>
