<?xml version="1.0" encoding="UTF-8" standalone="no"?>
<!-- Created with Inkscape (http://www.inkscape.org/) -->

<svg
   xmlns:dc="http://purl.org/dc/elements/1.1/"
   xmlns:cc="http://creativecommons.org/ns#"
   xmlns:rdf="http://www.w3.org/1999/02/22-rdf-syntax-ns#"
   xmlns:svg="http://www.w3.org/2000/svg"
   xmlns="http://www.w3.org/2000/svg"
   xmlns:inkscape="http://www.inkscape.org/namespaces/inkscape"
   version="1.1"
   width="30"
   height="30"
   viewBox="0 0 30 30"
   id="svg2">
  <metadata
     id="metadata10">
    <rdf:RDF>
      <cc:Work
         rdf:about="">
        <dc:format>image/svg+xml</dc:format>
        <dc:type
           rdf:resource="http://purl.org/dc/dcmitype/StillImage" />
      </cc:Work>
    </rdf:RDF>
  </metadata>
  <defs
     id="defs8" />
  <path
     d="m 26.07,18.438 c 0.687,-1.367 1.726,-4.44 0.837,-6.955 l 0.018,0.073 -0.016,-0.045 c 0,0 -0.168,0.504 -0.4,1.28 -0.017,-0.103 -0.033,-0.206 -0.052,-0.31 0.065,-0.943 0.04,-1.958 -0.152,-2.923 -0.302,-1.527 -1.48,-2.852 -2.104,-3.28 l 0.096,0.08 C 24.227,6.304 24.184,6.276 24.184,6.276 l 0.07,0.386 C 23.578,5.599 22.548,5.099 22.548,5.099 c 0,0 0.03,0.177 0.082,0.55 -2.11,-1.88 -4.89,-3.02 -7.938,-3.02 -3.1,0 -5.925,1.18 -8.05,3.12 0.118,0.14 0.24,0.303 0.365,0.492 0,0 0.807,-0.146 1.79,-0.052 1.714,-1.21 3.754,-1.862 5.894,-1.862 2.737,0 5.31,1.067 7.247,3.004 0.102,0.1 0.2,0.205 0.297,0.31 -0.58,-0.44 -1.284,-0.802 -1.806,-0.842 1.067,0.792 2.652,2.773 2.488,6.257 -0.273,-0.574 -0.602,-1.025 -0.957,-1.34 0.384,3.5 0.05,4.25 -0.183,5.18 -0.052,-0.428 -0.205,-0.75 -0.294,-0.944 0,0 -0.04,1.094 -0.752,2.65 -0.537,1.18 -1.092,1.545 -1.338,1.504 -0.217,-0.036 -0.068,-0.246 -0.11,-0.45 0,0 -0.367,0.176 -0.736,0.56 -0.35,0.36 -0.663,0.762 -0.827,0.648 0.122,-0.103 0.21,-0.273 0.307,-0.43 -0.137,0.095 -0.484,0.354 -1.264,0.47 -0.318,0.048 -1.674,0.294 -3.477,-0.607 0.263,-0.03 0.656,-0.123 0.957,0.055 -0.3,-0.328 -1.025,-0.26 -1.544,-0.423 -0.453,-0.143 -1.044,-0.778 -1.383,-1.1 1.387,0.34 2.86,0.095 3.713,-0.487 0.86,-0.59 1.37,-1.02 1.827,-0.917 0.457,0.103 0.762,-0.356 0.406,-0.764 -0.356,-0.408 -1.22,-0.97 -2.386,-0.664 -0.823,0.216 -1.844,1.126 -3.4,0.205 -1.33,-0.786 -1.32,-1.426 -1.32,-1.833 0,-0.28 0.17,-0.658 0.488,-0.836 0.172,0.063 0.28,0.12 0.28,0.12 0,0 -0.08,-0.124 -0.13,-0.183 l 0.036,-0.01 c 0.14,0.047 0.458,0.165 0.618,0.245 0.217,0.11 0.29,0.22 0.29,0.22 0,0 0.052,-0.03 0,-0.143 -0.023,-0.047 -0.1,-0.182 -0.315,-0.313 h 0.01 c 0.113,0.044 0.233,0.102 0.365,0.176 0.04,-0.19 0.124,-0.39 0.068,-0.738 -0.04,-0.245 -0.034,-0.307 -0.096,-0.396 -0.052,-0.077 0.014,-0.11 0.096,-0.042 -0.02,-0.06 -0.047,-0.12 -0.08,-0.18 v -0.004 c 0.005,-0.02 0.017,-0.04 0.033,-0.064 0.253,-0.352 1.84,-1.185 1.965,-1.278 0.156,-0.116 0.314,-0.285 0.432,-0.48 0.16,-0.1 0.276,-0.516 0.306,-0.828 0.012,-0.125 -0.26,-0.273 -0.403,-0.3 -0.082,-0.022 -0.37,-0.07 -0.58,-0.035 0.008,0.003 0.02,0.008 0.03,0.015 -0.292,-0.02 -0.69,-0.027 -1.225,-0.022 -0.524,0.004 -0.865,-0.3 -1.07,-0.592 -0.042,-0.06 -0.08,-0.12 -0.11,-0.174 -0.046,-0.08 -0.08,-0.155 -0.105,-0.213 0.23,-0.83 0.692,-1.55 1.407,-2.135 0.044,-0.036 -0.17,0.025 -0.13,-0.013 0.05,-0.046 0.353,-0.19 0.41,-0.222 0.072,-0.042 -0.33,-0.15 -0.676,-0.08 -0.344,0.073 -0.413,0.114 -0.59,0.206 0.07,-0.076 0.306,-0.195 0.25,-0.182 -0.377,0.084 -0.82,0.33 -1.196,0.598 -0.003,-0.034 0,-0.062 0.007,-0.116 -0.177,0.093 -0.607,0.424 -0.716,0.676 0,-0.055 0,-0.082 -0.007,-0.144 C 9.694,7.012 9.578,7.144 9.47,7.292 9.468,7.292 9.466,7.295 9.465,7.297 8.345,7.019 7.395,7.087 6.6,7.341 6.334,7.127 5.93,6.745 5.625,6.251 5.595,6.205 5.593,6.351 5.565,6.305 5.395,5.995 5.245,5.491 5.209,5.09 5.205,5.048 5.201,5.01 5.199,4.97 c 0,0 -0.146,0.087 -0.304,0.35 C 4.825,5.438 4.752,5.59 4.689,5.786 4.653,5.899 4.629,5.966 4.602,6.026 4.594,6.046 4.618,5.823 4.609,5.841 4.569,5.921 4.459,6.047 4.425,6.191 4.398,6.298 4.355,6.363 4.338,6.501 4.335,6.501 4.333,6.504 4.332,6.507 4.33,6.475 4.328,6.349 4.318,6.374 c -0.09,0.24 -0.176,0.517 -0.244,0.83 -0.06,0.23 -0.104,0.49 -0.13,0.788 -0.03,0.342 -0.035,0.73 -0.003,1.17 0,0.068 -0.003,0.13 -0.005,0.193 -0.3,0.415 -0.485,0.773 -0.562,0.95 -0.367,0.717 -0.744,1.82 -1.048,3.53 0,0 0.2,-0.634 0.602,-1.358 0,0.01 -0.003,0.02 -0.005,0.028 -0.293,0.922 -0.52,2.342 -0.383,4.455 0.005,-0.07 0.07,-0.613 0.23,-1.345 0.077,1.428 0.485,3.167 1.596,5.07 0.816,1.398 1.777,2.447 2.85,3.228 0.2,0.16 0.402,0.313 0.61,0.46 1.328,0.968 3.394,2.163 5.156,2.416 -0.615,-0.178 -0.998,-0.533 -0.998,-0.533 0,0 2.093,0.672 3.62,0.615 -0.477,-0.082 -0.573,-0.314 -0.573,-0.314 0,0 4.35,0.246 6.61,-1.54 0.507,-0.38 0.84,-0.823 0.94,-1.226 0.666,-0.354 1.385,-0.84 2.123,-1.566 1.23,-1.21 1.363,-2.13 1.496,-2.992 -0.005,0.027 -0.01,0.054 -0.017,0.08 0.058,-0.345 0.02,-0.65 -0.116,-0.872 z"
     inkscape:connector-curvature="0"
     id="path4" />
</svg>
