<?xml version="1.0" encoding="UTF-8" standalone="no"?>
<!-- Created with Inkscape (http://www.inkscape.org/) -->

<svg
   xmlns:dc="http://purl.org/dc/elements/1.1/"
   xmlns:cc="http://creativecommons.org/ns#"
   xmlns:rdf="http://www.w3.org/1999/02/22-rdf-syntax-ns#"
   xmlns:svg="http://www.w3.org/2000/svg"
   xmlns="http://www.w3.org/2000/svg"
   xmlns:inkscape="http://www.inkscape.org/namespaces/inkscape"
   version="1.1"
   width="32"
   height="32"
   viewBox="0 0 32 32"
   id="svg2">
  <metadata
     id="metadata10">
    <rdf:RDF>
      <cc:Work
         rdf:about="">
        <dc:format>image/svg+xml</dc:format>
        <dc:type
           rdf:resource="http://purl.org/dc/dcmitype/StillImage" />
      </cc:Work>
    </rdf:RDF>
  </metadata>
  <defs
     id="defs8" />
  <path
     d="m 25.578,25.58 c -1.367,1.366 -2.954,2.377 -4.647,3.037 v 0.36 c 3.7,-1.407 6.64,-4.347 8.05,-8.047 h -0.36 c -0.66,1.693 -1.67,3.28 -3.04,4.648 z M 3.022,11.07 h 0.36 C 4.042,9.376 5.052,7.788 6.42,6.42 7.788,5.052 9.375,4.043 11.068,3.383 V 3.023 C 7.37,4.43 4.428,7.37 3.022,11.07 z m 25.595,0 h 0.36 C 27.571,7.37 24.63,4.43 20.931,3.023 v 0.36 c 1.7,0.66 3.28,1.67 4.65,3.038 1.37,1.368 2.38,2.96 3.04,4.65 z M 3.383,20.93 h -0.36 c 1.406,3.7 4.348,6.64 8.046,8.048 v -0.36 c -1.7,-0.662 -3.29,-1.672 -4.65,-3.04 -1.36,-1.368 -2.38,-2.954 -3.04,-4.648 z"
     inkscape:connector-curvature="0"
     id="path4" />
</svg>
