<?xml version="1.0" encoding="UTF-8" standalone="no"?>
<!-- Created with Inkscape (http://www.inkscape.org/) -->

<svg
   xmlns:dc="http://purl.org/dc/elements/1.1/"
   xmlns:cc="http://creativecommons.org/ns#"
   xmlns:rdf="http://www.w3.org/1999/02/22-rdf-syntax-ns#"
   xmlns:svg="http://www.w3.org/2000/svg"
   xmlns="http://www.w3.org/2000/svg"
   xmlns:inkscape="http://www.inkscape.org/namespaces/inkscape"
   version="1.1"
   width="30"
   height="30"
   viewBox="0 0 30 30"
   id="svg2">
  <metadata
     id="metadata10">
    <rdf:RDF>
      <cc:Work
         rdf:about="">
        <dc:format>image/svg+xml</dc:format>
        <dc:type
           rdf:resource="http://purl.org/dc/dcmitype/StillImage" />
      </cc:Work>
    </rdf:RDF>
  </metadata>
  <defs
     id="defs8" />
  <path
     d="M 9.78,17.624 7.39,14.867 c -0.396,-0.353 -0.396,-0.924 0,-1.276 l 2.39,-2.695 c 0.25,-0.223 0.398,-0.27 0.72,-0.21 V 4.556 C 10.5,3.991 10.114,3.532 9.33,3.532 L 4.606,3.5 C 3.823,3.5 3.501,3.96 3.501,4.524 v 19.92 c 0,0.565 0.385,1.023 1.168,1.023 l 4.57,0.03 c 0.783,0 1.262,-0.458 1.262,-1.02 V 17.87 c -0.32,0.06 -0.47,-0.024 -0.72,-0.248 z M 24.182,3.5 H 14.167 c -0.553,0 -1.25,0.448 -1.25,1 v 8.595 h -0.796 c 0,0 -2.468,0.245 -2.467,1.12 0,0.902 2.326,1.2 2.326,1.2 h 0.937 v 9.09 c 0,0.552 0.795,0.995 1.35,0.995 H 24.28 c 0.553,0 1.22,-0.443 1.22,-0.996 V 4.5 c -0.002,-0.55 -0.768,-1 -1.32,-1 z m -1.07,20.656 h -7.71 c -0.554,0 -1,-0.447 -1,-1 l -0.01,-7.742 h 2.788 v 2.352 c 0.28,0.057 0.447,-0.007 0.668,-0.227 l 2.672,-2.672 c 0.345,-0.346 0.345,-0.905 0,-1.25 l -2.672,-2.673 c -0.22,-0.22 -0.387,-0.283 -0.668,-0.225 v 2.375 h -2.79 l -0.01,-7.22 c 0,-0.553 0.448,-1 1,-1 h 7.713 c 0.554,0 1,0.447 1,1 l 0.02,17.28 c 0,0.554 -0.447,1 -1,1 z"
     inkscape:connector-curvature="0"
     id="path4" />
</svg>
