<?xml version="1.0" encoding="UTF-8" standalone="no"?>
<!-- Created with Inkscape (http://www.inkscape.org/) -->

<svg
   xmlns:dc="http://purl.org/dc/elements/1.1/"
   xmlns:cc="http://creativecommons.org/ns#"
   xmlns:rdf="http://www.w3.org/1999/02/22-rdf-syntax-ns#"
   xmlns:svg="http://www.w3.org/2000/svg"
   xmlns="http://www.w3.org/2000/svg"
   xmlns:inkscape="http://www.inkscape.org/namespaces/inkscape"
   version="1.1"
   width="30"
   height="30"
   viewBox="0 0 30 30"
   id="svg2">
  <metadata
     id="metadata10">
    <rdf:RDF>
      <cc:Work
         rdf:about="">
        <dc:format>image/svg+xml</dc:format>
        <dc:type
           rdf:resource="http://purl.org/dc/dcmitype/StillImage" />
      </cc:Work>
    </rdf:RDF>
  </metadata>
  <defs
     id="defs8" />
  <path
     d="M 11,18 H 5 v -6 h 6 v 6 z M 11,5 H 6 C 5.448,5 5,5.45 5,6 v 5 h 6 V 5 z m 7,6 V 5 h -6 v 6 h 6 z m -6,7 h 6 v -6 h -6 v 6 z m -7,1 v 5 c 0,0.555 0.448,1 1,1 h 5 V 19 H 5 z M 24,5 h -5 v 6 h 6 V 6 C 25,5.45 24.553,5 24,5 z m -5,13 h 6 v -6 h -6 v 6 z m -7,1 v 6 h 6 v -6 h -6 z m 7,6 h 5 c 0.553,0 1,-0.445 1,-1 v -5 h -6 v 6 z"
     inkscape:connector-curvature="0"
     id="path4" />
</svg>
