<?xml version="1.0" encoding="UTF-8" standalone="no"?>
<!-- Created with Inkscape (http://www.inkscape.org/) -->

<svg
   xmlns:dc="http://purl.org/dc/elements/1.1/"
   xmlns:cc="http://creativecommons.org/ns#"
   xmlns:rdf="http://www.w3.org/1999/02/22-rdf-syntax-ns#"
   xmlns:svg="http://www.w3.org/2000/svg"
   xmlns="http://www.w3.org/2000/svg"
   xmlns:inkscape="http://www.inkscape.org/namespaces/inkscape"
   version="1.1"
   width="32"
   height="32"
   viewBox="0 0 32 32"
   id="svg2">
  <metadata
     id="metadata10">
    <rdf:RDF>
      <cc:Work
         rdf:about="">
        <dc:format>image/svg+xml</dc:format>
        <dc:type
           rdf:resource="http://purl.org/dc/dcmitype/StillImage" />
      </cc:Work>
    </rdf:RDF>
  </metadata>
  <defs
     id="defs8" />
  <path
     d="M 10.48,15.126 H 7.42 L 7.855,11.58 H 6.152 l -1.075,8.847 h 1.69 L 7.253,16.47 h 3.06 l -0.486,3.957 h 1.702 l 1.07,-8.847 h -1.69 l -0.44,3.546 z M 18.923,12.47 C 18.577,12.176 18.159,11.954 17.668,11.804 17.177,11.654 16.625,11.58 16.01,11.58 h -2.304 l -1.075,8.847 h 2.59 c 0.75,0 1.43,-0.122 2.02,-0.366 0.59,-0.244 1.1,-0.59 1.51,-1.05 0.41,-0.46 0.72,-1.01 0.935,-1.67 0.213,-0.65 0.32,-1.4 0.32,-2.24 0,-0.58 -0.09,-1.09 -0.275,-1.53 -0.19,-0.44 -0.45,-0.8 -0.798,-1.1 z m -0.916,4.45 c -0.145,0.503 -0.345,0.92 -0.602,1.253 -0.257,0.333 -0.56,0.58 -0.91,0.743 -0.35,0.162 -0.73,0.243 -1.138,0.243 h -0.884 l 0.782,-6.32 h 0.73 c 0.716,0 1.27,0.18 1.658,0.53 0.388,0.35 0.583,0.94 0.583,1.75 0,0.69 -0.073,1.283 -0.22,1.79 z m 8.682,-1.288 c 0.39,-0.482 0.59,-1.056 0.59,-1.722 0,-0.734 -0.28,-1.306 -0.83,-1.715 -0.55,-0.409 -1.4,-0.615 -2.54,-0.615 h -2.49 l -1.08,8.847 h 1.69 l 0.436,-3.547 h 1.05 l 1.663,3.547 h 1.83 l -1.93,-3.79 c 0.672,-0.188 1.21,-0.523 1.606,-1.005 z m -2.99,0.032 h -1.09 l 0.35,-2.855 h 0.842 c 0.59,0 1.02,0.09 1.286,0.29 0.266,0.2 0.402,0.48 0.402,0.87 0,0.55 -0.158,0.97 -0.47,1.26 -0.312,0.29 -0.757,0.43 -1.336,0.43 z"
     inkscape:connector-curvature="0"
     id="path4" />
</svg>
