<?xml version="1.0" encoding="UTF-8" standalone="no"?>
<!-- Created with Inkscape (http://www.inkscape.org/) -->

<svg
   xmlns:dc="http://purl.org/dc/elements/1.1/"
   xmlns:cc="http://creativecommons.org/ns#"
   xmlns:rdf="http://www.w3.org/1999/02/22-rdf-syntax-ns#"
   xmlns:svg="http://www.w3.org/2000/svg"
   xmlns="http://www.w3.org/2000/svg"
   xmlns:inkscape="http://www.inkscape.org/namespaces/inkscape"
   version="1.1"
   width="30"
   height="30"
   viewBox="0 0 30 30"
   id="svg2">
  <metadata
     id="metadata10">
    <rdf:RDF>
      <cc:Work
         rdf:about="">
        <dc:format>image/svg+xml</dc:format>
        <dc:type
           rdf:resource="http://purl.org/dc/dcmitype/StillImage" />
      </cc:Work>
    </rdf:RDF>
  </metadata>
  <defs
     id="defs8" />
  <path
     d="m 8.7,17 c -1.6,0.2 -2.6,2.7 -2.2,5.4 0.4,2.8 2,4.8 3.6,4.6 1.6,-0.2 2.6,-2.7 2.2,-5.4 -0.4,-2.8 -2,-4.8 -3.6,-4.6 z M 27.1,15 C 27.1,8.2 21.7,2.6 15,2.6 8.3,2.6 2.9,8.1 2.9,15 c 0,0.7 0.1,1.4 0.2,2.1 l 1.1,5.8 c 0.8,1 1.8,1.9 2.9,2.7 L 5.5,16.9 C 5.4,16.3 5.3,15.7 5.3,15 5.3,9.5 9.6,5 15,5 c 5.4,0 9.7,4.5 9.7,10 0,0.6 -0.1,1.3 -0.2,1.9 L 23,25.5 c 1.1,-0.8 2.1,-1.7 2.9,-2.7 L 27,17 c 0.1,-0.6 0.1,-1.3 0.1,-2 z m -5.7,2.1 c -1.6,-0.2 -3.2,1.8 -3.6,4.5 -0.4,2.7 0.6,5.1 2.2,5.4 1.6,0.2 3.2,-1.8 3.6,-4.5 C 24,19.7 23,17.3 21.4,17.1 z"
     inkscape:connector-curvature="0"
     id="path4" />
</svg>
