<?xml version="1.0" encoding="UTF-8" standalone="no"?>
<!-- Created with Inkscape (http://www.inkscape.org/) -->

<svg
   xmlns:dc="http://purl.org/dc/elements/1.1/"
   xmlns:cc="http://creativecommons.org/ns#"
   xmlns:rdf="http://www.w3.org/1999/02/22-rdf-syntax-ns#"
   xmlns:svg="http://www.w3.org/2000/svg"
   xmlns="http://www.w3.org/2000/svg"
   xmlns:inkscape="http://www.inkscape.org/namespaces/inkscape"
   version="1.1"
   width="30"
   height="30"
   viewBox="0 0 30 30"
   id="svg2">
  <metadata
     id="metadata10">
    <rdf:RDF>
      <cc:Work
         rdf:about="">
        <dc:format>image/svg+xml</dc:format>
        <dc:type
           rdf:resource="http://purl.org/dc/dcmitype/StillImage" />
      </cc:Work>
    </rdf:RDF>
  </metadata>
  <defs
     id="defs8" />
  <path
     d="M 15.004,3 C 8.374,3 3,8.373 3,15 3,21.63 8.375,27 15.004,27 21.634,27 27,21.63 27,15 27,8.373 21.635,3 15.004,3 z m 0.427,18.48 c -0.21,0.214 -0.474,0.32 -0.79,0.32 -0.305,0 -0.562,-0.106 -0.773,-0.32 -0.21,-0.216 -0.315,-0.476 -0.315,-0.782 0,-0.305 0.105,-0.562 0.315,-0.77 0.21,-0.212 0.468,-0.317 0.773,-0.317 0.315,0 0.58,0.106 0.79,0.317 0.21,0.21 0.316,0.467 0.316,0.77 0,0.307 -0.106,0.567 -0.315,0.782 z m 2.982,-8.318 c -0.162,0.315 -0.363,0.59 -0.602,0.823 -0.238,0.233 -0.498,0.443 -0.78,0.627 -0.278,0.186 -0.538,0.385 -0.778,0.6 -0.24,0.215 -0.438,0.464 -0.6,0.743 -0.165,0.282 -0.245,0.637 -0.245,1.067 v 0.527 h -1.63 v -0.616 c 0,-0.49 0.077,-0.902 0.233,-1.24 0.154,-0.332 0.35,-0.625 0.583,-0.876 0.232,-0.25 0.488,-0.475 0.76,-0.672 0.277,-0.196 0.53,-0.394 0.763,-0.59 0.235,-0.197 0.43,-0.41 0.583,-0.64 0.153,-0.225 0.397,-0.957 0.397,-1.29 0,-0.5 -0.328,-0.86 -0.658,-1.123 -0.33,-0.264 -0.787,-0.396 -1.373,-0.396 -0.418,0 -0.835,0.102 -1.254,0.306 -0.418,0.202 -0.956,0.674 -1.325,1.128 l -1.15,-0.86 c 0.526,-0.61 1.237,-1.4 1.848,-1.693 0.61,-0.293 1.29,-0.44 2.042,-0.44 0.56,0 1.06,0.08 1.49,0.233 0.43,0.155 0.954,0.493 1.24,0.755 0.286,0.264 0.478,0.634 0.62,0.97 0.144,0.332 0.206,1.106 0.206,1.465 0.002,0.476 -0.212,0.874 -0.372,1.192 z"
     inkscape:connector-curvature="0"
     id="path4" />
</svg>
