<?xml version="1.0" encoding="UTF-8" standalone="no"?>
<!-- Created with Inkscape (http://www.inkscape.org/) -->

<svg
   xmlns:dc="http://purl.org/dc/elements/1.1/"
   xmlns:cc="http://creativecommons.org/ns#"
   xmlns:rdf="http://www.w3.org/1999/02/22-rdf-syntax-ns#"
   xmlns:svg="http://www.w3.org/2000/svg"
   xmlns="http://www.w3.org/2000/svg"
   xmlns:inkscape="http://www.inkscape.org/namespaces/inkscape"
   version="1.1"
   width="30"
   height="30"
   viewBox="0 0 30 30"
   id="svg2">
  <metadata
     id="metadata10">
    <rdf:RDF>
      <cc:Work
         rdf:about="">
        <dc:format>image/svg+xml</dc:format>
        <dc:type
           rdf:resource="http://purl.org/dc/dcmitype/StillImage" />
      </cc:Work>
    </rdf:RDF>
  </metadata>
  <defs
     id="defs8" />
  <path
     d="m 8.22,7.083 c -0.984,0 -1.782,0.798 -1.782,1.78 0,0.985 0.798,1.782 1.78,1.782 C 9.202,10.645 10,9.849 10,8.865 10,7.881 9.202,7.083 8.22,7.083 z m 6,0 c -0.984,0 -1.782,0.798 -1.782,1.78 0,0.985 0.798,1.782 1.78,1.782 C 15.202,10.645 16,9.849 16,8.865 16,7.881 15.202,7.083 14.22,7.083 z m 6,0 c -0.983,0 -1.782,0.798 -1.782,1.78 0,0.985 0.8,1.782 1.78,1.782 C 21.202,10.645 22,9.849 22,8.865 22,7.881 21.202,7.083 20.22,7.083 z m -12,5 c -0.984,0 -1.782,0.798 -1.782,1.78 0,0.985 0.798,1.78 1.78,1.78 0.984,0 1.782,-0.795 1.782,-1.78 0,-0.982 -0.798,-1.78 -1.78,-1.78 z m 6,0 c -0.984,0 -1.782,0.798 -1.782,1.78 0,0.985 0.798,1.78 1.78,1.78 0.984,0 1.782,-0.795 1.782,-1.78 0,-0.982 -0.798,-1.78 -1.78,-1.78 z m 6,0 c -0.983,0 -1.782,0.798 -1.782,1.78 0,0.985 0.8,1.78 1.78,1.78 0.984,0 1.782,-0.795 1.782,-1.78 0,-0.982 -0.798,-1.78 -1.78,-1.78 z m -12,5 c -0.984,0 -1.782,0.798 -1.782,1.78 0,0.982 0.798,1.78 1.78,1.78 0.984,0 1.782,-0.796 1.782,-1.78 0,-0.984 -0.798,-1.78 -1.78,-1.78 z m 6,0 c -0.984,0 -1.782,0.798 -1.782,1.78 0,0.982 0.798,1.78 1.78,1.78 0.984,0 1.782,-0.796 1.782,-1.78 0,-0.984 -0.798,-1.78 -1.78,-1.78 z m 6,0 c -0.983,0 -1.782,0.798 -1.782,1.78 0,0.982 0.8,1.78 1.78,1.78 0.984,0 1.782,-0.796 1.782,-1.78 0,-0.984 -0.798,-1.78 -1.78,-1.78 z m -12,5 c -0.984,0 -1.782,0.798 -1.782,1.78 0,0.982 0.798,1.78 1.78,1.78 0.984,0 1.782,-0.796 1.782,-1.78 0,-0.984 -0.798,-1.78 -1.78,-1.78 z m 6,0 c -0.984,0 -1.782,0.798 -1.782,1.78 0,0.982 0.798,1.78 1.78,1.78 0.984,0 1.782,-0.796 1.782,-1.78 0,-0.984 -0.798,-1.78 -1.78,-1.78 z m 6,0 c -0.983,0 -1.782,0.798 -1.782,1.78 0,0.982 0.8,1.78 1.78,1.78 0.984,0 1.782,-0.796 1.782,-1.78 0,-0.984 -0.798,-1.78 -1.78,-1.78 z M 22.047,2.963 H 6.64 C 6.287,2.963 6,3.413 6,3.968 6,4.523 6.287,4.975 6.64,4.975 h 15.407 c 0.354,0 0.64,-0.45 0.64,-1.007 0,-0.555 -0.287,-1.005 -0.64,-1.005 z"
     inkscape:connector-curvature="0"
     id="path4" />
</svg>
