<?xml version="1.0" encoding="UTF-8" standalone="no"?>
<!-- Created with Inkscape (http://www.inkscape.org/) -->

<svg
   xmlns:dc="http://purl.org/dc/elements/1.1/"
   xmlns:cc="http://creativecommons.org/ns#"
   xmlns:rdf="http://www.w3.org/1999/02/22-rdf-syntax-ns#"
   xmlns:svg="http://www.w3.org/2000/svg"
   xmlns="http://www.w3.org/2000/svg"
   xmlns:inkscape="http://www.inkscape.org/namespaces/inkscape"
   version="1.1"
   width="30"
   height="30"
   viewBox="0 0 30 30"
   id="svg2">
  <metadata
     id="metadata10">
    <rdf:RDF>
      <cc:Work
         rdf:about="">
        <dc:format>image/svg+xml</dc:format>
        <dc:type
           rdf:resource="http://purl.org/dc/dcmitype/StillImage" />
      </cc:Work>
    </rdf:RDF>
  </metadata>
  <defs
     id="defs8" />
  <path
     d="m 14.5,3.61 c -5.797,0 -10.497,4.698 -10.497,10.494 0,5.08 3.608,9.313 8.4,10.286 L 13.715,15.02 16,15 14.833,24.458 c 5.78,-0.02 10.165,-4.57 10.165,-10.354 0,-5.795 -4.7,-10.495 -10.498,-10.495 z m 1.926,8.267 c -0.286,0.285 -0.657,0.428 -1.11,0.428 -0.446,0 -0.81,-0.144 -1.095,-0.428 -0.286,-0.286 -0.428,-0.637 -0.428,-1.056 0,-0.403 0.142,-0.75 0.43,-1.034 0.284,-0.285 0.648,-0.427 1.093,-0.427 0.454,0 0.825,0.142 1.11,0.426 0.287,0.287 0.428,0.63 0.428,1.035 0,0.42 -0.14,0.772 -0.427,1.057 z"
     inkscape:connector-curvature="0"
     id="path4" />
</svg>
