<?xml version="1.0" encoding="UTF-8" standalone="no"?>
<!-- Created with Inkscape (http://www.inkscape.org/) -->

<svg
   xmlns:dc="http://purl.org/dc/elements/1.1/"
   xmlns:cc="http://creativecommons.org/ns#"
   xmlns:rdf="http://www.w3.org/1999/02/22-rdf-syntax-ns#"
   xmlns:svg="http://www.w3.org/2000/svg"
   xmlns="http://www.w3.org/2000/svg"
   xmlns:inkscape="http://www.inkscape.org/namespaces/inkscape"
   version="1.1"
   width="30"
   height="30"
   viewBox="0 0 30 30"
   id="svg2">
  <metadata
     id="metadata10">
    <rdf:RDF>
      <cc:Work
         rdf:about="">
        <dc:format>image/svg+xml</dc:format>
        <dc:type
           rdf:resource="http://purl.org/dc/dcmitype/StillImage" />
      </cc:Work>
    </rdf:RDF>
  </metadata>
  <defs
     id="defs8" />
  <path
     d="m 24.807,13.967 -5.74,5.74 c -1.292,1.29 -3.228,1.513 -4.76,0.703 l -3.36,3.355 c -1.586,1.587 -4.154,1.587 -5.74,0 -1.585,-1.584 -1.585,-4.154 0,-5.74 l 5.74,-5.74 c 1.29,-1.292 3.228,-1.51 4.76,-0.7 l 3.36,-3.36 c 1.585,-1.584 4.154,-1.584 5.74,0 1.586,1.584 1.585,4.156 0,5.742 z M 12.38,13.72 6.642,19.46 c -0.794,0.793 -0.794,2.08 0,2.872 0.792,0.792 2.077,0.792 2.87,0 l 3.28,-3.283 c -1.023,-1.58 -0.85,-3.71 0.53,-5.09 l 0.812,-0.81 c -0.618,-0.1 -1.274,0.08 -1.753,0.56 z M 23.37,9.66 c -0.792,-0.794 -2.076,-0.794 -2.87,0 l -3.28,3.28 0.002,0.007 -1.51,1.51 c 0,-0.003 0,-0.005 -0.003,-0.007 l -0.95,0.95 c -0.02,0.01 -0.02,0.025 -0.03,0.038 l -0.13,0.13 0.02,0.018 c -0.45,0.565 -0.56,1.302 -0.32,1.953 l 0.95,-0.95 c 0.06,-0.07 0.1,-0.15 0.16,-0.22 l 0.02,0.023 2.292,-2.29 c 0.36,1.35 0.02,2.852 -1.044,3.913 l -0.81,0.81 c 0.62,0.097 1.275,-0.087 1.754,-0.563 l 5.74,-5.74 c 0.794,-0.79 0.794,-2.076 0,-2.87 z"
     inkscape:connector-curvature="0"
     id="path4" />
</svg>
