<?xml version="1.0" encoding="UTF-8" standalone="no"?>
<!-- Created with Inkscape (http://www.inkscape.org/) -->

<svg
   xmlns:dc="http://purl.org/dc/elements/1.1/"
   xmlns:cc="http://creativecommons.org/ns#"
   xmlns:rdf="http://www.w3.org/1999/02/22-rdf-syntax-ns#"
   xmlns:svg="http://www.w3.org/2000/svg"
   xmlns="http://www.w3.org/2000/svg"
   xmlns:inkscape="http://www.inkscape.org/namespaces/inkscape"
   version="1.1"
   width="30"
   height="30"
   viewBox="0 0 30 30"
   id="svg2">
  <metadata
     id="metadata10">
    <rdf:RDF>
      <cc:Work
         rdf:about="">
        <dc:format>image/svg+xml</dc:format>
        <dc:type
           rdf:resource="http://purl.org/dc/dcmitype/StillImage" />
      </cc:Work>
    </rdf:RDF>
  </metadata>
  <defs
     id="defs8" />
  <path
     d="M 21.182,26.474 6.818,26.478 c -0.66,0 -1.193,-0.535 -1.193,-1.193 V 14.002 c 0,-0.66 0.534,-1.193 1.193,-1.193 H 7.431 V 9.18 h 0.002 c 0,-3.713 2.886,-6.65 6.6,-6.65 3.712,0 6.566,2.655 6.566,6.37 l -0.002,0.024 v 3.603 L 20.9,12.523 c 0.66,0 1.475,0.816 1.475,1.475 v 11.28 c 0,0.658 -0.533,1.194 -1.193,1.194 z M 18.48,9.182 c 0,-2.386 -1.937,-4.32 -4.322,-4.32 -2.386,0 -4.32,1.934 -4.322,4.32 h 0.028 v 3.628 h 8.584 V 9.182 h 0.03 z"
     inkscape:connector-curvature="0"
     id="path4" />
</svg>
