<?xml version="1.0" encoding="UTF-8" standalone="no"?>
<!-- Created with Inkscape (http://www.inkscape.org/) -->

<svg
   xmlns:dc="http://purl.org/dc/elements/1.1/"
   xmlns:cc="http://creativecommons.org/ns#"
   xmlns:rdf="http://www.w3.org/1999/02/22-rdf-syntax-ns#"
   xmlns:svg="http://www.w3.org/2000/svg"
   xmlns="http://www.w3.org/2000/svg"
   xmlns:inkscape="http://www.inkscape.org/namespaces/inkscape"
   version="1.1"
   width="30"
   height="30"
   viewBox="0 0 30 30"
   id="svg2">
  <metadata
     id="metadata10">
    <rdf:RDF>
      <cc:Work
         rdf:about="">
        <dc:format>image/svg+xml</dc:format>
        <dc:type
           rdf:resource="http://purl.org/dc/dcmitype/StillImage" />
      </cc:Work>
    </rdf:RDF>
  </metadata>
  <defs
     id="defs8" />
  <path
     d="M 18.5,10.59 C 17.555,9.643 16.248,9.057 14.805,9.057 c -2.885,0 -5.224,2.34 -5.224,5.223 0,2.885 2.34,5.223 5.225,5.223 2.882,0 5.24,-2.088 5.242,-4.972 L 14.36,14.516 18.5,10.591 z M 19.21,3.627 H 7.08 C 6.207,3.627 5.5,4.381 5.5,5.312 v 18.536 c 0,0.93 0.707,1.685 1.58,1.685 h 14.735 c 0.932,0 1.686,-0.755 1.686,-1.685 V 7.784 L 19.211,3.627 z M 14.81,20.7 c -3.537,0 -6.405,-2.874 -6.405,-6.42 0,-3.547 2.868,-6.422 6.406,-6.422 3.538,0 6.406,2.875 6.406,6.42 0,3.548 -2.868,6.423 -6.405,6.423 z"
     inkscape:connector-curvature="0"
     id="path4" />
</svg>
