<?xml version="1.0" encoding="UTF-8" standalone="no"?>
<!-- Created with Inkscape (http://www.inkscape.org/) -->

<svg
   xmlns:dc="http://purl.org/dc/elements/1.1/"
   xmlns:cc="http://creativecommons.org/ns#"
   xmlns:rdf="http://www.w3.org/1999/02/22-rdf-syntax-ns#"
   xmlns:svg="http://www.w3.org/2000/svg"
   xmlns="http://www.w3.org/2000/svg"
   xmlns:inkscape="http://www.inkscape.org/namespaces/inkscape"
   version="1.1"
   width="30"
   height="30"
   viewBox="0 0 30 30"
   id="svg2">
  <metadata
     id="metadata10">
    <rdf:RDF>
      <cc:Work
         rdf:about="">
        <dc:format>image/svg+xml</dc:format>
        <dc:type
           rdf:resource="http://purl.org/dc/dcmitype/StillImage" />
      </cc:Work>
    </rdf:RDF>
  </metadata>
  <defs
     id="defs8" />
  <path
     d="M 10.993,9 H 19 C 19.415,9 19.758,8.275 19.758,7.446 19.758,6.617 19.415,6 19,6 H 10.993 C 10.578,6 10.249,6.617 10.249,7.446 10.249,8.275 10.57,9 10.99,9 z M 19,14 h -8.007 c -0.415,0 -0.744,0.625 -0.744,1.454 0,0.829 0.33,1.5 0.75,1.5 h 8 c 0.41,0 0.75,-0.67 0.75,-1.5 C 19.749,14.624 19.41,14 19,14 z m 0,8 h -8.007 c -0.415,0 -0.744,0.633 -0.744,1.462 0,0.829 0.321,1.538 0.741,1.538 H 19 c 0.415,0 0.758,-0.71 0.758,-1.538 C 19.758,22.634 19.415,22 19,22 z"
     inkscape:connector-curvature="0"
     id="path4" />
</svg>
