<?xml version="1.0" encoding="UTF-8" standalone="no"?>
<!-- Created with Inkscape (http://www.inkscape.org/) -->

<svg
   xmlns:dc="http://purl.org/dc/elements/1.1/"
   xmlns:cc="http://creativecommons.org/ns#"
   xmlns:rdf="http://www.w3.org/1999/02/22-rdf-syntax-ns#"
   xmlns:svg="http://www.w3.org/2000/svg"
   xmlns="http://www.w3.org/2000/svg"
   xmlns:inkscape="http://www.inkscape.org/namespaces/inkscape"
   version="1.1"
   width="30"
   height="30"
   viewBox="0 0 30 30"
   id="svg2">
  <metadata
     id="metadata10">
    <rdf:RDF>
      <cc:Work
         rdf:about="">
        <dc:format>image/svg+xml</dc:format>
        <dc:type
           rdf:resource="http://purl.org/dc/dcmitype/StillImage" />
      </cc:Work>
    </rdf:RDF>
  </metadata>
  <defs
     id="defs8" />
  <path
     d="m 13.42,29.75 h 0.007 v 0.055 H 13.42 V 29.75 z m 3.324,0.02 v -0.053 c -0.582,0.07 -1.17,0.115 -1.772,0.115 -0.52,0 -1.036,-0.028 -1.544,-0.08 v 0.053 c 0.505,0.052 1.017,0.08 1.536,0.08 0.603,0 1.195,-0.047 1.78,-0.116 z M 10.9,19.926 V 7.546 c 0,-2.312 1.874,-4.186 4.185,-4.186 0.288,0 0.568,0.03 0.84,0.085 -0.275,-0.057 -0.56,-0.087 -0.85,-0.087 -2.31,0 -4.18,1.873 -4.18,4.182 v 12.373 c 0,0.582 0.12,1.135 0.333,1.64 -0.21,-0.5 -0.328,-1.05 -0.328,-1.627 z m 4.185,5.694 c 3.153,0 5.71,-2.556 5.71,-5.71 v -7.334 l -0.013,-0.007 v 7.33 c 0,3.15 -2.555,5.7 -5.706,5.7 -2.36,0 -4.386,-1.44 -5.254,-3.48 0.866,2.05 2.896,3.49 5.263,3.49 z m 6.275,-12.7 c 0.037,0.024 0.078,0.045 0.116,0.07 -0.038,-0.024 -0.08,-0.046 -0.117,-0.07 z M 8.02,13.467 c 0.43,-0.324 0.877,-0.625 1.35,-0.888 v -0.01 c -0.475,0.26 -0.923,0.56 -1.355,0.89 v 6.44 c 0,0.83 0.146,1.63 0.413,2.37 -0.264,-0.74 -0.408,-1.54 -0.408,-2.37 v -6.44 z m 5.4,13.293 h 0.008 v 2.99 H 13.42 v -2.99 z m 8.73,-6.847 v -6.446 c -0.22,-0.166 -0.444,-0.325 -0.674,-0.476 0.226,0.15 0.445,0.31 0.66,0.47 v 6.44 c 0,3.33 -2.302,6.09 -5.393,6.85 v 2.98 h 0.01 v -2.96 c 3.094,-0.75 5.397,-3.52 5.397,-6.84 z M 9.37,19.898 c 0,0.792 0.16,1.546 0.452,2.23 C 9.534,21.446 9.375,20.698 9.375,19.91 v -7.335 c -0.002,0 -0.003,0.002 -0.005,0.003 v 7.32 z m 11.424,-7.322 c 0.193,0.107 0.38,0.225 0.565,0.344 -0.19,-0.12 -0.38,-0.237 -0.57,-0.344 z m -12.367,9.7 c 0.793,2.22 2.67,3.92 4.993,4.483 v -0.02 C 11.1,26.179 9.224,24.479 8.427,22.269 z M 19.257,7.54 v 12.374 c 0,2.31 -1.87,4.182 -4.18,4.182 -1.73,0 -3.21,-1.05 -3.848,-2.543 0.63,1.502 2.12,2.557 3.85,2.557 2.31,0 4.18,-1.873 4.18,-4.184 V 7.546 c 0,-2.024 -1.44,-3.712 -3.35,-4.1 1.9,0.392 3.33,2.076 3.33,4.095 z M 10.9,7.545 v 12.38 c 0,0.577 0.117,1.127 0.33,1.627 0.637,1.494 2.12,2.543 3.846,2.543 2.31,0 4.182,-1.872 4.182,-4.182 V 7.54 c 0,-2.018 -1.43,-3.702 -3.333,-4.094 -0.27,-0.056 -0.552,-0.085 -0.84,-0.085 -2.31,0 -4.185,1.88 -4.185,4.19 z M 22.138,19.9 v -6.44 c -0.216,-0.164 -0.436,-0.32 -0.66,-0.47 -0.04,-0.024 -0.08,-0.045 -0.118,-0.07 -0.186,-0.12 -0.372,-0.236 -0.565,-0.344 v 7.333 c 0,3.15 -2.556,5.71 -5.71,5.71 -2.366,0 -4.396,-1.44 -5.262,-3.49 -0.292,-0.69 -0.453,-1.44 -0.453,-2.23 v -7.33 c -0.473,0.26 -0.92,0.56 -1.35,0.88 v 6.45 c 0,0.83 0.144,1.62 0.408,2.36 0.796,2.21 2.673,3.91 4.993,4.47 v 0.01 h 0.01 v 2.99 c 0.51,0.05 1.02,0.08 1.55,0.08 0.6,0 1.19,-0.05 1.77,-0.12 v -2.97 c 3.09,-0.75 5.4,-3.52 5.4,-6.84 z"
     inkscape:connector-curvature="0"
     id="path4" />
</svg>
