<?xml version="1.0" encoding="UTF-8" standalone="no"?>
<!-- Created with Inkscape (http://www.inkscape.org/) -->

<svg
   xmlns:dc="http://purl.org/dc/elements/1.1/"
   xmlns:cc="http://creativecommons.org/ns#"
   xmlns:rdf="http://www.w3.org/1999/02/22-rdf-syntax-ns#"
   xmlns:svg="http://www.w3.org/2000/svg"
   xmlns="http://www.w3.org/2000/svg"
   xmlns:inkscape="http://www.inkscape.org/namespaces/inkscape"
   version="1.1"
   width="30"
   height="30"
   viewBox="0 0 30 30"
   id="svg2">
  <metadata
     id="metadata10">
    <rdf:RDF>
      <cc:Work
         rdf:about="">
        <dc:format>image/svg+xml</dc:format>
        <dc:type
           rdf:resource="http://purl.org/dc/dcmitype/StillImage" />
      </cc:Work>
    </rdf:RDF>
  </metadata>
  <defs
     id="defs8" />
  <path
     d="m 19.805,3.68 v 17.68 l -8.336,-8.547 v 3.656 l 7.88,8.07 0.012,0.003 c 0.312,0.29 0.73,0.467 1.186,0.467 h 0.062 c 0.96,-0.018 1.74,-0.8 1.74,-1.76 V 8.392 C 22.347,5.357 19.804,3.682 19.804,3.682 z M 18.037,12.395 10.017,4.151 10.004,4.148 C 9.694,3.861 9.277,3.682 8.82,3.682 H 8.752 V 3.687 C 7.799,3.7 6.802,4.629 6.802,5.597 V 20.45 c 0,3.037 2.51,4.726 2.51,4.726 V 7.5 l 8.727,8.545 v -3.65 h -0.003 z"
     inkscape:connector-curvature="0"
     id="path4" />
</svg>
