<?xml version="1.0" encoding="UTF-8" standalone="no"?>
<!-- Created with Inkscape (http://www.inkscape.org/) -->

<svg
   xmlns:dc="http://purl.org/dc/elements/1.1/"
   xmlns:cc="http://creativecommons.org/ns#"
   xmlns:rdf="http://www.w3.org/1999/02/22-rdf-syntax-ns#"
   xmlns:svg="http://www.w3.org/2000/svg"
   xmlns="http://www.w3.org/2000/svg"
   xmlns:inkscape="http://www.inkscape.org/namespaces/inkscape"
   version="1.1"
   width="30"
   height="30"
   viewBox="0 0 30 30"
   id="svg2">
  <metadata
     id="metadata10">
    <rdf:RDF>
      <cc:Work
         rdf:about="">
        <dc:format>image/svg+xml</dc:format>
        <dc:type
           rdf:resource="http://purl.org/dc/dcmitype/StillImage" />
      </cc:Work>
    </rdf:RDF>
  </metadata>
  <defs
     id="defs8" />
  <path
     d="m 26,20.9 c -1.1,0 -2,0.9 -2,2 0,1.1 0.9,2 2,2 1.1,0 2,-0.9 2,-2 0,-1 -0.9,-2 -2,-2 z m 1.4,-2.6 0.4,-10.7 h -3.4 l 0.4,10.7 h 2.6 z M 3.9,1 C 2.8,1 2,1.9 2,3 v 23.9 c 0,1.1 0.9,2 1.9,2 h 14 c 1.1,0 2,-0.9 2,-2 V 5.8 L 15.1,1 H 3.9 z M 6,27 H 5.5 C 4.6,27 3.9,26.3 3.9,25.4 V 14.6 C 3.9,13.7 4.6,13 5.5,13 H 6 v 14 z m 4,-7.9 H 8 V 21 h 2 v 6 H 7.1 V 13 H 10 v 6.1 z M 14,27 H 11.1 V 21 H 14 v 6 z m 0,-7.9 H 11.1 V 13 H 14 v 6.1 z m 3.9,-4.5 v 10.8 c 0,0.9 -0.7,1.6 -1.6,1.6 H 15 V 13 h 1.3 c 0.9,0 1.6,0.7 1.6,1.6 z"
     inkscape:connector-curvature="0"
     id="path4" />
</svg>
