<?xml version="1.0" encoding="UTF-8" standalone="no"?>
<!-- Created with Inkscape (http://www.inkscape.org/) -->

<svg
   xmlns:dc="http://purl.org/dc/elements/1.1/"
   xmlns:cc="http://creativecommons.org/ns#"
   xmlns:rdf="http://www.w3.org/1999/02/22-rdf-syntax-ns#"
   xmlns:svg="http://www.w3.org/2000/svg"
   xmlns="http://www.w3.org/2000/svg"
   xmlns:inkscape="http://www.inkscape.org/namespaces/inkscape"
   version="1.1"
   width="30"
   height="30"
   viewBox="0 0 30 30"
   id="svg2">
  <metadata
     id="metadata10">
    <rdf:RDF>
      <cc:Work
         rdf:about="">
        <dc:format>image/svg+xml</dc:format>
        <dc:type
           rdf:resource="http://purl.org/dc/dcmitype/StillImage" />
      </cc:Work>
    </rdf:RDF>
  </metadata>
  <defs
     id="defs8" />
  <path
     d="M 19.934,13.486 27.358,8.43 c 0,-0.598 -0.56,-1.027 -0.875,-1.027 H 18 v 4.986 l 1.744,1.09 c 0.044,0.01 0.147,0.01 0.19,0 z M 19.592,15.341 18,14.25 V 21 h 8 c 0.72,0 1.355,-0.418 1.355,-1.416 v -9.14 c 0,0 -7.54,5.06 -7.27,4.897 0,0 -0.27,0.17 -0.493,0 z m -9.978,2.15 c 0.534,0 0.957,-0.24 1.27,-0.72 0.313,-0.48 0.468,-1.15 0.468,-2 0,-0.89 -0.15,-1.58 -0.456,-2.07 -0.303,-0.49 -0.717,-0.74 -1.243,-0.74 -0.543,0 -0.974,0.256 -1.293,0.76 -0.318,0.51 -0.478,1.186 -0.478,2.02 0,0.85 0.16,1.52 0.478,2.018 0.32,0.498 0.738,0.74 1.254,0.74 z M 2.11,24.38 16.944,27 V 2 L 2.11,4.872 v 19.5 z M 7.195,11.55 c 0.63,-0.84 1.462,-1.258 2.5,-1.258 0.978,0 1.77,0.4 2.374,1.2 0.6,0.803 0.9,1.86 0.9,3.17 0,1.35 -0.317,2.44 -0.94,3.26 -0.63,0.825 -1.45,1.24 -2.457,1.24 -0.983,0 -1.784,-0.403 -2.4,-1.202 -0.62,-0.8 -0.93,-1.842 -0.93,-3.126 0,-1.352 0.314,-2.45 0.942,-3.29 z"
     inkscape:connector-curvature="0"
     id="path4" />
</svg>
