<?xml version="1.0" encoding="UTF-8" standalone="no"?>
<!-- Created with Inkscape (http://www.inkscape.org/) -->

<svg
   xmlns:dc="http://purl.org/dc/elements/1.1/"
   xmlns:cc="http://creativecommons.org/ns#"
   xmlns:rdf="http://www.w3.org/1999/02/22-rdf-syntax-ns#"
   xmlns:svg="http://www.w3.org/2000/svg"
   xmlns="http://www.w3.org/2000/svg"
   xmlns:inkscape="http://www.inkscape.org/namespaces/inkscape"
   version="1.1"
   width="30"
   height="30"
   viewBox="0 0 30 30"
   id="svg2">
  <metadata
     id="metadata10">
    <rdf:RDF>
      <cc:Work
         rdf:about="">
        <dc:format>image/svg+xml</dc:format>
        <dc:type
           rdf:resource="http://purl.org/dc/dcmitype/StillImage" />
      </cc:Work>
    </rdf:RDF>
  </metadata>
  <defs
     id="defs8" />
  <path
     d="m 14.77,15.246 c 0,-0.567 0.013,-1.018 0.04,-1.35 -0.08,0.08 -0.176,0.17 -0.287,0.268 -0.111,0.098 -0.488,0.406 -1.128,0.926 l -0.596,-0.75 2.16,-1.702 h 0.98 v 7.36 h -1.18 v -4.752 z m 8.873,-6.074 -1.738,1.036 c 1.314,1.566 2.11,3.585 2.11,5.792 0,4.978 -4.036,9.015 -9.015,9.015 -4.979,0 -9.015,-4.037 -9.015,-9.015 0,-4.977 4.035,-9.013 9.01,-9.015 h 0.02 v 3.026 l 5.61,-3.35 c 0.217,-0.13 0.363,-0.37 0.363,-0.66 0,-0.29 -0.146,-0.52 -0.363,-0.66 l -5.61,-3.35 v 2.98 L 14.89,4.991 C 8.854,5.05 3.978,9.95 3.978,16 c 0,6.087 4.935,11.02 11.02,11.02 6.085,0 11.024,-4.933 11.024,-11.02 0,-2.582 -0.89,-4.95 -2.377,-6.828 z"
     inkscape:connector-curvature="0"
     id="path4" />
</svg>
