<?xml version="1.0" encoding="UTF-8" standalone="no"?>
<!-- Created with Inkscape (http://www.inkscape.org/) -->

<svg
   xmlns:dc="http://purl.org/dc/elements/1.1/"
   xmlns:cc="http://creativecommons.org/ns#"
   xmlns:rdf="http://www.w3.org/1999/02/22-rdf-syntax-ns#"
   xmlns:svg="http://www.w3.org/2000/svg"
   xmlns="http://www.w3.org/2000/svg"
   xmlns:inkscape="http://www.inkscape.org/namespaces/inkscape"
   version="1.1"
   width="30"
   height="30"
   viewBox="0 0 30 30"
   id="svg2">
  <metadata
     id="metadata10">
    <rdf:RDF>
      <cc:Work
         rdf:about="">
        <dc:format>image/svg+xml</dc:format>
        <dc:type
           rdf:resource="http://purl.org/dc/dcmitype/StillImage" />
      </cc:Work>
    </rdf:RDF>
  </metadata>
  <defs
     id="defs8" />
  <path
     d="m 18.714,22.635 c 0.022,-0.142 0.043,-0.287 0.043,-0.436 0,-1.52 -1.23,-2.78 -2.75,-2.78 H 9.03 v 2.39 C 8.702,21.879 8.35,21.802 8.095,21.546 L 4.97,18.43 c -0.402,-0.403 -0.402,-1.06 0,-1.46 L 8.095,13.846 C 8.349,13.59 8.702,13.513 9.03,13.581 v 2.38 h 4.98 c 2.773,0 5.018,2.23 5.018,5 0,0.595 -0.117,1.157 -0.314,1.673 z m 6.004,-7.008 c 0.024,-0.14 0.045,-0.285 0.045,-0.435 0,-1.517 -1.23,-2.773 -2.746,-2.773 h -6.98 v 2.39 c -0.33,0.062 -0.68,-0.01 -0.936,-0.27 l -3.12,-3.12 c -0.4,-0.404 -0.4,-1.058 0,-1.46 l 3.12,-3.12 c 0.26,-0.255 0.61,-0.33 0.94,-0.264 v 2.38 h 4.98 c 2.77,0 5.02,2.227 5.02,4.998 0,0.594 -0.12,1.156 -0.32,1.67 z"
     inkscape:connector-curvature="0"
     id="path4" />
</svg>
