<?xml version="1.0" encoding="UTF-8" standalone="no"?>
<!-- Created with Inkscape (http://www.inkscape.org/) -->

<svg
   xmlns:dc="http://purl.org/dc/elements/1.1/"
   xmlns:cc="http://creativecommons.org/ns#"
   xmlns:rdf="http://www.w3.org/1999/02/22-rdf-syntax-ns#"
   xmlns:svg="http://www.w3.org/2000/svg"
   xmlns="http://www.w3.org/2000/svg"
   xmlns:inkscape="http://www.inkscape.org/namespaces/inkscape"
   version="1.1"
   width="30"
   height="30"
   viewBox="0 0 30 30"
   id="svg2">
  <metadata
     id="metadata10">
    <rdf:RDF>
      <cc:Work
         rdf:about="">
        <dc:format>image/svg+xml</dc:format>
        <dc:type
           rdf:resource="http://purl.org/dc/dcmitype/StillImage" />
      </cc:Work>
    </rdf:RDF>
  </metadata>
  <defs
     id="defs8" />
  <path
     d="m 12.618,9.308 6.835,6.837 c 0.196,0.196 0.196,0.515 0,0.71 l -6.835,6.84 c -0.197,0.195 -0.517,0.195 -0.714,0 L 5.067,16.855 C 4.87,16.66 4.87,16.342 5.069,16.145 L 11.9,9.31 c 0.198,-0.2 0.517,-0.2 0.714,-0.004 z m 12.898,4.606 c -0.284,0.284 -0.747,0.284 -1.03,0 l -2.298,-2.3 c 0.6,-0.24 1.346,-0.377 2.138,-0.44 C 24.184,7.67 21.32,4.868 17.782,4.868 c -2.493,0 -4.64,1.408 -5.75,3.456 -0.04,-0.018 -0.078,-0.034 -0.116,-0.047 1.18,-2.453 3.682,-4.15 6.587,-4.15 3.952,0 7.164,3.137 7.3,7.058 0.743,0.07 1.443,0.2 2.015,0.43 l -2.302,2.3 z"
     inkscape:connector-curvature="0"
     id="path4" />
</svg>
