<?xml version="1.0" encoding="UTF-8" standalone="no"?>
<!-- Created with Inkscape (http://www.inkscape.org/) -->

<svg
   xmlns:dc="http://purl.org/dc/elements/1.1/"
   xmlns:cc="http://creativecommons.org/ns#"
   xmlns:rdf="http://www.w3.org/1999/02/22-rdf-syntax-ns#"
   xmlns:svg="http://www.w3.org/2000/svg"
   xmlns="http://www.w3.org/2000/svg"
   xmlns:inkscape="http://www.inkscape.org/namespaces/inkscape"
   version="1.1"
   width="32"
   height="32"
   viewBox="0 0 32 32"
   id="svg2">
  <metadata
     id="metadata10">
    <rdf:RDF>
      <cc:Work
         rdf:about="">
        <dc:format>image/svg+xml</dc:format>
        <dc:type
           rdf:resource="http://purl.org/dc/dcmitype/StillImage" />
      </cc:Work>
    </rdf:RDF>
  </metadata>
  <defs
     id="defs8" />
  <path
     d="M 15.997,3.45 C 8.98,3.45 3.293,9.138 3.293,16.154 c 0,3.824 1.692,7.25 4.365,9.58 l 11.67,-11.67 c 0.368,-0.37 0.964,-0.37 1.33,0 l 7.043,7.04 c 0.65,-1.52 1.01,-3.194 1.01,-4.95 C 28.71,9.137 23.02,3.45 16,3.45 z m -3.294,12.235 c -1.56,0 -2.824,-1.264 -2.824,-2.824 0,-1.56 1.26,-2.82 2.82,-2.82 1.56,0 2.82,1.27 2.82,2.83 0,1.56 -1.26,2.826 -2.82,2.826 z"
     inkscape:connector-curvature="0"
     id="path4" />
</svg>
