<?xml version="1.0" encoding="UTF-8" standalone="no"?>
<!-- Created with Inkscape (http://www.inkscape.org/) -->

<svg
   xmlns:dc="http://purl.org/dc/elements/1.1/"
   xmlns:cc="http://creativecommons.org/ns#"
   xmlns:rdf="http://www.w3.org/1999/02/22-rdf-syntax-ns#"
   xmlns:svg="http://www.w3.org/2000/svg"
   xmlns="http://www.w3.org/2000/svg"
   xmlns:inkscape="http://www.inkscape.org/namespaces/inkscape"
   version="1.1"
   width="30"
   height="30"
   viewBox="0 0 30 30"
   id="svg2">
  <metadata
     id="metadata10">
    <rdf:RDF>
      <cc:Work
         rdf:about="">
        <dc:format>image/svg+xml</dc:format>
        <dc:type
           rdf:resource="http://purl.org/dc/dcmitype/StillImage" />
      </cc:Work>
    </rdf:RDF>
  </metadata>
  <defs
     id="defs8" />
  <path
     d="m 21.634,22.095 c -2.12,0 -4.02,-0.934 -5.312,-2.41 L 14.27,17.63 15.69,16.21 18,18.544 c 0.917,0.953 2.204,1.547 3.635,1.547 h 0.35 v -3.1 l 5.61,3.35 c 0.218,0.14 0.365,0.38 0.365,0.66 0,0.29 -0.147,0.53 -0.365,0.67 l -5.61,3.35 V 22.1 h -0.35 z m 0,-12.19 c -1.43,0.002 -2.718,0.596 -3.636,1.55 l -8.17,8.19 c -1.292,1.462 -3.177,2.384 -5.28,2.384 L 3.26,22.019 c -0.113,-0.66 -0.22,-1.33 -0.302,-2.01 h 1.59 c 1.428,0 2.715,-0.593 3.634,-1.547 L 11.636,14.985 8.182,11.509 C 7.264,10.555 5.976,9.962 4.547,9.959 L 2.95,9.969 C 3.03,9.289 3.13,8.625 3.24,7.965 L 4.544,7.962 c 2.103,0 3.988,0.922 5.28,2.382 l 3.23,3.23 3.263,-3.266 C 17.61,8.83 19.51,7.9 21.63,7.89 l 0.35,0.004 V 4.99 l 5.61,3.348 c 0.22,0.134 0.366,0.38 0.366,0.663 0,0.29 -0.15,0.53 -0.367,0.67 l -5.61,3.35 V 9.91 l -0.35,-0.002 z"
     inkscape:connector-curvature="0"
     id="path4" />
</svg>
