<?xml version="1.0" encoding="UTF-8" standalone="no"?>
<svg width="30px" height="30px" viewBox="0 0 30 30" version="1.1" xmlns="http://www.w3.org/2000/svg" xmlns:xlink="http://www.w3.org/1999/xlink" xmlns:sketch="http://www.bohemiancoding.com/sketch/ns">
    <!-- Generator: Sketch 3.0.1 (7597) - http://www.bohemiancoding.com/sketch -->
    <title>Artboard 1</title>
    <description>Created with Sketch.</description>
    <defs></defs>
    <g id="Page-1" stroke="none" stroke-width="1" fill="none" fill-rule="evenodd" sketch:type="MSPage">
        <g id="Artboard-1" sketch:type="MSArtboardGroup" fill="#000000">
            <g id="signal-5" sketch:type="MSLayerGroup" transform="translate(3.000000, 6.200000)">
                <path d="M18.857142,3.4285718 C16.971427,3.4285718 15.428572,5.0571438 15.428572,7.0285718 L15.428572,18.8571438 L18.857142,18.8571438 L18.857142,3.4285718 L18.857142,3.4285718 Z M13.714286,6.8571438 C11.828572,6.8571438 10.285714,8.4857138 10.285714,10.4571438 L10.285714,18.8571438 L13.714286,18.8571438 L13.714286,6.8571438 L13.714286,6.8571438 Z M5.1428572,13.8857138 L5.1428572,18.8571438 L8.571428,18.8571438 L8.571428,10.2857148 C6.6857144,10.2857148 5.1428572,11.9142858 5.1428572,13.8857138 L5.1428572,13.8857138 Z M0,17.0571438 L0,18.8571438 L3.4285714,18.8571438 L3.4285714,13.7142858 C1.6285715,13.7142858 0.1714286,15.1714298 0,17.0571438 L0,17.0571438 Z M24.0000008,0 C22.1142868,0 20.5714278,1.6285716 20.5714278,3.5999998 L20.5714278,18.8571438 L24.0000008,18.8571438 L24.0000008,0 Z" id="path4" sketch:type="MSShapeGroup"></path>
            </g>
        </g>
    </g>
</svg>