<?xml version="1.0" encoding="UTF-8" standalone="no"?>
<!-- Created with Inkscape (http://www.inkscape.org/) -->

<svg
   xmlns:dc="http://purl.org/dc/elements/1.1/"
   xmlns:cc="http://creativecommons.org/ns#"
   xmlns:rdf="http://www.w3.org/1999/02/22-rdf-syntax-ns#"
   xmlns:svg="http://www.w3.org/2000/svg"
   xmlns="http://www.w3.org/2000/svg"
   xmlns:inkscape="http://www.inkscape.org/namespaces/inkscape"
   version="1.1"
   width="30"
   height="30"
   viewBox="0 0 30 30"
   id="svg2">
  <metadata
     id="metadata10">
    <rdf:RDF>
      <cc:Work
         rdf:about="">
        <dc:format>image/svg+xml</dc:format>
        <dc:type
           rdf:resource="http://purl.org/dc/dcmitype/StillImage" />
      </cc:Work>
    </rdf:RDF>
  </metadata>
  <defs
     id="defs8" />
  <path
     d="M 4.34,2.5 C 3.385,2.5 2.61,3.325 2.61,4.344 l 0.015,21.26 c 0,1.022 0.9,1.874 1.138,1.874 H 17.02 c 1.737,0 2.48,-0.875 2.48,-1.895 V 6.41 L 15.458,2.5 H 4.34 z m 7.144,10.466 h 2.067 v 3.563 H 11.485 V 12.965 z M 8.467,12.923 10.5,12.966 v 3.563 L 8.484,16.514 8.467,12.922 z m -2.94,1.463 c 0,-0.79 0.74,-1.42 1.532,-1.42 l 0.482,0.003 -0.016,3.547 h -2 v -2.13 z m 2.015,10.16 -0.797,-0.022 c -0.79,0 -1.23,-0.354 -1.23,-1.146 L 5.5,21.482 h 2.016 l 0.026,3.063 z m 3,-0.044 H 8.49 l -0.006,-3.02 h 2.03 l 0.028,3.02 z m 3.01,0 L 11.5,24.5 11.48,21.482 h 2.05 l 0.022,3.02 z m 2.99,-1.008 c 0,0.79 -0.772,1.027 -1.563,1.027 l -0.51,-0.052 0.015,-3.938 -9.016,-0.03 v -3 l 11.03,-0.03 0.04,6.024 z m -0.188,-9.097 v 2.132 h -1.928 v -3.565 h 0.494 c 0.79,0 1.434,0.642 1.434,1.432 z m 8.52,-7.838 0.558,2.463 -1.37,1.644 L 22.42,9.57 22.186,7.078 c -0.83,0.617 -1.37,1.635 -1.37,2.787 0.003,1.007 0.42,1.912 1.08,2.54 0.07,0.078 0.8,0.998 0.8,0.998 v 13.142 c 0,0 0.56,1.37 1.37,1.37 0.808,0 1.368,-0.587 1.368,-1.37 0,-0.783 -0.04,-12.21 -0.04,-12.21 l 0.04,-0.935 c 0,0 0.785,-0.938 0.87,-1.032 0.638,-0.623 1.032,-1.51 1.03,-2.494 C 27.33,8.28 26.284,6.937 24.874,6.559 z"
     inkscape:connector-curvature="0"
     id="path4" />
</svg>
