<?xml version="1.0" encoding="UTF-8" standalone="no"?>
<!-- Created with Inkscape (http://www.inkscape.org/) -->

<svg
   xmlns:dc="http://purl.org/dc/elements/1.1/"
   xmlns:cc="http://creativecommons.org/ns#"
   xmlns:rdf="http://www.w3.org/1999/02/22-rdf-syntax-ns#"
   xmlns:svg="http://www.w3.org/2000/svg"
   xmlns="http://www.w3.org/2000/svg"
   xmlns:inkscape="http://www.inkscape.org/namespaces/inkscape"
   version="1.1"
   width="30"
   height="30"
   viewBox="0 0 30 30"
   id="svg2">
  <metadata
     id="metadata10">
    <rdf:RDF>
      <cc:Work
         rdf:about="">
        <dc:format>image/svg+xml</dc:format>
        <dc:type
           rdf:resource="http://purl.org/dc/dcmitype/StillImage" />
      </cc:Work>
    </rdf:RDF>
  </metadata>
  <defs
     id="defs8" />
  <path
     d="M 16.97,3.558 16.044,3.305 v 18.1 c -0.643,-0.322 -1.412,-0.562 -2.276,-0.668 -2.534,-0.307 -4.727,0.617 -4.9,2.062 -0.178,1.44 1.733,2.86 4.265,3.17 0.98,0.12 1.888,0.05 2.647,-0.16 1.33,-0.32 2.22,-1.13 2.22,-2.09 V 6.45 c 2.07,1.107 3.543,3.278 3.543,5.79 0,2.19 -1.074,4.13 -2.722,5.32 v 0.53 c 2.46,-1.33 4.15,-3.9 4.15,-6.893 0,-3.7 -2.55,-6.795 -5.99,-7.64 z"
     inkscape:connector-curvature="0"
     id="path4" />
</svg>
