<?xml version="1.0" encoding="UTF-8" standalone="no"?>
<!-- Created with Inkscape (http://www.inkscape.org/) -->

<svg
   xmlns:dc="http://purl.org/dc/elements/1.1/"
   xmlns:cc="http://creativecommons.org/ns#"
   xmlns:rdf="http://www.w3.org/1999/02/22-rdf-syntax-ns#"
   xmlns:svg="http://www.w3.org/2000/svg"
   xmlns="http://www.w3.org/2000/svg"
   xmlns:inkscape="http://www.inkscape.org/namespaces/inkscape"
   version="1.1"
   width="30"
   height="30"
   viewBox="0 0 30 30"
   id="svg2">
  <metadata
     id="metadata10">
    <rdf:RDF>
      <cc:Work
         rdf:about="">
        <dc:format>image/svg+xml</dc:format>
        <dc:type
           rdf:resource="http://purl.org/dc/dcmitype/StillImage" />
      </cc:Work>
    </rdf:RDF>
  </metadata>
  <defs
     id="defs8" />
  <path
     d="M 6.248,10.146 H 3.534 c -0.787,0 -1.425,0.638 -1.425,1.426 v 6.278 c 0,0.788 0.637,1.426 1.424,1.426 h 2.71 l 5.188,5.194 c 0.452,0.452 1.022,0.702 1.61,0.773 V 4.183 c -0.588,0.07 -1.16,0.32 -1.61,0.772 l -5.184,5.19 z M 23.822,6.73 22.507,7.458 c 0.995,2.263 1.542,4.71 1.542,7.268 0,2.558 -0.548,5.005 -1.543,7.268 l 1.315,0.73 c 1.135,-2.48 1.76,-5.177 1.76,-7.998 0,-2.821 -0.625,-5.517 -1.76,-7.997 z m -4.898,3.322 c 0.604,1.48 0.932,3.05 0.932,4.674 0,1.624 -0.328,3.194 -0.932,4.674 l 1.118,0.54 c 0.71,-1.646 1.098,-3.397 1.098,-5.214 0,-1.818 -0.387,-3.57 -1.098,-5.213 l -1.118,0.54 z m -3.5,2.31 c 0.248,0.766 0.38,1.555 0.38,2.364 0,0.808 -0.132,1.598 -0.38,2.362 l 0.846,0.334 c 0.31,-0.87 0.477,-1.77 0.477,-2.697 0,-0.925 -0.167,-1.828 -0.477,-2.697 l -0.847,0.335 z"
     inkscape:connector-curvature="0"
     id="path4" />
</svg>
