<?xml version="1.0" encoding="UTF-8" standalone="no"?>
<!-- Created with Inkscape (http://www.inkscape.org/) -->

<svg
   xmlns:dc="http://purl.org/dc/elements/1.1/"
   xmlns:cc="http://creativecommons.org/ns#"
   xmlns:rdf="http://www.w3.org/1999/02/22-rdf-syntax-ns#"
   xmlns:svg="http://www.w3.org/2000/svg"
   xmlns="http://www.w3.org/2000/svg"
   xmlns:inkscape="http://www.inkscape.org/namespaces/inkscape"
   version="1.1"
   width="30"
   height="30"
   viewBox="0 0 30 30"
   id="svg2">
  <metadata
     id="metadata10">
    <rdf:RDF>
      <cc:Work
         rdf:about="">
        <dc:format>image/svg+xml</dc:format>
        <dc:type
           rdf:resource="http://purl.org/dc/dcmitype/StillImage" />
      </cc:Work>
    </rdf:RDF>
  </metadata>
  <defs
     id="defs8" />
  <path
     d="m 25.81,13.096 c 0.21,-0.194 0.303,-0.497 0.21,-0.787 -0.095,-0.29 -0.347,-0.48 -0.63,-0.52 v -0.01 l -6.765,-0.89 -2.933,-6.15 h -0.005 c -0.12,-0.264 -0.38,-0.447 -0.685,-0.447 -0.305,0 -0.566,0.184 -0.685,0.445 h -0.006 l -2.93,6.15 -6.76,0.89 v 0.005 c -0.28,0.037 -0.53,0.226 -0.623,0.514 -0.094,0.29 0,0.593 0.21,0.787 l -0.003,0.01 4.943,4.69 -1.248,6.719 0.005,0.004 c -0.05,0.273 0.05,0.57 0.29,0.743 0.247,0.173 0.563,0.18 0.81,0.04 0.004,0 0.006,0 0.007,0.002 L 15,22.052 l 5.993,3.255 c 0.002,0 0.003,-0.002 0.005,-0.004 0.25,0.14 0.565,0.135 0.81,-0.043 0.244,-0.175 0.345,-0.47 0.295,-0.745 l 0.007,-0.005 -1.246,-6.717 4.946,-4.69 v -0.006 z m -6.836,4.03 1.04,5.607 L 15.002,20.01 9.99,22.733 11.03,17.125 6.894,13.2 12.549,12.456 15,7.306 l 2.456,5.15 5.653,0.743 -4.14,3.92 z"
     inkscape:connector-curvature="0"
     id="path4" />
</svg>
