<?xml version="1.0" encoding="UTF-8" standalone="no"?>
<!-- Created with Inkscape (http://www.inkscape.org/) -->

<svg
   xmlns:dc="http://purl.org/dc/elements/1.1/"
   xmlns:cc="http://creativecommons.org/ns#"
   xmlns:rdf="http://www.w3.org/1999/02/22-rdf-syntax-ns#"
   xmlns:svg="http://www.w3.org/2000/svg"
   xmlns="http://www.w3.org/2000/svg"
   xmlns:inkscape="http://www.inkscape.org/namespaces/inkscape"
   version="1.1"
   width="30"
   height="30"
   viewBox="0 0 30 30"
   id="svg2">
  <metadata
     id="metadata10">
    <rdf:RDF>
      <cc:Work
         rdf:about="">
        <dc:format>image/svg+xml</dc:format>
        <dc:type
           rdf:resource="http://purl.org/dc/dcmitype/StillImage" />
      </cc:Work>
    </rdf:RDF>
  </metadata>
  <defs
     id="defs8" />
  <path
     d="m 15.194,13.543 c 1.068,-0.895 2.25,-1.98 3.462,-3.19 3.717,-3.717 6.268,-7.195 5.694,-7.767 -0.054,-0.054 -0.134,-0.08 -0.237,-0.08 -0.992,0 -4.162,2.408 -7.528,5.776 -1.21,1.21 -2.295,2.395 -3.19,3.462 0.744,0.434 1.363,1.054 1.8,1.8 z m 12.33,-0.73 c -0.95,-1.9 -2.606,-3.464 -4.703,-4.56 -1.243,1.436 -2.478,2.704 -3.125,3.35 -0.99,0.99 -2.002,1.943 -2.977,2.802 0,0.028 0.008,0.058 0.008,0.086 0,1.11 -0.432,2.156 -1.217,2.94 -1.43,1.43 -3.498,1.73 -4.982,1.73 -0.733,0 -1.248,-0.075 -1.304,-0.084 L 8.142,18.914 7.979,17.832 C 7.916,17.42 7.434,13.739 9.623,11.55 c 0.752,-0.753 1.746,-1.172 2.807,-1.207 0.886,-1.01 1.873,-2.063 2.905,-3.095 0.18,-0.18 0.415,-0.412 0.68,-0.67 -0.123,-0.003 -0.248,-0.014 -0.372,-0.014 -3.465,0 -6.704,1.06 -9.12,2.982 -2.984,2.375 -4.223,5.986 -3.153,9.2 1.048,3.153 4.064,5.68 8.07,6.764 1.37,0.37 2.793,0.558 4.234,0.558 1.42,0 2.823,-0.183 4.17,-0.542 1.098,-0.29 4.734,-1.397 5.498,-3.43 0.19,-0.512 0.293,-1.313 -0.318,-2.217 -0.387,-0.572 -0.794,-1.136 -1.2,-1.7 -0.298,-0.412 -0.595,-0.825 -0.885,-1.24 -0.123,-0.175 -0.074,-0.31 -0.05,-0.36 0.04,-0.076 0.09,-0.11 0.257,-0.107 0.29,0.053 0.6,0.19 0.93,0.335 0.22,0.097 0.436,0.19 0.7,0.285 0.228,0.067 0.462,0.102 0.695,0.102 0.65,0 1.266,-0.252 1.735,-0.707 0.475,-0.46 0.74,-1.068 0.754,-1.72 0.024,-0.25 0.03,-0.96 -0.436,-1.95 z M 13.132,12.471 c -0.244,-0.084 -0.502,-0.14 -0.774,-0.14 -0.654,0 -1.247,0.265 -1.674,0.692 -1.524,1.524 -1.085,4.434 -1.085,4.434 0,0 0.73,0.05 1.672,0.047 1.12,-0.003 1.794,-0.164 2.76,-1.13 0.43,-0.43 0.694,-1.02 0.694,-1.675 0,-0.286 -0.06,-0.557 -0.15,-0.81 -0.364,-0.58 -0.857,-1.064 -1.444,-1.417 z"
     inkscape:connector-curvature="0"
     id="path4" />
</svg>
