<?xml version="1.0" encoding="UTF-8" standalone="no"?>
<!-- Created with Inkscape (http://www.inkscape.org/) -->

<svg
   xmlns:dc="http://purl.org/dc/elements/1.1/"
   xmlns:cc="http://creativecommons.org/ns#"
   xmlns:rdf="http://www.w3.org/1999/02/22-rdf-syntax-ns#"
   xmlns:svg="http://www.w3.org/2000/svg"
   xmlns="http://www.w3.org/2000/svg"
   xmlns:inkscape="http://www.inkscape.org/namespaces/inkscape"
   version="1.1"
   width="32"
   height="32"
   viewBox="0 0 32 32"
   id="svg2">
  <metadata
     id="metadata10">
    <rdf:RDF>
      <cc:Work
         rdf:about="">
        <dc:format>image/svg+xml</dc:format>
        <dc:type
           rdf:resource="http://purl.org/dc/dcmitype/StillImage" />
      </cc:Work>
    </rdf:RDF>
  </metadata>
  <defs
     id="defs8" />
  <path
     d="m 16.54,28.658 -0.068,-0.003 c -5.88,0 -10.646,-2.847 -10.646,-6.355 0,-1.55 0.933,-2.97 2.48,-4.073 v -0.34 c -2.004,1.282 -3.242,3.036 -3.242,4.968 0,3.83 4.854,6.948 10.933,7.105 l -0.79,1.856 4.78,-2.513 -2.64,-2.512 -0.807,1.87 z m -0.535,-26.926 0.79,-1.548 -4.778,2.093 2.637,2.096 0.767,-1.54 h 0.62 c 5.65,0.13 10.15,2.442 10.15,5.28 0,1.294 -0.938,2.477 -2.48,3.396 v 0.28 c 2.002,-1.07 3.237,-2.53 3.237,-4.14 0,-3.2 -4.852,-5.79 -10.93,-5.92 z M 15.682,7.07 c -2.982,0 -5.4,0.805 -5.4,1.8 l 0.01,13.603 c 0.048,0.98 2.44,1.77 5.39,1.77 2.957,0 5.346,-0.788 5.394,-1.77 L 21.086,8.87 c 0,-0.994 -2.418,-1.8 -5.403,-1.8 z m 4.293,13.91 c 0,0.587 -0.476,1.062 -1.067,1.062 h -6.404 c -0.59,0 -1.067,-0.476 -1.067,-1.063 V 10.31 c 0,-0.59 0.48,-1.068 1.067,-1.068 h 6.404 c 0.59,0 1.067,0.477 1.067,1.067 v 10.67 z"
     inkscape:connector-curvature="0"
     id="path4" />
</svg>
