<?xml version="1.0" encoding="UTF-8" standalone="no"?>
<!-- Created with Inkscape (http://www.inkscape.org/) -->

<svg
   xmlns:dc="http://purl.org/dc/elements/1.1/"
   xmlns:cc="http://creativecommons.org/ns#"
   xmlns:rdf="http://www.w3.org/1999/02/22-rdf-syntax-ns#"
   xmlns:svg="http://www.w3.org/2000/svg"
   xmlns="http://www.w3.org/2000/svg"
   xmlns:inkscape="http://www.inkscape.org/namespaces/inkscape"
   version="1.1"
   width="30"
   height="30"
   viewBox="0 0 30 30"
   id="svg2">
  <metadata
     id="metadata10">
    <rdf:RDF>
      <cc:Work
         rdf:about="">
        <dc:format>image/svg+xml</dc:format>
        <dc:type
           rdf:resource="http://purl.org/dc/dcmitype/StillImage" />
      </cc:Work>
    </rdf:RDF>
  </metadata>
  <defs
     id="defs8" />
  <path
     d="m 25.013,8.792 c -0.736,0.327 -1.528,0.548 -2.358,0.646 0.848,-0.508 1.5,-1.313 1.806,-2.27 -0.79,0.47 -1.67,0.81 -2.6,0.995 -0.75,-0.797 -1.81,-1.296 -2.99,-1.296 -2.267,0 -4.106,1.837 -4.106,4.104 0,0.33 0.036,0.64 0.108,0.94 -3.41,-0.17 -6.435,-1.8 -8.46,-4.28 -0.355,0.61 -0.556,1.31 -0.556,2.065 0,1.423 0.725,2.68 1.826,3.417 -0.675,-0.02 -1.308,-0.205 -1.86,-0.514 v 0.05 c 0,1.99 1.414,3.65 3.293,4.027 -0.348,0.092 -0.71,0.143 -1.086,0.143 -0.265,0 -0.52,-0.024 -0.773,-0.07 0.523,1.63 2.04,2.816 3.835,2.85 -1.406,1.1 -3.176,1.756 -5.1,1.756 -0.33,0 -0.658,-0.02 -0.978,-0.06 1.816,1.168 3.973,1.85 6.29,1.85 7.55,0 11.68,-6.258 11.68,-11.68 0,-0.18 -0.004,-0.357 -0.013,-0.53 0.8,-0.58 1.5,-1.305 2.05,-2.13 z"
     inkscape:connector-curvature="0"
     id="path4" />
</svg>
