<?xml version="1.0" encoding="UTF-8" standalone="no"?>
<!-- Created with Inkscape (http://www.inkscape.org/) -->

<svg
   xmlns:dc="http://purl.org/dc/elements/1.1/"
   xmlns:cc="http://creativecommons.org/ns#"
   xmlns:rdf="http://www.w3.org/1999/02/22-rdf-syntax-ns#"
   xmlns:svg="http://www.w3.org/2000/svg"
   xmlns="http://www.w3.org/2000/svg"
   xmlns:inkscape="http://www.inkscape.org/namespaces/inkscape"
   version="1.1"
   width="30"
   height="30"
   viewBox="0 0 30 30"
   id="svg2">
  <metadata
     id="metadata10">
    <rdf:RDF>
      <cc:Work
         rdf:about="">
        <dc:format>image/svg+xml</dc:format>
        <dc:type
           rdf:resource="http://purl.org/dc/dcmitype/StillImage" />
      </cc:Work>
    </rdf:RDF>
  </metadata>
  <defs
     id="defs8" />
  <path
     d="m 17.976,16.27 0.977,-1.056 c 0.135,-0.146 0.135,-0.382 0,-0.527 l -3.115,-3.358 -0.098,-0.11 c -0.048,-0.054 -0.048,-0.138 0,-0.19 l 3.07,-3.31 V 6.61 l -3.95,4.258 c -0.135,0.147 -0.135,0.383 0,0.53 l 3.116,3.357 v -0.01 l 0.098,0.106 c 0.048,0.05 0.048,0.137 0,0.19 l -3.214,3.47 c -0.135,0.143 -0.135,0.38 0,0.524 l 3.95,4.26 v -1.12 l -3.07,-3.31 c -0.048,-0.052 -0.048,-0.136 0,-0.188 l 2.236,-2.41 z m -5.95,2.41 3.212,-3.466 c 0.135,-0.146 0.135,-0.382 0,-0.527 l -3.115,-3.358 -0.098,-0.11 c -0.048,-0.054 -0.048,-0.138 0,-0.19 l 3.07,-3.31 V 6.61 l -3.95,4.258 c -0.135,0.147 -0.135,0.383 0,0.53 l 3.116,3.357 v -0.01 l 0.1,0.106 c 0.05,0.05 0.05,0.137 0,0.19 l -3.21,3.46 c -0.13,0.146 -0.13,0.38 0,0.527 l 3.95,4.26 v -1.12 l -3.07,-3.31 c -0.05,-0.05 -0.05,-0.134 0,-0.185 z"
     inkscape:connector-curvature="0"
     id="path4" />
</svg>
