<?xml version="1.0" encoding="UTF-8" standalone="no"?>
<!-- Created with Inkscape (http://www.inkscape.org/) -->

<svg
   xmlns:dc="http://purl.org/dc/elements/1.1/"
   xmlns:cc="http://creativecommons.org/ns#"
   xmlns:rdf="http://www.w3.org/1999/02/22-rdf-syntax-ns#"
   xmlns:svg="http://www.w3.org/2000/svg"
   xmlns="http://www.w3.org/2000/svg"
   xmlns:inkscape="http://www.inkscape.org/namespaces/inkscape"
   version="1.1"
   width="30"
   height="30"
   viewBox="0 0 30 30"
   id="svg2">
  <metadata
     id="metadata10">
    <rdf:RDF>
      <cc:Work
         rdf:about="">
        <dc:format>image/svg+xml</dc:format>
        <dc:type
           rdf:resource="http://purl.org/dc/dcmitype/StillImage" />
      </cc:Work>
    </rdf:RDF>
  </metadata>
  <defs
     id="defs8" />
  <path
     d="M 21.503,19.977 V 20 H 8.467 v -0.023 c -2.866,0 -5.19,-2.322 -5.19,-5.19 0,-2.866 2.324,-5.19 5.19,-5.19 2.868,0 5.192,2.324 5.192,5.19 0,1.423 -0.58,2.71 -1.5,3.648 h 5.65 c -0.93,-0.938 -1.5,-2.226 -1.5,-3.648 0,-2.866 2.32,-5.19 5.19,-5.19 2.86,0 5.19,2.324 5.19,5.19 0,2.866 -2.33,5.19 -5.19,5.19 z M 8.467,11.327 c -1.91,0 -3.46,1.548 -3.46,3.46 0,1.912 1.55,3.46 3.46,3.46 1.912,0 3.462,-1.55 3.462,-3.46 0,-1.91 -1.55,-3.46 -3.47,-3.46 z m 13.036,0 c -1.91,0 -3.46,1.548 -3.46,3.46 0,1.912 1.55,3.46 3.46,3.46 1.91,0 3.46,-1.55 3.46,-3.46 0,-1.91 -1.55,-3.46 -3.46,-3.46 z"
     inkscape:connector-curvature="0"
     id="path4" />
</svg>
