<?xml version="1.0" encoding="UTF-8" standalone="no"?>
<svg width="30px" height="30px" viewBox="0 0 30 30" version="1.1" xmlns="http://www.w3.org/2000/svg" xmlns:xlink="http://www.w3.org/1999/xlink" xmlns:sketch="http://www.bohemiancoding.com/sketch/ns">
    <!-- Generator: Sketch 3.0.1 (7597) - http://www.bohemiancoding.com/sketch -->
    <title>Artboard 1</title>
    <description>Created with Sketch.</description>
    <defs></defs>
    <g id="Page-1" stroke="none" stroke-width="1" fill="none" fill-rule="evenodd" sketch:type="MSPage">
        <g id="Artboard-1" sketch:type="MSArtboardGroup" fill="#000000">
            <g id="wifi-4" sketch:type="MSLayerGroup" transform="translate(10.000000, 16.000000)">
                <path d="M5,0.0666666667 C2.76,0.0666666667 0.84,1.28095238 -0.28,3.14285714 L1.48,4.92380952 C2.04,3.46666667 3.4,2.4952381 5,2.4952381 C6.6,2.4952381 7.96,3.54761905 8.52,4.92380952 L10.28,3.14285714 C9.24,1.28095238 7.24,0.0666666667 5,0.0666666667 L5,0.0666666667 Z M5,4.76190476 C4.12,4.76190476 3.48,5.49047619 3.48,6.3 C3.48,7.19047619 4.2,7.83809524 5,7.83809524 C5.88,7.83809524 6.52,7.10952381 6.52,6.3 C6.52,5.40952381 5.88,4.76190476 5,4.76190476 L5,4.76190476 Z" id="path4" sketch:type="MSShapeGroup"></path>
            </g>
        </g>
    </g>
</svg>