<?xml version="1.0" encoding="UTF-8" standalone="no"?>
<svg width="30px" height="30px" viewBox="0 0 30 30" version="1.1" xmlns="http://www.w3.org/2000/svg" xmlns:xlink="http://www.w3.org/1999/xlink" xmlns:sketch="http://www.bohemiancoding.com/sketch/ns">
    <!-- Generator: Sketch 3.0.1 (7597) - http://www.bohemiancoding.com/sketch -->
    <title>Artboard 1</title>
    <description>Created with Sketch.</description>
    <defs></defs>
    <g id="Page-1" stroke="none" stroke-width="1" fill="none" fill-rule="evenodd" sketch:type="MSPage">
        <g id="Artboard-1" sketch:type="MSArtboardGroup" fill="#000000">
            <g id="wifi-permissions" sketch:type="MSLayerGroup" transform="translate(3.000000, 6.500000)">
                <path d="M19.4496,10.52 L20.6832,9.2864 C18.704,6.6416 15.5584,4.9232 12,4.9232 C8.448,4.9232 5.304,6.6392 3.3256,9.2792 L4.992,10.9432 C6.528,8.7192 9.0928,7.2552 12,7.2552 C14.7248,7.2552 17.136,8.5432 18.696,10.5352 C17.844,10.6248 17.064,10.9352 16.408,11.4168 C15.288,10.2744 13.728,9.5624 12,9.5624 C9.728,9.5624 7.748,10.7864 6.668,12.6104 L8.412,14.3544 C8.972,12.9168 10.364,11.8952 11.9992,11.8952 C13.1672,11.8952 14.2072,12.4256 14.9112,13.2528 C14.6392,13.8448 14.4792,14.5008 14.4792,15.1936 C14.4792,17.796 16.5912,19.9072 19.1912,19.9072 C21.7912,19.9072 23.9032,17.7952 23.9032,15.1928 C23.9048,12.676 21.924,10.6368 19.4392,10.5064 L19.4496,10.52 Z M19.8872,19.3264 L18.4552,19.3264 L18.4552,14.1024 L19.8792,14.1024 L19.8792,19.3264 L19.8872,19.3264 Z M19.9512,13.5384 C19.7832,13.7176 19.5352,13.804 19.1912,13.804 C18.5208,13.804 18.1864,13.4712 18.1864,12.7976 C18.1864,12.128 18.5224,11.796 19.1888,11.796 C19.8608,11.796 20.1944,12.128 20.1944,12.7976 C20.1944,13.1176 20.112,13.3656 19.9448,13.5384 L19.9512,13.5384 Z M22.3272,7.6376 L24,5.968 C21.1584,2.4928 16.84,0.2744 12,0.2744 C7.1656,0.2744 2.8496,2.4904 0.0064,5.96 L1.6768,7.6288 C4.088,4.5784 7.8104,2.6128 12,2.6128 C16.1944,2.6144 19.9216,4.5824 22.3312,7.6368 L22.3272,7.6376 Z M12,14.224 C11.1456,14.224 10.4512,14.9168 10.4512,15.7728 C10.4512,16.6288 11.1448,17.3224 12.0008,17.3224 C12.8568,17.3224 13.5528,16.6296 13.5528,15.7728 C13.5528,14.916 12.8568,14.224 12.0008,14.224 L12,14.224 Z" id="path4" sketch:type="MSShapeGroup"></path>
            </g>
        </g>
    </g>
</svg>