<?xml version="1.0" encoding="UTF-8" standalone="no"?>
<svg width="30px" height="30px" viewBox="0 0 30 30" version="1.1" xmlns="http://www.w3.org/2000/svg" xmlns:xlink="http://www.w3.org/1999/xlink" xmlns:sketch="http://www.bohemiancoding.com/sketch/ns">
    <!-- Generator: Sketch 3.0.1 (7597) - http://www.bohemiancoding.com/sketch -->
    <title>Artboard 1</title>
    <description>Created with Sketch.</description>
    <defs></defs>
    <g id="Page-1" stroke="none" stroke-width="1" fill="none" fill-rule="evenodd" sketch:type="MSPage">
        <g id="Artboard-1" sketch:type="MSArtboardGroup" fill="#000000">
            <g id="wifi-4" sketch:type="MSLayerGroup" transform="translate(6.000000, 12.000000)">
                <path d="M9,-0.547619048 C5.48,-0.547619048 2.36,1.15238095 0.44,3.82380952 L2.12,5.52380952 C3.64,3.33809524 6.2,1.88095238 9,1.88095238 C11.88,1.88095238 14.44,3.33809524 15.96,5.6047619 L17.64,3.9047619 C15.64,1.15238095 12.52,-0.547619048 9,-0.547619048 L9,-0.547619048 Z M9,4.06666667 C6.76,4.06666667 4.84,5.28095238 3.72,7.14285714 L5.48,8.92380952 C6.04,7.46666667 7.4,6.4952381 9,6.4952381 C10.6,6.4952381 11.96,7.54761905 12.52,8.92380952 L14.28,7.14285714 C13.24,5.28095238 11.24,4.06666667 9,4.06666667 L9,4.06666667 Z M9,8.76190476 C8.12,8.76190476 7.48,9.49047619 7.48,10.3 C7.48,11.1904762 8.2,11.8380952 9,11.8380952 C9.88,11.8380952 10.52,11.1095238 10.52,10.3 C10.52,9.40952381 9.88,8.76190476 9,8.76190476 L9,8.76190476 Z" id="path4" sketch:type="MSShapeGroup"></path>
            </g>
        </g>
    </g>
</svg>